<?xml version="1.0" encoding="UTF-8" standalone="no"?><!DOCTYPE svg PUBLIC "-//W3C//DTD SVG 1.1//EN" "http://www.w3.org/Graphics/SVG/1.1/DTD/svg11.dtd"><svg width="100%" height="100%" viewBox="0 0 410 198" version="1.1" xmlns="http://www.w3.org/2000/svg" xmlns:xlink="http://www.w3.org/1999/xlink" xml:space="preserve" xmlns:serif="http://www.serif.com/" style="fill-rule:evenodd;clip-rule:evenodd;stroke-linejoin:round;stroke-miterlimit:2;"><path d="M371.113,103.984c-2.567,-5.754 0.262,-11.912 2.991,-16.033c5.117,-16.25 10.783,-31.958 17.117,-46.996c-0.346,-4.508 2.321,-6.004 1.904,-10.596c1.642,-1.529 3.6,-2.733 4.342,-5.158c3.8,0.454 7.766,0.746 9.508,3.254c0.496,3.946 3.162,7.334 2.721,11.688c-0.459,4.458 -4.871,9.096 -6.792,13.858c-1.904,4.704 -2.6,11.858 -4.621,16.567c-0.845,1.971 -1.654,2.979 -2.446,5.162c-1.975,5.459 -4.724,10.792 -6.516,16.3c-1.25,3.825 -1.609,7.779 -3.534,11.142c-3.879,4.533 -9.074,2.587 -14.674,0.812Z" style="fill:#231f20;"/><path d="M369.488,139.026c-1.334,-0.512 -2.288,-1.129 -4.076,-0.537c-4.958,-4.23 -2.679,-14.396 1.625,-17.659c2.65,1.325 4.921,-0.604 7.88,1.084c5.891,5.954 3.004,16.12 -5.429,17.112Z" style="fill:#231f20;"/><path d="M284.45,98.28l0,-2.45c-0.975,-0.129 -0.713,2.529 0,2.45Zm5.158,-26.896c-2.737,11.792 3.088,21.217 4.084,32.875c-2.684,2.934 -5.271,5.959 -9.784,7.059c-2.308,-2.313 -5.304,-3.925 -5.158,-8.692c-6.55,2.108 -9.854,11.008 -18.208,10.596c-1.271,-0.271 -1.909,-1.167 -2.988,-1.629c-15.442,0.912 -19.487,-14.175 -25,-25c-0.75,-13.475 -3.071,-27.7 -5.979,-39.934c-0.563,-13.575 0.142,-29.9 7.075,-38.304c10.825,-8.562 31.496,-12.387 42.65,-2.441c6.887,6.137 8.067,17.92 7.879,29.604c-3.158,2.737 -9.987,4.129 -14.129,2.721c-3.612,-4.438 -1.133,-9.313 -0.812,-14.13c-2.317,-2.025 -3.805,-4.891 -6.25,-6.787c-1.188,-0.196 -1.534,0.458 -2.717,0.271c-1.146,-1.034 -2.067,-2.279 -3.263,-3.267c-7.208,-2.137 -8.071,3.696 -11.95,5.717c-5.862,23.679 -4.012,59.487 10.05,74.429c1.825,-0.008 3.204,0.412 4.621,0.821c7.583,-2.842 11.967,-10.304 11.679,-20.1c-3.591,0.521 -6.6,0.162 -10.05,0.266c-1.391,-1.504 -2.291,-3.508 -3.262,-5.425c1.05,-5.42 1.137,-10.595 6.25,-12.233c5.325,3.021 9.025,-2.692 12.771,-3.254c4.97,-0.758 10.533,3.742 16.029,0.267c6.15,3.295 8.029,19.525 -3.538,16.57Z" style="fill:#231f20;"/><path d="M174.692,184.943c0.462,-1.167 0.583,-2.679 0.812,-4.071c12.325,-17.471 35.846,-23.754 60.588,-28.8c15.575,0.708 38.341,-5.396 35.587,13.858c-2.279,1.521 -4.658,2.946 -7.333,4.079c-2.638,-0.92 -5.592,2.1 -7.604,0c-18.459,1.805 -38.055,5.109 -55.15,11.946c-3.9,1.563 -8.642,4.434 -12.505,5.438c-5.116,1.333 -12.579,3.083 -14.395,-2.45Z" style="fill:#231f20;"/><path d="M176.046,60.243c4.304,-1.913 9.491,-4.346 12.504,-8.692c4.637,-6.683 4.821,-22.908 -2.446,-26.35c-6.646,-1.775 -16.496,-4.967 -23.908,-2.721c-0.296,7.179 1.591,13.496 3.258,19.288c1.338,4.65 5.204,9.621 6.525,14.675c0.733,2.808 -0.4,5.329 2.442,5.704c0.937,-0.238 0.504,-1.846 1.625,-1.904Zm41.029,58.683c-0.329,-1.75 -1.312,-2.858 -1.633,-4.612c-11.546,-11.996 -24.284,-22.813 -35.317,-35.321c-2.808,1.937 0.479,3.996 1.092,5.975c2.496,8.154 3.3,19.579 6.787,27.171c0.138,7.412 5.525,10.791 4.617,17.65c-5.704,1.304 -8.642,7.391 -14.671,9.237c-2.729,-1.7 -3.796,-5.079 -6.246,-7.054c0.808,-13.738 -5.862,-23.788 -7.608,-36.679c-4.95,-21.304 -14.088,-38.438 -19.829,-58.95c0.816,-6.717 -3.234,-10.654 -3.259,-17.392c1.779,-1.842 4.259,-2.987 4.888,-5.983c2.167,0.537 2.183,-1.075 3.262,-1.625c3.292,1.779 7.205,-2.371 10.321,-0c15.383,-7.217 34.979,-1.192 43.742,10.325c-0.117,4.037 4.221,5.516 4.616,9.504c1.038,10.396 -1.912,21.112 -5.166,29.337c-3.333,3.284 -6.2,7.025 -10.05,9.792c8.758,10.8 18.883,20.238 30.158,28.525c3.125,4.338 10.338,7.754 6.525,15.754c-0.854,0.779 -1.633,1.638 -2.179,2.717c-3.25,0.879 -6.346,3.517 -10.05,1.629Z" style="fill:#231f20;"/><path d="M115.467,90.401c4.97,-2.212 4.695,-7.729 1.087,-11.408c-5.975,-9.213 -4.529,-31.071 -19.287,-28.263c5.316,12.8 7.116,30.771 12.766,41.575c1.43,-1.016 2.9,-1.991 5.434,-1.904Zm44.829,50.808c-2.209,-0.679 -2.804,0.471 -4.075,1.35c-1.25,-0.016 -1.621,-0.912 -2.721,-1.083c-2.062,0.538 -4.683,1.196 -6.792,-0.267c-10.216,-7.12 -11.145,-29.6 -18.746,-39.12c-4.979,2.529 -12.595,2.425 -13.854,8.691c3.484,12.029 5.467,27.1 10.871,38.029c-0.625,1.692 -0.65,3.271 0.271,4.621c-0.563,5.154 -8.325,3.084 -10.871,6.25c-1.266,-0.462 -3.537,-1.341 -5.162,-0.546c-11.05,-16.658 -11.75,-43.666 -19.288,-63.841c-1.142,-10.034 -2.308,-20.021 -4.887,-29.884c-2.034,-7.77 -8.15,-13.833 -6.792,-22.55c4.346,-7.879 15.346,-9.104 22.817,-13.858c13.695,3.4 18.162,18.188 22.825,31.508c0.216,0.871 1.396,0.784 1.9,1.363c0.008,2.896 0.362,5.433 2.712,5.979c-0.175,1.988 1.004,2.588 2.179,3.8c4.188,14.2 11.154,25.621 16.025,39.129c0.971,1.384 1.688,3.025 3.538,3.534c1.525,4.895 4.546,8.308 6.246,13.033c4.262,2.396 8.458,9.367 3.804,13.862Z" style="fill:#231f20;"/><path d="M47.279,120.284c0,-0.104 0.058,-0.462 0,-0.545c-6.725,-9.325 -16.55,-17.538 -22.55,-26.35c-2.071,0.529 -2.041,-1.034 -3.533,-1.084c-4.142,2.459 -0.588,11.321 0.271,15.488c5.762,4.933 5.508,15.35 9.241,21.729c3.559,-3.417 16.642,-3.363 16.571,-9.238Zm44.284,54.071c-2.021,-0.375 -3.18,-2.012 -5.163,-1.637c-5.196,-9.596 -13.05,-19.084 -20.104,-28.254c-1.4,-1.817 -7.013,-10.996 -8.967,-11.142c-1.875,-0.129 -4.421,3.279 -5.979,4.079c-4.575,2.367 -11.221,4.017 -14.942,6.25c3.809,7.967 5.317,18.229 11.413,23.908c0.962,8.905 6.221,13.517 10.05,19.555c-0.883,9.833 -17.934,15.275 -20.646,3.808c-0.213,-0.6 -1.279,-0.35 -1.358,-1.088c-11.517,-33.816 -26.5,-63.112 -35.867,-98.616c0.521,-1.384 0.637,-3.175 1.087,-4.625c7.963,-5.079 13.184,-12.9 25.538,-13.584c0.625,0.475 0.871,1.313 1.637,1.638c4.763,-1.45 12.976,6.504 14.942,9.775c6.134,10.229 14.696,19.358 20.913,29.067c5.466,3.754 8.679,11.937 13.045,17.666c9.042,2.55 8.488,14.692 16.842,17.929c2.6,6.063 12.458,10.734 6.25,18.475c-3.971,1.196 -5.671,4.655 -8.691,6.796Z" style="fill:#231f20;"/><path d="M324.387,64.597c-1.258,0.762 -1.029,4.046 -1.087,5.158c1.275,-0.683 1.042,-4.141 1.087,-5.158Zm20.101,11.4c-3.138,-1.992 -7.888,-0.829 -12.226,-1.896c-2.375,12.288 -5.154,28.775 -6.516,42.65c-4.571,7.121 -21.609,2.679 -20.379,-7.329c0.221,-1.758 1.97,-3.175 2.446,-4.892c1.483,-5.362 1.754,-15.046 1.904,-21.466c0.546,-23.734 7.087,-52.442 6.791,-74.988c2.517,-2.633 5.675,-4.646 8.15,-7.325c3.28,0.033 4.979,1.975 8.15,1.083c0.392,1.98 2.163,2.238 2.988,3.538c3.296,5.171 0.504,10.062 -0.267,16.021c-1.537,11.791 -0.95,25.054 -2.45,36.133c2.921,1 8.196,3.017 10.867,0.542c0.329,1.254 0.891,2.312 2.446,1.637c2.254,-12.441 5.187,-27.016 6.525,-38.583c2.47,-1.4 1.212,-3.671 2.166,-6.25c2.896,-7.788 19.75,0.212 21.463,5.171c-4.267,6.825 -4.783,15.279 -7.604,24.721c-3.45,11.533 -9.609,21.112 -10.325,34.495c-2.321,9.23 -7.45,25.563 -7.879,36.68c-0.188,4.933 1.391,11.229 -4.067,12.225c-5.471,1 -6.95,-3.68 -9.788,-5.975c-2.05,-16.292 6,-31.105 7.605,-46.192Z" style="fill:#231f20;"/></svg>