<?xml version="1.0" encoding="UTF-8" standalone="no"?><!DOCTYPE svg PUBLIC "-//W3C//DTD SVG 1.1//EN" "http://www.w3.org/Graphics/SVG/1.1/DTD/svg11.dtd"><svg width="100%" height="100%" viewBox="0 0 626 972" version="1.1" xmlns="http://www.w3.org/2000/svg" xmlns:xlink="http://www.w3.org/1999/xlink" xml:space="preserve" xmlns:serif="http://www.serif.com/" style="fill-rule:evenodd;clip-rule:evenodd;stroke-linejoin:round;stroke-miterlimit:2;"><path d="M615.729,873.583c-1.05,1.217 -2.146,2.434 -3.404,3.53c-4.871,4.195 -17.892,13.645 -26.375,19.695c-4.912,3.529 -8.4,8.65 -9.788,14.534c-2.52,10.416 -2.77,22.175 -2.854,23.516c-0.212,3.488 -2.854,6.596 -6.846,8.025c-28.479,10.246 -125.204,27.009 -236.504,28.6c-5.629,0.088 -11.341,0.125 -17.05,0.125c-87.995,0 -168.258,-9.029 -218.491,-19.529c-12.934,-2.687 -23.896,-5.5 -32.463,-8.271c-2.771,-0.925 -8.275,-18.82 -11.508,-30.45c-1.808,-6.47 -5.758,-12.1 -11.175,-16.046c-10.121,-7.266 -26.125,-19.32 -31.288,-26.166c-4.325,-5.713 -7.983,-9.704 -7.983,-16.504l0,-660.542c0,-20.963 7.438,-41.496 21.379,-59.262l35.913,-56.03l4.283,-6.675l155.95,-3.066l90.338,-1.763l4.875,-0.129l4.912,-0.087l246.25,5.045l40.196,62.705c13.983,17.766 21.375,38.299 21.375,59.262l-0,632.654c-0,16.921 3.066,32.421 -9.742,46.829Z" style="fill:#592e2e;fill-rule:nonzero;"/><path d="M623.667,859.679c-1.471,4.746 -3.909,9.363 -7.938,13.904c-1.05,1.217 -2.146,2.434 -3.404,3.53c-4.871,4.195 -17.892,13.645 -26.375,19.695c-3.446,2.475 -6.217,5.754 -7.979,9.534c-49.184,11.462 -131.967,19.45 -227.725,20.875c-10,0.125 -20.121,0.208 -30.367,0.208l-0.675,0c-76.816,-0.042 -146.917,-4.283 -200.55,-11.254c-4.579,-0.588 -9.075,-1.217 -13.4,-1.85c-25.075,-3.65 -45.95,-7.979 -61.321,-12.767c-1.383,-1.554 -2.937,-2.983 -4.662,-4.242c-7.475,-5.379 -18.183,-13.354 -25.325,-19.949c-2.517,-2.313 -4.617,-4.413 -5.963,-6.217c-4.325,-5.713 -7.983,-9.704 -7.983,-16.504l0,-660.542c0,-20.963 7.438,-41.496 21.379,-59.262l35.913,-56.03l4.283,-6.675l155.95,-3.066l90.338,-1.763l4.875,-0.129l4.912,-0.087l246.25,5.045l29.021,45.275l11.175,17.43c13.983,17.766 21.375,38.299 21.375,59.262l-0,632.654c-0,11.629 1.429,22.554 -1.804,32.925Z" style="fill:#f7b24a;fill-rule:nonzero;"/><path d="M217.521,69.067l-155.946,3.062l-4.283,6.679c1.845,18.225 8.191,35.409 20.746,47.588c-3.484,10.121 -4.871,20.787 -3.946,31.625c0.546,6.216 7.771,11.675 14.154,7.646c10.625,-6.68 20.833,-13.863 30.658,-21.505c4.958,9.071 12.309,16.676 21.634,22.471c3.987,2.475 10.791,1.005 12.891,-3.191c4.117,-8.321 7.183,-16.846 9.284,-25.584c12.137,0.759 24.108,-0.083 36.079,-2.391c4.658,-0.884 8.312,-6.638 6.591,-10.879c-2.52,-6.213 -5.625,-11.842 -9.325,-17.263c8.946,-11.254 16.046,-24.104 21.129,-37.125c0.167,-0.379 0.25,-0.758 0.334,-1.133Z" style="fill:#b496eb;fill-rule:nonzero;"/><path d="M572.35,45.508l0,16.854c0,25.15 -116.254,45.509 -259.579,45.509c-139.263,-0 -252.888,-19.213 -259.283,-43.35l-0.338,-0.204l-0,-19.921c0.208,-0.404 0.338,-0.875 0.504,-1.313c7.204,-24 120.363,-43.083 259.117,-43.083c138.537,-0 251.742,19.012 259.196,42.979c0.254,0.846 0.383,1.688 0.383,2.529Z" style="fill:#592e2e;fill-rule:nonzero;"/><path d="M571.904,42.979c-7.458,23.971 -120.658,42.983 -259.2,42.983c-138.325,0 -251.358,-18.945 -259.112,-42.879c7.204,-24 120.362,-43.083 259.112,-43.083c138.542,-0 251.742,19.012 259.2,42.979Z" style="fill:#592e2e;fill-rule:nonzero;"/><path d="M559.121,43.546c-0,18.108 -107.738,38.275 -247.221,38.275c-139.487,-0 -245.525,-22.875 -245.525,-40.983c-0,-18.109 106.038,-35.567 245.525,-35.567c139.483,-0 247.221,20.166 247.221,38.275Z" style="fill:#4f1717;fill-rule:nonzero;"/><path d="M614.133,474.579c-3.654,3.904 -5.754,9.913 -8.233,14.617c-1.721,3.275 -3.404,6.55 -5.125,9.829c-2.937,0.837 -5.879,1.721 -8.779,2.688c-5.121,1.72 -10.625,3.191 -12.642,8.775c-2.141,6.091 1.725,10.837 5.084,15.416c3.654,4.954 7.308,9.95 10.962,14.908c-6.679,41.159 4.579,85.43 30.071,121.634l-0,-190.767c-3.779,-1.383 -7.725,-0.966 -11.338,2.9Z" style="fill:#b496eb;fill-rule:nonzero;"/><path d="M338.104,877.742c2.65,-5.084 4.875,-10.375 6.471,-15.88c2.058,-7.099 4.408,-16.045 0.083,-22.72c-4.495,-6.971 -13.945,-7.225 -21.42,-7.771c-10.038,-0.754 -20.075,0.212 -29.905,2.183l-0.925,0.254c-0.083,-20.37 -4.366,-49.895 -25.871,-44.65c-15.791,3.825 -28.52,17.559 -35.866,32.638c-0.55,-0 -1.096,0.083 -1.683,0.083c-10.038,-13.271 -37.005,-15.962 -51.659,-15.916c-20.667,0.041 -16.425,20.454 -11.175,35.362c-12.85,7.896 -50.65,28.433 -40.096,75.775c53.634,6.971 116.33,10.283 193.146,10.325l0.675,0c10.246,0 20.367,-0.083 30.363,-0.208c5.291,-12.767 8.066,-31.292 -12.138,-49.475Z" style="fill:#b496eb;fill-rule:nonzero;"/><path d="M58.508,457.063c-0.837,-9.867 -11.841,-15.959 -22.429,-19.951c-0.166,-6.045 -0.671,-12.054 -1.554,-18.058c-0.963,-6.341 -1.346,-15.371 -8.021,-18.441c-9.154,-4.196 -14.658,4.287 -18.354,13.82c-2.604,-2.354 -5.296,-4.621 -8.15,-6.762l0,163.716c33.562,-18.858 46.917,-51.112 44.521,-83.495c7.308,-9.159 14.866,-20.709 13.987,-30.829Z" style="fill:#b496eb;fill-rule:nonzero;"/><path d="M344.888,300.463c-17.63,-10.825 -37.659,-17.626 -58.267,-18.946c-0.858,-0.063 -1.596,-0.675 -1.813,-1.534c-1.533,-5.891 -5.154,-11.233 -11.6,-11.416c-5.616,-0.184 -10.804,4.079 -15.037,8.808c-0.892,1.012 -2.517,0.675 -2.946,-0.583c-4.3,-12.829 -11.817,-24.184 -26.025,-18.817c-16.175,6.142 -24.154,26.671 -25.842,43.983c-0.12,1.009 -1.012,1.684 -2.025,1.563c-11.05,-1.563 -47.016,3.346 -52.816,9.3c-6.6,6.691 -0.029,17.554 2.854,24.554c3.067,7.488 4.758,9.417 8.317,15.833c0.458,0.829 0.154,1.842 -0.646,2.334c-10.496,6.441 -18.292,16.6 -21.575,28.879c-0.979,3.558 10.221,13.779 15.745,15.346c0.796,0.212 1.351,0.95 1.288,1.779c-0.237,3.896 -0.2,7.596 0.037,11.179c4.792,72.108 69.767,132.642 143.342,123.5c42.967,-5.337 77.892,-35.687 93.375,-75.521c20.683,-53.229 4.434,-129.05 -46.366,-160.241Z" style="fill:#b496eb;fill-rule:nonzero;"/><path d="M604.096,134.838l-11.175,-17.43c-2.308,5.334 -3.946,10.917 -4.996,16.675c-7.017,0.25 -13.946,1.217 -20.875,3.063c-1.217,0.337 -2.058,1.975 -1.262,3.108c2.604,3.696 5.379,7.225 8.57,10.417c3.317,3.358 8.821,5.962 11.759,9.492c3.321,4.074 -0.838,9.662 -2.688,14.533c-2.475,6.383 -4.954,12.808 -7.433,19.196c-0.296,0.796 0.208,1.971 0.967,2.35c5.837,2.896 14.154,-0 21.42,-2.9c1.68,2.733 6.717,19.029 9.83,21.171c3.191,2.183 7.179,0.333 10.874,-2.396c2.059,1.008 4.2,1.846 6.384,2.604l-0,-20.621c-0,-20.958 -7.392,-41.496 -21.375,-59.262Z" style="fill:#b496eb;fill-rule:nonzero;"/><path d="M547.196,51.021c-2.45,-7.738 -17.617,-7.254 -24.025,-8.571c-16.396,-3.367 -32.892,-6.238 -49.454,-8.654c-33.296,-4.858 -66.842,-7.9 -100.45,-9.417c-68.454,-3.096 -137.067,0.042 -205.242,6.492c-18.696,1.767 -37.362,3.829 -56.025,5.891c-13.471,1.488 -25.546,4.171 -35.95,13.321c-2.033,1.788 0.946,4.75 2.971,2.971c14.85,-13.062 36.267,-12.437 54.929,-14.491c20.033,-2.205 40.1,-4.159 60.192,-5.792c38.845,-3.154 77.804,-5.125 116.787,-5.367c38.854,-0.242 77.733,1.233 116.413,4.975c21.12,2.046 42.175,4.763 63.108,8.25c9.246,1.542 18.471,3.229 27.662,5.071c3.634,0.729 23.684,2.171 25.034,6.438c0.817,2.566 4.871,1.47 4.05,-1.117Z" style="fill:#290c0c;fill-rule:nonzero;"/><path d="M584.633,158.675c-21.9,17.392 -53.487,23.242 -80.233,28.167c-41.096,7.575 -83.004,10.8 -124.713,12.533c-87.024,3.621 -175.787,1.488 -262.012,-11.65c-16.796,-2.558 -33.604,-5.592 -50.008,-10.079c-10.867,-2.975 -22.467,-6.338 -31.717,-13.017c-2.196,-1.587 -4.296,2.054 -2.121,3.625c19.325,13.954 47.638,17.617 70.425,21.534c39.809,6.837 80.213,10.329 120.513,12.566c89.621,4.979 181.637,4.967 270.421,-9.662c30.733,-5.067 67.262,-11.071 92.416,-31.046c2.117,-1.679 -0.875,-4.634 -2.971,-2.971Z" style="fill:#290c0c;fill-rule:nonzero;"/><path d="M597.017,857.433c-14.2,11.855 -32.917,15.425 -50.546,19.213c-19.025,4.087 -38.234,7.267 -57.533,9.716c-36.909,4.692 -74.138,6.601 -111.321,7.105c-73.009,0.975 -146.867,-0.2 -219.55,-7.492c-42.009,-4.217 -83.684,-11.221 -124.434,-22.337c-2.612,-0.713 -3.725,3.337 -1.116,4.049c73.262,19.988 149.133,26.201 224.783,28.505c77.775,2.366 156.3,4.058 233.646,-5.88c20.35,-2.616 40.596,-6.041 60.625,-10.483c17.258,-3.829 34.558,-7.858 48.417,-19.425c2.079,-1.733 -0.905,-4.691 -2.971,-2.971Z" style="fill:#290c0c;fill-rule:nonzero;"/><path d="M566.075,42.367c-7.787,13.766 -21.508,19.825 -35.992,24.341c-14.645,4.567 -29.52,8.371 -44.558,11.392c-35.054,7.037 -70.788,10.1 -106.467,11.712c-72.737,3.276 -145.729,-0.895 -217.754,-11.504c-18.066,-2.658 -35.883,-6.27 -53.662,-10.404c-15.921,-3.7 -33.28,-8.304 -43.525,-22.062c-1.596,-2.142 -5.246,-0.05 -3.629,2.12c16.158,21.692 49.029,25.28 73.724,30.046c37.909,7.313 76.688,11.288 115.163,14.13c76.592,5.649 155.912,5.375 231.617,-8.888c19.171,-3.608 38.537,-8.112 56.929,-14.712c13.162,-4.721 24.746,-11.613 31.779,-24.05c1.333,-2.359 -2.292,-4.48 -3.625,-2.121Z" style="fill:#290c0c;fill-rule:nonzero;"/><path d="M452.196,31.483c-9.088,-3.695 -130.5,-13.112 -150.238,-11.062c-39.016,4.05 -57.191,41.112 -30.766,43.221c39.225,3.121 131.183,3.279 155.504,-2c14.908,-3.238 45.075,-22.2 25.5,-30.159Z" style="fill:#592e2e;fill-rule:nonzero;"/><path d="M302.579,30.713c-6.287,0.487 -18.754,4.954 -11.804,12.741c9.233,10.342 30.908,7.692 42.954,7.109c6.775,-0.334 21.863,-2.855 13.154,-13.067c-8.583,-10.067 -31.529,-8.875 -42.645,-7.263c-2.663,0.388 -1.53,4.434 1.116,4.05c9.342,-1.358 18.35,-0.92 27.534,1.309c2.779,0.679 17.1,4.175 6.737,10.479c-1.637,0.996 -6.508,0.333 -8.483,0.421c-6.563,0.287 -13.163,0.537 -19.717,-0.113c-3.812,-0.375 -7.708,-0.95 -11.325,-2.296c-7.554,-2.804 -3.583,-8.7 2.479,-9.166c2.684,-0.209 2.704,-4.409 0,-4.204Z" style="fill:#290c0c;fill-rule:nonzero;"/><path d="M381.908,34.458c-5.025,0.367 -18.712,3.488 -16.425,11.067c1.3,4.317 8.275,6.146 12.125,7.275c8.134,2.379 16.85,2.367 25.184,1.267c4.354,-0.575 33.012,-3.275 24.346,-13.65c-3.588,-4.3 -12.863,-5.342 -17.867,-5.979c-10.713,-1.376 -21.558,-0.105 -32.238,0.987c-2.666,0.271 -2.691,4.475 0,4.2c8.334,-0.854 16.725,-1.825 25.121,-1.538c4.396,0.151 11.358,-0.195 15.225,2.313c7.5,4.867 0.288,6.546 -4.508,7.588c-10.083,2.199 -20.704,3.766 -30.946,1.558c-3.617,-0.779 -12.967,-1.85 -9.533,-8.117c0.916,-1.662 7.637,-2.633 9.516,-2.771c2.68,-0.191 2.7,-4.391 0,-4.2Z" style="fill:#290c0c;fill-rule:nonzero;"/><path d="M193.596,359.096c-12.513,-8.646 4.875,-28.613 11.329,-34.804c6.629,-6.355 39.188,-28.104 39.671,-6.592c0.217,9.521 -7.154,18.412 -13.133,24.975c-9.805,10.75 -23.075,21.35 -38.371,16.208c-2.567,-0.862 -3.667,3.192 -1.117,4.05c19.821,6.667 37.904,-10 48.808,-24.9c5.538,-7.558 13.138,-22.741 3.755,-30.42c-21.967,-17.98 -78.521,37.52 -53.063,55.112c2.229,1.538 4.329,-2.1 2.121,-3.629Z" style="fill:#290c0c;fill-rule:nonzero;"/><path d="M283.325,288.983c-0.238,15.309 -4.529,29.129 -12.925,41.921c-0.4,0.608 -0.379,1.513 -0,2.121c2.792,4.504 7.138,7.937 9.767,12.458c7.375,12.696 -5.075,19.084 -13.942,23.338c-12.917,6.212 -27.362,9.275 -41.679,8.95c-10.113,-0.229 -17.621,-2.979 -25.892,3.829c-12.042,9.904 -22.521,17.004 -38.575,18.563c-2.667,0.258 -2.691,4.462 0,4.199c7.975,-0.77 15.65,-2.616 22.9,-6.099c9.979,-4.792 17.988,-16.134 29.254,-17.309c4.963,-0.517 10.742,1.109 15.842,1.029c4.304,-0.066 8.604,-0.429 12.863,-1.075c10.083,-1.525 19.883,-4.662 28.987,-9.254c12.471,-6.287 23.8,-14.625 13.667,-28.841c-2.684,-3.767 -8.434,-7.434 -7.638,-12.721c0.533,-3.567 4.354,-7.925 5.792,-11.442c3.896,-9.517 5.621,-19.425 5.779,-29.667c0.042,-2.704 -4.158,-2.704 -4.2,0Z" style="fill:#290c0c;fill-rule:nonzero;"/><path d="M489.171,483.608c4.096,-17.82 4.142,-36.512 -0.571,-54.15c-0.188,-0.737 0.117,-1.525 0.775,-1.95c4.504,-2.945 7.954,-7.483 6.292,-12.937c-1.429,-4.754 -6.467,-7.896 -11.621,-10.109c-1.1,-0.462 -1.275,-1.92 -0.342,-2.633c9.534,-7.221 16.925,-16.721 8.417,-27.108c-9.704,-11.813 -29.154,-12.709 -44.129,-9.238c-0.884,0.184 -1.7,-0.375 -1.884,-1.258c-1.804,-9.692 -16.066,-38.437 -22.687,-41.617c-7.467,-3.637 -14.713,4.93 -19.763,9.321c-5.404,4.679 -6.55,6.642 -10.916,11.433c-0.567,0.617 -1.5,0.646 -2.138,0.117c-8.358,-6.975 -19.066,-10.637 -30.275,-9.925c-3.258,0.183 -8.658,12.446 -8.412,17.517c0.046,0.729 -0.417,1.4 -1.125,1.583c-3.334,0.896 -6.421,1.971 -9.354,3.179c-59.05,24.359 -91.426,95.863 -63.013,154.913c16.592,34.483 51.867,55.179 89.6,56.908c50.425,2.309 109.35,-32.692 121.146,-84.046Z" style="fill:#a17ee0;fill-rule:nonzero;"/><path d="M397.583,373.604c4.059,-13.662 27.625,-2.908 34.38,1.004c6.004,3.48 12.641,8.359 16.52,14.275c5.113,7.809 2.58,15.596 -7.016,16.142c-17.054,0.979 -43.859,-13.275 -43.809,-31.979c0.005,-2.7 -4.195,-2.704 -4.204,-0c-0.041,16.558 14.75,26.092 28.559,31.837c8.545,3.555 26,8.98 32.241,-1.512c13.792,-23.184 -52.562,-58.338 -60.721,-30.883c-0.77,2.595 3.279,3.708 4.05,1.116Z" style="fill:#290c0c;fill-rule:nonzero;"/><path d="M620.171,166.883c-2.3,-5.754 -10.763,-28.625 -19.629,-26.033c-9.363,2.733 -2.113,23.075 -0.346,28.154c2.258,6.5 10.075,28.588 19.571,26.367c11.337,-2.658 1.85,-27.392 -0.317,-32.838c-0.992,-2.483 -5.054,-1.4 -4.05,1.117c1.046,2.625 10.633,28.396 -1.025,23.554c-4.554,-1.891 -8.671,-15.191 -10.129,-19.316c-1.184,-3.342 -7.388,-21.334 -0.658,-21.63c3.6,-0.158 11.679,19.609 12.533,21.742c0.987,2.479 5.054,1.4 4.05,-1.117Z" style="fill:#290c0c;fill-rule:nonzero;"/><path d="M2.921,432.179c12.017,3.579 22.5,10.925 29.437,21.463c1.334,2.025 3.859,5.308 3.875,7.8c0.059,7.716 -7.904,4.187 -11.02,3.279c-6.967,-2.025 -13.605,-4.817 -20.03,-8.171c-2.395,-1.25 -4.525,2.375 -2.125,3.629c6.996,3.646 40.588,20.779 37.371,1.075c-2.654,-16.267 -21.983,-28.833 -36.396,-33.121c-2.595,-0.775 -3.704,3.275 -1.112,4.046Z" style="fill:#290c0c;fill-rule:nonzero;"/><path d="M0.35,481.233c2.779,5.65 5.187,11.942 8.513,17.296c1.337,2.167 2.608,4.513 5.487,4.783c3.354,0.305 6.904,-3.087 9.371,-4.716c5.733,-3.783 11.471,-7.567 17.204,-11.354c2.246,-1.484 0.146,-5.121 -2.121,-3.625c-3.279,2.162 -6.554,4.325 -9.833,6.487c-3.125,2.063 -7.55,6.334 -11.063,7.3c-6.983,1.917 -11.262,-12.862 -13.929,-18.292c-1.196,-2.424 -4.821,-0.3 -3.629,2.121Z" style="fill:#290c0c;fill-rule:nonzero;"/><path d="M622.646,500.446c-8.675,0.2 -16.696,6.871 -17.008,15.904c-0.309,9.092 7.387,16.113 15.983,16.929c2.692,0.254 2.675,-3.95 -0,-4.2c-6.363,-0.604 -12.071,-6.066 -11.783,-12.729c0.291,-6.746 6.412,-11.554 12.808,-11.7c2.7,-0.062 2.708,-4.262 -0,-4.204Z" style="fill:#290c0c;fill-rule:nonzero;"/><path d="M597.7,538.983c0.454,4.405 1.133,8.78 2.208,13.079c0.675,2.713 1.188,6.967 3.925,8.517c2.405,1.363 5.65,0.092 8,-0.721c4.054,-1.404 7.754,-3.466 11.159,-6.079c2.112,-1.625 0.025,-5.275 -2.121,-3.625c-2.979,2.284 -11.021,8.267 -14.617,6.025c-2.062,-1.291 -2.333,-5.254 -2.833,-7.554c-0.7,-3.187 -1.188,-6.396 -1.521,-9.642c-0.275,-2.662 -4.475,-2.691 -4.2,0Z" style="fill:#290c0c;fill-rule:nonzero;"/><path d="M353.583,359c1.684,8.129 4.884,15.292 9.85,21.95c4.5,6.025 6.171,9.425 4.159,17.125c-0.717,2.729 -2.288,5.1 -1.921,8.071c1.342,10.825 21.329,13.008 29.421,14.808c16.737,3.729 33.921,-0.15 50.162,5.484c13.459,4.666 27.871,10.654 41.613,3.466c2.396,-1.254 0.275,-4.879 -2.121,-3.625c-14.563,7.617 -29.771,-1.583 -43.792,-5.679c-13.425,-3.921 -27.704,-0.483 -41.483,-3.021c-6.317,-1.166 -12.854,-2.9 -18.988,-4.833c-5.329,-1.683 -10.75,-2.875 -9.841,-11.113c0.291,-2.641 2.47,-5.075 2.879,-7.783c0.679,-4.462 -0.888,-7.654 -3.35,-11.363c-5.504,-8.283 -10.438,-14.462 -12.538,-24.604c-0.546,-2.645 -4.595,-1.529 -4.05,1.117Z" style="fill:#290c0c;fill-rule:nonzero;"/><path d="M172.308,847.208c1.667,8.338 5.325,22.855 13.846,27.013c3.867,1.892 8.413,0.654 12.375,-0.096c10.038,-1.896 18.95,-3.912 29.084,-0.879c13.408,4.012 24.916,8.508 39.191,8.229c14.759,-0.288 29.234,-3.738 43.504,-7.196c2.625,-0.633 1.517,-4.687 -1.116,-4.05c-26.25,6.363 -49.596,9.8 -75.563,0.625c-8.625,-3.05 -16.221,-4.346 -25.329,-2.921c-8.871,1.38 -19.079,4.204 -25.504,-3.879c-3.783,-4.754 -5.275,-12.129 -6.442,-17.966c-0.525,-2.646 -4.575,-1.525 -4.046,1.12Z" style="fill:#290c0c;fill-rule:nonzero;"/><path d="M223.425,845.008c0.829,-4.712 31.542,0.521 34.229,0.992c9.854,1.721 21.146,3.379 28.659,10.525c0.137,-1.096 0.283,-2.2 0.425,-3.296c-9.459,4.409 -23.034,0.325 -32.875,-0.858c-10.78,-1.292 -21.317,-2.054 -30.609,-8.179c-2.267,-1.488 -4.371,2.146 -2.121,3.629c9.859,6.492 21.288,7.375 32.73,8.75c11.199,1.346 24.312,5.262 34.991,0.283c1.225,-0.571 1.338,-2.429 0.429,-3.3c-9.945,-9.462 -25.675,-11.162 -38.696,-12.846c-5.908,-0.762 -29.508,-6.508 -31.212,3.184c-0.467,2.641 3.583,3.775 4.05,1.116Z" style="fill:#290c0c;fill-rule:nonzero;"/><path d="M86.088,123.779c2.608,-9.266 5.491,-17.679 16.82,-16.929c4.813,0.321 9.067,3.804 13.921,3.896c8.021,0.15 16.663,-6.483 24.421,-8.663c2.596,-0.725 1.496,-4.783 -1.117,-4.05c-6.137,1.725 -11.575,4.58 -17.512,6.625c-9.05,3.109 -15.904,-2.429 -24.654,-3.179c-10.371,-0.887 -13.679,13.183 -15.929,21.184c-0.734,2.608 3.32,3.72 4.05,1.116Z" style="fill:#290c0c;fill-rule:nonzero;"/><path d="M165.621,107.079c-12.404,-3.767 -28.883,2.254 -40.417,7.254c-5.091,2.204 -18.637,11.321 -10.9,18.117c2.558,2.242 6.884,1.371 9.879,0.862c8.859,-1.504 18.2,-4.17 26.459,-7.762c3.891,-1.692 25.987,-12.329 15.479,-18.262c-2.354,-1.325 -4.475,2.3 -2.117,3.629c1.5,0.85 -10.412,8.6 -12.041,9.412c-4.826,2.409 -9.709,3.85 -14.851,5.313c-4.341,1.233 -22.608,8.525 -18.899,-1.1c2.437,-6.321 13.825,-8.292 19.587,-9.984c8.708,-2.554 17.604,-6.191 26.704,-3.429c2.592,0.788 3.7,-3.266 1.117,-4.05Z" style="fill:#290c0c;fill-rule:nonzero;"/><path d="M49.375,641.387c-7.35,0 -14.612,-4.729 -14.437,-14.195c0.575,-31.15 1.004,-62.296 1.283,-93.45c6.879,-14.221 9.471,-30.017 8.3,-45.85c7.308,-9.159 14.866,-20.709 13.987,-30.829c-0.825,-9.705 -11.483,-15.759 -21.904,-19.75c-0.05,-49.646 -0.479,-99.305 -1.287,-148.946c-0.154,-9.475 7.108,-14.2 14.454,-14.2c7.358,-0 14.796,4.741 14.95,14.2c1.837,112.937 1.712,225.891 -0.384,338.825c-0.175,9.466 -7.612,14.195 -14.962,14.195Z" style="fill:#fce0b7;fill-rule:nonzero;"/><path d="M36.221,533.742c0.129,-14.529 0.229,-29.054 0.292,-43.588c1.47,-0.971 2.941,-1.941 4.412,-2.912c1.875,-1.238 0.721,-3.979 -1.029,-3.979c-0.346,-0 -0.717,0.108 -1.092,0.354c-0.754,0.5 -1.512,1 -2.271,1.5c0.021,-5.029 0.038,-10.05 0.05,-15.075c3.03,-1.025 4.684,-3.659 3.846,-8.788c-0.571,-3.504 -1.917,-6.837 -3.821,-9.954c0,-4.667 0,-9.321 -0.004,-13.987c10.421,3.991 21.079,10.045 21.904,19.75c0.879,10.12 -6.679,21.67 -13.987,30.829c1.171,15.833 -1.421,31.629 -8.3,45.85Z" style="fill:#e1d5f7;fill-rule:nonzero;"/><path d="M36.583,470.042c0.013,-6.246 0.021,-12.496 0.025,-18.742c1.904,3.117 3.25,6.45 3.821,9.954c0.838,5.129 -0.816,7.763 -3.846,8.788Z" style="fill:#a99e9e;fill-rule:nonzero;"/><path d="M36.513,490.154c0.008,-1.675 0.016,-3.362 0.02,-5.037c0.759,-0.5 1.517,-1 2.271,-1.5c0.375,-0.246 0.746,-0.354 1.092,-0.354c1.75,-0 2.904,2.741 1.029,3.979c-1.471,0.971 -2.942,1.941 -4.412,2.912Z" style="fill:#a99e9e;fill-rule:nonzero;"/><path d="M120.487,637.779c-1.387,5.546 -2.724,11.125 -4.016,16.779c8.175,-0.887 22.096,-3.562 21.029,-11.537c-0.704,-5.271 -8.883,-5.958 -17.013,-5.242Zm14.659,39.684c1.079,-9.767 -13.404,-9.676 -21.746,-8.83c-1.454,6.967 -2.829,14.1 -4.129,21.471l-0.059,0.413c9.042,0.266 24.609,-1.042 25.934,-13.054Zm11.741,5.108c-6.274,24.262 -38.537,20.283 -44.27,19.375l-0.646,-0.042c-8.15,-0.854 -4.929,-11.7 -3.429,-19.208c2.362,-11.892 6.033,-30.079 9.066,-42.8c-0.987,0.233 -1.833,0.45 -2.466,0.629c-3.396,0.954 -5.38,-1.683 -5.205,-4.05c0.346,-4.658 2.196,-6.525 8.084,-8.946c10.608,-4.366 38.946,-4.471 40.733,12.85c1.654,15.996 -12.783,19.938 -12.446,19.979c5.263,0.659 14.354,7.625 10.579,22.213Z" style="fill:#fff;fill-rule:nonzero;"/><path d="M170.237,666.592c13.463,-20.025 11.813,-27.067 10.642,-27.167c-1.937,-0.167 -8.246,8.025 -10.642,27.167Zm32.846,16.983c-5.158,11.108 -14.341,27.492 -30.712,26.079c-16.329,-1.404 -15.658,-23.721 -14.529,-36.85c1.133,-13.129 7.771,-47.596 25.741,-46.046c4.192,0.359 9.775,2.134 8.742,14.138c-1.296,15.041 -15.838,35.075 -23.317,42.108c-0.391,12.65 1.467,15.279 5.4,15.617c4.284,0.371 15.046,-8.517 19.521,-19.704c2.621,-6.546 11.529,-0.459 9.154,4.658Z" style="fill:#fff;fill-rule:nonzero;"/><path d="M261.621,683.8c-4.75,10.108 -11.429,30.108 -29.713,29.079c-5.662,-0.316 -8.595,-4.266 -9.933,-9.612c-4.571,5.333 -10.579,9.341 -18.267,8.908c-20.854,-1.171 -8.046,-41.483 -7.133,-43.362c-0,-0 1.708,-4.571 5.875,-4.338c4.171,0.238 8.092,2.067 6.533,6.808c-1.554,4.738 -8.146,28.988 -2.212,29.317c4.292,0.246 9.85,-7.929 15.033,-16.779c0.917,-6.629 2.334,-11.929 2.546,-12.521c0.713,-1.987 2.908,-6.454 6.617,-6.025c4.075,0.475 6.529,2.308 5.633,7.079c-1.033,5.492 -6.729,28.825 -1.638,29.109c6.255,0.354 11.826,-11.359 16.209,-20.663c2.925,-6.217 12.258,-0.846 10.45,3Z" style="fill:#fff;fill-rule:nonzero;"/><path d="M261.254,686.571c3.913,0.212 9.871,-0.346 10.458,-5.963c0.25,-2.396 -2.337,-4.441 -4.533,-3.412c-1.496,0.704 -4.375,3.287 -5.925,9.375Zm42.25,-1.296c-4.887,12.05 -12.483,30.458 -37.058,29.838c-10.746,-0.275 -18.154,-9.821 -17.842,-22.076c0.354,-13.808 6.146,-26.362 20.759,-25.991c6.745,0.175 13.229,5.962 13.037,13.354c-0.287,11.342 -10.375,17.55 -21.942,17.375c0.913,4.904 4.38,6.929 8.421,7.029c9.638,0.246 17.55,-7.062 24.938,-22.546c2.4,-4.158 10.837,0.171 9.687,3.017Z" style="fill:#fff;fill-rule:nonzero;"/><path d="M329.008,706.646c-8.604,3.575 -7.475,7.021 -5.608,6.858c2.475,-0.221 4.4,-3.1 5.608,-6.858Zm-22.816,-37.079c9.291,-15.9 7.712,-22.488 6.533,-22.484c-2.6,0.017 -4.925,9.588 -6.533,22.484Zm50.979,17.429c-4.184,7.762 -9.758,11.8 -15.879,14.712c-1.121,9.713 -7.417,21.925 -20.821,21.125c-10.138,-0.608 -13.571,-16.079 -1.067,-22.646c3.542,-1.862 7.333,-3.399 10.988,-4.92c-0.309,-4.3 -1.688,-7.654 -4.384,-7.642c-5.462,0.025 -16.566,13.171 -22.837,28.063l-0.142,0.258c-0.575,1.104 -1.512,1.717 -3.066,1.725c-3.734,0.016 -5.788,-0.454 -6.038,-2.867c-0,0 -4.15,-79.858 20.188,-79.975c6.387,-0.029 9.904,5.259 10.091,11.359c0.504,16.166 -11.662,34.041 -19.825,44.158c-0.046,0.854 -0.087,1.708 -0.133,2.562c4.925,-7.254 12.75,-16.483 20.746,-16.525c9.666,-0.041 13.995,6.513 15.633,13.942c2.896,-1.796 5.267,-3.883 6.733,-6.571c3.025,-5.479 11.505,0.117 9.813,3.242Z" style="fill:#fff;fill-rule:nonzero;"/><path d="M359.15,686.825c3.917,-0.029 9.825,-0.958 10.063,-6.596c0.104,-2.408 -2.609,-4.287 -4.738,-3.121c-1.45,0.792 -4.162,3.546 -5.325,9.717Zm42.071,-3.904c-4.129,12.321 -10.571,31.158 -35.125,32.058c-10.742,0.392 -18.721,-8.671 -19.167,-20.916c-0.508,-13.805 4.496,-26.684 19.1,-27.217c6.742,-0.25 13.567,5.129 13.838,12.512c0.412,11.338 -9.267,18.15 -20.817,18.696c1.208,4.838 4.796,6.638 8.833,6.492c9.625,-0.35 17.075,-8.133 23.488,-24.042c2.129,-4.296 10.825,-0.496 9.85,2.417Z" style="fill:#fff;fill-rule:nonzero;"/><path d="M391.108,664.7c0.204,2.471 1.546,5.088 3.221,5.967c1,-2.488 1.538,-4.304 1.692,-6.538c0.183,-2.687 -0.713,-4.658 -2.596,-4.533c-1.829,0.121 -2.517,2.642 -2.317,5.104Zm54.963,16.338c-1.858,4.708 -7.579,31.329 -25.892,32.537c-16.708,1.108 -13.654,-20.221 -12.796,-25.471c0.638,-3.871 0.463,-4.012 0.463,-4.012c-0,-0 -5.129,0.941 -12.013,-0.892c-7.304,-1.954 -14.012,-7.404 -14.741,-18.463c-0.575,-8.658 6.754,-14.695 12.279,-15.058c5.529,-0.366 12.708,3.2 13.337,12.7c0.25,3.771 -0.925,7.525 -2.429,10.692c0.896,-0.017 1.825,-0.058 2.825,-0.158c11.034,-1.092 15.121,-1.967 13.979,6.316c-1.246,9.063 -6.625,23.863 1.267,23.342c4.204,-0.283 11.383,-14.504 15.788,-24.713c2.791,-6.458 9.795,-1.533 7.933,3.18Z" style="fill:#fff;fill-rule:nonzero;"/><path d="M435.829,661.746c0.279,2.462 1.709,5.037 3.408,5.862c0.921,-2.52 1.4,-4.35 1.48,-6.591c0.1,-2.692 -0.859,-4.634 -2.738,-4.446c-1.825,0.179 -2.433,2.725 -2.15,5.175Zm55.467,14.546c-1.704,4.771 -6.563,31.558 -24.825,33.362c-16.663,1.654 -14.3,-19.767 -13.613,-25.041c0.509,-3.892 0.325,-4.025 0.325,-4.025c0,-0 -5.095,1.108 -12.033,-0.505c-7.362,-1.712 -14.242,-6.941 -15.333,-17.975c-0.854,-8.633 6.27,-14.904 11.787,-15.45c5.513,-0.545 12.804,2.788 13.742,12.259c0.371,3.766 -0.684,7.558 -2.079,10.766c0.891,-0.045 1.825,-0.112 2.816,-0.246c10.992,-1.449 15.055,-2.458 14.18,5.859c-0.955,9.1 -5.855,24.066 2.02,23.287c4.196,-0.416 10.905,-14.866 14.98,-25.208c2.579,-6.55 9.745,-1.854 8.033,2.917Z" style="fill:#fff;fill-rule:nonzero;"/><path d="M519.583,708.737c-4.712,6.338 -7.983,12.555 -8.42,20.613c0.366,2.625 1.204,3.4 2.4,3.233c1.32,-0.183 5.279,-6.295 6.02,-23.846Zm30.313,-44c-5.95,13.284 -12.9,22.663 -19.263,30.446c0.492,22.48 -2.508,46.892 -16.933,48.9c-4.65,0.646 -11.7,-1.9 -13.162,-12.404c-1.9,-13.646 7.066,-24.762 18.829,-39.691c-0.217,-3.659 -0.542,-7.617 -0.996,-11.884c-3.733,11.263 -10.358,23.846 -21.521,25.4c-20.688,2.884 -14.246,-39.383 -13.721,-41.404c0,0 0.792,-4.812 4.929,-5.392c4.138,-0.575 8.342,0.463 7.734,5.417c-0.609,4.95 -4.063,30.254 1.829,29.433c5.829,-0.812 13.187,-24.3 17.325,-36.812c0.083,-1.283 0.766,-2.367 3.058,-3.184c3.942,-1.4 6.967,-3.279 8.817,3.884c0.55,2.137 1.912,10.4 2.862,21.029c3.425,-4.725 6.888,-9.85 10.234,-15.512c1.529,-3.013 11.916,-2.55 9.979,1.774Z" style="fill:#fff;fill-rule:nonzero;"/></svg>