<?xml version="1.0" encoding="UTF-8" standalone="no"?><!DOCTYPE svg PUBLIC "-//W3C//DTD SVG 1.1//EN" "http://www.w3.org/Graphics/SVG/1.1/DTD/svg11.dtd"><svg width="100%" height="100%" viewBox="0 0 575 1299" version="1.1" xmlns="http://www.w3.org/2000/svg" xmlns:xlink="http://www.w3.org/1999/xlink" xml:space="preserve" xmlns:serif="http://www.serif.com/" style="fill-rule:evenodd;clip-rule:evenodd;stroke-linejoin:round;stroke-miterlimit:2;"><path d="M376.833,319.058l0,-193.329l-179.083,0l-0,193.329c-0,30.734 -19.625,58.155 -48.833,67.717c-86.459,28.317 -148.917,109.604 -148.917,205.521l-0,626.008c-0,27.992 16.291,52.121 39.834,63.654c1.541,1.25 4.541,2.463 8.791,3.638c5.166,1.704 10.541,2.833 16.167,3.321c149,12.883 296.083,12.858 445.042,-0.005c5.582,-0.483 10.958,-1.612 16.124,-3.316c4.209,-1.175 7.25,-2.388 8.792,-3.638c23.542,-11.533 39.833,-35.662 39.833,-63.654l-0,-626.008c-0,-95.917 -62.458,-177.204 -148.917,-205.521c-29.208,-9.562 -48.833,-36.983 -48.833,-67.717Z" style="fill:#b496eb;fill-rule:nonzero;"/><path d="M574.583,592.312l-0,626.001c-0,27.995 -16.25,52.12 -39.833,63.658c-1.542,1.225 -4.583,2.458 -8.833,3.621c-5.125,1.721 -10.501,2.85 -16.083,3.304c-148.959,12.875 -296.042,12.908 -445.084,0.037c-5.584,-0.491 -10.959,-1.62 -16.084,-3.341c-4.25,-1.163 -7.291,-2.396 -8.832,-3.621c-23.584,-11.538 -39.834,-35.663 -39.834,-63.658l0,-626.001c0,-95.945 62.458,-177.22 148.917,-205.529c29.208,-9.562 48.833,-37 48.833,-67.737l-0,-4.288c10.917,8.759 50.5,11.817 90.5,11.817c38.5,-0 69.875,-1.525 88.583,-15.958l0,8.429c0,30.737 19.625,58.175 48.833,67.737c86.459,28.309 148.917,109.584 148.917,205.529Z" style="fill:#ff8f7d;fill-rule:nonzero;"/><path d="M286.709,0c-39.709,0 -74.042,4.771 -90.209,11.692c-4.209,1.795 -6.625,4.796 -6.625,7.97l0,54.417c0,2.9 2.042,5.667 5.625,7.496c14.875,7.563 50.792,12.892 92.75,12.892c39.292,-0 73.25,-4.667 89.625,-11.463c4.333,-1.783 6.834,-4.821 6.834,-8.046l-0,-54.775c-0,-2.983 -2.167,-5.824 -5.918,-7.65c-15.291,-7.37 -50.749,-12.533 -92.082,-12.533Z" style="fill:#ffebd6;fill-rule:nonzero;"/><path d="M286.709,70.333c-39.709,0 -74.042,4.775 -90.209,11.696c-4.209,1.796 -6.625,4.796 -6.625,7.971l0,54.417c0,2.9 2.042,5.666 5.625,7.495c14.875,7.563 50.792,12.892 92.75,12.892c39.292,0 73.25,-4.667 89.625,-11.458c4.333,-1.784 6.834,-4.825 6.834,-8.05l-0,-54.775c-0,-2.984 -2.167,-5.825 -5.918,-7.65c-15.291,-7.371 -50.749,-12.538 -92.082,-12.538Z" style="fill:#ffebd6;fill-rule:nonzero;"/><path d="M504.708,734.162c-0,133.871 -97.333,242.392 -217.417,242.392c-120.083,0 -217.416,-108.521 -217.416,-242.392c0,-133.87 97.333,-242.391 217.416,-242.391c120.084,-0 217.417,108.521 217.417,242.391Z" style="fill:#b496eb;fill-rule:nonzero;"/><path d="M458.208,727.354c0,101.317 -76.499,183.454 -170.917,183.454c-94.416,0 -170.916,-82.137 -170.916,-183.454c-0,-101.321 76.5,-183.454 170.916,-183.454c94.418,0 170.917,82.133 170.917,183.454Z" style="fill:#ffebd6;fill-rule:nonzero;"/><path d="M307.041,643.771c-39.625,16.141 -72.833,47.321 -84.707,89.216c-1.459,5.209 6.666,7.434 8.125,2.23c10.957,-38.854 41.999,-68.346 78.791,-83.346c4.958,-2.013 2.791,-10.142 -2.209,-8.1Z" style="fill:#692323;fill-rule:nonzero;"/><path d="M303.958,647.825c-2.375,32.712 6.667,64.304 21.501,93.221c2.457,4.808 9.707,0.566 7.25,-4.238c-14.209,-27.671 -22.626,-57.708 -20.376,-88.983c0.417,-5.396 -8,-5.371 -8.375,-0Z" style="fill:#692323;fill-rule:nonzero;"/><path d="M262.999,758.704c0.042,5.033 -0.874,10.354 -2.958,15.896c-6.541,17.35 -24.249,29.829 -42.791,29.829c-29.833,0 -52.583,-32.975 -42.875,-60.967c15.625,-45.016 88.292,-31.158 88.624,15.242Z" style="fill:#ff5f3b;fill-rule:nonzero;"/><path d="M373.583,760.517c-0,1.641 -0.042,3.312 -0.249,5.016c-1.834,18.088 -15.75,33.559 -33.126,38.4c-37.625,10.484 -70.124,-32.308 -49.833,-65.691c22.125,-36.384 82.542,-20.584 83.208,22.275Z" style="fill:#ff5f3b;fill-rule:nonzero;"/><path d="M202.042,86.3c56.625,14.725 116.666,19.425 173.125,1.225c2.541,-0.825 1.458,-4.883 -1.125,-4.05c-55.751,17.983 -114.917,13.325 -170.917,-1.229c-2.584,-0.679 -3.708,3.371 -1.083,4.054Z" style="fill:#290c0c;fill-rule:nonzero;"/><path d="M196.917,21.016c2.333,3.672 4.874,4.28 9.124,5.201c8.334,1.808 16.876,3.016 25.334,4.137c15.208,2.017 30.542,3.192 45.875,3.521c32.542,0.709 64.958,-2.509 96.792,-9.162c2.666,-0.555 1.541,-4.6 -1.084,-4.051c-28.25,5.905 -56.958,9.05 -85.792,9.117c-13.208,0.03 -26.374,-0.567 -39.5,-1.787c-8.333,-0.779 -16.666,-1.809 -24.958,-3.096c-5.333,-0.833 -19.042,-1.054 -22.167,-6c-1.458,-2.279 -5.083,-0.175 -3.624,2.12Z" style="fill:#290c0c;fill-rule:nonzero;"/><path d="M23.917,1226.17c15.917,21.016 42.291,25.933 67.125,27.929c39.375,3.162 78.958,4.741 118.416,6.587c80.501,3.771 161.25,5.488 241.75,0.538c33.292,-2.046 75.292,-0.446 101.583,-24.504c2,-1.83 -0.958,-4.796 -2.958,-2.971c-24.875,22.754 -65.041,21.162 -96.541,23.146c-36.417,2.291 -72.959,3.208 -109.417,3.183c-73.125,-0.054 -146.167,-3.9 -219.167,-8.129c-32,-1.854 -75.499,0.725 -97.166,-27.896c-1.584,-2.133 -5.25,-0.042 -3.625,2.117Z" style="fill:#290c0c;fill-rule:nonzero;"/><path d="M359.417,638.129c-11.208,-6.175 -26.626,-3.25 -38.333,1.663c0.541,-7.634 -2,-15.9 -5.376,-22.167c-4.625,-8.571 -15.249,-19.263 -25.791,-13.975c-9.625,4.842 -12.001,17.267 -8.168,26.596c5.043,12.116 17.46,17.612 28.834,22.229c0.75,0.308 1.458,0.388 2.084,0.358c5.916,13.004 21.708,23.963 35.791,25.6c10.375,1.2 24.5,-2.725 28.042,-13.887c3.667,-11.404 -8.209,-21.525 -17.083,-26.417Z" style="fill:#426e4b;fill-rule:nonzero;"/><path d="M299.125,618.054c8.25,8.579 13.874,18.759 16.709,30.317c0.666,2.621 4.707,1.508 4.041,-1.121c-3,-12.225 -9.041,-23.096 -17.792,-32.163c-1.874,-1.954 -4.833,1.021 -2.958,2.967Z" style="fill:#290c0c;fill-rule:nonzero;"/><path d="M319.458,650.617c16.875,-1.692 33.001,1.32 48.084,9.158c2.375,1.246 4.5,-2.375 2.125,-3.625c-15.709,-8.158 -32.626,-11.496 -50.209,-9.733c-2.666,0.266 -2.708,4.471 0,4.2Z" style="fill:#290c0c;fill-rule:nonzero;"/><path d="M195.084,359.317c10.041,9.808 23.916,11.6 37.291,13.491c13.083,1.846 26.209,3.017 39.375,3.588c28.958,1.258 59.125,0.296 86.959,-8.542c2.583,-0.817 1.457,-4.871 -1.125,-4.05c-25.459,8.092 -52.834,9.367 -79.417,8.621c-12.333,-0.346 -24.667,-1.221 -36.917,-2.671c-14.542,-1.717 -32.209,-2.692 -43.208,-13.404c-1.917,-1.892 -4.917,1.075 -2.958,2.967Z" style="fill:#290c0c;fill-rule:nonzero;"/><path d="M54.916,623.496c-7.041,-0 -14.583,-4.504 -15.499,-13.446c-4.667,-44.858 6.041,-91.554 32.5,-128.442c28.791,-40.154 72.624,-61.7 116.541,-81.5c2.125,-0.962 4.209,-1.387 6.209,-1.387c13.374,-0 22.333,19.212 7.999,25.679c-38.666,17.425 -79.874,35.7 -105.874,70.687c-24.667,33.101 -33.459,74.376 -29.25,114.963c0.916,8.987 -5.625,13.446 -12.626,13.446Z" style="fill:#ffd2cb;fill-rule:nonzero;"/><path d="M172.833,904.85c-2.542,3.283 -3.458,5.887 -2.25,6.937c1,0.867 1.709,-0.029 2.167,-0.466c1.333,-1.254 2.292,-1.558 4.833,0.212c2.001,1.392 2.333,2.729 1.125,4.625c-1.291,1.992 -6.499,6.317 -12.833,1.671c-5.333,-3.896 -4.959,-10.625 0.625,-18.133c5.041,-6.788 12.542,-9.1 17.209,-5.688c4.499,3.296 3.541,8.613 1.291,11.55c-2.291,2.938 -3.75,0.93 -5.334,-0.379c-1.583,-1.279 -0.916,-1.604 -0.374,-2.987c0.458,-1.146 -0.542,-1.517 -0.792,-1.58c-0.917,-0.208 -2.875,0.646 -5.667,4.238Z" style="fill:#fff;fill-rule:nonzero;"/><path d="M194.125,934.367c-1.959,-0.975 -4.5,-1.959 -2.75,-5.679c0.833,-1.713 1.833,-3.584 3.125,-5.963c-1.042,-0.55 -2.292,-1.183 -3.458,-1.775c-1.751,3.271 -2.959,5.571 -3.167,6.025c-0.584,1.167 -2.083,2.55 -4.083,1.575c-1.959,-0.975 -5.375,-2.067 -2.709,-7.112c2.709,-5.184 8.584,-15.001 9.167,-16.034c0.667,-1.246 2.542,-4.179 5.291,-3.158c2.417,0.875 4.167,2.95 2.751,5.441c-0.792,1.396 -2.083,3.759 -4.043,7.334c1.126,0.575 2.459,1.246 3.584,1.85c0.417,-0.659 2.042,-3.438 3.084,-5.029c1.25,-1.959 2.333,-4.625 4.75,-3.817c2.416,0.804 5.208,2.671 3.458,6.021c-0.958,1.733 -9.75,17.1 -10.292,18.279c-1.041,2.146 -2.708,3.013 -4.708,2.042Z" style="fill:#fff;fill-rule:nonzero;"/><path d="M211.458,919.154c1.209,-2.667 2.125,-5.467 4.584,-5.808c2.083,-0.292 9.749,2.996 11.041,4.746c1.334,1.758 -0.417,5.662 -2.542,5.887c-0.958,0.096 -3.041,-0.312 -5.958,-1.775c-0.666,0.771 -1.375,3.054 -1.375,3.054c-0,0 3.584,1.334 4.042,2.192c0.5,0.862 0.667,1.904 -0.166,3.496c-0.584,1.129 -1.751,2.512 -3.709,1.683c-1.458,-0.612 -2.833,-1.267 -2.833,-1.267l-1.042,3.142c0.459,0.708 5.167,1.584 5.709,3.783c0.332,1.417 -1.25,5.809 -4.834,4.946c-3.583,-0.858 -7.708,-2.916 -8.584,-3.52c-0.833,-0.609 -1.666,-2.071 -1,-4.73c0.834,-3.429 4.501,-11.15 6.667,-15.829Z" style="fill:#fff;fill-rule:nonzero;"/><path d="M235.542,930.158c-0,0 2.292,0.538 2.708,-1.621c0.25,-1.345 -1.708,-1.733 -1.708,-1.733l-1,3.354Zm7.417,18.734c-2.167,2.345 -4.084,2.65 -6.167,0.783c-1.417,-1.279 -3.042,-4.696 -3.834,-8.358c-0.5,1.879 -1.209,4.383 -1.416,5.291c-0.334,1.275 -1.917,2.313 -4.709,1.454c-2.791,-0.858 -3.75,-0.954 -2.791,-4.324c1.167,-4.038 6.25,-21.267 6.417,-21.742c0.374,-1.121 1.916,-3.029 4.707,-2.413c2.793,0.613 12.25,3.096 10.792,10.992c-1,3.5 -3.75,5.625 -6.375,6.488c0.334,1.795 1.459,3.212 3.209,6.1c1.25,2.087 2.083,3.637 0.167,5.729Z" style="fill:#fff;fill-rule:nonzero;"/><path d="M257.958,935.162c-0,0 2.375,0.192 2.459,-2.004c0.083,-1.366 -1.959,-1.458 -1.959,-1.458l-0.5,3.462Zm10.084,17.442c-1.792,2.638 -3.667,3.225 -6.001,1.683c-1.583,-1.058 -3.666,-4.2 -5,-7.708c-0.25,1.934 -0.541,4.513 -0.624,5.438c-0.125,1.308 -1.584,2.579 -4.459,2.129c-2.875,-0.442 -3.833,-0.396 -3.375,-3.871c0.542,-4.162 3.083,-21.954 3.167,-22.45c0.208,-1.163 1.458,-3.275 4.291,-3.071c2.875,0.196 12.584,1.271 12.292,9.296c-0.458,3.604 -2.917,6.112 -5.374,7.35c0.624,1.729 1.916,2.967 4.041,5.567c1.583,1.879 2.625,3.291 1.042,5.637Z" style="fill:#fff;fill-rule:nonzero;"/><path d="M271.625,933.879c-1.25,-2.671 -1.084,-4.541 1.75,-5.933c3.25,-1.6 5.416,0.866 5.833,1.967c0.417,1.099 1.792,3.929 1.792,3.929c-0,-0 0.292,-0.834 1.375,-3.667c0.917,-2.387 2.499,-3.642 5.5,-2.95c2.541,0.587 3.625,2.483 2.959,4.667c-1,3.216 -5.501,10.779 -5.501,10.779c0,-0 0.583,6.646 0.583,9.079c0.042,2.058 -0.291,4.458 -4.541,4.529c-3.792,0.063 -3.916,-2.279 -4.083,-3.375c-0.209,-1.304 -0.167,-10.092 -0.167,-10.092c0,0 -4.25,-6.262 -5.5,-8.933Z" style="fill:#fff;fill-rule:nonzero;"/><path d="M313.291,943.571c-0.25,-1.709 -2.041,-1.609 -3.291,-1.325l0.208,1.75c0,-0 0.167,1.133 0.334,2.233c1.541,-0.333 2.916,-1.308 2.749,-2.658Zm-4.874,-8.458c-0,-0 2.375,-0.484 1.833,-2.863c-0.292,-1.296 -2.334,-0.642 -2.334,-0.642l0.501,3.505Zm-0.792,19.27c-2.917,0.184 -3.917,-0.041 -4.417,-3.512c-0.458,-3.467 -2.709,-19.975 -2.833,-21.175c-0.083,-1.183 0.542,-3.55 3.333,-4.129c2.792,-0.579 12.458,-2.092 14.292,5.208c0.333,2.246 -0.25,4.15 -1.25,5.717c2,0.945 3.583,2.658 4.334,5.566c2.582,9.629 -9.001,12.05 -13.459,12.325Z" style="fill:#fff;fill-rule:nonzero;"/><path d="M322.917,930.296c-0.625,-2.871 -1.584,-5.654 0.166,-7.413c1.5,-1.475 9.584,-3.462 11.709,-2.854c2.083,0.609 3.083,4.771 1.5,6.246c-0.709,0.654 -2.625,1.588 -5.833,2.163c-0.084,1.02 0.749,3.266 0.749,3.266c0,0 3.626,-1.075 4.542,-0.687c0.917,0.387 1.667,1.121 1.959,2.9c0.208,1.266 0.125,3.058 -1.959,3.583c-1.542,0.388 -3,0.683 -3,0.683l1.042,3.155c0.833,0.262 5.083,-1.855 6.833,-0.417c1.125,0.929 2.5,5.391 -0.875,6.862c-3.375,1.471 -7.917,2.304 -8.959,2.338c-1.083,0.037 -2.583,-0.65 -3.666,-3.167c-1.375,-3.246 -3.083,-11.629 -4.208,-16.658Z" style="fill:#fff;fill-rule:nonzero;"/><path d="M348.833,924.696c0,-0 2.209,-0.933 1.25,-2.921c-0.583,-1.242 -2.417,-0.375 -2.417,-0.375l1.167,3.296Zm17.042,10.729c-0.333,3.167 -1.709,4.55 -4.5,4.275c-1.875,-0.192 -5.208,-1.992 -8,-4.479c0.667,1.821 1.625,4.25 1.958,5.108c0.5,1.217 -0.166,3.013 -2.916,3.958c-2.792,0.95 -3.584,1.438 -4.834,-1.85c-1.458,-3.941 -7.5,-20.854 -7.666,-21.329c-0.334,-1.133 -0.25,-3.579 2.374,-4.729c2.626,-1.154 11.709,-4.737 15.209,2.496c1.292,3.4 0.291,6.754 -1.292,8.996c1.334,1.25 3.042,1.729 6.167,3.037c2.25,0.942 3.833,1.7 3.5,4.517Z" style="fill:#fff;fill-rule:nonzero;"/><path d="M370,915.604c0,0 2.042,-1.208 0.833,-3.062c-0.749,-1.155 -2.458,-0.063 -2.458,-0.063l1.625,3.125Zm18.291,8.454c0.042,3.184 -1.125,4.729 -3.916,4.813c-1.917,0.054 -5.459,-1.304 -8.542,-3.409c0.917,1.721 2.125,4.005 2.584,4.813c0.666,1.142 0.207,3.008 -2.375,4.304c-2.626,1.296 -3.376,1.888 -5,-1.221c-1.958,-3.725 -10.167,-19.716 -10.375,-20.171c-0.501,-1.083 -0.709,-3.52 1.75,-5c2.458,-1.479 10.999,-6.2 15.416,0.53c1.709,3.204 1.125,6.662 -0.167,9.091c1.501,1.067 3.292,1.321 6.542,2.217c2.334,0.646 4,1.192 4.083,4.033Z" style="fill:#fff;fill-rule:nonzero;"/><path d="M380.459,906.679c-2.543,-1.516 -3.417,-3.158 -1.875,-5.9c1.791,-3.15 4.958,-2.321 5.916,-1.642c0.958,0.676 3.708,2.23 3.708,2.23c0,-0 -0.249,-0.85 -0.958,-3.8c-0.583,-2.488 0.041,-4.425 2.875,-5.53c2.458,-0.945 4.416,-0.008 5.084,2.188c0.958,3.229 1.541,11.996 1.541,11.996c-0,-0 4.208,5.179 5.584,7.167c1.208,1.687 2.25,3.879 -1.209,6.312c-3.083,2.192 -4.5,0.317 -5.292,-0.483c-0.916,-0.955 -5.791,-8.25 -5.791,-8.25c0,-0 -7.042,-2.775 -9.583,-4.288Z" style="fill:#fff;fill-rule:nonzero;"/><path d="M410.583,1129.94l-229.458,0c-17.208,0 -31.167,-13.945 -31.167,-31.145l0,-11.909c0,-17.204 13.959,-31.145 31.167,-31.145l226.666,-0c18.75,-0 33.917,15.187 33.917,33.92l0,9.134c0,17.2 -13.917,31.145 -31.125,31.145Z" style="fill:#ffebd6;fill-rule:nonzero;"/></svg>