<?xml version="1.0" encoding="UTF-8" standalone="no"?><!DOCTYPE svg PUBLIC "-//W3C//DTD SVG 1.1//EN" "http://www.w3.org/Graphics/SVG/1.1/DTD/svg11.dtd"><svg width="100%" height="100%" viewBox="0 0 1125 1125" version="1.1" xmlns="http://www.w3.org/2000/svg" xmlns:xlink="http://www.w3.org/1999/xlink" xml:space="preserve" xmlns:serif="http://www.serif.com/" style="fill-rule:evenodd;clip-rule:evenodd;stroke-linejoin:round;stroke-miterlimit:2;"><g><path d="M1033.33,607.804c0,285.35 -231.291,516.667 -516.666,516.667c-285.334,-0 -516.667,-231.317 -516.667,-516.667c0,-285.345 231.333,-516.667 516.667,-516.667c285.375,0 516.666,231.322 516.666,516.667Z" style="fill:#c5b38b;fill-rule:nonzero;"/><path d="M556.375,22.596l-1.708,-20.759c28.625,-2.395 58.041,-2.45 86.708,-0.154l-1.667,20.767c-27.542,-2.204 -55.792,-2.15 -83.333,0.146Zm244.458,40.229c-25.416,-11.117 -51.958,-20.167 -78.875,-26.908l5.042,-20.208c28.042,7.02 55.667,16.45 82.166,28.024l-8.333,19.092Zm-405.375,0.704l-8.417,-19.058c26.459,-11.671 54.042,-21.192 82.042,-28.3l5.125,20.187c-26.875,6.83 -53.333,15.971 -78.75,27.171Zm544.542,89.996c-20.459,-18.775 -42.583,-35.971 -65.834,-51.112l11.375,-17.45c24.209,15.762 47.251,33.662 68.542,53.208l-14.083,15.354Zm-683.333,1.138l-14.125,-15.305c21.208,-19.604 44.208,-37.579 68.333,-53.424l11.417,17.416c-23.167,15.216 -45.25,32.479 -65.625,51.313Zm785.708,129.662c-13.292,-24.321 -28.667,-47.742 -45.792,-69.608l16.417,-12.842c17.833,22.767 33.833,47.154 47.666,72.479l-18.291,9.971Zm-887.625,1.516l-18.333,-9.908c13.708,-25.383 29.666,-49.833 47.416,-72.671l16.458,12.784c-17.041,21.937 -32.375,45.417 -45.541,69.795Zm941.833,155.372c-4.583,-27.363 -11.5,-54.526 -20.583,-80.726l19.708,-6.804c9.417,27.288 16.625,55.58 21.417,84.08l-20.542,3.45Zm-995.541,1.787l-20.584,-3.379c4.708,-28.529 11.792,-56.846 21.125,-84.159l19.75,6.738c-8.958,26.221 -15.792,53.408 -20.291,80.8Zm1016.29,168.904l-20.541,-3.4c4.499,-27.25 6.791,-55.192 6.791,-83.05l0,-1.225l20.834,0l-0,1.171c-0,29.05 -2.376,58.137 -7.084,86.504Zm-1036.67,0.625c-4.709,-28.371 -7.126,-57.454 -7.167,-86.45l20.833,-0.025c0.042,27.858 2.333,55.796 6.875,83.05l-20.541,3.425Zm980.541,162.992l-18.333,-9.929c13.25,-24.417 24.541,-50.092 33.542,-76.313l19.708,6.758c-9.375,27.313 -21.125,54.055 -34.917,79.484Zm-924.25,0.483c-13.792,-25.396 -25.541,-52.096 -34.958,-79.366l19.708,-6.784c9,26.184 20.292,51.821 33.542,76.2l-18.292,9.95Zm817.958,135.971l-14.125,-15.317c20.417,-18.812 39.417,-39.442 56.459,-61.321l16.458,12.805c-17.75,22.775 -37.542,44.254 -58.792,63.833Zm-711.583,0.337c-21.25,-19.558 -41.042,-41.016 -58.792,-63.771l16.417,-12.82c17.042,21.858 36.083,42.467 56.5,61.254l-14.125,15.337Zm566.959,94.376l-8.417,-19.071c25.375,-11.146 50,-24.509 73.208,-39.725l11.417,17.429c-24.167,15.842 -49.834,29.762 -76.208,41.367Zm-422.126,0.233c-26.458,-11.592 -52.125,-25.492 -76.333,-41.317l11.417,-17.442c23.208,15.2 47.875,28.551 73.291,39.679l-8.375,19.08Zm254.459,42.204l-1.709,-20.767c27.709,-2.275 55.376,-6.87 82.209,-13.662l5.083,20.2c-27.917,7.066 -56.708,11.854 -85.583,14.229Zm-86.709,0.05c-28.874,-2.338 -57.666,-7.092 -85.624,-14.129l5.083,-20.2c26.833,6.754 54.5,11.316 82.208,13.566l-1.667,20.763Z" style="fill-rule:nonzero;"/></g></svg>