<?xml version="1.0" encoding="UTF-8" standalone="no"?><!DOCTYPE svg PUBLIC "-//W3C//DTD SVG 1.1//EN" "http://www.w3.org/Graphics/SVG/1.1/DTD/svg11.dtd"><svg width="100%" height="100%" viewBox="0 0 6633 5412" version="1.1" xmlns="http://www.w3.org/2000/svg" xmlns:xlink="http://www.w3.org/1999/xlink" xml:space="preserve" xmlns:serif="http://www.serif.com/" style="fill-rule:evenodd;clip-rule:evenodd;stroke-linejoin:round;stroke-miterlimit:2;"><path d="M720.763,707.102l1157.96,-677.704l-1849.54,405.508l691.584,272.196Z" style="fill:#709fd4;fill-rule:nonzero;"/><path d="M1540.43,1573.48l337.25,-1544.32l-842.75,805.608l505.5,738.709Z" style="fill:#709fd4;fill-rule:nonzero;"/><path d="M781.721,1154.18l323.166,-208.796l-68.916,-110.387l-254.25,319.183Z" style="fill:#6cccdd;fill-rule:nonzero;"/><path d="M3465.05,3202.35c-81.875,9.208 -163.583,9.334 -245.124,0.458c-193.625,-21.166 -342.251,168.417 -278.167,352.334c133.583,383.25 195.458,837.333 200.083,1304.25l404.917,0.458c4.625,-467.334 66.625,-922 200.458,-1305.62c64.708,-185.583 -86.875,-373.833 -282.167,-351.875Z" style="fill:#e0d857;fill-rule:nonzero;"/><path d="M3344.3,5411.56c-296.333,0 -537.417,-241.083 -537.417,-537.416l0,-17.792c0,-16.084 13.043,-29.167 29.167,-29.167c16.084,0 29.167,13.083 29.167,29.167l-0,17.792c-0,264.166 214.917,479.083 479.083,479.083c264.167,0 479.083,-214.917 479.083,-479.083l0,-17.792c0,-16.084 13.084,-29.167 29.167,-29.167c16.125,0 29.167,13.083 29.167,29.167l-0,17.792c-0,296.333 -241.083,537.416 -537.417,537.416Z" style="fill:#1c243a;fill-rule:nonzero;"/><g><path d="M6407.87,4304.03l-945.111,-0c-89.034,-0 -161.21,72.179 -161.21,161.222l-0,501.126c-0,89.042 72.176,161.225 161.21,161.225l339.135,-0l269.218,222.355l115.42,-222.355l221.338,-0c89.034,-0 161.211,-72.183 161.211,-161.225l0,-501.126c0,-89.043 -72.177,-161.222 -161.211,-161.222Z" style="fill:#6fc05e;fill-rule:nonzero;"/><path d="M5748.98,4913.34c-4.837,0 -9.673,-1.731 -13.509,-5.24l-194.666,-177.809c-4.149,-3.795 -6.525,-9.164 -6.525,-14.793c0,-5.627 2.376,-10.995 6.525,-14.791l194.666,-177.809c8.157,-7.461 20.835,-6.888 28.304,1.279c7.47,8.171 6.898,20.843 -1.287,28.304l-178.468,163.017l178.468,163.019c8.185,7.461 8.757,20.133 1.287,28.301c-3.949,4.327 -9.358,6.522 -14.795,6.522Z" style="fill:#1c243a;fill-rule:nonzero;"/><path d="M6121.65,4913.34c-5.439,0 -10.847,-2.195 -14.797,-6.522c-7.469,-8.168 -6.896,-20.84 1.288,-28.301l178.468,-163.019l-178.468,-163.017c-8.184,-7.461 -8.757,-20.133 -1.288,-28.304c7.47,-8.167 20.148,-8.74 28.304,-1.279l194.667,177.809c4.15,3.796 6.525,9.164 6.525,14.791c0,5.629 -2.375,10.998 -6.525,14.793l-194.667,177.809c-3.834,3.509 -8.67,5.24 -13.507,5.24Z" style="fill:#1c243a;fill-rule:nonzero;"/><path d="M5887.32,4913.35c-1.745,0 -3.491,-0.226 -5.237,-0.698c-10.703,-2.885 -17,-13.883 -14.138,-24.564l96.045,-355.619c2.892,-10.677 13.881,-17.003 24.585,-14.115c10.675,2.882 17,13.881 14.108,24.564l-96.045,355.616c-2.404,8.935 -10.503,14.816 -19.318,14.816Z" style="fill:#1c243a;fill-rule:nonzero;"/><path d="M5462.76,4324.06c-77.844,0 -141.177,63.34 -141.177,141.192l-0,501.126c-0,77.853 63.333,141.189 141.177,141.189l339.135,-0c4.664,-0 9.157,1.623 12.764,4.587l250.072,206.569l104.03,-200.352c3.433,-6.637 10.301,-10.804 17.772,-10.804l221.338,-0c77.845,-0 141.178,-63.336 141.178,-141.189l-0,-501.126c-0,-77.852 -63.333,-141.192 -141.178,-141.192l-945.111,0Zm608.353,1045.93c-4.637,0 -9.159,-1.597 -12.764,-4.588l-263.666,-217.77l-331.923,0c-99.938,0 -181.244,-81.309 -181.244,-181.255l0,-501.126c0,-99.946 81.306,-181.258 181.244,-181.258l945.111,-0c99.938,-0 181.244,81.312 181.244,181.258l0,501.126c0,99.946 -81.306,181.255 -181.244,181.255l-209.175,0l-109.811,211.555c-2.805,5.371 -7.87,9.192 -13.794,10.399c-1.316,0.269 -2.662,0.404 -3.978,0.404Z" style="fill:#1c243a;fill-rule:nonzero;"/></g><path d="M3343.93,1639.48c-715.376,-0 -1297.42,582.15 -1297.42,1297.71c0,347.626 135.918,674.292 382.709,919.833c82.334,81.918 146.583,178.417 191,286.792c44.083,107.542 66.459,221.376 66.459,338.292l-0,93.75c-0,142.666 116.041,258.709 258.666,258.709l799.083,-0c142.667,-0 258.709,-116.043 258.709,-258.709l-0,-93.875c-0,-116.833 22.291,-230.583 66.291,-338.041c44.376,-108.334 108.542,-204.792 190.75,-286.667c246.292,-245.25 381.917,-572 381.917,-920.084c-0,-715.558 -582.375,-1297.71 -1298.17,-1297.71Zm400.499,3253.42l-799.083,-0c-174.792,-0 -317,-142.209 -317,-317.042l0,-93.75c0,-219.041 -87.583,-431.791 -240.292,-583.708c-125.291,-124.667 -223.666,-269.958 -292.458,-431.834c-71.249,-167.666 -107.417,-345.791 -107.417,-529.375c0,-362.208 141,-702.758 397.042,-958.862c256.041,-256.125 596.541,-397.179 958.709,-397.179c362.249,-0 702.874,141.054 959.083,397.171c256.291,256.154 397.416,596.704 397.416,958.87c-0,183.709 -36.041,361.875 -107.083,529.5c-68.625,162.001 -166.875,307.292 -292,431.917c-152.458,151.834 -239.875,364.459 -239.875,583.375l0,93.875c0,174.833 -142.25,317.042 -317.042,317.042Z" style="fill:#1c243a;fill-rule:nonzero;"/><path d="M3546.76,4889.02l-0.292,0c-16.125,-0.167 -29.042,-13.376 -28.875,-29.458c4.916,-495.334 74.791,-950.042 202.083,-1314.96c26.959,-77.25 12.625,-161.459 -38.333,-225.291c-51.333,-64.334 -130.958,-97.209 -213.042,-88.001c-83.624,9.417 -168.249,9.584 -251.541,0.459c-80.334,-8.75 -158.375,23.917 -208.876,87.375c-51.166,64.291 -65.583,148.917 -38.583,226.416c127.083,364.583 196.833,818.792 201.709,1313.54c0.167,16.084 -12.75,29.292 -28.876,29.458c-16.124,0.125 -29.291,-12.792 -29.416,-28.874c-4.875,-488.5 -73.5,-936.25 -198.5,-1294.96c-33.624,-96.458 -15.667,-201.875 48,-281.874c63.042,-79.251 160.583,-120.042 260.875,-109.043c79.042,8.625 159.334,8.459 238.709,-0.458c102.083,-11.458 201.207,29.458 265.124,109.542c63.542,79.625 81.417,184.624 47.834,280.917c-125.251,358.999 -194.001,807.25 -198.834,1296.33c-0.166,16.001 -13.208,28.876 -29.166,28.876Z" style="fill:#1c243a;fill-rule:nonzero;"/><path d="M3344.3,5411.56c-296.333,0 -537.417,-241.083 -537.417,-537.416l0,-17.792c0,-16.084 13.043,-29.167 29.167,-29.167c16.084,0 29.167,13.083 29.167,29.167l-0,17.792c-0,264.166 214.917,479.083 479.083,479.083c264.167,0 479.083,-214.917 479.083,-479.083l0,-17.792c0,-16.084 13.084,-29.167 29.167,-29.167c16.125,0 29.167,13.083 29.167,29.167l-0,17.792c-0,296.333 -241.083,537.416 -537.417,537.416Z" style="fill:#1c243a;fill-rule:nonzero;"/><path d="M3231.68,5078.23l-341.667,0c-16.083,0 -29.166,-13.041 -29.166,-29.167c-0,-16.125 13.083,-29.166 29.166,-29.166l341.667,-0c16.125,-0 29.167,13.041 29.167,29.166c-0,16.126 -13.042,29.167 -29.167,29.167Z" style="fill:#1c243a;fill-rule:nonzero;"/><path d="M129.054,442.872l589.208,231.896l986.542,-577.383l-1575.75,345.487Zm591.709,293.396c-3.626,0 -7.25,-0.67 -10.667,-2.028l-691.625,-272.192c-11.916,-4.7 -19.416,-16.659 -18.375,-29.458c1,-12.796 10.292,-23.421 22.833,-26.171l1849.58,-405.512c14.001,-3.079 28.167,4.507 33.375,17.87c5.25,13.362 -0.041,28.546 -12.416,35.792l-1157.96,677.704c-4.542,2.65 -9.625,3.995 -14.75,3.995Z" style="fill:#1c243a;fill-rule:nonzero;"/><path d="M1072.97,838.739l453.375,662.518l302.458,-1385.03l-755.833,722.511Zm467.458,763.909c-9.5,0 -18.583,-4.659 -24.083,-12.696l-505.5,-738.709c-8.084,-11.786 -6.416,-27.683 3.917,-37.553l842.75,-805.604c9.292,-8.863 23.249,-10.634 34.458,-4.35c11.167,6.274 16.958,19.12 14.208,31.654l-337.249,1544.31c-2.501,11.371 -11.5,20.179 -22.917,22.404c-1.875,0.367 -3.751,0.542 -5.584,0.542Z" style="fill:#1d343a;fill-rule:nonzero;"/><path d="M781.721,1183.36c-2.542,0 -5.167,-0.342 -7.708,-1.05c-11.25,-3.095 -19.583,-12.609 -21.167,-24.179l-61,-447.087c-2.166,-15.959 9,-30.658 24.959,-32.838c15.999,-2.158 30.666,8.996 32.874,24.958l51.751,379.504l211.749,-265.833c10.001,-12.596 28.375,-14.675 40.959,-4.642c12.625,10.038 14.667,28.389 4.666,40.988l-254.249,319.184c-5.626,7.053 -14.084,10.995 -22.834,10.995Z" style="fill:#1c243a;fill-rule:nonzero;"/><path d="M781.762,1183.36c-9.582,0 -18.957,-4.704 -24.499,-13.341c-8.751,-13.53 -4.875,-31.584 8.667,-40.325l323.124,-208.8c13.542,-8.738 31.584,-4.859 40.334,8.671c8.749,13.528 4.875,31.582 -8.667,40.325l-323.167,208.8c-4.875,3.162 -10.375,4.67 -15.792,4.67Z" style="fill:#1c243a;fill-rule:nonzero;"/><path d="M781.679,1328.23c-16.083,0 -29.167,-13.058 -29.167,-29.167l0,-54.166c0,-16.108 13.084,-29.167 29.167,-29.167c16.125,0 29.167,13.059 29.167,29.167l-0,54.166c-0,16.109 -13.042,29.167 -29.167,29.167Z" style="fill:#1c243a;fill-rule:nonzero;"/><path d="M781.679,1619.89c-16.083,-0 -29.167,-13.059 -29.167,-29.167l0,-104.167c0,-16.108 13.084,-29.166 29.167,-29.166c16.125,-0 29.167,13.058 29.167,29.166l-0,104.167c-0,16.108 -13.042,29.167 -29.167,29.167Zm-0,291.666c-16.083,0 -29.167,-13.058 -29.167,-29.166l0,-104.167c0,-16.108 13.084,-29.167 29.167,-29.167c16.125,0 29.167,13.059 29.167,29.167l-0,104.167c-0,16.108 -13.042,29.166 -29.167,29.166Zm-0,291.667c-16.083,0 -29.167,-13.058 -29.167,-29.167l0,-104.166c0,-16.108 13.084,-29.167 29.167,-29.167c16.125,0 29.167,13.059 29.167,29.167l-0,104.166c-0,16.109 -13.042,29.167 -29.167,29.167Zm-0,291.667c-16.083,-0 -29.167,-13.041 -29.167,-29.167l0,-104.167c0,-16.125 13.084,-29.166 29.167,-29.166c16.125,-0 29.167,13.041 29.167,29.166l-0,104.167c-0,16.126 -13.042,29.167 -29.167,29.167Zm-0,291.666c-16.083,0 -29.167,-13.041 -29.167,-29.166l0,-104.167c0,-16.125 13.084,-29.167 29.167,-29.167c16.125,0 29.167,13.042 29.167,29.167l-0,104.167c-0,16.125 -13.042,29.166 -29.167,29.166Z" style="fill:#1c243a;fill-rule:nonzero;"/><path d="M831.679,3032.39l-50,-0c-16.083,-0 -29.167,-13.041 -29.167,-29.167l0,-50c0,-16.125 13.084,-29.167 29.167,-29.167c16.125,0 29.167,13.042 29.167,29.167l-0,20.833l20.833,0c16.125,0 29.167,13.042 29.167,29.167c-0,16.126 -13.042,29.167 -29.167,29.167Z" style="fill:#1c243a;fill-rule:nonzero;"/><path d="M1173.35,3032.39l-120.834,-0c-16.083,-0 -29.166,-13.041 -29.166,-29.167c-0,-16.125 13.083,-29.167 29.166,-29.167l120.834,0c16.125,0 29.166,13.042 29.166,29.167c0,16.126 -13.041,29.167 -29.166,29.167Zm341.666,-0l-120.833,-0c-16.083,-0 -29.167,-13.041 -29.167,-29.167c0,-16.125 13.084,-29.167 29.167,-29.167l120.833,0c16.126,0 29.167,13.042 29.167,29.167c-0,16.126 -13.041,29.167 -29.167,29.167Z" style="fill:#1c243a;fill-rule:nonzero;"/><path d="M1785.85,3032.39l-54.167,-0c-16.083,-0 -29.167,-13.041 -29.167,-29.167c0,-16.125 13.084,-29.167 29.167,-29.167l54.167,0c16.125,0 29.166,13.042 29.166,29.167c0,16.126 -13.041,29.167 -29.166,29.167Z" style="fill:#1c243a;fill-rule:nonzero;"/><path d="M6081.68,4157.39c-16.083,-0 -29.167,-13.041 -29.167,-29.167l0,-50c0,-16.125 13.084,-29.167 29.167,-29.167c16.125,0 29.167,13.042 29.167,29.167l-0,50c-0,16.126 -13.042,29.167 -29.167,29.167Z" style="fill:#1c243a;fill-rule:nonzero;"/><path d="M6081.68,3365.73c-16.083,0 -29.167,-13.041 -29.167,-29.167l0,-100c0,-16.125 13.084,-29.166 29.167,-29.166c16.125,-0 29.167,13.041 29.167,29.166l-0,100c-0,16.126 -13.042,29.167 -29.167,29.167Zm-0,279.167c-16.083,-0 -29.167,-13.041 -29.167,-29.167l0,-100c0,-16.125 13.084,-29.167 29.167,-29.167c16.125,0 29.167,13.042 29.167,29.167l-0,100c-0,16.126 -13.042,29.167 -29.167,29.167Zm-0,279.166c-16.083,0 -29.167,-13.041 -29.167,-29.166l0,-100c0,-16.126 13.084,-29.167 29.167,-29.167c16.125,0 29.167,13.041 29.167,29.167l-0,100c-0,16.125 -13.042,29.166 -29.167,29.166Z" style="fill:#1c243a;fill-rule:nonzero;"/><path d="M6081.68,3086.56c-16.083,0 -29.167,-13.041 -29.167,-29.166l0,-25l-25,-0c-16.083,-0 -29.166,-13.041 -29.166,-29.167c-0,-16.125 13.083,-29.167 29.166,-29.167l54.167,0c16.125,0 29.167,13.042 29.167,29.167l-0,54.167c-0,16.125 -13.042,29.166 -29.167,29.166Z" style="fill:#1c243a;fill-rule:nonzero;"/><path d="M5235.85,3032.39l-108.334,-0c-16.083,-0 -29.166,-13.041 -29.166,-29.167c-0,-16.125 13.083,-29.167 29.166,-29.167l108.334,0c16.125,0 29.166,13.042 29.166,29.167c0,16.126 -13.041,29.167 -29.166,29.167Zm300,-0l-108.334,-0c-16.083,-0 -29.166,-13.041 -29.166,-29.167c-0,-16.125 13.083,-29.167 29.166,-29.167l108.334,0c16.125,0 29.166,13.042 29.166,29.167c0,16.126 -13.041,29.167 -29.166,29.167Zm300,-0l-108.334,-0c-16.083,-0 -29.166,-13.041 -29.166,-29.167c-0,-16.125 13.083,-29.167 29.166,-29.167l108.334,0c16.125,0 29.166,13.042 29.166,29.167c0,16.126 -13.041,29.167 -29.166,29.167Z" style="fill:#1c243a;fill-rule:nonzero;"/><path d="M4935.85,3032.39l-50,-0c-16.083,-0 -29.167,-13.041 -29.167,-29.167c-0,-16.125 13.084,-29.167 29.167,-29.167l50,0c16.125,0 29.166,13.042 29.166,29.167c0,16.126 -13.041,29.167 -29.166,29.167Z" style="fill:#1c243a;fill-rule:nonzero;"/><path d="M5431.68,1694.89c-16.083,-0 -29.167,-13.059 -29.167,-29.167l0,-187.5c0,-16.108 13.084,-29.167 29.167,-29.167c16.125,0 29.167,13.059 29.167,29.167l-0,187.5c-0,16.108 -13.042,29.167 -29.167,29.167Z" style="fill:#1c243a;fill-rule:nonzero;"/><path d="M5527.51,1603.23l-187.5,0c-16.083,0 -29.166,-13.058 -29.166,-29.167c-0,-16.108 13.083,-29.166 29.166,-29.166l187.5,-0c16.126,-0 29.167,13.058 29.167,29.166c-0,16.109 -13.041,29.167 -29.167,29.167Z" style="fill:#1c243a;fill-rule:nonzero;"/><path d="M1006.68,3782.39c-16.083,-0 -29.167,-13.041 -29.167,-29.167l0,-187.5c0,-16.125 13.084,-29.167 29.167,-29.167c16.125,0 29.167,13.042 29.167,29.167l-0,187.5c-0,16.126 -13.042,29.167 -29.167,29.167Z" style="fill:#1c243a;fill-rule:nonzero;"/><path d="M1102.51,3690.73l-187.5,0c-16.083,0 -29.166,-13.041 -29.166,-29.167c-0,-16.125 13.083,-29.166 29.166,-29.166l187.5,-0c16.126,-0 29.167,13.041 29.167,29.166c-0,16.126 -13.041,29.167 -29.167,29.167Z" style="fill:#1c243a;fill-rule:nonzero;"/><path d="M2135.85,1415.73c-16.083,0 -29.167,-13.058 -29.167,-29.167l-0,-187.5c-0,-16.108 13.084,-29.166 29.167,-29.166c16.125,-0 29.166,13.058 29.166,29.166l0,187.5c0,16.109 -13.041,29.167 -29.166,29.167Z" style="fill:#1c243a;fill-rule:nonzero;"/><path d="M2231.68,1324.06l-187.5,0c-16.083,0 -29.167,-13.058 -29.167,-29.166c0,-16.108 13.084,-29.167 29.167,-29.167l187.5,0c16.125,0 29.167,13.059 29.167,29.167c-0,16.108 -13.042,29.166 -29.167,29.166Z" style="fill:#1c243a;fill-rule:nonzero;"/><path d="M4790.01,5286.56c-16.083,0 -29.166,-13.041 -29.166,-29.166l-0,-187.5c-0,-16.126 13.083,-29.167 29.166,-29.167c16.126,0 29.167,13.041 29.167,29.167l-0,187.5c-0,16.125 -13.041,29.166 -29.167,29.166Z" style="fill:#1c243a;fill-rule:nonzero;"/><path d="M4885.85,5194.89l-187.5,-0c-16.083,-0 -29.167,-13.041 -29.167,-29.167c-0,-16.125 13.084,-29.167 29.167,-29.167l187.5,0c16.125,0 29.166,13.042 29.166,29.167c0,16.126 -13.041,29.167 -29.166,29.167Z" style="fill:#1c243a;fill-rule:nonzero;"/><path d="M6360.39,180.477c-0,-23 17.124,-41.666 42.124,-41.666l0,0.041c20.834,0 41.209,18.625 41.209,41.625c0,23.042 -18.666,41.667 -41.667,41.667c-23.041,-0 -41.666,-18.625 -41.666,-41.667Zm140.958,80.459c-16.958,-15.542 -18.083,-41.917 -2.542,-58.876c15.542,-16.958 41.876,-18.124 58.876,-2.541c16.957,15.542 18.083,41.874 2.541,58.875c-8.208,8.958 -19.458,13.5 -30.708,13.5c-10.084,-0 -20.167,-3.625 -28.167,-10.958Zm-263.791,5.499c-16.375,-16.166 -16.542,-42.541 -0.376,-58.916c16.167,-16.375 42.542,-16.542 58.917,-0.375c16.375,16.208 16.542,42.583 0.375,58.958c-8.167,8.25 -18.917,12.375 -29.666,12.375c-10.584,0 -21.126,-3.999 -29.25,-12.042Zm311.666,97.875c-0.875,-23 17.083,-42.333 40.083,-43.166c23,-0.875 42.334,17.083 43.167,40.083c0.875,23 -17.083,42.334 -40.084,43.167c-0.541,0.042 -1.041,0.042 -1.582,0.042c-22.292,-0 -40.75,-17.667 -41.584,-40.126Zm-378.709,9.355c-0.25,-23 18.168,-42.325 41.168,-42.617c23,-0.288 41.874,18.8 42.166,41.842c0.292,23 -18.125,42.837 -41.125,42.837l-0.542,0c-22.75,0 -41.375,-19.229 -41.667,-42.062Zm340.584,156.27c-16.75,-15.75 -17.583,-42.124 -1.833,-58.916c15.75,-16.75 42.125,-17.583 58.916,-1.833c16.75,15.75 17.584,42.124 1.834,58.916c-8.208,8.709 -19.292,13.126 -30.375,13.126c-10.25,-0 -20.5,-3.751 -28.542,-11.293Zm-269.834,6.375c-16.541,-15.957 -17.041,-42.333 -1.083,-58.916c15.959,-16.583 42.334,-17.042 58.917,-1.083c16.584,15.958 17.083,42.333 1.084,58.916c-8.167,8.5 -19.084,12.75 -30,12.75c-10.417,0 -20.833,-3.875 -28.918,-11.667Zm123.418,23.042c-0.584,-23 17.624,-41.667 40.625,-42.208c23,-0.584 42.124,16.937 42.666,39.937c0.583,23.001 -17.625,41.979 -40.625,41.979l-1.041,0c-22.543,0 -41.084,-17.042 -41.625,-39.708Z" style="fill:#1c243a;fill-rule:nonzero;"/><path d="M3722.43,501.311c-0,-23 18.625,-41.667 41.667,-41.667c23,-0 41.666,18.667 41.666,41.667c0,23.041 -18.666,41.666 -41.666,41.666c-23.042,0 -41.667,-18.625 -41.667,-41.666Zm141.417,80.458c-16.958,-15.541 -18.125,-41.917 -2.542,-58.875c15.542,-16.959 41.876,-18.084 58.876,-2.541c16.957,15.541 18.083,41.874 2.541,58.874c-8.208,8.958 -19.458,13.5 -30.708,13.5c-10.084,0 -20.167,-3.624 -28.167,-10.958Zm-263.791,5.499c-16.375,-16.166 -16.542,-42.541 -0.376,-58.916c16.167,-16.374 42.542,-16.541 58.917,-0.375c16.375,16.209 16.542,42.583 0.375,58.959c-8.167,8.25 -18.917,12.375 -29.666,12.375c-10.584,-0 -21.167,-4 -29.25,-12.043Zm311.666,97.271c-0.875,-22.999 17.083,-42.033 40.083,-42.866c23,-0.833 42.334,16.633 43.167,39.633c0.875,23 -17.083,42.754 -40.084,42.754l-1.541,0c-22.333,0 -40.791,-17.062 -41.625,-39.521Zm-378.709,9.959c-0.25,-23 18.168,-42.325 41.168,-42.617c23,-0.288 41.916,18.8 42.166,41.842c0.292,23 -18.125,42.837 -41.125,42.837l-0.542,0c-22.75,0 -41.375,-19.229 -41.667,-42.062Zm340.584,156.27c-16.75,-15.79 -17.583,-42.124 -1.833,-58.916c15.75,-16.75 42.125,-17.583 58.916,-1.833c16.75,15.792 17.584,42.125 1.834,58.916c-8.208,8.709 -19.292,13.126 -30.375,13.126c-10.25,-0 -20.5,-3.751 -28.542,-11.293Zm-269.792,6.376c-16.583,-15.958 -17.083,-42.333 -1.125,-58.917c15.959,-16.583 42.334,-17.042 58.917,-1.083c16.584,15.959 17.083,42.333 1.084,58.916c-8.167,8.5 -19.084,12.75 -30,12.75c-10.376,0 -20.833,-3.874 -28.876,-11.666Zm123.376,23.041c-0.584,-23 17.624,-41.666 40.625,-42.208c23,-0.583 42.124,16.938 42.666,39.938c0.583,23 -17.625,41.979 -40.625,41.979l-1.041,-0c-22.543,-0 -41.084,-17.084 -41.625,-39.709Z" style="fill:#1c243a;fill-rule:nonzero;"/><path d="M1797.43,4413.81c-0,-23 18.625,-41.667 41.667,-41.667c23,-0 41.666,18.667 41.666,41.667c0,23.041 -18.666,41.666 -41.666,41.666c-23.042,0 -41.667,-18.625 -41.667,-41.666Zm141.417,80.458c-16.958,-15.541 -18.083,-41.917 -2.542,-58.875c15.542,-16.959 41.876,-18.084 58.834,-2.541c16.999,15.541 18.125,41.874 2.583,58.874c-8.208,8.958 -19.458,13.5 -30.708,13.5c-10.084,0 -20.167,-3.624 -28.167,-10.958Zm-263.791,5.499c-16.375,-16.166 -16.542,-42.541 -0.376,-58.916c16.167,-16.374 42.542,-16.541 58.917,-0.375c16.375,16.209 16.542,42.583 0.375,58.959c-8.167,8.25 -18.917,12.375 -29.666,12.375c-10.584,-0 -21.167,-4 -29.25,-12.043Zm311.666,97.251c-0.875,-23 17.083,-42.001 40.083,-42.834c23,-0.874 42.334,16.625 43.167,39.625c0.875,23 -17.083,42.75 -40.084,42.75l-1.582,0c-22.292,0 -40.75,-17.083 -41.584,-39.541Zm-378.709,9.999c-0.25,-23 18.168,-42.333 41.168,-42.625c23,-0.29 41.916,18.792 42.166,41.834c0.292,23 -18.125,42.833 -41.125,42.833l-0.542,0c-22.791,0 -41.375,-19.208 -41.667,-42.042Zm340.584,156.25c-16.75,-15.75 -17.583,-42.124 -1.833,-58.916c15.75,-16.75 42.125,-17.583 58.916,-1.833c16.75,15.75 17.584,42.125 1.834,58.916c-8.208,8.709 -19.292,13.126 -30.375,13.126c-10.25,-0 -20.5,-3.751 -28.542,-11.293Zm-269.792,6.376c-16.583,-15.958 -17.083,-42.333 -1.125,-58.917c15.959,-16.583 42.334,-17.042 58.917,-1.083c16.584,15.959 17.041,42.333 1.125,58.916c-8.208,8.5 -19.125,12.75 -30.041,12.75c-10.376,0 -20.793,-3.874 -28.876,-11.666Zm123.376,23.041c-0.584,-23 17.624,-41.666 40.625,-42.208c23,-0.583 42.124,16.875 42.666,39.916c0.583,23.001 -17.625,42.001 -40.625,42.001l-1.041,-0c-22.543,-0 -41.084,-17.084 -41.625,-39.709Z" style="fill:#1c243a;fill-rule:nonzero;"/><path d="M326.596,4880.48c-0,-23 18.625,-41.666 41.666,-41.666c23,-0 41.667,18.666 41.667,41.666c-0,23.042 -18.667,41.667 -41.667,41.667c-23.041,-0 -41.666,-18.625 -41.666,-41.667Zm141.417,80.459c-16.959,-15.542 -18.125,-41.917 -2.542,-58.876c15.542,-16.958 41.875,-18.083 58.834,-2.541c16.999,15.542 18.124,41.874 2.583,58.875c-8.209,8.958 -19.458,13.5 -30.708,13.5c-10.084,-0 -20.167,-3.625 -28.167,-10.958Zm-263.792,5.499c-16.375,-16.166 -16.541,-42.541 -0.375,-58.916c16.167,-16.375 42.541,-16.542 58.917,-0.375c16.375,16.208 16.542,42.583 0.374,58.958c-8.166,8.25 -18.916,12.375 -29.666,12.375c-10.583,0 -21.167,-3.999 -29.25,-12.042Zm311.667,97.25c-0.876,-23 17.083,-42 40.083,-42.833c23,-0.833 42.334,16.625 43.167,39.625c0.875,23 -17.084,42.75 -40.084,42.75l-1.541,0c-22.334,0 -40.792,-17 -41.625,-39.542Zm-378.709,10c-0.25,-23 18.167,-42.333 41.167,-42.625c23,-0.291 41.875,18.792 42.166,41.834c0.292,23 -18.124,42.833 -41.124,42.833l-0.542,0c-22.75,0 -41.375,-19.209 -41.667,-42.042Zm340.583,156.25c-16.75,-15.75 -17.583,-42.124 -1.833,-58.916c15.75,-16.75 42.126,-17.583 58.917,-1.833c16.75,15.75 17.584,42.124 1.834,58.916c-8.209,8.709 -19.293,13.126 -30.375,13.126c-10.25,-0 -20.5,-3.751 -28.543,-11.293Zm-269.791,6.375c-16.583,-15.957 -17.083,-42.333 -1.125,-58.916c15.958,-16.542 42.334,-17.042 58.917,-1.083c16.583,15.958 17.083,42.333 1.083,58.916c-8.166,8.458 -19.083,12.75 -29.999,12.75c-10.376,0 -20.793,-3.875 -28.876,-11.667Zm123.375,23.042c-0.584,-23 17.625,-41.667 40.625,-42.208c23,-0.584 42.125,16.916 42.667,39.916c0.583,23 -17.625,42 -40.625,42l-1.042,0c-22.542,0 -41.084,-17.042 -41.625,-39.708Z" style="fill:#1c243a;fill-rule:nonzero;"/><path d="M4834.93,3938.81c-0,-23 18.625,-41.667 41.667,-41.667c23,-0 41.666,18.667 41.666,41.667c0,23.041 -18.666,41.666 -41.666,41.666c-23.042,0 -41.667,-18.625 -41.667,-41.666Zm141.417,80.458c-16.958,-15.541 -18.083,-41.917 -2.542,-58.875c15.542,-16.959 41.876,-18.084 58.876,-2.541c16.957,15.541 18.083,41.874 2.541,58.874c-8.208,8.958 -19.458,13.5 -30.708,13.5c-10.084,0 -20.167,-3.624 -28.167,-10.958Zm-263.791,5.499c-16.375,-16.166 -16.542,-42.541 -0.376,-58.916c16.167,-16.374 42.542,-16.541 58.917,-0.375c16.375,16.209 16.542,42.583 0.375,58.959c-8.167,8.25 -18.917,12.375 -29.666,12.375c-10.584,-0 -21.126,-4 -29.25,-12.043Zm311.666,97.251c-0.875,-23 17.083,-42.001 40.083,-42.834c23,-0.833 42.334,16.625 43.167,39.625c0.875,23 -17.083,42.75 -40.084,42.75l-1.541,0c-22.333,0 -40.791,-17 -41.625,-39.541Zm-378.709,9.999c-0.25,-23 18.168,-42.333 41.168,-42.625c23,-0.29 41.916,18.792 42.166,41.834c0.292,23 -18.125,42.833 -41.125,42.833l-0.542,0c-22.75,0 -41.375,-19.208 -41.667,-42.042Zm340.584,156.25c-16.75,-15.75 -17.583,-42.124 -1.833,-58.916c15.75,-16.75 42.125,-17.583 58.916,-1.833c16.75,15.792 17.584,42.125 1.834,58.916c-8.208,8.709 -19.292,13.126 -30.375,13.126c-10.25,-0 -20.5,-3.751 -28.542,-11.293Zm-269.792,6.626l-0.042,-0c-16.541,-16.667 -17.041,-42.458 -1.083,-59.042c15.959,-16.583 42.334,-17.125 58.917,-1.125c16.584,15.916 17.083,42.292 1.084,58.875c-8.167,8.5 -19.084,12.834 -30,12.834c-10.417,-0 -20.793,-3.209 -28.876,-11.542Zm123.376,22.791c-0.584,-23 17.624,-41.666 40.625,-42.249c23,-0.542 42.124,16.916 42.666,39.957c0.583,23.001 -17.625,42.001 -40.625,42.001l-1.041,-0c-22.543,-0 -41.084,-17.042 -41.625,-39.709Z" style="fill:#1c243a;fill-rule:nonzero;"/></svg>