<?xml version="1.0" encoding="UTF-8" standalone="no"?><!DOCTYPE svg PUBLIC "-//W3C//DTD SVG 1.1//EN" "http://www.w3.org/Graphics/SVG/1.1/DTD/svg11.dtd"><svg width="100%" height="100%" viewBox="0 0 571 1432" version="1.1" xmlns="http://www.w3.org/2000/svg" xmlns:xlink="http://www.w3.org/1999/xlink" xml:space="preserve" xmlns:serif="http://www.serif.com/" style="fill-rule:evenodd;clip-rule:evenodd;stroke-linejoin:round;stroke-miterlimit:2;"><path d="M570.125,708.683c-0.042,22.217 -0.042,44.475 -0.042,66.692l0,571.166c0,52.251 -58.958,63.505 -98.875,70.813c-59.958,10.962 -121.458,14.321 -182.333,14.533l-7.625,0.042c-60.833,-0.254 -122.375,-3.613 -182.292,-14.575c-39.958,-7.308 -98.875,-18.562 -98.875,-70.813l0,-590.02c-0.041,-41.288 -0.125,-82.617 0,-123.859c0.042,-21 1.542,-41.916 4.333,-62.625c7.209,-54.683 23.042,-108.191 43.209,-159.808c9.042,-23.229 19,-46.033 29.458,-68.421c4.333,-9.367 14.25,-31.708 24.959,-55.4c12.666,-27.971 22.416,-57.037 29.291,-86.771c6.834,-29.737 10.75,-60.141 11.667,-90.762c0.541,-16.925 14.417,-30.409 31.375,-30.409l221.375,0c8.5,0 16.208,3.359 21.875,8.863c5.667,5.458 9.208,13.104 9.5,21.546c1.833,61.279 15.708,121.633 40.958,177.533c10.709,23.692 20.625,46.033 25,55.4c10.25,21.967 20.042,44.396 28.958,67.159c20.584,52.499 36.667,106.929 43.875,162.583c0.167,1.262 0.334,2.562 0.459,3.821c2.333,18.987 3.583,38.095 3.708,57.291c0.084,25.325 0.042,50.692 0.042,76.021Z" style="fill:#f7b24a;fill-rule:nonzero;"/><path d="M286.791,0c-67.25,0 -125.333,12.95 -152.666,31.716c-7.125,4.876 -11.25,13.009 -11.25,21.621l-0,67.25c-0,7.867 3.416,15.363 9.542,20.334c25.124,20.508 85.916,34.975 157,34.975c66.458,-0 123.958,-12.667 151.708,-31.092c7.25,-4.842 11.542,-13.088 11.542,-21.833l-0,-68.217c-0,-8.096 -3.667,-15.796 -10.084,-20.75c-25.833,-19.992 -85.875,-34.004 -155.792,-34.004Z" style="fill:#592e2e;fill-rule:nonzero;"/><path d="M430.833,42.896c0,19.991 -64,36.199 -142.916,36.199c-78.959,0 -142.959,-16.208 -142.959,-36.199c-0,-19.992 64,-36.196 142.959,-36.196c78.916,-0 142.916,16.204 142.916,36.196Z" style="fill:#fff;fill-rule:nonzero;"/><path d="M570.083,775.371l0,431.345c0,7.392 -24.542,17.18 -45.833,24.275c-14.333,4.788 -27.167,8.275 -30.083,9.076c-68.209,18.183 -139.375,22.679 -210.209,21.545c-17.166,-0.296 -34.292,-0.883 -51.375,-1.725c-12.333,-0.587 -24.666,-1.3 -36.958,-2.1c-0.917,-0.041 -1.875,-0.125 -2.792,-0.166c-75.041,-5 -152.375,-19.155 -191.333,-52.08c-0.417,-0.337 -0.958,-0.295 -1.417,-0.42l0,-429.75c0,-22.934 -0.041,-45.904 -0.041,-68.88c-0,-24.612 -0.042,-49.225 0.041,-73.837c0.042,-21 1.542,-41.917 4.333,-62.621c0.626,-4.662 2.292,-15.458 3.084,-20.371c-0,5.796 29.291,22.009 33.5,24.317c14.875,8.15 30.166,12.475 46.625,16.338c12.208,2.899 24.417,5.25 36.75,7.225c44.708,7.141 89.958,8.904 135.291,9.87c7.292,0.167 14.542,0.338 21.834,0.463c3.792,0.083 7.667,0.083 11.541,0.083l1.584,0c33.042,0 66.417,-0.712 99.542,-3.108c16.375,-1.175 32.75,-2.771 48.958,-4.913c22.125,-2.941 44.208,-7.308 65.125,-15.121c7.5,-2.812 56.417,-23.058 54.708,-33.012c0.792,4.746 2.333,14.95 2.958,19.737c2.625,20.246 4.084,40.617 4.167,61.113c0.125,47.546 0,95.129 0,142.717Z" style="fill:#592e2e;fill-rule:nonzero;"/><path d="M570.083,879.829l0,326.887c0,7.392 -24.542,17.18 -45.833,24.275c-28.667,-22.008 -52.5,-50.862 -72.625,-80.429c-20.625,-30.325 -41.042,-65.396 -47.292,-102.062c-2.25,-13.104 -4.75,-28.896 8.958,-36.667c17.834,-10.121 41.667,-2.854 59.751,2.942c15.5,4.954 30.874,11.633 45.999,17.554c3.667,1.429 6.667,-3.067 4.042,-5.921c-25.917,-28.058 -46.666,-60.775 -61.041,-96.137c-7.375,-18.396 -13.376,-37.338 -17.667,-56.663c-2.875,-12.683 -8.292,-29.187 -5.375,-42.208c1.291,-5.754 3.958,-9.742 7.583,-12.346c16.667,-12.054 53.292,4.996 66.875,12.517c10.167,5.583 20.042,11.716 29,19.066c4.667,3.779 8.667,8.146 12.5,12.642c2.959,3.571 5.875,7.225 8.917,10.838c0.75,0.837 6.208,5.079 6.208,5.712Z" style="fill:#919e46;fill-rule:nonzero;"/><path d="M570.083,632.662c-0.083,-19.196 -2.625,-45.383 -5,-64.366c0.375,2.991 -15.417,24.545 -17.958,27.358c-6.709,7.525 -13.333,15.221 -19.292,23.354c-11.958,16.3 -23.041,33.492 -30.667,52.309c-5.083,12.549 -9.708,26.087 -10.708,39.666c-1.625,22.088 11.292,28.054 32.083,23.163c11.792,-2.78 51.584,-7.971 51.584,-25.467c-0,-25.325 0.042,-50.692 -0.042,-76.017Z" style="fill:#919e46;fill-rule:nonzero;"/><path d="M294.625,607.958l-1.584,0c4.542,9.283 10.126,18.017 16.876,26.083c8.958,10.792 30.999,34.859 46.708,34.017c14.208,-0.712 22.833,-26.246 27.625,-36.746c4,-8.654 7.292,-17.475 9.917,-26.462c-33.125,2.396 -66.5,3.108 -99.542,3.108Z" style="fill:#919e46;fill-rule:nonzero;"/><path d="M273,668.437c-2.208,-20.912 -6.708,-41.283 -13.334,-61.025c-45.333,-0.966 -90.583,-2.729 -135.291,-9.87c14.625,18.774 30.041,36.962 46.875,53.887c22.542,22.721 55.292,55.146 86.833,64.721c25.25,7.687 16.334,-34.396 14.917,-47.713Z" style="fill:#919e46;fill-rule:nonzero;"/><path d="M77.042,691.871c-4.417,-3.971 -11.126,-6.434 -16.584,-8.021c-5.666,-1.654 -60.416,-10.588 -60.458,0.471c0,22.975 0.083,68.125 0.083,91.058l0,22.85c0,-5.55 8.5,-11.2 12.042,-14.804c19.167,-19.529 36.333,-40.829 56,-59.95c8.125,-7.929 20.792,-20.992 8.917,-31.604Z" style="fill:#919e46;fill-rule:nonzero;"/><path d="M230.541,1186.3c-8.541,25.2 -22.833,49.308 -37.708,71.317c-75.041,-5 -152.375,-19.155 -191.333,-52.08c-0.417,-0.337 -0.958,-0.295 -1.417,-0.42l0,-15.879c9.542,-44.559 30.458,-87.696 58.75,-122.176c16.917,-20.583 37.792,-39.441 62.875,-49.395c11.209,-4.45 23.167,-7.054 35.292,-6.971c25.458,0.167 38.417,7.266 38.292,34.904c-0.292,46.117 -18.584,86.1 -35.667,127.596c-1.084,2.687 1.708,5.333 4.292,4.117c16.166,-7.688 31.291,-18.651 50.333,-17.85c5.75,0.208 12.708,-0.126 16.791,4.241c0.417,0.463 0.751,0.925 1.084,1.383c4.458,6.555 0.625,14.617 -1.584,21.213Z" style="fill:#919e46;fill-rule:nonzero;"/><path d="M283.792,1241.58c-0.625,-8.442 -1.709,-21.125 -10.75,-24.821c-3.709,-1.513 -7.334,-1.346 -10.959,-0c-13.583,5.083 -25.458,27.592 -29.5,43.133c17.083,0.842 34.209,1.429 51.375,1.725c0.625,-6.512 0.334,-13.612 -0.166,-20.037Z" style="fill:#919e46;fill-rule:nonzero;"/><path d="M143.458,198.367c10.458,8.916 25.042,13.212 38,16.804c19.833,5.483 40.292,8.8 60.75,11.1c23.208,2.616 46.667,3.766 70.042,3.22c21.667,-0.508 43.542,-2.358 64.708,-7.291c15.917,-3.713 32.75,-9.234 45.167,-20.271c1.292,-1.125 2.5,-2.313 3.625,-3.562c1.792,-2.001 -1.167,-4.98 -2.958,-2.971c-10.459,11.508 -26.209,17.295 -40.875,21.233c-20.126,5.404 -41.084,7.558 -61.876,8.412c-22.875,0.938 -45.875,0.146 -68.666,-2.016c-20.708,-1.967 -41.417,-5.038 -61.667,-10.038c-13.791,-3.412 -28.708,-7.395 -40.583,-15.554c-0.959,-0.662 -1.792,-1.287 -2.667,-2.037c-2.041,-1.746 -5.042,1.212 -3,2.971Z" style="fill:#290c0c;fill-rule:nonzero;"/><path d="M161.958,1025.92c-19.916,22.349 -38,46.358 -53.917,71.724c-15.958,25.367 -29.708,52.067 -41.208,79.73c-6.541,15.754 -12.291,31.816 -17.291,48.121c-0.792,2.587 3.249,3.695 4.041,1.116c17.417,-56.775 44.417,-110.496 79.5,-158.4c9.958,-13.617 20.625,-26.729 31.875,-39.321c1.792,-2.012 -1.167,-4.991 -3,-2.97Z" style="fill:#290c0c;fill-rule:nonzero;"/><path d="M158.708,1178.77c-18.875,19.388 -34.417,41.934 -45.708,66.551c-1.125,2.437 2.5,4.574 3.625,2.12c11.166,-24.308 26.416,-46.554 45.083,-65.704c1.875,-1.937 -1.083,-4.908 -3,-2.967Z" style="fill:#290c0c;fill-rule:nonzero;"/><path d="M215,1174.13c-23.875,23.112 -47.875,44.937 -65.875,73.067c-1.459,2.279 2.166,4.391 3.625,2.116c17.833,-27.816 41.625,-49.37 65.208,-72.212c1.959,-1.884 -1.042,-4.854 -2.958,-2.971Z" style="fill:#290c0c;fill-rule:nonzero;"/><path d="M262.5,1227.99c-3.042,9.296 -5.417,18.104 -6.042,27.913c-0.166,2.696 4.042,2.687 4.208,-0c0.584,-9.421 2.959,-17.888 5.917,-26.796c0.833,-2.575 -3.208,-3.679 -4.083,-1.117Z" style="fill:#290c0c;fill-rule:nonzero;"/><path d="M436.542,1032.08c38.333,56.396 79.833,110.434 121.041,164.729c1.583,2.13 5.25,0.038 3.625,-2.121c-41.208,-54.295 -82.708,-108.333 -121.041,-164.729c-1.5,-2.225 -5.125,-0.125 -3.625,2.121Z" style="fill:#290c0c;fill-rule:nonzero;"/><path d="M462.791,836.566c35.126,35.063 63.376,76.817 82.959,122.446c5.541,12.925 10.291,26.167 14.416,39.617c0.792,2.579 4.834,1.479 4.042,-1.117c-14.625,-48.016 -38.458,-93.033 -69.916,-132.154c-8.917,-11.104 -18.459,-21.7 -28.542,-31.762c-1.917,-1.913 -4.875,1.058 -2.959,2.97Z" style="fill:#290c0c;fill-rule:nonzero;"/><path d="M563.291,629.883c-16.25,32.046 -33.458,65.754 -62.833,87.817c-2.125,1.604 -0.041,5.254 2.125,3.629c23.208,-17.438 39.25,-41.975 52.875,-67.225c3.917,-7.304 7.709,-14.7 11.458,-22.1c1.209,-2.404 -2.416,-4.533 -3.625,-2.121Z" style="fill:#290c0c;fill-rule:nonzero;"/><path d="M71,702.204c-21.25,2.433 -41.25,8.9 -59.834,19.487c-2.333,1.338 -0.208,4.967 2.125,3.625c17.959,-10.225 37.209,-16.566 57.709,-18.912c2.666,-0.304 2.708,-4.508 -0,-4.2Z" style="fill:#290c0c;fill-rule:nonzero;"/><path d="M207.917,616.104c22.999,27.738 40.291,56.796 53.583,90.275c1,2.479 5.083,1.4 4.083,-1.117c-13.583,-34.104 -31.25,-63.875 -54.666,-92.129c-1.751,-2.083 -4.709,0.904 -3,2.971Z" style="fill:#290c0c;fill-rule:nonzero;"/><path d="M447.542,49.645c-4.834,17.459 -23.75,26.384 -39.459,31.792c-20.75,7.13 -42.792,11.059 -64.5,13.45c-49.5,5.446 -100.291,1.73 -148.5,-10.829c-11.75,-3.07 -23.458,-6.642 -34.666,-11.479c-10.626,-4.592 -21.334,-10.221 -29.417,-18.659c-1.875,-1.954 -4.875,1.017 -3,2.971c7.417,7.717 16.958,13.188 26.583,17.646c9.584,4.438 19.583,7.975 29.709,10.909c24.625,7.124 49.958,11.737 75.416,14.142c26,2.454 52.25,2.557 78.25,0.074c22.959,-2.195 46.167,-6.071 68.167,-13.154c18.125,-5.837 39.916,-15.671 45.458,-35.746c0.75,-2.608 -3.333,-3.725 -4.041,-1.117Z" style="fill:#290c0c;fill-rule:nonzero;"/><path d="M348.833,613.167c3.542,14.891 5.25,29.525 5.167,44.837c-0,2.7 4.208,2.704 4.208,-0c0.084,-15.708 -1.667,-30.679 -5.333,-45.954c-0.625,-2.629 -4.667,-1.517 -4.042,1.117Z" style="fill:#290c0c;fill-rule:nonzero;"/><path d="M350.166,462.421l-63,-0c-11.291,-0 -20.458,-9.167 -20.458,-20.475l0,-346.921l4.542,-27.058l95.333,-0l4.084,19.979l-0,354c-0,11.308 -9.167,20.475 -20.501,20.475Z" style="fill:#fff;fill-rule:nonzero;"/><path d="M360.625,74.471c-14.625,2.041 -29.333,3.879 -44.125,4.491c-14.667,0.6 -29.292,-0.137 -43.834,-1.966c-2.708,-0.338 -2.666,3.866 0,4.2c14.834,1.866 29.75,2.592 44.709,1.925c14.875,-0.659 29.666,-2.546 44.375,-4.6c2.667,-0.371 1.541,-4.421 -1.125,-4.05Z" style="fill:#290c0c;fill-rule:nonzero;"/><path d="M363.875,168.329c-27.75,5.321 -56.125,6.662 -84.292,4.083c-2.666,-0.246 -2.666,3.955 0,4.2c28.542,2.617 57.292,1.158 85.417,-4.233c2.667,-0.513 1.542,-4.558 -1.125,-4.05Z" style="fill:#290c0c;fill-rule:nonzero;"/><path d="M546,1359.77c-23.458,17.151 -52.917,25.13 -81.042,30.534c-35.042,6.729 -70.875,9.166 -106.5,10.016c-35.375,0.842 -70.75,-0.083 -106.083,-1.966c-26.375,-1.409 -52.709,-3.45 -79.042,-5.575c-21.458,-1.738 -42.875,-3.458 -64.208,-6.417c-13.584,-1.879 -27.042,-4.292 -40.458,-7.075c-11.334,-2.35 -22.792,-4.837 -33.542,-9.3c-5.209,-2.171 -10.167,-4.875 -14.75,-8.204c-2.167,-1.596 -4.292,2.046 -2.125,3.625c9.5,6.925 20.75,10.983 32,13.975c11.958,3.158 24.167,5.513 36.292,7.662c26.333,4.659 53,7.267 79.625,9.359c24.875,1.95 49.749,4.017 74.624,5.496c34.792,2.066 69.667,3.254 104.542,2.85c36.375,-0.421 72.917,-2.421 108.917,-8.3c29.583,-4.838 60.417,-12.096 86.25,-27.959c2.625,-1.596 5.167,-3.296 7.625,-5.096c2.125,-1.579 0.041,-5.224 -2.125,-3.625Z" style="fill:#290c0c;fill-rule:nonzero;"/><path d="M78.291,529.337c-7.333,0 -14.166,-4.658 -13.124,-14.029c10.416,-94.496 61.875,-174.9 92.75,-263.096c2.458,-7.037 8.416,-10.079 14.291,-10.079c9,0 17.834,7.088 14.084,17.896c-29.792,85.054 -81.667,164.246 -91.709,255.279c-1.042,9.338 -8.958,14.029 -16.292,14.029Z" style="fill:#fce0b7;fill-rule:nonzero;"/><path d="M98.75,1046c-5.209,10.667 -3.458,19.6 -0,31.504l2.958,0.25l115.125,13.892c-6.208,-39.196 -104.708,-72.442 -118.083,-45.646Zm142.375,64.004c-1.958,4.217 -8.667,3.721 -9.167,3.721c0,-0 -17.625,-1.238 -19.583,-1.984l-99.25,-12.158c-35.209,-5.95 -29.5,0 -34.458,-34.479c-2,-35.725 20.833,-47.138 39.166,-48.375c38.959,-2.483 124.292,24.558 123.292,93.275Z" style="fill:#ffebd6;fill-rule:nonzero;"/><path d="M187.791,951.975c-1.958,22.325 32.75,43.412 52.125,48.375c0.751,-0 1,0.496 0.751,0.992c-0,-0 1.708,13.891 -2,15.629c-20.584,-0 -46.625,-3.225 -62.042,-4.959c-11.875,-1.241 -12.375,-3.725 -12.625,-6.7c-0.25,-11.662 0.25,-12.9 6.458,-12.158c7.667,0.996 23.292,2.979 32,3.971c-12.916,-5.213 -35.5,-24.563 -30.792,-47.384c0,-2.729 16.376,-2.483 16.125,2.234Z" style="fill:#ffebd6;fill-rule:nonzero;"/><path d="M180.625,914.758c3.958,0 59.542,7.446 60.291,9.429c0.709,1.984 0.459,14.638 -4.25,14.388c-7.166,-0.246 -50.333,-4.217 -50.333,-4.217c0,0 -7.958,-0.25 -8.708,-5.458c-0.75,-5.458 -0.75,-13.892 3,-14.142Zm-23.084,16.625c-3.958,-0.25 -11.666,-2.979 -7.958,-13.15c3.25,-8.933 14.917,-4.962 16.875,-1.492c2.75,4.963 0.25,15.384 -8.917,14.642Z" style="fill:#ffebd6;fill-rule:nonzero;"/><path d="M205.167,832.396c19.624,1.487 35,4.466 35.749,6.204c0.959,2.479 -1.749,15.875 -5.25,15.875c-3.708,-0 -43.166,-9.179 -45.124,-2.483c-2,6.949 32.25,33.245 49.374,39.199c1,0.25 1,0.746 0.751,1.242c-0,0 0.958,13.892 -3.25,15.379c-20.334,-1.487 -46.125,-6.45 -61.25,-9.179c-11.917,-1.983 -12.167,-4.712 -12.167,-7.687c0.25,-11.663 1,-12.904 7.166,-11.663c8.709,1.738 19.125,3.721 28.792,5.458c-13.125,-7.937 -25.792,-23.32 -23.791,-35.724c1.208,-7.938 9.166,-18.359 29,-16.621Z" style="fill:#ffebd6;fill-rule:nonzero;"/><path d="M149.583,791.958c-5.667,-13.646 -17.333,-27.292 -40.917,-35.225c-7.708,-2.733 -13.625,-2.483 -16.374,2.475c-2.459,4.221 2.249,17.617 28.791,26.3c6.459,1.983 16.625,4.217 28.5,6.45Zm66.5,-65.742c5.209,4.963 22.334,22.821 21.334,43.167c-1,19.596 -23.334,20.838 -24.292,31.008l0,0.992c16.125,1.988 27.791,3.475 27.791,3.475c0,0 1.209,13.892 -2.749,15.384c-15.625,-0.496 -43.167,-3.971 -69.209,-7.942c0.25,8.433 -0.25,15.629 -3,25.554c-0.5,1.487 -2.208,2.233 -3.708,1.487l-8.417,-3.966c-1,-0.496 -1.75,-1.738 -1.5,-2.734c1,-3.966 2.459,-12.399 1.5,-22.82c-17.375,-2.979 -32.25,-6.2 -39.708,-8.934c-20.584,-7.441 -40.417,-24.312 -32.25,-45.646c7.458,-19.104 30,-17.612 50.875,-5.208c10.166,5.95 27.75,20.092 33.958,44.654c6.209,0.992 12.417,1.984 18.375,2.975c-4.208,-10.666 -10.417,-24.558 -18.375,-32c-1.708,-1.487 12.167,-11.662 14.167,-9.679c6.416,6.454 12.875,19.35 17.833,30.517c7.208,-9.675 22.333,-14.388 22.833,-19.104c1.001,-13.396 -11.416,-26.046 -16.125,-30.263c-0.749,-0.746 -1,-2.233 0,-2.979l7.709,-7.938c0.75,-0.745 1.958,-0.991 2.958,0Z" style="fill:#ffebd6;fill-rule:nonzero;"/><path d="M375.042,762.308c-2.584,3.65 -11.584,14.563 -22.834,14.329c-14.458,-0.3 -5.667,-18.287 -14.25,-18.466c-3.708,-0.08 -13.625,15.196 -16.917,20.845l-0.541,0.496c-1.667,0.467 -12.25,-1.1 -12.208,-3.454c0.083,-2.354 5.958,-26.962 1.458,-28.404c-4.708,-1.446 -20.5,21.613 -24.75,32.971c-0.208,0.666 -0.542,0.658 -0.875,0.487c-0,0.167 -9.417,0.475 -10.375,-2.237c1.292,-13.771 5.042,-31.363 7.083,-41.579c1.708,-8.046 3.375,-8.175 5.417,-8.134c7.875,0.5 8.708,0.855 7.791,5.038c-1.291,6.033 -2.791,12.9 -4.125,19.433c5.751,-8.625 13.667,-17.046 22.042,-15.521c5.375,0.784 11.459,6.292 10.208,19.729c-0.208,0.667 -0.208,1.513 -0.249,2.18c4.874,-7.134 11.083,-13.9 17.125,-13.775c16.999,0.354 10.541,19.566 14.75,19.654c5.374,0.116 12.416,-6.467 15.5,-9.771c0.708,-0.825 2.041,-0.8 2.874,0.229l2.917,3.592c0.5,0.687 0.5,1.696 -0.041,2.358Z" style="fill:#ffebd6;fill-rule:nonzero;"/><path d="M384,753.054c0.083,0.671 -0.042,1.192 0,1.858c11.708,-5.012 17.625,-15.55 13.708,-17.708c-3.75,-2.004 -13.791,4.367 -13.708,15.85Zm27.375,13.933c-4.625,9.742 -17.25,17.542 -28.25,12.179c-6.917,-3.391 -11.542,-9.2 -11.625,-24.233c0.125,-18.262 12.625,-26.904 22.917,-27.046c7.25,-0.191 16.5,4.329 12.583,18.059c-2.292,7.991 -14.584,17.287 -21.667,18.979c0.959,2.954 2.667,5.154 5.625,6.05c4,1.141 9.042,-2.559 12.958,-7.834c0.417,-0.716 1.251,-0.799 1.792,-0.512l4.958,2.396c0.709,0.275 0.959,1.092 0.709,1.962Z" style="fill:#ffebd6;fill-rule:nonzero;"/></svg>