<?xml version="1.0" encoding="UTF-8" standalone="no"?><!DOCTYPE svg PUBLIC "-//W3C//DTD SVG 1.1//EN" "http://www.w3.org/Graphics/SVG/1.1/DTD/svg11.dtd"><svg width="100%" height="100%" viewBox="0 0 3375 2421" version="1.1" xmlns="http://www.w3.org/2000/svg" xmlns:xlink="http://www.w3.org/1999/xlink" xml:space="preserve" xmlns:serif="http://www.serif.com/" style="fill-rule:evenodd;clip-rule:evenodd;stroke-linejoin:round;stroke-miterlimit:2;"><g><rect x="0" y="1.008" width="3372.93" height="2419.83" style="fill:#80a6ab;"/><path d="M1690.21,2244.32c-638.063,-0 -1158.48,-104.879 -1158.48,-233.475c0,-128.596 520.413,-233.475 1158.48,-233.475c638.066,-0 1158.47,104.879 1158.47,233.475c0,128.596 -520.408,233.475 -1158.47,233.475Zm338.574,-408.404c-117.354,-0 -244.533,3.512 -377.237,10.929c-576.713,32.246 -1038.55,126.037 -1031.33,209.446c5.562,64.216 287.571,103.583 680.225,103.591c117.354,0 244.563,-3.52 377.263,-10.937c576.708,-32.246 1038.55,-126.033 1031.33,-209.442c-5.563,-64.216 -287.592,-103.587 -680.251,-103.587Z" style="fill:#75989b;fill-rule:nonzero;"/><path d="M1300.45,2159.88c-392.654,-0.008 -674.663,-39.375 -680.225,-103.591c-7.221,-83.409 454.612,-177.2 1031.33,-209.446c132.704,-7.417 259.883,-10.929 377.237,-10.929c392.659,-0 674.688,39.371 680.251,103.587c7.225,83.409 -454.617,177.196 -1031.33,209.442c-132.7,7.417 -259.909,10.937 -377.263,10.937Z" style="fill:#69888a;fill-rule:nonzero;"/><path d="M2686,2053.71l-2014.45,0c-16.233,0 -30.117,-10.204 -35.079,-24.283l-0,30.583c-0,12.359 14.817,31.725 35.179,31.721l2015.31,-0.721c20.367,-0.008 36.042,-17.283 38.013,-31c0.954,-6.662 2.283,-36.887 -0.233,-41.704c-0,19.621 -18.38,35.404 -38.742,35.404Z" style="fill:#191919;"/><path d="M2685.13,2038.12l-2014.45,-0c-16.233,-0 -30.112,-10.205 -35.079,-24.284l0,30.579c0,19.621 16.663,35.676 37.029,35.676l2014.45,-0c20.367,-0 37.029,-16.055 37.029,-35.676c0,-6.725 2.284,-36.883 -0.233,-41.699c-0,19.62 -12.458,29.841 -38.742,35.404Z" style="fill:#666;"/><path d="M635.604,2013.83c4.967,14.079 18.846,24.284 35.079,24.284l2014.45,-0c27.705,-6.155 38.738,-15.784 38.738,-35.404l-239.758,-171.175c-11.305,21.85 -1216.26,4.399 -1625.92,5.062l-222.596,177.233Z" style="fill:#e5e5e5;"/><path d="M2261.98,1868.9c-27.312,-6.763 -294.762,2.146 -568.058,2.117c-295.288,-0.038 -597.684,-8.53 -619.242,-2.821c-14.037,12.787 -58.946,60.021 -75.192,80.4c-0.991,2.933 0.371,3.912 4.605,4.042c110.07,1.554 689.745,3.875 1046.45,2.637c158.191,-0.554 272.416,-0.517 282.579,-3.75c2.396,-0.4 4.288,-1.55 3.617,-3.729c-9.038,-10.404 -24.5,-26.513 -38.075,-42.258c-13.159,-15.259 -24.367,-30.217 -36.688,-36.638Z" style="fill:#191919;"/><path d="M2318.96,1935.51c-2.045,-4.812 -3.146,-7.175 -6.75,-10.275c-2.091,-1.22 -13.241,-0.725 -25.016,-0.666c-13.346,0.058 -27.617,-0.225 -32.65,-0.204c-1.75,0.116 -2.254,0.783 -1.717,1.349c1.067,1.671 5.217,9.546 6.812,10.663c3.321,0.862 19.192,0.125 34.125,0.233c12.892,0.096 25.134,0.25 25.196,-1.1Z" style="fill:#4c4c4c;"/><path d="M2281.77,1920.8c12.708,0.087 24.775,0.246 24.829,-1.083c-2.008,-4.73 -3.1,-7.046 -6.654,-10.092c-2.059,-1.196 -13.054,-0.704 -24.659,-0.658c-13.149,0.058 -27.22,-0.217 -32.179,-0.196c-1.729,0.112 -2.229,0.766 -1.7,1.329c1.05,1.637 5.146,9.375 6.734,10.471c3.258,0.845 18.908,0.12 33.629,0.229Z" style="fill:#4c4c4c;"/><path d="M2268.86,1905.08c12.83,0.087 25.021,0.229 25.071,-0.996c-2.025,-4.35 -3.129,-6.483 -6.712,-9.283c-2.079,-1.096 -13.179,-0.65 -24.896,-0.596c-13.283,0.05 -27.483,-0.208 -32.492,-0.183c-1.75,0.1 -2.254,0.7 -1.712,1.216c1.058,1.505 5.183,8.621 6.787,9.629c3.296,0.78 19.092,0.121 33.954,0.213Z" style="fill:#4c4c4c;"/><path d="M2256.58,1890.78c12.825,0.088 25.017,0.221 25.071,-0.995c-2.033,-4.35 -3.129,-6.484 -6.721,-9.28c-2.079,-1.104 -13.179,-0.658 -24.896,-0.608c-13.287,0.054 -27.483,-0.2 -32.487,-0.179c-1.75,0.108 -2.25,0.704 -1.717,1.217c1.063,1.508 5.192,8.62 6.788,9.633c3.3,0.779 19.1,0.112 33.962,0.212Z" style="fill:#4c4c4c;"/><path d="M2244.12,1877.05c12.529,0.083 24.429,0.225 24.479,-0.996c-1.975,-4.35 -3.054,-6.479 -6.554,-9.279c-2.029,-1.1 -12.871,-0.654 -24.317,-0.604c-12.971,0.058 -26.842,-0.204 -31.733,-0.188c-1.705,0.113 -2.192,0.709 -1.675,1.225c1.033,1.509 5.075,8.625 6.637,9.634c3.213,0.779 18.642,0.112 33.163,0.208Z" style="fill:#4c4c4c;"/><path d="M2194.56,1875.66c3.121,-0.958 0.346,-4.041 -0.383,-5.362c-1.067,-1.921 -0.996,-2.971 -3.433,-4.617c-4.8,-1.058 -36.075,-0.154 -63.15,-0.104c-30.684,0.054 -63.5,-0.192 -75.071,-0.175c-3.875,0.283 -1.517,10.733 2.904,10.884c7.625,0.745 44.212,0.487 78.554,0.583c8.513,0.021 53.296,1.016 60.579,-1.209Z" style="fill:#4c4c4c;"/><path d="M2199.23,1879.54c-3.475,-1.054 -26.087,-0.155 -45.671,-0.109c-22.183,0.054 -45.908,-0.187 -54.27,-0.166c-2.809,0.275 -1.1,10.629 2.095,10.775c5.509,0.746 31.971,0.495 56.8,0.579c6.15,0.025 38.117,1.562 43.867,-0.559c2.412,-0.899 0.183,-4.641 -0.342,-5.941c-0.779,-1.908 -0.721,-2.942 -2.479,-4.579Z" style="fill:#4c4c4c;"/><path d="M2210.5,1894.63c-5.45,-1.221 -40.942,-0.175 -71.671,-0.125c-34.812,0.067 -72.058,-0.221 -85.175,-0.204c-4.404,0.333 -1.729,12.367 3.292,12.537c8.641,0.859 50.171,0.571 89.141,0.676c9.659,0.02 60.48,1.166 68.746,-1.396c3.533,-1.1 0.384,-4.655 -0.45,-6.171c-1.208,-2.213 -1.121,-3.421 -3.883,-5.317Z" style="fill:#4c4c4c;"/><path d="M2145.1,1910.08c-4.296,-1.217 -32.279,-0.171 -56.5,-0.117c-27.45,0.063 -56.821,-0.225 -67.159,-0.2c-3.474,0.325 -1.366,12.363 2.588,12.529c6.821,0.863 39.554,0.571 70.288,0.676c7.616,0.024 47.154,1.82 54.275,-0.655c2.991,-1.046 0.225,-5.391 -0.425,-6.908c-0.963,-2.217 -0.888,-3.417 -3.067,-5.325Z" style="fill:#4c4c4c;"/><path d="M2160.67,1911.25c1.158,1.667 5.658,9.546 7.391,10.663c3.588,0.866 20.775,0.125 36.963,0.237c13.958,0.092 27.212,0.246 27.279,-1.108c-2.217,-4.813 -3.413,-7.175 -7.312,-10.275c-2.263,-1.217 -14.338,-0.721 -27.096,-0.667c-14.454,0.063 -29.913,-0.221 -35.35,-0.204c-1.909,0.121 -2.454,0.783 -1.875,1.354Z" style="fill:#4c4c4c;"/><path d="M2210.45,1926.21c-14.454,0.066 -29.917,-0.217 -35.359,-0.196c-1.908,0.116 -2.454,0.779 -1.866,1.35c1.158,1.671 5.654,9.546 7.391,10.662c3.592,0.859 20.78,0.125 36.959,0.233c13.95,0.092 27.217,0.246 27.275,-1.104c-2.209,-4.816 -3.404,-7.171 -7.304,-10.275c-2.263,-1.212 -14.35,-0.716 -27.096,-0.67Z" style="fill:#4c4c4c;"/><path d="M2161.34,1938.2c-2.217,-4.813 -3.404,-7.167 -7.317,-10.271c-2.254,-1.221 -14.337,-0.721 -27.088,-0.667c-14.449,0.059 -29.908,-0.225 -35.358,-0.204c-1.904,0.117 -2.446,0.783 -1.858,1.354c1.154,1.667 5.65,9.546 7.379,10.654c3.6,0.867 20.783,0.134 36.962,0.238c13.955,0.092 27.213,0.25 27.28,-1.104Z" style="fill:#4c4c4c;"/><path d="M2079.03,1939.39c-0.479,-3.138 -2.808,-8.784 -5.408,-11.488c-3.063,-1.217 -25.437,-0.204 -42.696,-0.15c-19.558,0.058 -35.104,-0.746 -42.475,-0.721c-2.579,0.117 -3.95,0.734 -3.783,1.7c1.241,2.221 3.533,9.721 5.883,10.829c4.854,0.867 28.125,0.13 50.017,0.234c18.891,0.095 38.383,0.954 38.462,-0.404Z" style="fill:#4c4c4c;"/><path d="M1971.12,1938.4c0.308,-3.771 0.104,-6.658 -2.096,-9.891c-2.258,-1.217 -16.3,-0.634 -29.05,-0.58c-14.446,0.059 -24.117,-0.196 -29.563,-0.17c-1.904,0.112 -3.004,0.92 -3.125,1.841c0.767,2.117 0.434,8.179 2.171,9.284c3.588,0.87 19.667,0.641 36.804,0.308c13.95,-0.279 24.805,0.558 24.859,-0.792Z" style="fill:#4c4c4c;"/><path d="M1940.62,1921.05c3.591,0.867 19.671,0.637 36.808,0.296c13.95,-0.271 24.796,0.566 24.863,-0.784c0.304,-3.771 0.095,-6.666 -2.096,-9.896c-2.271,-1.216 -16.3,-0.629 -29.054,-0.579c-14.45,0.067 -24.121,-0.195 -29.567,-0.171c-1.904,0.117 -3.004,0.925 -3.121,1.846c0.763,2.113 0.429,8.175 2.167,9.288Z" style="fill:#4c4c4c;"/><path d="M1973.18,1905.45c3.592,0.862 19.671,0.633 36.804,0.3c13.946,-0.275 24.809,0.562 24.863,-0.792c0.3,-3.775 0.104,-6.658 -2.104,-9.887c-2.263,-1.221 -16.292,-0.638 -29.042,-0.583c-14.454,0.062 -24.121,-0.196 -29.563,-0.167c-1.908,0.108 -3.012,0.921 -3.129,1.837c0.767,2.113 0.434,8.175 2.171,9.292Z" style="fill:#4c4c4c;"/><path d="M2027.07,1890.8c3.583,0.863 19.671,0.638 36.8,0.296c13.954,-0.271 24.8,0.567 24.862,-0.787c0.304,-3.767 0.1,-6.663 -2.1,-9.888c-2.266,-1.217 -16.291,-0.637 -29.05,-0.583c-14.446,0.058 -24.112,-0.192 -29.562,-0.171c-1.9,0.112 -3.009,0.921 -3.121,1.846c0.767,2.112 0.429,8.175 2.171,9.287Z" style="fill:#4c4c4c;"/><path d="M2010.82,1876.12c13.954,-0.279 24.808,0.562 24.862,-0.792c0.304,-3.767 0.1,-6.662 -2.1,-9.892c-2.262,-1.216 -16.296,-0.629 -29.046,-0.579c-14.454,0.063 -24.116,-0.192 -29.558,-0.171c-1.912,0.113 -3.013,0.925 -3.138,1.846c0.771,2.117 0.438,8.175 2.176,9.292c3.591,0.858 19.666,0.629 36.804,0.296Z" style="fill:#4c4c4c;"/><path d="M2013.91,1880.4c-2.266,-1.212 -16.291,-0.629 -29.045,-0.571c-14.459,0.059 -24.121,-0.196 -29.571,-0.175c-1.896,0.113 -3,0.921 -3.117,1.842c0.763,2.117 0.429,8.175 2.167,9.287c3.591,0.867 19.667,0.638 36.808,0.305c13.95,-0.28 24.804,0.558 24.863,-0.796c0.3,-3.767 0.1,-6.659 -2.105,-9.892Z" style="fill:#4c4c4c;"/><path d="M1960.83,1875.37c0.304,-3.771 0.104,-6.659 -2.096,-9.892c-2.267,-1.217 -16.3,-0.633 -29.05,-0.579c-14.458,0.062 -24.121,-0.196 -29.566,-0.171c-1.905,0.117 -3.005,0.925 -3.125,1.842c0.766,2.116 0.433,8.175 2.175,9.291c3.587,0.867 19.67,0.634 36.8,0.3c13.95,-0.279 24.808,0.554 24.862,-0.791Z" style="fill:#4c4c4c;"/><path d="M1932.73,1889.88c0.3,-3.775 0.1,-6.662 -2.1,-9.887c-2.262,-1.217 -16.296,-0.638 -29.05,-0.583c-14.446,0.062 -24.117,-0.192 -29.563,-0.171c-1.904,0.112 -3,0.925 -3.129,1.845c0.771,2.113 0.438,8.167 2.175,9.288c3.588,0.863 19.667,0.629 36.804,0.296c13.942,-0.275 24.8,0.562 24.863,-0.788Z" style="fill:#4c4c4c;"/><path d="M1928.01,1894.66c-14.449,0.062 -24.116,-0.196 -29.562,-0.175c-1.904,0.116 -3.013,0.929 -3.121,1.841c0.763,2.121 0.421,8.179 2.159,9.296c3.595,0.867 19.674,0.629 36.804,0.292c13.954,-0.271 24.812,0.566 24.866,-0.784c0.304,-3.77 0.104,-6.662 -2.1,-9.891c-2.262,-1.217 -16.296,-0.634 -29.046,-0.579Z" style="fill:#4c4c4c;"/><path d="M1920.61,1910.49c-2.262,-1.213 -16.304,-0.634 -29.05,-0.584c-14.446,0.063 -24.116,-0.191 -29.562,-0.166c-1.913,0.116 -3.004,0.92 -3.121,1.845c0.762,2.113 0.425,8.167 2.154,9.288c3.6,0.863 19.679,0.629 36.813,0.292c13.954,-0.271 24.808,0.562 24.87,-0.788c0.296,-3.767 0.096,-6.662 -2.104,-9.887Z" style="fill:#4c4c4c;"/><path d="M1886.66,1927.99c-2.258,-1.217 -16.291,-0.629 -29.046,-0.584c-14.449,0.063 -24.116,-0.191 -29.57,-0.166c-1.9,0.112 -2.996,0.921 -3.121,1.846c0.767,2.116 0.433,8.175 2.167,9.291c3.595,0.858 19.679,0.629 36.808,0.296c13.958,-0.279 24.8,0.558 24.867,-0.792c0.3,-3.766 0.095,-6.658 -2.105,-9.891Z" style="fill:#4c4c4c;"/><path d="M1807.77,1939.52c7.371,-0.046 1.321,-11.367 -3.463,-12.517c-82.075,-0.046 -189.225,0.246 -243.783,-0.079c-83.667,-0.504 -176.004,-0.938 -190.387,0.05c-2.088,-0.054 -2.821,4.092 -3.763,7.046c-1.467,4.612 0.896,5.554 14.104,5.421c21.479,-0.221 67.696,-0.413 160.717,-0.184c119.141,0.296 241.6,1.025 266.575,0.263Z" style="fill:#4c4c4c;"/><path d="M1781.73,1921.39c3.6,0.862 19.679,0.633 36.809,0.296c13.949,-0.271 24.808,0.566 24.866,-0.788c0.308,-3.767 0.1,-6.663 -2.1,-9.888c-2.262,-1.216 -16.3,-0.633 -29.046,-0.583c-14.445,0.067 -24.116,-0.196 -29.562,-0.167c-1.908,0.113 -3.013,0.921 -3.125,1.846c0.762,2.113 0.429,8.167 2.158,9.284Z" style="fill:#4c4c4c;"/><path d="M1817.62,1905.28c3.604,0.863 19.683,0.633 36.817,0.296c13.949,-0.271 24.804,0.562 24.862,-0.787c0.3,-3.776 0.104,-6.667 -2.1,-9.892c-2.267,-1.217 -16.296,-0.633 -29.05,-0.579c-14.454,0.062 -24.117,-0.196 -29.558,-0.175c-1.909,0.116 -3.013,0.929 -3.125,1.841c0.758,2.121 0.42,8.175 2.154,9.296Z" style="fill:#4c4c4c;"/><path d="M1828,1891.37c13.95,-0.275 24.804,0.562 24.867,-0.792c0.304,-3.771 0.1,-6.654 -2.1,-9.887c-2.263,-1.217 -16.305,-0.634 -29.055,-0.584c-14.445,0.067 -24.112,-0.191 -29.562,-0.167c-1.9,0.109 -3,0.925 -3.117,1.842c0.763,2.108 0.434,8.175 2.167,9.292c3.587,0.858 19.662,0.629 36.8,0.296Z" style="fill:#4c4c4c;"/><path d="M1824.59,1876.34c3.591,0.862 19.67,0.625 36.808,0.291c13.946,-0.279 24.804,0.567 24.858,-0.787c0.3,-3.771 0.096,-6.659 -2.1,-9.892c-2.258,-1.216 -16.296,-0.633 -29.05,-0.579c-14.446,0.058 -24.112,-0.192 -29.567,-0.167c-1.895,0.113 -3,0.917 -3.108,1.838c0.754,2.121 0.417,8.175 2.159,9.296Z" style="fill:#4c4c4c;"/><path d="M1810.85,1875.85c0.3,-3.771 0.1,-6.659 -2.104,-9.892c-2.263,-1.216 -16.296,-0.633 -29.05,-0.579c-14.454,0.058 -24.113,-0.192 -29.563,-0.167c-1.904,0.113 -3,0.917 -3.121,1.838c0.767,2.121 0.438,8.175 2.175,9.296c3.58,0.862 19.659,0.625 36.8,0.291c13.946,-0.279 24.8,0.567 24.863,-0.787Z" style="fill:#4c4c4c;"/><path d="M1777.46,1890.23c0.3,-3.775 0.104,-6.666 -2.1,-9.891c-2.262,-1.221 -16.296,-0.634 -29.05,-0.584c-14.45,0.063 -24.12,-0.191 -29.562,-0.171c-1.904,0.113 -3.009,0.921 -3.117,1.842c0.754,2.113 0.421,8.175 2.159,9.292c3.595,0.867 19.67,0.629 36.808,0.296c13.95,-0.271 24.8,0.566 24.862,-0.784Z" style="fill:#4c4c4c;"/><path d="M1711.31,1875.81c13.95,-0.275 24.8,0.563 24.863,-0.787c0.296,-3.771 0.104,-6.659 -2.104,-9.896c-2.263,-1.217 -16.296,-0.629 -29.054,-0.575c-14.451,0.063 -24.117,-0.196 -29.563,-0.175c-1.9,0.117 -3,0.925 -3.121,1.85c0.767,2.108 0.434,8.171 2.171,9.283c3.592,0.863 19.675,0.634 36.808,0.3Z" style="fill:#4c4c4c;"/><path d="M1657.98,1876.17c1.738,-1.117 1.4,-7.175 2.163,-9.296c-0.117,-0.917 -1.213,-1.725 -3.121,-1.838c-5.442,-0.025 -15.113,0.229 -29.562,0.175c-12.755,-0.058 -26.788,-0.646 -29.051,0.571c-2.204,3.234 -2.404,6.125 -2.104,9.896c0.059,1.354 10.913,0.508 24.867,0.787c17.129,0.334 33.221,0.571 36.808,-0.295Z" style="fill:#4c4c4c;"/><path d="M1583.04,1875.16c1.742,-1.117 1.413,-7.175 2.163,-9.288c-0.104,-0.921 -1.208,-1.733 -3.117,-1.846c-5.441,-0.021 -15.112,0.234 -29.562,0.175c-12.754,-0.054 -26.783,-0.641 -29.05,0.575c-2.2,3.233 -2.4,6.121 -2.1,9.896c0.066,1.346 10.916,0.508 24.866,0.783c17.134,0.342 33.213,0.571 36.8,-0.295Z" style="fill:#4c4c4c;"/><path d="M1507.17,1875.82c1.733,-1.117 1.4,-7.175 2.158,-9.292c-0.112,-0.921 -1.217,-1.733 -3.117,-1.846c-5.445,-0.021 -15.116,0.234 -29.566,0.171c-12.754,-0.05 -26.788,-0.637 -29.054,0.579c-2.196,3.23 -2.4,6.125 -2.1,9.892c0.062,1.354 10.916,0.513 24.866,0.792c17.134,0.333 33.221,0.562 36.813,-0.296Z" style="fill:#4c4c4c;"/><path d="M1433.7,1875.99c1.734,-1.117 1.409,-7.171 2.163,-9.292c-0.109,-0.921 -1.217,-1.721 -3.121,-1.842c-5.446,-0.02 -15.108,0.23 -29.558,0.175c-12.755,-0.054 -26.788,-0.641 -29.055,0.575c-2.195,3.229 -2.4,6.121 -2.095,9.892c0.062,1.354 10.908,0.512 24.862,0.792c17.137,0.333 33.221,0.566 36.804,-0.3Z" style="fill:#4c4c4c;"/><path d="M1355.51,1876.17c1.738,-1.117 1.409,-7.175 2.167,-9.296c-0.116,-0.917 -1.212,-1.725 -3.121,-1.838c-5.446,-0.025 -15.112,0.229 -29.562,0.175c-12.754,-0.058 -26.788,-0.646 -29.054,0.571c-2.2,3.234 -5.738,6.125 -5.434,9.896c0.059,1.354 14.25,0.513 28.2,0.787c17.134,0.334 33.213,0.571 36.804,-0.295Z" style="fill:#4c4c4c;"/><path d="M1356.44,1879.41c-12.755,-0.055 -26.788,-0.634 -29.046,0.583c-2.209,3.225 -2.404,6.112 -2.113,9.887c0.067,1.35 10.921,0.513 24.875,0.788c17.133,0.333 33.217,0.567 36.804,-0.296c1.734,-1.121 1.405,-7.175 2.167,-9.288c-0.121,-0.92 -1.221,-1.733 -3.125,-1.845c-5.446,-0.021 -15.108,0.233 -29.562,0.171Z" style="fill:#4c4c4c;"/><path d="M1370.07,1894.66c-12.746,-0.055 -26.783,-0.638 -29.05,0.579c-2.196,3.229 -2.404,6.121 -2.104,9.891c0.066,1.35 10.912,0.513 24.875,0.784c17.125,0.337 33.212,0.575 36.804,-0.292c1.737,-1.117 1.396,-7.175 2.162,-9.296c-0.116,-0.912 -1.212,-1.725 -3.121,-1.841c-5.445,-0.021 -15.116,0.237 -29.566,0.175Z" style="fill:#4c4c4c;"/><path d="M1405.41,1910.43c-12.755,-0.05 -26.788,-0.633 -29.051,0.583c-2.199,3.225 -2.404,6.121 -2.104,9.888c0.063,1.354 10.917,0.517 24.867,0.788c17.138,0.337 33.217,0.566 36.808,-0.296c1.738,-1.117 1.4,-7.171 2.163,-9.284c-0.117,-0.925 -1.217,-1.733 -3.117,-1.846c-5.45,-0.029 -15.117,0.234 -29.566,0.167Z" style="fill:#4c4c4c;"/><path d="M1457.9,1910.84c-2.213,3.23 -2.413,6.121 -2.104,9.888c0.058,1.354 10.908,0.513 24.862,0.792c17.133,0.333 33.221,0.566 36.809,-0.296c1.733,-1.117 1.4,-7.179 2.162,-9.296c-0.112,-0.913 -1.212,-1.721 -3.121,-1.842c-5.45,-0.02 -15.112,0.234 -29.558,0.171c-12.75,-0.046 -26.788,-0.633 -29.05,0.583Z" style="fill:#4c4c4c;"/><path d="M1443.65,1906.27c17.129,0.333 33.221,0.57 36.804,-0.296c1.742,-1.117 1.408,-7.179 2.171,-9.292c-0.117,-0.916 -1.217,-1.729 -3.121,-1.841c-5.45,-0.026 -15.121,0.233 -29.567,0.17c-12.754,-0.054 -26.783,-0.637 -29.05,0.58c-2.2,3.229 -2.4,6.12 -2.095,9.891c0.058,1.35 10.908,0.517 24.858,0.788Z" style="fill:#4c4c4c;"/><path d="M1427.51,1890.85c17.138,0.337 33.217,0.567 36.8,-0.296c1.746,-1.121 1.413,-7.175 2.171,-9.296c-0.112,-0.912 -1.221,-1.729 -3.121,-1.837c-5.45,-0.025 -15.112,0.233 -29.57,0.17c-12.742,-0.054 -26.784,-0.637 -29.042,0.58c-2.204,3.229 -2.404,6.116 -2.104,9.895c0.066,1.346 10.912,0.513 24.866,0.784Z" style="fill:#4c4c4c;"/><path d="M1484.89,1880.69c-2.208,3.233 -2.412,6.116 -2.104,9.887c0.063,1.354 10.909,0.517 24.863,0.792c17.133,0.333 33.217,0.562 36.808,-0.296c1.738,-1.117 1.404,-7.184 2.159,-9.292c-0.109,-0.917 -1.213,-1.733 -3.117,-1.842c-5.45,-0.024 -15.109,0.234 -29.563,0.167c-12.754,-0.05 -26.791,-0.633 -29.046,0.584Z" style="fill:#4c4c4c;"/><path d="M1529.51,1894.83c-12.75,-0.054 -26.78,-0.633 -29.046,0.584c-2.204,3.229 -2.404,6.116 -2.1,9.891c0.058,1.35 10.916,0.509 24.862,0.788c17.138,0.337 33.217,0.566 36.813,-0.3c1.729,-1.113 1.4,-7.175 2.15,-9.288c-0.104,-0.92 -1.205,-1.733 -3.113,-1.845c-5.446,-0.021 -15.117,0.233 -29.566,0.17Z" style="fill:#4c4c4c;"/><path d="M1568.2,1909.91c-12.754,-0.05 -26.788,-0.629 -29.054,0.584c-2.2,3.225 -2.405,6.12 -2.096,9.887c0.054,1.35 10.908,0.517 24.858,0.788c17.138,0.337 33.225,0.571 36.813,-0.292c1.737,-1.121 1.4,-7.175 2.158,-9.288c-0.112,-0.925 -1.217,-1.729 -3.117,-1.845c-5.45,-0.025 -15.112,0.229 -29.562,0.166Z" style="fill:#4c4c4c;"/><path d="M1580.33,1895.07c-2.2,3.229 -2.4,6.112 -2.108,9.887c0.067,1.354 10.917,0.517 24.866,0.792c17.138,0.333 33.221,0.562 36.809,-0.3c1.733,-1.117 1.404,-7.179 2.162,-9.292c-0.108,-0.916 -1.208,-1.729 -3.116,-1.837c-5.446,-0.029 -15.117,0.229 -29.567,0.167c-12.754,-0.055 -26.787,-0.638 -29.046,0.583Z" style="fill:#4c4c4c;"/><path d="M1558.12,1890.21c0.062,1.354 10.917,0.513 24.866,0.784c17.134,0.341 33.209,0.57 36.805,-0.288c1.737,-1.121 1.404,-7.183 2.162,-9.296c-0.108,-0.916 -1.217,-1.729 -3.112,-1.841c-5.45,-0.025 -15.117,0.229 -29.575,0.17c-12.75,-0.054 -26.775,-0.637 -29.038,0.584c-2.212,3.221 -2.408,6.116 -2.108,9.887Z" style="fill:#4c4c4c;"/><path d="M1650.03,1909.91c-14.454,0.063 -24.116,-0.191 -29.566,-0.166c-1.909,0.116 -3.004,0.92 -3.121,1.845c0.762,2.113 0.433,8.167 2.167,9.288c3.587,0.863 19.67,0.629 36.804,0.292c13.95,-0.271 24.808,0.562 24.866,-0.788c0.296,-3.767 0.105,-6.662 -2.104,-9.887c-2.258,-1.213 -16.296,-0.634 -29.046,-0.584Z" style="fill:#4c4c4c;"/><path d="M1657.35,1905.45c3.592,0.862 19.671,0.633 36.813,0.3c13.95,-0.275 24.8,0.562 24.862,-0.792c0.3,-3.775 0.092,-6.658 -2.104,-9.887c-2.262,-1.221 -16.292,-0.638 -29.05,-0.583c-14.45,0.062 -24.121,-0.196 -29.563,-0.167c-1.899,0.108 -3.004,0.921 -3.12,1.837c0.758,2.113 0.42,8.175 2.162,9.292Z" style="fill:#4c4c4c;"/><path d="M1637.33,1890.2c3.583,0.859 19.675,0.629 36.8,0.296c13.954,-0.275 24.8,0.563 24.867,-0.788c0.3,-3.774 0.1,-6.662 -2.105,-9.891c-2.266,-1.217 -16.299,-0.633 -29.049,-0.584c-14.442,0.063 -24.121,-0.191 -29.563,-0.166c-1.9,0.108 -3,0.925 -3.117,1.837c0.763,2.113 0.421,8.179 2.167,9.296Z" style="fill:#4c4c4c;"/><path d="M1698.6,1911.76c0.766,2.113 0.433,8.175 2.171,9.288c3.583,0.867 19.666,0.637 36.804,0.296c13.95,-0.271 24.804,0.566 24.871,-0.784c0.296,-3.771 0.096,-6.666 -2.109,-9.896c-2.271,-1.216 -16.3,-0.629 -29.05,-0.579c-14.45,0.067 -24.116,-0.195 -29.562,-0.171c-1.909,0.117 -3.004,0.925 -3.125,1.846Z" style="fill:#4c4c4c;"/><path d="M1736.16,1896.16c0.763,2.113 0.434,8.175 2.167,9.292c3.587,0.862 19.675,0.633 36.804,0.3c13.954,-0.275 24.804,0.562 24.871,-0.792c0.296,-3.775 0.092,-6.658 -2.108,-9.887c-2.263,-1.221 -16.292,-0.638 -29.046,-0.583c-14.45,0.062 -24.117,-0.196 -29.563,-0.167c-1.9,0.108 -3.004,0.921 -3.125,1.837Z" style="fill:#4c4c4c;"/><path d="M1347.72,1937.85c1.746,-1.116 1.404,-7.171 2.171,-9.291c-0.113,-0.917 -1.217,-1.721 -3.121,-1.842c-5.446,-0.025 -15.121,0.233 -29.563,0.171c-12.762,-0.05 -26.787,-0.634 -29.054,0.579c-2.204,3.225 -2.404,6.125 -2.1,9.896c0.058,1.346 10.913,0.512 24.863,0.787c17.133,0.333 33.216,0.567 36.804,-0.3Z" style="fill:#4c4c4c;"/><path d="M1291.06,1920.73c0.066,1.354 10.916,0.513 24.866,0.792c17.133,0.333 33.213,0.566 36.8,-0.296c1.738,-1.117 1.404,-7.179 2.167,-9.296c-0.113,-0.913 -1.217,-1.721 -3.117,-1.842c-5.45,-0.02 -15.112,0.234 -29.567,0.171c-12.754,-0.046 -26.787,-0.633 -29.058,0.583c-2.196,3.23 -2.396,6.121 -2.091,9.888Z" style="fill:#4c4c4c;"/><path d="M1283.11,1906.01c17.13,0.333 33.213,0.562 36.805,-0.296c1.737,-1.121 1.4,-7.179 2.158,-9.292c-0.113,-0.925 -1.217,-1.725 -3.113,-1.842c-5.445,-0.021 -15.12,0.229 -29.566,0.171c-12.75,-0.054 -26.783,-0.637 -29.05,0.579c-2.204,3.229 -2.404,6.117 -2.1,9.892c0.066,1.35 10.912,0.508 24.866,0.788Z" style="fill:#4c4c4c;"/><path d="M1273.92,1891.54c17.129,0.333 33.208,0.57 36.8,-0.292c1.737,-1.121 1.404,-7.179 2.162,-9.3c-0.117,-0.913 -1.212,-1.725 -3.121,-1.838c-5.445,-0.025 -15.112,0.234 -29.558,0.171c-12.754,-0.054 -26.792,-0.633 -29.058,0.583c-2.192,3.221 -2.4,6.117 -2.096,9.888c0.062,1.35 10.912,0.512 24.871,0.788Z" style="fill:#4c4c4c;"/><path d="M1242.14,1876.09c17.133,0.341 33.208,0.575 36.8,-0.292c1.745,-1.117 4.2,-7.354 4.962,-9.471c-0.117,-0.916 -1.621,-1.262 -3.525,-1.383l-31.954,-0.108c-12.75,-0.059 -23.021,-0.55 -25.279,0.67c-2.2,3.221 -6.167,6.025 -5.867,9.8c0.063,1.355 10.913,0.513 24.863,0.784Z" style="fill:#4c4c4c;"/><path d="M1203.53,1876.49c1.742,-1.121 4.2,-7.354 4.963,-9.467c-0.117,-0.917 -1.621,-1.267 -3.521,-1.387l-31.958,-0.109c-12.746,-0.054 -23.017,-0.55 -25.275,0.667c-2.205,3.229 -6.175,6.033 -5.876,9.808c0.067,1.35 10.913,0.513 24.867,0.784c17.134,0.337 33.208,0.566 36.8,-0.296Z" style="fill:#4c4c4c;"/><path d="M1203.12,1880.28c-12.75,-0.054 -26.788,-0.633 -29.05,0.583c-2.204,3.221 -2.404,6.117 -2.1,9.888c0.062,1.35 10.916,0.512 24.866,0.788c17.134,0.333 33.213,0.57 36.804,-0.292c1.738,-1.121 1.405,-7.179 2.163,-9.3c-0.108,-0.913 -1.213,-1.725 -3.117,-1.838c-5.441,-0.025 -15.112,0.234 -29.566,0.171Z" style="fill:#4c4c4c;"/><path d="M1211.96,1895.16c-12.75,-0.058 -26.779,-0.637 -29.05,0.584c-2.2,3.225 -2.404,6.121 -2.096,9.887c0.059,1.35 10.909,0.513 24.859,0.788c17.142,0.333 33.221,0.571 36.808,-0.296c1.742,-1.117 1.408,-7.175 2.163,-9.292c-0.113,-0.916 -1.209,-1.729 -3.117,-1.846c-5.446,-0.02 -15.113,0.234 -29.567,0.175Z" style="fill:#4c4c4c;"/><path d="M1242.36,1909.56c-12.762,-0.05 -26.791,-0.633 -29.054,0.588c-2.204,3.221 -2.4,6.117 -2.1,9.887c0.063,1.351 10.913,0.513 24.867,0.788c17.133,0.333 33.208,0.567 36.8,-0.296c1.742,-1.121 1.404,-7.183 2.171,-9.292c-0.121,-0.92 -1.217,-1.725 -3.121,-1.85c-5.459,-0.016 -15.117,0.242 -29.563,0.175Z" style="fill:#4c4c4c;"/><path d="M1235.4,1926.37c-12.746,-0.05 -26.784,-0.633 -29.05,0.583c-2.204,3.225 -2.404,6.121 -2.092,9.888c0.05,1.354 10.909,0.516 24.854,0.795c17.138,0.33 33.221,0.563 36.809,-0.304c1.737,-1.112 1.404,-7.171 2.166,-9.291c-0.116,-0.917 -1.216,-1.725 -3.125,-1.842c-5.446,-0.017 -15.112,0.233 -29.562,0.171Z" style="fill:#4c4c4c;"/><path d="M1180.77,1937.54c1.737,-0.975 1.404,-6.28 2.162,-8.13c-0.112,-0.804 -1.216,-1.512 -3.121,-1.616c-5.441,-0.021 -15.112,0.204 -29.562,0.15c-12.75,-0.042 -26.787,-0.555 -29.05,0.508c-2.2,2.829 -5.2,5.517 -4.887,8.813c0.054,1.187 13.704,0.299 27.649,0.537c17.134,0.292 33.217,0.5 36.809,-0.262Z" style="fill:#4c4c4c;"/><path d="M1101.71,1937.74c2.395,-0.987 5.774,-6.52 6.825,-8.404c-0.155,-0.816 -2.225,-1.129 -4.855,-1.233l-43.987,-0.096c-17.558,-0.05 -31.696,-0.487 -34.808,0.592c-3.034,2.871 -8.496,5.358 -8.084,8.708c0.088,1.204 15.025,0.459 34.238,0.696c23.587,0.308 45.729,0.508 50.671,-0.263Z" style="fill:#4c4c4c;"/><path d="M1091.6,1920.18c44.558,0.296 88.483,0.85 97.817,0.088c4.516,-0.996 3.933,-6.534 5.912,-8.413c-0.296,-0.812 0.671,-1.475 -4.279,-1.57l-83.1,-0.105c-33.167,-0.05 -66.325,-1.462 -72.204,-0.379c-2.525,2.571 -5.279,4.55 -8.809,9.679c0.159,1.2 28.375,0.455 64.663,0.7Z" style="fill:#4c4c4c;"/><path d="M1091.55,1904.9c33.029,0.304 65.583,0.854 72.504,0.087c3.35,-0.991 2.913,-6.529 4.388,-8.404c-0.221,-0.82 0.496,-1.479 -3.175,-1.583l-61.6,-0.096c-24.584,-0.05 -49.963,-1.321 -54.329,-0.237c-2.988,1.612 -4.875,4.383 -7.259,9.533c0.117,1.2 22.579,0.458 49.471,0.7Z" style="fill:#4c4c4c;"/><path d="M1094.54,1890.89c26.633,0.3 52.875,0.854 58.454,0.087c2.7,-0.996 2.35,-6.529 3.537,-8.408c-0.183,-0.817 0.392,-1.484 -2.562,-1.579l-49.654,-0.105c-19.813,-0.037 -40.271,-1.312 -43.796,-0.233c-2.408,1.608 -3.929,4.388 -5.85,9.538c0.096,1.2 18.196,0.458 39.871,0.7Z" style="fill:#4c4c4c;"/><path d="M1092.45,1877.2c17.142,0.333 33.221,0.558 36.813,-0.304c1.737,-1.109 4.2,-7.346 4.954,-9.459c-0.109,-0.925 -1.621,-1.275 -3.525,-1.383l-31.95,-0.117c-12.75,-0.054 -23.017,-0.55 -25.279,0.667c-2.201,3.225 -6.18,6.038 -5.875,9.804c0.062,1.35 10.92,0.517 24.862,0.792Z" style="fill:#4c4c4c;"/><path d="M1495.94,1964.9l385.83,0c5.529,0 6.945,5.479 10.046,10.054l25.125,37.021c3.108,4.571 -4.521,10.046 -10.046,10.046l-439.513,0c-5.525,0 -13.421,-5.667 -10.046,-10.046l28.559,-37.021c3.379,-4.379 4.521,-10.054 10.045,-10.054Z" style="fill:#7f7f7f;"/><path d="M2449.86,744.462l-1571.32,0c-34.192,0 -62.171,25.467 -62.171,56.592l-0,978.292c-0,31.125 27.979,56.592 62.171,56.592l1571.32,-0c34.196,-0 62.171,-25.467 62.171,-56.592l0,-978.292c0,-31.125 -27.975,-56.592 -62.171,-56.592Zm-1570.85,17.021l1575.15,0c21.517,0 39.121,15.959 39.121,35.467l-0,989.079c-0,19.504 -17.604,35.467 -39.121,35.467l-1575.15,-0c-21.516,-0 -39.116,-15.963 -39.116,-35.467l-0,-989.079c-0,-19.508 17.6,-35.467 39.116,-35.467Z" style="fill:#4c4c4c;"/><path d="M839.892,796.95l-0,989.079c-0,19.504 17.6,35.467 39.116,35.467l1575.15,-0c21.517,-0 39.121,-15.963 39.121,-35.467l-0,-989.079c-0,-19.508 -17.604,-35.467 -39.121,-35.467l-1575.15,0c-21.516,0 -39.116,15.959 -39.116,35.467Zm1605,16.329l-0.354,961.65l-1560.24,0.375l0.359,-961.65l1560.23,-0.375Z" style="fill:#b2b2b2;"/><path d="M884.304,1775.3l1560.24,-0.375l0.354,-961.65l-1560.23,0.375l-0.359,961.65Z" style="fill:#232b33;"/><path d="M2449.86,1835.94l-1571.32,-0c-9.667,-0 -18.838,-2.034 -27.017,-5.659c7.188,8.588 17.938,14.075 29.896,14.075l1575.15,0c15.046,0 27.954,-10.083 34.487,-22.717c-10.983,8.884 -25.429,14.301 -41.196,14.301Z" style="fill:#7f7f7f;"/><path d="M1497.97,1967.98l380.75,0.5c5.379,0.009 6.133,4.471 9.154,8.313l20.104,32.646c3.021,3.837 -3.429,7.758 -8.804,7.758l-427.75,-0c-5.375,-0 -11.504,-4.208 -8.221,-7.883l24.55,-32.146c2.958,-3.879 4.838,-9.196 10.217,-9.188Z" style="fill:#b2b2b2;"/><path d="M1117.62,446.183l874.129,0l0.575,262.646l275.988,-0.562l-0,948.866l-1150.69,0l0,-1210.95Z" style="fill:#f2f2f2;"/><path d="M932.067,1429.77c12.616,-0.854 24.333,-21.542 24.762,-73.646l0.638,-109.7l-58.5,-0l1.962,128.842c1.971,30.771 15.988,53.6 29.488,54.504l1.65,-0Z" style="fill:#e5e5e5;"/><path d="M956.829,1356.12c-0.429,52.1 -12.146,72.792 -24.762,73.646l95.254,-0l0.612,-371.996c-0.929,-32.346 -14.241,-48.463 -28.966,-51.017c-18.796,-3.262 -39.888,15.592 -40.4,51.017l-1.1,188.65l-0.638,109.7Z" style="fill:#7f7f7f;"/><path d="M1071.43,1729.67l6.313,-0.509c20.596,-3.762 39.666,-28.162 39.879,-72.029l0,-650.375l-118.658,0c14.725,2.554 28.037,18.671 28.966,51.017l-0.612,371.996l-0.371,224.625c0.054,50.204 22.133,74.808 44.483,75.275Z" style="fill:#e5e5e5;"/><path d="M1071.43,1729.67c154.384,1.904 1134.01,13.7 1166.65,3.454c34.538,-10.85 30.238,-51.287 30.238,-75.992l-1150.69,0c-2.4,44.938 -21.783,69.863 -46.192,72.538Z" style="fill:url(#_Linear1);"/><path d="M2157.31,813.462l-340.925,0l-0.08,29.834l340.929,-0l0.076,-29.834Z" style="fill:#999;"/><path d="M1768.29,813.462l38.245,0l-0.075,29.834l-38.245,-0l0.075,-29.834Z" style="fill:#999;"/><path d="M1752.18,813.462l-152.316,0l-0.071,29.834l152.316,-0l0.071,-29.834Z" style="fill:#999;"/><path d="M1274.42,813.462l312.692,0l-0.075,29.834l-312.692,-0l0.075,-29.834Z" style="fill:#999;"/><path d="M1258.32,813.462l-16.104,0l-0.075,29.834l16.104,-0l0.075,-29.834Z" style="fill:#999;"/><path d="M2103.47,873.133l-340.929,0l-0.079,29.838l340.929,-0l0.079,-29.838Z" style="fill:#999;"/><path d="M1739.28,873.133l-193.262,0l-0.075,29.838l193.262,-0l0.075,-29.838Z" style="fill:#999;"/><path d="M1526.58,873.133l-284.508,0l-0.075,29.838l284.508,-0l0.075,-29.838Z" style="fill:#999;"/><path d="M2127.49,932.804l-329.933,0l-0.075,29.838l329.934,-0l0.074,-29.838Z" style="fill:#999;"/><path d="M1751.01,932.804l37.017,0l-0.079,29.838l-37.008,-0l0.07,-29.838Z" style="fill:#999;"/><path d="M1735.42,932.804l-147.404,0l-0.075,29.838l147.404,-0l0.075,-29.838Z" style="fill:#999;"/><path d="M1307.67,932.804l95.283,0l-0.075,29.838l-95.283,-0l0.075,-29.838Z" style="fill:#999;"/><path d="M1284.86,932.804l-42.946,0l-0.075,29.838l42.941,-0l0.08,-29.838Z" style="fill:#999;"/><path d="M1572.73,932.804l-144.942,0l-0.075,29.838l144.942,-0l0.075,-29.838Z" style="fill:#999;"/><path d="M2007.88,992.479l-179.862,0l-0.08,29.834l179.863,-0l0.079,-29.834Z" style="fill:#999;"/><path d="M1797.4,992.479l-256.221,0l-0.075,29.834l256.221,-0l0.075,-29.834Z" style="fill:#999;"/><path d="M1347.78,992.479l-106.016,0l-0.075,29.834l106.016,-0l0.075,-29.834Z" style="fill:#999;"/><path d="M1418.91,992.479l-42.946,0l-0.075,29.834l42.945,-0l0.076,-29.834Z" style="fill:#999;"/><path d="M1444.41,992.479l63.075,0l-0.075,29.834l-63.075,-0l0.075,-29.834Z" style="fill:#999;"/><path d="M1241.62,1052.15l340.933,-0l-0.079,29.842l-340.929,-0l0.075,-29.842Z" style="fill:#999;"/><path d="M1630.64,1052.15l-38.242,-0l-0.075,29.842l38.246,-0l0.071,-29.842Z" style="fill:#999;"/><path d="M1646.75,1052.15l152.317,-0l-0.071,29.842l-152.321,-0l0.075,-29.842Z" style="fill:#999;"/><path d="M2124.51,1052.15l-312.691,-0l-0.075,29.842l312.687,-0l0.079,-29.842Z" style="fill:#999;"/><path d="M1241.46,1111.83l394.626,0l-0.075,29.833l-394.625,0l0.074,-29.833Z" style="fill:#999;"/><path d="M1659.35,1111.83l193.258,0l-0.079,29.833l-193.254,0l0.075,-29.833Z" style="fill:#999;"/><path d="M1872.06,1111.83l135.517,0l-0.075,29.833l-135.521,0l0.079,-29.833Z" style="fill:#999;"/><path d="M1241.32,1171.5l359.458,-0l-0.075,29.837l-359.462,0l0.079,-29.837Z" style="fill:#999;"/><path d="M1647.32,1171.5l-37.013,-0l-0.075,29.837l37.013,0l0.075,-29.837Z" style="fill:#999;"/><path d="M1662.9,1171.5l147.404,-0l-0.075,29.837l-147.404,0l0.075,-29.837Z" style="fill:#999;"/><path d="M2125.25,1171.5l-129.871,-0l-0.079,29.837l129.871,0l0.079,-29.837Z" style="fill:#999;"/><path d="M2140.83,1171.5l15.584,-0l-0.076,29.837l-15.583,0l0.075,-29.837Z" style="fill:#999;"/><path d="M1825.61,1171.5l144.938,-0l-0.075,29.837l-144.938,0l0.075,-29.837Z" style="fill:#999;"/><path d="M2156.27,1227.98l-389.342,0l-0.075,29.838l389.342,-0l0.075,-29.838Z" style="fill:#999;"/><path d="M1751.14,1227.98l-152.317,0l-0.075,29.838l152.317,-0l0.075,-29.838Z" style="fill:#999;"/><path d="M1273.38,1227.98l312.688,0l-0.075,29.838l-312.688,-0l0.075,-29.838Z" style="fill:#999;"/><path d="M2102.43,1287.65l-340.929,0l-0.079,29.842l340.933,-0l0.075,-29.842Z" style="fill:#999;"/><path d="M1738.24,1287.65l-193.259,0l-0.075,29.842l193.258,-0l0.076,-29.842Z" style="fill:#999;"/><path d="M1525.53,1287.65l-284.508,0l-0.075,29.842l284.508,-0l0.075,-29.842Z" style="fill:#999;"/><path d="M2126.44,1347.33l-376.046,0l-0.079,29.838l376.05,-0l0.075,-29.838Z" style="fill:#999;"/><path d="M1734.38,1347.33l-147.404,0l-0.079,29.838l147.404,-0l0.079,-29.838Z" style="fill:#999;"/><path d="M1283.82,1347.33l-42.942,0l-0.075,29.838l42.942,-0l0.075,-29.838Z" style="fill:#999;"/><path d="M1571.68,1347.33l-273.287,0l-0.079,29.838l273.291,-0l0.075,-29.838Z" style="fill:#999;"/><path d="M2180.16,1407l-364.976,0l-0.079,29.834l364.984,-0l0.071,-29.834Z" style="fill:#999;"/><path d="M1796.36,1407l-334.467,0l-0.075,29.834l334.462,-0l0.08,-29.834Z" style="fill:#999;"/><path d="M1346.74,1407l-106.017,0l-0.075,29.834l106.017,-0l0.075,-29.834Z" style="fill:#999;"/><path d="M1417.87,1407l-42.946,0l-0.075,29.834l42.95,-0l0.071,-29.834Z" style="fill:#999;"/><path d="M1240.57,1466.67l340.933,-0l-0.075,29.837l-340.933,0l0.075,-29.837Z" style="fill:#999;"/><path d="M1629.6,1466.67l-38.246,-0l-0.075,29.837l38.246,0l0.075,-29.837Z" style="fill:#999;"/><path d="M1645.71,1466.67l152.317,-0l-0.075,29.837l-152.321,0l0.079,-29.837Z" style="fill:#999;"/><path d="M2123.46,1466.67l-312.688,-0l-0.079,29.837l312.687,0l0.08,-29.837Z" style="fill:#999;"/><path d="M1240.42,1526.35l394.625,0l-0.075,29.838l-394.625,-0l0.075,-29.838Z" style="fill:#999;"/><path d="M1658.3,1526.35l193.259,0l-0.076,29.838l-193.258,-0l0.075,-29.838Z" style="fill:#999;"/><path d="M1871.01,1526.35l135.517,0l-0.075,29.838l-135.517,-0l0.075,-29.838Z" style="fill:#999;"/><path d="M1240.27,1586.03l359.462,-0l-0.079,29.833l-359.458,0l0.075,-29.833Z" style="fill:#999;"/><path d="M1646.28,1586.03l-37.013,-0l-0.075,29.833l37.013,0l0.075,-29.833Z" style="fill:#999;"/><path d="M1661.86,1586.03l147.405,-0l-0.08,29.833l-147.399,0l0.074,-29.833Z" style="fill:#999;"/><path d="M2124.2,1586.03l-297.133,-0l-0.075,29.833l297.129,0l0.079,-29.833Z" style="fill:#999;"/><path d="M2139.78,1586.03l15.592,-0l-0.075,29.833l-15.588,0l0.071,-29.833Z" style="fill:#999;"/><path d="M2155.33,1644.22l-340.933,-0l-0.075,29.833l340.933,0l0.075,-29.833Z" style="fill:#999;"/><path d="M1766.3,1644.22l38.25,-0l-0.079,29.833l-38.246,0l0.075,-29.833Z" style="fill:#999;"/><path d="M1750.2,1644.22l-152.321,-0l-0.075,29.833l152.317,0l0.079,-29.833Z" style="fill:#999;"/><path d="M1272.44,1644.22l312.691,-0l-0.079,29.833l-312.687,0l0.075,-29.833Z" style="fill:#999;"/><path d="M1256.34,1644.22l-16.104,-0l-0.075,29.833l16.104,0l0.075,-29.833Z" style="fill:#999;"/><path d="M2268.32,708.267l-276.563,-262.084l0.575,262.646l275.988,-0.562Z" style="fill:#fff;"/><path d="M1329.51,706.321c0.045,6.258 -0.134,11.296 -0.455,15.062c-0.316,3.721 -0.95,6.579 -1.904,8.484c-0.954,1.908 -2.312,3.266 -4.175,4.041c-1.858,0.725 -4.312,1.267 -7.35,1.542l-12.25,1.358c-0.725,0.592 -1.225,1.542 -1.454,2.817c-0.225,1.313 -0.225,2.583 0,3.9c0.229,1.271 0.729,2.225 1.454,2.813c6.35,-0.184 12.204,-0.317 17.558,-0.455c5.401,-0.133 10.438,-0.225 15.155,-0.271c4.721,-0.045 9.258,-0.091 13.566,-0.091c6.08,-0 12.663,0.091 19.738,0.229c7.079,0.088 15.017,0.317 23.821,0.588c0.633,-0.588 1.045,-1.542 1.271,-2.813c0.224,-1.317 0.224,-2.587 -0,-3.9c-0.226,-1.275 -0.638,-2.225 -1.271,-2.817l-10.888,-1.358c-3.042,-0.363 -5.491,-0.908 -7.35,-1.679c-1.862,-0.771 -3.225,-2.088 -4.175,-3.992c-0.954,-1.908 -1.592,-4.721 -1.908,-8.441c-0.317,-3.767 -0.496,-8.759 -0.454,-15.017l-0,-120.058c-0.042,-2.313 0.137,-4.084 0.454,-5.217c0.316,-1.134 1.046,-1.858 2.087,-2.225c1.046,-0.317 2.679,-0.496 4.809,-0.45l16.337,-0c5.079,-0 9.209,0.771 12.475,2.266c3.267,1.496 5.9,3.584 7.896,6.309c1.996,2.721 3.629,5.9 4.9,9.571c1.271,3.679 2.496,7.671 3.583,12.071c0.546,0.724 1.5,1.133 2.905,1.316c1.408,0.133 2.858,0 4.266,-0.366c1.404,-0.363 2.358,-0.95 2.904,-1.767c-0.137,-3.946 -0.137,-8.121 0.042,-12.571c0.142,-4.442 0.412,-8.846 0.771,-13.2c0.366,-4.354 0.862,-8.35 1.408,-12.025c0.546,-3.675 1.183,-6.671 1.863,-9.029c-0.321,-0.454 -0.863,-0.863 -1.634,-1.271c-0.775,-0.408 -1.587,-0.592 -2.45,-0.633c-0.77,-0 -1.454,0.041 -1.954,0.179c-0.541,0.137 -1.042,0.366 -1.587,0.637c-0.725,1.859 -1.904,3.221 -3.446,4.084c-1.542,0.862 -3.996,1.404 -7.258,1.633c-3.271,0.225 -7.896,0.317 -13.796,0.271l-101.271,-0c-5.129,-0 -9.167,-0.088 -12.117,-0.225c-2.946,-0.184 -5.125,-0.5 -6.575,-0.908c-1.408,-0.409 -2.408,-1.001 -2.95,-1.725c-0.5,-0.771 -0.954,-1.725 -1.225,-2.859c-0.546,-0.408 -1.133,-0.679 -1.817,-0.862c-0.633,-0.134 -1.316,-0.225 -1.995,-0.225c-0.68,-0 -1.363,0.133 -1.996,0.362c-0.679,0.271 -1.271,0.592 -1.813,0.996c-0.591,3.587 -1.229,7.758 -1.908,12.525c-0.683,4.808 -1.542,10.071 -2.629,15.746c-1.092,5.717 -2.588,11.704 -4.45,18.012c0.592,1.179 1.45,2.042 2.633,2.584c1.133,0.5 2.404,0.77 3.763,0.729c1.316,-0.046 2.541,-0.321 3.679,-0.863c1.996,-4.991 3.992,-9.391 5.942,-13.204c1.949,-3.812 4.129,-7.033 6.533,-9.621c2.45,-2.629 5.354,-4.579 8.758,-5.941c3.45,-1.317 7.621,-1.996 12.521,-1.996l16.879,-0c2.134,-0.046 3.675,0.179 4.583,0.587c0.955,0.409 1.496,1.18 1.725,2.359c0.18,1.133 0.271,2.766 0.226,4.946l-0,120.058Z" style="fill:#999;fill-rule:nonzero;"/><path d="M1975.04,627.221l-152.321,-0l-0.075,29.837l152.316,0l0.08,-29.837Z" style="fill:#999;"/><path d="M1497.28,627.221l312.692,-0l-0.079,29.837l-312.688,0l0.075,-29.837Z" style="fill:#999;"/><path d="M1481.17,627.221l-16.1,-0l-0.075,29.837l16.1,0l0.075,-29.837Z" style="fill:#999;"/><path d="M1962.14,686.892l-193.258,-0l-0.075,29.837l193.263,0l0.07,-29.837Z" style="fill:#999;"/><path d="M1749.43,686.892l-284.508,-0l-0.075,29.837l284.508,0l0.075,-29.837Z" style="fill:#999;"/><path d="M2147.77,746.567l-127.4,-0l-0.029,29.833l127.395,-0l0.034,-29.833Z" style="fill:#999;"/><path d="M1973.87,746.567l37.008,-0l-0.075,29.833l-37.012,-0l0.079,-29.833Z" style="fill:#999;"/><path d="M1958.28,746.567l-147.404,-0l-0.071,29.833l147.404,-0l0.071,-29.833Z" style="fill:#999;"/><path d="M1530.53,746.567l95.28,-0l-0.075,29.833l-95.28,-0l0.075,-29.833Z" style="fill:#999;"/><path d="M1507.72,746.567l-42.946,-0l-0.075,29.833l42.946,-0l0.075,-29.833Z" style="fill:#999;"/><path d="M1795.58,746.567l-144.937,-0l-0.075,29.833l144.937,-0l0.075,-29.833Z" style="fill:#999;"/><path d="M1117.62,446.183l874.129,0l0.575,262.646l275.988,-0.562l-0,948.866l-1150.69,0l0,-1210.95Z" style="fill:#f2f2f2;"/><path d="M1071.43,1729.67c154.384,1.904 1134.01,13.7 1166.65,3.454c34.538,-10.85 30.238,-51.287 30.238,-75.992l-1150.69,0c-2.4,44.938 -21.783,69.863 -46.192,72.538Z" style="fill:url(#_Linear2);"/><path d="M2157.31,813.462l-340.925,0l-0.08,29.834l340.929,-0l0.076,-29.834Z" style="fill:#999;"/><path d="M1768.29,813.462l38.245,0l-0.075,29.834l-38.245,-0l0.075,-29.834Z" style="fill:#999;"/><path d="M1752.18,813.462l-152.316,0l-0.071,29.834l152.316,-0l0.071,-29.834Z" style="fill:#999;"/><path d="M1274.42,813.462l312.692,0l-0.075,29.834l-312.692,-0l0.075,-29.834Z" style="fill:#999;"/><path d="M1258.32,813.462l-16.104,0l-0.075,29.834l16.104,-0l0.075,-29.834Z" style="fill:#999;"/><path d="M2103.47,873.133l-340.929,0l-0.079,29.838l340.929,-0l0.079,-29.838Z" style="fill:#999;"/><path d="M1739.28,873.133l-193.262,0l-0.075,29.838l193.262,-0l0.075,-29.838Z" style="fill:#999;"/><path d="M1526.58,873.133l-284.508,0l-0.075,29.838l284.508,-0l0.075,-29.838Z" style="fill:#999;"/><path d="M2127.49,932.804l-329.933,0l-0.075,29.838l329.934,-0l0.074,-29.838Z" style="fill:#999;"/><path d="M1751.01,932.804l37.017,0l-0.079,29.838l-37.008,-0l0.07,-29.838Z" style="fill:#999;"/><path d="M1735.42,932.804l-147.404,0l-0.075,29.838l147.404,-0l0.075,-29.838Z" style="fill:#999;"/><path d="M1307.67,932.804l95.283,0l-0.075,29.838l-95.283,-0l0.075,-29.838Z" style="fill:#999;"/><path d="M1284.86,932.804l-42.946,0l-0.075,29.838l42.941,-0l0.08,-29.838Z" style="fill:#999;"/><path d="M1572.73,932.804l-144.942,0l-0.075,29.838l144.942,-0l0.075,-29.838Z" style="fill:#999;"/><path d="M2007.88,992.479l-179.862,0l-0.08,29.834l179.863,-0l0.079,-29.834Z" style="fill:#999;"/><path d="M1797.4,992.479l-256.221,0l-0.075,29.834l256.221,-0l0.075,-29.834Z" style="fill:#999;"/><path d="M1347.78,992.479l-106.016,0l-0.075,29.834l106.016,-0l0.075,-29.834Z" style="fill:#999;"/><path d="M1418.91,992.479l-42.946,0l-0.075,29.834l42.945,-0l0.076,-29.834Z" style="fill:#999;"/><path d="M1444.41,992.479l63.075,0l-0.075,29.834l-63.075,-0l0.075,-29.834Z" style="fill:#999;"/><path d="M1241.62,1052.15l340.933,-0l-0.079,29.842l-340.929,-0l0.075,-29.842Z" style="fill:#f66;"/><path d="M1630.64,1052.15l-38.242,-0l-0.075,29.842l38.246,-0l0.071,-29.842Z" style="fill:#f66;"/><path d="M1646.75,1052.15l152.317,-0l-0.071,29.842l-152.321,-0l0.075,-29.842Z" style="fill:#f66;"/><path d="M2124.51,1052.15l-312.691,-0l-0.075,29.842l312.687,-0l0.079,-29.842Z" style="fill:#f66;"/><path d="M1241.46,1111.83l394.626,0l-0.075,29.833l-394.625,0l0.074,-29.833Z" style="fill:#f66;"/><path d="M1659.35,1111.83l193.258,0l-0.079,29.833l-193.254,0l0.075,-29.833Z" style="fill:#f66;"/><path d="M1872.06,1111.83l135.517,0l-0.075,29.833l-135.521,0l0.079,-29.833Z" style="fill:#f66;"/><path d="M1241.32,1171.5l359.458,-0l-0.075,29.837l-359.462,0l0.079,-29.837Z" style="fill:#f66;"/><path d="M1647.32,1171.5l-37.013,-0l-0.075,29.837l37.013,0l0.075,-29.837Z" style="fill:#f66;"/><path d="M1662.9,1171.5l147.404,-0l-0.075,29.837l-147.404,0l0.075,-29.837Z" style="fill:#f66;"/><path d="M2125.25,1171.5l-129.871,-0l-0.079,29.837l129.871,0l0.079,-29.837Z" style="fill:#999;"/><path d="M2140.83,1171.5l15.584,-0l-0.076,29.837l-15.583,0l0.075,-29.837Z" style="fill:#999;"/><path d="M1825.61,1171.5l144.938,-0l-0.075,29.837l-144.938,0l0.075,-29.837Z" style="fill:#f66;"/><path d="M2156.27,1227.98l-389.342,0l-0.075,29.838l389.342,-0l0.075,-29.838Z" style="fill:#999;"/><path d="M1751.14,1227.98l-152.317,0l-0.075,29.838l152.317,-0l0.075,-29.838Z" style="fill:#999;"/><path d="M1273.38,1227.98l312.688,0l-0.075,29.838l-312.688,-0l0.075,-29.838Z" style="fill:#999;"/><path d="M2102.43,1287.65l-340.929,0l-0.079,29.842l340.933,-0l0.075,-29.842Z" style="fill:#999;"/><path d="M1738.24,1287.65l-193.259,0l-0.075,29.842l193.258,-0l0.076,-29.842Z" style="fill:#999;"/><path d="M1525.53,1287.65l-284.508,0l-0.075,29.842l284.508,-0l0.075,-29.842Z" style="fill:#999;"/><path d="M2126.44,1347.33l-376.046,0l-0.079,29.838l376.05,-0l0.075,-29.838Z" style="fill:#999;"/><path d="M1734.38,1347.33l-147.404,0l-0.079,29.838l147.404,-0l0.079,-29.838Z" style="fill:#999;"/><path d="M1283.82,1347.33l-42.942,0l-0.075,29.838l42.942,-0l0.075,-29.838Z" style="fill:#999;"/><path d="M1571.68,1347.33l-273.287,0l-0.079,29.838l273.291,-0l0.075,-29.838Z" style="fill:#999;"/><path d="M2180.16,1407l-364.976,0l-0.079,29.834l364.984,-0l0.071,-29.834Z" style="fill:#999;"/><path d="M1796.36,1407l-334.467,0l-0.075,29.834l334.462,-0l0.08,-29.834Z" style="fill:#999;"/><path d="M1346.74,1407l-106.017,0l-0.075,29.834l106.017,-0l0.075,-29.834Z" style="fill:#999;"/><path d="M1417.87,1407l-42.946,0l-0.075,29.834l42.95,-0l0.071,-29.834Z" style="fill:#999;"/><path d="M1240.57,1466.67l340.933,-0l-0.075,29.837l-340.933,0l0.075,-29.837Z" style="fill:#999;"/><path d="M1629.6,1466.67l-38.246,-0l-0.075,29.837l38.246,0l0.075,-29.837Z" style="fill:#999;"/><path d="M1645.71,1466.67l152.317,-0l-0.075,29.837l-152.321,0l0.079,-29.837Z" style="fill:#999;"/><path d="M2123.46,1466.67l-312.688,-0l-0.079,29.837l312.687,0l0.08,-29.837Z" style="fill:#999;"/><path d="M1240.42,1526.35l394.625,0l-0.075,29.838l-394.625,-0l0.075,-29.838Z" style="fill:#999;"/><path d="M1658.3,1526.35l193.259,0l-0.076,29.838l-193.258,-0l0.075,-29.838Z" style="fill:#999;"/><path d="M1871.01,1526.35l135.517,0l-0.075,29.838l-135.517,-0l0.075,-29.838Z" style="fill:#999;"/><path d="M1240.27,1586.03l359.462,-0l-0.079,29.833l-359.458,0l0.075,-29.833Z" style="fill:#999;"/><path d="M1646.28,1586.03l-37.013,-0l-0.075,29.833l37.013,0l0.075,-29.833Z" style="fill:#999;"/><path d="M1661.86,1586.03l147.405,-0l-0.08,29.833l-147.399,0l0.074,-29.833Z" style="fill:#999;"/><path d="M2124.2,1586.03l-297.133,-0l-0.075,29.833l297.129,0l0.079,-29.833Z" style="fill:#999;"/><path d="M2139.78,1586.03l15.592,-0l-0.075,29.833l-15.588,0l0.071,-29.833Z" style="fill:#999;"/><path d="M2155.33,1644.22l-340.933,-0l-0.075,29.833l340.933,0l0.075,-29.833Z" style="fill:#999;"/><path d="M1766.3,1644.22l38.25,-0l-0.079,29.833l-38.246,0l0.075,-29.833Z" style="fill:#999;"/><path d="M1750.2,1644.22l-152.321,-0l-0.075,29.833l152.317,0l0.079,-29.833Z" style="fill:#999;"/><path d="M1272.44,1644.22l312.691,-0l-0.079,29.833l-312.687,0l0.075,-29.833Z" style="fill:#999;"/><path d="M1256.34,1644.22l-16.104,-0l-0.075,29.833l16.104,0l0.075,-29.833Z" style="fill:#999;"/><path d="M2268.32,708.267l-276.563,-262.084l0.575,262.646l275.988,-0.562Z" style="fill:#fff;"/><path d="M1329.51,706.321c0.045,6.258 -0.134,11.296 -0.455,15.062c-0.316,3.721 -0.95,6.579 -1.904,8.484c-0.954,1.908 -2.312,3.266 -4.175,4.041c-1.858,0.725 -4.312,1.267 -7.35,1.542l-12.25,1.358c-0.725,0.592 -1.225,1.542 -1.454,2.817c-0.225,1.313 -0.225,2.583 0,3.9c0.229,1.271 0.729,2.225 1.454,2.813c6.35,-0.184 12.204,-0.317 17.558,-0.455c5.401,-0.133 10.438,-0.225 15.155,-0.271c4.721,-0.045 9.258,-0.091 13.566,-0.091c6.08,-0 12.663,0.091 19.738,0.229c7.079,0.088 15.017,0.317 23.821,0.588c0.633,-0.588 1.045,-1.542 1.271,-2.813c0.224,-1.317 0.224,-2.587 -0,-3.9c-0.226,-1.275 -0.638,-2.225 -1.271,-2.817l-10.888,-1.358c-3.042,-0.363 -5.491,-0.908 -7.35,-1.679c-1.862,-0.771 -3.225,-2.088 -4.175,-3.992c-0.954,-1.908 -1.592,-4.721 -1.908,-8.441c-0.317,-3.767 -0.496,-8.759 -0.454,-15.017l-0,-120.058c-0.042,-2.313 0.137,-4.084 0.454,-5.217c0.316,-1.134 1.046,-1.858 2.087,-2.225c1.046,-0.317 2.679,-0.496 4.809,-0.45l16.337,-0c5.079,-0 9.209,0.771 12.475,2.266c3.267,1.496 5.9,3.584 7.896,6.309c1.996,2.721 3.629,5.9 4.9,9.571c1.271,3.679 2.496,7.671 3.583,12.071c0.546,0.724 1.5,1.133 2.905,1.316c1.408,0.133 2.858,0 4.266,-0.366c1.404,-0.363 2.358,-0.95 2.904,-1.767c-0.137,-3.946 -0.137,-8.121 0.042,-12.571c0.142,-4.442 0.412,-8.846 0.771,-13.2c0.366,-4.354 0.862,-8.35 1.408,-12.025c0.546,-3.675 1.183,-6.671 1.863,-9.029c-0.321,-0.454 -0.863,-0.863 -1.634,-1.271c-0.775,-0.408 -1.587,-0.592 -2.45,-0.633c-0.77,-0 -1.454,0.041 -1.954,0.179c-0.541,0.137 -1.042,0.366 -1.587,0.637c-0.725,1.859 -1.904,3.221 -3.446,4.084c-1.542,0.862 -3.996,1.404 -7.258,1.633c-3.271,0.225 -7.896,0.317 -13.796,0.271l-101.271,-0c-5.129,-0 -9.167,-0.088 -12.117,-0.225c-2.946,-0.184 -5.125,-0.5 -6.575,-0.908c-1.408,-0.409 -2.408,-1.001 -2.95,-1.725c-0.5,-0.771 -0.954,-1.725 -1.225,-2.859c-0.546,-0.408 -1.133,-0.679 -1.817,-0.862c-0.633,-0.134 -1.316,-0.225 -1.995,-0.225c-0.68,-0 -1.363,0.133 -1.996,0.362c-0.679,0.271 -1.271,0.592 -1.813,0.996c-0.591,3.587 -1.229,7.758 -1.908,12.525c-0.683,4.808 -1.542,10.071 -2.629,15.746c-1.092,5.717 -2.588,11.704 -4.45,18.012c0.592,1.179 1.45,2.042 2.633,2.584c1.133,0.5 2.404,0.77 3.763,0.729c1.316,-0.046 2.541,-0.321 3.679,-0.863c1.996,-4.991 3.992,-9.391 5.942,-13.204c1.949,-3.812 4.129,-7.033 6.533,-9.621c2.45,-2.629 5.354,-4.579 8.758,-5.941c3.45,-1.317 7.621,-1.996 12.521,-1.996l16.879,-0c2.134,-0.046 3.675,0.179 4.583,0.587c0.955,0.409 1.496,1.18 1.725,2.359c0.18,1.133 0.271,2.766 0.226,4.946l-0,120.058Z" style="fill:#999;fill-rule:nonzero;"/><path d="M1975.04,627.221l-152.321,-0l-0.075,29.837l152.316,0l0.08,-29.837Z" style="fill:#999;"/><path d="M1497.28,627.221l312.692,-0l-0.079,29.837l-312.688,0l0.075,-29.837Z" style="fill:#999;"/><path d="M1481.17,627.221l-16.1,-0l-0.075,29.837l16.1,0l0.075,-29.837Z" style="fill:#999;"/><path d="M1962.14,686.892l-193.258,-0l-0.075,29.837l193.263,0l0.07,-29.837Z" style="fill:#999;"/><path d="M1749.43,686.892l-284.508,-0l-0.075,29.837l284.508,0l0.075,-29.837Z" style="fill:#999;"/><path d="M2147.77,746.567l-127.4,-0l-0.029,29.833l127.395,-0l0.034,-29.833Z" style="fill:#999;"/><path d="M1973.87,746.567l37.008,-0l-0.075,29.833l-37.012,-0l0.079,-29.833Z" style="fill:#999;"/><path d="M1958.28,746.567l-147.404,-0l-0.071,29.833l147.404,-0l0.071,-29.833Z" style="fill:#999;"/><path d="M1530.53,746.567l95.28,-0l-0.075,29.833l-95.28,-0l0.075,-29.833Z" style="fill:#999;"/><path d="M1507.72,746.567l-42.946,-0l-0.075,29.833l42.946,-0l0.075,-29.833Z" style="fill:#999;"/><path d="M1795.58,746.567l-144.937,-0l-0.075,29.833l144.937,-0l0.075,-29.833Z" style="fill:#999;"/><path d="M2584.97,1454.48l-52.438,-25.808l-44.5,90.412l52.438,25.808c7.958,3.913 19.912,-3.95 26.57,-17.475l20.288,-41.225c6.658,-13.525 5.596,-27.795 -2.358,-31.712Z" style="fill:#fc9;"/><path d="M2488.03,1519.08l44.5,-90.412l-26.133,-12.859l-9.883,20.088l-2.576,5.225l-19.575,39.783l-2.574,5.234l-9.888,20.083l26.129,12.858Z" style="fill:#e5e5e5;"/><path d="M2077.36,1285.53l19.58,-39.779l2.574,-5.238l9.884,-20.083l-111.967,-18.996l-15.887,32.279l83.358,77.13l9.883,-20.08l2.575,-5.233Z" style="fill:#fc9;"/><path d="M1981.54,1233.71l15.887,-32.279l-62.171,-10.55l46.284,42.829Z" style="fill:#ff2b2b;"/><path d="M2099.51,1240.51l397.001,195.388l9.883,-20.088l-397,-195.383l-9.884,20.083Z" style="fill:#ff2b2b;"/><path d="M2496.51,1435.9l-397.001,-195.388l-2.574,5.238l396.999,195.375l2.576,-5.225Z" style="fill:#ffd7af;"/><path d="M2493.94,1441.12l-396.999,-195.375l-19.58,39.779l397.004,195.379l19.575,-39.783Z" style="fill:#ff574d;"/><path d="M2474.36,1480.9l-397.004,-195.379l-2.575,5.233l397.005,195.38l2.574,-5.234Z" style="fill:#ffd7af;"/><path d="M2471.79,1486.14l-397.005,-195.38l-9.883,20.08l397,195.383l9.888,-20.083Z" style="fill:#ff2b2b;"/></g><defs><linearGradient id="_Linear1" x1="0" y1="0" x2="1" y2="0" gradientUnits="userSpaceOnUse" gradientTransform="matrix(-7.09671e-06,162.354,-162.354,-7.09671e-06,1669.96,1621.95)"><stop offset="0" style="stop-color:#fff;stop-opacity:1"/><stop offset="1" style="stop-color:#c3c3c3;stop-opacity:1"/></linearGradient><linearGradient id="_Linear2" x1="0" y1="0" x2="1" y2="0" gradientUnits="userSpaceOnUse" gradientTransform="matrix(-7.09671e-06,162.354,-162.354,-7.09671e-06,1669.96,1621.95)"><stop offset="0" style="stop-color:#fff;stop-opacity:1"/><stop offset="1" style="stop-color:#c3c3c3;stop-opacity:1"/></linearGradient></defs></svg>