<?xml version="1.0" encoding="UTF-8" standalone="no"?><!DOCTYPE svg PUBLIC "-//W3C//DTD SVG 1.1//EN" "http://www.w3.org/Graphics/SVG/1.1/DTD/svg11.dtd"><svg width="100%" height="100%" viewBox="0 0 1768 1874" version="1.1" xmlns="http://www.w3.org/2000/svg" xmlns:xlink="http://www.w3.org/1999/xlink" xml:space="preserve" xmlns:serif="http://www.serif.com/" style="fill-rule:evenodd;clip-rule:evenodd;stroke-linejoin:round;stroke-miterlimit:2;"><path d="M1192.18,1162.63c-86.541,87.929 -205.666,131.983 -315.125,186.025c-72.079,35.583 -130.72,86.12 -194.825,133.941c-162.987,121.596 -368.954,218.838 -534.337,88.138c-137.825,-108.917 -200.371,-360.163 -94.958,-541.809c36.462,-62.825 88.925,-103.816 147.575,-132.671c35.204,-17.325 80.675,-27.35 106.875,-63.583c27.629,-38.221 28.195,-96.246 33.962,-141.429c8.563,-67.254 17.829,-137.933 48.646,-199.196c70.7,-140.554 183.437,-118.25 290.4,-32.083c52.004,41.892 97.567,90.983 146.875,135.85c69.954,63.633 148.616,92.242 236.538,123.479c78.291,27.821 160.041,66.55 199.291,139.775c44.583,83.088 19.792,189.983 -37.375,264.971c-10.5,13.771 -21.709,26.592 -33.542,38.592Z" style="fill:url(#_Linear1);"/><path d="M1578.6,1235.26l40.042,-126.667l8,-25.233c2,9.125 3.208,17.983 3.708,26.6l-0.667,2.112l-31.917,100.833l0,0.026c-5.708,7.704 -12.166,15.12 -19.166,22.329Z" style="fill:url(#_Linear2);"/><path d="M1540.93,1267.97l52.874,-167.233l18.875,-59.717c2.542,5.771 4.792,11.45 6.75,17.029l-14.583,46.171l-47.75,150.95c-5.167,4.35 -10.583,8.613 -16.166,12.8Z" style="fill:url(#_Linear3);"/><path d="M1506.18,1291.43l62.792,-198.562l26.792,-84.771c2.75,4.683 5.333,9.317 7.708,13.871l-23.5,74.383l-58.625,185.384c-4.916,3.291 -9.958,6.516 -15.167,9.695Z" style="fill:url(#_Linear4);"/><path d="M1472.81,1310.6l71.334,-225.562l33.25,-105.309c2.916,4.08 5.667,8.138 8.292,12.159l-30.542,96.629l-67.667,213.975c-4.792,2.737 -9.708,5.437 -14.667,8.108Z" style="fill:url(#_Linear5);"/><path d="M1440.27,1327.13l0.5,-1.546l78.541,-248.404l38.834,-122.958c1.375,1.654 2.708,3.354 4.083,5.054c1.542,1.992 3.042,3.975 4.542,5.958l-36.459,115.429l-75.666,239.38c-4.75,2.387 -9.542,4.741 -14.375,7.087Z" style="fill:url(#_Linear6);"/><path d="M1408.27,1341.94l7.667,-24.188l78.541,-248.433l43.667,-138.175c3.041,3.246 6.041,6.562 8.958,9.946l-41.625,131.712l-78.542,248.429l-4.541,14.317c-4.667,2.138 -9.375,4.271 -14.125,6.392Z" style="fill:url(#_Linear7);"/><path d="M1376.6,1355.58l14.458,-45.695l78.542,-248.405l47.834,-151.304c3.125,2.975 6.208,5.988 9.249,9.054l-46.083,145.734l-78.542,248.404l-11.458,36.291c-4.625,2.013 -9.333,3.967 -14,5.921Z" style="fill:url(#_Linear8);"/><path d="M1345.22,1368.4l21,-66.379l78.542,-248.404l51.417,-162.709c3.208,2.746 6.374,5.538 9.458,8.376l-49.875,157.816l-78.542,248.404l-18.125,57.305c-4.583,1.883 -9.208,3.737 -13.875,5.591Z" style="fill:url(#_Linear9);"/><path d="M1314.06,1380.65l27.334,-86.466l78.541,-248.43l54.584,-172.758c3.25,2.546 6.5,5.171 9.667,7.788l-53.251,168.45l-78.541,248.429l-24.5,77.592c-4.625,1.808 -9.25,3.587 -13.834,5.395Z" style="fill:url(#_Linear10);"/><path d="M1282.97,1392.56l33.583,-106.229l78.542,-248.433l57.458,-181.754c3.292,2.425 6.542,4.866 9.751,7.358l-56.209,177.904l-78.542,248.409l-30.791,97.5c-4.625,1.754 -9.209,3.512 -13.792,5.245Z" style="fill:url(#_Linear11);"/><path d="M1251.89,1404.36l39.791,-125.895l78.542,-248.405l60.042,-189.962c3.333,2.3 6.625,4.646 9.916,7.012l-58.958,186.434l-78.5,248.404l-37.083,117.192c-4.625,1.754 -9.209,3.483 -13.75,5.22Z" style="fill:url(#_Linear12);"/><path d="M1220.81,1416.26l46.042,-145.655l78.542,-248.408l62.416,-197.492c3.376,2.225 6.667,4.496 10,6.767l-61.416,194.208l-78.5,248.404l-43.292,136.884c-4.625,1.775 -9.25,3.529 -13.792,5.292Z" style="fill:url(#_Linear13);"/><path d="M1189.6,1428.54l52.417,-165.771l78.542,-248.429l64.666,-204.555c3.333,2.171 6.709,4.371 10.042,6.567l-63.708,201.471l-78.542,248.429l-49.583,156.792c-4.667,1.825 -9.251,3.654 -13.834,5.496Z" style="fill:url(#_Linear14);"/><path d="M1158.14,1441.56l59.041,-186.645l78.542,-248.409l66.792,-211.362c3.375,2.145 6.75,4.296 10.125,6.466l-65.917,208.379l-78.542,248.409l-56.041,177.275c-4.75,1.946 -9.375,3.929 -14,5.887Z" style="fill:url(#_Linear15);"/><path d="M1126.27,1455.92l66.041,-208.875l78.584,-248.404l68.917,-217.95c2.958,1.829 5.874,3.679 8.749,5.491c0.417,0.301 0.875,0.575 1.334,0.871l-68,215.071l-78.542,248.4l-62.875,198.813c-4.833,2.183 -9.583,4.383 -14.208,6.583Z" style="fill:url(#_Linear16);"/><path d="M1093.68,1472.75l73.792,-233.541l78.542,-248.43l70.833,-224.02c3.417,2.054 6.834,4.104 10.167,6.145l-69.958,221.355l-78.542,248.433l-70.25,222.175c-5.042,2.6 -9.917,5.225 -14.584,7.883Z" style="fill:url(#_Linear17);"/><path d="M1059.14,1495.49l4.958,-15.742l78.542,-248.404l78.542,-248.4l72.791,-230.187c3.375,2.124 6.75,4.224 10.125,6.27l-71.917,227.396l-78.5,248.404l-78.541,248.405l-0.292,0.974c-5.667,3.705 -10.917,7.475 -15.708,11.284Z" style="fill:url(#_Linear18);"/><path d="M1021.47,1528.2l17.792,-56.279l78.541,-248.429l78.542,-248.409l74.917,-236.995c3.333,2.245 6.667,4.466 10,6.637l-73.917,233.838l-78.5,248.408l-78.541,248.429l-11.922,37.617c-5.454,4.8 -11.078,9.887 -16.912,15.183Z" style="fill:url(#_Linear19);"/><path d="M982.719,1564.39l31.708,-100.338l78.546,-248.4l78.542,-248.429l77.541,-245.225c3.209,2.488 6.459,4.958 9.75,7.358l-76.291,241.346l-78.542,248.434l-78.504,248.404l-25.496,80.616c-5.667,5.271 -11.417,10.684 -17.254,16.234Z" style="fill:url(#_Linear20);"/><path d="M943.765,1601.11l45.833,-144.912l78.542,-248.404l78.5,-248.429l78.541,-248.405l2.375,-7.508c3.042,2.958 6.167,5.8 9.417,8.604l-0.75,2.383l-78.542,248.405l-78.541,248.433l-78.542,248.404l-39.583,125.225c-5.667,5.346 -11.417,10.754 -17.25,16.204Z" style="fill:url(#_Linear21);"/><path d="M905.265,1636.48l59.5,-188.12l78.5,-248.43l78.541,-248.404l78.542,-248.429l7.042,-22.275c2.75,3.667 5.666,7.229 8.75,10.717l-4.75,15.037l-78.542,248.429l-78.542,248.404l-78.541,248.434l-53.5,169.225c-5.584,5.121 -11.209,10.262 -17,15.412Z" style="fill:url(#_Linear22);"/><path d="M867.473,1669.65l72.417,-229.146l78.541,-248.429l78.542,-248.408l78.542,-248.405l14.333,-45.295c1.917,4.746 4.125,9.429 6.625,14.029c0.209,0.391 0.458,0.792 0.667,1.162l-10.625,33.588l-78.5,248.404l-78.542,248.404l-78.546,248.433l-66.787,211.309c-5.5,4.804 -11.084,9.587 -16.667,14.354Z" style="fill:url(#_Linear23);"/><path d="M830.627,1699.77l5.917,-18.721l78.513,-248.408l78.537,-248.404l78.546,-248.43l78.541,-248.408l28,-88.55c0.667,8.933 1.834,17.833 3.709,26.629l-0,0.021l-20.708,65.383l-78.501,248.405l-78.545,248.433l-78.538,248.404l-78.546,248.433l-0.708,2.213c-5.338,4.4 -10.767,8.712 -16.217,13Z" style="fill:url(#_Linear24);"/><path d="M794.802,1726.56l16.875,-53.35l78.546,-248.429l78.542,-248.404l78.537,-248.408l78.505,-248.429l54.791,-173.305c-0.125,14.255 -1.083,29.03 -1.792,44.059l-41.958,132.729l-78.542,248.429l-157.083,496.808l-78.533,248.434l-12.15,38.408c-5.213,3.9 -10.467,7.717 -15.738,11.458Z" style="fill:url(#_Linear25);"/><path d="M760.181,1749.7l26.663,-84.358l78.546,-248.404l78.541,-248.429l78.542,-248.405l78.5,-248.404l75.125,-237.541c1.25,9.641 2.25,19.295 2.958,28.962l-67.041,212.058l-78.542,248.405l-78.541,248.408l-78.542,248.429l-78.534,248.404l-22.462,71.079c-5.058,3.355 -10.129,6.625 -15.213,9.796Z" style="fill:url(#_Linear26);"/><path d="M726.677,1769.23l35.334,-111.741l78.533,-248.409l78.554,-248.412l78.5,-248.429l78.542,-248.404l78.541,-248.429l11.209,-35.45c1.916,7.47 3.541,14.958 5,22.47l-0,0.029l-5.209,16.455l-78.5,248.408l-78.541,248.404l-78.542,248.429l-78.542,248.405l-78.533,248.408l-31.625,100.062c-4.904,2.83 -9.821,5.58 -14.721,8.204Z" style="fill:url(#_Linear27);"/><path d="M694.39,1785.02l42.783,-135.367l78.538,-248.429l78.554,-248.404l78.495,-248.408l78.547,-248.43l78.541,-248.404l22.625,-71.5c2.208,6.142 4.333,12.267 6.292,18.446l-0.042,0.029l-17.875,56.504l-78.5,248.404l-78.546,248.43l-78.537,248.408l-78.542,248.404l-78.537,248.433l-39.629,125.346c-4.722,2.284 -9.426,4.463 -14.167,6.538Z" style="fill:url(#_Linear28);"/><path d="M663.202,1797.11l49.113,-155.33l78.533,-248.404l78.542,-248.429l78.541,-248.404l78.538,-248.433l78.504,-248.404l31.875,-100.63c2.5,5.192 4.875,10.446 7.125,15.684l-27.958,88.425l-78.542,248.408l-78.542,248.429l-78.541,248.408l-78.53,248.43l-78.533,248.404l-46.45,146.925c-4.566,1.762 -9.116,3.392 -13.675,4.921Z" style="fill:url(#_Linear29);"/><path d="M633.215,1805.56l54.262,-171.638l78.533,-248.404l78.538,-248.404l78.55,-248.429l78.542,-248.409l78.5,-248.429l39.499,-124.825c2.709,4.521 5.292,9.079 7.793,13.675l-36.251,114.629l-78.541,248.434l-78.542,248.404l-78.542,248.429l-78.533,248.404l-78.533,248.404l-52.117,164.855c-4.383,1.212 -8.779,2.32 -13.158,3.304Z" style="fill:url(#_Linear30);"/><path d="M604.361,1810.46l58.279,-184.367l78.537,-248.429l78.538,-248.409l78.55,-248.429l78.542,-248.404l78.499,-248.408l45.959,-145.284c1,1.421 2,2.863 3,4.305c1.792,2.599 3.541,5.216 5.25,7.829l-43.167,136.633l-78.541,248.404l-78.542,248.404l-78.538,248.43l-78.537,248.404l-78.538,248.437l-56.641,179.142c-4.234,0.692 -8.446,1.25 -12.65,1.742Z" style="fill:url(#_Linear31);"/><path d="M576.586,1811.84l61.22,-193.613l78.538,-248.429l78.533,-248.404l78.554,-248.408l78.496,-248.429l78.546,-248.405l51.5,-162.937c2.958,3.621 5.834,7.283 8.667,11.012l-49.13,155.405l-78.541,248.408l-78.538,248.429l-78.537,248.408l-78.538,248.429l-78.537,248.405l-60.038,189.908c-4.054,0.196 -8.12,0.258 -12.195,0.221Z" style="fill:url(#_Linear32);"/><path d="M549.898,1809.82l63.046,-199.454l78.537,-248.404l78.538,-248.434l78.533,-248.404l78.546,-248.404l78.537,-248.429l56.421,-178.346c3,3.292 5.959,6.654 8.917,10.042l-54.292,171.787l-78.541,248.429l-78.584,248.405l-78.525,248.404l-78.537,248.429l-78.533,248.404l-62.371,197.271c-3.909,-0.304 -7.792,-0.758 -11.692,-1.296Z" style="fill:url(#_Linear33);"/><path d="M535.506,1807.26c-3.758,-0.8 -7.529,-1.705 -11.25,-2.763l63.855,-201.992l78.537,-248.404l78.533,-248.404l78.538,-248.433l78.546,-248.404l78.541,-248.405l60.626,-191.875c3.125,3.046 6.166,6.138 9.208,9.255l-58.834,186.104l-78.541,248.404l-78.534,248.404l-78.537,248.429l-78.533,248.404l-78.534,248.409l-63.621,201.271Z" style="fill:url(#_Linear34);"/><path d="M510.427,1800.17c-3.608,-1.275 -7.204,-2.65 -10.808,-4.179l63.654,-201.321l78.538,-248.429l78.533,-248.408l78.537,-248.405l78.55,-248.429l78.542,-248.408l64.333,-203.554c3.209,2.77 6.334,5.587 9.459,8.454l-62.792,198.583l-78.542,248.408l-78.537,248.43l-78.533,248.404l-78.538,248.404l-78.537,248.429l-63.859,202.021Z" style="fill:url(#_Linear35);"/><path d="M486.327,1789.92c-3.467,-1.721 -6.917,-3.571 -10.354,-5.517l62.467,-197.591l78.533,-248.404l78.538,-248.434l78.537,-248.404l78.55,-248.408l78.542,-248.43l67.542,-213.725c3.245,2.571 6.453,5.163 9.624,7.805l-66.166,209.404l-78.542,248.429l-78.537,248.404l-78.538,248.408l-78.537,248.43l-78.534,248.404l-63.125,199.629Z" style="fill:url(#_Linear36);"/><path d="M463.21,1776.62c-3.324,-2.171 -6.637,-4.442 -9.954,-6.867l60.321,-190.804l78.538,-248.404l78.533,-248.404l78.567,-248.43l78.533,-248.404l78.517,-248.433l70.333,-222.421c3.334,2.346 6.621,4.742 9.833,7.183l-69.125,218.721l-78.545,248.43l-78.534,248.408l-78.566,248.429l-78.534,248.404l-78.533,248.404l-61.384,194.188Z" style="fill:url(#_Linear37);"/><path d="M441.019,1760.35c-3.192,-2.588 -6.363,-5.304 -9.542,-8.129l57.263,-181.104l78.541,-248.434l78.534,-248.404l78.533,-248.404l78.538,-248.429l78.545,-248.409l72.663,-229.833c3.379,2.15 6.708,4.342 10.004,6.588l-71.667,226.729l-78.529,248.404l-78.541,248.429l-78.534,248.409l-78.533,248.404l-78.542,248.429l-58.733,185.754Z" style="fill:url(#_Linear38);"/><path d="M419.752,1741.23c-3.075,-3.012 -6.112,-6.125 -9.15,-9.371l53.305,-168.6l78.537,-248.408l78.537,-248.433l78.534,-248.4l78.537,-248.434l78.546,-248.404l74.625,-236c3.417,2 6.792,4.025 10.167,6.067l-73.792,233.412l-78.533,248.409l-78.538,248.429l-78.533,248.404l-78.537,248.429l-78.534,248.404l-55.171,174.496Z" style="fill:url(#_Linear39);"/><path d="M399.356,1719.32c-2.941,-3.412 -5.862,-6.95 -8.775,-10.567l48.492,-153.362l78.534,-248.404l78.537,-248.429l78.537,-248.409l78.534,-248.404l78.537,-248.433l76.179,-240.971c3.459,1.825 6.917,3.671 10.375,5.571l-75.541,238.883l-78.538,248.429l-78.533,248.404l-78.538,248.43l-78.537,248.412l-78.533,248.404l-50.73,160.446Z" style="fill:url(#_Linear40);"/><path d="M379.79,1694.7c-2.804,-3.808 -5.596,-7.716 -8.396,-11.733l42.817,-135.413l78.562,-248.429l78.534,-248.404l78.537,-248.429l78.538,-248.408l78.533,-248.405l77.391,-244.829c3.542,1.629 7.042,3.329 10.542,5.05l-76.921,243.263l-78.533,248.404l-78.533,248.404l-78.542,248.433l-78.533,248.405l-78.563,248.424l-45.433,143.667Z" style="fill:url(#_Linear41);"/><path d="M361.094,1667.48c-2.742,-4.267 -5.392,-8.596 -8.013,-12.946l36.292,-114.837l78.542,-248.429l78.533,-248.409l78.533,-248.404l78.538,-248.429l78.537,-248.404l78.292,-247.638c3.542,1.5 7.125,3.025 10.625,4.6l-77.904,246.517l-78.538,248.404l-78.537,248.433l-78.533,248.405l-78.534,248.404l-78.537,248.429l-39.296,124.304Z" style="fill:url(#_Linear42);"/><path d="M343.227,1637.56c-2.608,-4.638 -5.166,-9.267 -7.691,-13.942l0.004,-0.029l29,-91.763l78.533,-248.404l78.542,-248.429l78.533,-248.404l78.533,-248.409l78.538,-248.429l78.537,-248.404l0.292,-0.946c3.629,1.325 7.225,2.704 10.817,4.13l-0.096,0.299l-78.533,248.405l-78.542,248.429l-78.533,248.408l-78.534,248.404l-78.537,248.429l-78.538,248.405l-32.325,102.25Z" style="fill:url(#_Linear43);"/><path d="M325.973,1605.71c-2.529,-4.809 -5.062,-9.592 -7.575,-14.371l0.004,-0.025l21.304,-67.346l78.534,-248.404l78.537,-248.408l78.538,-248.43l78.533,-248.404l78.538,-248.404l78.537,-248.433l0.525,-1.663c3.675,1.179 7.321,2.404 10.958,3.654l-0.47,1.492l-78.538,248.429l-78.537,248.409l-78.534,248.404l-78.537,248.429l-78.534,248.408l-78.537,248.404l-24.746,78.259Z" style="fill:url(#_Linear44);"/><path d="M308.669,1574.06l-7.854,-13.53l14.054,-44.395l78.537,-248.434l78.534,-248.404l78.537,-248.404l78.538,-248.433l78.533,-248.404l78.538,-248.43l0.437,-1.391c3.696,1.025 7.413,2.104 11.1,3.233l-0.525,1.642l-78.537,248.429l-78.534,248.404l-78.537,248.429l-78.534,248.409l-78.537,248.404l-78.538,248.429l-17.212,54.446Z" style="fill:url(#_Linear45);"/><path d="M291.002,1543.45c-2.587,-4.766 -5.154,-9.504 -7.629,-14.175l6.637,-21.008l78.534,-248.404l78.537,-248.429l78.538,-248.409l78.533,-248.404l78.538,-248.429l78.533,-248.404l0.05,-0.15c3.742,0.904 7.479,1.829 11.242,2.787l-0.279,0.842l-78.534,248.408l-78.537,248.43l-78.534,248.404l-78.537,248.404l-78.538,248.433l-78.533,248.404l-10.021,31.7Z" style="fill:url(#_Linear46);"/><path d="M273.89,1511.18c-2.559,-4.967 -5.025,-9.871 -7.467,-14.746l77.283,-244.425l78.538,-248.4l78.537,-248.433l78.534,-248.404l78.537,-248.433l77.867,-246.267c3.787,0.754 7.575,1.533 11.358,2.337l-78.208,247.413l-78.538,248.429l-78.537,248.408l-78.538,248.43l-78.533,248.404l-78.537,248.404l-2.296,7.283Z" style="fill:url(#_Linear47);"/><path d="M257.273,1477.29c-2.458,-5.321 -4.821,-10.596 -7.104,-15.838l68.704,-217.3l78.533,-248.408l78.542,-248.433l78.533,-248.405l78.534,-248.404l76.82,-242.983c3.842,0.575 7.676,1.208 11.505,1.887l-77.313,244.575l-78.533,248.409l-78.538,248.429l-78.533,248.404l-78.537,248.408l-72.613,229.659Z" style="fill:url(#_Linear48);"/><path d="M241.585,1440.54c-2.32,-5.942 -4.483,-11.842 -6.5,-17.725l0.009,-0.046l58.941,-186.454l78.542,-248.429l78.533,-248.409l78.538,-248.429l78.533,-248.404l75.446,-238.663c3.884,0.454 7.771,0.909 11.671,1.446l-76.104,240.696l-78.533,248.404l-78.538,248.433l-78.533,248.405l-78.542,248.433l-63.463,200.742Z" style="fill:url(#_Linear49);"/><path d="M227.544,1398.47c-2.004,-7.229 -3.775,-14.421 -5.288,-21.633l46.921,-148.392l78.538,-248.429l78.533,-248.404l78.538,-248.405l78.537,-248.433l73.725,-233.217c3.937,0.255 7.896,0.567 11.846,0.951l-74.558,235.749l-78.538,248.43l-78.537,248.404l-78.534,248.404l-78.537,248.433l-52.646,166.542Z" style="fill:url(#_Linear50);"/><path d="M217.215,1344.69c-1.138,-11.079 -1.667,-22.225 -1.492,-33.529l0.004,-0.055l28.617,-90.516l78.533,-248.404l78.538,-248.43l78.537,-248.408l78.534,-248.404l71.67,-226.729c3.988,0.108 7.967,0.262 11.971,0.45l-72.629,229.758l-78.533,248.408l-78.538,248.405l-78.537,248.429l-78.534,248.404l-38.141,120.621Z" style="fill:url(#_Linear51);"/><path d="M234.965,1202.14c5.625,-24.48 9.179,-48.842 11.045,-73.188l0.009,-0.054l-0,-0.021l52.025,-164.554l78.533,-248.404l78.538,-248.429l78.533,-248.409l69.234,-218.966c4.041,-0.096 8.103,-0.138 12.154,-0.1l-70.371,222.55l-78.538,248.404l-78.537,248.433l-78.534,248.404l-74.091,234.334Z" style="fill:url(#_Linear52);"/><path d="M247.506,1076.07c-0.166,-11.304 -0.645,-22.604 -1.387,-33.908l27.087,-85.696l78.538,-248.409l78.533,-248.404l78.538,-248.429l66.375,-209.946c4.1,-0.296 8.212,-0.533 12.341,-0.696l-67.704,214.121l-78.537,248.434l-78.533,248.404l-78.538,248.404l-36.713,116.125Z" style="fill:url(#_Linear53);"/><path d="M242.727,1004.66c-1.004,-9.088 -2.166,-18.196 -3.45,-27.321l0.004,-0.025l9.063,-28.692l78.537,-248.429l78.538,-248.404l78.558,-248.405l63.088,-199.554c4.158,-0.516 8.35,-0.954 12.537,-1.337l-64.612,204.375l-78.559,248.4l-78.533,248.408l-78.542,248.429l-16.629,52.555Z" style="fill:url(#_Linear54);"/><path d="M234.248,945.089c-1.371,-8.175 -2.821,-16.338 -4.35,-24.538l72.146,-228.191l78.537,-248.434l78.538,-248.404l59.312,-187.596c4.217,-0.746 8.467,-1.408 12.742,-2.012l-61.042,193.091l-78.537,248.404l-78.538,248.43l-78.533,248.404l-0.275,0.846Z" style="fill:url(#_Linear55);"/><path d="M224.135,890.689c-1.537,-7.729 -3.154,-15.475 -4.762,-23.267l57.838,-182.925l78.537,-248.429l78.538,-248.409l54.97,-173.87c4.309,-1.017 8.654,-1.955 13.013,-2.834l-56.971,180.188l-78.537,248.429l-78.538,248.408l-64.088,202.709Z" style="fill:url(#_Linear56);"/><path d="M213.277,838.626c-1.616,-7.558 -3.25,-15.175 -4.912,-22.796l44.012,-139.191l78.534,-248.404l78.537,-248.434l49.975,-158.062c4.4,-1.342 8.846,-2.6 13.312,-3.829l-52.27,165.375l-78.542,248.429l-78.533,248.404l-50.113,158.508Z" style="fill:url(#_Linear57);"/><path d="M202.227,787.139c-1.629,-7.646 -3.233,-15.284 -4.858,-22.975l0.004,-0.025l30.167,-95.363l78.537,-248.404l78.534,-248.404l44.2,-139.788c4.512,-1.746 9.091,-3.4 13.683,-4.975l-46.871,148.242l-78.533,248.404l-78.534,248.409l-36.329,114.879Z" style="fill:url(#_Linear58);"/><path d="M191.436,734.772c-1.559,-7.971 -3.059,-15.958 -4.504,-23.987l0.008,-0.051l15.737,-49.795l78.538,-248.43l78.537,-248.404l37.392,-118.312c4.667,-2.267 9.396,-4.421 14.158,-6.467l-40.537,128.258l-78.534,248.405l-78.537,248.429l-22.258,70.354Z" style="fill:url(#_Linear59);"/><path d="M181.569,679.576c-1.388,-8.591 -2.692,-17.225 -3.921,-25.85l0.004,-0.025l0.192,-0.621l78.533,-248.408l78.538,-248.429l29.329,-92.754c4.833,-2.892 9.758,-5.692 14.775,-8.4l-33.088,104.633l-78.541,248.433l-78.534,248.405l-7.287,23.016Z" style="fill:url(#_Linear60);"/><path d="M173.186,619.71c-1.13,-9.517 -2.15,-19.046 -3.063,-28.588l0.004,-0.025l61.417,-194.283l78.537,-248.404l19.5,-61.68c5.071,-3.821 10.284,-7.541 15.642,-11.162l-24.129,76.321l-78.538,248.404l-69.37,219.417Z" style="fill:url(#_Linear61);"/><path d="M167.081,552.634c-0.746,-11.099 -1.279,-22.195 -1.616,-33.216l0.004,-0.05l41.241,-130.417l78.534,-248.404l6.783,-21.479l0.025,-0.025c5.488,-5.421 11.179,-10.683 17.092,-15.813l-12.884,40.8l-78.537,248.404l-50.642,160.2Z" style="fill:url(#_Linear62);"/><path d="M165.111,472.376c0.254,-14.958 0.879,-29.812 1.954,-44.5l14.783,-46.762l66.375,-209.946c6.429,-9.292 13.313,-18.279 20.646,-27l-76.008,240.429l-27.75,87.779Z" style="fill:url(#_Linear63);"/><path d="M177.665,346.23c7.867,-40.612 19.754,-79.341 36.475,-115.354l-36.475,115.354Z" style="fill:url(#_Linear64);"/><path d="M1693.47,740.839c19.708,-103.138 0.625,-204.104 -80.125,-282.938c-72.208,-70.479 -178.458,-96.275 -279.042,-92.621c-47.041,1.709 -95.125,9.646 -135.624,33.654c-36.334,21.542 -64.209,54.526 -95.834,82.53c-62.667,55.462 -141.833,91.887 -224.708,103.35c-66,9.129 -133.267,2.75 -199.563,9.312c-66.296,6.558 -135.517,29.046 -176.058,81.954c-29.129,38.021 -39.938,87.717 -38.6,135.705c3.225,115.775 73.375,222.583 166.087,291.916c92.713,69.329 205.892,105.592 319.092,128.892c109.25,22.487 224.958,33.583 330.417,-2.296c170.166,-57.867 373.5,-278.213 413.958,-489.458Z" style="fill:url(#_Linear65);"/><path d="M211.642,1666.64c-18.762,3.829 -34.462,14.067 -42.15,33.159c-6.871,17.066 -3.841,36.775 3.759,53.479c3.554,7.816 8.233,15.375 15.091,20.533c6.154,4.633 13.654,7.042 20.571,10.429c13.7,6.713 25.342,17.542 33.033,30.717c6.117,10.496 9.717,22.279 15.425,33.004c5.709,10.721 14.305,20.833 26.042,24c8.434,2.271 17.563,0.642 25.563,-2.917c19.3,-8.583 32.441,-27.829 37.691,-48.275c5.254,-20.445 3.513,-42.05 -0.421,-62.758c-3.791,-19.987 -9.954,-40.262 -23.329,-55.558c-21.571,-24.671 -72.845,-43.663 -111.275,-35.813Z" style="fill:url(#_Linear66);"/><path d="M1227.18,197.309c1.167,-0.82 2.375,-1.608 3.667,-2.354c29.834,-17.45 77.958,-4.316 109.625,1.155c12.833,2.212 26,5.32 36.125,13.462c10.125,8.146 16.208,22.675 10.917,34.538c-3.084,6.891 -9.334,11.795 -15.75,15.766c-22.917,14.184 -50.167,19.859 -77.084,21.654c-21.291,1.421 -43.833,0.259 -62.083,-10.821c-27.333,-16.612 -31.791,-54.624 -5.417,-73.4Z" style="fill:url(#_Linear67);"/><path d="M1493.22,204.801c0.875,3.221 2.583,6.571 4.625,9.583c5.625,8.346 22.833,26.284 34.958,20.9c9.667,-4.333 -8.041,-31.362 -12.041,-35.862c-4.542,-5.146 -10.959,-9.662 -17.792,-8.713c-9.792,1.363 -11.541,7.446 -9.75,14.092Z" style="fill:url(#_Linear68);"/><path d="M1304.97,1488.72c2.958,-5.287 4.5,-11.437 4.083,-17.917c-0.499,-8.766 -4.416,-16.804 -10.958,-22.637c-6.584,-5.833 -15.041,-8.758 -23.791,-8.238c-18.084,1.071 -31.959,16.671 -30.876,34.771c0.5,8.763 4.417,16.804 11.001,22.634c6.541,5.833 14.999,8.758 23.749,8.237c11.626,-0.688 21.5,-7.371 26.792,-16.85Zm-64.083,-35.621c6.5,-11.671 18.666,-19.887 32.958,-20.737c10.792,-0.638 21.167,2.962 29.25,10.137c8.084,7.179 12.917,17.071 13.542,27.859c1.333,22.262 -15.709,41.458 -38,42.775c-10.792,0.641 -21.167,-2.959 -29.25,-10.134c-8.084,-7.175 -12.875,-17.067 -13.542,-27.854c-0.458,-7.967 1.417,-15.542 5.042,-22.046Z" style="fill:url(#_Linear69);"/><path d="M1515.89,1461.04l-28.042,-13.713l2.125,31.146l25.917,-17.433Zm-35.584,-21.842c0.292,-0.513 0.667,-0.959 1.209,-1.296c1.083,-0.758 2.541,-0.858 3.749,-0.262l39.834,19.479c1.209,0.591 2.042,1.791 2.125,3.141c0.084,1.35 -0.542,2.65 -1.667,3.405l-36.791,24.762c-1.125,0.75 -2.542,0.854 -3.75,0.258c-1.25,-0.6 -2.042,-1.796 -2.125,-3.145l-3.042,-44.238c-0.083,-0.746 0.084,-1.475 0.458,-2.104Z" style="fill:url(#_Linear70);"/><path d="M1739.77,987.36c0.875,-1.546 2.833,-2.096 4.375,-1.234l18.291,10.192c1.542,0.862 2.084,2.808 1.209,4.358c-0.833,1.542 -2.792,2.096 -4.334,1.234l-18.291,-10.192c-1.542,-0.863 -2.084,-2.817 -1.25,-4.358Z" style="fill:url(#_Linear71);"/><path d="M1689.81,959.464c0.833,-1.546 2.791,-2.096 4.333,-1.234l19.208,10.713c1.542,0.862 2.084,2.808 1.25,4.354c-0.875,1.542 -2.833,2.1 -4.375,1.237l-19.208,-10.712c-1.542,-0.862 -2.084,-2.817 -1.208,-4.358Z" style="fill:url(#_Linear72);"/><path d="M1704.89,1012.64l11.208,-20.088c0.834,-1.541 2.792,-2.096 4.333,-1.233c1.542,0.858 2.125,2.813 1.251,4.354l-11.209,20.088c-0.875,1.545 -2.833,2.096 -4.375,1.233c-1.542,-0.858 -2.084,-2.808 -1.208,-4.354Z" style="fill:url(#_Linear73);"/><path d="M1732.27,963.572l10.708,-19.2c0.875,-1.542 2.792,-2.096 4.333,-1.233c1.584,0.858 2.125,2.812 1.25,4.354l-10.708,19.2c-0.875,1.546 -2.833,2.1 -4.375,1.237c-1.542,-0.862 -2.083,-2.812 -1.208,-4.358Z" style="fill:url(#_Linear74);"/><path d="M1686.31,989.176c0.417,-0.712 1.084,-1.275 1.917,-1.521l21.167,-6c1.708,-0.483 3.458,0.505 3.958,2.205c0.459,1.704 -0.5,3.474 -2.208,3.958l-21.167,6c-1.666,0.479 -3.458,-0.508 -3.917,-2.209c-0.25,-0.845 -0.125,-1.716 0.25,-2.433Z" style="fill:url(#_Linear75);"/><path d="M1741.39,973.555c0.416,-0.716 1.083,-1.279 1.916,-1.525l20.125,-5.708c1.709,-0.487 3.501,0.5 3.959,2.204c0.5,1.7 -0.5,3.475 -2.209,3.954l-20.124,5.713c-1.709,0.483 -3.459,-0.504 -3.959,-2.209c-0.208,-0.845 -0.083,-1.716 0.292,-2.429Z" style="fill:url(#_Linear76);"/><path d="M1713.27,940.909c0.375,-0.72 1.042,-1.279 1.916,-1.525c1.709,-0.483 3.459,0.509 3.959,2.205l6,21.15c0.458,1.704 -0.5,3.475 -2.209,3.958c-1.708,0.479 -3.5,-0.508 -3.958,-2.208l-6,-21.15c-0.25,-0.846 -0.125,-1.717 0.292,-2.43Z" style="fill:url(#_Linear77);"/><path d="M1728.6,994.964c0.375,-0.721 1.083,-1.284 1.917,-1.525c1.708,-0.484 3.458,0.508 3.958,2.208l6,21.15c0.459,1.7 -0.5,3.471 -2.208,3.954c-1.709,0.479 -3.459,-0.508 -3.959,-2.204l-6,-21.154c-0.25,-0.85 -0.125,-1.717 0.292,-2.429Z" style="fill:url(#_Linear78);"/><path d="M199.681,699.655c-5.483,-2.562 -11.729,-3.646 -18.158,-2.795c-8.708,1.145 -16.45,5.612 -21.796,12.579c-5.346,6.966 -7.658,15.604 -6.512,24.308c2.362,17.975 18.917,30.671 36.891,28.304c8.704,-1.141 16.442,-5.612 21.788,-12.579c5.35,-6.967 7.658,-15.6 6.512,-24.308c-1.52,-11.542 -8.887,-20.909 -18.725,-25.509Zm-30.937,66.467c-12.109,-5.658 -21.175,-17.183 -23.042,-31.388c-1.412,-10.712 1.434,-21.333 8.013,-29.908c6.579,-8.575 16.104,-14.071 26.816,-15.483c22.113,-2.908 42.48,12.712 45.388,34.833c1.412,10.709 -1.433,21.333 -8.013,29.909c-6.575,8.57 -16.095,14.07 -26.812,15.483c-7.913,1.042 -15.604,-0.292 -22.35,-3.446Z" style="fill:url(#_Linear79);"/><path d="M58.161,800.435c-0.963,-0.455 -1.38,-1.592 -0.93,-2.559l5.317,-11.371c0.45,-0.962 1.592,-1.375 2.554,-0.929c0.963,0.45 1.379,1.596 0.929,2.559l-5.316,11.37c-0.45,0.963 -1.596,1.375 -2.554,0.93Z" style="fill:url(#_Linear80);"/><path d="M43.615,831.555c-0.963,-0.45 -1.38,-1.595 -0.929,-2.554l5.587,-11.954c0.45,-0.958 1.592,-1.375 2.554,-0.925c0.959,0.446 1.375,1.592 0.925,2.554l-5.583,11.95c-0.45,0.963 -1.596,1.375 -2.554,0.929Z" style="fill:url(#_Linear81);"/><path d="M74.79,820.239l-12.5,-5.846c-0.963,-0.45 -1.375,-1.592 -0.925,-2.554c0.445,-0.963 1.587,-1.375 2.55,-0.929l12.504,5.845c0.962,0.45 1.375,1.592 0.929,2.555c-0.45,0.962 -1.596,1.374 -2.558,0.929Z" style="fill:url(#_Linear82);"/><path d="M44.248,805.959l-11.95,-5.583c-0.962,-0.45 -1.379,-1.596 -0.929,-2.558c0.45,-0.958 1.596,-1.375 2.554,-0.925l11.95,5.587c0.962,0.446 1.375,1.592 0.929,2.55c-0.45,0.963 -1.591,1.379 -2.554,0.929Z" style="fill:url(#_Linear83);"/><path d="M61.544,832.351c-0.442,-0.208 -0.809,-0.587 -0.992,-1.083l-4.5,-12.4c-0.362,-1 0.15,-2.1 1.15,-2.463c0.996,-0.362 2.1,0.154 2.463,1.15l4.5,12.4c0.358,1 -0.154,2.1 -1.15,2.463c-0.5,0.179 -1.025,0.141 -1.471,-0.067Z" style="fill:url(#_Linear84);"/><path d="M49.827,800.06c-0.446,-0.209 -0.812,-0.588 -0.991,-1.084l-4.284,-11.8c-0.362,-1 0.15,-2.1 1.15,-2.462c0.996,-0.363 2.1,0.154 2.458,1.15l4.284,11.8c0.362,1 -0.15,2.1 -1.146,2.462c-0.5,0.184 -1.025,0.142 -1.471,-0.066Z" style="fill:url(#_Linear85);"/><path d="M31.498,818.31c-0.446,-0.209 -0.812,-0.588 -0.992,-1.088c-0.362,-0.996 0.15,-2.1 1.146,-2.463l12.4,-4.499c1,-0.363 2.104,0.154 2.467,1.154c0.358,0.995 -0.154,2.1 -1.154,2.458l-12.396,4.504c-0.5,0.175 -1.025,0.142 -1.471,-0.066Z" style="fill:url(#_Linear86);"/><path d="M63.19,806.805c-0.446,-0.212 -0.813,-0.587 -0.992,-1.087c-0.362,-0.996 0.15,-2.1 1.15,-2.458l12.4,-4.501c0.996,-0.362 2.1,0.151 2.463,1.146c0.358,1 -0.159,2.1 -1.15,2.463l-12.4,4.504c-0.5,0.179 -1.025,0.138 -1.471,-0.067Z" style="fill:url(#_Linear87);"/><text x="1229.38px" y="848.076px" style="font-family:'ArialMT', 'Arial', sans-serif;font-size:108.546px;fill:#fff;">Artifacts</text><text x="926.902px" y="708.494px" style="font-family:'Arial-BoldMT', 'Arial', sans-serif;font-weight:700;font-size:123.305px;fill:#fff;">Educational</text><defs><linearGradient id="_Linear1" x1="0" y1="0" x2="1" y2="0" gradientUnits="userSpaceOnUse" gradientTransform="matrix(-822.608,-2048.84,2048.84,-822.608,1247.31,2624.88)"><stop offset="0" style="stop-color:#4bbfb8;stop-opacity:1"/><stop offset="1" style="stop-color:#c1f0c8;stop-opacity:1"/></linearGradient><linearGradient id="_Linear2" x1="0" y1="0" x2="1" y2="0" gradientUnits="userSpaceOnUse" gradientTransform="matrix(-1252.08,177.058,-177.058,-1252.08,1819.35,1128.67)"><stop offset="0" style="stop-color:#4bbfb8;stop-opacity:1"/><stop offset="1" style="stop-color:#c1f0c8;stop-opacity:1"/></linearGradient><linearGradient id="_Linear3" x1="0" y1="0" x2="1" y2="0" gradientUnits="userSpaceOnUse" gradientTransform="matrix(-1252.08,177.058,-177.058,-1252.08,1818.14,1120.37)"><stop offset="0" style="stop-color:#4bbfb8;stop-opacity:1"/><stop offset="1" style="stop-color:#c1f0c8;stop-opacity:1"/></linearGradient><linearGradient id="_Linear4" x1="0" y1="0" x2="1" y2="0" gradientUnits="userSpaceOnUse" gradientTransform="matrix(-1252.08,177.058,-177.058,-1252.08,1817.01,1112.15)"><stop offset="0" style="stop-color:#4bbfb8;stop-opacity:1"/><stop offset="1" style="stop-color:#c1f0c8;stop-opacity:1"/></linearGradient><linearGradient id="_Linear5" x1="0" y1="0" x2="1" y2="0" gradientUnits="userSpaceOnUse" gradientTransform="matrix(-1252.08,177.058,-177.058,-1252.08,1815.85,1104.05)"><stop offset="0" style="stop-color:#4bbfb8;stop-opacity:1"/><stop offset="1" style="stop-color:#c1f0c8;stop-opacity:1"/></linearGradient><linearGradient id="_Linear6" x1="0" y1="0" x2="1" y2="0" gradientUnits="userSpaceOnUse" gradientTransform="matrix(-1252.08,177.058,-177.058,-1252.08,1814.72,1096.06)"><stop offset="0" style="stop-color:#4bbfb8;stop-opacity:1"/><stop offset="1" style="stop-color:#c1f0c8;stop-opacity:1"/></linearGradient><linearGradient id="_Linear7" x1="0" y1="0" x2="1" y2="0" gradientUnits="userSpaceOnUse" gradientTransform="matrix(-1252.08,177.058,-177.058,-1252.08,1813.64,1088.4)"><stop offset="0" style="stop-color:#4bbfb8;stop-opacity:1"/><stop offset="1" style="stop-color:#c1f0c8;stop-opacity:1"/></linearGradient><linearGradient id="_Linear8" x1="0" y1="0" x2="1" y2="0" gradientUnits="userSpaceOnUse" gradientTransform="matrix(-1252.08,177.058,-177.058,-1252.08,1812.6,1081.18)"><stop offset="0" style="stop-color:#4bbfb8;stop-opacity:1"/><stop offset="1" style="stop-color:#c1f0c8;stop-opacity:1"/></linearGradient><linearGradient id="_Linear9" x1="0" y1="0" x2="1" y2="0" gradientUnits="userSpaceOnUse" gradientTransform="matrix(-1252.08,177.058,-177.058,-1252.08,1811.64,1074.37)"><stop offset="0" style="stop-color:#4bbfb8;stop-opacity:1"/><stop offset="1" style="stop-color:#c1f0c8;stop-opacity:1"/></linearGradient><linearGradient id="_Linear10" x1="0" y1="0" x2="1" y2="0" gradientUnits="userSpaceOnUse" gradientTransform="matrix(-1252.08,177.058,-177.058,-1252.08,1810.72,1067.94)"><stop offset="0" style="stop-color:#4bbfb8;stop-opacity:1"/><stop offset="1" style="stop-color:#c1f0c8;stop-opacity:1"/></linearGradient><linearGradient id="_Linear11" x1="0" y1="0" x2="1" y2="0" gradientUnits="userSpaceOnUse" gradientTransform="matrix(-1252.08,177.058,-177.058,-1252.08,1809.89,1061.83)"><stop offset="0" style="stop-color:#4bbfb8;stop-opacity:1"/><stop offset="1" style="stop-color:#c1f0c8;stop-opacity:1"/></linearGradient><linearGradient id="_Linear12" x1="0" y1="0" x2="1" y2="0" gradientUnits="userSpaceOnUse" gradientTransform="matrix(-1252.08,177.058,-177.058,-1252.08,1809.06,1056.05)"><stop offset="0" style="stop-color:#4bbfb8;stop-opacity:1"/><stop offset="1" style="stop-color:#c1f0c8;stop-opacity:1"/></linearGradient><linearGradient id="_Linear13" x1="0" y1="0" x2="1" y2="0" gradientUnits="userSpaceOnUse" gradientTransform="matrix(-1252.08,177.058,-177.058,-1252.08,1808.31,1050.63)"><stop offset="0" style="stop-color:#4bbfb8;stop-opacity:1"/><stop offset="1" style="stop-color:#c1f0c8;stop-opacity:1"/></linearGradient><linearGradient id="_Linear14" x1="0" y1="0" x2="1" y2="0" gradientUnits="userSpaceOnUse" gradientTransform="matrix(-1252.08,177.058,-177.058,-1252.08,1807.6,1045.61)"><stop offset="0" style="stop-color:#4bbfb8;stop-opacity:1"/><stop offset="1" style="stop-color:#c1f0c8;stop-opacity:1"/></linearGradient><linearGradient id="_Linear15" x1="0" y1="0" x2="1" y2="0" gradientUnits="userSpaceOnUse" gradientTransform="matrix(-1252.08,177.058,-177.058,-1252.08,1806.93,1041.06)"><stop offset="0" style="stop-color:#4bbfb8;stop-opacity:1"/><stop offset="1" style="stop-color:#c1f0c8;stop-opacity:1"/></linearGradient><linearGradient id="_Linear16" x1="0" y1="0" x2="1" y2="0" gradientUnits="userSpaceOnUse" gradientTransform="matrix(-1252.08,177.058,-177.058,-1252.08,1806.39,1037.23)"><stop offset="0" style="stop-color:#4bbfb8;stop-opacity:1"/><stop offset="1" style="stop-color:#c1f0c8;stop-opacity:1"/></linearGradient><linearGradient id="_Linear17" x1="0" y1="0" x2="1" y2="0" gradientUnits="userSpaceOnUse" gradientTransform="matrix(-1252.08,177.058,-177.058,-1252.08,1806.06,1034.8)"><stop offset="0" style="stop-color:#4bbfb8;stop-opacity:1"/><stop offset="1" style="stop-color:#c1f0c8;stop-opacity:1"/></linearGradient><linearGradient id="_Linear18" x1="0" y1="0" x2="1" y2="0" gradientUnits="userSpaceOnUse" gradientTransform="matrix(-1252.08,177.058,-177.058,-1252.08,1806.1,1035.1)"><stop offset="0" style="stop-color:#4bbfb8;stop-opacity:1"/><stop offset="1" style="stop-color:#c1f0c8;stop-opacity:1"/></linearGradient><linearGradient id="_Linear19" x1="0" y1="0" x2="1" y2="0" gradientUnits="userSpaceOnUse" gradientTransform="matrix(-1252.08,177.058,-177.058,-1252.08,1806.76,1039.76)"><stop offset="0" style="stop-color:#4bbfb8;stop-opacity:1"/><stop offset="1" style="stop-color:#c1f0c8;stop-opacity:1"/></linearGradient><linearGradient id="_Linear20" x1="0" y1="0" x2="1" y2="0" gradientUnits="userSpaceOnUse" gradientTransform="matrix(-1252.08,177.058,-177.058,-1252.08,1807.56,1045.39)"><stop offset="0" style="stop-color:#4bbfb8;stop-opacity:1"/><stop offset="1" style="stop-color:#c1f0c8;stop-opacity:1"/></linearGradient><linearGradient id="_Linear21" x1="0" y1="0" x2="1" y2="0" gradientUnits="userSpaceOnUse" gradientTransform="matrix(-1252.08,177.058,-177.058,-1252.08,1808.22,1050.1)"><stop offset="0" style="stop-color:#4bbfb8;stop-opacity:1"/><stop offset="1" style="stop-color:#c1f0c8;stop-opacity:1"/></linearGradient><linearGradient id="_Linear22" x1="0" y1="0" x2="1" y2="0" gradientUnits="userSpaceOnUse" gradientTransform="matrix(-1252.08,177.058,-177.058,-1252.08,1808.51,1052.28)"><stop offset="0" style="stop-color:#4bbfb8;stop-opacity:1"/><stop offset="1" style="stop-color:#c1f0c8;stop-opacity:1"/></linearGradient><linearGradient id="_Linear23" x1="0" y1="0" x2="1" y2="0" gradientUnits="userSpaceOnUse" gradientTransform="matrix(-1252.08,177.058,-177.058,-1252.08,1808.14,1049.57)"><stop offset="0" style="stop-color:#4bbfb8;stop-opacity:1"/><stop offset="1" style="stop-color:#c1f0c8;stop-opacity:1"/></linearGradient><linearGradient id="_Linear24" x1="0" y1="0" x2="1" y2="0" gradientUnits="userSpaceOnUse" gradientTransform="matrix(-1252.08,177.058,-177.058,-1252.08,1806.22,1035.96)"><stop offset="0" style="stop-color:#4bbfb8;stop-opacity:1"/><stop offset="1" style="stop-color:#c1f0c8;stop-opacity:1"/></linearGradient><linearGradient id="_Linear25" x1="0" y1="0" x2="1" y2="0" gradientUnits="userSpaceOnUse" gradientTransform="matrix(-1252.08,177.058,-177.058,-1252.08,1801.31,1001.34)"><stop offset="0" style="stop-color:#4bbfb8;stop-opacity:1"/><stop offset="1" style="stop-color:#c1f0c8;stop-opacity:1"/></linearGradient><linearGradient id="_Linear26" x1="0" y1="0" x2="1" y2="0" gradientUnits="userSpaceOnUse" gradientTransform="matrix(-1252.08,177.058,-177.058,-1252.08,1797.56,974.643)"><stop offset="0" style="stop-color:#4bbfb8;stop-opacity:1"/><stop offset="1" style="stop-color:#c1f0c8;stop-opacity:1"/></linearGradient><linearGradient id="_Linear27" x1="0" y1="0" x2="1" y2="0" gradientUnits="userSpaceOnUse" gradientTransform="matrix(-1252.08,177.058,-177.058,-1252.08,1794.72,954.618)"><stop offset="0" style="stop-color:#4bbfb8;stop-opacity:1"/><stop offset="1" style="stop-color:#c1f0c8;stop-opacity:1"/></linearGradient><linearGradient id="_Linear28" x1="0" y1="0" x2="1" y2="0" gradientUnits="userSpaceOnUse" gradientTransform="matrix(-1252.08,177.058,-177.058,-1252.08,1792.31,937.676)"><stop offset="0" style="stop-color:#4bbfb8;stop-opacity:1"/><stop offset="1" style="stop-color:#c1f0c8;stop-opacity:1"/></linearGradient><linearGradient id="_Linear29" x1="0" y1="0" x2="1" y2="0" gradientUnits="userSpaceOnUse" gradientTransform="matrix(-1252.08,177.058,-177.058,-1252.08,1790.14,922.222)"><stop offset="0" style="stop-color:#4bbfb8;stop-opacity:1"/><stop offset="1" style="stop-color:#c1f0c8;stop-opacity:1"/></linearGradient><linearGradient id="_Linear30" x1="0" y1="0" x2="1" y2="0" gradientUnits="userSpaceOnUse" gradientTransform="matrix(-1252.08,177.058,-177.058,-1252.08,1788.06,907.385)"><stop offset="0" style="stop-color:#4bbfb8;stop-opacity:1"/><stop offset="1" style="stop-color:#c1f0c8;stop-opacity:1"/></linearGradient><linearGradient id="_Linear31" x1="0" y1="0" x2="1" y2="0" gradientUnits="userSpaceOnUse" gradientTransform="matrix(-1252.08,177.058,-177.058,-1252.08,1785.97,892.685)"><stop offset="0" style="stop-color:#4bbfb8;stop-opacity:1"/><stop offset="1" style="stop-color:#c1f0c8;stop-opacity:1"/></linearGradient><linearGradient id="_Linear32" x1="0" y1="0" x2="1" y2="0" gradientUnits="userSpaceOnUse" gradientTransform="matrix(-1252.08,177.058,-177.058,-1252.08,1783.93,878.289)"><stop offset="0" style="stop-color:#4bbfb8;stop-opacity:1"/><stop offset="1" style="stop-color:#c1f0c8;stop-opacity:1"/></linearGradient><linearGradient id="_Linear33" x1="0" y1="0" x2="1" y2="0" gradientUnits="userSpaceOnUse" gradientTransform="matrix(-1252.08,177.058,-177.058,-1252.08,1781.81,863.364)"><stop offset="0" style="stop-color:#4bbfb8;stop-opacity:1"/><stop offset="1" style="stop-color:#c1f0c8;stop-opacity:1"/></linearGradient><linearGradient id="_Linear34" x1="0" y1="0" x2="1" y2="0" gradientUnits="userSpaceOnUse" gradientTransform="matrix(-1252.08,177.058,-177.058,-1252.08,1779.6,847.764)"><stop offset="0" style="stop-color:#4bbfb8;stop-opacity:1"/><stop offset="1" style="stop-color:#c1f0c8;stop-opacity:1"/></linearGradient><linearGradient id="_Linear35" x1="0" y1="0" x2="1" y2="0" gradientUnits="userSpaceOnUse" gradientTransform="matrix(-1252.08,177.058,-177.058,-1252.08,1777.31,831.505)"><stop offset="0" style="stop-color:#4bbfb8;stop-opacity:1"/><stop offset="1" style="stop-color:#c1f0c8;stop-opacity:1"/></linearGradient><linearGradient id="_Linear36" x1="0" y1="0" x2="1" y2="0" gradientUnits="userSpaceOnUse" gradientTransform="matrix(-1252.08,177.058,-177.058,-1252.08,1774.89,814.476)"><stop offset="0" style="stop-color:#4bbfb8;stop-opacity:1"/><stop offset="1" style="stop-color:#c1f0c8;stop-opacity:1"/></linearGradient><linearGradient id="_Linear37" x1="0" y1="0" x2="1" y2="0" gradientUnits="userSpaceOnUse" gradientTransform="matrix(-1252.08,177.058,-177.058,-1252.08,1772.39,796.701)"><stop offset="0" style="stop-color:#4bbfb8;stop-opacity:1"/><stop offset="1" style="stop-color:#c1f0c8;stop-opacity:1"/></linearGradient><linearGradient id="_Linear38" x1="0" y1="0" x2="1" y2="0" gradientUnits="userSpaceOnUse" gradientTransform="matrix(-1252.08,177.058,-177.058,-1252.08,1769.76,778.155)"><stop offset="0" style="stop-color:#4bbfb8;stop-opacity:1"/><stop offset="1" style="stop-color:#c1f0c8;stop-opacity:1"/></linearGradient><linearGradient id="_Linear39" x1="0" y1="0" x2="1" y2="0" gradientUnits="userSpaceOnUse" gradientTransform="matrix(-1252.08,177.058,-177.058,-1252.08,1767.01,758.847)"><stop offset="0" style="stop-color:#4bbfb8;stop-opacity:1"/><stop offset="1" style="stop-color:#c1f0c8;stop-opacity:1"/></linearGradient><linearGradient id="_Linear40" x1="0" y1="0" x2="1" y2="0" gradientUnits="userSpaceOnUse" gradientTransform="matrix(-1252.08,177.058,-177.058,-1252.08,1764.18,738.789)"><stop offset="0" style="stop-color:#4bbfb8;stop-opacity:1"/><stop offset="1" style="stop-color:#c1f0c8;stop-opacity:1"/></linearGradient><linearGradient id="_Linear41" x1="0" y1="0" x2="1" y2="0" gradientUnits="userSpaceOnUse" gradientTransform="matrix(-1252.08,177.058,-177.058,-1252.08,1761.26,717.997)"><stop offset="0" style="stop-color:#4bbfb8;stop-opacity:1"/><stop offset="1" style="stop-color:#c1f0c8;stop-opacity:1"/></linearGradient><linearGradient id="_Linear42" x1="0" y1="0" x2="1" y2="0" gradientUnits="userSpaceOnUse" gradientTransform="matrix(-1252.08,177.058,-177.058,-1252.08,1758.22,696.464)"><stop offset="0" style="stop-color:#4bbfb8;stop-opacity:1"/><stop offset="1" style="stop-color:#c1f0c8;stop-opacity:1"/></linearGradient><linearGradient id="_Linear43" x1="0" y1="0" x2="1" y2="0" gradientUnits="userSpaceOnUse" gradientTransform="matrix(-1252.08,177.058,-177.058,-1252.08,1755.06,674.18)"><stop offset="0" style="stop-color:#4bbfb8;stop-opacity:1"/><stop offset="1" style="stop-color:#c1f0c8;stop-opacity:1"/></linearGradient><linearGradient id="_Linear44" x1="0" y1="0" x2="1" y2="0" gradientUnits="userSpaceOnUse" gradientTransform="matrix(-1252.08,177.058,-177.058,-1252.08,1751.85,651.46)"><stop offset="0" style="stop-color:#4bbfb8;stop-opacity:1"/><stop offset="1" style="stop-color:#c1f0c8;stop-opacity:1"/></linearGradient><linearGradient id="_Linear45" x1="0" y1="0" x2="1" y2="0" gradientUnits="userSpaceOnUse" gradientTransform="matrix(-1252.08,177.058,-177.058,-1252.08,1748.72,629.297)"><stop offset="0" style="stop-color:#4bbfb8;stop-opacity:1"/><stop offset="1" style="stop-color:#c1f0c8;stop-opacity:1"/></linearGradient><linearGradient id="_Linear46" x1="0" y1="0" x2="1" y2="0" gradientUnits="userSpaceOnUse" gradientTransform="matrix(-1252.08,177.058,-177.058,-1252.08,1745.72,608.085)"><stop offset="0" style="stop-color:#4bbfb8;stop-opacity:1"/><stop offset="1" style="stop-color:#c1f0c8;stop-opacity:1"/></linearGradient><linearGradient id="_Linear47" x1="0" y1="0" x2="1" y2="0" gradientUnits="userSpaceOnUse" gradientTransform="matrix(-1252.08,177.058,-177.058,-1252.08,1742.68,586.576)"><stop offset="0" style="stop-color:#4bbfb8;stop-opacity:1"/><stop offset="1" style="stop-color:#c1f0c8;stop-opacity:1"/></linearGradient><linearGradient id="_Linear48" x1="0" y1="0" x2="1" y2="0" gradientUnits="userSpaceOnUse" gradientTransform="matrix(-1252.08,177.058,-177.058,-1252.08,1739.6,564.785)"><stop offset="0" style="stop-color:#4bbfb8;stop-opacity:1"/><stop offset="1" style="stop-color:#c1f0c8;stop-opacity:1"/></linearGradient><linearGradient id="_Linear49" x1="0" y1="0" x2="1" y2="0" gradientUnits="userSpaceOnUse" gradientTransform="matrix(-1252.08,177.058,-177.058,-1252.08,1736.39,542.135)"><stop offset="0" style="stop-color:#4bbfb8;stop-opacity:1"/><stop offset="1" style="stop-color:#c1f0c8;stop-opacity:1"/></linearGradient><linearGradient id="_Linear50" x1="0" y1="0" x2="1" y2="0" gradientUnits="userSpaceOnUse" gradientTransform="matrix(-1252.08,177.058,-177.058,-1252.08,1732.89,517.51)"><stop offset="0" style="stop-color:#4bbfb8;stop-opacity:1"/><stop offset="1" style="stop-color:#c1f0c8;stop-opacity:1"/></linearGradient><linearGradient id="_Linear51" x1="0" y1="0" x2="1" y2="0" gradientUnits="userSpaceOnUse" gradientTransform="matrix(-1252.08,177.058,-177.058,-1252.08,1728.72,487.91)"><stop offset="0" style="stop-color:#4bbfb8;stop-opacity:1"/><stop offset="1" style="stop-color:#c1f0c8;stop-opacity:1"/></linearGradient><linearGradient id="_Linear52" x1="0" y1="0" x2="1" y2="0" gradientUnits="userSpaceOnUse" gradientTransform="matrix(-1252.08,177.058,-177.058,-1252.08,1718.72,417.318)"><stop offset="0" style="stop-color:#4bbfb8;stop-opacity:1"/><stop offset="1" style="stop-color:#c1f0c8;stop-opacity:1"/></linearGradient><linearGradient id="_Linear53" x1="0" y1="0" x2="1" y2="0" gradientUnits="userSpaceOnUse" gradientTransform="matrix(-1252.08,177.058,-177.058,-1252.08,1709.93,355.039)"><stop offset="0" style="stop-color:#4bbfb8;stop-opacity:1"/><stop offset="1" style="stop-color:#c1f0c8;stop-opacity:1"/></linearGradient><linearGradient id="_Linear54" x1="0" y1="0" x2="1" y2="0" gradientUnits="userSpaceOnUse" gradientTransform="matrix(-1252.08,177.058,-177.058,-1252.08,1704.85,319.005)"><stop offset="0" style="stop-color:#4bbfb8;stop-opacity:1"/><stop offset="1" style="stop-color:#c1f0c8;stop-opacity:1"/></linearGradient><linearGradient id="_Linear55" x1="0" y1="0" x2="1" y2="0" gradientUnits="userSpaceOnUse" gradientTransform="matrix(-1252.08,177.058,-177.058,-1252.08,1700.6,289.135)"><stop offset="0" style="stop-color:#4bbfb8;stop-opacity:1"/><stop offset="1" style="stop-color:#c1f0c8;stop-opacity:1"/></linearGradient><linearGradient id="_Linear56" x1="0" y1="0" x2="1" y2="0" gradientUnits="userSpaceOnUse" gradientTransform="matrix(-1252.08,177.058,-177.058,-1252.08,1696.81,262.239)"><stop offset="0" style="stop-color:#4bbfb8;stop-opacity:1"/><stop offset="1" style="stop-color:#c1f0c8;stop-opacity:1"/></linearGradient><linearGradient id="_Linear57" x1="0" y1="0" x2="1" y2="0" gradientUnits="userSpaceOnUse" gradientTransform="matrix(-1252.08,177.058,-177.058,-1252.08,1693.26,237.326)"><stop offset="0" style="stop-color:#4bbfb8;stop-opacity:1"/><stop offset="1" style="stop-color:#c1f0c8;stop-opacity:1"/></linearGradient><linearGradient id="_Linear58" x1="0" y1="0" x2="1" y2="0" gradientUnits="userSpaceOnUse" gradientTransform="matrix(-1252.08,177.058,-177.058,-1252.08,1689.97,213.78)"><stop offset="0" style="stop-color:#4bbfb8;stop-opacity:1"/><stop offset="1" style="stop-color:#c1f0c8;stop-opacity:1"/></linearGradient><linearGradient id="_Linear59" x1="0" y1="0" x2="1" y2="0" gradientUnits="userSpaceOnUse" gradientTransform="matrix(-1252.25,177.081,-177.081,-1252.25,1686.76,191.143)"><stop offset="0" style="stop-color:#4bbfb8;stop-opacity:1"/><stop offset="1" style="stop-color:#c1f0c8;stop-opacity:1"/></linearGradient><linearGradient id="_Linear60" x1="0" y1="0" x2="1" y2="0" gradientUnits="userSpaceOnUse" gradientTransform="matrix(-1252.08,177.058,-177.058,-1252.08,1683.6,168.889)"><stop offset="0" style="stop-color:#4bbfb8;stop-opacity:1"/><stop offset="1" style="stop-color:#c1f0c8;stop-opacity:1"/></linearGradient><linearGradient id="_Linear61" x1="0" y1="0" x2="1" y2="0" gradientUnits="userSpaceOnUse" gradientTransform="matrix(-1252.08,177.058,-177.058,-1252.08,1680.47,146.66)"><stop offset="0" style="stop-color:#4bbfb8;stop-opacity:1"/><stop offset="1" style="stop-color:#c1f0c8;stop-opacity:1"/></linearGradient><linearGradient id="_Linear62" x1="0" y1="0" x2="1" y2="0" gradientUnits="userSpaceOnUse" gradientTransform="matrix(-1252.08,177.058,-177.058,-1252.08,1677.31,124.414)"><stop offset="0" style="stop-color:#4bbfb8;stop-opacity:1"/><stop offset="1" style="stop-color:#c1f0c8;stop-opacity:1"/></linearGradient><linearGradient id="_Linear63" x1="0" y1="0" x2="1" y2="0" gradientUnits="userSpaceOnUse" gradientTransform="matrix(-1252.08,177.058,-177.058,-1252.08,1674.18,102.214)"><stop offset="0" style="stop-color:#4bbfb8;stop-opacity:1"/><stop offset="1" style="stop-color:#c1f0c8;stop-opacity:1"/></linearGradient><linearGradient id="_Linear64" x1="0" y1="0" x2="1" y2="0" gradientUnits="userSpaceOnUse" gradientTransform="matrix(-1252.08,177.058,-177.058,-1252.08,1671.01,79.9553)"><stop offset="0" style="stop-color:#4bbfb8;stop-opacity:1"/><stop offset="1" style="stop-color:#c1f0c8;stop-opacity:1"/></linearGradient><linearGradient id="_Linear65" x1="0" y1="0" x2="1" y2="0" gradientUnits="userSpaceOnUse" gradientTransform="matrix(-744.321,-3521.52,3521.52,-744.321,1331.81,1915.57)"><stop offset="0" style="stop-color:#4bbfb8;stop-opacity:1"/><stop offset="1" style="stop-color:#c1f0c8;stop-opacity:1"/></linearGradient><linearGradient id="_Linear66" x1="0" y1="0" x2="1" y2="0" gradientUnits="userSpaceOnUse" gradientTransform="matrix(-1470.12,-2000.58,2000.58,-1470.12,1204.27,3030.19)"><stop offset="0" style="stop-color:#4bbfb8;stop-opacity:1"/><stop offset="1" style="stop-color:#c1f0c8;stop-opacity:1"/></linearGradient><linearGradient id="_Linear67" x1="0" y1="0" x2="1" y2="0" gradientUnits="userSpaceOnUse" gradientTransform="matrix(-1470.12,-2000.58,2000.58,-1470.12,2607.01,2014.67)"><stop offset="0" style="stop-color:#4bbfb8;stop-opacity:1"/><stop offset="1" style="stop-color:#c1f0c8;stop-opacity:1"/></linearGradient><linearGradient id="_Linear68" x1="0" y1="0" x2="1" y2="0" gradientUnits="userSpaceOnUse" gradientTransform="matrix(-1470.12,-2000.58,2000.58,-1470.12,2756.85,1904.56)"><stop offset="0" style="stop-color:#4bbfb8;stop-opacity:1"/><stop offset="1" style="stop-color:#c1f0c8;stop-opacity:1"/></linearGradient><linearGradient id="_Linear69" x1="0" y1="0" x2="1" y2="0" gradientUnits="userSpaceOnUse" gradientTransform="matrix(277.789,236.742,-236.742,277.789,2187.64,2249.48)"><stop offset="0" style="stop-color:#4bbfb8;stop-opacity:1"/><stop offset="1" style="stop-color:#c1f0c8;stop-opacity:1"/></linearGradient><linearGradient id="_Linear70" x1="0" y1="0" x2="1" y2="0" gradientUnits="userSpaceOnUse" gradientTransform="matrix(277.789,236.742,-236.742,277.789,2293.72,2145.02)"><stop offset="0" style="stop-color:#4bbfb8;stop-opacity:1"/><stop offset="1" style="stop-color:#c1f0c8;stop-opacity:1"/></linearGradient><linearGradient id="_Linear71" x1="0" y1="0" x2="1" y2="0" gradientUnits="userSpaceOnUse" gradientTransform="matrix(277.789,236.742,-236.742,277.789,2608.06,1723.82)"><stop offset="0" style="stop-color:#4bbfb8;stop-opacity:1"/><stop offset="1" style="stop-color:#c1f0c8;stop-opacity:1"/></linearGradient><linearGradient id="_Linear72" x1="0" y1="0" x2="1" y2="0" gradientUnits="userSpaceOnUse" gradientTransform="matrix(277.789,236.742,-236.742,277.789,2600.85,1732.26)"><stop offset="0" style="stop-color:#4bbfb8;stop-opacity:1"/><stop offset="1" style="stop-color:#c1f0c8;stop-opacity:1"/></linearGradient><linearGradient id="_Linear73" x1="0" y1="0" x2="1" y2="0" gradientUnits="userSpaceOnUse" gradientTransform="matrix(277.789,236.742,-236.742,277.789,2586.89,1748.67)"><stop offset="0" style="stop-color:#4bbfb8;stop-opacity:1"/><stop offset="1" style="stop-color:#c1f0c8;stop-opacity:1"/></linearGradient><linearGradient id="_Linear74" x1="0" y1="0" x2="1" y2="0" gradientUnits="userSpaceOnUse" gradientTransform="matrix(277.789,236.742,-236.742,277.789,2622.31,1707.11)"><stop offset="0" style="stop-color:#4bbfb8;stop-opacity:1"/><stop offset="1" style="stop-color:#c1f0c8;stop-opacity:1"/></linearGradient><linearGradient id="_Linear75" x1="0" y1="0" x2="1" y2="0" gradientUnits="userSpaceOnUse" gradientTransform="matrix(277.789,236.742,-236.742,277.789,2589.26,1745.86)"><stop offset="0" style="stop-color:#4bbfb8;stop-opacity:1"/><stop offset="1" style="stop-color:#c1f0c8;stop-opacity:1"/></linearGradient><linearGradient id="_Linear76" x1="0" y1="0" x2="1" y2="0" gradientUnits="userSpaceOnUse" gradientTransform="matrix(277.789,236.742,-236.742,277.789,2619.85,1709.96)"><stop offset="0" style="stop-color:#4bbfb8;stop-opacity:1"/><stop offset="1" style="stop-color:#c1f0c8;stop-opacity:1"/></linearGradient><linearGradient id="_Linear77" x1="0" y1="0" x2="1" y2="0" gradientUnits="userSpaceOnUse" gradientTransform="matrix(277.789,236.742,-236.742,277.789,2614.56,1716.21)"><stop offset="0" style="stop-color:#4bbfb8;stop-opacity:1"/><stop offset="1" style="stop-color:#c1f0c8;stop-opacity:1"/></linearGradient><linearGradient id="_Linear78" x1="0" y1="0" x2="1" y2="0" gradientUnits="userSpaceOnUse" gradientTransform="matrix(277.789,236.742,-236.742,277.789,2594.31,1739.95)"><stop offset="0" style="stop-color:#4bbfb8;stop-opacity:1"/><stop offset="1" style="stop-color:#c1f0c8;stop-opacity:1"/></linearGradient><linearGradient id="_Linear79" x1="0" y1="0" x2="1" y2="0" gradientUnits="userSpaceOnUse" gradientTransform="matrix(-181.472,316.673,-316.673,-181.472,-395.185,1743.3)"><stop offset="0" style="stop-color:#4bbfb8;stop-opacity:1"/><stop offset="1" style="stop-color:#c1f0c8;stop-opacity:1"/></linearGradient><linearGradient id="_Linear80" x1="0" y1="0" x2="1" y2="0" gradientUnits="userSpaceOnUse" gradientTransform="matrix(-181.472,316.673,-316.673,-181.472,-461.248,1705.44)"><stop offset="0" style="stop-color:#4bbfb8;stop-opacity:1"/><stop offset="1" style="stop-color:#c1f0c8;stop-opacity:1"/></linearGradient><linearGradient id="_Linear81" x1="0" y1="0" x2="1" y2="0" gradientUnits="userSpaceOnUse" gradientTransform="matrix(-181.472,316.673,-316.673,-181.472,-458.798,1706.85)"><stop offset="0" style="stop-color:#4bbfb8;stop-opacity:1"/><stop offset="1" style="stop-color:#c1f0c8;stop-opacity:1"/></linearGradient><linearGradient id="_Linear82" x1="0" y1="0" x2="1" y2="0" gradientUnits="userSpaceOnUse" gradientTransform="matrix(-181.472,316.673,-316.673,-181.472,-445.702,1714.35)"><stop offset="0" style="stop-color:#4bbfb8;stop-opacity:1"/><stop offset="1" style="stop-color:#c1f0c8;stop-opacity:1"/></linearGradient><linearGradient id="_Linear83" x1="0" y1="0" x2="1" y2="0" gradientUnits="userSpaceOnUse" gradientTransform="matrix(-181.472,316.673,-316.673,-181.472,-474.589,1697.8)"><stop offset="0" style="stop-color:#4bbfb8;stop-opacity:1"/><stop offset="1" style="stop-color:#c1f0c8;stop-opacity:1"/></linearGradient><linearGradient id="_Linear84" x1="0" y1="0" x2="1" y2="0" gradientUnits="userSpaceOnUse" gradientTransform="matrix(-181.472,316.673,-316.673,-181.472,-448.848,1712.55)"><stop offset="0" style="stop-color:#4bbfb8;stop-opacity:1"/><stop offset="1" style="stop-color:#c1f0c8;stop-opacity:1"/></linearGradient><linearGradient id="_Linear85" x1="0" y1="0" x2="1" y2="0" gradientUnits="userSpaceOnUse" gradientTransform="matrix(-181.472,316.673,-316.673,-181.472,-471.389,1699.63)"><stop offset="0" style="stop-color:#4bbfb8;stop-opacity:1"/><stop offset="1" style="stop-color:#c1f0c8;stop-opacity:1"/></linearGradient><linearGradient id="_Linear86" x1="0" y1="0" x2="1" y2="0" gradientUnits="userSpaceOnUse" gradientTransform="matrix(-181.472,316.673,-316.673,-181.472,-469.46,1700.74)"><stop offset="0" style="stop-color:#4bbfb8;stop-opacity:1"/><stop offset="1" style="stop-color:#c1f0c8;stop-opacity:1"/></linearGradient><linearGradient id="_Linear87" x1="0" y1="0" x2="1" y2="0" gradientUnits="userSpaceOnUse" gradientTransform="matrix(-181.472,316.673,-316.673,-181.472,-450.564,1711.56)"><stop offset="0" style="stop-color:#4bbfb8;stop-opacity:1"/><stop offset="1" style="stop-color:#c1f0c8;stop-opacity:1"/></linearGradient></defs></svg>