<?xml version="1.0" encoding="UTF-8" standalone="no"?><!DOCTYPE svg PUBLIC "-//W3C//DTD SVG 1.1//EN" "http://www.w3.org/Graphics/SVG/1.1/DTD/svg11.dtd"><svg width="100%" height="100%" viewBox="0 0 6570 5454" version="1.1" xmlns="http://www.w3.org/2000/svg" xmlns:xlink="http://www.w3.org/1999/xlink" xml:space="preserve" xmlns:serif="http://www.serif.com/" style="fill-rule:evenodd;clip-rule:evenodd;stroke-linejoin:round;stroke-miterlimit:2;"><rect x="1809.18" y="2349.82" width="462.5" height="462.5" style="fill:#709fd4;fill-rule:nonzero;"/><rect x="2659.17" y="2349.82" width="466.667" height="462.5" style="fill:#709fd4;fill-rule:nonzero;"/><rect x="3513.34" y="2349.82" width="466.667" height="462.5" style="fill:#709fd4;fill-rule:nonzero;"/><rect x="4367.5" y="2349.82" width="466.667" height="462.5" style="fill:#709fd4;fill-rule:nonzero;"/><path d="M1838.35,2783.15l404.167,0l-0,-404.166l-404.167,-0l-0,404.166Zm462.5,29.167c-0,16.125 -13.058,29.167 -29.167,29.167l-462.5,-0c-16.108,-0 -29.166,-13.042 -29.166,-29.167l-0,-462.5c-0,-16.108 13.058,-29.167 29.166,-29.167l462.5,0c16.109,0 29.167,13.059 29.167,29.167l-0,462.5Z" style="fill:#1c243a;fill-rule:nonzero;"/><path d="M2688.34,2783.15l408.333,0l-0,-404.166l-408.333,-0l-0,404.166Zm466.666,29.167c0,16.125 -13.041,29.167 -29.166,29.167l-466.667,-0c-16.083,-0 -29.167,-13.042 -29.167,-29.167l0,-462.5c0,-16.108 13.084,-29.167 29.167,-29.167l466.667,0c16.125,0 29.166,13.059 29.166,29.167l0,462.5Z" style="fill:#1c243a;fill-rule:nonzero;"/><path d="M3542.5,2783.15l408.334,0l-0,-404.166l-408.334,-0l0,404.166Zm466.667,29.167c-0,16.125 -13.042,29.167 -29.167,29.167l-466.666,-0c-16.084,-0 -29.167,-13.042 -29.167,-29.167l-0,-462.5c-0,-16.108 13.083,-29.167 29.167,-29.167l466.666,0c16.125,0 29.167,13.059 29.167,29.167l-0,462.5Z" style="fill:#1c243a;fill-rule:nonzero;"/><path d="M4396.67,2783.15l408.333,0l0,-404.166l-408.333,-0l-0,404.166Zm466.667,29.167c-0,16.125 -13.042,29.167 -29.167,29.167l-466.667,-0c-16.083,-0 -29.166,-13.042 -29.166,-29.167l-0,-462.5c-0,-16.108 13.083,-29.167 29.166,-29.167l466.667,0c16.125,0 29.167,13.059 29.167,29.167l-0,462.5Z" style="fill:#1c243a;fill-rule:nonzero;"/><rect x="1809.18" y="1474.82" width="3024.99" height="608.333" style="fill:#5d5588;fill-rule:nonzero;"/><rect x="6039.63" y="2189.17" width="317.875" height="872.066" style="fill:#aca58b;fill-rule:nonzero;"/><rect x="6131.34" y="29.167" width="149.167" height="165.533" style="fill:#6fc05e;fill-rule:nonzero;"/><path d="M5246.67,4345.65l-3849.99,0c-16.108,0 -29.166,-13.041 -29.166,-29.166c-0,-16.126 13.058,-29.167 29.166,-29.167l3849.99,-0c16.125,-0 29.167,13.041 29.167,29.167c-0,16.125 -13.042,29.166 -29.167,29.166Z" style="fill:#1c243a;fill-rule:nonzero;"/><path d="M2875.84,5437.32c-16.084,-0 -29.167,-13.041 -29.167,-29.167l-0,-725c-0,-16.125 13.083,-29.166 29.167,-29.166c16.125,-0 29.166,13.041 29.166,29.166l0,725c0,16.126 -13.041,29.167 -29.166,29.167Z" style="fill:#1c243a;fill-rule:nonzero;"/><path d="M3767.5,5437.32c-16.083,-0 -29.166,-13.041 -29.166,-29.167l-0,-725c-0,-16.125 13.083,-29.166 29.166,-29.166c16.125,-0 29.167,13.041 29.167,29.166l-0,725c-0,16.126 -13.042,29.167 -29.167,29.167Z" style="fill:#1c243a;fill-rule:nonzero;"/><path d="M4159.17,5453.98l-1670.83,-0c-16.108,-0 -29.167,-13.042 -29.167,-29.167c0,-16.126 13.059,-29.167 29.167,-29.167l1670.83,0c16.125,0 29.167,13.041 29.167,29.167c-0,16.125 -13.042,29.167 -29.167,29.167Z" style="fill:#1c243a;fill-rule:nonzero;"/><path d="M3318.84,4461.44c-16.874,0 -30.583,13.709 -30.583,30.583c0,16.875 13.709,30.583 30.583,30.583c16.834,0 30.542,-13.708 30.542,-30.583c0,-16.874 -13.708,-30.583 -30.542,-30.583Zm0,119.5c-49.041,-0 -88.916,-39.876 -88.916,-88.917c-0,-49.041 39.875,-88.916 88.916,-88.916c49,-0 88.876,39.875 88.876,88.916c-0,49.041 -39.876,88.917 -88.876,88.917Z" style="fill:#1c243a;fill-rule:nonzero;"/><path d="M5093.84,4700.57l-3547.72,-0c-99.721,-0 -180.85,-81.125 -180.85,-180.833l-0,-2141.04c-0,-99.708 81.129,-180.837 180.85,-180.837l106.841,-0c16.109,-0 29.167,13.058 29.167,29.166c-0,16.113 -13.058,29.167 -29.167,29.167l-106.841,-0c-67.554,-0 -122.517,54.962 -122.517,122.504l0,2141.04c0,67.541 54.963,122.499 122.517,122.499l3547.72,0c67.542,0 122.5,-54.958 122.5,-122.499l0,-2141.04c0,-67.542 -54.958,-122.504 -122.5,-122.504l-115.874,-0c-16.125,-0 -29.167,-13.054 -29.167,-29.167c-0,-16.108 13.042,-29.166 29.167,-29.166l115.874,-0c99.709,-0 180.834,81.129 180.834,180.837l-0,2141.04c-0,99.708 -81.125,180.833 -180.834,180.833Z" style="fill:#1c243a;fill-rule:nonzero;"/><path d="M2446.68,445.65c-16.108,0 -29.166,-13.058 -29.166,-29.166l-0,-187.5c-0,-16.109 13.058,-29.167 29.166,-29.167c16.109,-0 29.167,13.058 29.167,29.167l-0,187.5c-0,16.108 -13.058,29.166 -29.167,29.166Z" style="fill:#1c243a;fill-rule:nonzero;"/><path d="M2542.51,353.984l-187.5,-0c-16.109,-0 -29.167,-13.059 -29.167,-29.167c-0,-16.108 13.058,-29.167 29.167,-29.167l187.5,0c16.108,0 29.166,13.059 29.166,29.167c0,16.108 -13.058,29.167 -29.166,29.167Z" style="fill:#1c243a;fill-rule:nonzero;"/><path d="M709.179,4345.65c-16.108,0 -29.166,-13.041 -29.166,-29.166l-0,-187.5c-0,-16.126 13.058,-29.167 29.166,-29.167c16.109,-0 29.167,13.041 29.167,29.167l-0,187.5c-0,16.125 -13.058,29.166 -29.167,29.166Z" style="fill:#1c243a;fill-rule:nonzero;"/><path d="M805.013,4253.98l-187.5,-0c-16.109,-0 -29.167,-13.042 -29.167,-29.167c-0,-16.126 13.058,-29.167 29.167,-29.167l187.5,0c16.108,0 29.166,13.041 29.166,29.167c0,16.125 -13.058,29.167 -29.166,29.167Z" style="fill:#1c243a;fill-rule:nonzero;"/><path d="M5584.17,1903.98c-16.083,-0 -29.167,-13.059 -29.167,-29.167l0,-187.5c0,-16.108 13.084,-29.167 29.167,-29.167c16.125,0 29.167,13.059 29.167,29.167l-0,187.5c-0,16.108 -13.042,29.167 -29.167,29.167Z" style="fill:#1c243a;fill-rule:nonzero;"/><path d="M5680,1812.32l-187.5,-0c-16.083,-0 -29.166,-13.059 -29.166,-29.167c-0,-16.108 13.083,-29.166 29.166,-29.166l187.5,-0c16.125,-0 29.167,13.058 29.167,29.166c-0,16.108 -13.042,29.167 -29.167,29.167Z" style="fill:#1c243a;fill-rule:nonzero;"/><path d="M5433.25,189.567c0,-23 18.625,-41.667 41.667,-41.667c23,0 41.667,18.667 41.667,41.667c-0,23.042 -18.667,41.667 -41.667,41.667c-23.042,-0 -41.667,-18.625 -41.667,-41.667Zm141.417,80.459c-16.958,-15.542 -18.083,-41.917 -2.542,-58.876c15.542,-16.959 41.875,-18.084 58.875,-2.541c16.958,15.542 18.083,41.874 2.542,58.875c-8.208,8.957 -19.458,13.499 -30.709,13.499c-10.083,0 -20.166,-3.624 -28.166,-10.957Zm-263.792,5.499c-16.375,-16.166 -16.542,-42.542 -0.375,-58.916c16.167,-16.375 42.542,-16.542 58.917,-0.376c16.375,16.168 16.542,42.584 0.375,58.959c-8.167,8.25 -18.917,12.375 -29.667,12.375c-10.583,0 -21.125,-4 -29.25,-12.042Zm311.667,97.271c-0.875,-22.999 17.083,-42.033 40.083,-42.866c23,-0.834 42.334,16.633 43.167,39.633c0.875,23 -17.084,42.754 -40.084,42.754l-1.541,-0c-22.334,-0 -40.792,-17.062 -41.625,-39.521Zm-378.709,9.959c-0.249,-23.001 18.167,-42.325 41.167,-42.617c23,-0.288 41.875,18.8 42.167,41.841c0.292,23 -18.125,42.838 -41.125,42.838l-0.542,-0c-22.75,-0 -41.375,-19.229 -41.667,-42.062Zm340.584,156.27c-16.75,-15.75 -17.584,-42.125 -1.833,-58.916c15.75,-16.75 42.124,-17.584 58.916,-1.833c16.75,15.791 17.583,42.124 1.833,58.916c-8.208,8.708 -19.291,13.125 -30.374,13.125c-10.251,0 -20.5,-3.75 -28.542,-11.292Zm-269.833,6.375c-16.542,-15.958 -17.042,-42.333 -1.084,-58.916c15.959,-16.542 42.333,-17.042 58.917,-1.084c16.583,15.959 17.083,42.333 1.125,58.917c-8.209,8.5 -19.125,12.75 -30.042,12.75c-10.416,-0 -20.833,-3.875 -28.916,-11.667Zm123.416,23.042c-0.583,-23 17.625,-41.667 40.625,-42.208c23,-0.584 42.125,16.895 42.667,39.937c0.583,23 -17.625,41.979 -40.625,41.979l-1.042,0c-22.541,0 -41.083,-17.084 -41.625,-39.708Z" style="fill:#1c243a;fill-rule:nonzero;"/><path d="M204.083,4960.4c0,-23 18.625,-41.666 41.667,-41.666c23,-0 41.667,18.666 41.667,41.666c-0,23.042 -18.667,41.667 -41.667,41.667c-23.042,0 -41.667,-18.625 -41.667,-41.667Zm141.417,80.459c-16.958,-15.542 -18.083,-41.917 -2.542,-58.876c15.542,-16.958 41.875,-18.083 58.875,-2.541c16.959,15.542 18.084,41.875 2.542,58.875c-8.208,8.958 -19.458,13.5 -30.708,13.5c-10.084,-0 -20.167,-3.625 -28.167,-10.958Zm-263.792,5.499c-16.375,-16.166 -16.541,-42.541 -0.375,-58.916c16.167,-16.375 42.542,-16.542 58.917,-0.375c16.375,16.167 16.542,42.583 0.375,58.959c-8.167,8.25 -18.917,12.374 -29.667,12.374c-10.583,0 -21.166,-3.999 -29.25,-12.042Zm311.667,97.251c-0.875,-23 17.083,-42.001 40.083,-42.834c23,-0.833 42.334,16.625 43.167,39.625c0.875,23 -17.083,42.75 -40.083,42.75l-1.542,0c-22.333,0 -40.792,-17 -41.625,-39.541Zm-378.708,9.999c-0.25,-23 18.166,-42.333 41.166,-42.625c23,-0.291 41.875,18.792 42.167,41.834c0.292,23 -18.125,42.833 -41.125,42.833l-0.542,0c-22.75,0 -41.375,-19.209 -41.666,-42.042Zm340.583,156.25c-16.75,-15.75 -17.583,-42.124 -1.833,-58.916c15.75,-16.75 42.125,-17.583 58.916,-1.833c16.75,15.792 17.584,42.124 1.834,58.916c-8.209,8.709 -19.292,13.126 -30.375,13.126c-10.25,-0 -20.5,-3.751 -28.542,-11.293Zm-269.792,6.626l-0.041,-0c-16.542,-16.667 -17.042,-42.459 -1.084,-59.042c15.959,-16.583 42.334,-17.125 58.917,-1.125c16.583,15.916 17.083,42.291 1.125,58.875c-8.208,8.5 -19.125,12.833 -30.042,12.833c-10.375,0 -20.791,-3.208 -28.875,-11.541Zm123.375,22.791c-0.583,-23 17.625,-41.667 40.625,-42.208c23,-0.584 42.125,16.916 42.667,39.916c0.583,23 -17.625,42.001 -40.625,42.001l-1.042,-0c-22.541,-0 -41.083,-17.042 -41.625,-39.709Z" style="fill:#1c243a;fill-rule:nonzero;"/><path d="M1803.91,987.317c-54.533,-0 -98.899,44.746 -98.899,99.742l-0,2512.26c-0,60.001 48.437,108.834 107.975,108.834l3017.22,0c57.333,0 103.958,-47 103.958,-104.791l-0,-2518.16c-0,-53.97 -43.542,-97.883 -97.042,-97.883l-3033.22,-0Zm3026.3,2779.17l-3017.22,-0c-91.7,-0 -166.309,-75 -166.309,-167.168l0,-2512.26c0,-87.163 70.534,-158.075 157.233,-158.075l3033.22,-0c85.667,-0 155.375,70.079 155.375,156.216l0,2518.16c0,89.958 -72.791,163.125 -162.291,163.125Z" style="fill:#1c243a;fill-rule:nonzero;"/><path d="M4634.17,1303.98l-2954.16,-0c-16.109,-0 -29.167,-13.059 -29.167,-29.167c-0,-16.108 13.058,-29.167 29.167,-29.167l2954.16,0c16.125,0 29.167,13.059 29.167,29.167c-0,16.108 -13.042,29.167 -29.167,29.167Z" style="fill:#1c243a;fill-rule:nonzero;"/><path d="M2259.18,1278.98c-16.108,-0 -29.166,-13.059 -29.166,-29.167l-0,-275c-0,-16.108 13.058,-29.167 29.166,-29.167c16.109,0 29.167,13.059 29.167,29.167l-0,275c-0,16.108 -13.058,29.167 -29.167,29.167Z" style="fill:#1c243a;fill-rule:nonzero;"/><path d="M1856.42,1083.7c-14.83,-0 -26.892,12.062 -26.892,26.891c0,14.829 12.062,26.892 26.892,26.892c14.829,-0 26.891,-12.063 26.891,-26.892c0,-14.829 -12.062,-26.891 -26.891,-26.891Zm-0,112.116c-46.996,0 -85.225,-38.233 -85.225,-85.225c-0,-46.991 38.229,-85.225 85.225,-85.225c46.991,0 85.225,38.234 85.225,85.225c-0,46.992 -38.234,85.225 -85.225,85.225Z" style="fill:#1c243a;fill-rule:nonzero;"/><path d="M2081.89,1083.7c-14.829,-0 -26.891,12.062 -26.891,26.891c-0,14.829 12.062,26.892 26.891,26.892c14.83,-0 26.892,-12.063 26.892,-26.892c0,-14.829 -12.062,-26.891 -26.892,-26.891Zm0,112.116c-46.991,0 -85.224,-38.233 -85.224,-85.225c-0,-46.991 38.233,-85.225 85.224,-85.225c46.992,0 85.226,38.234 85.226,85.225c-0,46.992 -38.234,85.225 -85.226,85.225Z" style="fill:#1c243a;fill-rule:nonzero;"/><path d="M4134.17,1091.48l-1749.99,-0c-16.108,-0 -29.166,-13.059 -29.166,-29.167c-0,-16.108 13.058,-29.167 29.166,-29.167l1749.99,0c16.125,0 29.167,13.059 29.167,29.167c-0,16.108 -13.042,29.167 -29.167,29.167Z" style="fill:#1c243a;fill-rule:nonzero;"/><path d="M3321.67,1199.82l-937.492,-0c-16.108,-0 -29.166,-13.059 -29.166,-29.167c-0,-16.108 13.058,-29.166 29.166,-29.166l937.492,-0c16.125,-0 29.167,13.058 29.167,29.166c-0,16.108 -13.042,29.167 -29.167,29.167Z" style="fill:#1c243a;fill-rule:nonzero;"/><path d="M4963.34,1303.98l-108.334,-0c-16.083,-0 -29.166,-13.059 -29.166,-29.167c-0,-16.108 13.083,-29.167 29.166,-29.167l108.334,0c16.125,0 29.166,13.059 29.166,29.167c0,16.108 -13.041,29.167 -29.166,29.167Z" style="fill:#1c243a;fill-rule:nonzero;"/><path d="M1838.35,2053.98l2966.66,-0l0,-550l-2966.66,-0l-0,550Zm3024.99,29.166c-0,16.108 -13.042,29.167 -29.167,29.167l-3024.99,-0c-16.108,-0 -29.166,-13.059 -29.166,-29.167l-0,-608.333c-0,-16.108 13.058,-29.167 29.166,-29.167l3024.99,0c16.125,0 29.167,13.059 29.167,29.167l-0,608.333Z" style="fill:#1c243a;fill-rule:nonzero;"/><path d="M4838.34,3487.32l-3029.16,-0c-16.108,-0 -29.166,-13.041 -29.166,-29.167c-0,-16.125 13.058,-29.166 29.166,-29.166l3029.16,-0c16.125,-0 29.166,13.041 29.166,29.166c0,16.126 -13.041,29.167 -29.166,29.167Z" style="fill:#1c243a;fill-rule:nonzero;"/><path d="M1838.35,2783.15l404.167,0l-0,-404.166l-404.167,-0l-0,404.166Zm462.5,29.167c-0,16.125 -13.058,29.167 -29.167,29.167l-462.5,-0c-16.108,-0 -29.166,-13.042 -29.166,-29.167l-0,-462.5c-0,-16.108 13.058,-29.167 29.166,-29.167l462.5,0c16.109,0 29.167,13.059 29.167,29.167l-0,462.5Z" style="fill:#1c243a;fill-rule:nonzero;"/><path d="M2688.34,2783.15l408.333,0l-0,-404.166l-408.333,-0l-0,404.166Zm466.666,29.167c0,16.125 -13.041,29.167 -29.166,29.167l-466.667,-0c-16.083,-0 -29.167,-13.042 -29.167,-29.167l0,-462.5c0,-16.108 13.084,-29.167 29.167,-29.167l466.667,0c16.125,0 29.166,13.059 29.166,29.167l0,462.5Z" style="fill:#1c243a;fill-rule:nonzero;"/><path d="M3542.5,2783.15l408.334,0l-0,-404.166l-408.334,-0l0,404.166Zm466.667,29.167c-0,16.125 -13.042,29.167 -29.167,29.167l-466.666,-0c-16.084,-0 -29.167,-13.042 -29.167,-29.167l-0,-462.5c-0,-16.108 13.083,-29.167 29.167,-29.167l466.666,0c16.125,0 29.167,13.059 29.167,29.167l-0,462.5Z" style="fill:#1c243a;fill-rule:nonzero;"/><path d="M4396.67,2783.15l408.333,0l0,-404.166l-408.333,-0l-0,404.166Zm466.667,29.167c-0,16.125 -13.042,29.167 -29.167,29.167l-466.667,-0c-16.083,-0 -29.166,-13.042 -29.166,-29.167l-0,-462.5c-0,-16.108 13.083,-29.167 29.166,-29.167l466.667,0c16.125,0 29.167,13.059 29.167,29.167l-0,462.5Z" style="fill:#1c243a;fill-rule:nonzero;"/><path d="M4838.34,3195.65l-3029.16,0c-16.108,0 -29.166,-13.041 -29.166,-29.166c-0,-16.126 13.058,-29.167 29.166,-29.167l3029.16,-0c16.125,-0 29.166,13.041 29.166,29.167c0,16.125 -13.041,29.166 -29.166,29.166Z" style="fill:#1c243a;fill-rule:nonzero;"/><path d="M6112.84,2160l186.166,-0l-0,-1936.13l-186.166,-0l-0,1936.13Zm215.333,58.333l-244.5,-0c-16.125,-0 -29.167,-13.054 -29.167,-29.167l0,-1994.47c0,-16.108 13.042,-29.167 29.167,-29.167l244.5,0c16.125,0 29.166,13.059 29.166,29.167l0,1994.47c0,16.113 -13.041,29.167 -29.166,29.167Z" style="fill:#1c243a;fill-rule:nonzero;"/><path d="M6068.8,3032.07l274.208,-0l0,-813.733l-274.208,-0l-0,813.733Zm303.375,58.333l-332.542,0c-16.083,0 -29.167,-13.041 -29.167,-29.166l0,-872.067c0,-16.109 13.084,-29.166 29.167,-29.166l332.542,-0c16.125,-0 29.167,13.057 29.167,29.166l-0,872.067c-0,16.125 -13.042,29.166 -29.167,29.166Z" style="fill:#1c243a;fill-rule:nonzero;"/><path d="M6205.92,3542.61c-12.542,-0 -23.667,-8.042 -27.667,-19.917l-151.583,-452.167c-5.125,-15.291 3.083,-31.833 18.375,-36.916c15.25,-5.126 31.792,3.083 36.916,18.375l123.959,369.708l123.958,-369.708c5.125,-15.292 21.625,-23.501 36.917,-18.375c15.25,5.083 23.5,21.625 18.375,36.916l-151.583,452.167c-4,11.875 -15.126,19.917 -27.667,19.917Z" style="fill:#1c243a;fill-rule:nonzero;"/><path d="M6242.5,3399.82l-70.833,-0c-16.083,-0 -29.167,-13.041 -29.167,-29.167c0,-16.125 13.084,-29.166 29.167,-29.166l70.833,-0c16.125,-0 29.167,13.041 29.167,29.166c-0,16.126 -13.042,29.167 -29.167,29.167Z" style="fill:#1c243a;fill-rule:nonzero;"/><path d="M6160.5,165.533l90.834,0l-0,-107.2l-90.834,0l0,107.2Zm120,58.334l-149.167,-0c-16.125,-0 -29.166,-13.055 -29.166,-29.167l-0,-165.533c-0,-16.109 13.041,-29.167 29.166,-29.167l149.167,0c16.083,0 29.167,13.058 29.167,29.167l-0,165.533c-0,16.112 -13.084,29.167 -29.167,29.167Z" style="fill:#1c243a;fill-rule:nonzero;"/><path d="M6421.67,1145.65c-16.083,0 -29.167,-13.058 -29.167,-29.166l0,-879.167l-62.5,-0c-16.083,-0 -29.166,-13.059 -29.166,-29.167c-0,-16.108 13.083,-29.166 29.166,-29.166l91.667,-0c16.125,-0 29.167,13.058 29.167,29.166l-0,908.334c-0,16.108 -13.042,29.166 -29.167,29.166Z" style="fill:#1c243a;fill-rule:nonzero;"/><path d="M6483.5,1082.65c-8.083,-0 -27.375,8.384 -27.375,29.138c0,20.754 19.292,29.137 27.375,29.137c8.042,0 27.334,-8.383 27.334,-29.137c-0,-20.754 -19.292,-29.138 -27.334,-29.138Zm0,116.608c-41.375,0 -85.708,-35.15 -85.708,-87.47c-0,-52.326 44.333,-87.472 85.708,-87.472c41.375,0 85.667,35.146 85.667,87.472c0,52.32 -44.292,87.47 -85.667,87.47Z" style="fill:#1c243a;fill-rule:nonzero;"/><path d="M137.663,622.146c-43.742,-0 -79.33,35.583 -79.33,79.325c0,43.746 35.588,79.333 79.33,79.333c43.741,0 79.329,-35.587 79.329,-79.333c-0,-43.742 -35.588,-79.325 -79.329,-79.325Zm-0,216.992c-75.909,-0 -137.663,-61.759 -137.663,-137.667c0,-75.904 61.754,-137.659 137.663,-137.659c75.908,0 137.662,61.755 137.662,137.659c0,75.908 -61.754,137.667 -137.662,137.667Z" style="fill:#1c243a;fill-rule:nonzero;"/><path d="M726.275,190.776c-43.742,-0 -79.329,35.587 -79.329,79.328c-0,43.742 35.587,79.325 79.329,79.325c43.742,0 79.325,-35.583 79.325,-79.325c0,-43.741 -35.583,-79.328 -79.325,-79.328Zm-0,216.987c-75.908,-0 -137.667,-61.755 -137.667,-137.659c0,-75.908 61.759,-137.662 137.667,-137.662c75.904,0 137.658,61.754 137.658,137.662c0,75.904 -61.754,137.659 -137.658,137.659Z" style="fill:#1c243a;fill-rule:nonzero;"/><path d="M726.275,916.196c-43.742,-0 -79.329,35.587 -79.329,79.329c-0,43.742 35.587,79.33 79.329,79.33c43.742,-0 79.325,-35.588 79.325,-79.33c0,-43.742 -35.583,-79.329 -79.325,-79.329Zm-0,216.992c-75.908,-0 -137.667,-61.754 -137.667,-137.663c0,-75.908 61.759,-137.663 137.667,-137.663c75.904,0 137.658,61.755 137.658,137.663c0,75.909 -61.754,137.663 -137.658,137.663Z" style="fill:#1c243a;fill-rule:nonzero;"/><path d="M177.704,629.8c-9.675,0 -19.133,-4.808 -24.683,-13.587c-8.604,-13.617 -4.542,-31.634 9.075,-40.237l440.1,-278.105c13.617,-8.604 31.637,-4.546 40.237,9.075c8.609,13.617 4.546,31.633 -9.075,40.237l-440.1,278.105c-4.837,3.054 -10.229,4.512 -15.554,4.512Z" style="fill:#1c243a;fill-rule:nonzero;"/><path d="M617.775,968.08c-3.342,-0 -6.741,-0.58 -10.062,-1.801l-413.309,-151.974c-15.121,-5.559 -22.866,-22.321 -17.308,-37.442c5.558,-15.121 22.321,-22.867 37.437,-17.309l413.313,151.976c15.117,5.558 22.866,22.32 17.308,37.442c-4.337,11.795 -15.5,19.108 -27.379,19.108Z" style="fill:#1c243a;fill-rule:nonzero;"/><path d="M396.679,1416.48c-16.108,-0 -29.166,-13.059 -29.166,-29.167l-0,-54.167c-0,-16.108 13.058,-29.166 29.166,-29.166c16.109,-0 29.167,13.058 29.167,29.166l-0,54.167c-0,16.108 -13.058,29.167 -29.167,29.167Z" style="fill:#1c243a;fill-rule:nonzero;"/><path d="M396.679,1708.15c-16.108,0 -29.166,-13.058 -29.166,-29.166l-0,-104.167c-0,-16.108 13.058,-29.167 29.166,-29.167c16.109,0 29.167,13.059 29.167,29.167l-0,104.167c-0,16.108 -13.058,29.166 -29.167,29.166Zm0,291.667c-16.108,-0 -29.166,-13.059 -29.166,-29.167l-0,-104.166c-0,-16.109 13.058,-29.167 29.166,-29.167c16.109,-0 29.167,13.058 29.167,29.167l-0,104.166c-0,16.108 -13.058,29.167 -29.167,29.167Zm0,291.667c-16.108,-0 -29.166,-13.059 -29.166,-29.167l-0,-104.167c-0,-16.108 13.058,-29.166 29.166,-29.166c16.109,-0 29.167,13.058 29.167,29.166l-0,104.167c-0,16.108 -13.058,29.167 -29.167,29.167Zm0,291.666c-16.108,0 -29.166,-13.041 -29.166,-29.166l-0,-104.167c-0,-16.126 13.058,-29.167 29.166,-29.167c16.109,0 29.167,13.041 29.167,29.167l-0,104.167c-0,16.125 -13.058,29.166 -29.167,29.166Zm0,291.667c-16.108,-0 -29.166,-13.041 -29.166,-29.167l-0,-104.166c-0,-16.126 13.058,-29.167 29.166,-29.167c16.109,-0 29.167,13.041 29.167,29.167l-0,104.166c-0,16.126 -13.058,29.167 -29.167,29.167Zm0,291.667c-16.108,-0 -29.166,-13.042 -29.166,-29.167l-0,-104.167c-0,-16.125 13.058,-29.166 29.166,-29.166c16.109,-0 29.167,13.041 29.167,29.166l-0,104.167c-0,16.125 -13.058,29.167 -29.167,29.167Zm0,291.666c-16.108,0 -29.166,-13.041 -29.166,-29.166l-0,-104.167c-0,-16.126 13.058,-29.167 29.166,-29.167c16.109,0 29.167,13.041 29.167,29.167l-0,104.167c-0,16.125 -13.058,29.166 -29.167,29.166Z" style="fill:#1c243a;fill-rule:nonzero;"/><path d="M446.679,3712.32l-50,-0c-16.108,-0 -29.166,-13.041 -29.166,-29.167l-0,-50c-0,-16.125 13.058,-29.166 29.166,-29.166c16.109,-0 29.167,13.041 29.167,29.166l-0,20.834l20.833,-0c16.109,-0 29.167,13.041 29.167,29.166c-0,16.126 -13.058,29.167 -29.167,29.167Z" style="fill:#1c243a;fill-rule:nonzero;"/><path d="M713.346,3712.32l-95.833,-0c-16.109,-0 -29.167,-13.041 -29.167,-29.167c-0,-16.125 13.058,-29.166 29.167,-29.166l95.833,-0c16.108,-0 29.167,13.041 29.167,29.166c-0,16.126 -13.059,29.167 -29.167,29.167Zm266.667,-0l-95.834,-0c-16.108,-0 -29.166,-13.041 -29.166,-29.167c-0,-16.125 13.058,-29.166 29.166,-29.166l95.834,-0c16.108,-0 29.166,13.041 29.166,29.166c0,16.126 -13.058,29.167 -29.166,29.167Z" style="fill:#1c243a;fill-rule:nonzero;"/><path d="M1196.68,3712.32l-54.166,-0c-16.109,-0 -29.167,-13.041 -29.167,-29.167c-0,-16.125 13.058,-29.166 29.167,-29.166l54.166,-0c16.109,-0 29.167,13.041 29.167,29.166c-0,16.126 -13.058,29.167 -29.167,29.167Z" style="fill:#1c243a;fill-rule:nonzero;"/><path d="M6205,3820.65c-16.083,0 -29.166,-13.041 -29.166,-29.166l-0,-54.167c-0,-16.126 13.083,-29.167 29.166,-29.167c16.125,0 29.167,13.041 29.167,29.167l-0,54.167c-0,16.125 -13.042,29.166 -29.167,29.166Z" style="fill:#1c243a;fill-rule:nonzero;"/><path d="M6205,4124.82c-16.083,-0 -29.166,-13.041 -29.166,-29.167l-0,-108.333c-0,-16.126 13.083,-29.167 29.166,-29.167c16.125,0 29.167,13.041 29.167,29.167l-0,108.333c-0,16.126 -13.042,29.167 -29.167,29.167Zm0,304.167c-16.083,-0 -29.166,-13.042 -29.166,-29.167l-0,-108.333c-0,-16.126 13.083,-29.167 29.166,-29.167c16.125,-0 29.167,13.041 29.167,29.167l-0,108.333c-0,16.125 -13.042,29.167 -29.167,29.167Zm0,304.166c-16.083,0 -29.166,-13.041 -29.166,-29.166l-0,-108.334c-0,-16.125 13.083,-29.166 29.166,-29.166c16.125,-0 29.167,13.041 29.167,29.166l-0,108.334c-0,16.125 -13.042,29.166 -29.167,29.166Zm0,304.167c-16.083,-0 -29.166,-13.041 -29.166,-29.167l-0,-108.333c-0,-16.126 13.083,-29.167 29.166,-29.167c16.125,0 29.167,13.041 29.167,29.167l-0,108.333c-0,16.126 -13.042,29.167 -29.167,29.167Z" style="fill:#1c243a;fill-rule:nonzero;"/><path d="M6205,5299.82l-54.166,-0c-16.084,-0 -29.167,-13.041 -29.167,-29.167c-0,-16.125 13.083,-29.166 29.167,-29.166l25,-0l-0,-20.834c-0,-16.125 13.083,-29.166 29.166,-29.166c16.125,-0 29.167,13.041 29.167,29.166l-0,50c-0,16.126 -13.042,29.167 -29.167,29.167Z" style="fill:#1c243a;fill-rule:nonzero;"/><path d="M5325.84,5299.82l-112.5,-0c-16.084,-0 -29.167,-13.041 -29.167,-29.167c-0,-16.125 13.083,-29.166 29.167,-29.166l112.5,-0c16.125,-0 29.166,13.041 29.166,29.166c0,16.126 -13.041,29.167 -29.166,29.167Zm312.5,-0l-112.5,-0c-16.084,-0 -29.167,-13.041 -29.167,-29.167c-0,-16.125 13.083,-29.166 29.167,-29.166l112.5,-0c16.125,-0 29.166,13.041 29.166,29.166c0,16.126 -13.041,29.167 -29.166,29.167Zm312.5,-0l-112.5,-0c-16.084,-0 -29.167,-13.041 -29.167,-29.167c-0,-16.125 13.083,-29.166 29.167,-29.166l112.5,-0c16.125,-0 29.166,13.041 29.166,29.166c0,16.126 -13.041,29.167 -29.166,29.167Z" style="fill:#1c243a;fill-rule:nonzero;"/><path d="M5013.34,5299.82l-50,-0c-16.084,-0 -29.167,-13.041 -29.167,-29.167c-0,-16.125 13.083,-29.166 29.167,-29.166l50,-0c16.125,-0 29.166,13.041 29.166,29.166c0,16.126 -13.041,29.167 -29.166,29.167Z" style="fill:#1c243a;fill-rule:nonzero;"/></svg>