<?xml version="1.0" encoding="UTF-8" standalone="no"?><!DOCTYPE svg PUBLIC "-//W3C//DTD SVG 1.1//EN" "http://www.w3.org/Graphics/SVG/1.1/DTD/svg11.dtd"><svg width="100%" height="100%" viewBox="0 0 1933 1850" version="1.1" xmlns="http://www.w3.org/2000/svg" xmlns:xlink="http://www.w3.org/1999/xlink" xml:space="preserve" xmlns:serif="http://www.serif.com/" style="fill-rule:evenodd;clip-rule:evenodd;stroke-linejoin:round;stroke-miterlimit:2;"><path d="M1556.26,1605.02c23.958,31.379 57.084,51.321 99.417,48.425c37.875,-2.588 71.708,-25.917 95.875,-55.034c11.333,-13.629 21.167,-29.104 24.541,-46.479c3.084,-15.583 0.834,-31.662 0.876,-47.55c0.166,-31.462 9.791,-62.804 27.333,-88.917c14,-20.791 32.625,-38.054 47.417,-58.291c14.75,-20.234 25.791,-45.284 21.125,-69.909c-3.375,-17.695 -14.625,-33.179 -28.375,-44.829c-33.292,-28.104 -80.834,-35.196 -123.5,-26.57c-42.667,8.625 -81.209,31.279 -116.125,57.191c-33.667,25.004 -65.751,54.667 -82.125,93.238c-26.417,62.208 -15.584,174.45 33.541,238.725Z" style="fill:url(#_Linear1);"/><path d="M1004.89,820.492c-23.666,-2.334 -47.624,-2.15 -71.708,0.866c-164.042,20.542 -374,91.275 -487.375,216.084c-34.75,38.25 -59.5,84.333 -70.167,135.02c-24.166,114.83 -25.791,222.617 73.084,303.113c64,52.15 142.375,57.708 211.958,95.771c132,72.196 173.667,254.066 338.333,275.9c120.751,16.012 233.875,-62.492 311.084,-148.346c77.916,-86.617 129.541,-199.35 137.958,-316.008c2.042,-28.288 1.625,-56.746 -1.375,-84.954c-22.542,-211.809 -219.666,-455.538 -441.792,-477.446Z" style="fill:url(#_Linear2);"/><path d="M279.763,242.554c0.458,1.404 0.834,2.858 1.167,4.359c7.833,35.112 -20.417,78.625 -35.875,108.266c-6.25,11.984 -13.5,24.067 -24.791,31.513c-11.292,7.45 -27.584,8.87 -37.667,-0.134c-5.875,-5.229 -8.75,-12.991 -10.625,-20.604c-6.792,-27.208 -3.792,-56.008 2.958,-83.225c5.333,-21.55 13.625,-43.504 30.417,-58.066c25.125,-21.825 64.166,-14.196 74.416,17.891Z" style="fill:url(#_Linear3);"/><path d="M1516.85,442.237c-2.084,-4.404 -4.042,-8.812 -6,-13.249c-83.875,81.912 -568.875,555.187 -794.75,775.633c5.166,1.391 10.291,2.712 15.458,3.983c10.958,-10.716 774.292,-755.658 785.292,-766.367Z" style="fill:url(#_Linear4);"/><path d="M1602.85,1070.27c33.291,-21.529 64.458,-45.375 92.999,-71.721l0.042,-0.058l17.542,-17.117l0.333,-0.321c17.792,-18.462 33.667,-39.087 44.25,-62.196c-17.458,17.021 -130.083,126.938 -155.166,151.413Z" style="fill:url(#_Linear5);"/><path d="M1501.56,1126.1c13.5,-6.279 26.792,-12.883 39.833,-19.787l0,-0.013c99.833,-97.429 49.75,-48.554 227.792,-222.304l0.125,-0.696c1.292,-7.258 2.083,-14.154 2.333,-20.746c-192.375,187.725 -132.458,129.238 -270.083,263.546Z" style="fill:url(#_Linear6);"/><path d="M1770.43,839.771l-0,-0.025c-0.792,-5.429 -1.958,-10.625 -3.458,-15.658c-211.833,206.683 -138.417,135.062 -342.375,334.079c10.916,-4.005 21.708,-8.167 32.416,-12.55l0.042,-0.013c177.833,-173.55 106.125,-103.591 313.375,-305.833Z" style="fill:url(#_Linear7);"/><path d="M1760.26,806.696c-1.999,-4.292 -4.25,-8.459 -6.708,-12.55c-227.083,221.612 -141.458,138.062 -395.833,386.325c9.625,-2.892 19.208,-5.867 28.708,-8.983c17.291,-16.88 358.75,-350.071 373.833,-364.792Z" style="fill:url(#_Linear8);"/><path d="M1743.89,779.65c-2.625,-3.654 -5.416,-7.254 -8.375,-10.867c-84.166,82.159 -352.583,344.05 -438.75,428.134c1.375,-0.325 25.209,-6.221 26.5,-6.721c2.084,-2.034 418.5,-408.471 420.625,-410.546Z" style="fill:url(#_Linear9);"/><path d="M1724.47,755.608c-2.916,-3.387 -5.958,-6.796 -9.041,-10.22c-163.416,159.474 -271.625,265.099 -475.417,463.954c8.292,-1.625 16.542,-3.313 24.75,-5.084c60.875,-59.433 -13.667,13.35 459.708,-448.65Z" style="fill:url(#_Linear10);"/><path d="M1704.01,732.542c-2.999,-3.354 -6,-6.775 -9,-10.234c-169.958,165.83 -340.708,332.442 -508.708,496.413c7.833,-1.196 15.583,-2.471 23.417,-3.796c404.833,-395.067 167.708,-163.654 494.291,-482.383Z" style="fill:url(#_Linear11);"/><path d="M1683.93,709.171c-2.917,-3.517 -5.792,-7.046 -8.667,-10.625c-385.625,376.375 -153.917,150.229 -540.083,527.079c7.459,-0.863 14.917,-1.783 22.375,-2.779l0.042,-0.008c347.666,-339.346 328.625,-320.75 526.333,-513.667Z" style="fill:url(#_Linear12);"/><path d="M1664.56,685.079c-2.833,-3.591 -5.625,-7.216 -8.417,-10.858c-231.375,225.812 -291.416,284.371 -570,556.279c7.167,-0.612 14.292,-1.221 21.5,-1.908l0,-0.013c247.917,-241.962 363.584,-354.825 556.917,-543.5Z" style="fill:url(#_Linear13);"/><path d="M1645.76,660.433c-2.751,-3.662 -5.459,-7.35 -8.126,-11.1c-522.208,509.584 -328.833,320.892 -598.666,584.184c6.874,-0.313 13.791,-0.704 20.708,-1.134c426.042,-415.754 186.875,-182.375 586.084,-571.95Z" style="fill:url(#_Linear14);"/><path d="M1627.51,635.183c-2.666,-3.75 -5.25,-7.516 -7.875,-11.316c-16.625,16.2 -404.875,395.075 -423.083,412.829l-203.167,198.275c6.667,-0.092 13.334,-0.25 20,-0.45c187.875,-183.321 196.834,-192.038 614.125,-599.338Z" style="fill:url(#_Linear15);"/><path d="M1609.89,609.442c-2.542,-3.859 -5.125,-7.746 -7.625,-11.646c-0.708,0.687 -652.25,636.496 -652.958,637.183c6.458,0.117 12.917,0.163 19.375,0.175c388.584,-379.15 105.542,-103.004 641.208,-625.712Z" style="fill:url(#_Linear16);"/><path d="M1592.85,583.079l-0.042,-0.025c-2.458,-3.946 -4.917,-7.879 -7.334,-11.858c-65.041,63.467 -613.749,598.929 -678.791,662.425c6.208,0.304 12.458,0.562 18.75,0.771l667.417,-651.313Z" style="fill:url(#_Linear17);"/><path d="M1576.39,556.133c-2.417,-4.045 -4.75,-8.104 -7.125,-12.171c-0.833,0.817 -702.916,686.03 -703.75,686.846c6.334,0.588 12.334,1.092 18.042,1.475c122.333,-119.441 400.208,-390.566 692.833,-676.15Z" style="fill:url(#_Linear18);"/><path d="M1560.56,528.587c-2.333,-4.108 -4.583,-8.237 -6.834,-12.404c-11,10.646 -626.083,610.938 -727.791,710.171c5.958,0.788 11.75,1.517 17.375,2.146c166.917,-162.875 197.833,-193.125 717.25,-699.913Z" style="fill:url(#_Linear19);"/><path d="M1545.31,500.396c-2.208,-4.209 -4.375,-8.433 -6.5,-12.684c-2.042,1.967 -628.917,613.751 -750.833,732.759c5.625,0.979 11.208,1.912 16.667,2.796c446.999,-436.255 740.666,-722.871 740.666,-722.871Z" style="fill:url(#_Linear20);"/><path d="M1530.72,471.658c-2.124,-4.312 -4.207,-8.641 -6.25,-12.987c-24.208,23.654 -747.041,729.092 -773.166,754.55c5.375,1.212 10.75,2.329 16.083,3.4c195.667,-190.971 700.667,-683.763 763.333,-744.963Z" style="fill:url(#_Linear21);"/><path d="M1503.56,412.217c-1.917,-4.525 -3.833,-9.021 -5.666,-13.571c-14.625,14.279 -800,780.712 -815.543,795.858c4.917,1.621 9.834,3.167 14.751,4.642c353.708,-345.184 321.541,-313.754 806.458,-786.929Z" style="fill:url(#_Linear22);"/><path d="M1490.97,381.413c-1.834,-4.596 -3.584,-9.201 -5.334,-13.834c-151.5,147.892 -624.249,609.184 -835.291,815.171c4.583,1.892 9.291,3.696 13.958,5.429c114.542,-111.8 708.333,-691.25 826.667,-806.766Z" style="fill:url(#_Linear23);"/><path d="M1479.14,349.983c-1.709,-4.695 -3.376,-9.412 -5.042,-14.137c-22.834,22.308 -799.375,780.142 -853.875,833.3c4.291,2.154 8.666,4.267 13.124,6.287c230.501,-224.995 796.751,-777.575 845.793,-825.45Z" style="fill:url(#_Linear24);"/><path d="M1468.06,317.829c-1.625,-4.808 -3.167,-9.633 -4.708,-14.471c-416.5,406.459 -512.584,500.138 -871,850.005c3.916,2.483 7.958,4.937 12.083,7.275c0.833,-0.83 862.75,-841.98 863.625,-842.809Z" style="fill:url(#_Linear25);"/><path d="M1457.72,284.913c-1.459,-4.955 -2.917,-9.892 -4.292,-14.875c-287.167,280.241 -5.083,5 -886.25,864.874c3.458,2.93 7.042,5.767 10.792,8.546c354.5,-345.933 149.708,-146.141 879.75,-858.545Z" style="fill:url(#_Linear26);"/><path d="M1448.26,251.154c-1.375,-5.062 -2.666,-10.15 -3.958,-15.246c-167.125,163.067 -201.875,197.029 -898.959,877.28c2.876,3.474 5.959,6.829 9.209,10.095c120.5,-117.591 768.625,-750.108 893.708,-872.129Z" style="fill:url(#_Linear27);"/><path d="M1439.64,216.546l-0.083,-0.234c-1.167,-5.033 -2.333,-10.108 -3.542,-15.266c-429.541,419.096 -592.416,578.112 -908,886.058c2.084,4.196 4.459,8.25 7,12.204c211.667,-206.5 732.375,-714.671 904.625,-882.762Z" style="fill:url(#_Linear28);"/><path d="M1431.31,181.683c-1.25,-5.066 -2.542,-10.154 -3.917,-15.245c-203.166,198.229 -711.333,694.187 -910.375,888.429c0.959,5.254 2.292,10.304 3.917,15.221c141.417,-138.017 768.833,-750.275 910.375,-888.405Z" style="fill:url(#_Linear29);"/><path d="M1422.18,147.604c-1.458,-4.896 -2.958,-9.775 -4.541,-14.617c-3.543,3.446 -881.084,859.784 -900.126,878.375l0,0.03c-1.583,6.983 -2.458,14.121 -2.541,21.5c98.833,-96.417 804.583,-785.125 907.208,-885.288Z" style="fill:url(#_Linear30);"/><path d="M1411.43,115.054c-1.75,-4.658 -3.542,-9.254 -5.458,-13.75c-62.25,60.746 -531.417,518.642 -586.584,572.45c-1.083,2.492 -39,52.204 -78.416,95.6c69.083,-67.425 606.416,-591.796 670.458,-654.3Z" style="fill:url(#_Linear31);"/><path d="M636.847,870.954c-23.167,19.984 -43.417,35.546 -64.292,55.679c-13.833,13.359 -26.583,27.529 -36.542,42.713c97.292,-94.888 79.292,-77.338 100.834,-98.392Z" style="fill:url(#_Linear32);"/><path d="M1398.39,84.775c-2.084,-4.292 -4.334,-8.496 -6.668,-12.563c-319.124,311.463 -150.249,146.605 -494.083,482.159c-9.124,15.829 -18.583,31.429 -28.416,46.821c446,-435.221 383.041,-373.792 529.167,-516.417Z" style="fill:url(#_Linear33);"/><path d="M1382.43,57.383c-2.625,-3.795 -5.375,-7.475 -8.292,-11.004c-297.291,290.154 -266.916,260.488 -429.916,419.575c-5.959,12.459 -12.084,24.788 -18.459,37.054c288.833,-281.85 226.75,-221.291 456.667,-445.625Z" style="fill:url(#_Linear34);"/><path d="M1362.56,33.771c-3.292,-3.179 -6.75,-6.179 -10.333,-8.984c-53.167,51.867 -317.75,310.067 -375,365.967c-4.333,10.788 -8.792,21.508 -13.417,32.154c10.958,-10.683 386.833,-377.529 398.75,-389.137Z" style="fill:url(#_Linear35);"/><path d="M1337.68,15.004c-4.167,-2.358 -8.5,-4.491 -13,-6.358c-191.542,186.921 -318.167,310.471 -322.5,314.708c-3.375,9.75 -6.792,19.513 -10.375,29.204c243.417,-237.604 165.792,-161.846 345.875,-337.554Z" style="fill:url(#_Linear36);"/><path d="M1306.26,2.688c-5.541,-1.33 -11.125,-2.23 -16.791,-2.688c-149.334,145.717 -92.001,89.783 -264.709,258.3l0,0.037c-3.458,9.613 -6.833,19.23 -10.167,28.93c12.917,-12.6 279.084,-272.3 291.667,-284.579Z" style="fill:url(#_Linear37);"/><path d="M1264.89,0.075c-7.875,0.638 -15.708,1.963 -23.416,3.783c-123.084,120.088 -79.792,77.842 -188.75,184.171l-0,0.038c-4.875,10.687 -9.417,21.537 -13.792,32.495c1.042,-0.999 84.75,-82.683 225.958,-220.487Z" style="fill:url(#_Linear38);"/><path d="M1203.14,17.308c-25.25,11.771 -47.958,28.313 -68.083,47.925c-22.458,21.909 -41.708,47.625 -57.708,74.825c65.833,-64.216 38,-37.054 125.791,-122.75Z" style="fill:url(#_Linear39);"/><path d="M257.097,457.983c-3.5,-0.154 -7.334,0.475 -10.959,1.538c-10.083,2.937 -33.291,14.312 -31.791,27.996c1.208,10.983 33.624,1.987 39.333,-0.538c6.542,-2.892 13.041,-7.8 14.25,-14.85c1.792,-10.154 -3.708,-13.825 -10.833,-14.146Z" style="fill:url(#_Linear40);"/><path d="M1602.89,205.329c-1.333,0.621 -2.958,0.471 -4.166,-0.525l-49.125,-40.392c-1.667,-1.383 -1.917,-3.866 -0.542,-5.545c1.375,-1.684 3.875,-1.925 5.542,-0.542l49.124,40.387c1.709,1.384 1.917,3.871 0.542,5.551c-0.375,0.47 -0.875,0.829 -1.375,1.066Z" style="fill:url(#_Linear41);"/><path d="M1558.14,209.7c-1.333,0.621 -2.958,0.467 -4.166,-0.529c-1.667,-1.379 -1.917,-3.863 -0.542,-5.546l40.375,-49.125c1.375,-1.688 3.875,-1.925 5.542,-0.546c1.708,1.384 1.958,3.867 0.541,5.55l-40.375,49.125c-0.375,0.471 -0.833,0.829 -1.375,1.071Z" style="fill:url(#_Linear42);"/><path d="M1141.35,939.646c-67.709,65.308 -149.292,104.066 -244.792,136.092c-97.084,32.545 -175.125,83.012 -260.584,138.108c-163.541,105.387 -366.458,184.721 -515.791,49.146c-124.416,-112.98 -167.667,-356.879 -55.167,-523.354c38.917,-57.58 91.667,-93.271 149.542,-116.971c44.792,-18.35 87.375,-24.055 114.083,-67.592c55.625,-90.763 37.292,-211.321 93.25,-305.833c48.834,-82.496 121.5,-112.346 209.625,-63.284c121.375,67.604 186.417,213.229 310.459,275.58c111.541,56.045 291.791,106.966 310.541,253.787c6.667,52.417 -17.25,104.033 -46.958,147.725c-19.792,29.121 -41.208,54.392 -64.208,76.596Z" style="fill:url(#_Linear43);"/><path d="M352.159,1839.04c6.25,-0.712 12.376,-3.158 17.584,-7.412c7.125,-5.75 11.541,-13.93 12.458,-23.017c0.959,-9.088 -1.666,-17.996 -7.458,-25.083c-11.875,-14.646 -33.458,-16.884 -48.084,-5.005c-7.124,5.759 -11.541,13.934 -12.458,23.021c-0.958,9.084 1.709,17.996 7.459,25.084l-0,0.004c7.625,9.4 19.25,13.687 30.499,12.408Zm-8.791,-75.75c13.792,-1.583 28.125,3.7 37.5,15.267c7.084,8.725 10.333,19.691 9.209,30.871c-1.167,11.183 -6.626,21.241 -15.334,28.325c-18.041,14.616 -44.583,11.862 -59.208,-6.155c-7.084,-8.725 -10.334,-19.691 -9.209,-30.87c1.167,-11.18 6.626,-21.238 15.334,-28.321c6.458,-5.234 14,-8.238 21.708,-9.117Z" style="fill:url(#_Linear44);"/><path d="M319.783,1566.73l15.666,-28.446l-32.458,0.659l16.792,27.787Zm24.5,-35.866c0.5,0.32 0.958,0.766 1.291,1.308c0.709,1.204 0.75,2.704 0.083,3.937l-22.249,40.405c-0.709,1.233 -2.001,2.012 -3.376,2.037c-1.416,0.025 -2.75,-0.696 -3.458,-1.9l-23.875,-39.471c-0.708,-1.204 -0.75,-2.712 -0.083,-3.941c0.666,-1.234 1.958,-2.013 3.375,-2.042l46.125,-0.929c0.75,-0.013 1.542,0.196 2.167,0.596Z" style="fill:url(#_Linear45);"/><path d="M1875.72,609.313c2.375,0.108 4.166,2.1 4.083,4.458l-1.292,27.837c-0.125,2.354 -2.083,4.175 -4.458,4.063c-2.333,-0.104 -4.167,-2.1 -4.042,-4.454l1.25,-27.838c0.125,-2.354 2.126,-4.179 4.459,-4.066Z" style="fill:url(#_Linear46);"/><path d="M1879.22,533.138c2.376,0.108 4.209,2.104 4.084,4.454l-1.333,29.254c-0.126,2.354 -2.125,4.171 -4.459,4.062c-2.375,-0.108 -4.166,-2.1 -4.083,-4.454l1.333,-29.254c0.125,-2.354 2.125,-4.171 4.458,-4.062Z" style="fill:url(#_Linear47);"/><path d="M1824.85,582.75l30.583,1.408c2.375,0.109 4.167,2.105 4.083,4.459c-0.125,2.354 -2.125,4.175 -4.458,4.066l-30.625,-1.412c-2.333,-0.109 -4.166,-2.104 -4.042,-4.454c0.084,-2.355 2.083,-4.175 4.459,-4.067Z" style="fill:url(#_Linear48);"/><path d="M1899.6,586.192l29.25,1.346c2.375,0.108 4.166,2.104 4.083,4.458c-0.125,2.354 -2.125,4.175 -4.458,4.066l-29.25,-1.349c-2.375,-0.109 -4.167,-2.105 -4.084,-4.455c0.126,-2.354 2.125,-4.175 4.459,-4.066Z" style="fill:url(#_Linear49);"/><path d="M1841.76,546.675c1.084,0.05 2.167,0.517 2.959,1.388l19.75,21.633c1.583,1.741 1.458,4.437 -0.292,6.025c-1.75,1.587 -4.458,1.462 -6.042,-0.271l-19.708,-21.637c-1.583,-1.742 -1.459,-4.442 0.25,-6.03c0.875,-0.791 2,-1.158 3.083,-1.108Z" style="fill:url(#_Linear50);"/><path d="M1893.14,603.025c1.084,0.046 2.167,0.512 2.959,1.383l18.791,20.592c1.584,1.737 1.459,4.433 -0.292,6.025c-1.708,1.587 -4.416,1.462 -5.999,-0.279l-18.792,-20.588c-1.583,-1.741 -1.458,-4.441 0.291,-6.029c0.834,-0.792 1.959,-1.158 3.042,-1.104Z" style="fill:url(#_Linear51);"/><path d="M1915.31,550.063c1.083,0.05 2.167,0.516 2.958,1.383c1.583,1.742 1.459,4.441 -0.25,6.025l-21.667,19.733c-1.708,1.588 -4.416,1.463 -5.999,-0.279c-1.584,-1.742 -1.459,-4.437 0.25,-6.025l21.666,-19.729c0.833,-0.792 1.959,-1.159 3.042,-1.108Z" style="fill:url(#_Linear52);"/><path d="M1860.01,600.496c1.084,0.05 2.167,0.517 2.959,1.387c1.583,1.742 1.458,4.442 -0.292,6.025l-21.625,19.729c-1.75,1.588 -4.417,1.463 -6,-0.279c-1.625,-1.737 -1.458,-4.437 0.25,-6.02l21.625,-19.738c0.875,-0.792 2,-1.154 3.083,-1.104Z" style="fill:url(#_Linear53);"/><path d="M1697.85,485.438c-5.042,-0 -10.084,1.379 -14.625,4.27c-6.126,3.913 -10.375,9.98 -11.959,17.084c-1.541,7.1 -0.25,14.391 3.667,20.52c8.083,12.659 24.958,16.38 37.583,8.3c6.125,-3.912 10.376,-9.979 11.958,-17.083c1.543,-7.1 0.251,-14.387 -3.625,-20.521c-5.208,-8.129 -14,-12.57 -22.999,-12.57Zm0.083,60.72c-11.083,0 -21.916,-5.466 -28.292,-15.471c-4.833,-7.541 -6.416,-16.512 -4.5,-25.25c1.959,-8.741 7.167,-16.204 14.709,-21.02c15.583,-9.938 36.333,-5.359 46.249,10.216c4.834,7.542 6.417,16.509 4.501,25.25c-1.917,8.738 -7.167,16.205 -14.709,21.021c-5.541,3.558 -11.791,5.254 -17.958,5.254Z" style="fill:url(#_Linear54);"/><path d="M573.83,1727.2c-1.041,-0.312 -1.667,-1.425 -1.333,-2.487l3.708,-12.517c0.334,-1.058 1.459,-1.658 2.5,-1.342c1.042,0.313 1.667,1.429 1.334,2.488l-3.709,12.512c-0.333,1.063 -1.416,1.663 -2.5,1.346Z" style="fill:url(#_Linear55);"/><path d="M563.663,1761.45c-1.083,-0.317 -1.666,-1.429 -1.375,-2.487l3.917,-13.15c0.334,-1.059 1.417,-1.663 2.5,-1.35c1.042,0.32 1.667,1.429 1.333,2.487l-3.916,13.15c-0.292,1.058 -1.417,1.663 -2.459,1.35Z" style="fill:url(#_Linear56);"/><path d="M593.997,1745.03l-13.75,-4.092c-1.083,-0.316 -1.667,-1.429 -1.375,-2.491c0.333,-1.054 1.458,-1.654 2.5,-1.342l13.75,4.092c1.041,0.321 1.667,1.429 1.333,2.487c-0.292,1.059 -1.417,1.659 -2.458,1.346Z" style="fill:url(#_Linear57);"/><path d="M560.372,1735.03l-13.167,-3.917c-1.042,-0.312 -1.625,-1.425 -1.333,-2.483c0.333,-1.058 1.417,-1.663 2.5,-1.346l13.125,3.913c1.083,0.316 1.666,1.429 1.375,2.487c-0.333,1.058 -1.458,1.663 -2.5,1.346Z" style="fill:url(#_Linear58);"/><path d="M582.205,1759.53c-0.458,-0.142 -0.916,-0.475 -1.167,-0.963l-6.541,-12.066c-0.542,-0.975 -0.167,-2.188 0.791,-2.713c1,-0.525 2.209,-0.162 2.709,0.809l6.541,12.066c0.542,0.971 0.167,2.184 -0.791,2.713c-0.5,0.258 -1.042,0.3 -1.542,0.154Z" style="fill:url(#_Linear59);"/><path d="M565.205,1728.1c-0.5,-0.146 -0.917,-0.479 -1.166,-0.967l-6.25,-11.483c-0.5,-0.971 -0.167,-2.183 0.833,-2.708c0.958,-0.525 2.167,-0.163 2.708,0.804l6.209,11.483c0.541,0.975 0.166,2.188 -0.792,2.713c-0.5,0.262 -1.042,0.304 -1.542,0.158Z" style="fill:url(#_Linear60);"/><path d="M549.163,1749.68c-0.5,-0.146 -0.916,-0.479 -1.208,-0.962c-0.5,-0.971 -0.166,-2.184 0.834,-2.709l12.041,-6.533c0.958,-0.525 2.167,-0.167 2.709,0.808c0.541,0.971 0.166,2.18 -0.792,2.709l-12.084,6.529c-0.458,0.262 -1.041,0.304 -1.5,0.158Z" style="fill:url(#_Linear61);"/><path d="M579.997,1732.99c-0.5,-0.15 -0.917,-0.484 -1.209,-0.967c-0.5,-0.971 -0.166,-2.183 0.834,-2.708l12.042,-6.534c1,-0.525 2.208,-0.162 2.708,0.809c0.541,0.97 0.166,2.183 -0.792,2.708l-12.083,6.533c-0.459,0.263 -1,0.3 -1.5,0.159Z" style="fill:url(#_Linear62);"/><text x="708.525px" y="827.543px" style="font-family:'ArialMT', 'Arial', sans-serif;font-size:108.546px;fill:#fff;">Artifacts</text><text x="434.446px" y="684.822px" style="font-family:'Arial-BoldMT', 'Arial', sans-serif;font-weight:700;font-size:123.305px;fill:#fff;">Explorative</text><defs><linearGradient id="_Linear1" x1="0" y1="0" x2="1" y2="0" gradientUnits="userSpaceOnUse" gradientTransform="matrix(-1319,-1502.93,1502.93,-1319,2286.47,2091.01)"><stop offset="0" style="stop-color:#2fe9ff;stop-opacity:1"/><stop offset="1" style="stop-color:#184277;stop-opacity:1"/></linearGradient><linearGradient id="_Linear2" x1="0" y1="0" x2="1" y2="0" gradientUnits="userSpaceOnUse" gradientTransform="matrix(-1319,-1502.93,1502.93,-1319,1913.51,2418.33)"><stop offset="0" style="stop-color:#2fe9ff;stop-opacity:1"/><stop offset="1" style="stop-color:#184277;stop-opacity:1"/></linearGradient><linearGradient id="_Linear3" x1="0" y1="0" x2="1" y2="0" gradientUnits="userSpaceOnUse" gradientTransform="matrix(1245.43,2228.11,-2228.11,1245.43,42.8466,-21.8417)"><stop offset="0" style="stop-color:#2fe9ff;stop-opacity:1"/><stop offset="1" style="stop-color:#184277;stop-opacity:1"/></linearGradient><linearGradient id="_Linear4" x1="0" y1="0" x2="1" y2="0" gradientUnits="userSpaceOnUse" gradientTransform="matrix(-155.23,1471.96,-1471.96,-155.23,1203.18,1.10002)"><stop offset="0" style="stop-color:#2fe9ff;stop-opacity:1"/><stop offset="1" style="stop-color:#184277;stop-opacity:1"/></linearGradient><linearGradient id="_Linear5" x1="0" y1="0" x2="1" y2="0" gradientUnits="userSpaceOnUse" gradientTransform="matrix(-155.23,1471.96,-1471.96,-155.23,1778.8,61.8)"><stop offset="0" style="stop-color:#2fe9ff;stop-opacity:1"/><stop offset="1" style="stop-color:#184277;stop-opacity:1"/></linearGradient><linearGradient id="_Linear6" x1="0" y1="0" x2="1" y2="0" gradientUnits="userSpaceOnUse" gradientTransform="matrix(-155.23,1471.96,-1471.96,-155.23,1735.6,57.2417)"><stop offset="0" style="stop-color:#2fe9ff;stop-opacity:1"/><stop offset="1" style="stop-color:#184277;stop-opacity:1"/></linearGradient><linearGradient id="_Linear7" x1="0" y1="0" x2="1" y2="0" gradientUnits="userSpaceOnUse" gradientTransform="matrix(-155.23,1471.96,-1471.96,-155.23,1697.26,53.2)"><stop offset="0" style="stop-color:#2fe9ff;stop-opacity:1"/><stop offset="1" style="stop-color:#184277;stop-opacity:1"/></linearGradient><linearGradient id="_Linear8" x1="0" y1="0" x2="1" y2="0" gradientUnits="userSpaceOnUse" gradientTransform="matrix(-155.23,1471.96,-1471.96,-155.23,1658.6,49.125)"><stop offset="0" style="stop-color:#2fe9ff;stop-opacity:1"/><stop offset="1" style="stop-color:#184277;stop-opacity:1"/></linearGradient><linearGradient id="_Linear9" x1="0" y1="0" x2="1" y2="0" gradientUnits="userSpaceOnUse" gradientTransform="matrix(-155.23,1471.96,-1471.96,-155.23,1619.8,45.0375)"><stop offset="0" style="stop-color:#2fe9ff;stop-opacity:1"/><stop offset="1" style="stop-color:#184277;stop-opacity:1"/></linearGradient><linearGradient id="_Linear10" x1="0" y1="0" x2="1" y2="0" gradientUnits="userSpaceOnUse" gradientTransform="matrix(-155.23,1471.96,-1471.96,-155.23,1581.55,41)"><stop offset="0" style="stop-color:#2fe9ff;stop-opacity:1"/><stop offset="1" style="stop-color:#184277;stop-opacity:1"/></linearGradient><linearGradient id="_Linear11" x1="0" y1="0" x2="1" y2="0" gradientUnits="userSpaceOnUse" gradientTransform="matrix(-155.23,1471.96,-1471.96,-155.23,1544.14,37.0542)"><stop offset="0" style="stop-color:#2fe9ff;stop-opacity:1"/><stop offset="1" style="stop-color:#184277;stop-opacity:1"/></linearGradient><linearGradient id="_Linear12" x1="0" y1="0" x2="1" y2="0" gradientUnits="userSpaceOnUse" gradientTransform="matrix(-155.23,1471.96,-1471.96,-155.23,1508.05,33.25)"><stop offset="0" style="stop-color:#2fe9ff;stop-opacity:1"/><stop offset="1" style="stop-color:#184277;stop-opacity:1"/></linearGradient><linearGradient id="_Linear13" x1="0" y1="0" x2="1" y2="0" gradientUnits="userSpaceOnUse" gradientTransform="matrix(-155.23,1471.96,-1471.96,-155.23,1473.22,29.5792)"><stop offset="0" style="stop-color:#2fe9ff;stop-opacity:1"/><stop offset="1" style="stop-color:#184277;stop-opacity:1"/></linearGradient><linearGradient id="_Linear14" x1="0" y1="0" x2="1" y2="0" gradientUnits="userSpaceOnUse" gradientTransform="matrix(-155.23,1471.96,-1471.96,-155.23,1439.47,26.0167)"><stop offset="0" style="stop-color:#2fe9ff;stop-opacity:1"/><stop offset="1" style="stop-color:#184277;stop-opacity:1"/></linearGradient><linearGradient id="_Linear15" x1="0" y1="0" x2="1" y2="0" gradientUnits="userSpaceOnUse" gradientTransform="matrix(-155.23,1471.96,-1471.96,-155.23,1406.68,22.5583)"><stop offset="0" style="stop-color:#2fe9ff;stop-opacity:1"/><stop offset="1" style="stop-color:#184277;stop-opacity:1"/></linearGradient><linearGradient id="_Linear16" x1="0" y1="0" x2="1" y2="0" gradientUnits="userSpaceOnUse" gradientTransform="matrix(-155.23,1471.96,-1471.96,-155.23,1374.85,19.2)"><stop offset="0" style="stop-color:#2fe9ff;stop-opacity:1"/><stop offset="1" style="stop-color:#184277;stop-opacity:1"/></linearGradient><linearGradient id="_Linear17" x1="0" y1="0" x2="1" y2="0" gradientUnits="userSpaceOnUse" gradientTransform="matrix(-155.23,1471.96,-1471.96,-155.23,1343.85,15.9333)"><stop offset="0" style="stop-color:#2fe9ff;stop-opacity:1"/><stop offset="1" style="stop-color:#184277;stop-opacity:1"/></linearGradient><linearGradient id="_Linear18" x1="0" y1="0" x2="1" y2="0" gradientUnits="userSpaceOnUse" gradientTransform="matrix(-155.23,1471.96,-1471.96,-155.23,1313.85,12.7667)"><stop offset="0" style="stop-color:#2fe9ff;stop-opacity:1"/><stop offset="1" style="stop-color:#184277;stop-opacity:1"/></linearGradient><linearGradient id="_Linear19" x1="0" y1="0" x2="1" y2="0" gradientUnits="userSpaceOnUse" gradientTransform="matrix(-155.23,1471.96,-1471.96,-155.23,1284.76,9.70418)"><stop offset="0" style="stop-color:#2fe9ff;stop-opacity:1"/><stop offset="1" style="stop-color:#184277;stop-opacity:1"/></linearGradient><linearGradient id="_Linear20" x1="0" y1="0" x2="1" y2="0" gradientUnits="userSpaceOnUse" gradientTransform="matrix(-155.23,1471.96,-1471.96,-155.23,1256.68,6.73752)"><stop offset="0" style="stop-color:#2fe9ff;stop-opacity:1"/><stop offset="1" style="stop-color:#184277;stop-opacity:1"/></linearGradient><linearGradient id="_Linear21" x1="0" y1="0" x2="1" y2="0" gradientUnits="userSpaceOnUse" gradientTransform="matrix(-155.23,1471.96,-1471.96,-155.23,1229.47,3.87085)"><stop offset="0" style="stop-color:#2fe9ff;stop-opacity:1"/><stop offset="1" style="stop-color:#184277;stop-opacity:1"/></linearGradient><linearGradient id="_Linear22" x1="0" y1="0" x2="1" y2="0" gradientUnits="userSpaceOnUse" gradientTransform="matrix(-155.23,1471.96,-1471.96,-155.23,1177.85,-1.57498)"><stop offset="0" style="stop-color:#2fe9ff;stop-opacity:1"/><stop offset="1" style="stop-color:#184277;stop-opacity:1"/></linearGradient><linearGradient id="_Linear23" x1="0" y1="0" x2="1" y2="0" gradientUnits="userSpaceOnUse" gradientTransform="matrix(-155.23,1471.96,-1471.96,-155.23,1153.55,-4.13332)"><stop offset="0" style="stop-color:#2fe9ff;stop-opacity:1"/><stop offset="1" style="stop-color:#184277;stop-opacity:1"/></linearGradient><linearGradient id="_Linear24" x1="0" y1="0" x2="1" y2="0" gradientUnits="userSpaceOnUse" gradientTransform="matrix(-155.23,1471.96,-1471.96,-155.23,1130.47,-6.56665)"><stop offset="0" style="stop-color:#2fe9ff;stop-opacity:1"/><stop offset="1" style="stop-color:#184277;stop-opacity:1"/></linearGradient><linearGradient id="_Linear25" x1="0" y1="0" x2="1" y2="0" gradientUnits="userSpaceOnUse" gradientTransform="matrix(-155.23,1471.96,-1471.96,-155.23,1108.72,-8.86665)"><stop offset="0" style="stop-color:#2fe9ff;stop-opacity:1"/><stop offset="1" style="stop-color:#184277;stop-opacity:1"/></linearGradient><linearGradient id="_Linear26" x1="0" y1="0" x2="1" y2="0" gradientUnits="userSpaceOnUse" gradientTransform="matrix(-155.23,1471.96,-1471.96,-155.23,1088.47,-11)"><stop offset="0" style="stop-color:#2fe9ff;stop-opacity:1"/><stop offset="1" style="stop-color:#184277;stop-opacity:1"/></linearGradient><linearGradient id="_Linear27" x1="0" y1="0" x2="1" y2="0" gradientUnits="userSpaceOnUse" gradientTransform="matrix(-155.23,1471.96,-1471.96,-155.23,1070.1,-12.9333)"><stop offset="0" style="stop-color:#2fe9ff;stop-opacity:1"/><stop offset="1" style="stop-color:#184277;stop-opacity:1"/></linearGradient><linearGradient id="_Linear28" x1="0" y1="0" x2="1" y2="0" gradientUnits="userSpaceOnUse" gradientTransform="matrix(-155.23,1471.96,-1471.96,-155.23,1054.1,-14.625)"><stop offset="0" style="stop-color:#2fe9ff;stop-opacity:1"/><stop offset="1" style="stop-color:#184277;stop-opacity:1"/></linearGradient><linearGradient id="_Linear29" x1="0" y1="0" x2="1" y2="0" gradientUnits="userSpaceOnUse" gradientTransform="matrix(-155.23,1471.96,-1471.96,-155.23,1041.05,-16)"><stop offset="0" style="stop-color:#2fe9ff;stop-opacity:1"/><stop offset="1" style="stop-color:#184277;stop-opacity:1"/></linearGradient><linearGradient id="_Linear30" x1="0" y1="0" x2="1" y2="0" gradientUnits="userSpaceOnUse" gradientTransform="matrix(-155.23,1471.96,-1471.96,-155.23,1032.39,-16.9125)"><stop offset="0" style="stop-color:#2fe9ff;stop-opacity:1"/><stop offset="1" style="stop-color:#184277;stop-opacity:1"/></linearGradient><linearGradient id="_Linear31" x1="0" y1="0" x2="1" y2="0" gradientUnits="userSpaceOnUse" gradientTransform="matrix(-155.23,1471.96,-1471.96,-155.23,1123.6,-7.29582)"><stop offset="0" style="stop-color:#2fe9ff;stop-opacity:1"/><stop offset="1" style="stop-color:#184277;stop-opacity:1"/></linearGradient><linearGradient id="_Linear32" x1="0" y1="0" x2="1" y2="0" gradientUnits="userSpaceOnUse" gradientTransform="matrix(-155.23,1471.96,-1471.96,-155.23,689.097,-53.1167)"><stop offset="0" style="stop-color:#2fe9ff;stop-opacity:1"/><stop offset="1" style="stop-color:#184277;stop-opacity:1"/></linearGradient><linearGradient id="_Linear33" x1="0" y1="0" x2="1" y2="0" gradientUnits="userSpaceOnUse" gradientTransform="matrix(-155.23,1471.96,-1471.96,-155.23,1170.22,-2.37915)"><stop offset="0" style="stop-color:#2fe9ff;stop-opacity:1"/><stop offset="1" style="stop-color:#184277;stop-opacity:1"/></linearGradient><linearGradient id="_Linear34" x1="0" y1="0" x2="1" y2="0" gradientUnits="userSpaceOnUse" gradientTransform="matrix(-155.23,1471.96,-1471.96,-155.23,1183.76,-0.949984)"><stop offset="0" style="stop-color:#2fe9ff;stop-opacity:1"/><stop offset="1" style="stop-color:#184277;stop-opacity:1"/></linearGradient><linearGradient id="_Linear35" x1="0" y1="0" x2="1" y2="0" gradientUnits="userSpaceOnUse" gradientTransform="matrix(-155.23,1471.96,-1471.96,-155.23,1187.3,-0.574984)"><stop offset="0" style="stop-color:#2fe9ff;stop-opacity:1"/><stop offset="1" style="stop-color:#184277;stop-opacity:1"/></linearGradient><linearGradient id="_Linear36" x1="0" y1="0" x2="1" y2="0" gradientUnits="userSpaceOnUse" gradientTransform="matrix(-155.23,1471.96,-1471.96,-155.23,1184.22,-0.899984)"><stop offset="0" style="stop-color:#2fe9ff;stop-opacity:1"/><stop offset="1" style="stop-color:#184277;stop-opacity:1"/></linearGradient><linearGradient id="_Linear37" x1="0" y1="0" x2="1" y2="0" gradientUnits="userSpaceOnUse" gradientTransform="matrix(-155.23,1471.96,-1471.96,-155.23,1175.93,-1.77915)"><stop offset="0" style="stop-color:#2fe9ff;stop-opacity:1"/><stop offset="1" style="stop-color:#184277;stop-opacity:1"/></linearGradient><linearGradient id="_Linear38" x1="0" y1="0" x2="1" y2="0" gradientUnits="userSpaceOnUse" gradientTransform="matrix(-155.23,1471.96,-1471.96,-155.23,1163.85,-3.04998)"><stop offset="0" style="stop-color:#2fe9ff;stop-opacity:1"/><stop offset="1" style="stop-color:#184277;stop-opacity:1"/></linearGradient><linearGradient id="_Linear39" x1="0" y1="0" x2="1" y2="0" gradientUnits="userSpaceOnUse" gradientTransform="matrix(-155.23,1471.96,-1471.96,-155.23,1149.01,-4.61248)"><stop offset="0" style="stop-color:#2fe9ff;stop-opacity:1"/><stop offset="1" style="stop-color:#184277;stop-opacity:1"/></linearGradient><linearGradient id="_Linear40" x1="0" y1="0" x2="1" y2="0" gradientUnits="userSpaceOnUse" gradientTransform="matrix(1245.43,2228.11,-2228.11,1245.43,-18.2784,12.3417)"><stop offset="0" style="stop-color:#2fe9ff;stop-opacity:1"/><stop offset="1" style="stop-color:#184277;stop-opacity:1"/></linearGradient><linearGradient id="_Linear41" x1="0" y1="0" x2="1" y2="0" gradientUnits="userSpaceOnUse" gradientTransform="matrix(-609.579,990.563,-990.563,-609.579,1728.01,-64.3625)"><stop offset="0" style="stop-color:#2fe9ff;stop-opacity:1"/><stop offset="1" style="stop-color:#184277;stop-opacity:1"/></linearGradient><linearGradient id="_Linear42" x1="0" y1="0" x2="1" y2="0" gradientUnits="userSpaceOnUse" gradientTransform="matrix(-609.579,990.563,-990.563,-609.579,1728.01,-64.3625)"><stop offset="0" style="stop-color:#2fe9ff;stop-opacity:1"/><stop offset="1" style="stop-color:#184277;stop-opacity:1"/></linearGradient><linearGradient id="_Linear43" x1="0" y1="0" x2="1" y2="0" gradientUnits="userSpaceOnUse" gradientTransform="matrix(1051,1245.43,-1245.43,1051,27.305,187.446)"><stop offset="0" style="stop-color:#2fe9ff;stop-opacity:1"/><stop offset="1" style="stop-color:#184277;stop-opacity:1"/></linearGradient><linearGradient id="_Linear44" x1="0" y1="0" x2="1" y2="0" gradientUnits="userSpaceOnUse" gradientTransform="matrix(312.671,-643.733,643.733,312.671,222.868,2063.09)"><stop offset="0" style="stop-color:#2fe9ff;stop-opacity:1"/><stop offset="1" style="stop-color:#184277;stop-opacity:1"/></linearGradient><linearGradient id="_Linear45" x1="0" y1="0" x2="1" y2="0" gradientUnits="userSpaceOnUse" gradientTransform="matrix(312.671,-643.733,643.733,312.671,110.407,1964.42)"><stop offset="0" style="stop-color:#2fe9ff;stop-opacity:1"/><stop offset="1" style="stop-color:#184277;stop-opacity:1"/></linearGradient><linearGradient id="_Linear46" x1="0" y1="0" x2="1" y2="0" gradientUnits="userSpaceOnUse" gradientTransform="matrix(-609.579,990.563,-990.563,-609.579,2143.35,191.242)"><stop offset="0" style="stop-color:#2fe9ff;stop-opacity:1"/><stop offset="1" style="stop-color:#184277;stop-opacity:1"/></linearGradient><linearGradient id="_Linear47" x1="0" y1="0" x2="1" y2="0" gradientUnits="userSpaceOnUse" gradientTransform="matrix(-609.579,990.563,-990.563,-609.579,2112.18,172.063)"><stop offset="0" style="stop-color:#2fe9ff;stop-opacity:1"/><stop offset="1" style="stop-color:#184277;stop-opacity:1"/></linearGradient><linearGradient id="_Linear48" x1="0" y1="0" x2="1" y2="0" gradientUnits="userSpaceOnUse" gradientTransform="matrix(-609.579,990.563,-990.563,-609.579,2100.26,164.713)"><stop offset="0" style="stop-color:#2fe9ff;stop-opacity:1"/><stop offset="1" style="stop-color:#184277;stop-opacity:1"/></linearGradient><linearGradient id="_Linear49" x1="0" y1="0" x2="1" y2="0" gradientUnits="userSpaceOnUse" gradientTransform="matrix(-609.579,990.563,-990.563,-609.579,2155.51,198.721)"><stop offset="0" style="stop-color:#2fe9ff;stop-opacity:1"/><stop offset="1" style="stop-color:#184277;stop-opacity:1"/></linearGradient><linearGradient id="_Linear50" x1="0" y1="0" x2="1" y2="0" gradientUnits="userSpaceOnUse" gradientTransform="matrix(-609.579,990.563,-990.563,-609.579,2097.01,162.713)"><stop offset="0" style="stop-color:#2fe9ff;stop-opacity:1"/><stop offset="1" style="stop-color:#184277;stop-opacity:1"/></linearGradient><linearGradient id="_Linear51" x1="0" y1="0" x2="1" y2="0" gradientUnits="userSpaceOnUse" gradientTransform="matrix(-609.579,990.563,-990.563,-609.579,2158.85,200.767)"><stop offset="0" style="stop-color:#2fe9ff;stop-opacity:1"/><stop offset="1" style="stop-color:#184277;stop-opacity:1"/></linearGradient><linearGradient id="_Linear52" x1="0" y1="0" x2="1" y2="0" gradientUnits="userSpaceOnUse" gradientTransform="matrix(-609.579,990.563,-990.563,-609.579,2136.43,186.975)"><stop offset="0" style="stop-color:#2fe9ff;stop-opacity:1"/><stop offset="1" style="stop-color:#184277;stop-opacity:1"/></linearGradient><linearGradient id="_Linear53" x1="0" y1="0" x2="1" y2="0" gradientUnits="userSpaceOnUse" gradientTransform="matrix(-609.579,990.563,-990.563,-609.579,2118.85,176.146)"><stop offset="0" style="stop-color:#2fe9ff;stop-opacity:1"/><stop offset="1" style="stop-color:#184277;stop-opacity:1"/></linearGradient><linearGradient id="_Linear54" x1="0" y1="0" x2="1" y2="0" gradientUnits="userSpaceOnUse" gradientTransform="matrix(-609.579,990.563,-990.563,-609.579,1963.72,80.6833)"><stop offset="0" style="stop-color:#2fe9ff;stop-opacity:1"/><stop offset="1" style="stop-color:#184277;stop-opacity:1"/></linearGradient><linearGradient id="_Linear55" x1="0" y1="0" x2="1" y2="0" gradientUnits="userSpaceOnUse" gradientTransform="matrix(312.671,-643.733,643.733,312.671,391.747,2098.95)"><stop offset="0" style="stop-color:#2fe9ff;stop-opacity:1"/><stop offset="1" style="stop-color:#184277;stop-opacity:1"/></linearGradient><linearGradient id="_Linear56" x1="0" y1="0" x2="1" y2="0" gradientUnits="userSpaceOnUse" gradientTransform="matrix(312.671,-643.733,643.733,312.671,396.913,2101.46)"><stop offset="0" style="stop-color:#2fe9ff;stop-opacity:1"/><stop offset="1" style="stop-color:#184277;stop-opacity:1"/></linearGradient><linearGradient id="_Linear57" x1="0" y1="0" x2="1" y2="0" gradientUnits="userSpaceOnUse" gradientTransform="matrix(312.671,-643.733,643.733,312.671,409.622,2107.63)"><stop offset="0" style="stop-color:#2fe9ff;stop-opacity:1"/><stop offset="1" style="stop-color:#184277;stop-opacity:1"/></linearGradient><linearGradient id="_Linear58" x1="0" y1="0" x2="1" y2="0" gradientUnits="userSpaceOnUse" gradientTransform="matrix(312.671,-643.733,643.733,312.671,378.788,2092.65)"><stop offset="0" style="stop-color:#2fe9ff;stop-opacity:1"/><stop offset="1" style="stop-color:#184277;stop-opacity:1"/></linearGradient><linearGradient id="_Linear59" x1="0" y1="0" x2="1" y2="0" gradientUnits="userSpaceOnUse" gradientTransform="matrix(312.671,-643.733,643.733,312.671,407.163,2106.43)"><stop offset="0" style="stop-color:#2fe9ff;stop-opacity:1"/><stop offset="1" style="stop-color:#184277;stop-opacity:1"/></linearGradient><linearGradient id="_Linear60" x1="0" y1="0" x2="1" y2="0" gradientUnits="userSpaceOnUse" gradientTransform="matrix(312.671,-643.733,643.733,312.671,381.288,2093.87)"><stop offset="0" style="stop-color:#2fe9ff;stop-opacity:1"/><stop offset="1" style="stop-color:#184277;stop-opacity:1"/></linearGradient><linearGradient id="_Linear61" x1="0" y1="0" x2="1" y2="0" gradientUnits="userSpaceOnUse" gradientTransform="matrix(312.671,-643.733,643.733,312.671,385.163,2095.74)"><stop offset="0" style="stop-color:#2fe9ff;stop-opacity:1"/><stop offset="1" style="stop-color:#184277;stop-opacity:1"/></linearGradient><linearGradient id="_Linear62" x1="0" y1="0" x2="1" y2="0" gradientUnits="userSpaceOnUse" gradientTransform="matrix(312.671,-643.733,643.733,312.671,403.538,2104.68)"><stop offset="0" style="stop-color:#2fe9ff;stop-opacity:1"/><stop offset="1" style="stop-color:#184277;stop-opacity:1"/></linearGradient></defs></svg>