<?xml version="1.0" encoding="UTF-8" standalone="no"?><!DOCTYPE svg PUBLIC "-//W3C//DTD SVG 1.1//EN" "http://www.w3.org/Graphics/SVG/1.1/DTD/svg11.dtd"><svg width="100%" height="100%" viewBox="0 0 562 1609" version="1.1" xmlns="http://www.w3.org/2000/svg" xmlns:xlink="http://www.w3.org/1999/xlink" xml:space="preserve" xmlns:serif="http://www.serif.com/" style="fill-rule:evenodd;clip-rule:evenodd;stroke-linejoin:round;stroke-miterlimit:2;"><path d="M560.004,1249.68c-0.679,-101.15 -3.375,-494.312 -5.017,-764.429c-0.429,-71.375 -37.995,-133.517 -93.625,-166.942c-33.575,-28.595 -61.187,-60.183 -73.237,-106.537c-15.563,-59.834 -20.154,-122.442 -16.333,-184.154c0.358,-5.834 -3.251,-9.1 -7.513,-9.834c-1.988,-1.329 -4.437,-2.037 -7.275,-1.595c-13.55,2.099 -29.525,-4.017 -43.15,-5.75c-8.054,-1.026 -16.096,-1.609 -24.162,-1.909l-0.43,-0.217c-2.133,-0.033 -4.258,-0.008 -6.387,-0.004c-0.408,-0.008 -0.813,-0.004 -1.221,-0.004c-0.271,0 -0.538,0.004 -0.808,0.004c-0.275,0 -0.546,-0.004 -0.817,-0.004c-0.408,0 -0.808,-0.004 -1.213,0.004c-2.129,-0.004 -4.258,-0.029 -6.391,0.004l-0.429,0.042c-8.063,0.475 -16.109,1.058 -24.163,2.084c-13.621,1.733 -29.596,7.849 -43.15,5.75c-2.837,-0.442 -5.287,0.266 -7.275,1.595c-4.258,0.734 -7.871,4 -7.512,9.834c3.821,61.712 -0.771,124.32 -16.33,184.154c-12.053,46.354 -39.666,77.942 -73.241,106.537c-55.629,33.425 -93.196,95.567 -93.625,166.942c-1.642,270.117 -4.333,663.279 -5.013,764.429c-0.55,81.625 -1.687,163.25 -1.687,244.833c-0,67.125 51.096,80.917 90.037,91.125c58.934,15.5 124.955,22.917 190.809,22.501c65.85,0.416 131.871,-7.001 190.804,-22.501c38.942,-10.208 90.037,-24 90.042,-91.125c-0,-81.583 -1.138,-163.208 -1.688,-244.833Z" style="fill:#ffebd6;fill-rule:nonzero;"/><path d="M561.671,1488.1l-0,6.416c-0,1.959 -0.042,3.917 -0.171,5.792c-1.175,25.875 -10.371,43.292 -23.475,55.5c-1.221,1.125 -2.479,2.208 -3.779,3.25c-4.538,3.792 -9.492,6.959 -14.7,9.75c-1.138,0.625 -2.313,1.208 -3.529,1.792c-2.017,1 -4.075,2 -6.175,2.875c-0.879,0.375 -1.721,0.75 -2.605,1.083c-3.445,1.417 -6.929,2.708 -10.416,3.875c-1.763,0.583 -3.567,1.167 -5.375,1.709c-6.717,2.083 -13.396,3.833 -19.784,5.499c-14.316,3.792 -29.062,7.084 -44.1,9.875c-3.358,0.625 -6.758,1.209 -10.162,1.792c-3.067,0.583 -6.171,1.083 -9.238,1.542c-41.162,6.5 -84.258,9.625 -127.304,9.333c-43.6,0.292 -87.279,-2.916 -128.9,-9.625c-4.412,-0.625 -8.779,-1.417 -13.145,-2.25c-7.73,-1.333 -15.334,-2.833 -22.851,-4.5c-8.775,-1.875 -17.429,-3.916 -25.912,-6.167c-15.121,-3.958 -32.088,-8.458 -47.167,-16.416c-1.512,-0.834 -3.025,-1.667 -4.496,-2.542c-21.629,-12.792 -38.387,-33.75 -38.387,-72.167l0,-6.624c0,-5.001 0,-9.959 0.041,-14.959c0,-4.375 0,-8.708 0.042,-13.083c0.171,-54.959 0.759,-109.954 1.263,-164.917c-0,-2.625 0.037,-5.25 0.037,-7.875c0.046,-2.875 0.046,-5.792 0.088,-8.667c0.083,-9.583 0.125,-19.125 0.212,-28.708c0.038,-5.167 0.079,-11.042 0.121,-17.667c0,-1.625 0,-3.291 0.042,-4.958c-0,-4.75 0.042,-9.792 0.087,-15.125l0,-2.667c0.038,-3 0.038,-6.125 0.083,-9.333l0,-3.583c0.126,-16.967 0.255,-36.25 0.376,-57.542c0.045,-3.108 0.083,-6.217 0.083,-9.408c0.046,-2.563 0.046,-5.167 0.083,-7.809c0.425,-63.129 0.925,-141.124 1.475,-224.579c0.038,-4.491 0.084,-8.987 0.084,-13.525c0.041,-4.995 0.083,-9.996 0.125,-14.996c0.166,-25.995 0.333,-52.37 0.504,-78.87c-0,-2.859 0.041,-5.717 0.041,-8.53c0.088,-8.904 0.125,-17.849 0.213,-26.758l-0,-4.487c0.042,-5.505 0.083,-11.05 0.125,-16.55l-0,-6.13c0.208,-33.187 0.463,-66.279 0.629,-98.745c0.046,-5.334 0.084,-10.63 0.129,-15.879c0.038,-4.534 0.038,-9.03 0.083,-13.525c0.121,-16.588 0.209,-32.963 0.334,-49.055c-0,-4.871 0.042,-9.741 0.083,-14.529c0.046,-5.421 0.046,-10.796 0.088,-16.129c0.083,-11.55 0.125,-22.887 0.204,-34.062c0.129,-21.38 3.617,-42.001 9.958,-61.196c0.925,-2.896 1.934,-5.796 3.025,-8.613c1.888,-5.079 4.029,-10.033 6.342,-14.866c0.796,-1.721 1.637,-3.4 2.521,-5.038c1.383,-2.729 2.854,-5.463 4.362,-8.108c1.096,-1.934 2.23,-3.821 3.404,-5.713c16.171,-26.037 38.096,-47.833 64.055,-63.379c3.945,-3.358 8.104,-7.096 12.429,-11.254c3.612,-3.4 7.354,-7.096 11.046,-11c3.358,-3.575 6.762,-7.313 10.037,-11.175c13.571,-15.754 25.958,-33.896 33.017,-52.625c30.658,7.183 60.058,11.712 89.75,13.521c3.783,0.212 7.604,0.421 11.387,0.546c4.154,0.17 8.313,0.249 12.471,0.299c26.838,0.288 54.267,-1.683 83.246,-6.008c1.887,-0.3 3.775,-0.591 5.671,-0.883c4.196,-0.671 8.441,-1.388 12.72,-2.188c1.009,-0.166 2.063,-0.333 3.113,-0.541c3.525,-0.671 7.096,-1.346 10.667,-2.059c10.287,23.309 25.875,44.475 43.762,62.959c2.855,3.021 5.8,5.92 8.825,8.775c2.646,2.566 5.371,5.041 8.146,7.475c1.554,1.429 3.15,2.816 4.746,4.158c53.175,31.921 89.837,90.133 93.325,157.546c0.167,3.108 0.292,6.216 0.292,9.367c0.045,6.799 0.083,13.691 0.129,20.662c0.083,12.6 0.166,25.454 0.25,38.517c0.083,17.85 0.208,36.075 0.337,54.596c0,2.187 0.042,4.37 0.042,6.558c0.167,29.062 0.379,58.754 0.587,88.7c0.042,13.025 0.13,26.083 0.213,39.15c0.083,9.571 0.121,19.15 0.204,28.725c0.467,70.85 0.925,141.287 1.346,206.267c0.046,8.312 0.083,16.499 0.166,24.608c0.046,9.533 0.13,18.942 0.171,28.142c0.171,23.437 0.334,45.904 0.463,67.029c-0,3.32 0.042,6.554 0.042,9.787c0.254,36.629 0.504,69.096 0.67,95.867c0.042,2.708 0.042,5.375 0.042,7.958c0.167,19.625 0.254,35.833 0.337,47.875c0.209,30.584 0.505,61.129 0.755,91.708c0.083,9.75 0.212,19.542 0.296,29.296c0.041,8.334 0.125,16.579 0.208,24.871c0.212,26.875 0.333,53.792 0.379,80.708c0.042,3.959 0.042,7.875 0.042,11.834Z" style="fill:#ff5f3b;fill-rule:nonzero;"/><path d="M280.208,0c-43.458,0 -80.992,5.738 -98.679,14.054c-4.592,2.154 -7.262,5.763 -7.262,9.579l-0,65.392c-0,3.488 2.225,6.808 6.162,9.008c16.254,9.088 55.55,15.496 101.475,15.496c42.967,0 80.133,-5.612 98.054,-13.775c4.708,-2.141 7.467,-5.796 7.467,-9.671l-0,-65.825c-0,-3.587 -2.363,-7 -6.504,-9.191c-16.713,-8.859 -55.513,-15.067 -100.713,-15.067Z" style="fill:#404461;fill-rule:nonzero;"/><path d="M556.779,765.362c-31.25,33.73 -69.154,59.513 -114.558,67.071c-11.383,1.888 -25.375,1.867 -36.925,1.867c-60.188,-0 -122.296,-23.746 -161.609,-69.317c-14.112,-16.421 -25.745,-34.983 -34.145,-54.933c-15.2,-36.096 -22.109,-83.912 -17.575,-123.133c8.162,-70.617 56.55,-132.65 120.829,-161.067c28.175,-12.45 59.071,-19.95 89.937,-20.246c57.375,-0.546 112.4,28.938 151.967,70.267c0.167,3.108 0.292,6.216 0.292,9.367c0.045,6.804 0.083,13.691 0.129,20.662c0.083,12.6 0.166,25.454 0.25,38.517c0.083,17.85 0.208,36.075 0.337,54.596c0,2.187 0.042,4.37 0.042,6.558c0.167,29.058 0.379,58.754 0.587,88.746c0.042,12.979 0.125,26.041 0.209,39.1c0.083,9.575 0.15,22.371 0.233,31.945Z" style="fill:#f7b24a;fill-rule:nonzero;"/><path d="M556.546,733.417c-34.692,46.791 -90.342,77.112 -153.088,77.112c-61.237,0 -119.954,-30.575 -155.321,-80.512c-4.366,-6.179 -8.358,-12.605 -11.97,-19.238c-20.705,-38.387 -27.759,-84 -19.613,-126.842c7.729,-40.362 28.979,-77.912 59.475,-105.416c43.004,-38.725 103.825,-56.325 160.858,-45.829c46.075,8.487 88.242,34.441 116.888,71.404c0.462,0.587 0.925,1.175 1.346,1.804c0.083,12.6 0.166,25.454 0.25,38.517c0.083,17.85 0.208,36.075 0.337,54.596c0,2.187 0.042,4.37 0.042,6.558c0.167,29.058 0.379,58.754 0.587,88.704c0.042,13.021 0.125,26.083 0.209,39.142Z" style="fill:#ffebd6;fill-rule:nonzero;"/><path d="M489.742,498.842c1.695,-7.025 0.933,-14.08 -4.392,-20.58c-6.513,-7.945 -22.084,-12.066 -31.733,-15.07c-12.317,-3.842 -25.105,-6.167 -37.984,-6.904l-0.504,0.2c-19.192,5.579 -16.612,26.754 -14.975,42.216c0.146,1.396 6.938,57.188 10.704,81.004c0.592,3.755 0.463,11.759 2.979,14.742c2.513,2.983 7.871,2.554 10.134,-0.513c14.741,-20.004 29.9,-40.5 44.846,-60.662c6.729,-9.083 17.854,-21.717 20.925,-34.433Z" style="fill:#f7b24a;fill-rule:nonzero;"/><path d="M388.25,610.904c-20.721,-15.271 -41.367,-30.637 -62.075,-45.925c-10.354,-7.642 -20.813,-15.142 -31.117,-22.85c-24.708,-18.467 -38.316,-0.287 -40.742,4.529c-3.666,7.28 -4.899,10.863 -7.512,18.588c-6.858,20.279 -24.45,77.158 16.688,68.404c25.616,-5.454 32.295,-3.913 58.541,-7.154c13.488,-1.667 26.967,-3.358 40.442,-5.104c6.725,-0.875 13.512,-1.575 20.204,-2.667c3.496,-0.571 11.221,-3.658 5.571,-7.821Z" style="fill:#f7b24a;fill-rule:nonzero;"/><path d="M400.758,590.992c-3.729,-23.35 -7.333,-46.717 -11,-70.075c-1.862,-11.846 -2.979,-16.384 -4.858,-28.23c-1.113,-6.983 -6.925,-36.687 -30.184,-30.904c-22.941,5.704 -34.645,9.425 -54.687,21.742c-19.183,11.788 -16.367,36.254 -7.304,42.792c30.7,22.158 61.4,47.483 92.1,69.641c5.608,4.046 17.629,5.771 15.933,-4.966Z" style="fill:#f7b24a;fill-rule:nonzero;"/><path d="M555.708,599.013l-0.462,0.045c-40.067,4.996 -75.325,7 -115.309,12.334c-6.466,0.879 -10.791,-6.471 -6.929,-11.717c23.646,-30.367 37.813,-55.371 60.621,-86.413c6.317,-8.595 15.921,-12.291 26.308,-9.058c16.838,5.229 28.23,25.242 35.434,40.213c0.083,17.85 0.208,36.075 0.337,54.596Z" style="fill:#f7b24a;fill-rule:nonzero;"/><path d="M420.258,643.404c-0.575,9.108 3.6,20.538 5.196,29.454c2.033,11.325 4.063,22.646 6.092,33.967c-0,6.079 2.329,12.979 3.404,18.979c0.596,3.329 2.854,16.446 5.058,29.284c2.617,15.233 19.163,23.924 33.013,17.058c13.804,-6.846 35.725,-28.596 49.479,-43.1c6.754,-7.121 5.554,-18.571 -2.484,-24.196c-17.741,-12.417 -35.454,-24.875 -53.166,-37.317c-11.342,-7.966 -22.538,-16.229 -34.075,-23.904c-3.596,-2.391 -11.821,-8.087 -12.467,-0.862l-0.05,0.637Z" style="fill:#f7b24a;fill-rule:nonzero;"/><path d="M332.262,721.783c3.884,-5.516 7.659,-11.116 11.484,-16.675c2.162,-3.145 26.671,-37.654 34.4,-48.725c3.454,-4.945 19.062,-23.979 4.966,-23.979c-12.245,0 -25.279,3.117 -37.445,4.617c-25.813,3.175 -51.617,6.375 -77.425,9.566c-15.067,1.871 -24.796,17.209 -19.659,31.496c4.854,13.496 11.571,26.325 19.838,38.046c6.487,9.192 39.204,40.638 63.841,5.654Z" style="fill:#f7b24a;fill-rule:nonzero;"/><path d="M556.312,690.846c-2.987,19.721 -25.929,11.45 -29.125,8.929c-31.5,-24.867 -60.933,-44.267 -93.737,-67.371c-3.317,-2.308 -2.054,-7.517 1.979,-8.058c41.242,-8.238 78.488,-14.325 120.321,-18.775c0.162,27.954 4.875,56.816 0.562,85.275Z" style="fill:#f7b24a;fill-rule:nonzero;"/><path d="M408.104,643.533c-1.738,-4.133 -4.038,-6.158 -6.971,-2.071c0,0 -52.337,72.684 -75.696,104.905c-5.991,8.266 -3.254,20.1 5.942,24.541c21.479,10.384 45.558,16.213 71.013,16.213l0.325,-0c16.75,-0.033 29.224,-15.563 26.262,-32.05c-2.696,-14.996 -5.392,-29.996 -8.087,-44.988c-2.092,-11.616 -4.18,-23.233 -6.267,-34.85c-1.85,-10.279 -2.45,-22.008 -6.521,-31.7Z" style="fill:#f7b24a;fill-rule:nonzero;"/><path d="M176.404,752.758l0,3.317c-0.758,35.071 -13.987,69.217 -37.046,95.638c-22.808,26.12 -53.246,42.674 -87.479,48.387c-8.187,1.342 -40.629,0.858 -47.854,-0.233c0.046,-4.496 0.092,-11.846 0.092,-16.384c0.041,-4.995 0.083,-9.996 0.125,-14.996c0.17,-25.995 0.337,-52.37 0.504,-78.87c-0,-2.859 0.041,-5.717 0.041,-8.53c0.088,-8.904 0.125,-17.849 0.213,-26.754l-0,-4.491c0.042,-5.505 0.083,-11.05 0.125,-16.55l-0,-6.134c0.208,-33.183 0.463,-66.275 0.629,-98.741c0.042,-5.334 0.084,-10.63 0.125,-15.875c0.042,-4.538 0.55,-16.067 0.588,-20.563c6.133,-0.796 10.583,0.021 16.804,-0.067c44.266,-0.416 91.754,26.242 120.4,60.092c22.762,26.925 32.687,65.517 32.733,100.754Z" style="fill:#f7b24a;fill-rule:nonzero;"/><path d="M163.046,748.075c-0,75.767 -61.446,137.217 -137.171,137.217c-7.354,-0 -14.617,-0.588 -21.758,-1.809c0.041,-4.995 0.083,-9.996 0.125,-14.996c0.17,-25.995 0.337,-52.37 0.504,-78.87c-0,-2.859 0.041,-5.717 0.041,-8.53c0.088,-8.904 0.125,-17.849 0.213,-26.754l-0,-4.491c0.042,-5.505 0.083,-11.05 0.125,-16.55l-0,-6.134c0.208,-33.183 0.463,-66.275 0.629,-98.741c0.042,-5.334 0.084,-10.63 0.125,-15.875c14.575,-2.229 29.483,-2.1 44.058,0.587c33.184,6.133 63.546,24.779 84.213,51.45c18.396,23.729 28.896,53.425 28.896,83.496Z" style="fill:#ffebd6;fill-rule:nonzero;"/><path d="M40.883,728.454c10.438,-14.171 21.175,-28.683 31.758,-42.962c4.013,-5.409 8.013,-10.842 11.43,-16.659c2.821,-4.796 6.979,-10.925 6.016,-16.791c-1.037,-6.325 -10.725,-10.334 -15.895,-12.734c-14.159,-6.562 -30.109,-8.562 -45.584,-8.562c-3.629,0.004 -5.579,2.854 -6.746,6.004c-2.462,6.612 1.192,27.588 3.121,39.813c2.204,13.937 4.408,27.875 6.613,41.816c0.42,2.658 0.329,8.325 2.108,10.438c1.783,2.116 5.575,1.808 7.179,-0.363Z" style="fill:#f7b24a;fill-rule:nonzero;"/><path d="M13.567,748.621c-2.859,0.462 -5.713,0.842 -8.567,1.221c0.042,-5.505 0.083,-11.05 0.125,-16.55c4.2,3.15 8.442,6.258 12.683,9.408c4.284,3.15 -1.554,5.5 -4.241,5.921Z" style="fill:#f7b24a;fill-rule:nonzero;"/><path d="M13.396,733.25c-2.771,-2.017 -5.5,-4.075 -8.271,-6.092c0.208,-33.183 0.463,-66.275 0.629,-98.741c0.967,0.254 1.85,0.712 2.563,1.471c4.075,4.07 3.737,14.32 4.579,19.612c1.383,8.946 2.77,17.933 4.154,26.925c2.733,17.679 5.379,35.404 8.15,53.088c1.262,8.104 -7.646,6.804 -11.804,3.737Z" style="fill:#f7b24a;fill-rule:nonzero;"/><path d="M140.121,722.617c-2.275,-12.192 -6.796,-23.934 -12.988,-34.671c-4.791,-8.313 -11.016,-23.492 -22.941,-20.429c-12.484,3.204 -19.475,15.345 -26.03,25.391c-8.775,13.442 -19.095,25.871 -28.608,38.784c-2.467,3.345 0.292,8.012 4.413,7.462c25.479,-3.396 50.983,-6.766 76.512,-9.946c3.625,-0.454 10.604,-1.433 9.642,-6.591Z" style="fill:#f7b24a;fill-rule:nonzero;"/><path d="M38.537,765.571c-0.408,6.471 9.671,54.258 10.434,58.517c0.891,4.962 1.783,9.933 2.671,14.895c0.658,3.675 2.141,26.984 17.05,20.534c20.87,-9.029 32.212,-15.788 47.4,-32.605c1.629,-1.808 3.845,-8.829 -7.067,-17.958c-15.138,-12.654 -21.258,-14.908 -37.4,-26.25c-8.054,-5.658 -16.004,-11.521 -24.2,-16.975c-2.55,-1.696 -8.392,-5.741 -8.854,-0.608l-0.034,0.45Z" style="fill:#f7b24a;fill-rule:nonzero;"/><path d="M11.087,772.225c-2.058,2.983 -4.158,5.925 -6.3,8.862c0.088,-8.904 0.125,-17.849 0.213,-26.754c3.358,-0.421 6.675,-0.712 9.912,-0.712c10.917,-0 -1.179,14.741 -3.825,18.604Z" style="fill:#f7b24a;fill-rule:nonzero;"/><path d="M49.937,757.688c20.996,14.774 42.775,28.52 62.938,44.441c10.191,8.05 18.471,-1.883 22.842,-10.854c5.708,-11.712 7.837,-24.267 7.837,-37.242c0,-18.341 -26.738,-10.712 -37.438,-9.529c-18.387,2.042 -36.762,4.388 -54.912,8.017c-2.575,0.341 -3.388,3.666 -1.267,5.167Z" style="fill:#f7b24a;fill-rule:nonzero;"/><path d="M42.333,851.554c0.292,1.763 2.788,16.25 -5.796,18.017c-6.637,1.371 -3.649,0.85 -10.662,0.85c-7.396,-0 -14.617,-0.671 -21.633,-1.934c0.17,-25.995 0.337,-52.37 0.504,-78.87l19.321,-22.205c2.183,-3.066 3.908,-1.554 5.208,1.559c3.067,7.221 9.95,65.237 13.058,82.583Z" style="fill:#f7b24a;fill-rule:nonzero;"/><path d="M414.362,1343.68c0,1.204 -0.008,2.413 -0.033,3.584c-0.804,38.083 -16.371,75.995 -41.108,104.704c-24.45,28.333 -58.38,47.625 -95.084,53.791c-8.808,1.5 -17.733,2.25 -26.662,2.25c-46.504,0 -94.788,-18.541 -125.146,-54.208c-10.921,-12.833 -19.892,-27.333 -26.408,-42.958c-18.859,-45.084 -16.338,-97.625 6.258,-140.875c6.567,-12.542 14.758,-24.25 24.354,-34.625c30.071,-32.542 75.454,-53.638 119.459,-54.05c47.516,-0.454 95.366,20.091 126.079,56.841c24.437,29.209 38.246,67.25 38.291,105.546Z" style="fill:#f7b24a;fill-rule:nonzero;"/><path d="M398.629,1344.55c-0,82.25 -65.883,148.917 -147.154,148.917c-47.342,-0 -92.688,-23.917 -120.013,-62.959c-3.375,-4.833 -6.466,-9.833 -9.245,-15.041c-16.025,-30 -21.475,-65.667 -15.159,-99.167c5.954,-31.541 22.384,-60.917 45.946,-82.417c33.242,-30.291 80.229,-44.041 124.288,-35.833c35.6,6.625 68.179,26.917 90.333,55.833c19.733,25.75 31.004,58.005 31.004,90.667Z" style="fill:#ffebd6;fill-rule:nonzero;"/><path d="M311.496,1229.76c-7.009,-5.291 -17.504,-7.916 -24.138,-9.791c-8.662,-2.375 -17.383,-3 -26.304,-3.792c-15.038,-1.292 -15.937,20.542 -14.396,30.292c3.525,22.208 6.996,44.416 10.467,66.625c0.458,2.921 0.358,9.212 2.308,11.541c1.946,2.338 6.092,2 7.846,-0.416c11.417,-15.667 23.338,-31.579 34.729,-47.542c4.571,-6.375 10.021,-14.417 13.184,-21.583c1.795,-4.125 3.783,-8.542 3.545,-13.125c-0.271,-5.209 -3.166,-9.167 -7.241,-12.209Z" style="fill:#f7b24a;fill-rule:nonzero;"/><path d="M235.512,1335.64c-14.837,-11.041 -29.62,-22.162 -44.446,-33.25c-7.412,-5.541 -14.837,-11.083 -22.283,-16.579l-0.633,-0.462c-7.584,-4.209 -15.033,-5 -21.642,-1.875c-11.787,5.625 -15.612,23.833 -17.312,35.041c-1.288,8.505 -1.95,15.755 1.125,24.251c2.354,6.499 11.833,7.087 17.583,7.374c13.55,0.625 26.8,-1.5 40.196,-3.208c9.654,-1.204 19.308,-2.417 28.954,-3.667c4.817,-0.62 9.675,-1.162 14.471,-1.958c2.5,-0.417 8.029,-2.625 3.987,-5.667Z" style="fill:#f7b24a;fill-rule:nonzero;"/><path d="M246.604,1319.97c-2.717,-17.584 -5.342,-35.167 -8.008,-52.75c-1.896,-12.459 -1.984,-28.292 -9.067,-39.375c-2.35,-3.667 -6.475,-5.5 -10.742,-5.709c-4.429,-0.25 -9.058,0.834 -13.179,2.417c-14.704,5.625 -43.492,17.333 -41.679,37c0.492,5.333 3.287,9.958 6.646,14.083c21.475,16 42.954,32.046 64.429,48.084c4.079,3.041 12.833,4.337 11.6,-3.75Z" style="fill:#f7b24a;fill-rule:nonzero;"/><path d="M367.829,1320.47c6.271,-6.625 4.796,-15.458 2.313,-23.334c-2.405,-6.375 -5.296,-12.5 -8.646,-18.416c-3.242,-5.667 -6.93,-11.083 -10.954,-16.25l-0.455,-0.459c-4.183,-5.333 -9.912,-6.041 -15.612,-4.75c-6.554,1.5 -12.159,5.751 -16.088,11.209c-14.337,19.962 -28.424,40.166 -43.375,59.625c-2.75,3.75 0.325,9 4.917,8.417c24.971,-3.375 49.958,-6.709 74.971,-9.917c4.821,-0.621 9.504,-2.542 12.867,-6.042l0.062,-0.083Z" style="fill:#f7b24a;fill-rule:nonzero;"/><path d="M346.779,1421.64c-0.142,-1.458 -0.537,-2.875 -1.242,-4.25c-4.195,-8.166 -13.033,-13.041 -20.233,-18.166c-8.296,-5.875 -16.596,-11.75 -24.887,-17.667c-8.788,-6.25 -17.463,-12.708 -26.404,-18.75c-2.792,-1.875 -9.163,-6.333 -9.667,-0.667l-0.034,0.5c-0.45,7.125 2.784,16.125 4.026,23.084c1.57,8.875 3.145,17.792 4.72,26.666c0,4.75 1.804,10.167 2.638,14.875c0.32,1.792 3.896,17.292 5.254,22.5c1.796,6.834 5.937,12.875 13.083,14.751c9.054,2.333 19.575,-5.292 26.963,-10.042c6.829,-4.375 13.529,-9.542 18.791,-15.75c3.909,-4.625 7.609,-10.792 6.992,-17.084Z" style="fill:#f7b24a;fill-rule:nonzero;"/><path d="M236,1353.97c-9.508,-0 -19.629,2.458 -29.075,3.625c-18.5,2.292 -37,4.625 -55.496,6.958c-6.854,0.833 -16.608,4.458 -20.371,10.583c-4.679,7.667 0.513,17.875 4.059,24.917c4.345,8.583 8.879,17.167 15.625,24.167c5.595,5.792 13.183,10.375 21.358,11.041c9.012,0.709 16.671,-4.416 22.817,-10.541c4.058,-4.042 7.479,-8.75 10.712,-13.458c8.538,-12.417 19.771,-24.955 26.513,-38.455c2.683,-3.879 14.804,-18.837 3.858,-18.837Z" style="fill:#f7b24a;fill-rule:nonzero;"/><path d="M371.712,1341.26c-8.337,-5.954 -23.571,-2.583 -32.562,-1.583c-20.717,2.292 -41.088,6.292 -61.696,9.042c-2.829,0.416 -3.725,4.083 -1.387,5.75c17.087,12.166 34.408,24 51.42,36.291c4.3,3.084 8.575,6.209 12.825,9.375c2.988,2.25 5.975,5.25 9.43,6.709c2.133,0.875 4.458,1.083 6.687,0.416c11.571,-3.541 15.521,-22.791 17.846,-32.5c1.925,-8.041 4.667,-16.833 2.775,-25.125c-0.888,-3.87 -2.792,-6.583 -5.338,-8.375Z" style="fill:#f7b24a;fill-rule:nonzero;"/><path d="M269.396,1451.76c-2.171,-12.249 -4.346,-24.458 -6.521,-36.708c-1.521,-8.542 -6.35,-41.917 -9.317,-49.083c-1.266,-3.038 -2.942,-4.542 -5.083,-1.496l-49.779,70.121c-6.596,9.291 -0.05,25.125 9.304,29.833c12.483,6.25 27.688,7.458 41.396,7.458c1.22,0 2.437,-0.041 3.65,-0.041c10.904,-0.375 18.258,-9.334 16.35,-20.084Z" style="fill:#f7b24a;fill-rule:nonzero;"/><path d="M171.341,385.758c0,1.221 0,2.396 -0.041,3.571c-0.8,38.096 -14.896,78.417 -39.633,107.1c-24.446,28.35 -60.813,45.129 -97.521,51.304c-8.821,1.471 -17.725,2.225 -26.671,2.225l-1.175,0c-0,-4.871 0.042,-9.741 0.083,-14.529c0.046,-5.421 0.046,-10.796 0.088,-16.129c0.083,-11.55 0.125,-22.887 0.204,-34.062c0.129,-21.38 3.617,-42.001 9.958,-61.196c0.925,-2.896 1.934,-5.796 3.025,-8.613c1.888,-5.079 4.029,-10.033 6.342,-14.866c0.796,-1.721 1.637,-3.4 2.521,-5.038c1.383,-2.729 2.854,-5.463 4.362,-8.108c1.096,-1.934 2.23,-3.821 3.404,-5.713c16.171,-26.037 38.096,-47.833 64.055,-63.379c3.945,-3.358 8.104,-7.096 12.429,-11.254c3.612,-3.4 7.354,-7.096 11.046,-11c3.358,-3.575 6.762,-7.313 10.037,-11.175c22.517,28.646 37.446,64.283 37.487,100.862Z" style="fill:#f7b24a;fill-rule:nonzero;"/><path d="M154.646,386.496c-0,82.233 -65.9,148.933 -147.171,148.933l-1.092,0c0.046,-5.421 0.046,-10.796 0.088,-16.129c0.083,-11.55 0.125,-22.887 0.204,-34.062c0.129,-21.38 3.617,-42.001 9.958,-61.196c0.925,-2.896 1.934,-5.796 3.025,-8.613c1.888,-5.079 4.029,-10.033 6.342,-14.866c0.796,-1.721 1.637,-3.4 2.521,-5.038c1.383,-2.729 2.854,-5.463 4.362,-8.108c1.096,-1.934 2.23,-3.821 3.404,-5.713c16.171,-26.037 38.096,-47.833 64.055,-63.379c3.945,-3.358 8.104,-7.096 12.429,-11.254c3.612,-3.4 7.354,-7.096 11.046,-11c19.612,25.7 30.829,57.871 30.829,90.425Z" style="fill:#ffebd6;fill-rule:nonzero;"/><path d="M122.671,364.304c-29.529,3.738 -56.9,13.454 -86.384,17.4c16.171,-26.037 38.096,-47.833 64.055,-63.379c3.945,-3.358 8.104,-7.096 12.429,-11.254c2.9,3.991 5.504,8.15 7.941,12.391c5.755,10.101 8.892,16.638 11.292,25.859c1.721,6.612 -0.579,13.837 -6.258,17.633c-1.084,0.725 -2.142,1.233 -3.075,1.35Z" style="fill:#f7b24a;fill-rule:nonzero;"/><path d="M104.292,477.004c-3.513,5.904 -9.809,11.429 -13.921,15.171c-8.317,7.554 -17.709,13.867 -28.229,17.404c-9.688,3.258 -20.046,-2.883 -22.492,-12.808c-6.617,-26.863 -19.342,-78.579 -19.992,-81.342c1.888,-5.079 4.029,-10.033 6.342,-14.866c0.796,0.462 1.512,0.966 2.1,1.341c11.942,8.058 22.937,17.8 34.171,26.784c7.858,6.274 15.708,12.554 23.604,18.779c5.871,4.629 16.987,10.304 19.95,17.366c1.779,4.238 0.721,8.392 -1.533,12.171Z" style="fill:#f7b24a;fill-rule:nonzero;"/><path d="M138.35,397.508c0.083,16.063 -8.175,39.6 -13.575,44.613c-4.783,4.441 -15.704,9.162 -21.704,4.383c-23.859,-19.067 -49.288,-33.996 -74.192,-51.679c1.384,-2.733 0.983,-2.112 2.496,-4.763c30.575,-5.962 52.729,-8.058 83.683,-11.374c2.733,-0.292 23.192,-0.084 23.292,18.82Z" style="fill:#f7b24a;fill-rule:nonzero;"/><path d="M28.487,499.983c1.659,10.25 -5.458,18.988 -15.833,19.259c-1.604,0.041 -3.3,0.058 -5.175,0.058l-1.012,-0c0.083,-11.55 0.129,-22.892 0.212,-34.062c0.125,-21.38 3.613,-42.001 9.954,-61.196c0.167,1.512 0.417,2.983 0.671,4.454c1.388,7.812 7.284,47.362 11.183,71.487Z" style="fill:#f7b24a;fill-rule:nonzero;"/><path d="M456.629,314.167c-16.967,18.65 -40.183,27.67 -62.104,31.366c-6.721,1.134 -13.525,1.679 -20.329,1.679c-35.492,0 -70.1,-16.004 -93.242,-43.175c-8.358,-9.787 -15.204,-20.875 -20.162,-32.762c-2.98,-7.179 -2.617,-17.925 -4.171,-25.483c3.783,0.212 7.604,0.421 11.383,0.546c4.158,0.17 8.317,0.249 12.475,0.295c26.838,0.292 54.262,-1.679 83.246,-6.004c1.887,-0.3 3.779,-0.591 5.667,-0.883c4.204,-0.671 8.445,-1.388 12.729,-2.188c1.008,-0.166 2.058,-0.333 3.108,-0.541c3.525,-0.675 7.096,-1.346 10.667,-2.063c10.287,23.313 25.871,44.479 43.766,62.963c2.855,3.021 5.796,5.92 8.817,8.775c2.65,2.562 5.375,5.041 8.15,7.475Z" style="fill:#f7b24a;fill-rule:nonzero;"/><path d="M448.479,306.692c-19.446,16.295 -44.392,26.125 -71.608,26.125c-36.163,-0 -70.729,-18.225 -91.604,-48.009c-2.563,-3.691 -4.913,-7.512 -7.055,-11.504c-4.537,-8.487 -7.979,-17.6 -10.208,-26.966c4.158,0.17 8.317,0.249 12.475,0.295c26.838,0.292 54.262,-1.679 83.246,-6.004c1.887,-0.3 3.779,-0.591 5.667,-0.883c4.204,-0.671 8.445,-1.388 12.729,-2.188c1.008,-0.166 2.058,-0.333 3.108,-0.541c3.525,-0.675 7.096,-1.346 10.667,-2.063c10.287,23.313 25.871,44.479 43.766,62.963c2.855,3.021 5.796,5.92 8.817,8.775Z" style="fill:#ffebd6;fill-rule:nonzero;"/><path d="M439.662,297.917c-6.274,5.079 -16.55,9.962 -23.654,13.021c-4.516,1.941 -9.766,-0.317 -11.408,-4.959c-7.183,-20.3 -17.05,-65.696 -17.654,-69.292c3.529,-0.674 5.379,-1.016 8.95,-1.733c10.287,23.313 25.871,44.479 43.766,62.963Z" style="fill:#f7b24a;fill-rule:nonzero;"/><path d="M363.725,240.629c-3.488,5.054 -22.113,29.421 -34.542,41.008c-15.483,14.43 -29.971,1.83 -34.087,-4.091c-6.513,-9.367 -11.55,-19.867 -14.617,-30.913c26.838,0.292 54.262,-1.679 83.246,-6.004Z" style="fill:#f7b24a;fill-rule:nonzero;"/><path d="M388.762,306.333c0.788,6.73 -3.716,13.25 -10.433,14.121c-0.496,0.067 -0.983,0.096 -1.458,0.096c-12.875,0 -24.205,-2.313 -35.038,-6.725c-9.204,-3.746 -12.562,-15.092 -6.891,-23.25c13.32,-19.171 34.45,-50.829 34.45,-50.829c4.204,-0.671 8.445,-1.388 12.729,-2.188c0.854,3.854 4.112,47.055 6.641,68.775Z" style="fill:#f7b24a;fill-rule:nonzero;"/><path d="M561.671,1488.1l-0,6.416c-0,1.959 -0.042,3.917 -0.167,5.792c-1.175,25.875 -10.375,43.292 -23.479,55.5c-1.217,1.125 -2.479,2.208 -3.779,3.25c-4.538,3.792 -9.492,6.959 -14.7,9.75c-1.134,0.625 -2.313,1.208 -3.529,1.792c-2.017,1.041 -4.075,2 -6.175,2.875c-0.884,0.375 -1.721,0.75 -2.605,1.083c-3.441,1.417 -6.929,2.708 -10.416,3.875c-1.763,0.583 -3.571,1.167 -5.375,1.709c-6.717,2.083 -13.396,3.833 -19.784,5.499c-14.32,3.792 -29.062,7.084 -44.1,9.875c-3.358,0.625 -6.758,1.209 -10.162,1.792c-3.067,0.583 -6.175,1.083 -9.238,1.542c-10.795,-27.958 -11.866,-63.334 2.034,-89.834c4.158,-8 9.325,-15.375 15.416,-21.958c19.025,-20.583 50.03,-32.167 77.875,-32.458c21.213,-0.167 40.879,9.541 58.142,21.666c0.042,3.959 0.042,7.875 0.042,11.834Z" style="fill:#f7b24a;fill-rule:nonzero;"/><path d="M561.671,1488.1l-0,6.416c-0,1.959 -0.042,3.917 -0.167,5.792c-1.175,25.875 -10.375,43.292 -23.479,55.5c-1.217,1.125 -2.479,2.208 -3.779,3.25c-4.538,3.792 -9.492,6.959 -14.7,9.75c-1.134,0.625 -2.313,1.208 -3.529,1.792c-2.017,1.041 -4.075,2 -6.175,2.875c-0.884,0.375 -1.721,0.75 -2.605,1.083c-3.441,1.417 -6.929,2.708 -10.416,3.875c-1.763,0.583 -3.571,1.167 -5.375,1.709c-6.717,2.083 -13.396,3.833 -19.784,5.499c-14.32,3.792 -29.062,7.084 -44.1,9.875c-3.358,0.625 -6.758,1.209 -10.162,1.792c-6.971,-16.958 -8.988,-36.041 -5.583,-54.167c3.779,-19.958 14.191,-38.541 29.104,-52.166c21.041,-19.167 50.779,-27.875 78.666,-22.667c15.413,2.875 29.946,9.833 42.084,19.792Z" style="fill:#ffebd6;fill-rule:nonzero;"/><path d="M542.592,1491.26c-3.788,-4.125 -9.638,-5.916 -14.884,-7.333c-5.916,-1.583 -12.737,-3.625 -18.904,-3.25c-6.525,0.417 -8.641,7.958 -8.587,13.417c0.074,7.416 2.12,15.208 3.266,22.541c1.242,7.959 2.483,15.917 3.729,23.875c0.284,1.792 0.225,5.667 1.425,7.125c1.205,1.459 3.771,1.251 4.855,-0.249c7.054,-9.709 14.312,-19.626 21.466,-29.376c3.996,-5.458 9.538,-11.666 10.15,-18.791c0.296,-3.458 -0.737,-6 -2.516,-7.959Z" style="fill:#f7b24a;fill-rule:nonzero;"/><path d="M493.842,1555.68c-9.588,-7.125 -19.142,-14.333 -28.721,-21.5c-4.588,-3.417 -9.179,-6.833 -13.788,-10.25c-1.354,-0.625 -2.767,-1.125 -4.196,-1.5c-7.57,-1.875 -15.37,2.625 -18.066,9.958c-0.234,0.625 -0.458,1.292 -0.671,1.917c-1.967,5.875 -3.275,11.958 -3.842,18.083c-0.787,8.542 5.663,14.667 14.163,13.626c8.146,-1.001 16.358,-2.001 24.483,-3.042c6.237,-0.75 12.475,-1.542 18.713,-2.375c3.112,-0.417 6.25,-0.75 9.345,-1.25c1.617,-0.25 5.192,-1.709 2.58,-3.667Z" style="fill:#f7b24a;fill-rule:nonzero;"/><path d="M495.971,1511.97c-1.7,-9.75 -0.517,-31.917 -15.421,-30.834c-11.579,0.792 -22.408,10.209 -31.004,17.25c-2.984,2.417 -4.213,5.209 -3.879,9.042c0.366,4.25 2.899,8 6.366,10.5c14.08,10.042 27.725,20.792 41.579,31.125c2.68,2 8.43,2.875 7.617,-2.458c-1.783,-11.542 -3.246,-23.125 -5.258,-34.625Z" style="fill:#f7b24a;fill-rule:nonzero;"/><path d="M553.45,1504.18c-2.358,0.917 -4.429,2.625 -6.054,4.5c-5.2,6 -9.263,13.417 -13.663,20c-4.958,7.458 -10,14.833 -15.462,21.917c-1.892,2.625 0.25,6.25 3.404,5.833c6.425,-0.875 9.925,0.25 16.35,-0.625c12.458,-11.583 21.3,-28 23.162,-51.833c0.084,-1.084 -6.233,-0.25 -6.737,-0.125l-1,0.333Z" style="fill:#f7b24a;fill-rule:nonzero;"/><path d="M516.017,1570.6c-2.017,1.041 -4.075,2 -6.175,2.875c-0.084,-0.959 -0.084,-1.917 -0.042,-2.833l0.042,-0.334c0.337,-3.583 4.241,-1 6.175,0.292Z" style="fill:#f7b24a;fill-rule:nonzero;"/><path d="M493.212,1577.6c-0.587,0.833 -1.179,1.708 -1.766,2.542c-6.717,2.083 -13.396,3.833 -19.784,5.499c-14.32,3.792 -29.062,7.084 -44.1,9.875c-0.5,-1.083 -0.887,-2.208 -1.191,-3.333c-2.538,-9.333 3.825,-18.792 13.433,-20.083c12.079,-1.584 23.5,-3.209 36.313,-4.792c6.383,-0.792 13.229,-2.5 19.7,-2.5c7.433,0 -0.801,10.167 -2.605,12.792Z" style="fill:#f7b24a;fill-rule:nonzero;"/><path d="M534.246,1559.05c-4.538,3.792 -9.492,6.959 -14.7,9.75c-1.3,-0.875 -2.604,-1.75 -3.867,-2.708c-1.637,-1.167 -1.004,-3.709 0.967,-3.959c5.841,-1.166 11.721,-2.208 17.6,-3.083Z" style="fill:#f7b24a;fill-rule:nonzero;"/><path d="M507.237,1574.55c-3.441,1.417 -6.929,2.708 -10.416,3.875l5.8,-8.167c1.471,-2.083 2.646,-1.041 3.525,1.042c0.421,1.084 0.8,2.125 1.091,3.25Z" style="fill:#f7b24a;fill-rule:nonzero;"/><path d="M151.958,1598.55c-4.412,-0.625 -8.779,-1.417 -13.145,-2.25c-7.73,-1.333 -15.334,-2.833 -22.851,-4.5c-8.775,-1.875 -17.429,-3.916 -25.912,-6.167c-15.121,-3.916 -32.088,-8.458 -47.167,-16.416c-1.512,-0.834 -3.025,-1.667 -4.496,-2.542c-21.629,-12.792 -38.387,-33.75 -38.387,-72.167l0,-6.624c0,-5.001 0,-9.959 0.041,-14.959c0,-4.375 0,-8.708 0.042,-13.083c1.638,-0.083 3.275,-0.125 4.917,-0.125c42.925,-0.417 87.675,17.333 115.396,50.5c20.246,24.166 29.629,56.708 31.562,88.333Z" style="fill:#f7b24a;fill-rule:nonzero;"/><path d="M138.813,1596.3c-7.73,-1.333 -15.334,-2.833 -22.851,-4.5c-8.775,-1.875 -17.429,-3.916 -25.912,-6.167c-15.121,-3.916 -32.088,-8.458 -47.167,-16.416c-1.512,-0.834 -3.025,-1.667 -4.496,-2.542c-21.629,-12.792 -38.387,-33.75 -38.387,-72.167l-0,-6.624c-0,-5.001 -0,-9.959 0.041,-14.959c9.871,-0.5 19.826,0.125 29.613,1.917c32.171,6 64.975,22.333 84.967,48.5c15.621,20.416 22.008,47.25 24.192,72.958Z" style="fill:#ffebd6;fill-rule:nonzero;"/><path d="M66.537,1513.85c-0.537,-11.75 -10.462,-16.792 -20.15,-20.25c-12.829,-4.625 -26.458,-6.375 -40.045,-6.375c-1.975,-0 -4.367,-0 -6.342,0.667l0,6.624c0,38.417 16.758,59.375 38.387,72.167c4.004,-5.458 16.942,-26.625 24.917,-38.958c2.05,-4.375 3.458,-9 3.233,-13.875Z" style="fill:#f7b24a;fill-rule:nonzero;"/><path d="M122.85,1585.1c-1.938,-10.584 -18.092,-48.334 -26.596,-53.75c-6.496,-4.125 -16.721,-7.375 -22.746,-0.709c-10.737,11.917 -24.533,30.125 -30.625,38.584c15.079,7.958 32.046,12.5 47.167,16.416c8.483,2.251 17.137,4.292 25.912,6.167c3.696,-0.791 7.646,-2.5 6.888,-6.708Z" style="fill:#f7b24a;fill-rule:nonzero;"/><path d="M561.042,1370.68c0.041,8.334 0.125,16.579 0.208,24.871c-26.708,-14 -50.863,-33 -70.688,-56.333c-16.166,-18.954 -29.437,-40.458 -39.1,-63.542c-27.887,-66.792 -24.15,-144.433 9.284,-208.446c9.7,-18.562 21.837,-35.866 36.037,-51.237c17.846,-19.321 38.638,-35.321 61.317,-47.583c0.046,8.312 0.083,16.504 0.166,24.608c0.046,9.533 0.13,18.942 0.171,28.142c0.171,23.437 0.338,45.904 0.463,67.033c-0,3.316 0.042,6.55 0.042,9.783c0.254,36.625 0.504,69.092 0.67,95.867c0.042,2.708 0.042,5.375 0.042,7.958c0.171,19.625 0.254,35.833 0.337,47.875c0.209,30.584 0.505,61.129 0.755,91.708c0.087,9.792 0.212,19.542 0.296,29.296Z" style="fill:#f7b24a;fill-rule:nonzero;"/><path d="M560.746,1341.39c0.087,9.792 0.212,19.542 0.296,29.296c-26.25,-15.625 -49.392,-36.796 -67.284,-62.379c-5,-7.083 -9.579,-14.542 -13.696,-22.25c-23.687,-44.333 -31.75,-97.125 -22.425,-146.704c8.821,-46.663 33.138,-90.133 67.996,-121.929c10.084,-9.196 21.046,-17.346 32.633,-24.4c0.046,9.533 0.13,18.942 0.171,28.142c0.171,23.437 0.338,45.904 0.463,67.033c-0,3.316 0.042,6.55 0.042,9.783c0.254,36.625 0.504,69.092 0.67,95.867c0.042,2.708 0.042,5.375 0.042,7.958c0.171,19.625 0.254,35.833 0.337,47.875c0.209,30.584 0.505,61.129 0.755,91.708Z" style="fill:#ffebd6;fill-rule:nonzero;"/><path d="M482.313,1194.47c4.583,4.958 10.662,6.708 17.191,6.833c4.546,-0.583 52.1,-6.5 60.108,-7.458c-0.166,-26.775 -0.416,-59.242 -0.67,-95.867c-4.242,-3.146 -8.484,-6.258 -12.725,-9.404c-2.25,-1.662 -4.417,-3.429 -6.563,-5.213l-0.638,-0.395c-8.625,-6.605 -25.258,-10.205 -34.016,-1.771c-2.433,2.346 -4.113,5.346 -5.667,8.35c-4.516,8.737 -8.166,17.887 -11.287,27.208c-3.946,11.779 -6.871,23.904 -8.671,36.196c-1.817,12.396 -6.646,31.162 2.938,41.521Z" style="fill:#f7b24a;fill-rule:nonzero;"/><path d="M539.987,1035.37c-8.454,5.204 -9.566,18.195 -6.833,26.745c3.863,12.092 16.142,18.934 25.746,26.084c-0.125,-21.129 -0.292,-43.596 -0.463,-67.033c-2.058,1.387 -4.075,2.816 -6.087,4.283c-3.304,2.404 -6.767,4.808 -10.129,7.354c-0.388,0.975 -1.104,1.875 -2.234,2.567Z" style="fill:#f7b24a;fill-rule:nonzero;"/><path d="M559.991,1249.68c-0.083,-12.042 -0.166,-28.25 -0.337,-47.875c-11.537,1.458 -58.458,8.75 -66.725,14.667c-8.3,5.958 -8.004,15.458 -5.296,24.375c5.55,18.208 14.229,37.75 25.15,53.458c7.979,11.458 17.179,22.042 27.342,31.588c4.954,4.62 10.121,9.037 15.583,13.083c1.425,1.042 3.067,3.037 5.038,2.412c-0.25,-30.579 -0.546,-61.124 -0.755,-91.708Z" style="fill:#f7b24a;fill-rule:nonzero;"/><path d="M100.129,1208.3l-0,1.917c-0.421,20.416 -8.021,40.25 -21.296,55.625c-13.104,15.166 -31.287,25.5 -50.946,28.837c-4.704,0.788 -9.491,1.163 -14.279,1.163c-4.117,-0 -8.191,-0.292 -12.262,-0.917c-0,-2.625 0.041,-5.25 0.041,-7.875c0.042,-2.875 0.042,-5.792 0.084,-8.667c0.083,-9.583 0.125,-19.125 0.208,-28.708c0.042,-5.167 0.083,-11.042 0.129,-17.667c0,-1.625 0,-3.291 0.038,-4.958c-0,-4.75 0.046,-9.792 0.087,-15.125l0,-2.667c0.042,-3 0.042,-6.125 0.083,-9.333l0,-3.583c0.126,-16.967 0.255,-36.246 0.38,-57.542c0.041,-3.108 0.083,-6.217 0.083,-9.408c0.042,-2.563 0.042,-5.167 0.083,-7.813c3.359,-0.504 6.805,-0.712 10.246,-0.754c25.454,-0.254 50.363,11.213 66.825,30.913c13.104,15.666 20.496,36.02 20.496,56.562Z" style="fill:#f7b24a;fill-rule:nonzero;"/><path d="M92.442,1208.3c-0,44.083 -35.28,79.75 -78.834,79.75c-4.117,0 -8.191,-0.333 -12.221,-1c0.042,-2.875 0.042,-5.792 0.084,-8.667c0.083,-9.583 0.125,-19.125 0.208,-28.708c0.042,-5.167 0.083,-11.042 0.129,-17.667c0,-1.625 0,-3.291 0.038,-4.958c-0,-4.75 0.046,-9.792 0.087,-15.125l0,-2.667c0.042,-3 0.042,-6.125 0.083,-9.333l0,-3.583c0.126,-16.967 0.255,-36.246 0.38,-57.542c0.041,-3.108 0.083,-6.217 0.083,-9.408c8.275,-1.221 16.717,-1.134 24.988,0.421c19.07,3.529 36.5,14.404 48.387,29.904c10.542,13.816 16.588,31.083 16.588,48.583Z" style="fill:#ffebd6;fill-rule:nonzero;"/><path d="M41.979,1146.75c-4.867,-2.304 -10.058,-3.896 -15.341,-4.909c-0.9,-0.17 -1.817,-0.325 -2.738,-0.291c-2.838,0.116 -6.288,1.504 -8.171,3.658c-4.408,5.058 -3.446,12.85 -2.55,18.954c1.288,8.775 2.729,17.525 4.1,26.271c0.238,1.542 0.183,4.75 1.179,5.917c1,1.208 3.121,1.041 4.021,-0.209c5.842,-8 11.854,-16.229 17.775,-24.32c1.675,-2.284 3.346,-4.567 5.021,-6.846c3.733,-6.538 4.096,-13.642 -3.296,-18.225Z" style="fill:#f7b24a;fill-rule:nonzero;"/><path d="M6.55,1208.6c-1.508,0.25 -3.063,0.458 -4.617,0.666c0.042,-3 0.042,-6.125 0.083,-9.333c2.309,1.75 4.663,3.458 6.971,5.25c2.479,1.792 -0.92,3.167 -2.437,3.417Z" style="fill:#f7b24a;fill-rule:nonzero;"/><path d="M8.567,1166.61c-0.405,-2.658 -0.813,-5.321 -1.221,-7.987c-1.446,-6 -3.1,-7.459 -5.013,-9.363c-0.108,17.154 -0.212,32.963 -0.317,47.088c1.471,1.083 2.984,2.208 4.451,3.333c2.395,1.792 7.479,2.542 6.762,-2.208c-1.596,-10.292 -3.108,-20.571 -4.662,-30.863Z" style="fill:#f7b24a;fill-rule:nonzero;"/><path d="M66.725,1197.35c1.654,-0.625 3.216,-1.458 4.612,-2.667c10.1,-8.666 -0.741,-33.204 -14.037,-31.041c-7.158,1.166 -11.292,9.595 -15.092,14.899c-4.833,6.755 -9.862,13.351 -14.75,20.059c-1.404,1.917 0.167,4.625 2.513,4.291c8.408,-1.125 16.821,-2.25 25.233,-3.333c3.813,-0.5 7.896,-0.791 11.521,-2.208Z" style="fill:#f7b24a;fill-rule:nonzero;"/><path d="M57.542,1241.35c-5.83,-4.125 -11.659,-8.25 -17.484,-12.375c-4.487,-3.209 -8.921,-6.542 -13.487,-9.584c-1.425,-0.958 -4.679,-3.249 -4.938,-0.375l-0.016,0.251c-0.234,3.666 1.42,8.249 2.054,11.833c0.804,4.541 1.608,9.041 2.412,13.583c0,1.125 3.68,16.125 5.9,20.458c0.967,1.875 2.354,3.667 4.45,4.292c9.609,3.042 19.659,-6.625 25.721,-12.708c4.804,-4.833 -0.454,-12.417 -4.612,-15.375Z" style="fill:#f7b24a;fill-rule:nonzero;"/><path d="M5.125,1222.35c-1.092,1.542 -2.183,3.167 -3.279,4.708c-0,-4.75 0.046,-9.792 0.087,-15.125c1.804,-0.25 3.613,-0.416 5.375,-0.416c6.3,-0 -0.671,8.583 -2.183,10.833Z" style="fill:#f7b24a;fill-rule:nonzero;"/><path d="M62.858,1237.18c5.288,2.708 11.85,0.042 13.721,-5.583c2.383,-7.167 3.812,-15.583 1.117,-21.25c-2.2,-4.625 -8.609,-4.167 -12.888,-4.5c-12.296,1.291 -24.412,2.708 -36.392,5.166c-1.466,0.167 -1.924,2.084 -0.716,2.959c8.571,6.125 17.367,11.916 25.896,18.083c3.345,1.625 6.366,3.667 9.262,5.125Z" style="fill:#f7b24a;fill-rule:nonzero;"/><path d="M13.266,1279.39c3.426,-0.291 7.08,-1.666 9.475,-4.208c4.484,-4.792 1.996,-12.042 0.717,-17.583c-1.687,-7.334 -2.604,-14.833 -3.991,-22.209c-0.967,-5.166 -1.426,-10.958 -3.142,-15.916c-0.629,-1.833 -1.767,-2.667 -3.029,-0.917l-11.488,13.458c-0.046,6.625 -0.087,12.5 -0.129,17.667c-0.083,9.583 -0.125,19.125 -0.208,28.708c-0.004,0.584 10.146,1.125 11.371,1.042l0.424,-0.042Z" style="fill:#f7b24a;fill-rule:nonzero;"/><path d="M139.262,988c-2.704,0.792 -27.245,1.263 -27.245,1.263c-0.455,-0.005 -0.951,0.066 -1.5,0.079c-8.58,0.166 -6.654,-11.467 -6.075,-19.463c1.262,-17.404 3.029,-46.796 5.383,-56.212c0.629,-2.529 0.671,-5.592 7.733,-5.296c6.059,0.25 4.946,8.587 4.7,10.596c-2.2,17.85 -3.904,36.654 -4.933,56.254c5.262,-0.225 14.667,-0.588 19.417,-0.588c6.308,0 6.812,12.104 2.52,13.367Z" style="fill:#ffebd6;fill-rule:nonzero;"/><path d="M201.708,913.579c-0.337,3.529 -1.537,5.55 -6.812,5.888c-6.142,0.387 -14.317,0.733 -19.7,0.97c-0.846,6.93 -1.679,14.009 -2.438,21.23c4.575,-0.055 14.004,-0.155 15.525,-0.113c2.017,0.058 4.834,1.488 3.846,6.509c-0.987,5.02 -2.529,5.979 -8.762,6.137c-3.884,0.092 -8.751,0.225 -11.863,0.308c-0.625,7.029 -1.146,14.175 -1.525,21.413c5.75,0.062 16.158,0.183 19.621,0.304c4.875,0.167 8.579,0.925 8.071,4.458c-0.505,3.529 -0.505,8.242 -7.396,8.242c-6.9,0 -26.909,0.413 -26.909,0.413c-8.579,0.17 -6.804,-10.421 -6.224,-18.417c1.258,-17.4 4.708,-48.513 6.729,-58.854c-0,-0 0.175,-3.425 7.404,-3.83c4.741,-0.608 14.329,-1.57 25.725,-1.22c3.866,0.504 5.046,3.029 4.708,6.562Z" style="fill:#ffebd6;fill-rule:nonzero;"/><path d="M225.446,921.717c0.337,-2.692 1.679,-6.221 4.875,-6.73c3.854,-0.604 7.566,0.338 9.92,5.892c2.355,5.55 9.759,26.738 9.759,26.738c0,-0 11.437,-30.271 14.296,-34.309c2.858,-4.037 8.746,-4.879 12.279,-3.533c3.533,1.35 3.192,4.708 3.696,10.092c0.504,5.379 1.85,60.041 1.683,62.9c-0.171,2.858 -1.683,6.05 -6.058,6.387c-4.371,0.338 -7.059,-1.512 -7.396,-6.892l-0.675,-47.933c-0,0 -8.579,23.042 -9.921,26.238c-1.346,3.196 -3.029,4.375 -6.896,4.541c-3.866,0.167 -5.887,0.505 -8.241,-4.875c-2.355,-5.383 -6.892,-19.679 -6.892,-19.679c-0,0 -6.729,31.113 -8.579,39.521c-1.159,5.267 -2.354,9.583 -7.904,9.25c-5.55,-0.333 -7.176,-3.004 -5.721,-9.925c2.692,-12.779 11.266,-53.625 11.775,-57.683Z" style="fill:#ffebd6;fill-rule:nonzero;"/><path d="M326.191,918.917c-6.187,-0 -14.462,8.954 -16.108,30.775c-1.162,15.475 2.634,28.633 10.592,28.633c7.571,0 12.496,-13.5 14.129,-30.533c1.258,-15.884 -1.533,-28.875 -8.613,-28.875Zm22.613,22.325c-0,27.241 -9.079,49.062 -29.763,49.062c-21.824,0 -22.958,-30.137 -22.958,-34.433c0,-4.275 0.075,-48.813 29.721,-48.813c9.083,0 23,8.575 23,34.184Z" style="fill:#ffebd6;fill-rule:nonzero;"/><path d="M370.392,921.021c0.195,-2.525 0.504,-7.234 5.383,-8.579c5.787,-1.596 8.4,3.533 10.425,7.4c4.141,7.933 20.512,44.066 20.512,44.066c0,0 4.771,-41.058 5.217,-45.75c0.675,-7.058 3.363,-10.425 7.738,-9.754c4.795,0.742 7.058,2.063 6.05,12.783c-1.005,10.763 -7.563,60.713 -7.563,60.713c0,0 -0.675,6.054 -5.887,6.725c-5.213,0.671 -8.409,-1.85 -12.78,-10.425c-4.37,-8.575 -18.67,-39.858 -18.67,-39.858c-0,-0 -2.188,41.204 -2.355,44.395c-0.166,3.201 -2.521,7.067 -7.062,6.559c-4.538,-0.504 -6.725,-1.679 -6.725,-9.917c-0,-8.242 4.496,-42.767 5.717,-58.358Z" style="fill:#ffebd6;fill-rule:nonzero;"/><path d="M204.025,1056.41c-1.5,4.513 -7.629,19.234 -23.429,15.963c-2.525,-0.525 -4.563,-1.675 -6.213,-3.163c-2.929,13.038 -8.758,28.063 -20.304,28.063c-11.446,-0 -11.446,-15.617 -11.446,-15.617c0,0 -5.267,17.617 -16.708,17.617c-13.625,-0 -17.483,-20.129 -13.713,-46.496c0.546,-3.812 3.538,-6.9 8.084,-6.9c4.537,0 7.445,1 6.354,5.542c-1.088,4.537 -4.721,32.395 0.362,32.237c4.905,-0.158 9.629,-16.533 10.175,-19.075c0.542,-2.546 1.996,-5.45 5.809,-5.45c3.816,0 9.083,-1.087 9.083,5.633c0,7.992 0,18.525 3.088,18.163c3.087,-0.367 6.833,-17.708 8.354,-25.975c1.271,-6.904 0.546,-11.075 4.362,-11.621c3.571,-0.508 9.204,-0.858 9.317,4.9c0.867,3.279 3.196,9.808 7.937,9.808c3.542,0 6.809,-3.991 9.809,-8.899c2.246,-3.676 10.445,1.179 9.079,5.27Z" style="fill:#ffebd6;fill-rule:nonzero;"/><path d="M211.042,1053.74c-11.896,-0 -15.709,28.608 -5.171,28.608c6.896,-0 12.975,-12.834 13.337,-18.525c0.459,-7.175 -5.158,-10.083 -8.166,-10.083Zm59.395,5.995c-3.541,12.259 -13.262,35.054 -32.329,35.054c-8.246,0 -12.221,-5.962 -13.921,-13.608c-5.479,10.283 -11.554,13.013 -19.316,13.013c-9.992,-0 -16.829,-7.938 -16.829,-21.405c-0,-13.766 5.654,-30.625 21.908,-30.625c7.441,0 12.392,2.755 15.346,7.025c0.083,-0.387 0.15,-0.65 0.183,-0.758c0.679,-2.292 2.179,-7.083 6.4,-7.083c5.596,-0 8.858,0.816 7.496,6.125c-1.363,5.312 -5.083,34.333 0.137,34.333c7.084,0 14.425,-14.708 19.3,-25.342c1.996,-4.358 13.625,-3.658 11.625,3.271Z" style="fill:#ffebd6;fill-rule:nonzero;"/><path d="M308.591,1060.37c-5.175,14.171 -16.074,34.42 -32.15,34.42c-18.066,0 -19.295,-26.47 -15.55,-54.77c-0.787,0.054 -1.616,0.12 -2.52,0.191c-4.971,0.4 -9.08,-0.183 -8.534,-7.445c0,-0 0.18,-5.088 4.175,-5.996c2.805,-0.638 4.792,-0.509 8.988,-0.259c0.867,-4.896 1.825,-9.721 2.816,-14.362c0,-0 0.092,-6.35 7.721,-6.65c6.813,-0.271 4.267,7.742 4.267,9.917c0,-0 -0.887,4.683 -1.958,11.574c3.875,0.017 4.883,-0.062 7.5,0.85c2.066,0.721 3.996,4.767 1.637,8.58c-2.362,3.816 -4.75,3.516 -10.762,3.408c-2.55,19.25 -3.892,42.883 3.858,42.883c6.538,0 16.192,-18.212 19.979,-25.791c2.633,-5.267 12.225,-1.171 10.533,3.45Z" style="fill:#ffebd6;fill-rule:nonzero;"/><path d="M309.65,1062.69c4.425,0.125 11.142,-0.675 11.642,-7.041c0.216,-2.717 -2.771,-4.95 -5.221,-3.721c-1.671,0.833 -4.85,3.837 -6.421,10.762Zm47.704,-2.683c-5.175,13.759 -13.229,34.783 -41.021,34.783c-12.15,0 -20.796,-10.57 -20.796,-24.429c0,-15.621 6.184,-29.971 22.713,-29.971c7.625,0 15.121,6.363 15.117,14.713c-0,12.829 -11.217,20.133 -24.296,20.267c1.17,5.52 5.146,7.704 9.716,7.704c10.896,-0 19.634,-8.488 27.534,-26.2c2.587,-4.763 12.258,-0.117 11.033,3.133Z" style="fill:#ffebd6;fill-rule:nonzero;"/><path d="M346.654,1038.95c0.046,2.804 1.363,5.863 3.188,6.979c1.312,-2.729 2.058,-4.741 2.4,-7.245c0.404,-3.021 -0.459,-5.313 -2.592,-5.313c-2.075,0 -3.038,2.792 -2.996,5.579Zm60.8,22.546c-2.45,5.175 -10.896,34.779 -31.65,34.779c-18.933,0 -13.896,-23.837 -12.529,-29.696c1.004,-4.321 0.816,-4.495 0.816,-4.495c0,-0 -5.858,0.683 -13.487,-1.905c-8.096,-2.75 -15.258,-9.4 -15.258,-21.933c-0,-9.804 8.721,-16.071 14.987,-16.071c6.267,0 14.096,4.563 14.096,15.325c-0,4.275 -1.608,8.425 -3.542,11.883c1.017,0.05 2.067,0.071 3.204,0.034c12.534,-0.408 17.209,-1.088 15.305,8.175c-2.088,10.129 -9.267,26.425 -0.321,26.425c4.766,-0 13.925,-15.513 19.662,-26.696c3.634,-7.087 11.171,-1.004 8.717,4.175Z" style="fill:#ffebd6;fill-rule:nonzero;"/><path d="M184.225,27.846c30.454,13.929 66.279,12 98.913,10.65c31.108,-1.288 66.045,0.112 94.904,-13.217c2.45,-1.129 0.316,-4.75 -2.121,-3.625c-28.05,12.954 -62.513,11.388 -92.783,12.642c-31.821,1.321 -67.101,3.504 -96.792,-10.075c-2.438,-1.113 -4.575,2.504 -2.121,3.625Z" style="fill:#290c0c;fill-rule:nonzero;"/><path d="M20.242,1513.22c11.199,15.417 32.704,22.208 50.091,27.5c28.163,8.583 57.471,13.458 86.617,17.25c73.771,9.625 148.504,9.208 222.362,0.583c49.538,-5.792 98.484,-14.75 145.5,-31.75c2.525,-0.917 1.434,-4.958 -1.116,-4.042c-80.771,29.167 -169.584,37.959 -255.029,38.167c-59.001,0.167 -119.084,-4.958 -176.555,-18.708c-21.846,-5.209 -54.079,-11.625 -68.241,-31.084c-1.575,-2.166 -5.221,-0.083 -3.629,2.084Z" style="fill:#290c0c;fill-rule:nonzero;"/><path d="M169.837,251.283c14.404,12.067 38.355,14.996 56.084,17.4c47.308,6.413 95.712,2.346 142.662,-4.958c2.663,-0.412 1.534,-4.463 -1.117,-4.05c-45.67,7.104 -92.812,11.042 -138.874,5.158c-17.163,-2.191 -41.792,-4.8 -55.784,-16.52c-2.062,-1.726 -5.045,1.233 -2.971,2.97Z" style="fill:#290c0c;fill-rule:nonzero;"/><path d="M88.525,449.408c-0.958,-0.666 -1.85,-1.316 -2.65,-1.941c-5.254,-4.142 -10.492,-8.309 -15.721,-12.484c1.088,-3.354 2.188,-6.708 3.321,-10.05c6.958,4.729 13.858,9.567 20.658,14.659c-0.391,1.187 -0.779,2.375 -1.162,3.571c-0.917,2.82 -2.504,4.874 -4.446,6.245Z" style="fill:#fff7ef;fill-rule:nonzero;"/><path d="M81.404,451.575c-7.35,-0 -14.721,-5.879 -11.812,-14.858c0.187,-0.579 0.375,-1.154 0.562,-1.734c5.229,4.175 10.467,8.342 15.721,12.484c0.8,0.625 1.692,1.275 2.65,1.941c-2.1,1.484 -4.609,2.167 -7.121,2.167Z" style="fill:#fce0b7;fill-rule:nonzero;"/><path d="M163.346,338.792c-2.763,-8.188 -6.179,-16.179 -10.154,-23.884c7.216,-8.941 13.37,-18.625 18.766,-28.937c2.25,-4.296 5.817,-6.075 9.45,-6.075c8.071,-0 16.471,8.792 11.488,18.316c-8.163,15.592 -18.242,28.521 -29.55,40.58Z" style="fill:#ffbfb1;fill-rule:nonzero;"/><path d="M150.429,351.808c-2.062,-8.429 -4.854,-16.675 -8.325,-24.616c0.013,-0.013 0.021,-0.021 0.033,-0.034c3.946,-3.908 7.621,-7.996 11.055,-12.25c3.975,7.705 7.391,15.696 10.154,23.884c-4.15,4.425 -8.467,8.737 -12.917,13.016Z" style="fill:#fce0b7;fill-rule:nonzero;"/><path d="M92.192,381.142c2.57,-4.488 5.37,-8.85 8.454,-13.05c7.25,-1.521 14.567,-2.842 22.025,-3.788c0.933,-0.117 1.991,-0.625 3.075,-1.35c5.679,-3.796 7.979,-11.021 6.258,-17.633c-0.642,-2.463 -1.333,-4.729 -2.113,-6.925c4.155,-3.646 8.284,-7.321 12.213,-11.204c3.471,7.941 6.263,16.187 8.325,24.616c-4.612,4.434 -9.358,8.838 -14.213,13.309c-4.916,4.529 -9.258,9.3 -13.133,14.291c-2.708,-0.621 -5.15,-0.775 -6.675,-0.775c-0.608,0 -1.071,0.025 -1.35,0.055c-8.125,0.87 -15.641,1.658 -22.866,2.454Z" style="fill:#fff7ef;fill-rule:nonzero;"/><path d="M100.646,368.092c2.041,-2.788 4.212,-5.505 6.521,-8.138c6.904,-7.887 14.862,-14.667 22.724,-21.558c0.78,2.196 1.471,4.462 2.113,6.925c1.721,6.612 -0.579,13.837 -6.258,17.633c-1.084,0.725 -2.142,1.233 -3.075,1.35c-7.458,0.946 -14.775,2.267 -22.025,3.788Z" style="fill:#fce0b7;fill-rule:nonzero;"/><path d="M94.133,439.592c-6.8,-5.092 -13.7,-9.93 -20.658,-14.659c5.117,-15.125 10.842,-30.05 18.717,-43.791c7.225,-0.796 14.741,-1.584 22.866,-2.454c0.279,-0.03 0.742,-0.055 1.35,-0.055c1.525,0 3.967,0.154 6.675,0.775c-13.787,17.738 -21.725,38.209 -28.95,60.184Z" style="fill:#fce0b7;fill-rule:nonzero;"/></svg>