<?xml version="1.0" encoding="UTF-8" standalone="no"?><!DOCTYPE svg PUBLIC "-//W3C//DTD SVG 1.1//EN" "http://www.w3.org/Graphics/SVG/1.1/DTD/svg11.dtd"><svg width="100%" height="100%" viewBox="0 0 7500 3334" version="1.1" xmlns="http://www.w3.org/2000/svg" xmlns:xlink="http://www.w3.org/1999/xlink" xml:space="preserve" xmlns:serif="http://www.serif.com/" style="fill-rule:evenodd;clip-rule:evenodd;stroke-linejoin:round;stroke-miterlimit:2;"><g><rect x="0" y="0" width="7500" height="3333.33" style="fill:#fbe7e6;fill-rule:nonzero;"/><path d="M1619.5,2868.95c-18.021,-241.054 -98.954,-396.979 -240.554,-463.442c-128.954,-60.529 -225.333,-71.704 -302.779,-80.675c-151.929,-17.612 -228.188,-26.449 -332.621,-379.27l-0.542,-1.817l-314.02,132.729l0.108,1.234c0.175,1.954 15.967,195.837 -125.484,219.162c-112.712,18.587 -217.549,77.842 -303.17,171.354l-0.442,0.488l-0,864.616l1587.92,0l0.258,-1.375c14.242,-74.737 45.8,-269.454 31.329,-463.004Z" style="fill:#de2630;fill-rule:nonzero;"/><path d="M925.258,2279.25c-14.583,-7.087 -30.316,-23.858 -41.621,-37.033c-39.254,-45.75 -65.291,-102.329 -85.537,-158.6c-19.962,-55.484 -34.058,-112.896 -45.121,-170.767c-0.004,-0.437 -0.312,-0.787 -0.821,-1.071c-1.65,-1.087 -5.466,-1.104 -8.979,-0.479l-0.579,0.1l-0.171,0.033c-2,0.375 -3.804,0.971 -4.954,1.763l-0.342,0.258l-0.262,0.213c-0.504,0.454 -0.784,0.941 -0.688,1.45c0.184,17.25 -7.596,35.287 -16.141,49.792c-26.188,44.429 -74.221,71.112 -121.817,86.879c-53.208,17.629 -109.633,23.696 -165.396,25.77c-1.604,0.063 -10.462,0.83 -10.287,3.988c2.191,39.283 0.566,84.471 -17.155,120.187c-0.341,0.525 -0.275,0.992 0.188,1.409c45.008,29.671 93.529,54.996 142.579,77.175c80.679,36.479 173.042,69.075 262.95,58.392c44.425,-5.28 85.8,-23.13 115.275,-57.534c0.775,-0.904 -0.541,-1.637 -1.121,-1.925Z" style="fill:#edc1be;fill-rule:nonzero;"/><path d="M448.363,1307.46c-0,0 -148.088,0.75 -121.692,291.467c26.396,290.725 -94.529,512.937 118.412,488.283c212.934,-24.65 314.296,-73.787 297.242,-183.912c-7.087,-45.771 -15.562,-97.034 -32.508,-139.733c-0.709,-1.788 -1.429,-3.663 -1.246,-5.58c0.392,-4.045 4.45,-6.516 7.812,-8.808c14.217,-9.708 22.396,-27.204 21.9,-44.408c-0.491,-17.213 -9.233,-33.767 -22.416,-44.842c-5.409,-4.546 -11.879,-8.342 -18.938,-8.592c-7.062,-0.246 -14.616,3.979 -16.312,10.838c-4.471,-15.717 -10.246,-29.446 -15.58,-44.825c-26.745,-77.117 -56.287,-155.267 -99.7,-224.779c-22.949,-36.75 -64.979,-98.938 -116.974,-85.109Z" style="fill:#f6d2c8;fill-rule:nonzero;"/><path d="M350.196,1590.41" style="fill:#eec130;fill-rule:nonzero;"/><path d="M482.35,1599.25c-0,0 -8.521,-9.716 -17.971,7.821c-9.446,17.538 -25.367,63.771 -13.446,66.446c11.917,2.671 24.792,-36.296 24.792,-36.296c0,-0 10.617,-33.596 6.625,-37.971Z" style="fill:#1f2022;fill-rule:nonzero;"/><path d="M357.192,1591.95c-0,-0 -9.9,-8.517 -16.621,10.075c-6.717,18.591 -15.533,66.437 -3.329,67.537c12.204,1.1 19.096,-39.158 19.096,-39.158c-0,-0 5.458,-34.642 0.854,-38.454Z" style="fill:#1f2022;fill-rule:nonzero;"/><path d="M395.725,1898.25c0.812,0.037 1.608,0.158 2.392,0.371c4.279,1.146 18.129,5.466 9.237,11.275c-10.429,6.808 -40.679,6.304 -37.487,-2.838c3.204,-9.179 21.033,-9.025 25.858,-8.808Z" style="fill-rule:nonzero;"/><path d="M383.95,1775.19c0.775,-13.338 22.221,-11.276 22.333,1.375c0.121,13.416 -21.608,11.149 -22.333,-1.375Zm11.292,-17.442c-10.421,0.366 -18.675,8.475 -19.275,18.817c-0.034,0.545 0.037,0.991 0.15,1.395c2.72,22.325 37.904,19.984 38.15,-2.77c0.116,-10.259 -9.15,-17.792 -19.025,-17.442Z" style="fill:#1f2022;fill-rule:nonzero;"/><path d="M862.658,1410.12c-1.029,-4.096 -1.654,-8.242 -1.608,-12.45c0.229,-21.371 32.225,-33.862 43.638,-50.075c15.229,-21.646 22.666,-49.688 15.608,-75.667c-9.092,-33.45 -41.196,-64.237 -70.954,-80.616c-38.296,-21.08 -84.509,-18.525 -116.409,12.691c-20.25,19.817 -28.033,43.771 -36.166,70.071c-0.213,0.683 -0.463,1.425 -1.055,1.829c-0.683,0.467 -1.595,0.342 -2.412,0.196c-39.596,-7.046 -79.262,-14.204 -119.371,-17.625c-59.625,-5.092 -124.325,-5.041 -181.771,16.625c-17.995,6.792 -35.166,15.858 -50.662,27.275c-15.583,11.483 -27.338,26.884 -42.817,38.383c-11.158,8.284 -24.892,14.892 -39.092,13.975c-11.849,-0.766 -23.391,-4.02 -35.187,-5.35c-2.133,-0.245 -4.404,-0.433 -6.333,0.526c-10.317,5.129 -0.113,32.124 2.846,39.266c9.758,23.583 32.512,45.629 53.15,60.058c12.812,8.963 29.212,16.346 45.2,15.113c16.825,-1.292 33.608,-8.65 50.008,-12.413c23.321,-5.35 47.062,-9.77 70.529,-14.675c32.279,-6.75 65.767,-0.795 98.067,3.471c24.766,3.279 50.25,11.671 66.608,30.55c25.037,28.9 30.054,73.871 46.958,107.625c5.234,10.446 10.059,21.104 14.138,32.059c3.679,9.879 5.842,19.762 7.971,29.716c2.533,6.971 4.966,13.992 7.095,21.471c1.696,-6.858 9.25,-11.087 16.309,-10.841c7.058,0.245 13.533,4.041 18.942,8.587c13.183,11.071 21.929,27.625 22.425,44.833c0.5,17.209 -7.676,34.704 -21.896,44.413c-3.359,2.296 -7.413,4.762 -7.804,8.812c-0.188,1.917 0.537,3.792 1.245,5.584c11.955,30.108 19.088,61.954 24.913,93.737c2.829,15.429 6.675,31.579 7.158,47.2c0.521,16.809 0.671,30.863 9.292,46.238c1.562,2.787 3.954,5.825 7.133,5.545c1.888,-0.166 3.45,-1.508 4.675,-2.954c7.034,-8.3 6.329,-19.941 9.367,-29.771c4.258,-13.762 10.679,-27.225 16.204,-40.524c31.717,-76.355 66.092,-151.646 89.725,-231.221c11.858,-39.925 18.979,-81.6 16.746,-123.354c-1.604,-30.034 -11.217,-58.73 -20.775,-86.996c-3.45,-10.192 -8.938,-20.571 -11.638,-31.317Z" style="fill:#eec130;fill-rule:nonzero;"/><path d="M524.058,1979.46c6.859,7.02 18.209,6.416 27.834,4.495c37.171,-7.425 70.929,-26.775 101.654,-48.979c30.721,-22.212 59.129,-47.525 90.291,-69.104c4.055,-2.808 8.309,-5.617 13.159,-6.496c16.029,-2.896 22.004,9.038 22.733,23.079c1.342,25.871 -1.729,49.496 -16.546,71.438c-18.091,26.779 -44.979,50.362 -70.541,69.812c-31.367,23.867 -66.204,43.121 -102.834,57.617c-2.912,1.154 -5.837,2.271 -8.77,3.367c-36.792,13.679 -76.009,20.512 -115.271,17.608c-19.954,-1.479 -39.646,-5.342 -59.284,-9.196c-14.079,-2.767 -28.575,-5.696 -40.487,-13.692c-2.434,-1.633 -4.838,-3.604 -5.9,-6.337c-1.992,-5.146 1.754,-11.079 6.725,-13.483c4.971,-2.404 10.746,-2.221 16.262,-2.042c18.988,0.617 39.1,0.308 55.354,-9.529c16.192,-9.796 25.776,-27.342 34.613,-44.079c7.196,-13.63 14.579,-27.488 18.671,-42.434c2.421,-8.85 0.016,-29.679 9.446,-33.841c23.354,-10.313 13.729,42.412 22.891,51.796Z" style="fill:#eec130;fill-rule:nonzero;"/><path d="M469.788,1950.45c-7.151,43.683 -48.559,78.004 -90.521,75.025c-22.279,-1.583 -44.984,-14.025 -54.154,-35.488c-2.763,-6.479 -4.221,-13.5 -5.142,-20.533c-3.109,-23.8 0.112,-49.167 12.579,-69.271c22.404,-36.133 63.579,-35.258 99.167,-24.987c14.271,4.112 26.158,15.575 32.671,29.583c6.516,14 7.916,30.3 5.4,45.671Zm36.658,75.791c13.062,-26.191 17.379,-56.654 14.954,-86.133c-2.304,-28.025 -10.904,-56.116 -28.213,-77.525c-8.783,-10.858 -19.575,-19.754 -31.045,-27.329c-11.409,-7.542 -23.6,-13.863 -36.467,-18.029c-30.483,-9.867 -65.608,-6.579 -93.954,8.358c-5.15,2.713 -10.167,5.063 -11.542,11.117c-8.046,35.417 -4.204,72.371 -7.633,108.529c-1.396,14.737 -4.004,29.375 -4.421,44.171c-0.808,28.767 7.904,56.15 30.029,75.521c17.459,15.283 39.988,21.741 62.709,23.575c9.262,0.75 22.749,2.675 31.691,-0.121c30.917,-9.692 58.254,-30.792 73.892,-62.134Z" style="fill:#eec130;fill-rule:nonzero;"/><path d="M2543.02,2868.95c-18.021,-241.05 -98.954,-396.979 -240.554,-463.442c-128.954,-60.529 -225.338,-71.704 -302.78,-80.675c-151.929,-17.612 -228.187,-26.449 -332.62,-379.27l-0.542,-1.817l-314.017,132.729l0.105,1.229c0.045,0.496 4.262,49.667 -9.163,101.055c-17.929,68.604 -57.067,108.341 -116.317,118.112c-85.491,14.1 -211.191,59.521 -324.554,195.858c-147.808,177.767 -235.629,459.975 -261.016,838.792l-0.121,1.808l1869.99,0l0.263,-1.375c14.237,-74.741 45.791,-269.466 31.325,-463.004Z" style="fill:#ef8f34;fill-rule:nonzero;"/><path d="M1844.71,2282.54c-20.729,-23.592 -61.7,-38.892 -83.096,-57.434c-35.92,-31.116 -66.983,-69.75 -78.349,-116.783c-12.463,-51.563 3.558,-103.096 25.412,-149.679c9.663,-20.6 20.608,-40.559 30.479,-61.05c13.138,-27.259 21.534,-56.35 30,-85.334c21.288,-72.879 37.721,-147.929 41.363,-223.962c4.591,-95.8 -12.409,-197.788 -79.659,-270.542c-52.791,-57.112 -127.587,-86.275 -203.112,-97.962c-69.404,-10.738 -140.859,-8.105 -210.196,1.875c-37.363,5.375 -76.775,11.079 -109.092,31.837c-43.829,28.154 -64.404,77.146 -68.958,127.504c-5.637,62.33 4.587,132.492 34.267,188.084c29.308,54.887 52.854,118.208 51.85,181.17c-0.596,37.413 -13.571,66.309 -31.792,97.959c-13.742,23.883 -25.396,48.979 -35.287,74.683c-45.117,117.196 -58.834,264.388 29.304,365.7c26.587,30.563 60.062,52.688 95.633,71.509c31.992,16.924 65.938,31.483 101.854,37.433c22.267,3.687 44.559,2.996 66.792,-0.425c15.837,-2.442 32.296,-6.704 48.325,-3.296c28.658,6.092 45.029,32.913 66.892,49.588c25.358,19.35 57.024,36.354 89.475,37.625c16.395,0.645 32.712,-2.784 48.4,-7.605c60.137,-18.491 114.554,-59.875 141.233,-116.854c6.687,-14.279 11.675,-29.791 10.891,-45.546c-0.545,-10.862 -5.333,-20.191 -12.629,-28.495Z" style="fill:#20a250;fill-rule:nonzero;"/><path d="M1302.96,1707.31c-59.92,-0 -108.675,45.062 -108.675,100.458c0,55.396 48.755,100.462 108.675,100.462c59.925,0 108.675,-45.066 108.675,-100.462c0,-55.396 -48.75,-100.458 -108.675,-100.458Zm0,214.475c-67.4,-0 -122.229,-51.146 -122.229,-114.017c0,-62.871 54.829,-114.017 122.229,-114.017c67.4,0 122.234,51.146 122.234,114.017c-0,62.871 -54.834,114.017 -122.234,114.017Z" style="fill-rule:nonzero;"/><path d="M1848.23,2277.56c-14.579,-7.092 -30.312,-23.863 -41.62,-37.034c-39.251,-45.754 -65.292,-102.333 -85.534,-158.6c-19.962,-55.487 -34.058,-112.904 -45.121,-170.771c-0.004,-0.437 -0.312,-0.791 -0.825,-1.071c-1.646,-1.083 -5.462,-1.104 -8.975,-0.479l-0.579,0.104l-0.171,0.034c-2,0.371 -3.804,0.962 -4.958,1.762l-0.337,0.254l-0.263,0.213c-0.504,0.454 -0.783,0.942 -0.687,1.45c0.183,17.246 -7.596,35.288 -16.146,49.792c-26.184,44.429 -74.221,71.112 -121.813,86.879c-53.212,17.629 -109.633,23.696 -165.396,25.775c-1.604,0.062 -10.462,0.829 -10.287,3.983c2.191,39.283 0.571,84.471 -17.154,120.192c-0.338,0.521 -0.275,0.987 0.191,1.404c45.004,29.671 93.525,54.996 142.575,77.175c80.679,36.479 173.042,69.079 262.95,58.396c44.425,-5.283 85.8,-23.134 115.271,-57.534c0.779,-0.908 -0.542,-1.641 -1.121,-1.924Z" style="fill:#d79e86;fill-rule:nonzero;"/><path d="M1371.34,1305.76c-0,0 -148.084,0.75 -121.688,291.471c26.392,290.717 -94.529,512.929 118.404,488.28c212.938,-24.655 314.3,-73.788 297.246,-183.913c-17.05,-110.125 -156.191,-632.487 -293.962,-595.838Z" style="fill:#e2b295;fill-rule:nonzero;"/><path d="M1387.35,1619.59c5.225,0 10.254,-2.891 12.737,-7.891c3.15,-6.363 6.238,-7.058 7.25,-7.288c6.334,-1.433 16.154,4.188 19.913,7.134c6.158,4.825 15.075,3.787 19.925,-2.342c4.85,-6.125 3.871,-15 -2.233,-19.879c-2.234,-1.788 -22.476,-17.359 -43.701,-12.659c-7.933,1.759 -18.987,7.071 -26.6,22.405c-3.487,7.025 -0.62,15.55 6.409,19.037c2.029,1.004 4.179,1.483 6.3,1.483Z" style="fill:#eec130;fill-rule:nonzero;"/><path d="M1385.11,1617.82c5.966,-0 11.52,-3.788 13.491,-9.759c5.308,-16.129 10.554,-20.12 12.129,-20.296c4.463,-0.466 15.242,9.692 21.513,20.167c4.025,6.729 12.741,8.925 19.479,4.892c6.729,-4.029 8.921,-12.746 4.892,-19.479c-0.525,-0.875 -5.338,-8.788 -12.75,-16.675c-11.95,-12.713 -24.134,-18.471 -36.271,-17.134c-15.788,1.755 -27.892,15.088 -35.975,39.642c-2.45,7.446 1.596,15.479 9.05,17.925c1.471,0.492 2.971,0.717 4.442,0.717Z" style="fill-rule:nonzero;"/><path d="M1273.18,1588.72m0.459,0.546l-0.313,-0.401c-0.979,0.009 -3.092,0.759 -4.379,1.58l0.167,-0.109l-16.013,-23.462c1.033,-0.704 6.554,-4.292 13.937,-5.763c12.026,-2.391 22.913,1.929 29.871,11.863c4.496,6.425 2.934,15.283 -3.491,19.779c-2.479,1.738 -5.317,2.571 -8.134,2.571c-4.475,-0 -8.883,-2.113 -11.645,-6.058Z" style="fill:#eec130;fill-rule:nonzero;"/><path d="M1287.83,1593.1c1.8,-0 3.621,-0.421 5.325,-1.313c5.65,-2.945 7.842,-9.916 4.9,-15.566c-6.208,-11.896 -14.983,-16.408 -21.25,-18.096c-15.633,-4.208 -30.279,4.65 -31.9,5.675c-5.383,3.408 -6.987,10.538 -3.583,15.925c3.4,5.362 10.487,6.975 15.863,3.617c1.979,-1.204 8.699,-4.3 13.687,-2.909c0.967,0.267 3.913,1.084 6.717,6.459c2.058,3.95 6.079,6.208 10.241,6.208Z" style="fill-rule:nonzero;"/><path d="M1405.33,1597.56c0,0 -8.521,-9.712 -17.971,7.821c-9.445,17.538 -25.366,63.775 -13.45,66.446c11.921,2.671 24.796,-36.3 24.796,-36.3c0,0 10.613,-33.592 6.625,-37.967Z" style="fill:#1f2022;fill-rule:nonzero;"/><path d="M1280.17,1590.25c-0,0 -9.9,-8.512 -16.621,10.075c-6.717,18.592 -15.533,66.438 -3.329,67.537c12.204,1.105 19.096,-39.154 19.096,-39.154c-0,0 5.462,-34.641 0.854,-38.458Z" style="fill:#1f2022;fill-rule:nonzero;"/><path d="M1724.17,1840.65c-23.454,36.829 -69.146,54.55 -111.642,47.333c-48.237,-8.192 -86.6,-47.433 -87.712,-97.183c2.121,-94.917 127.937,-130.242 188.779,-63.625c28.375,31.071 33.325,77.741 10.575,113.475Zm14.633,-108.254c-26.954,-42.763 -79.2,-63.471 -128.458,-55.534c-56.704,9.146 -101.179,55.884 -102.479,113.938c2.458,110.125 148.708,153.762 219.191,74c32.346,-36.604 38.013,-90.729 11.746,-132.404Z" style="fill-rule:nonzero;"/><path d="M1593.66,1675.01c-0,5.58 4.87,10.105 10.874,10.105c6.009,-0 10.88,-4.525 10.88,-10.105c-0,-5.579 -4.871,-10.1 -10.88,-10.1c-6.004,0 -10.874,4.521 -10.874,10.1Z" style="fill:#de2630;fill-rule:nonzero;"/><path d="M1310.42,1549.11c19.442,26.08 46.308,47.309 79.954,48.971c2.496,0.121 -3.821,5.213 -5.854,5.117c-34.433,-1.709 -61.704,-22.679 -81.671,-49.458c-0.992,-1.325 6.329,-6.296 7.571,-4.63Z" style="fill:#1f2022;fill-rule:nonzero;"/><path d="M1328.3,1505.82c2.121,12.925 6.129,25.775 11.071,37.875c8.725,21.366 25.058,49.575 50.412,53.208c1.675,0.237 9.509,2.933 4.113,2.158c-45.534,-6.52 -67.509,-53.946 -74.271,-95.137c-0,-0 8.354,-0.042 8.675,1.896Z" style="fill:#1f2022;fill-rule:nonzero;"/><path d="M1367.74,1515.14c-1.642,11.812 0.441,25.366 2.658,36.92c3.433,17.913 11.3,40.671 31.587,44.767c3.676,0.746 -4.824,1.583 -6.274,1.292c-19.942,-4.029 -28.909,-22.9 -33.146,-41.088c-3.017,-12.925 -5.559,-28.508 -3.7,-41.854c0.225,-1.621 9.008,-0.996 8.875,-0.037Z" style="fill:#1f2022;fill-rule:nonzero;"/><path d="M1176.87,1548.4c14.812,26.475 43.4,54.937 76.325,40.721c1.854,-0.804 7.808,4.662 6.937,5.037c-37.066,16 -73.958,-19.866 -90.766,-49.908c0.108,0.2 6.271,1.95 7.504,4.15Z" style="fill:#1f2022;fill-rule:nonzero;"/><path d="M1190.14,1507.28c9.242,36.825 36.075,82.721 79.551,79.046c3.604,-0.304 -1.771,6.366 -4.446,6.596c-44.929,3.795 -72.742,-42.709 -82.334,-80.921c-0.687,-2.746 6.463,-7.775 7.229,-4.721Z" style="fill:#1f2022;fill-rule:nonzero;"/><path d="M1221.17,1486.94c-1.038,42.409 15.771,99.675 66.617,100.288c-0.459,-0.008 -4.226,5.546 -6.55,5.517c-51.084,-0.613 -68.13,-57.596 -67.084,-100.367c0.059,-2.433 6.996,-4.525 7.017,-5.438Z" style="fill:#1f2022;fill-rule:nonzero;"/><path d="M1339.36,1498.41c-1.525,1.242 -2.562,2.959 -2.708,4.838c-0.175,2.35 0.987,5.208 6.9,6.516c11.35,2.505 53.575,-26.133 70.15,-36.166c4.088,-2.479 9.408,-2.296 13.283,0.458l59.175,42.038c0,-0 -58.35,-54.392 -65.671,-55.167c-7.116,-0.754 -62.854,22.671 -81.129,37.483Z" style="fill:#1f2022;fill-rule:nonzero;"/><path d="M1300.73,1507.85c0.571,1.104 2.15,4.421 2.204,6.104c0.067,2.1 -1.241,3.771 -3.77,4.046c-5.642,0.617 -20.08,-23.366 -26.288,-32.346c-1.529,-2.216 -3.525,-2.054 -4.979,0.413l-22.171,37.6c0,-0 21.863,-48.65 24.604,-49.342c2.667,-0.675 23.554,20.271 30.4,33.525Z" style="fill:#1f2022;fill-rule:nonzero;"/><path d="M1393.13,1895.4c-1.691,-2.046 -3.85,-4.775 -6.362,-7.954c-15.6,-19.733 -41.704,-52.763 -59.08,-54.396c-3.483,-0.325 -6.454,0.579 -8.8,2.625c-2.529,1.617 -5.35,4.5 -7.275,6.629c-2.583,2.871 -3.779,3.288 -4.22,3.233c-0.842,-0.041 -2.017,-1.645 -3.379,-3.495c-1.238,-1.684 -2.78,-3.779 -4.892,-5.913c-2.813,-2.829 -6.238,-2.916 -8.392,-1.754c-5.212,2.821 -15.996,23.496 -29.55,50.229c-3.658,7.209 -6.821,13.438 -9.037,17.479c-1.896,3.459 -2.146,7.525 -0.684,11.163c7.692,19.112 28.538,64.154 55.959,69.633c1.804,0.358 3.608,0.542 5.4,0.542c8.579,-0 16.979,-4.129 25.029,-12.321c8.916,-9.067 16.7,-16.871 23.446,-23.625c17.758,-17.796 28.479,-28.537 33.245,-35.9c3.196,-4.938 2.642,-11.287 -1.408,-16.175Z" style="fill:#764898;fill-rule:nonzero;"/><path d="M1318.7,1896.55c0.817,0.038 1.609,0.163 2.396,0.375c4.275,1.146 18.129,5.467 9.238,11.275c-10.43,6.808 -40.684,6.3 -37.492,-2.837c3.204,-9.18 21.033,-9.025 25.858,-8.813Z" style="fill:#fff;fill-rule:nonzero;"/><path d="M1306.93,1773.5c0.771,-13.338 22.217,-11.279 22.33,1.371c0.12,13.416 -21.609,11.154 -22.33,-1.371Zm11.292,-17.446c-10.421,0.371 -18.679,8.471 -19.279,18.817c-0.029,0.545 0.037,0.996 0.15,1.396c2.721,22.329 37.904,19.987 38.154,-2.767c0.113,-10.263 -9.154,-17.796 -19.025,-17.446Z" style="fill:#1f2022;fill-rule:nonzero;"/><path d="M3416.06,3333.33c29.775,-156.262 123.13,-769.029 -208.279,-924.591c-380.766,-178.734 -478.066,73.6 -636.308,-461l-311.137,131.512c-0,0 17.783,197.133 -126.896,220.992c-142.863,23.554 -525.159,152.792 -584.15,1033.09l1866.77,0Z" style="fill:#eec130;fill-rule:nonzero;"/><path d="M2754.81,2280.95c-14.579,-7.091 -30.312,-23.867 -41.616,-37.037c-39.255,-45.75 -65.296,-102.334 -85.538,-158.596c-19.962,-55.492 -34.062,-112.904 -45.121,-170.771c-0.004,-0.438 -0.312,-0.792 -0.825,-1.075c-1.65,-1.079 -5.466,-1.1 -8.975,-0.479l-0.579,0.108l-0.175,0.029c-1.996,0.371 -3.8,0.967 -4.954,1.763l-0.337,0.258l-0.263,0.213c-0.504,0.454 -0.788,0.937 -0.688,1.446c0.184,17.249 -7.595,35.291 -16.145,49.791c-26.184,44.429 -74.221,71.117 -121.813,86.884c-53.208,17.624 -109.633,23.691 -165.396,25.77c-1.604,0.063 -10.462,0.834 -10.287,3.988c2.191,39.279 0.566,84.471 -17.154,120.187c-0.338,0.521 -0.275,0.992 0.191,1.405c45.004,29.67 93.521,54.995 142.575,77.179c80.675,36.475 173.042,69.079 262.95,58.391c44.425,-5.279 85.8,-23.133 115.271,-57.529c0.779,-0.908 -0.541,-1.646 -1.121,-1.925Z" style="fill:#d79e86;fill-rule:nonzero;"/><path d="M2277.92,1309.15c-0,0 -148.084,0.75 -121.688,291.471c26.388,290.721 -94.529,512.937 118.409,488.283c212.933,-24.654 314.295,-73.787 297.241,-183.917c-17.054,-110.12 -156.191,-632.487 -293.962,-595.837Z" style="fill:#e2b295;fill-rule:nonzero;"/><path d="M2311.9,1600.95c0,-0 -8.521,-9.717 -17.971,7.821c-9.446,17.533 -25.366,63.771 -13.45,66.446c11.921,2.666 24.796,-36.3 24.796,-36.3c0,-0 10.613,-33.596 6.625,-37.967Z" style="fill:#1f2022;fill-rule:nonzero;"/><path d="M2186.75,1593.64c-0,-0 -9.9,-8.513 -16.621,10.075c-6.717,18.591 -15.529,66.437 -3.329,67.537c12.204,1.1 19.096,-39.158 19.096,-39.158c-0,-0 5.458,-34.638 0.854,-38.454Z" style="fill:#1f2022;fill-rule:nonzero;"/><path d="M2225.28,1899.94c0.817,0.037 1.609,0.162 2.396,0.375c4.275,1.15 18.129,5.471 9.233,11.275c-10.429,6.808 -40.679,6.304 -37.487,-2.834c3.204,-9.183 21.033,-9.025 25.858,-8.816Z" style="fill-rule:nonzero;"/><path d="M2213.51,1776.88c0.771,-13.337 22.217,-11.279 22.33,1.371c0.12,13.417 -21.605,11.154 -22.33,-1.371Zm11.292,-17.441c-10.421,0.366 -18.679,8.471 -19.279,18.812c-0.033,0.546 0.033,1 0.15,1.396c2.721,22.333 37.904,19.987 38.154,-2.767c0.108,-10.262 -9.154,-17.791 -19.025,-17.441Z" style="fill:#1f2022;fill-rule:nonzero;"/><path d="M2660.84,1417.25c-12.604,-62.767 -60.363,-111.804 -116.717,-141.796c-78.729,-41.891 -172.55,-50.379 -260.612,-42.225c-28.209,2.613 -56.242,6.988 -83.942,12.759c-6.896,1.441 -13.779,2.971 -20.642,4.583c-7.021,1.65 -13.771,4.375 -20.975,3.033c-6.066,-1.129 -11.512,-1.5 -17.671,-1.604c-21.208,-0.346 -42.425,-1.191 -63.575,-2.737c-13.195,-0.963 -26.379,-2.209 -39.483,-4.03c-9.913,-1.379 -21.95,-5.879 -31.721,-2.133c-21.391,8.196 -10.946,31.067 -5.9,46.204c5.742,17.213 11.929,34.288 18.634,51.175c15.091,38 32.599,75.463 55.091,109.925c19.638,30.096 43.979,59.792 76.579,77.354c13.784,7.43 29.021,12.371 44.829,13.226c19.192,1.041 39.134,-2.255 57.963,-5.538c35.237,-6.142 69.446,-16.896 104.704,-22.854c24.05,-4.063 53.458,-6.654 67.179,17.216c8.188,14.234 10.042,31.571 10.659,47.567c1.075,27.825 -3.604,55.408 -1.292,83.25c0.746,9 0.875,22.492 7.554,29.679c5.133,5.521 14.442,5.813 21.125,3.18c6.684,-2.646 11.434,-9.034 16.846,-13.492c4.879,-4.017 10.154,-7.833 15.95,-10.513c2.887,-1.333 9.433,-4 12.021,-2.6c5.033,2.721 4.692,13.867 4.608,18.355c-0.454,25.512 -10.058,50.545 -13.679,75.749c-1.575,10.955 -3.575,23.746 1.108,34.276c3.117,7.008 9.371,11.962 14.317,17.708c4.029,4.679 7.792,9.683 9.267,15.687c2.437,9.9 2.708,20.267 6.121,29.946c5.57,13.15 22.858,21.296 36.395,13.85c8.679,-4.771 10.134,-12.942 11.109,-21.783c1.337,-12.15 2.779,-24.288 4.325,-36.417c6.954,-54.458 15.941,-108.742 28.325,-162.3c6.3,-27.237 13.496,-54.296 22.058,-80.946c7.1,-22.091 16.692,-43.316 23.8,-65.362c9.188,-28.504 11.546,-59.017 5.642,-88.392Z" style="fill:#de2630;fill-rule:nonzero;"/><path d="M4197.92,3329.65c29.75,-156.263 123.125,-769.025 -208.296,-924.588c-380.767,-178.733 -478.063,73.6 -636.304,-461.004l-311.138,131.517c0,-0 17.783,197.129 -126.896,220.987c-142.862,23.559 -525.158,152.792 -584.15,1033.09l1866.78,-0Z" style="fill:#20a250;fill-rule:nonzero;"/><path d="M3249.26,1135.66c-230.608,-0 -418.221,187.612 -418.221,418.22c0,230.605 187.613,418.221 418.221,418.221c230.609,0 418.225,-187.616 418.225,-418.221c0,-230.608 -187.616,-418.22 -418.225,-418.22Z" style="fill:#ef8f34;fill-rule:nonzero;"/><path d="M3447.67,1030.54c-50.2,-0 -91.046,40.841 -91.046,91.046c-0,50.2 40.846,91.041 91.046,91.041c50.2,0 91.046,-40.841 91.046,-91.041c-0,-50.205 -40.846,-91.046 -91.046,-91.046Z" style="fill:#ef8f34;fill-rule:nonzero;"/><path d="M2997.4,1710.7c-59.925,-0 -108.675,45.067 -108.675,100.462c0,55.396 48.75,100.459 108.675,100.459c59.921,-0 108.671,-45.063 108.671,-100.459c-0,-55.395 -48.75,-100.462 -108.671,-100.462Zm-0,214.479c-67.4,0 -122.233,-51.146 -122.233,-114.017c-0,-62.87 54.833,-114.02 122.233,-114.02c67.4,-0 122.229,51.15 122.229,114.02c0,62.871 -54.829,114.017 -122.229,114.017Z" style="fill-rule:nonzero;"/><path d="M3532.51,2280.95c-14.579,-7.091 -30.312,-23.867 -41.616,-37.037c-39.254,-45.75 -65.292,-102.334 -85.538,-158.596c-19.962,-55.492 -34.062,-112.904 -45.121,-170.771c-0.004,-0.438 -0.312,-0.792 -0.825,-1.075c-1.65,-1.079 -5.466,-1.1 -8.975,-0.479l-0.579,0.108l-0.171,0.029c-2,0.371 -3.804,0.967 -4.958,1.763l-0.337,0.258l-0.263,0.213c-0.504,0.454 -0.787,0.937 -0.688,1.446c0.184,17.249 -7.595,35.291 -16.141,49.791c-26.188,44.429 -74.225,71.117 -121.817,86.884c-53.208,17.624 -109.633,23.691 -165.396,25.77c-1.604,0.063 -10.462,0.834 -10.287,3.988c2.192,39.279 0.566,84.471 -17.154,120.187c-0.338,0.521 -0.275,0.992 0.187,1.405c45.008,29.67 93.529,54.995 142.579,77.179c80.68,36.475 173.042,69.079 262.95,58.391c44.425,-5.279 85.8,-23.133 115.275,-57.529c0.775,-0.908 -0.546,-1.646 -1.125,-1.925Z" style="fill:#edc1be;fill-rule:nonzero;"/><path d="M3048.83,1309.15c0,0 -148.083,0.75 -121.687,291.471c26.391,290.721 -94.529,512.937 118.404,488.283c212.937,-24.654 314.3,-73.787 297.246,-183.917c-17.05,-110.12 -156.192,-632.487 -293.963,-595.837Z" style="fill:#f6d2c8;fill-rule:nonzero;"/><path d="M3064.84,1622.98c5.226,0 10.255,-2.896 12.734,-7.896c3.154,-6.358 6.241,-7.054 7.254,-7.287c6.333,-1.433 16.154,4.187 19.913,7.133c6.158,4.825 15.075,3.788 19.92,-2.342c4.855,-6.12 3.875,-14.995 -2.229,-19.879c-2.233,-1.787 -22.475,-17.354 -43.7,-12.654c-7.933,1.759 -18.987,7.067 -26.6,22.404c-3.487,7.021 -0.621,15.546 6.409,19.034c2.029,1.004 4.179,1.487 6.299,1.487Z" style="fill:#eec130;fill-rule:nonzero;"/><path d="M3062.6,1621.21c5.967,0 11.521,-3.783 13.488,-9.762c5.312,-16.129 10.558,-20.117 12.133,-20.292c4.462,-0.466 15.242,9.688 21.508,20.167c4.029,6.725 12.746,8.921 19.484,4.891c6.729,-4.029 8.921,-12.75 4.891,-19.479c-0.525,-0.875 -5.337,-8.791 -12.75,-16.675c-11.95,-12.716 -24.133,-18.475 -36.27,-17.133c-15.788,1.75 -27.892,15.087 -35.976,39.637c-2.45,7.446 1.596,15.48 9.05,17.934c1.471,0.483 2.971,0.712 4.442,0.712Z" style="fill-rule:nonzero;"/><path d="M2950.67,1592.1m0.458,0.546l-0.312,-0.396c-0.98,0.009 -3.092,0.754 -4.379,1.579l0.166,-0.112l-16.012,-23.463c1.029,-0.704 6.554,-4.291 13.937,-5.762c12.025,-2.392 22.913,1.929 29.867,11.862c4.5,6.425 2.937,15.284 -3.488,19.779c-2.479,1.738 -5.316,2.571 -8.133,2.571c-4.475,0 -8.883,-2.108 -11.646,-6.058Z" style="fill:#eec130;fill-rule:nonzero;"/><path d="M2965.33,1596.49c1.8,-0 3.621,-0.417 5.325,-1.309c5.65,-2.946 7.842,-9.916 4.896,-15.571c-6.204,-11.891 -14.979,-16.404 -21.246,-18.091c-15.633,-4.209 -30.279,4.65 -31.9,5.67c-5.383,3.409 -6.988,10.538 -3.583,15.925c3.4,5.363 10.487,6.976 15.862,3.617c1.979,-1.204 8.7,-4.3 13.688,-2.908c0.966,0.271 3.912,1.087 6.716,6.462c2.059,3.946 6.08,6.205 10.242,6.205Z" style="fill-rule:nonzero;"/><path d="M3082.82,1600.95c-0,-0 -8.525,-9.717 -17.971,7.821c-9.446,17.533 -25.367,63.771 -13.45,66.446c11.921,2.666 24.796,-36.3 24.796,-36.3c-0,-0 10.612,-33.596 6.625,-37.967Z" style="fill:#1f2022;fill-rule:nonzero;"/><path d="M2957.66,1593.64c0,-0 -9.899,-8.513 -16.62,10.075c-6.717,18.591 -15.534,66.437 -3.329,67.537c12.204,1.1 19.095,-39.158 19.095,-39.158c0,-0 5.463,-34.638 0.854,-38.454Z" style="fill:#1f2022;fill-rule:nonzero;"/><path d="M3401.67,1844.03c-23.455,36.83 -69.146,54.55 -111.646,47.338c-48.234,-8.192 -86.596,-47.433 -87.709,-97.188c2.121,-94.916 127.938,-130.237 188.784,-63.621c28.371,31.067 33.321,77.738 10.571,113.471Zm14.633,-108.25c-26.954,-42.766 -79.2,-63.475 -128.458,-55.533c-56.7,9.142 -101.179,55.883 -102.48,113.933c2.463,110.125 148.709,153.767 219.192,74c32.346,-36.604 38.013,-90.725 11.746,-132.4Z" style="fill-rule:nonzero;"/><path d="M3282.03,1668.3c-6.004,-0 -10.875,4.525 -10.875,10.1c0,5.579 4.871,10.104 10.875,10.104c6.009,-0 10.879,-4.525 10.879,-10.104c0,-5.575 -4.87,-10.1 -10.879,-10.1Z" style="fill:#eec130;fill-rule:nonzero;"/><path d="M2987.92,1552.5c19.441,26.075 46.308,47.304 79.954,48.971c2.496,0.121 -3.821,5.212 -5.854,5.112c-34.434,-1.704 -61.709,-22.675 -81.671,-49.454c-0.992,-1.325 6.329,-6.3 7.571,-4.629Z" style="fill:#1f2022;fill-rule:nonzero;"/><path d="M3005.78,1509.21c2.125,12.925 6.134,25.775 11.075,37.875c8.729,21.367 25.059,49.571 50.413,53.205c1.675,0.241 9.504,2.933 4.112,2.162c-45.533,-6.525 -67.508,-53.946 -74.27,-95.137c-0,-0 8.354,-0.046 8.67,1.895Z" style="fill:#1f2022;fill-rule:nonzero;"/><path d="M3045.23,1518.53c-1.641,11.813 0.442,25.367 2.659,36.925c3.433,17.908 11.3,40.667 31.583,44.767c3.675,0.741 -4.821,1.583 -6.271,1.287c-19.941,-4.025 -28.908,-22.9 -33.146,-41.083c-3.016,-12.929 -5.558,-28.513 -3.7,-41.858c0.225,-1.621 9.009,-0.992 8.875,-0.038Z" style="fill:#1f2022;fill-rule:nonzero;"/><path d="M2854.36,1551.79c14.809,26.47 43.401,54.933 76.321,40.716c1.859,-0.8 7.813,4.663 6.942,5.038c-37.067,16.004 -73.958,-19.863 -90.767,-49.904c0.109,0.195 6.271,1.946 7.504,4.15Z" style="fill:#1f2022;fill-rule:nonzero;"/><path d="M2867.63,1510.67c9.242,36.817 36.075,82.712 79.55,79.037c3.604,-0.304 -1.771,6.371 -4.446,6.596c-44.929,3.796 -72.746,-42.704 -82.333,-80.921c-0.688,-2.746 6.462,-7.775 7.229,-4.712Z" style="fill:#1f2022;fill-rule:nonzero;"/><path d="M2898.66,1490.33c-1.038,42.404 15.77,99.675 66.616,100.284c-0.458,-0.009 -4.225,5.545 -6.55,5.516c-51.083,-0.608 -68.129,-57.596 -67.083,-100.366c0.058,-2.434 6.996,-4.525 7.017,-5.434Z" style="fill:#1f2022;fill-rule:nonzero;"/><path d="M3161.4,1636.35c-3.975,-0 -7.196,2.987 -7.196,6.679c0,3.692 3.221,6.683 7.196,6.683c3.975,0 7.196,-2.991 7.196,-6.683c-0,-3.692 -3.221,-6.679 -7.196,-6.679Z" style="fill:#1f2022;fill-rule:nonzero;"/><path d="M3016.85,1501.8c-1.525,1.238 -2.562,2.958 -2.708,4.837c-0.175,2.346 0.987,5.209 6.9,6.513c11.35,2.508 53.575,-26.129 70.146,-36.163c4.087,-2.479 9.408,-2.295 13.287,0.459l59.175,42.037c0,0 -58.35,-54.395 -65.667,-55.166c-7.12,-0.754 -62.858,22.666 -81.133,37.483Z" style="fill:#1f2022;fill-rule:nonzero;"/><path d="M2978.22,1511.24c0.571,1.108 2.15,4.425 2.204,6.104c0.067,2.1 -1.241,3.771 -3.771,4.05c-5.641,0.612 -20.079,-23.371 -26.287,-32.35c-1.533,-2.213 -3.525,-2.046 -4.979,0.417l-22.175,37.595c-0,0 21.866,-48.65 24.608,-49.341c2.667,-0.675 23.554,20.275 30.4,33.525Z" style="fill:#1f2022;fill-rule:nonzero;"/><path d="M3070.62,1898.79c-1.696,-2.038 -3.846,-4.767 -6.35,-7.938c-15.6,-19.742 -41.709,-52.775 -59.092,-54.413c-3.483,-0.325 -6.454,0.584 -8.8,2.626c-2.525,1.62 -5.35,4.499 -7.275,6.633c-2.583,2.866 -3.654,3.287 -4.221,3.229c-0.841,-0.042 -2.016,-1.638 -3.379,-3.496c-1.233,-1.683 -2.775,-3.779 -4.891,-5.912c-2.809,-2.825 -6.242,-2.917 -8.392,-1.755c-5.213,2.821 -15.996,23.496 -29.55,50.23c-3.658,7.212 -6.821,13.441 -9.038,17.479c-1.896,3.462 -2.146,7.525 -0.683,11.162c7.692,19.113 28.537,64.159 55.954,69.634c1.808,0.358 3.613,0.541 5.404,0.541c8.579,0 16.975,-4.125 25.03,-12.316c8.916,-9.071 16.7,-16.875 23.441,-23.629c17.763,-17.792 28.484,-28.538 33.25,-35.896c3.196,-4.942 2.642,-11.288 -1.408,-16.179Z" style="fill:#de2630;fill-rule:nonzero;"/><path d="M2996.2,1899.94c0.817,0.037 1.612,0.162 2.392,0.375c4.279,1.15 18.133,5.471 9.241,11.275c-10.429,6.808 -40.683,6.304 -37.492,-2.834c3.205,-9.183 21.034,-9.025 25.859,-8.816Z" style="fill:#fff;fill-rule:nonzero;"/><path d="M2984.43,1776.88c0.771,-13.337 22.217,-11.279 22.329,1.371c0.121,13.417 -21.604,11.154 -22.329,-1.371Zm11.292,-17.441c-10.421,0.366 -18.679,8.471 -19.28,18.812c-0.033,0.546 0.038,1 0.15,1.396c2.721,22.333 37.905,19.987 38.15,-2.767c0.117,-10.262 -9.149,-17.791 -19.02,-17.441Z" style="fill:#1f2022;fill-rule:nonzero;"/><path d="M3997.6,1636.58c-2.875,45.125 3.283,90.346 2.921,135.558c-0.625,78.709 -24.1,155.505 -5.684,233.821c2.946,12.525 6.509,26.504 -0.033,37.584c-3.158,5.354 -8.321,9.225 -13.7,12.333c-30.887,17.842 -73.437,12.317 -98.746,-12.829c-12.662,-12.579 -22.975,-30.346 -40.591,-33.246c-9.33,-1.537 -18.721,1.642 -28.146,2.421c-9.421,0.775 -20.588,-2.075 -24.146,-10.833c-1.558,-3.846 -1.342,-8.155 -0.946,-12.284c3.304,-34.221 17.242,-66.429 24.825,-99.954c13.909,-61.504 -4.837,-125.542 -15.75,-185.658c-12.146,-66.938 -5.125,-137.405 20.879,-200.325c16.413,-39.717 40.025,-76.475 52.634,-117.559c9.446,-30.783 12.545,-63.512 25.091,-93.162c16.629,-39.313 50.921,-71.7 91.167,-86.054c36.812,-13.13 101.746,-5.605 134.796,14.845c43.637,26.996 24.812,63.467 3.346,99.059c-58.08,96.291 -120.592,201.367 -127.917,316.283Z" style="fill:#de2630;fill-rule:nonzero;"/><path d="M5253.71,2868.95c-18,-241.05 -98.958,-396.979 -240.541,-463.442c-128.959,-60.529 -225.334,-71.704 -302.792,-80.675c-151.917,-17.612 -228.167,-26.449 -332.625,-379.27l-0.542,-1.817l-314.012,132.729l0.112,1.229c0.042,0.496 4.259,49.667 -9.166,101.055c-17.93,68.604 -57.063,108.341 -116.317,118.112c-85.492,14.1 -211.196,59.521 -324.554,195.858c-147.813,177.767 -235.629,459.975 -261.017,838.792l-0.116,1.808l1869.99,0l0.25,-1.375c14.25,-74.741 45.792,-269.466 31.333,-463.004Z" style="fill:#2e3689;fill-rule:nonzero;"/><path d="M4559.46,2279.25c-14.583,-7.087 -30.291,-23.858 -41.625,-37.033c-39.25,-45.75 -65.291,-102.329 -85.541,-158.6c-19.959,-55.484 -34.042,-112.896 -45.083,-170.767c-0.042,-0.437 -0.334,-0.787 -0.834,-1.071c-1.667,-1.087 -5.458,-1.104 -9,-0.479l-0.583,0.1l-0.167,0.033c-2,0.375 -3.792,0.971 -4.959,1.763l-0.333,0.258l-0.249,0.213c-0.501,0.454 -0.792,0.941 -0.709,1.45c0.208,17.25 -7.588,35.287 -16.125,49.792c-26.167,44.429 -74.213,71.112 -121.833,86.879c-53.209,17.629 -109.617,23.696 -165.38,25.77c-1.604,0.063 -10.462,0.83 -10.287,3.988c2.192,39.283 0.567,84.471 -17.154,120.187c-0.338,0.525 -0.275,0.992 0.192,1.409c45.004,29.671 93.524,54.996 142.587,77.175c80.667,36.479 173.042,69.075 262.917,58.392c44.458,-5.28 85.833,-23.13 115.291,-57.534c0.792,-0.904 -0.541,-1.637 -1.125,-1.925Z" style="fill:#bc8a6c;fill-rule:nonzero;"/><path d="M4082.57,1307.46c-0,0 -148.084,0.75 -121.688,291.467c26.396,290.725 -94.529,512.937 118.409,488.283c212.916,-24.65 314.291,-73.787 297.25,-183.912c-17.042,-110.129 -156.209,-632.488 -293.971,-595.838Z" style="fill:#d19c78;fill-rule:nonzero;"/><path d="M3984.41,1590.41" style="fill:#eec130;fill-rule:nonzero;"/><path d="M4116.56,1599.25c0,0 -8.52,-9.716 -17.97,7.821c-9.446,17.538 -25.363,63.771 -13.446,66.446c11.916,2.671 24.796,-36.296 24.796,-36.296c-0,-0 10.612,-33.596 6.62,-37.971Z" style="fill:#1f2022;fill-rule:nonzero;"/><path d="M3991.4,1591.95c-0,-0 -9.9,-8.517 -16.617,10.075c-6.72,18.591 -15.533,66.437 -3.329,67.537c12.204,1.1 19.096,-39.158 19.096,-39.158c-0,-0 5.458,-34.642 0.85,-38.454Z" style="fill:#1f2022;fill-rule:nonzero;"/><path d="M4029.93,1898.25c0.817,0.037 1.613,0.158 2.396,0.371c4.279,1.146 18.129,5.466 9.238,11.275c-10.429,6.808 -40.679,6.304 -37.492,-2.838c3.204,-9.179 21.037,-9.025 25.858,-8.808Z" style="fill-rule:nonzero;"/><path d="M4018.16,1775.19c0.77,-13.338 22.216,-11.276 22.333,1.375c0.117,13.416 -21.608,11.149 -22.333,-1.375Zm11.291,-17.442c-10.417,0.366 -18.679,8.475 -19.275,18.817c-0.033,0.545 0.033,0.991 0.146,1.395c2.725,22.325 37.904,19.984 38.154,-2.77c0.113,-10.259 -9.154,-17.792 -19.025,-17.442Z" style="fill:#1f2022;fill-rule:nonzero;"/><path d="M4119.23,1419.87c45.438,68.262 115.517,122.829 137.85,201.742c15.163,53.55 5.75,112.42 25.538,164.437c16.588,43.533 50.712,83.317 48.879,132.217c-1.667,44.445 -35.25,86.237 -25.083,129.537c1.583,6.729 4.416,13.492 9.75,17.884c8.079,6.641 19.75,6.304 30.083,4.695c45.292,-7.066 88.916,-31.979 134.167,-24.92c27.041,4.216 51.458,19.604 78.541,23.254c27.125,3.65 61,-12.488 59.917,-39.825c-0.416,-10.109 -5.584,-19.296 -9.667,-28.538c-23.291,-52.229 -14.625,-112.3 -8.666,-169.167c6.708,-64.22 -8.584,-126.854 -20.167,-189.541c-5.084,-27.65 -4.333,-52.4 -16.167,-78.804c-11,-24.542 -26.833,-46.713 -43.708,-67.492c-27.333,-33.621 -58.209,-64.804 -79.875,-102.329c-13.75,-23.788 -23.5,-49.696 -37.333,-73.425c-24,-41.213 -60.333,-75.163 -103.083,-96.35c-40.834,-20.246 -74.626,-29.796 -120.459,-33.342c-24.267,-1.875 -49.2,-3.683 -72.467,3.434c-94.687,28.966 -23.312,173.562 11.95,226.533Z" style="fill:#de2630;fill-rule:nonzero;"/><path d="M3932.02,1388.19c-16.167,47.283 -23.434,97.595 -21.309,147.521c0.167,3.875 0.446,7.941 2.509,11.225c5.004,7.97 16.812,6.962 25.862,4.366c54.446,-15.596 101.921,-54.112 128.4,-104.171c16.492,-31.179 24.946,-66.041 40.759,-97.566c8.825,-17.596 20.166,-37.779 11.854,-55.625c-9.417,-20.217 -37.404,-22.5 -59.175,-17.663c-62.046,13.771 -108.434,52.075 -128.9,111.913Z" style="fill:#de2630;fill-rule:nonzero;"/><path d="M5439.83,2837.01c98.624,52.421 215.583,29.513 262.916,-24.771l0.875,-1.016c81.667,-94.829 53.833,-236.858 38.833,-313.279c-3.791,-19.329 -6.791,-34.592 -7.166,-44.35c-3.667,-88.8 13.25,-128.209 44,-199.75c19.625,-45.759 44.083,-102.692 71.875,-192.971c39.291,-127.9 -27.084,-236.713 -89.709,-305.471c-77.792,-85.404 -180.417,-145.725 -250.541,-173.696c-140.625,-56.096 -193.5,-273.325 -194,-275.591c-0.542,-1.771 -52.042,-177.305 -190.75,-212.405c-96.209,-24.337 -210.584,23.159 -340.042,141.159c-21.917,19.958 -41.458,39.954 -58.709,59.987c-82.916,96.329 -112.041,193.354 -86.5,289.196c29.001,108.883 121.293,189.008 193.626,237.058c83.666,55.567 175.25,87.138 269.708,119.588c115.458,39.658 200.625,151.004 208.75,275.158c9,137.284 -67.667,285.167 -14.917,409.859c18.167,42.995 49.375,77.262 64.375,121.67c14.625,43.221 35.459,67.359 77.376,89.625Z" style="fill:#eec130;fill-rule:nonzero;"/><path d="M6191.88,2868.95c-18,-241.05 -98.916,-396.979 -240.542,-463.442c-128.958,-60.529 -225.333,-71.704 -302.791,-80.675c-151.917,-17.612 -228.167,-26.449 -332.584,-379.27l-0.542,-1.817l-314.041,132.729l0.125,1.229c0.042,0.496 4.25,49.667 -9.167,101.055c-17.958,68.604 -57.083,108.341 -116.333,118.112c-85.5,14.1 -211.166,59.521 -324.542,195.858c-147.833,177.767 -235.624,459.975 -261.046,838.792l-0.078,1.808l1869.96,0l0.291,-1.375c14.208,-74.741 45.792,-269.466 31.292,-463.004Z" style="fill:#764898;fill-rule:nonzero;"/><path d="M4902.5,1670.03c-24.125,0 -43.708,18.175 -43.708,40.592c-0,22.416 19.583,40.591 43.708,40.591c24.167,0 43.708,-18.175 43.708,-40.591c0,-22.417 -19.541,-40.592 -43.708,-40.592Z" style="fill:#de2630;fill-rule:nonzero;"/><path d="M5497.62,2279.25c-14.542,-7.087 -30.292,-23.858 -41.584,-37.033c-39.249,-45.75 -65.291,-102.329 -85.541,-158.6c-19.958,-55.484 -34.083,-112.896 -45.125,-170.767c-0,-0.437 -0.333,-0.787 -0.833,-1.071c-1.667,-1.087 -5.459,-1.104 -8.959,-0.479l-0.583,0.1l-0.166,0.033c-2.001,0.375 -3.834,0.971 -4.959,1.763l-0.333,0.258l-0.292,0.213c-0.5,0.454 -0.792,0.941 -0.666,1.45c0.166,17.25 -7.626,35.287 -16.167,49.792c-26.167,44.429 -74.209,71.112 -121.792,86.879c-53.208,17.629 -109.625,23.696 -165.417,25.77c-1.583,0.063 -10.458,0.83 -10.291,3.988c2.208,39.283 0.583,84.471 -17.125,120.187c-0.334,0.525 -0.292,0.992 0.166,1.409c45,29.671 93.542,54.996 142.584,77.175c80.666,36.479 173.041,69.075 262.958,58.392c44.416,-5.28 85.792,-23.13 115.25,-57.534c0.792,-0.904 -0.542,-1.637 -1.125,-1.925Z" style="fill:#bc8a6c;fill-rule:nonzero;"/><path d="M5020.75,1307.46c-0,0 -148.084,0.75 -121.667,291.467c26.375,290.725 -94.541,512.937 118.375,488.283c212.959,-24.65 314.292,-73.787 297.25,-183.912c-17.042,-110.129 -156.166,-632.488 -293.958,-595.838Z" style="fill:#d19c78;fill-rule:nonzero;"/><path d="M5036.75,1621.28c5.25,0 10.25,-2.892 12.75,-7.887c3.167,-6.359 6.25,-7.055 7.25,-7.288c6.333,-1.433 16.167,4.188 19.917,7.134c6.166,4.82 15.083,3.787 19.917,-2.342c4.833,-6.125 3.874,-14.996 -2.251,-19.879c-2.208,-1.792 -22.458,-17.355 -43.666,-12.654c-7.959,1.754 -19,7.062 -26.625,22.4c-3.5,7.024 -0.625,15.545 6.417,19.033c2.041,1.008 4.166,1.483 6.291,1.483Z" style="fill:#eec130;fill-rule:nonzero;"/><path d="M5034.54,1619.52c5.958,-0 11.5,-3.792 13.458,-9.767c5.334,-16.129 10.584,-20.112 12.125,-20.287c4.5,-0.471 15.25,9.687 21.542,20.162c4,6.725 12.75,8.925 19.458,4.892c6.75,-4.025 8.917,-12.75 4.916,-19.48c-0.541,-0.875 -5.332,-8.791 -12.749,-16.67c-11.959,-12.717 -24.125,-18.48 -36.292,-17.142c-15.792,1.758 -27.875,15.092 -35.958,39.642c-2.459,7.45 1.583,15.479 9.041,17.933c1.458,0.483 2.959,0.717 4.459,0.717Z" style="fill-rule:nonzero;"/><path d="M4922.58,1590.41m0.458,0.546l-0.292,-0.4c-1,0.013 -3.083,0.763 -4.375,1.584l0.166,-0.109l-16.041,-23.462c1.042,-0.705 6.584,-4.292 13.958,-5.767c12,-2.392 22.917,1.929 29.875,11.867c4.5,6.425 2.917,15.279 -3.5,19.779c-2.499,1.733 -5.333,2.566 -8.125,2.566c-4.5,0 -8.917,-2.112 -11.666,-6.058Z" style="fill:#eec130;fill-rule:nonzero;"/><path d="M4938.67,1594.8c1.833,-0 3.625,-0.425 5.333,-1.308c5.667,-2.95 7.833,-9.917 4.917,-15.571c-6.209,-11.896 -15,-16.404 -21.25,-18.096c-15.625,-4.204 -30.292,4.654 -31.917,5.675c-5.375,3.408 -6.958,10.533 -3.583,15.921c3.416,5.362 10.5,6.979 15.875,3.62c1.958,-1.204 8.708,-4.299 13.666,-2.912c1,0.267 3.917,1.088 6.75,6.467c2.042,3.941 6.084,6.204 10.209,6.204Z" style="fill-rule:nonzero;"/><path d="M5054.75,1599.25c0,0 -8.542,-9.716 -17.959,7.821c-9.457,17.538 -25.374,63.771 -13.458,66.446c11.917,2.671 24.792,-36.296 24.792,-36.296c0,-0 10.625,-33.596 6.625,-37.971Z" style="fill:#1f2022;fill-rule:nonzero;"/><path d="M4929.58,1591.95c0,-0 -9.916,-8.517 -16.625,10.075c-6.708,18.591 -15.541,66.437 -3.333,67.537c12.208,1.1 19.083,-39.158 19.083,-39.158c0,-0 5.5,-34.642 0.875,-38.454Z" style="fill:#1f2022;fill-rule:nonzero;"/><path d="M5253.96,1670.03c-24.125,0 -43.708,18.175 -43.708,40.592c-0,22.416 19.583,40.591 43.708,40.591c24.125,0 43.708,-18.175 43.708,-40.591c0,-22.417 -19.583,-40.592 -43.708,-40.592Z" style="fill:#de2630;fill-rule:nonzero;"/><path d="M4959.83,1550.8c19.459,26.083 46.292,47.312 79.959,48.971c2.5,0.129 -3.834,5.216 -5.875,5.117c-34.417,-1.7 -61.709,-22.676 -81.667,-49.451c-0.958,-1.333 6.334,-6.3 7.583,-4.637Z" style="fill:#1f2022;fill-rule:nonzero;"/><path d="M4977.71,1507.51c2.125,12.924 6.125,25.775 11.084,37.875c8.708,21.366 25.041,49.574 50.416,53.204c1.667,0.241 9.5,2.933 4.084,2.162c-45.542,-6.521 -67.501,-53.946 -74.251,-95.137c0,-0 8.334,-0.042 8.667,1.896Z" style="fill:#1f2022;fill-rule:nonzero;"/><path d="M5017.17,1516.84c-1.667,11.809 0.416,25.363 2.625,36.917c3.458,17.917 11.333,40.675 31.583,44.771c3.708,0.742 -4.791,1.583 -6.25,1.287c-19.958,-4.024 -28.917,-22.899 -33.167,-41.079c-3,-12.933 -5.541,-28.512 -3.666,-41.858c0.208,-1.625 9,-0.992 8.875,-0.038Z" style="fill:#1f2022;fill-rule:nonzero;"/><path d="M4826.29,1550.1c14.791,26.471 43.375,54.937 76.291,40.721c1.875,-0.8 7.834,4.658 6.959,5.037c-37.084,16.004 -73.959,-19.871 -90.75,-49.908c0.083,0.196 6.25,1.946 7.5,4.15Z" style="fill:#1f2022;fill-rule:nonzero;"/><path d="M4839.54,1508.97c9.25,36.821 36.083,82.717 79.541,79.041c3.625,-0.3 -1.75,6.371 -4.416,6.596c-44.959,3.796 -72.75,-42.704 -82.334,-80.92c-0.708,-2.746 6.459,-7.775 7.209,-4.717Z" style="fill:#1f2022;fill-rule:nonzero;"/><path d="M4870.58,1488.63c-1.042,42.405 15.75,99.675 66.626,100.284c-0.459,-0.005 -4.251,5.545 -6.542,5.521c-51.084,-0.613 -68.167,-57.596 -67.084,-100.371c0.042,-2.434 6.959,-4.525 7,-5.434Z" style="fill:#1f2022;fill-rule:nonzero;"/><path d="M4988.79,1500.1c-1.542,1.238 -2.584,2.958 -2.709,4.842c-0.208,2.346 0.834,6.754 6.876,6.512c15.916,-0.633 63.333,-32.837 70.166,-36.17c4.292,-2.096 9.375,-2.288 13.25,0.462l59.208,42.042c0,-0 -58.375,-54.396 -65.666,-55.171c-7.126,-0.75 -62.876,22.666 -81.125,37.483Z" style="fill:#1f2022;fill-rule:nonzero;"/><path d="M4950.17,1509.55c0.542,1.108 2.125,4.425 2.167,6.104c0.082,2.1 -1.209,3.771 -3.751,4.05c-5.666,0.613 -20.083,-23.375 -26.291,-32.35c-1.542,-2.212 -3.542,-2.05 -5,0.408l-22.167,37.605c-0,-0 21.875,-48.654 24.625,-49.346c2.667,-0.671 23.542,20.271 30.417,33.529Z" style="fill:#1f2022;fill-rule:nonzero;"/><path d="M5042.54,1897.1c-1.708,-2.046 -3.834,-4.779 -6.375,-7.954c-15.584,-19.738 -41.708,-52.767 -59.084,-54.396c-3.458,-0.333 -6.416,0.583 -8.791,2.617c-2,1.27 -4.5,3.566 -7.25,6.641c-2.5,2.729 -3.667,3.304 -4.25,3.229c-0.833,-0.041 -2,-1.645 -3.376,-3.5c-1.249,-1.683 -2.749,-3.775 -4.874,-5.908c-2.834,-2.833 -6.25,-2.917 -8.417,-1.758c-5.208,2.821 -15.958,23.496 -29.542,50.229c-3.666,7.212 -6.791,13.446 -9.041,17.479c-1.875,3.458 -2.125,7.529 -0.667,11.162c7.709,19.113 28.542,64.159 55.958,69.634c1.792,0.362 3.584,0.542 5.376,0.542c8.583,-0 16.999,-4.125 25.041,-12.313c8.916,-9.054 16.666,-16.842 23.417,-23.587c17.791,-17.821 28.5,-28.575 33.292,-35.942l-0,0.004c3.166,-4.942 2.625,-11.292 -1.417,-16.179Z" style="fill:#2e3689;fill-rule:nonzero;"/><path d="M4968.12,1898.25c0.792,0.037 1.583,0.158 2.375,0.371c4.291,1.146 18.125,5.466 9.25,11.275c-10.417,6.808 -40.667,6.304 -37.5,-2.838c3.208,-9.179 21.041,-9.025 25.875,-8.808Z" style="fill:#fff;fill-rule:nonzero;"/><path d="M4956.33,1775.19c0.792,-13.338 22.209,-11.276 22.334,1.375c0.125,13.416 -21.584,11.149 -22.334,-1.375Zm11.292,-17.442c-10.417,0.366 -18.667,8.475 -19.25,18.817c-0.042,0.545 -0,0.991 0.125,1.395c2.75,22.325 37.917,19.984 38.167,-2.77c0.124,-10.259 -9.167,-17.792 -19.042,-17.442Z" style="fill:#1f2022;fill-rule:nonzero;"/><path d="M5078.62,1832.62c-0,4.837 -3.916,8.766 -8.75,8.766c-4.833,0 -8.75,-3.929 -8.75,-8.766c0,-4.842 3.917,-8.763 8.75,-8.763c4.834,0 8.75,3.921 8.75,8.763Z" style="fill:#1f2022;fill-rule:nonzero;"/><path d="M6403.38,1615.75" style="fill:#eec130;fill-rule:nonzero;"/><path d="M6703.96,2370.61c-237.5,-51.53 -326.25,38.974 -455.958,-399.221l-311.125,131.512c-0,0 17.792,197.138 -126.917,220.988c-141.541,23.35 -518.25,150.466 -582.458,1009.44l1476.46,0l0,-962.72Z" style="fill:#de2630;fill-rule:nonzero;"/><path d="M6431.33,2304.6c-14.583,-7.088 -30.291,-23.858 -41.625,-37.033c-39.25,-45.75 -65.291,-102.329 -85.5,-158.6c-20,-55.484 -34.083,-112.9 -45.124,-170.767c-0,-0.438 -0.334,-0.787 -0.834,-1.071c-1.667,-1.087 -5.458,-1.104 -8.959,-0.479l-0.624,0.1l-0.167,0.033c-2,0.375 -3.792,0.971 -4.959,1.767l-0.333,0.254l-0.249,0.213c-0.501,0.454 -0.792,0.941 -0.667,1.445c0.166,17.251 -7.626,35.292 -16.167,49.796c-26.167,44.425 -74.208,71.113 -121.792,86.884c-53.208,17.625 -109.666,23.691 -165.416,25.766c-1.626,0.067 -10.417,0.825 -10.292,3.988c2.042,44.329 2.958,98.112 -17.167,138.583c-0.333,0.521 -0.25,0.992 0.209,1.408c45.208,27.538 93.708,50.63 142.666,70.588c81.459,33.204 173.959,61.575 262.792,48.583c44.5,-6.512 85.75,-24.971 115.333,-59.529c0.792,-0.904 -0.541,-1.641 -1.125,-1.929Z" style="fill:#e9ccb2;fill-rule:nonzero;"/><path d="M5954.46,1332.8c0,0 -148.083,0.75 -121.708,291.467c26.416,290.725 -94.5,512.937 118.417,488.283c212.958,-24.65 314.291,-73.787 297.25,-183.912c-17.042,-110.13 -156.209,-632.488 -293.959,-595.838Z" style="fill:#f2d4b9;fill-rule:nonzero;"/><path d="M5856.29,1615.75" style="fill:#eec130;fill-rule:nonzero;"/><path d="M5988.46,1624.6c0,-0 -8.541,-9.717 -18,7.821c-9.416,17.537 -25.375,63.775 -13.417,66.446c11.918,2.67 24.792,-36.296 24.792,-36.296c0,-0 10.584,-33.596 6.625,-37.971Z" style="fill:#1f2022;fill-rule:nonzero;"/><path d="M5863.29,1617.29c0,-0 -9.916,-8.517 -16.625,10.075c-6.708,18.591 -15.541,66.437 -3.333,67.537c12.208,1.1 19.084,-39.154 19.084,-39.154c-0,0 5.458,-34.646 0.874,-38.458Z" style="fill:#1f2022;fill-rule:nonzero;"/><path d="M5901.83,1923.6c0.792,0.037 1.583,0.158 2.375,0.371c4.292,1.146 18.125,5.466 9.25,11.275c-10.458,6.808 -40.708,6.304 -37.5,-2.834c3.209,-9.183 21.042,-9.029 25.875,-8.812Z" style="fill:#1f2022;fill-rule:nonzero;"/><path d="M5890.04,1800.53c0.792,-13.333 22.208,-11.275 22.333,1.375c0.125,13.417 -21.625,11.15 -22.333,-1.375Zm11.291,-17.441c-10.417,0.366 -18.666,8.475 -19.292,18.816c0,0.546 0.042,0.996 0.167,1.396c2.709,22.325 37.917,19.983 38.167,-2.771c0.083,-10.258 -9.167,-17.791 -19.042,-17.441Z" style="fill:#1f2022;fill-rule:nonzero;"/><path d="M6403.62,1418.44c-3.167,-8.416 -6.667,-16.695 -10.542,-24.808c-31.333,-65.458 -85.791,-119.296 -151,-150.904c-69.917,-33.896 -156.999,-58.65 -231.125,-22.146c-38.874,19.134 -71.291,53.363 -114.041,60.45c-23.375,3.879 -47.25,-0.971 -70.959,-1.475c-52.375,-1.121 -106.875,21.867 -135.375,65.863c-28.458,44.004 -24.583,108.937 14.792,143.516c18.958,16.629 42.083,16.042 62.083,28.275c16.208,9.925 27.792,26.567 45.375,36.038c14.625,7.883 30.792,13.125 47.542,14.029c20.375,1.104 41.542,-2.392 61.5,-5.875c37.417,-6.512 73.708,-17.921 111.083,-24.242c40.834,-6.9 83.542,47.063 100.959,78.434c19.166,34.55 28.75,73.666 34.042,112.816c5.999,44.263 19.166,77.455 31.499,119.309c12.333,41.933 27.25,84.562 64.75,110.75c5.959,4.133 12.917,7.85 20.042,6.67c13,-2.149 17.958,-18.099 18.917,-31.224c3.874,-52.921 -12.333,-109.663 11.208,-157.217c14.417,-29.125 39.125,-50.388 58.625,-75.817c19.167,-24.929 32.541,-55.479 40.458,-85.721c17.001,-64.483 13.584,-134.287 -9.833,-196.721Z" style="fill:#2e3689;fill-rule:nonzero;"/><path d="M5848.79,2019.23c-1.708,-0.729 -3.5,-1.246 -5.417,-1.475c-12.125,-1.466 -22.667,6.98 -27.541,17.529c-5.459,11.905 -3.376,26.092 1.874,38.113c10.875,24.958 34.75,43.329 61.292,49.363c26.541,6.033 55.208,0.229 78.458,-13.938c7.625,-4.658 15,-10.492 18.875,-18.571c5.5,-11.566 2.792,-25.237 -0.666,-37.579c-0.792,-2.863 -1.709,-5.854 -3.875,-7.9c-5.334,-5.079 -13.959,-1.429 -20.709,1.546c-24.833,10.954 -54.917,7.775 -77.708,-6.584c-8.958,-5.654 -15.208,-16.429 -24.583,-20.504Z" style="fill:#2e3689;fill-rule:nonzero;"/><path d="M7500,2370.61c-237.5,-51.53 -326.25,38.974 -455.959,-399.221l-311.124,131.512c-0,0 17.792,197.138 -126.917,220.988c-141.542,23.35 -518.25,150.466 -582.458,1009.44l1476.46,0l0,-962.72Z" style="fill:#ef8f34;fill-rule:nonzero;"/><path d="M6699.04,1734.35c-59.917,0 -108.667,45.067 -108.667,100.459c-0,55.391 48.75,100.458 108.667,100.458c59.958,-0 108.708,-45.067 108.708,-100.458c-0,-55.392 -48.75,-100.459 -108.708,-100.459Zm-0,214.475c-67.375,0 -122.209,-51.15 -122.209,-114.016c0,-62.867 54.834,-114.017 122.209,-114.017c67.416,-0 122.25,51.15 122.25,114.017c-0,62.866 -54.834,114.016 -122.25,114.016Z" style="fill-rule:nonzero;"/><path d="M7227.38,2304.6c-14.584,-7.088 -30.291,-23.858 -41.625,-37.033c-39.25,-45.75 -65.292,-102.329 -85.5,-158.6c-20,-55.484 -34.083,-112.9 -45.125,-170.767c-0,-0.438 -0.333,-0.787 -0.833,-1.071c-1.667,-1.087 -5.459,-1.104 -9,-0.479l-0.584,0.1l-0.167,0.033c-1.999,0.375 -3.791,0.971 -4.958,1.767l-0.333,0.254l-0.25,0.213c-0.5,0.454 -0.791,0.941 -0.667,1.445c0.167,17.251 -7.625,35.292 -16.167,49.796c-26.166,44.425 -74.208,71.113 -121.833,86.884c-53.208,17.625 -109.625,23.691 -165.375,25.766c-1.625,0.067 -10.416,0.825 -10.291,3.988c2.041,44.329 2.958,98.112 -17.167,138.583c-0.333,0.521 -0.25,0.992 0.208,1.408c45.208,27.538 93.709,50.63 142.667,70.588c81.458,33.204 173.958,61.575 262.792,48.583c44.5,-6.512 85.75,-24.971 115.333,-59.529c0.792,-0.904 -0.542,-1.641 -1.125,-1.929Z" style="fill:#e9ccb2;fill-rule:nonzero;"/><path d="M7087.83,1367.95c-29.375,-103.479 -121.25,-177.642 -228.583,-184.542c-112.292,-7.225 -217.667,61.696 -255.958,167.621l-148.25,409.958l-0.834,2.355l179.458,-6.075l63.5,-306.734l149.709,0l91.958,394.23l282.125,-7.988l-133.125,-468.825Z" style="fill:#764898;fill-rule:nonzero;"/><path d="M6750.5,1332.8c-0,0 -148.084,0.75 -121.708,291.467c26.416,290.725 -94.5,512.937 118.416,488.283c212.958,-24.65 314.292,-73.787 297.251,-183.912c-17.043,-110.13 -156.209,-632.488 -293.959,-595.838Z" style="fill:#f2dac0;fill-rule:nonzero;"/><path d="M6766.5,1646.62c5.208,0 10.25,-2.892 12.75,-7.888c3.125,-6.358 6.208,-7.054 7.25,-7.287c6.333,-1.433 16.125,4.188 19.917,7.133c6.125,4.825 15.041,3.788 19.916,-2.341c4.834,-6.125 3.875,-14.996 -2.25,-19.879c-2.25,-1.792 -22.458,-17.355 -43.708,-12.655c-7.917,1.755 -18.958,7.063 -26.583,22.4c-3.501,7.025 -0.625,15.546 6.416,19.034c2.001,1.008 4.167,1.483 6.292,1.483Z" style="fill:#eec130;fill-rule:nonzero;"/><path d="M6764.25,1644.86c6,0 11.541,-3.791 13.5,-9.766c5.333,-16.129 10.541,-20.113 12.125,-20.288c4.458,-0.47 15.25,9.688 21.5,20.163c4.041,6.725 12.75,8.925 19.5,4.891c6.75,-4.024 8.917,-12.75 4.875,-19.479c-0.5,-0.875 -5.333,-8.787 -12.75,-16.671c-11.917,-12.716 -24.125,-18.479 -36.25,-17.141c-15.792,1.758 -27.875,15.091 -35.959,39.641c-2.458,7.451 1.584,15.48 9.042,17.934c1.459,0.483 2.958,0.716 4.417,0.716Z" style="fill:#1f2022;fill-rule:nonzero;"/><path d="M6652.33,1615.75m0.458,0.546l-0.334,-0.4c-0.958,0.013 -3.083,0.762 -4.375,1.583l0.167,-0.108l-16,-23.462c1.042,-0.705 6.542,-4.292 13.916,-5.767c12.042,-2.392 22.917,1.929 29.876,11.866c4.499,6.426 2.958,15.28 -3.458,19.78c-2.501,1.737 -5.334,2.566 -8.167,2.566c-4.459,0 -8.876,-2.112 -11.625,-6.058Z" style="fill:#eec130;fill-rule:nonzero;"/><path d="M6667,1620.14c1.792,-0 3.625,-0.425 5.292,-1.309c5.666,-2.946 7.875,-9.916 4.916,-15.571c-6.208,-11.895 -14.999,-16.404 -21.249,-18.095c-15.625,-4.205 -30.292,4.654 -31.917,5.675c-5.375,3.408 -6.959,10.533 -3.584,15.92c3.417,5.363 10.501,6.98 15.875,3.621c2,-1.204 8.709,-4.3 13.709,-2.912c0.958,0.266 3.916,1.091 6.708,6.467c2.042,3.945 6.083,6.204 10.25,6.204Z" style="fill:#1f2022;fill-rule:nonzero;"/><path d="M6784.5,1624.6c0,-0 -8.542,-9.717 -18,7.821c-9.459,17.537 -25.375,63.775 -13.458,66.446c11.958,2.67 24.833,-36.296 24.833,-36.296c-0,-0 10.583,-33.596 6.625,-37.971Z" style="fill:#1f2022;fill-rule:nonzero;"/><path d="M6659.33,1617.29c0,-0 -9.916,-8.517 -16.625,10.075c-6.708,18.591 -15.541,66.437 -3.333,67.537c12.208,1.1 19.083,-39.154 19.083,-39.154c0,0 5.459,-34.646 0.875,-38.458Z" style="fill:#1f2022;fill-rule:nonzero;"/><path d="M7103.33,1867.68c-23.459,36.834 -69.168,54.55 -111.667,47.334c-48.208,-8.184 -86.584,-47.425 -87.709,-97.184c2.125,-94.916 127.959,-130.237 188.792,-63.621c28.375,31.067 33.333,77.738 10.584,113.471Zm14.625,-108.25c-26.959,-42.762 -79.209,-63.475 -128.459,-55.529c-56.708,9.142 -101.167,55.879 -102.458,113.929c2.458,110.125 148.708,153.771 219.166,74.004c32.334,-36.604 38,-90.729 11.751,-132.404Z" style="fill-rule:nonzero;"/><path d="M6983.71,1691.95c-6.041,-0 -10.875,4.525 -10.875,10.104c0,5.579 4.834,10.1 10.875,10.1c6,-0 10.875,-4.521 10.875,-10.1c0,-5.579 -4.875,-10.104 -10.875,-10.104Z" style="fill:#eec130;fill-rule:nonzero;"/><path d="M6689.58,1576.15c19.417,26.083 46.292,47.312 79.958,48.971c2.501,0.129 -3.833,5.216 -5.874,5.116c-34.417,-1.7 -61.709,-22.675 -81.667,-49.45c-1,-1.333 6.333,-6.3 7.583,-4.637Z" style="fill:#1f2022;fill-rule:nonzero;"/><path d="M6707.46,1532.86c2.126,12.925 6.125,25.775 11.042,37.875c8.75,21.367 25.083,49.575 50.417,53.204c1.708,0.242 9.499,2.934 4.125,2.167c-45.542,-6.525 -67.501,-53.95 -74.25,-95.142c-0,0.005 8.333,-0.041 8.666,1.896Z" style="fill:#1f2022;fill-rule:nonzero;"/><path d="M6746.88,1542.18c-1.625,11.809 0.458,25.363 2.667,36.921c3.458,17.913 11.291,40.671 31.583,44.767c3.667,0.742 -4.792,1.583 -6.25,1.292c-19.958,-4.03 -28.917,-22.905 -33.167,-41.084c-3,-12.933 -5.541,-28.512 -3.708,-41.858c0.25,-1.625 9.042,-0.992 8.875,-0.038Z" style="fill:#1f2022;fill-rule:nonzero;"/><path d="M6556.04,1575.44c14.792,26.471 43.376,54.937 76.292,40.72c1.875,-0.799 7.834,4.659 6.959,5.038c-37.084,16.004 -73.958,-19.871 -90.792,-49.908c0.125,0.196 6.292,1.945 7.541,4.15Z" style="fill:#1f2022;fill-rule:nonzero;"/><path d="M6569.29,1534.32c9.25,36.82 36.083,82.716 79.541,79.046c3.625,-0.305 -1.749,6.366 -4.458,6.591c-44.917,3.796 -72.709,-42.704 -82.333,-80.921c-0.667,-2.745 6.499,-7.775 7.25,-4.716Z" style="fill:#1f2022;fill-rule:nonzero;"/><path d="M6600.33,1513.98c-1.042,42.404 15.75,99.675 66.584,100.284c-0.417,-0.005 -4.208,5.545 -6.542,5.52c-51.083,-0.608 -68.125,-57.596 -67.083,-100.366c0.083,-2.434 6.999,-4.53 7.041,-5.438Z" style="fill:#1f2022;fill-rule:nonzero;"/><path d="M6718.5,1525.45c-1.5,1.237 -2.542,2.958 -2.708,4.842c-0.167,2.346 1,5.208 6.916,6.512c11.334,2.504 53.584,-26.129 70.125,-36.171c4.084,-2.471 9.417,-2.287 13.292,0.467l59.167,42.037c-0,0 -58.333,-54.395 -65.667,-55.17c-7.083,-0.75 -62.834,22.666 -81.125,37.483Z" style="fill:#1f2022;fill-rule:nonzero;"/><path d="M6679.88,1534.9c0.584,1.108 2.166,4.425 2.208,6.104c0.084,2.1 -1.25,3.771 -3.749,4.05c-5.668,0.613 -20.084,-23.375 -26.292,-32.35c-1.542,-2.213 -3.542,-2.05 -5,0.408l-22.167,37.604c-0,0 21.875,-48.65 24.625,-49.345c2.667,-0.671 23.542,20.27 30.375,33.529Z" style="fill:#1f2022;fill-rule:nonzero;"/><path d="M6772.29,1922.44c-1.709,-2.042 -3.833,-4.767 -6.376,-7.938c-15.583,-19.737 -41.707,-52.779 -59.083,-54.412c-3.458,-0.33 -6.458,0.583 -8.791,2.62c-2,1.271 -4.501,3.567 -7.292,6.638c-2.459,2.729 -3.667,3.267 -4.208,3.229c-0.834,-0.042 -2,-1.646 -3.375,-3.5c-1.25,-1.683 -2.792,-3.775 -4.875,-5.912c-2.834,-2.825 -6.25,-2.913 -8.417,-1.75c-5.208,2.816 -16,23.487 -29.541,50.22c-3.667,7.213 -6.834,13.446 -9.042,17.484c-1.875,3.458 -2.167,7.529 -0.667,11.162c7.666,19.117 28.541,64.159 55.958,69.634c1.792,0.362 3.584,0.541 5.375,0.541c8.584,0 17,-4.125 25.042,-12.316c8.917,-9.063 16.708,-16.859 23.416,-23.609c17.792,-17.808 28.501,-28.554 33.251,-35.912l-0,-0.004c3.208,-4.938 2.666,-11.288 -1.375,-16.175Z" style="fill:#764898;fill-rule:nonzero;"/><path d="M6697.88,1923.6c0.792,0.037 1.583,0.158 2.375,0.371c4.292,1.146 18.125,5.466 9.25,11.275c-10.458,6.808 -40.708,6.304 -37.5,-2.834c3.209,-9.183 21.041,-9.029 25.875,-8.812Z" style="fill:#fff;fill-rule:nonzero;"/><path d="M6686.08,1800.53c0.792,-13.333 22.209,-11.275 22.334,1.375c0.125,13.417 -21.626,11.15 -22.334,-1.375Zm11.292,-17.441c-10.417,0.366 -18.667,8.475 -19.292,18.816c0,0.546 0.042,0.996 0.167,1.396c2.709,22.325 37.917,19.983 38.166,-2.771c0.084,-10.258 -9.166,-17.791 -19.041,-17.441Z" style="fill:#1f2022;fill-rule:nonzero;"/><rect x="6632.42" y="1305.92" width="266.083" height="107.888" style="fill:#764898;fill-rule:nonzero;"/></g></svg>