<?xml version="1.0" encoding="UTF-8" standalone="no"?><!DOCTYPE svg PUBLIC "-//W3C//DTD SVG 1.1//EN" "http://www.w3.org/Graphics/SVG/1.1/DTD/svg11.dtd"><svg width="100%" height="100%" viewBox="0 0 1038 1038" version="1.1" xmlns="http://www.w3.org/2000/svg" xmlns:xlink="http://www.w3.org/1999/xlink" xml:space="preserve" xmlns:serif="http://www.serif.com/" style="fill-rule:evenodd;clip-rule:evenodd;stroke-linejoin:round;stroke-miterlimit:2;"><g><path d="M518.604,128.779c-5.75,0 -10.417,-4.662 -10.417,-10.417l0,-107.945c0,-5.754 4.667,-10.417 10.417,-10.417c5.754,0 10.417,4.663 10.417,10.417l-0,107.945c-0,5.755 -4.663,10.417 -10.417,10.417Z" style="fill-rule:nonzero;"/><path d="M365.442,159.25c-4.088,-0 -7.967,-2.421 -9.625,-6.433l-41.309,-99.73c-2.204,-5.316 0.321,-11.408 5.638,-13.612c5.312,-2.204 11.408,0.325 13.608,5.638l41.309,99.733c2.199,5.312 -0.321,11.404 -5.638,13.608c-1.304,0.542 -2.654,0.796 -3.983,0.796Z" style="fill-rule:nonzero;"/><path d="M235.592,246.008c-2.667,0 -5.334,-1.016 -7.367,-3.049l-76.329,-76.33c-4.067,-4.066 -4.067,-10.662 -0,-14.733c4.066,-4.067 10.667,-4.067 14.729,0l76.329,76.333c4.071,4.067 4.071,10.663 -0,14.73c-2.033,2.033 -4.7,3.049 -7.362,3.049Z" style="fill-rule:nonzero;"/><path d="M148.825,375.859c-1.329,-0 -2.679,-0.255 -3.983,-0.796l-99.73,-41.309c-5.316,-2.2 -7.837,-8.292 -5.637,-13.608c2.2,-5.312 8.3,-7.842 13.608,-5.637l99.729,41.308c5.317,2.204 7.842,8.295 5.638,13.608c-1.658,4.012 -5.538,6.434 -9.625,6.434Z" style="fill-rule:nonzero;"/><path d="M118.362,529.025l-107.945,0c-5.755,0 -10.417,-4.662 -10.417,-10.416c-0,-5.755 4.662,-10.417 10.417,-10.417l107.945,-0c5.755,-0 10.417,4.662 10.417,10.417c0,5.754 -4.662,10.416 -10.417,10.416Z" style="fill-rule:nonzero;"/><path d="M49.104,723.504c-4.088,0 -7.967,-2.42 -9.629,-6.433c-2.2,-5.313 0.321,-11.408 5.637,-13.608l99.73,-41.313c5.308,-2.204 11.408,0.325 13.608,5.638c2.204,5.316 -0.321,11.408 -5.638,13.612l-99.729,41.309c-1.3,0.541 -2.65,0.795 -3.979,0.795Z" style="fill-rule:nonzero;"/><path d="M159.262,888.371c-2.666,-0 -5.333,-1.017 -7.366,-3.054c-4.067,-4.067 -4.067,-10.663 -0,-14.729l76.329,-76.329c4.067,-4.067 10.667,-4.067 14.729,-0c4.071,4.066 4.071,10.666 -0,14.732l-76.329,76.326c-2.029,2.037 -4.7,3.054 -7.363,3.054Z" style="fill-rule:nonzero;"/><path d="M324.125,998.534c-1.329,-0 -2.675,-0.255 -3.979,-0.796c-5.317,-2.2 -7.842,-8.292 -5.638,-13.609l41.309,-99.729c2.2,-5.317 8.291,-7.833 13.608,-5.637c5.317,2.204 7.837,8.296 5.638,13.608l-41.309,99.729c-1.662,4.013 -5.542,6.434 -9.629,6.434Z" style="fill-rule:nonzero;"/><path d="M518.604,1037.22c-5.75,-0 -10.417,-4.663 -10.417,-10.417l0,-107.946c0,-5.754 4.667,-10.416 10.417,-10.416c5.754,-0 10.417,4.662 10.417,10.416l-0,107.946c-0,5.754 -4.663,10.417 -10.417,10.417Z" style="fill-rule:nonzero;"/><path d="M713.087,998.534c-4.087,-0 -7.966,-2.421 -9.629,-6.434l-41.308,-99.729c-2.2,-5.312 0.321,-11.404 5.637,-13.608c5.313,-2.2 11.409,0.32 13.609,5.637l41.308,99.729c2.204,5.317 -0.321,11.409 -5.637,13.609c-1.3,0.541 -2.65,0.796 -3.98,0.796Z" style="fill-rule:nonzero;"/><path d="M877.954,888.371c-2.667,-0 -5.333,-1.017 -7.367,-3.054l-76.329,-76.326c-4.071,-4.066 -4.071,-10.666 0,-14.732c4.063,-4.067 10.663,-4.067 14.729,-0l76.33,76.329c4.071,4.066 4.071,10.662 -0,14.729c-2.034,2.037 -4.7,3.054 -7.363,3.054Z" style="fill-rule:nonzero;"/><path d="M988.112,723.504c-1.329,0 -2.679,-0.254 -3.983,-0.795l-99.729,-41.309c-5.317,-2.204 -7.837,-8.296 -5.637,-13.612c2.199,-5.313 8.304,-7.838 13.608,-5.638l99.729,41.313c5.317,2.2 7.837,8.295 5.637,13.608c-1.658,4.013 -5.537,6.433 -9.625,6.433Z" style="fill-rule:nonzero;"/><path d="M1026.8,529.025l-107.942,0c-5.754,0 -10.417,-4.662 -10.417,-10.416c0,-5.755 4.663,-10.417 10.417,-10.417l107.942,-0c5.754,-0 10.416,4.662 10.416,10.417c0,5.754 -4.662,10.416 -10.416,10.416Z" style="fill-rule:nonzero;"/><path d="M888.392,375.859c-4.088,-0 -7.971,-2.421 -9.629,-6.434c-2.2,-5.313 0.32,-11.404 5.637,-13.608l99.729,-41.308c5.313,-2.209 11.408,0.32 13.608,5.637c2.2,5.316 -0.32,11.408 -5.637,13.608l-99.729,41.309c-1.3,0.541 -2.654,0.796 -3.979,0.796Z" style="fill-rule:nonzero;"/><path d="M801.621,246.008c-2.663,0 -5.329,-1.016 -7.363,-3.049c-4.071,-4.067 -4.071,-10.663 0,-14.73l76.329,-76.333c4.067,-4.067 10.667,-4.067 14.73,0c4.071,4.071 4.071,10.667 -0,14.733l-76.33,76.33c-2.033,2.033 -4.7,3.049 -7.366,3.049Z" style="fill-rule:nonzero;"/><path d="M671.771,159.25c-1.329,-0 -2.679,-0.254 -3.984,-0.796c-5.316,-2.204 -7.837,-8.296 -5.637,-13.608l41.308,-99.733c2.205,-5.313 8.292,-7.838 13.609,-5.638c5.316,2.204 7.841,8.296 5.637,13.612l-41.308,99.73c-1.659,4.012 -5.538,6.433 -9.625,6.433Z" style="fill-rule:nonzero;"/></g></svg>