<?xml version="1.0" encoding="UTF-8" standalone="no"?><!DOCTYPE svg PUBLIC "-//W3C//DTD SVG 1.1//EN" "http://www.w3.org/Graphics/SVG/1.1/DTD/svg11.dtd"><svg width="100%" height="100%" viewBox="0 0 1040 1040" version="1.1" xmlns="http://www.w3.org/2000/svg" xmlns:xlink="http://www.w3.org/1999/xlink" xml:space="preserve" xmlns:serif="http://www.serif.com/" style="fill-rule:evenodd;clip-rule:evenodd;stroke-linejoin:round;stroke-miterlimit:2;"><g><path d="M540.958,21.329c0,11.78 -9.541,21.329 -21.333,21.329c-11.75,0 -21.333,-9.549 -21.333,-21.329c-0,-11.779 9.583,-21.329 21.333,-21.329c11.792,0 21.333,9.55 21.333,21.329Z" style="fill-rule:nonzero;"/><path d="M429.542,29.075c2.625,11.483 -4.542,22.917 -16.042,25.542c-11.5,2.62 -22.917,-4.567 -25.542,-16.05c-2.625,-11.484 4.584,-22.917 16.042,-25.538c11.5,-2.62 22.917,4.563 25.542,16.046Z" style="fill-rule:nonzero;"/><path d="M322.666,61.421c5.084,10.612 0.626,23.358 -9.957,28.471c-10.626,5.112 -23.376,0.65 -28.501,-9.963c-5.083,-10.612 -0.625,-23.358 9.959,-28.471c10.625,-5.108 23.375,-0.65 28.499,9.963Z" style="fill-rule:nonzero;"/><path d="M225.625,116.746c7.333,9.208 5.834,22.625 -3.375,29.971c-9.208,7.345 -22.625,5.833 -29.958,-3.375c-7.375,-9.209 -5.834,-22.63 3.375,-29.975c9.208,-7.342 22.625,-5.834 29.958,3.379Z" style="fill-rule:nonzero;"/><path d="M143.333,192.271c9.209,7.341 10.75,20.762 3.375,29.971c-7.333,9.212 -20.75,10.721 -29.958,3.379c-9.209,-7.346 -10.709,-20.763 -3.375,-29.975c7.333,-9.209 20.75,-10.721 29.958,-3.375Z" style="fill-rule:nonzero;"/><path d="M79.916,284.212c10.626,5.109 15.084,17.855 10,28.467c-5.124,10.617 -17.874,15.075 -28.499,9.962c-10.584,-5.108 -15.042,-17.853 -9.959,-28.47c5.125,-10.613 17.875,-15.071 28.458,-9.959Z" style="fill-rule:nonzero;"/><path d="M38.583,387.958c11.459,2.621 18.667,14.055 16.042,25.538c-2.625,11.483 -14.042,18.666 -25.542,16.05c-11.5,-2.625 -18.666,-14.058 -16.041,-25.542c2.625,-11.483 14.041,-18.667 25.541,-16.046Z" style="fill-rule:nonzero;"/><path d="M21.333,498.304c11.792,0 21.334,9.55 21.334,21.329c-0,11.779 -9.542,21.329 -21.334,21.329c-11.791,0 -21.333,-9.55 -21.333,-21.329c0,-11.779 9.542,-21.329 21.333,-21.329Z" style="fill-rule:nonzero;"/><path d="M29.083,609.725c11.5,-2.625 22.917,4.562 25.542,16.046c2.625,11.483 -4.583,22.916 -16.042,25.541c-11.5,2.621 -22.916,-4.566 -25.541,-16.049c-2.625,-11.484 4.541,-22.917 16.041,-25.538Z" style="fill-rule:nonzero;"/><path d="M61.417,716.625c10.625,-5.113 23.375,-0.65 28.499,9.962c5.084,10.613 0.626,23.359 -10,28.471c-10.583,5.108 -23.333,0.65 -28.458,-9.962c-5.083,-10.613 -0.625,-23.358 9.959,-28.471Z" style="fill-rule:nonzero;"/><path d="M116.75,813.646c9.208,-7.346 22.625,-5.829 29.958,3.379c7.375,9.208 5.834,22.629 -3.375,29.971c-9.208,7.346 -22.625,5.833 -29.958,-3.375c-7.334,-9.208 -5.834,-22.629 3.375,-29.975Z" style="fill-rule:nonzero;"/><path d="M192.292,895.925c7.333,-9.208 20.75,-10.721 29.958,-3.375c9.209,7.342 10.708,20.762 3.375,29.975c-7.333,9.204 -20.75,10.721 -29.958,3.375c-9.209,-7.346 -10.75,-20.762 -3.375,-29.975Z" style="fill-rule:nonzero;"/><path d="M284.208,959.337c5.125,-10.612 17.875,-15.074 28.501,-9.962c10.583,5.109 15.041,17.858 9.957,28.471c-5.124,10.612 -17.874,15.075 -28.499,9.962c-10.584,-5.112 -15.042,-17.858 -9.959,-28.471Z" style="fill-rule:nonzero;"/><path d="M387.958,1000.7c2.625,-11.483 14.042,-18.671 25.542,-16.046c11.5,2.621 18.667,14.054 16.042,25.538c-2.625,11.483 -14.042,18.671 -25.542,16.05c-11.458,-2.625 -18.667,-14.059 -16.042,-25.542Z" style="fill-rule:nonzero;"/><path d="M498.292,1017.94c-0,-11.779 9.583,-21.324 21.333,-21.324c11.792,-0 21.333,9.545 21.333,21.324c0,11.784 -9.541,21.329 -21.333,21.329c-11.75,0 -21.333,-9.545 -21.333,-21.329Z" style="fill-rule:nonzero;"/><path d="M609.75,1010.19c-2.625,-11.484 4.541,-22.917 16.041,-25.538c11.459,-2.625 22.917,4.563 25.542,16.046c2.625,11.483 -4.583,22.917 -16.041,25.542c-11.5,2.621 -22.959,-4.567 -25.542,-16.05Z" style="fill-rule:nonzero;"/><path d="M716.625,977.846c-5.125,-10.613 -0.625,-23.362 9.958,-28.471c10.625,-5.112 23.375,-0.65 28.5,9.962c5.083,10.613 0.625,23.359 -10,28.471c-10.583,5.113 -23.333,0.65 -28.458,-9.962Z" style="fill-rule:nonzero;"/><path d="M813.667,922.525c-7.375,-9.213 -5.834,-22.633 3.375,-29.975c9.208,-7.346 22.625,-5.833 29.958,3.375c7.333,9.213 5.833,22.629 -3.375,29.975c-9.208,7.346 -22.625,5.829 -29.958,-3.375Z" style="fill-rule:nonzero;"/><path d="M895.917,846.996c-9.209,-7.342 -10.709,-20.763 -3.375,-29.971c7.375,-9.208 20.791,-10.725 30,-3.379c9.208,7.346 10.708,20.767 3.375,29.975c-7.376,9.208 -20.792,10.721 -30,3.375Z" style="fill-rule:nonzero;"/><path d="M959.333,755.058c-10.583,-5.112 -15.041,-17.858 -9.958,-28.471c5.125,-10.612 17.875,-15.075 28.458,-9.962c10.625,5.113 15.084,17.858 10,28.471c-5.125,10.612 -17.875,15.07 -28.5,9.962Z" style="fill-rule:nonzero;"/><path d="M1000.71,651.312c-11.501,-2.625 -18.668,-14.058 -16.043,-25.541c2.625,-11.484 14.042,-18.671 25.542,-16.046c11.458,2.621 18.667,14.054 16.042,25.538c-2.625,11.483 -14.042,18.67 -25.541,16.049Z" style="fill-rule:nonzero;"/><path d="M1017.96,540.962c-11.791,0 -21.333,-9.55 -21.333,-21.329c-0,-11.779 9.542,-21.329 21.333,-21.329c11.75,0 21.333,9.55 21.333,21.329c0,11.779 -9.583,21.329 -21.333,21.329Z" style="fill-rule:nonzero;"/><path d="M1010.21,429.546c-11.5,2.616 -22.917,-4.567 -25.542,-16.05c-2.625,-11.483 4.542,-22.917 16.043,-25.538c11.499,-2.621 22.916,4.563 25.541,16.046c2.625,11.484 -4.584,22.917 -16.042,25.542Z" style="fill-rule:nonzero;"/><path d="M977.833,322.641c-10.583,5.113 -23.333,0.655 -28.458,-9.962c-5.083,-10.612 -0.625,-23.358 9.958,-28.467c10.625,-5.112 23.375,-0.654 28.5,9.959c5.084,10.617 0.625,23.362 -10,28.47Z" style="fill-rule:nonzero;"/><path d="M922.542,225.621c-9.209,7.342 -22.625,5.833 -30,-3.379c-7.334,-9.209 -5.834,-22.63 3.375,-29.971c9.208,-7.346 22.624,-5.834 30,3.375c7.333,9.212 5.833,22.629 -3.375,29.975Z" style="fill-rule:nonzero;"/><path d="M847,143.342c-7.333,9.208 -20.75,10.72 -29.958,3.375c-9.209,-7.346 -10.75,-20.763 -3.375,-29.971c7.333,-9.213 20.75,-10.721 29.958,-3.379c9.208,7.345 10.708,20.766 3.375,29.975Z" style="fill-rule:nonzero;"/><path d="M755.083,79.929c-5.125,10.613 -17.875,15.075 -28.5,9.963c-10.583,-5.113 -15.083,-17.859 -9.958,-28.471c5.125,-10.613 17.875,-15.071 28.458,-9.963c10.625,5.113 15.083,17.859 10,28.471Z" style="fill-rule:nonzero;"/><path d="M651.333,38.567c-2.625,11.483 -14.083,18.67 -25.542,16.05c-11.5,-2.625 -18.666,-14.059 -16.041,-25.542c2.583,-11.483 14.042,-18.666 25.542,-16.046c11.458,2.621 18.666,14.054 16.041,25.538Z" style="fill-rule:nonzero;"/><path d="M537,113.804c0,9.596 -7.75,17.371 -17.375,17.371c-9.583,-0 -17.333,-7.775 -17.333,-17.371c-0,-9.592 7.75,-17.366 17.333,-17.366c9.625,-0 17.375,7.774 17.375,17.366Z" style="fill-rule:nonzero;"/><path d="M446.25,120.117c2.167,9.354 -3.708,18.662 -13.042,20.799c-9.375,2.134 -18.666,-3.716 -20.791,-13.07c-2.167,-9.354 3.708,-18.667 13.041,-20.8c9.375,-2.134 18.667,3.717 20.792,13.071Z" style="fill-rule:nonzero;"/><path d="M359.208,146.458c4.167,8.642 0.542,19.025 -8.125,23.188c-8.625,4.162 -19,0.529 -23.167,-8.113c-4.166,-8.641 -0.541,-19.025 8.126,-23.187c8.625,-4.163 19,-0.529 23.166,8.112Z" style="fill-rule:nonzero;"/><path d="M280.208,191.517c5.958,7.495 4.75,18.425 -2.75,24.408c-7.5,5.983 -18.458,4.75 -24.416,-2.75c-6,-7.5 -4.75,-18.429 2.75,-24.413c7.499,-5.978 18.416,-4.75 24.416,2.755Z" style="fill-rule:nonzero;"/><path d="M213.167,253.025c7.5,5.979 8.75,16.908 2.749,24.408c-5.958,7.505 -16.874,8.733 -24.374,2.75c-7.5,-5.979 -8.75,-16.908 -2.751,-24.408c5.959,-7.5 16.876,-8.733 24.376,-2.75Z" style="fill-rule:nonzero;"/><path d="M161.542,327.904c8.625,4.163 12.291,14.542 8.125,23.183c-4.167,8.646 -14.542,12.276 -23.209,8.113c-8.625,-4.163 -12.25,-14.542 -8.125,-23.183c4.167,-8.646 14.583,-12.275 23.209,-8.113Z" style="fill-rule:nonzero;"/><path d="M127.833,412.392c9.375,2.137 15.208,11.45 13.083,20.804c-2.125,9.35 -11.458,15.2 -20.791,13.067c-9.375,-2.134 -15.209,-11.447 -13.084,-20.801c2.167,-9.354 11.459,-15.204 20.792,-13.07Z" style="fill-rule:nonzero;"/><path d="M113.833,502.262c9.584,0 17.334,7.775 17.334,17.371c-0,9.592 -7.75,17.371 -17.334,17.371c-9.625,0 -17.375,-7.779 -17.375,-17.371c0,-9.596 7.75,-17.371 17.375,-17.371Z" style="fill-rule:nonzero;"/><path d="M120.125,593.004c9.333,-2.133 18.666,3.717 20.791,13.071c2.125,9.35 -3.708,18.663 -13.083,20.796c-9.333,2.137 -18.625,-3.717 -20.792,-13.067c-2.125,-9.354 3.709,-18.666 13.084,-20.8Z" style="fill-rule:nonzero;"/><path d="M146.458,680.066c8.667,-4.162 19.042,-0.529 23.209,8.113c4.166,8.642 0.5,19.025 -8.125,23.188c-8.626,4.162 -19.042,0.529 -23.209,-8.113c-4.125,-8.646 -0.5,-19.025 8.125,-23.188Z" style="fill-rule:nonzero;"/><path d="M191.542,759.083c7.5,-5.983 18.416,-4.75 24.374,2.75c6.001,7.5 4.751,18.429 -2.749,24.409c-7.5,5.983 -18.417,4.75 -24.376,-2.75c-5.999,-7.5 -4.749,-18.43 2.751,-24.409Z" style="fill-rule:nonzero;"/><path d="M253.042,826.092c5.958,-7.5 16.916,-8.734 24.416,-2.75c7.5,5.979 8.708,16.908 2.75,24.412c-6,7.5 -16.917,8.729 -24.416,2.75c-7.5,-5.983 -8.75,-16.912 -2.75,-24.412Z" style="fill-rule:nonzero;"/><path d="M327.916,877.737c4.167,-8.645 14.542,-12.279 23.167,-8.116c8.667,4.162 12.292,14.541 8.125,23.188c-4.166,8.641 -14.541,12.274 -23.166,8.112c-8.667,-4.162 -12.292,-14.542 -8.126,-23.184Z" style="fill-rule:nonzero;"/><path d="M412.417,911.421c2.125,-9.354 11.416,-15.204 20.791,-13.071c9.334,2.133 15.209,11.45 13.042,20.8c-2.125,9.354 -11.417,15.204 -20.792,13.071c-9.333,-2.138 -15.208,-11.446 -13.041,-20.8Z" style="fill-rule:nonzero;"/><path d="M502.292,925.462c-0,-9.595 7.75,-17.37 17.333,-17.37c9.625,-0 17.375,7.775 17.375,17.37c0,9.592 -7.75,17.371 -17.375,17.371c-9.583,0 -17.333,-7.779 -17.333,-17.371Z" style="fill-rule:nonzero;"/><path d="M593,919.15c-2.125,-9.35 3.708,-18.667 13.083,-20.8c9.333,-2.133 18.667,3.717 20.792,13.071c2.125,9.354 -3.709,18.662 -13.084,20.8c-9.333,2.133 -18.624,-3.717 -20.791,-13.071Z" style="fill-rule:nonzero;"/><path d="M680.083,892.809c-4.166,-8.647 -0.541,-19.026 8.084,-23.188c8.666,-4.163 19.041,-0.529 23.208,8.116c4.167,8.642 0.542,19.022 -8.125,23.184c-8.625,4.162 -19,0.529 -23.167,-8.112Z" style="fill-rule:nonzero;"/><path d="M759.083,847.754c-5.958,-7.504 -4.75,-18.433 2.75,-24.412c7.5,-5.984 18.417,-4.75 24.417,2.75c6,7.5 4.75,18.429 -2.75,24.412c-7.5,5.979 -18.417,4.75 -24.417,-2.75Z" style="fill-rule:nonzero;"/><path d="M826.083,786.242c-7.5,-5.98 -8.708,-16.909 -2.75,-24.409c6,-7.5 16.917,-8.733 24.417,-2.75c7.5,5.979 8.75,16.909 2.75,24.409c-5.959,7.5 -16.917,8.733 -24.417,2.75Z" style="fill-rule:nonzero;"/><path d="M877.75,711.367c-8.667,-4.163 -12.292,-14.546 -8.125,-23.188c4.167,-8.642 14.541,-12.275 23.208,-8.113c8.625,4.163 12.25,14.542 8.084,23.188c-4.167,8.642 -14.542,12.275 -23.167,8.113Z" style="fill-rule:nonzero;"/><path d="M911.417,626.871c-9.334,-2.133 -15.209,-11.446 -13.042,-20.796c2.125,-9.354 11.417,-15.204 20.792,-13.071c9.333,2.134 15.208,11.446 13.041,20.8c-2.125,9.35 -11.416,15.204 -20.791,13.067Z" style="fill-rule:nonzero;"/><path d="M925.458,537.004c-9.583,0 -17.375,-7.779 -17.375,-17.371c0,-9.596 7.792,-17.371 17.375,-17.371c9.584,0 17.375,7.775 17.375,17.371c0,9.592 -7.791,17.371 -17.375,17.371Z" style="fill-rule:nonzero;"/><path d="M919.167,446.263c-9.375,2.133 -18.667,-3.717 -20.792,-13.067c-2.167,-9.354 3.708,-18.667 13.042,-20.804c9.375,-2.134 18.666,3.716 20.791,13.07c2.167,9.354 -3.708,18.667 -13.041,20.801Z" style="fill-rule:nonzero;"/><path d="M892.833,359.2c-8.667,4.163 -19.041,0.533 -23.208,-8.113c-4.167,-8.641 -0.542,-19.02 8.125,-23.183c8.625,-4.162 19,-0.533 23.167,8.113c4.166,8.641 0.541,19.02 -8.084,23.183Z" style="fill-rule:nonzero;"/><path d="M847.75,280.183c-7.5,5.983 -18.417,4.755 -24.417,-2.75c-5.958,-7.5 -4.75,-18.429 2.75,-24.408c7.5,-5.983 18.458,-4.75 24.417,2.75c6,7.5 4.75,18.429 -2.75,24.408Z" style="fill-rule:nonzero;"/><path d="M786.25,213.175c-6,7.5 -16.917,8.733 -24.417,2.75c-7.5,-5.983 -8.708,-16.913 -2.75,-24.408c6,-7.505 16.917,-8.733 24.417,-2.755c7.5,5.984 8.75,16.913 2.75,24.413Z" style="fill-rule:nonzero;"/><path d="M711.375,161.533c-4.167,8.642 -14.542,12.275 -23.208,8.113c-8.625,-4.163 -12.25,-14.546 -8.084,-23.188c4.167,-8.641 14.542,-12.275 23.167,-8.112c8.667,4.162 12.292,14.546 8.125,23.187Z" style="fill-rule:nonzero;"/><path d="M626.875,127.846c-2.125,9.354 -11.459,15.204 -20.792,13.07c-9.375,-2.137 -15.208,-11.445 -13.083,-20.799c2.167,-9.354 11.458,-15.205 20.791,-13.071c9.375,2.133 15.209,11.446 13.084,20.8Z" style="fill-rule:nonzero;"/><path d="M533.375,198.692c0,7.587 -6.167,13.737 -13.75,13.737c-7.583,0 -13.708,-6.15 -13.708,-13.737c-0,-7.588 6.125,-13.738 13.708,-13.738c7.583,0 13.75,6.15 13.75,13.738Z" style="fill-rule:nonzero;"/><path d="M461.625,203.683c1.666,7.396 -2.959,14.763 -10.334,16.45c-7.416,1.688 -14.791,-2.941 -16.458,-10.337c-1.708,-7.396 2.958,-14.763 10.334,-16.45c7.416,-1.687 14.75,2.942 16.458,10.337Z" style="fill-rule:nonzero;"/><path d="M392.75,224.517c3.292,6.833 0.417,15.041 -6.417,18.333c-6.833,3.292 -15.041,0.421 -18.333,-6.413c-3.292,-6.837 -0.417,-15.045 6.417,-18.337c6.833,-3.292 15.041,-0.421 18.333,6.417Z" style="fill-rule:nonzero;"/><path d="M330.292,260.146c4.708,5.933 3.75,14.575 -2.209,19.308c-5.917,4.729 -14.541,3.754 -19.291,-2.175c-4.709,-5.933 -3.75,-14.575 2.166,-19.308c5.958,-4.73 14.584,-3.754 19.334,2.175Z" style="fill-rule:nonzero;"/><path d="M277.292,308.792c5.916,4.729 6.916,13.37 2.166,19.304c-4.75,5.929 -13.375,6.904 -19.292,2.175c-5.958,-4.729 -6.916,-13.375 -2.166,-19.305c4.709,-5.933 13.333,-6.908 19.292,-2.174Z" style="fill-rule:nonzero;"/><path d="M236.458,368.008c6.834,3.292 9.708,11.5 6.417,18.334c-3.292,6.837 -11.5,9.708 -18.333,6.416c-6.875,-3.291 -9.709,-11.5 -6.417,-18.333c3.292,-6.838 11.5,-9.708 18.333,-6.417Z" style="fill-rule:nonzero;"/><path d="M209.792,434.825c7.416,1.687 12.041,9.054 10.333,16.45c-1.667,7.396 -9.042,12.025 -16.417,10.333c-7.416,-1.687 -12.041,-9.05 -10.333,-16.446c1.666,-7.4 9.041,-12.024 16.417,-10.337Z" style="fill-rule:nonzero;"/><path d="M198.708,505.896c7.584,-0 13.709,6.15 13.709,13.737c-0,7.588 -6.125,13.738 -13.709,13.738c-7.583,-0 -13.75,-6.15 -13.75,-13.738c0,-7.587 6.167,-13.737 13.75,-13.737Z" style="fill-rule:nonzero;"/><path d="M203.708,577.658c7.375,-1.687 14.75,2.938 16.417,10.334c1.708,7.395 -2.917,14.762 -10.333,16.45c-7.376,1.687 -14.751,-2.938 -16.417,-10.334c-1.708,-7.4 2.917,-14.762 10.333,-16.45Z" style="fill-rule:nonzero;"/><path d="M224.542,646.508c6.833,-3.292 15.041,-0.42 18.333,6.417c3.291,6.838 0.417,15.046 -6.417,18.338c-6.833,3.291 -15.041,0.416 -18.333,-6.417c-3.292,-6.838 -0.458,-15.046 6.417,-18.338Z" style="fill-rule:nonzero;"/><path d="M260.166,708.996c5.917,-4.729 14.542,-3.755 19.292,2.175c4.75,5.933 3.75,14.575 -2.166,19.304c-5.959,4.729 -14.583,3.758 -19.292,-2.175c-4.75,-5.929 -3.792,-14.571 2.166,-19.304Z" style="fill-rule:nonzero;"/><path d="M308.792,761.991c4.75,-5.933 13.374,-6.908 19.291,-2.175c5.959,4.73 6.917,13.371 2.209,19.305c-4.75,5.929 -13.376,6.904 -19.334,2.175c-5.916,-4.729 -6.875,-13.375 -2.166,-19.305Z" style="fill-rule:nonzero;"/><path d="M368,802.829c3.292,-6.833 11.5,-9.708 18.333,-6.416c6.834,3.291 9.709,11.504 6.417,18.337c-3.292,6.838 -11.5,9.708 -18.333,6.416c-6.834,-3.291 -9.709,-11.5 -6.417,-18.337Z" style="fill-rule:nonzero;"/><path d="M434.833,829.471c1.667,-7.396 9.042,-12.025 16.458,-10.333c7.375,1.687 12,9.05 10.334,16.445c-1.708,7.396 -9.042,12.025 -16.458,10.338c-7.376,-1.692 -12.042,-9.054 -10.334,-16.45Z" style="fill-rule:nonzero;"/><path d="M505.917,840.575c-0,-7.588 6.125,-13.737 13.708,-13.737c7.583,-0 13.75,6.149 13.75,13.737c0,7.583 -6.167,13.733 -13.75,13.733c-7.583,0 -13.708,-6.15 -13.708,-13.733Z" style="fill-rule:nonzero;"/><path d="M577.667,835.583c-1.709,-7.395 2.916,-14.758 10.333,-16.445c7.417,-1.692 14.75,2.937 16.458,10.333c1.667,7.396 -2.958,14.758 -10.333,16.45c-7.417,1.687 -14.792,-2.942 -16.458,-10.338Z" style="fill-rule:nonzero;"/><path d="M646.5,814.75c-3.292,-6.833 -0.417,-15.046 6.416,-18.337c6.834,-3.292 15.042,-0.417 18.334,6.416c3.292,6.837 0.416,15.046 -6.417,18.337c-6.833,3.292 -15.042,0.422 -18.333,-6.416Z" style="fill-rule:nonzero;"/><path d="M709,779.121c-4.708,-5.934 -3.75,-14.575 2.166,-19.305c5.959,-4.733 14.584,-3.758 19.334,2.175c4.708,5.93 3.75,14.576 -2.208,19.305c-5.917,4.729 -14.542,3.754 -19.292,-2.175Z" style="fill-rule:nonzero;"/><path d="M762,730.475c-5.917,-4.729 -6.917,-13.371 -2.167,-19.304c4.709,-5.93 13.375,-6.904 19.292,-2.175c5.917,4.733 6.917,13.375 2.167,19.304c-4.709,5.933 -13.375,6.904 -19.292,2.175Z" style="fill-rule:nonzero;"/><path d="M802.833,671.263c-6.833,-3.292 -9.708,-11.5 -6.416,-18.338c3.291,-6.837 11.5,-9.709 18.333,-6.417c6.833,3.292 9.708,11.5 6.416,18.338c-3.291,6.833 -11.5,9.708 -18.333,6.417Z" style="fill-rule:nonzero;"/><path d="M829.458,604.442c-7.374,-1.688 -12,-9.055 -10.333,-16.45c1.708,-7.396 9.083,-12.021 16.458,-10.334c7.417,1.688 12.042,9.05 10.334,16.45c-1.667,7.396 -9.042,12.021 -16.459,10.334Z" style="fill-rule:nonzero;"/><path d="M840.583,533.371c-7.583,-0 -13.75,-6.15 -13.75,-13.738c0,-7.587 6.167,-13.737 13.75,-13.737c7.583,-0 13.75,6.15 13.75,13.737c0,7.588 -6.167,13.738 -13.75,13.738Z" style="fill-rule:nonzero;"/><path d="M835.583,461.608c-7.375,1.692 -14.75,-2.937 -16.458,-10.333c-1.667,-7.396 2.959,-14.763 10.333,-16.45c7.417,-1.687 14.792,2.937 16.459,10.337c1.708,7.396 -2.917,14.759 -10.334,16.446Z" style="fill-rule:nonzero;"/><path d="M814.75,392.758c-6.833,3.292 -15.042,0.421 -18.333,-6.416c-3.292,-6.834 -0.417,-15.042 6.416,-18.334c6.833,-3.291 15.042,-0.421 18.333,6.417c3.292,6.833 0.417,15.042 -6.416,18.333Z" style="fill-rule:nonzero;"/><path d="M779.125,330.271c-5.917,4.729 -14.583,3.754 -19.292,-2.175c-4.75,-5.934 -3.75,-14.575 2.167,-19.304c5.917,-4.734 14.583,-3.759 19.292,2.174c4.75,5.93 3.75,14.576 -2.167,19.305Z" style="fill-rule:nonzero;"/><path d="M730.5,277.279c-4.75,5.929 -13.375,6.904 -19.334,2.175c-5.916,-4.733 -6.874,-13.375 -2.166,-19.308c4.75,-5.929 13.375,-6.905 19.292,-2.175c5.958,4.733 6.916,13.375 2.208,19.308Z" style="fill-rule:nonzero;"/><path d="M671.25,236.437c-3.292,6.834 -11.5,9.705 -18.334,6.413c-6.833,-3.292 -9.708,-11.5 -6.416,-18.333c3.291,-6.838 11.5,-9.709 18.333,-6.417c6.833,3.292 9.709,11.5 6.417,18.337Z" style="fill-rule:nonzero;"/><path d="M604.458,209.796c-1.708,7.396 -9.041,12.025 -16.458,10.337c-7.417,-1.687 -12.042,-9.054 -10.333,-16.45c1.666,-7.395 9.041,-12.024 16.458,-10.337c7.375,1.687 12,9.054 10.333,16.45Z" style="fill-rule:nonzero;"/><path d="M530.042,276.608c-0,5.746 -4.667,10.404 -10.417,10.404c-5.708,0 -10.375,-4.658 -10.375,-10.404c-0,-5.742 4.667,-10.4 10.375,-10.4c5.75,0 10.417,4.658 10.417,10.4Z" style="fill-rule:nonzero;"/><path d="M475.709,280.391c1.291,5.6 -2.209,11.175 -7.834,12.455c-5.584,1.279 -11.167,-2.225 -12.458,-7.825c-1.292,-5.605 2.25,-11.179 7.833,-12.458c5.583,-1.275 11.167,2.224 12.459,7.828Z" style="fill-rule:nonzero;"/><path d="M423.583,296.162c2.459,5.18 0.292,11.396 -4.875,13.888c-5.166,2.492 -11.375,0.317 -13.875,-4.858c-2.5,-5.175 -0.333,-11.392 4.833,-13.888c5.209,-2.492 11.417,-0.316 13.917,4.858Z" style="fill-rule:nonzero;"/><path d="M376.25,323.146c3.583,4.491 2.833,11.033 -1.625,14.616c-4.5,3.584 -11.042,2.846 -14.625,-1.645c-3.583,-4.492 -2.875,-11.038 1.625,-14.617c4.5,-3.583 11.041,-2.846 14.625,1.646Z" style="fill-rule:nonzero;"/><path d="M336.125,359.979c4.5,3.584 5.209,10.125 1.666,14.617c-3.583,4.491 -10.166,5.229 -14.625,1.65c-4.499,-3.584 -5.249,-10.129 -1.666,-14.621c3.583,-4.492 10.125,-5.229 14.625,-1.646Z" style="fill-rule:nonzero;"/><path d="M305.208,404.821c5.167,2.492 7.334,8.704 4.834,13.883c-2.459,5.175 -8.709,7.35 -13.876,4.859c-5.166,-2.496 -7.333,-8.709 -4.832,-13.884c2.458,-5.179 8.708,-7.354 13.874,-4.858Z" style="fill-rule:nonzero;"/><path d="M285.042,455.417c5.583,1.274 9.083,6.854 7.791,12.454c-1.25,5.6 -6.833,9.104 -12.416,7.825c-5.626,-1.275 -9.125,-6.854 -7.833,-12.454c1.249,-5.6 6.832,-9.104 12.458,-7.825Z" style="fill-rule:nonzero;"/><path d="M276.625,509.233c5.75,0 10.417,4.655 10.417,10.4c-0,5.746 -4.667,10.4 -10.417,10.4c-5.75,0 -10.417,-4.654 -10.417,-10.4c0,-5.745 4.667,-10.4 10.417,-10.4Z" style="fill-rule:nonzero;"/><path d="M280.417,563.571c5.583,-1.28 11.166,2.225 12.416,7.825c1.292,5.6 -2.208,11.179 -7.791,12.454c-5.626,1.279 -11.209,-2.225 -12.458,-7.825c-1.292,-5.6 2.207,-11.175 7.833,-12.454Z" style="fill-rule:nonzero;"/><path d="M296.166,615.704c5.167,-2.491 11.417,-0.317 13.876,4.858c2.5,5.18 0.333,11.392 -4.834,13.888c-5.166,2.492 -11.416,0.317 -13.874,-4.858c-2.501,-5.175 -0.334,-11.396 4.832,-13.888Z" style="fill-rule:nonzero;"/><path d="M323.166,663.025c4.459,-3.583 11.042,-2.846 14.625,1.646c3.543,4.491 2.834,11.038 -1.666,14.616c-4.5,3.584 -11.042,2.846 -14.625,-1.645c-3.583,-4.492 -2.833,-11.038 1.666,-14.617Z" style="fill-rule:nonzero;"/><path d="M360,703.15c3.583,-4.492 10.125,-5.229 14.625,-1.646c4.458,3.579 5.208,10.125 1.625,14.617c-3.584,4.492 -10.125,5.229 -14.625,1.646c-4.5,-3.579 -5.208,-10.125 -1.625,-14.617Z" style="fill-rule:nonzero;"/><path d="M404.833,734.075c2.5,-5.175 8.709,-7.35 13.875,-4.858c5.167,2.495 7.334,8.708 4.875,13.883c-2.5,5.179 -8.708,7.354 -13.917,4.862c-5.166,-2.495 -7.333,-8.712 -4.833,-13.887Z" style="fill-rule:nonzero;"/><path d="M455.417,754.246c1.291,-5.596 6.874,-9.104 12.458,-7.825c5.625,1.279 9.125,6.854 7.834,12.458c-1.292,5.6 -6.876,9.105 -12.459,7.825c-5.583,-1.279 -9.125,-6.854 -7.833,-12.458Z" style="fill-rule:nonzero;"/><path d="M509.25,762.654c-0,-5.746 4.667,-10.4 10.375,-10.4c5.75,0 10.417,4.654 10.417,10.4c-0,5.746 -4.667,10.404 -10.417,10.404c-5.708,0 -10.375,-4.658 -10.375,-10.404Z" style="fill-rule:nonzero;"/><path d="M563.583,758.879c-1.292,-5.604 2.209,-11.179 7.834,-12.458c5.583,-1.279 11.166,2.229 12.458,7.825c1.25,5.604 -2.25,11.179 -7.833,12.458c-5.625,1.28 -11.167,-2.225 -12.459,-7.825Z" style="fill-rule:nonzero;"/><path d="M615.708,743.1c-2.499,-5.175 -0.292,-11.388 4.875,-13.883c5.167,-2.492 11.376,-0.317 13.875,4.858c2.5,5.175 0.334,11.392 -4.875,13.887c-5.166,2.492 -11.375,0.317 -13.875,-4.862Z" style="fill-rule:nonzero;"/><path d="M663.042,716.121c-3.584,-4.492 -2.876,-11.038 1.625,-14.617c4.5,-3.583 11.042,-2.846 14.625,1.646c3.583,4.492 2.833,11.038 -1.625,14.617c-4.501,3.583 -11.042,2.846 -14.625,-1.646Z" style="fill-rule:nonzero;"/><path d="M703.167,679.287c-4.501,-3.578 -5.25,-10.125 -1.667,-14.616c3.583,-4.492 10.125,-5.229 14.625,-1.646c4.5,3.579 5.25,10.125 1.667,14.617c-3.584,4.491 -10.125,5.229 -14.625,1.645Z" style="fill-rule:nonzero;"/><path d="M734.083,634.45c-5.167,-2.496 -7.333,-8.708 -4.875,-13.888c2.5,-5.175 8.709,-7.349 13.917,-4.858c5.167,2.492 7.333,8.713 4.833,13.888c-2.5,5.175 -8.708,7.35 -13.875,4.858Z" style="fill-rule:nonzero;"/><path d="M754.25,583.85c-5.584,-1.275 -9.083,-6.854 -7.833,-12.454c1.291,-5.6 6.875,-9.105 12.458,-7.825c5.625,1.279 9.125,6.854 7.833,12.454c-1.292,5.6 -6.833,9.104 -12.458,7.825Z" style="fill-rule:nonzero;"/><path d="M762.667,530.033c-5.75,0 -10.417,-4.654 -10.417,-10.4c0,-5.745 4.667,-10.4 10.417,-10.4c5.75,0 10.416,4.655 10.416,10.4c0,5.746 -4.666,10.4 -10.416,10.4Z" style="fill-rule:nonzero;"/><path d="M758.875,475.696c-5.583,1.279 -11.167,-2.225 -12.458,-7.825c-1.25,-5.6 2.249,-11.18 7.833,-12.454c5.625,-1.279 11.166,2.225 12.458,7.825c1.292,5.6 -2.208,11.179 -7.833,12.454Z" style="fill-rule:nonzero;"/><path d="M743.125,423.563c-5.208,2.491 -11.417,0.316 -13.917,-4.859c-2.458,-5.179 -0.292,-11.391 4.875,-13.883c5.167,-2.496 11.375,-0.321 13.875,4.858c2.5,5.175 0.334,11.388 -4.833,13.884Z" style="fill-rule:nonzero;"/><path d="M716.125,376.246c-4.5,3.579 -11.042,2.841 -14.625,-1.65c-3.583,-4.492 -2.834,-11.033 1.667,-14.617c4.5,-3.583 11.041,-2.846 14.625,1.646c3.583,4.492 2.833,11.037 -1.667,14.621Z" style="fill-rule:nonzero;"/><path d="M679.292,336.117c-3.583,4.491 -10.125,5.229 -14.625,1.645c-4.501,-3.583 -5.209,-10.125 -1.625,-14.616c3.583,-4.492 10.124,-5.229 14.625,-1.646c4.458,3.579 5.208,10.125 1.625,14.617Z" style="fill-rule:nonzero;"/><path d="M634.458,305.192c-2.499,5.175 -8.708,7.35 -13.875,4.858c-5.167,-2.492 -7.374,-8.708 -4.875,-13.888c2.5,-5.174 8.709,-7.35 13.875,-4.858c5.209,2.496 7.375,8.713 4.875,13.888Z" style="fill-rule:nonzero;"/><path d="M583.875,285.021c-1.292,5.6 -6.875,9.104 -12.458,7.825c-5.625,-1.28 -9.126,-6.855 -7.834,-12.455c1.292,-5.604 6.834,-9.103 12.459,-7.828c5.583,1.279 9.083,6.853 7.833,12.458Z" style="fill-rule:nonzero;"/><path d="M527,348.133c-0,4.055 -3.292,7.342 -7.375,7.342c-4.042,-0 -7.334,-3.287 -7.334,-7.342c0,-4.054 3.292,-7.341 7.334,-7.341c4.083,-0 7.375,3.287 7.375,7.341Z" style="fill-rule:nonzero;"/><path d="M488.625,350.8c0.917,3.95 -1.542,7.887 -5.5,8.792c-3.958,0.899 -7.916,-1.571 -8.792,-5.526c-0.916,-3.95 1.542,-7.887 5.5,-8.791c3.959,-0.9 7.917,1.571 8.792,5.525Z" style="fill-rule:nonzero;"/><path d="M451.833,361.933c1.75,3.65 0.25,8.038 -3.416,9.8c-3.667,1.754 -8.042,0.221 -9.792,-3.433c-1.75,-3.65 -0.25,-8.037 3.417,-9.796c3.666,-1.758 8.041,-0.225 9.791,3.429Z" style="fill-rule:nonzero;"/><path d="M418.458,380.971c2.5,3.171 2,7.791 -1.166,10.316c-3.167,2.53 -7.792,2.009 -10.333,-1.162c-2.501,-3.171 -2.001,-7.788 1.166,-10.312c3.167,-2.53 7.791,-2.009 10.333,1.158Z" style="fill-rule:nonzero;"/><path d="M390.125,406.967c3.167,2.529 3.708,7.145 1.167,10.316c-2.542,3.167 -7.126,3.688 -10.292,1.163c-3.208,-2.53 -3.708,-7.146 -1.167,-10.317c2.5,-3.171 7.125,-3.692 10.292,-1.162Z" style="fill-rule:nonzero;"/><path d="M368.292,438.608c3.666,1.759 5.208,6.146 3.458,9.801c-1.75,3.649 -6.167,5.187 -9.792,3.429c-3.666,-1.763 -5.208,-6.147 -3.458,-9.801c1.75,-3.654 6.167,-5.187 9.792,-3.429Z" style="fill-rule:nonzero;"/><path d="M354.083,474.316c3.958,0.901 6.417,4.834 5.501,8.788c-0.876,3.955 -4.834,6.425 -8.793,5.525c-3.916,-0.904 -6.416,-4.837 -5.499,-8.791c0.874,-3.95 4.833,-6.425 8.791,-5.522Z" style="fill-rule:nonzero;"/><path d="M348.125,512.291c4.083,0 7.375,3.288 7.375,7.342c-0,4.054 -3.292,7.342 -7.375,7.342c-4.042,-0 -7.333,-3.288 -7.333,-7.342c-0,-4.054 3.291,-7.342 7.333,-7.342Z" style="fill-rule:nonzero;"/><path d="M350.791,550.641c3.959,-0.903 7.917,1.572 8.793,5.522c0.916,3.954 -1.543,7.887 -5.501,8.791c-3.958,0.9 -7.917,-1.571 -8.791,-5.525c-0.917,-3.954 1.583,-7.887 5.499,-8.788Z" style="fill-rule:nonzero;"/><path d="M361.958,587.433c3.625,-1.762 8.042,-0.225 9.792,3.425c1.75,3.654 0.208,8.042 -3.458,9.8c-3.625,1.758 -8.042,0.225 -9.792,-3.429c-1.75,-3.654 -0.208,-8.037 3.458,-9.796Z" style="fill-rule:nonzero;"/><path d="M381,620.821c3.166,-2.525 7.75,-2.004 10.292,1.166c2.541,3.167 2,7.788 -1.167,10.313c-3.167,2.529 -7.792,2.008 -10.292,-1.162c-2.541,-3.167 -2.041,-7.788 1.167,-10.317Z" style="fill-rule:nonzero;"/><path d="M406.959,649.141c2.541,-3.17 7.166,-3.691 10.333,-1.162c3.166,2.525 3.666,7.146 1.166,10.313c-2.542,3.17 -7.166,3.691 -10.333,1.166c-3.167,-2.529 -3.667,-7.15 -1.166,-10.317Z" style="fill-rule:nonzero;"/><path d="M438.625,670.967c1.75,-3.654 6.125,-5.192 9.792,-3.43c3.666,1.759 5.166,6.146 3.416,9.796c-1.75,3.655 -6.125,5.188 -9.791,3.429c-3.667,-1.758 -5.167,-6.146 -3.417,-9.795Z" style="fill-rule:nonzero;"/><path d="M474.333,685.2c0.876,-3.954 4.834,-6.425 8.792,-5.525c3.958,0.904 6.417,4.837 5.5,8.791c-0.875,3.955 -4.833,6.426 -8.792,5.526c-3.958,-0.905 -6.416,-4.838 -5.5,-8.792Z" style="fill-rule:nonzero;"/><path d="M512.291,691.133c0,-4.054 3.292,-7.341 7.334,-7.341c4.083,-0 7.375,3.287 7.375,7.341c-0,4.054 -3.292,7.342 -7.375,7.342c-4.042,0 -7.334,-3.288 -7.334,-7.342Z" style="fill-rule:nonzero;"/><path d="M550.667,688.466c-0.917,-3.954 1.541,-7.887 5.5,-8.791c3.958,-0.9 7.875,1.571 8.791,5.525c0.917,3.954 -1.583,7.887 -5.541,8.792c-3.917,0.9 -7.875,-1.571 -8.75,-5.526Z" style="fill-rule:nonzero;"/><path d="M587.458,677.333c-1.792,-3.65 -0.25,-8.037 3.417,-9.796c3.625,-1.762 8.042,-0.224 9.792,3.43c1.749,3.649 0.208,8.037 -3.417,9.795c-3.667,1.759 -8.042,0.226 -9.792,-3.429Z" style="fill-rule:nonzero;"/><path d="M620.833,658.292c-2.541,-3.167 -2,-7.788 1.167,-10.313c3.167,-2.529 7.792,-2.008 10.292,1.162c2.541,3.167 2.041,7.788 -1.167,10.317c-3.167,2.525 -7.75,2.004 -10.292,-1.166Z" style="fill-rule:nonzero;"/><path d="M649.167,632.3c-3.209,-2.525 -3.709,-7.146 -1.167,-10.313c2.5,-3.17 7.125,-3.691 10.292,-1.166c3.166,2.529 3.708,7.15 1.166,10.317c-2.541,3.17 -7.125,3.691 -10.291,1.162Z" style="fill-rule:nonzero;"/><path d="M670.958,600.658c-3.625,-1.758 -5.166,-6.146 -3.416,-9.8c1.75,-3.65 6.166,-5.187 9.791,-3.425c3.667,1.759 5.208,6.142 3.459,9.796c-1.792,3.654 -6.167,5.187 -9.834,3.429Z" style="fill-rule:nonzero;"/><path d="M685.208,564.954c-3.958,-0.904 -6.416,-4.837 -5.541,-8.791c0.916,-3.95 4.875,-6.425 8.791,-5.522c3.958,0.901 6.459,4.834 5.542,8.788c-0.917,3.954 -4.833,6.425 -8.792,5.525Z" style="fill-rule:nonzero;"/><path d="M691.125,526.975c-4.042,-0 -7.333,-3.288 -7.333,-7.342c-0,-4.054 3.291,-7.342 7.333,-7.342c4.083,0 7.375,3.288 7.375,7.342c0,4.054 -3.292,7.342 -7.375,7.342Z" style="fill-rule:nonzero;"/><path d="M688.458,488.629c-3.916,0.9 -7.875,-1.57 -8.791,-5.525c-0.875,-3.954 1.583,-7.887 5.541,-8.788c3.959,-0.903 7.875,1.572 8.792,5.522c0.917,3.954 -1.584,7.887 -5.542,8.791Z" style="fill-rule:nonzero;"/><path d="M677.333,451.838c-3.625,1.758 -8.041,0.22 -9.791,-3.429c-1.75,-3.655 -0.209,-8.042 3.416,-9.801c3.667,-1.758 8.042,-0.225 9.834,3.429c1.749,3.654 0.208,8.038 -3.459,9.801Z" style="fill-rule:nonzero;"/><path d="M658.292,418.446c-3.167,2.525 -7.792,2.004 -10.292,-1.163c-2.542,-3.171 -2.042,-7.787 1.167,-10.316c3.166,-2.53 7.75,-2.009 10.291,1.162c2.542,3.171 2,7.787 -1.166,10.317Z" style="fill-rule:nonzero;"/><path d="M632.292,390.125c-2.5,3.171 -7.125,3.692 -10.292,1.162c-3.167,-2.525 -3.708,-7.145 -1.167,-10.316c2.542,-3.167 7.125,-3.688 10.292,-1.158c3.208,2.524 3.708,7.141 1.167,10.312Z" style="fill-rule:nonzero;"/><path d="M600.667,368.3c-1.75,3.654 -6.167,5.187 -9.792,3.433c-3.667,-1.762 -5.209,-6.15 -3.417,-9.8c1.75,-3.654 6.125,-5.187 9.792,-3.429c3.625,1.759 5.166,6.146 3.417,9.796Z" style="fill-rule:nonzero;"/><path d="M564.958,354.066c-0.916,3.955 -4.833,6.425 -8.791,5.526c-3.959,-0.905 -6.417,-4.842 -5.5,-8.792c0.875,-3.954 4.833,-6.425 8.75,-5.525c3.958,0.904 6.458,4.841 5.541,8.791Z" style="fill-rule:nonzero;"/><path d="M524.167,413.783c-0,2.504 -2.042,4.534 -4.542,4.534c-2.5,-0 -4.5,-2.03 -4.5,-4.534c0,-2.5 2,-4.529 4.5,-4.529c2.5,-0 4.542,2.029 4.542,4.529Z" style="fill-rule:nonzero;"/><path d="M500.5,415.429c0.542,2.442 -0.958,4.871 -3.416,5.425c-2.417,0.559 -4.876,-0.967 -5.417,-3.408c-0.542,-2.437 0.958,-4.867 3.416,-5.425c2.417,-0.555 4.875,0.971 5.417,3.408Z" style="fill-rule:nonzero;"/><path d="M477.792,422.3c1.083,2.254 0.124,4.962 -2.125,6.046c-2.25,1.087 -4.959,0.142 -6.042,-2.113c-1.084,-2.254 -0.125,-4.962 2.125,-6.05c2.25,-1.083 4.958,-0.137 6.042,2.117Z" style="fill-rule:nonzero;"/><path d="M457.167,434.054c1.583,1.954 1.25,4.805 -0.708,6.362c-1.959,1.563 -4.792,1.243 -6.376,-0.712c-1.541,-1.958 -1.208,-4.808 0.75,-6.371c1.959,-1.558 4.792,-1.237 6.334,0.721Z" style="fill-rule:nonzero;"/><path d="M439.708,450.096c1.959,1.558 2.292,4.408 0.708,6.367c-1.541,1.954 -4.416,2.275 -6.374,0.716c-1.959,-1.558 -2.25,-4.408 -0.709,-6.367c1.584,-1.954 4.417,-2.274 6.375,-0.716Z" style="fill-rule:nonzero;"/><path d="M426.25,469.625c2.25,1.083 3.208,3.792 2.125,6.046c-1.125,2.254 -3.792,3.204 -6.083,2.116c-2.251,-1.083 -3.167,-3.791 -2.084,-6.045c1.084,-2.254 3.792,-3.205 6.042,-2.117Z" style="fill-rule:nonzero;"/><path d="M417.458,491.663c2.417,0.558 3.959,2.987 3.417,5.425c-0.583,2.437 -3,3.966 -5.459,3.408c-2.416,-0.554 -3.958,-2.984 -3.374,-5.425c0.541,-2.438 2.958,-3.967 5.416,-3.408Z" style="fill-rule:nonzero;"/><path d="M413.791,515.104c2.501,0 4.542,2.029 4.542,4.529c0,2.504 -2.041,4.534 -4.542,4.534c-2.499,-0 -4.541,-2.03 -4.541,-4.534c-0,-2.5 2.042,-4.529 4.541,-4.529Z" style="fill-rule:nonzero;"/><path d="M415.416,538.771c2.459,-0.558 4.876,0.966 5.459,3.408c0.542,2.438 -1,4.867 -3.417,5.425c-2.458,0.558 -4.875,-0.971 -5.416,-3.408c-0.584,-2.442 0.958,-4.867 3.374,-5.425Z" style="fill-rule:nonzero;"/><path d="M422.292,561.479c2.291,-1.087 4.958,-0.142 6.083,2.113c1.083,2.254 0.125,4.962 -2.125,6.05c-2.25,1.083 -4.958,0.137 -6.042,-2.117c-1.083,-2.254 -0.167,-4.962 2.084,-6.046Z" style="fill-rule:nonzero;"/><path d="M434.042,582.088c1.958,-1.563 4.833,-1.238 6.374,0.716c1.584,1.959 1.251,4.808 -0.708,6.367c-1.958,1.562 -4.791,1.237 -6.375,-0.717c-1.541,-1.954 -1.25,-4.808 0.709,-6.366Z" style="fill-rule:nonzero;"/><path d="M450.083,599.567c1.584,-1.959 4.417,-2.28 6.376,-0.721c1.958,1.562 2.291,4.412 0.708,6.366c-1.542,1.959 -4.375,2.28 -6.334,0.721c-1.958,-1.562 -2.291,-4.412 -0.75,-6.366Z" style="fill-rule:nonzero;"/><path d="M469.625,613.033c1.083,-2.254 3.792,-3.2 6.042,-2.116c2.249,1.087 3.208,3.796 2.125,6.05c-1.084,2.254 -3.792,3.2 -6.042,2.116c-2.25,-1.087 -3.209,-3.796 -2.125,-6.05Z" style="fill-rule:nonzero;"/><path d="M491.667,621.821c0.541,-2.438 3,-3.967 5.417,-3.409c2.458,0.559 3.958,2.988 3.416,5.425c-0.542,2.438 -3,3.967 -5.417,3.409c-2.458,-0.554 -3.958,-2.984 -3.416,-5.425Z" style="fill-rule:nonzero;"/><path d="M515.125,625.483c0,-2.504 2,-4.529 4.5,-4.529c2.5,-0 4.542,2.025 4.542,4.529c-0,2.505 -2.042,4.53 -4.542,4.53c-2.5,-0 -4.5,-2.025 -4.5,-4.53Z" style="fill-rule:nonzero;"/><path d="M538.791,623.837c-0.582,-2.437 0.959,-4.866 3.376,-5.425c2.458,-0.558 4.875,0.971 5.458,3.409c0.541,2.441 -1,4.871 -3.417,5.425c-2.458,0.558 -4.875,-0.971 -5.417,-3.409Z" style="fill-rule:nonzero;"/><path d="M561.5,616.967c-1.083,-2.254 -0.167,-4.963 2.083,-6.05c2.292,-1.084 5,-0.138 6.084,2.116c1.083,2.254 0.125,4.963 -2.125,6.05c-2.25,1.084 -4.959,0.138 -6.042,-2.116Z" style="fill-rule:nonzero;"/><path d="M582.083,605.212c-1.542,-1.954 -1.208,-4.804 0.709,-6.366c1.958,-1.559 4.833,-1.238 6.375,0.721c1.583,1.954 1.249,4.804 -0.709,6.366c-1.958,1.559 -4.792,1.238 -6.375,-0.721Z" style="fill-rule:nonzero;"/><path d="M599.583,589.171c-1.958,-1.559 -2.291,-4.408 -0.708,-6.367c1.542,-1.954 4.375,-2.279 6.333,-0.716c1.959,1.558 2.292,4.412 0.75,6.366c-1.583,1.954 -4.416,2.279 -6.375,0.717Z" style="fill-rule:nonzero;"/><path d="M613.042,569.642c-2.25,-1.088 -3.209,-3.796 -2.125,-6.05c1.083,-2.255 3.791,-3.2 6.041,-2.113c2.25,1.084 3.209,3.792 2.125,6.046c-1.083,2.254 -3.791,3.2 -6.041,2.117Z" style="fill-rule:nonzero;"/><path d="M621.833,547.604c-2.458,-0.558 -3.958,-2.987 -3.416,-5.425c0.542,-2.442 3,-3.966 5.416,-3.408c2.458,0.558 3.959,2.983 3.417,5.425c-0.542,2.437 -3,3.966 -5.417,3.408Z" style="fill-rule:nonzero;"/><path d="M625.5,524.167c-2.5,-0 -4.542,-2.03 -4.542,-4.534c0,-2.5 2.042,-4.529 4.542,-4.529c2.5,0 4.5,2.029 4.5,4.529c-0,2.504 -2,4.534 -4.5,4.534Z" style="fill-rule:nonzero;"/><path d="M623.833,500.496c-2.416,0.558 -4.874,-0.971 -5.416,-3.408c-0.542,-2.438 0.958,-4.867 3.416,-5.425c2.417,-0.559 4.875,0.97 5.417,3.408c0.542,2.441 -0.959,4.871 -3.417,5.425Z" style="fill-rule:nonzero;"/><path d="M616.958,477.787c-2.25,1.088 -4.958,0.138 -6.041,-2.116c-1.084,-2.254 -0.125,-4.963 2.125,-6.046c2.25,-1.088 4.958,-0.137 6.041,2.117c1.084,2.254 0.125,4.962 -2.125,6.045Z" style="fill-rule:nonzero;"/><path d="M605.208,457.179c-1.958,1.559 -4.791,1.238 -6.333,-0.716c-1.583,-1.959 -1.25,-4.809 0.708,-6.367c1.959,-1.558 4.792,-1.238 6.375,0.716c1.542,1.959 1.209,4.809 -0.75,6.367Z" style="fill-rule:nonzero;"/><path d="M589.167,439.704c-1.542,1.955 -4.417,2.275 -6.375,0.712c-1.917,-1.557 -2.251,-4.408 -0.709,-6.362c1.583,-1.958 4.417,-2.279 6.375,-0.721c1.958,1.563 2.292,4.413 0.709,6.371Z" style="fill-rule:nonzero;"/><path d="M569.667,426.233c-1.084,2.255 -3.792,3.2 -6.084,2.113c-2.25,-1.084 -3.166,-3.792 -2.083,-6.046c1.083,-2.254 3.792,-3.2 6.042,-2.117c2.25,1.088 3.208,3.796 2.125,6.05Z" style="fill-rule:nonzero;"/><path d="M547.625,417.446c-0.583,2.441 -3,3.967 -5.458,3.408c-2.417,-0.554 -3.958,-2.983 -3.376,-5.425c0.542,-2.437 2.959,-3.963 5.417,-3.408c2.417,0.558 3.958,2.988 3.417,5.425Z" style="fill-rule:nonzero;"/></g></svg>