<?xml version="1.0" encoding="UTF-8" standalone="no"?><!DOCTYPE svg PUBLIC "-//W3C//DTD SVG 1.1//EN" "http://www.w3.org/Graphics/SVG/1.1/DTD/svg11.dtd"><svg width="100%" height="100%" viewBox="0 0 1031 1031" version="1.1" xmlns="http://www.w3.org/2000/svg" xmlns:xlink="http://www.w3.org/1999/xlink" xml:space="preserve" xmlns:serif="http://www.serif.com/" style="fill-rule:evenodd;clip-rule:evenodd;stroke-linejoin:round;stroke-miterlimit:2;"><g><path d="M536.167,21.142c-0,11.675 -9.459,21.142 -21.125,21.142c-11.667,-0 -21.125,-9.467 -21.125,-21.142c-0,-11.675 9.458,-21.142 21.125,-21.142c11.666,0 21.125,9.467 21.125,21.142Z" style="fill-rule:nonzero;"/><path d="M425.75,28.821c2.596,11.383 -4.525,22.717 -15.908,25.317c-11.384,2.596 -22.717,-4.526 -25.313,-15.909c-2.596,-11.383 4.525,-22.716 15.904,-25.312c11.384,-2.6 22.717,4.521 25.317,15.904Z" style="fill-rule:nonzero;"/><path d="M319.792,60.884c5.066,10.516 0.646,23.15 -9.875,28.216c-10.517,5.067 -23.15,0.646 -28.217,-9.875c-5.067,-10.517 -0.646,-23.15 9.875,-28.216c10.517,-5.067 23.15,-0.646 28.217,9.875Z" style="fill-rule:nonzero;"/><path d="M223.625,115.717c7.283,9.129 5.784,22.429 -3.346,29.708c-9.129,7.279 -22.429,5.779 -29.708,-3.35c-7.279,-9.125 -5.779,-22.425 3.35,-29.704c9.125,-7.279 22.425,-5.783 29.704,3.346Z" style="fill-rule:nonzero;"/><path d="M142.075,190.575c9.125,7.279 10.625,20.579 3.346,29.709c-7.279,9.124 -20.579,10.625 -29.709,3.345c-9.129,-7.279 -10.624,-20.579 -3.345,-29.708c7.279,-9.129 20.579,-10.625 29.708,-3.346Z" style="fill-rule:nonzero;"/><path d="M79.221,281.704c10.521,5.067 14.941,17.7 9.875,28.217c-5.063,10.521 -17.7,14.942 -28.217,9.875c-10.521,-5.067 -14.941,-17.7 -9.875,-28.221c5.067,-10.517 17.7,-14.937 28.217,-9.871Z" style="fill-rule:nonzero;"/><path d="M38.225,384.534c11.383,2.595 18.504,13.928 15.908,25.312c-2.599,11.384 -13.933,18.504 -25.316,15.908c-11.38,-2.6 -18.504,-13.933 -15.905,-25.317c2.597,-11.383 13.93,-18.503 25.313,-15.903Z" style="fill-rule:nonzero;"/><path d="M21.137,493.904c11.68,0 21.142,9.467 21.142,21.142c0,11.675 -9.462,21.138 -21.142,21.138c-11.675,-0 -21.137,-9.463 -21.137,-21.138c0,-11.675 9.462,-21.142 21.137,-21.142Z" style="fill-rule:nonzero;"/><path d="M28.817,604.342c11.383,-2.6 22.717,4.521 25.316,15.904c2.596,11.383 -4.525,22.717 -15.908,25.313c-11.383,2.599 -22.716,-4.522 -25.313,-15.905c-2.599,-11.383 4.525,-22.716 15.905,-25.312Z" style="fill-rule:nonzero;"/><path d="M60.879,710.296c10.517,-5.067 23.154,-0.646 28.217,9.875c5.066,10.521 0.646,23.154 -9.875,28.221c-10.517,5.062 -23.15,0.642 -28.217,-9.879c-5.066,-10.517 -0.646,-23.15 9.875,-28.217Z" style="fill-rule:nonzero;"/><path d="M115.712,806.463c9.13,-7.279 22.43,-5.783 29.709,3.345c7.279,9.13 5.779,22.43 -3.346,29.709c-9.129,7.279 -22.429,5.779 -29.708,-3.346c-7.279,-9.129 -5.784,-22.429 3.345,-29.708Z" style="fill-rule:nonzero;"/><path d="M190.571,888.013c7.279,-9.126 20.579,-10.626 29.708,-3.346c9.13,7.279 10.629,20.583 3.346,29.708c-7.279,9.129 -20.579,10.63 -29.704,3.35c-9.129,-7.279 -10.629,-20.583 -3.35,-29.712Z" style="fill-rule:nonzero;"/><path d="M281.7,950.867c5.067,-10.521 17.7,-14.942 28.217,-9.875c10.521,5.067 14.941,17.7 9.875,28.221c-5.067,10.516 -17.7,14.937 -28.217,9.87c-10.521,-5.066 -14.942,-17.699 -9.875,-28.216Z" style="fill-rule:nonzero;"/><path d="M384.529,991.862c2.596,-11.383 13.929,-18.503 25.313,-15.904c11.383,2.596 18.504,13.929 15.908,25.313c-2.6,11.383 -13.933,18.504 -25.317,15.904c-11.379,-2.596 -18.5,-13.929 -15.904,-25.313Z" style="fill-rule:nonzero;"/><path d="M493.917,1008.95c-0,-11.675 9.458,-21.137 21.125,-21.137c11.666,-0 21.125,9.462 21.125,21.137c-0,11.675 -9.459,21.142 -21.125,21.142c-11.667,-0 -21.125,-9.467 -21.125,-21.142Z" style="fill-rule:nonzero;"/><path d="M604.329,1001.27c-2.583,-11.384 4.546,-22.717 15.921,-25.313c11.375,-2.599 22.708,4.521 25.292,15.904c2.625,11.384 -4.5,22.717 -15.875,25.313c-11.417,2.6 -22.755,-4.521 -25.338,-15.904Z" style="fill-rule:nonzero;"/><path d="M710.292,969.213c-5.083,-10.521 -0.625,-23.154 9.875,-28.221c10.5,-5.067 23.166,-0.646 28.208,9.875c5.083,10.517 0.667,23.15 -9.875,28.216c-10.5,5.067 -23.125,0.646 -28.208,-9.87Z" style="fill-rule:nonzero;"/><path d="M806.458,914.375c-7.291,-9.125 -5.791,-22.429 3.334,-29.708c9.125,-7.28 22.458,-5.78 29.708,3.346c7.292,9.129 5.792,22.433 -3.333,29.712c-9.125,7.28 -22.417,5.779 -29.709,-3.35Z" style="fill-rule:nonzero;"/><path d="M888,839.517c-9.125,-7.279 -10.625,-20.579 -3.333,-29.709c7.291,-9.128 20.583,-10.624 29.708,-3.345c9.125,7.279 10.625,20.579 3.334,29.708c-7.25,9.125 -20.584,10.625 -29.709,3.346Z" style="fill-rule:nonzero;"/><path d="M950.875,748.392c-10.542,-5.067 -14.958,-17.7 -9.875,-28.221c5.042,-10.521 17.708,-14.942 28.209,-9.875c10.5,5.067 14.958,17.7 9.875,28.217c-5.084,10.521 -17.709,14.941 -28.209,9.879Z" style="fill-rule:nonzero;"/><path d="M991.875,645.559c-11.417,-2.596 -18.5,-13.93 -15.916,-25.313c2.583,-11.383 13.916,-18.504 25.291,-15.904c11.417,2.596 18.542,13.929 15.917,25.312c-2.583,11.383 -13.917,18.504 -25.292,15.905Z" style="fill-rule:nonzero;"/><path d="M1008.96,536.184c-11.666,-0 -21.166,-9.463 -21.166,-21.138c-0,-11.675 9.5,-21.142 21.166,-21.142c11.667,0 21.125,9.467 21.125,21.142c0,11.675 -9.458,21.138 -21.125,21.138Z" style="fill-rule:nonzero;"/><path d="M1001.25,425.754c-11.375,2.596 -22.708,-4.524 -25.291,-15.908c-2.584,-11.384 4.499,-22.717 15.916,-25.312c11.375,-2.6 22.709,4.52 25.292,15.903c2.625,11.384 -4.5,22.717 -15.917,25.317Z" style="fill-rule:nonzero;"/><path d="M969.209,319.796c-10.501,5.067 -23.167,0.646 -28.209,-9.875c-5.083,-10.517 -0.667,-23.15 9.875,-28.217c10.5,-5.066 23.125,-0.646 28.209,9.871c5.083,10.521 0.625,23.154 -9.875,28.221Z" style="fill-rule:nonzero;"/><path d="M914.375,223.629c-9.125,7.28 -22.417,5.779 -29.708,-3.345c-7.292,-9.13 -5.792,-22.43 3.333,-29.709c9.125,-7.279 22.459,-5.783 29.709,3.346c7.291,9.129 5.791,22.429 -3.334,29.708Z" style="fill-rule:nonzero;"/><path d="M839.5,142.075c-7.25,9.129 -20.583,10.629 -29.708,3.35c-9.125,-7.279 -10.625,-20.579 -3.334,-29.708c7.292,-9.129 20.584,-10.625 29.709,-3.346c9.125,7.279 10.625,20.579 3.333,29.704Z" style="fill-rule:nonzero;"/><path d="M748.375,79.225c-5.042,10.521 -17.708,14.942 -28.208,9.875c-10.5,-5.066 -14.958,-17.7 -9.875,-28.216c5.083,-10.521 17.708,-14.942 28.208,-9.875c10.542,5.066 14.958,17.699 9.875,28.216Z" style="fill-rule:nonzero;"/><path d="M645.542,38.229c-2.584,11.383 -13.917,18.505 -25.292,15.909c-11.375,-2.6 -18.504,-13.934 -15.921,-25.317c2.583,-11.383 13.921,-18.504 25.338,-15.904c11.375,2.596 18.5,13.929 15.875,25.312Z" style="fill-rule:nonzero;"/></g></svg>