<?xml version="1.0" encoding="UTF-8" standalone="no"?><!DOCTYPE svg PUBLIC "-//W3C//DTD SVG 1.1//EN" "http://www.w3.org/Graphics/SVG/1.1/DTD/svg11.dtd"><svg width="100%" height="100%" viewBox="0 0 15405 7705" version="1.1" xmlns="http://www.w3.org/2000/svg" xmlns:xlink="http://www.w3.org/1999/xlink" xml:space="preserve" xmlns:serif="http://www.serif.com/" style="fill-rule:evenodd;clip-rule:evenodd;stroke-linejoin:round;stroke-miterlimit:2;"><g><path d="M8337.62,7402.92c222.25,-175.125 470.959,-575.667 471.959,-906.375c0.624,-198.625 -61.043,-460.042 21.833,-632.667c80.125,-166.917 210.083,-286.5 319.124,-433.042c24.209,-32.541 49.751,-69 48.542,-110.75c-3.75,-128.583 -226.625,-128.166 -243.292,-255.541c-12.291,-93.959 105.542,-165.375 91.418,-259.042c-11.792,-78.292 -102.334,-104.208 -175.251,-113.083c82.542,-4.209 139.542,-120.334 96.458,-196.5c-13.208,-23.417 -33.041,-41.834 -45.916,-65.459c-43,-78.958 5.084,-179 -2.583,-270.283c-11.917,-141.829 -120.708,-216.596 -247.542,-255.262c-84.958,-25.905 -305.583,-57.605 -414.208,-83.621l-0.459,1.966c-28,-6.029 -52.333,-11.879 -70.791,-17.516c-126.833,-38.688 -235.625,-113.434 -247.542,-255.263c-7.667,-91.283 40.417,-191.308 -2.625,-270.304c-12.833,-23.621 -32.708,-42.038 -45.916,-65.425c-43.084,-76.192 13.916,-192.321 96.457,-196.508c-72.916,-8.896 -163.416,-34.817 -175.249,-113.075c-14.084,-93.667 103.708,-165.088 91.416,-259.054c-16.625,-127.371 -239.541,-126.979 -243.25,-255.555c-1.208,-41.75 24.334,-78.187 48.542,-110.741c109,-146.538 238.958,-266.129 319.084,-433.034c82.874,-172.633 21.208,-434.033 21.833,-632.692c1,-330.674 249.708,-731.225 471.958,-906.37c243.708,-192.046 545.375,-297.146 847.417,-304.358c-665.417,0.199 -9301.19,-0.772 -9368.65,-0.78l-0.396,0l0,7701.58l7282.42,-0c64.958,-1.459 102.958,-3.084 109.875,-4.959c225.958,29.834 677,-84.791 945.333,-296.291Z" style="fill:#e3ded9;fill-rule:nonzero;"/><path d="M-6796.25,1.017c67.458,0.008 8703.25,0.979 9368.65,0.783c-302.021,7.221 -603.708,112.496 -847.404,304.862c-222.258,175.442 -470.95,576.663 -471.975,907.892c-0.613,198.992 61.046,460.83 -21.821,633.75c-80.113,167.184 -210.079,286.975 -319.096,433.758c-24.221,32.609 -49.75,69.109 -48.541,110.926c3.72,128.791 226.612,128.4 243.27,255.983c12.292,94.125 -105.529,165.666 -91.412,259.492c11.796,78.387 102.325,104.354 175.233,113.262c-82.537,4.192 -139.542,120.516 -96.458,196.837c13.225,23.426 33.066,41.876 45.929,65.534c43.013,79.129 -5.075,179.321 2.592,270.754c11.916,142.071 120.716,216.942 247.55,255.692c18.479,5.646 42.808,11.508 70.812,17.55l0.446,-1.975c108.646,26.062 329.237,57.816 414.196,83.762c126.837,38.733 235.633,113.621 247.55,255.692c7.666,91.429 -40.421,191.637 2.592,270.762c12.862,23.667 32.704,42.084 45.925,65.542c43.083,76.292 -13.921,192.625 -96.459,196.833c72.913,8.917 163.442,34.875 175.238,113.25c14.116,93.834 -103.704,165.375 -91.413,259.5c16.659,127.584 239.55,127.167 243.271,255.959c1.208,41.833 -24.321,78.333 -48.542,110.958c-109.016,146.75 -238.983,266.542 -319.1,433.75c-82.862,172.917 -21.204,434.75 -21.821,633.75c-1.02,331.208 -249.712,732.458 -471.97,907.875c-268.35,211.833 -719.363,326.625 -945.338,296.792c-6.908,1.833 -44.929,3.5 -109.867,4.958l8120.71,0l0,-7714.48l-15402.8,-0Z" style="fill:#a62522;fill-rule:nonzero;"/><path d="M-5663.46,1.017c67.458,0.008 8703.23,0.979 9368.63,0.783c-302.017,7.221 -603.704,112.496 -847.404,304.862c-222.259,175.442 -470.946,576.663 -471.971,907.892c-0.613,198.992 61.046,460.83 -21.821,633.75c-80.117,167.184 -210.083,286.975 -319.1,433.758c-24.217,32.609 -49.746,69.109 -48.537,110.926c3.72,128.791 226.612,128.4 243.27,255.983c12.292,94.125 -105.537,165.666 -91.412,259.492c11.796,78.387 102.325,104.354 175.233,113.262c-82.537,4.192 -139.542,120.516 -96.458,196.837c13.225,23.426 33.066,41.876 45.929,65.534c43.012,79.129 -5.079,179.321 2.592,270.754c11.912,142.071 120.712,216.942 247.545,255.692c18.484,5.646 42.809,11.508 70.817,17.55l0.446,-1.975c108.646,26.062 329.237,57.816 414.196,83.762c126.837,38.733 235.633,113.621 247.55,255.692c7.662,91.429 -40.425,191.637 2.587,270.762c12.863,23.667 32.705,42.084 45.929,65.542c43.084,76.292 -13.92,192.625 -96.458,196.833c72.908,8.917 163.438,34.875 175.233,113.25c14.121,93.834 -103.704,165.375 -91.412,259.5c16.658,127.584 239.55,127.167 243.271,255.959c1.208,41.833 -24.321,78.333 -48.538,110.958c-109.016,146.75 -238.987,266.542 -319.1,433.75c-82.866,172.917 -21.208,434.75 -21.821,633.75c-1.024,331.208 -249.712,732.458 -471.97,907.875c-268.35,211.833 -719.363,326.625 -945.338,296.792c-6.912,1.833 -44.933,3.5 -109.867,4.958l8120.73,0l0,-7714.48l-15402.7,-0Z" style="fill:#da6d4c;fill-rule:nonzero;"/><path d="M-4474.04,1.017c67.459,0.008 8703.21,0.979 9368.62,0.783c-302,7.221 -603.708,112.496 -847.404,304.862c-222.258,175.442 -470.95,576.663 -471.971,907.892c-0.612,198.992 61.042,460.83 -21.821,633.75c-80.116,167.184 -210.083,286.975 -319.099,433.758c-24.221,32.609 -49.746,69.109 -48.538,110.926c3.717,128.791 226.608,128.4 243.271,255.983c12.287,94.125 -105.533,165.666 -91.413,259.492c11.796,78.387 102.325,104.354 175.234,113.262c-82.538,4.192 -139.546,120.516 -96.459,196.837c13.225,23.426 33.067,41.876 45.925,65.534c43.017,79.129 -5.075,179.321 2.596,270.754c11.913,142.071 120.713,216.942 247.546,255.692c18.479,5.646 42.808,11.508 70.817,17.55l0.446,-1.975c108.645,26.062 329.237,57.816 414.204,83.762c126.829,38.733 235.625,113.621 247.541,255.692c7.667,91.429 -40.416,191.637 2.584,270.762c12.875,23.667 32.708,42.084 45.917,65.542c43.083,76.292 -13.917,192.625 -96.459,196.833c72.917,8.917 163.458,34.875 175.25,113.25c14.125,93.834 -103.709,165.375 -91.417,259.5c16.667,127.584 239.542,127.167 243.292,255.959c1.208,41.833 -24.334,78.333 -48.542,110.958c-109.041,146.75 -239,266.542 -319.124,433.75c-82.834,172.917 -21.213,434.75 -21.797,633.75c-1.041,331.208 -249.729,732.458 -471.983,907.875c-268.35,211.833 -719.366,326.625 -945.337,296.792c-6.913,1.833 -44.934,3.5 -109.871,4.958l8120.74,0l-0,-7714.48l-15402.8,-0Z" style="fill:#e6a77d;fill-rule:nonzero;"/><path d="M-3284.65,1.017c67.458,0.008 8703.23,0.979 9368.65,0.783c-302.041,7.221 -603.708,112.496 -847.417,304.862c-222.25,175.442 -470.958,576.663 -471.958,907.892c-0.625,198.992 61.042,460.83 -21.833,633.75c-80.125,167.184 -210.084,286.975 -319.084,433.758c-24.208,32.609 -49.75,69.109 -48.541,110.926c3.708,128.791 226.625,128.4 243.25,255.983c12.291,94.125 -105.5,165.666 -91.417,259.492c11.833,78.387 102.333,104.354 175.25,113.262c-82.542,4.192 -139.541,120.516 -96.458,196.837c13.208,23.426 33.083,41.876 45.916,65.534c43.042,79.129 -5.042,179.321 2.625,270.754c11.875,142.071 120.709,216.942 247.542,255.692c18.458,5.646 42.792,11.508 70.791,17.55l0.459,-1.975c108.625,26.062 329.25,57.816 414.208,83.762c126.834,38.733 235.625,113.621 247.542,255.692c7.667,91.429 -40.416,191.637 2.583,270.762c12.875,23.667 32.709,42.084 45.917,65.542c43.083,76.292 -13.916,192.625 -96.458,196.833c72.916,8.917 163.458,34.875 175.25,113.25c14.125,93.834 -103.709,165.375 -91.417,259.5c16.667,127.584 239.542,127.167 243.292,255.959c1.208,41.833 -24.334,78.333 -48.542,110.958c-109.041,146.75 -239,266.542 -319.125,433.75c-82.875,172.917 -21.208,434.75 -21.833,633.75c-1,331.208 -249.709,732.458 -471.959,907.875c-268.333,211.833 -719.375,326.625 -945.329,296.792c-6.912,1.833 -44.933,3.5 -109.871,4.958l8120.74,0l0,-7714.48l-15402.8,-0Z" style="fill:#e8d8b9;fill-rule:nonzero;"/><path d="M-2095.23,1.017c67.458,0.008 8703.23,0.979 9368.65,0.783c-302.042,7.221 -603.709,112.496 -847.417,304.862c-222.25,175.442 -470.958,576.663 -471.958,907.892c-0.626,198.992 61.041,460.83 -21.834,633.75c-80.125,167.184 -210.083,286.975 -319.083,433.758c-24.25,32.609 -49.75,69.109 -48.542,110.926c3.709,128.791 226.584,128.4 243.25,255.983c12.292,94.125 -105.541,165.666 -91.417,259.492c11.792,78.387 102.334,104.354 175.251,113.262c-82.542,4.192 -139.542,120.516 -96.459,196.837c13.209,23.426 33.084,41.876 45.917,65.534c43.041,79.129 -5.083,179.321 2.583,270.754c11.917,142.071 120.75,216.942 247.584,255.692c18.458,5.646 42.792,11.508 70.791,17.55l0.459,-1.975c108.624,26.062 329.25,57.816 414.208,83.762c126.833,38.733 235.625,113.621 247.541,255.692c7.668,91.429 -40.416,191.637 2.584,270.762c12.875,23.667 32.709,42.084 45.917,65.542c43.083,76.292 -13.917,192.625 -96.459,196.833c72.917,8.917 163.459,34.875 175.25,113.25c14.125,93.834 -103.708,165.375 -91.417,259.5c16.667,127.584 239.543,127.167 243.25,255.959c1.209,41.833 -24.291,78.333 -48.541,110.958c-109,146.75 -238.959,266.542 -319.083,433.75c-82.876,172.917 -21.209,434.75 -21.834,633.75c-1,331.208 -249.708,732.458 -471.958,907.875c-268.333,211.833 -719.375,326.625 -945.334,296.792c-6.916,1.833 -44.916,3.5 -109.875,4.958l8120.71,0l0,-7714.48l-15402.7,-0Z" style="fill:#72a8a0;fill-rule:nonzero;"/><path d="M-905.821,1.017c67.458,0.008 8703.24,0.979 9368.65,0.783c-302.041,7.221 -603.708,112.496 -847.417,304.862c-222.249,175.442 -470.957,576.663 -471.957,907.892c-0.626,198.992 61.041,460.83 -21.834,633.75c-80.125,167.184 -210.083,286.975 -319.083,433.758c-24.25,32.609 -49.75,69.109 -48.542,110.926c3.708,128.791 226.583,128.4 243.25,255.983c12.292,94.125 -105.542,165.666 -91.417,259.492c11.792,78.387 102.334,104.354 175.25,113.262c-82.541,4.192 -139.541,120.516 -96.458,196.837c13.208,23.426 33.042,41.876 45.916,65.534c43.001,79.129 -5.083,179.321 2.584,270.754c11.917,142.071 120.709,216.942 247.542,255.692c18.5,5.646 42.833,11.508 70.833,17.55l0.458,-1.975c108.625,26.062 329.209,57.816 414.167,83.762c126.875,38.733 235.667,113.621 247.583,255.692c7.667,91.429 -40.458,191.637 2.584,270.762c12.833,23.667 32.708,42.084 45.917,65.542c43.083,76.292 -13.917,192.625 -96.459,196.833c72.917,8.917 163.458,34.875 175.25,113.25c14.125,93.834 -103.709,165.375 -91.417,259.5c16.667,127.584 239.542,127.167 243.25,255.959c1.208,41.833 -24.292,78.333 -48.541,110.958c-109,146.75 -238.959,266.542 -319.083,433.75c-82.876,172.917 -21.209,434.75 -21.834,633.75c-1,331.208 -249.708,732.458 -471.958,907.875c-268.334,211.833 -719.375,326.625 -945.334,296.792c-6.916,1.833 -44.958,3.5 -109.875,4.958l8120.71,0l-0,-7714.48l-15402.7,-0Z" style="fill:#428f95;fill-rule:nonzero;"/><path d="M226.95,1.017c67.458,0.008 8703.26,0.979 9368.63,0.783c-302,7.221 -603.708,112.496 -847.374,304.862c-222.292,175.442 -470.959,576.663 -472.001,907.892c-0.625,198.992 61.042,460.83 -21.833,633.75c-80.084,167.184 -210.042,286.975 -319.083,433.758c-24.209,32.609 -49.75,69.109 -48.542,110.926c3.708,128.791 226.625,128.4 243.292,255.983c12.291,94.125 -105.542,165.666 -91.417,259.492c11.792,78.387 102.333,104.354 175.208,113.262c-82.541,4.192 -139.542,120.516 -96.458,196.837c13.25,23.426 33.083,41.876 45.958,65.534c43,79.129 -5.083,179.321 2.583,270.754c11.918,142.071 120.709,216.942 247.542,255.692c18.501,5.646 42.792,11.508 70.834,17.55l0.416,-1.975c108.663,26.062 329.251,57.816 414.209,83.762c126.833,38.733 235.625,113.621 247.541,255.692c7.667,91.429 -40.417,191.637 2.584,270.762c12.875,23.667 32.708,42.084 45.958,65.542c43.083,76.292 -13.917,192.625 -96.459,196.833c72.875,8.917 163.418,34.875 175.209,113.25c14.125,93.834 -103.708,165.375 -91.417,259.5c16.667,127.584 239.584,127.167 243.292,255.959c1.208,41.833 -24.333,78.333 -48.542,110.958c-109.041,146.75 -239,266.542 -319.083,433.75c-82.875,172.917 -21.208,434.75 -21.834,633.75c-1.041,331.208 -249.708,732.458 -472.004,907.875c-268.329,211.833 -719.329,326.625 -945.329,296.792c-6.875,1.833 -44.916,3.5 -109.833,4.958l8120.71,0l-0,-7714.48l-15402.8,-0Z" style="fill:#0d4c64;fill-rule:nonzero;"/></g></svg>