<?xml version="1.0" encoding="UTF-8" standalone="no"?><!DOCTYPE svg PUBLIC "-//W3C//DTD SVG 1.1//EN" "http://www.w3.org/Graphics/SVG/1.1/DTD/svg11.dtd"><svg width="100%" height="100%" viewBox="0 0 1479 2084" version="1.1" xmlns="http://www.w3.org/2000/svg" xmlns:xlink="http://www.w3.org/1999/xlink" xml:space="preserve" xmlns:serif="http://www.serif.com/" style="fill-rule:evenodd;clip-rule:evenodd;stroke-linejoin:round;stroke-miterlimit:2;"><g><g><path d="M884.12,1243.74l0,-0.239c14.036,-0.326 28.16,-0.659 42.282,-1.002c1.454,-0.035 2.822,-0.127 4.192,-0.3c4.281,-0.522 8.389,-1.214 11.898,-3.895c2.395,-1.762 5.135,-2.403 7.959,-2.473c4.279,-0.111 8.558,0.378 12.666,-0.256c16.092,-2.457 32.011,-5.187 48.014,-7.968c3.511,-0.608 6.849,-1.874 10.273,-2.747c3.338,-0.864 6.76,-1.848 10.269,-2.38c10.443,-1.574 20.884,-3.484 31.411,-4.254c11.384,-0.83 22.168,-4.125 33.295,-5.871c3.508,-0.549 7.017,-0.924 10.527,-1.3c4.193,-0.454 8.387,-1.319 12.239,-3.038c6.589,-2.886 13.437,-4.417 20.625,-4.127c11.554,0.481 18.059,-6.47 23.195,-15.457c1.37,-2.447 2.654,-5.014 3.594,-7.668c4.452,-12.684 7.79,-25.652 8.73,-39.114c0.087,-1.395 0.087,-2.876 -0.256,-4.203c-0.341,-1.3 -0.941,-2.857 -1.968,-3.568c-0.943,-0.711 -2.911,-1.122 -3.938,-0.616c-12.068,6.119 -25.076,9.286 -38.258,11.87c-2.054,0.403 -4.194,0.736 -6.162,1.516c-11.125,4.441 -22.338,8.66 -33.293,13.66c-7.703,3.552 -15.492,6.573 -23.793,8.473c-8.302,1.882 -16.519,3.8 -24.735,5.811c-13.095,3.201 -26.276,5.281 -39.798,5.247c-3.511,-0.009 -7.103,0.359 -10.441,1.267c-8.303,2.241 -16.692,2.73 -25.165,3.046c-5.647,0.197 -11.382,0.086 -16.86,1.268c-18.744,4.046 -37.744,4.492 -56.831,3.816c-13.436,-0.462 -26.788,-0.205 -40.226,0.222c-10.527,0.335 -21.141,1.405 -31.668,2.148c-12.665,0.89 -25.419,1.147 -37.828,4.014c-2.74,0.635 -5.649,0.694 -8.473,0.805c-11.298,0.446 -22.425,2.517 -33.293,5.581c-9.673,2.739 -19.344,3.739 -29.273,3.414c-9.242,-0.308 -18.401,0.027 -27.388,1.865c-4.878,0.986 -9.927,1.011 -14.806,-0.119c-8.302,-1.924 -16.689,-2.027 -25.249,-2.062c-11.211,-0.043 -22.509,-0.951 -33.806,-1.011c-11.306,-0.067 -22.595,0.43 -33.901,0.686c-0.678,0.017 -1.362,0.025 -2.054,-0.026c-10.606,-0.641 -21.133,-0.582 -31.746,0.035c-10.526,0.608 -21.139,0.135 -31.753,-0.035c-3.508,-0.06 -7.111,-0.317 -10.527,-1.122c-7.617,-1.805 -15.32,-2.241 -23.109,-2.446c-10.527,-0.275 -21.054,-0.849 -31.495,-3.451c-4.022,-1.017 -8.387,-1.017 -12.582,-1.13c-4.965,-0.144 -9.843,0.181 -14.808,0.13c-4.963,-0.06 -9.927,-0.171 -14.633,-1.866c-5.392,-1.935 -10.957,-2.61 -16.606,-3.099c-6.332,-0.547 -12.581,-1.565 -18.83,-2.944c-15.149,-3.346 -30.125,-7.062 -44.163,-14.122c-9.5,-4.81 -24.906,-9.321 -36.031,-11.571c-1.284,-0.256 -2.483,0.804 -3.167,2.217c-0.343,0.565 -0.257,1.378 -0.171,2.027c2.482,11.041 3.938,22.193 4.022,33.525c0,2.833 0.514,5.649 1.711,8.209c2.997,5.905 7.19,10.578 13.609,12.589c13.524,4.219 27.303,7.352 40.568,12.017c1.37,0.454 2.74,0.735 4.108,0.94c9.073,1.311 18.146,3.184 27.219,3.733c18.485,1.121 36.374,4.4 53.662,11.006c1.37,0.497 2.654,1.045 4.024,1.345c2.054,0.444 4.194,1.027 6.246,0.965c12.07,-0.367 23.881,2.003 35.939,1.43c8.473,-0.402 16.957,-0.333 25.343,-0.324c8.56,0.016 17.033,-0.419 25.334,-2.311c6.932,-1.584 13.865,-1.978 20.96,-1.865c4.281,0.067 8.559,0.503 12.676,0.008c11.973,-1.43 23.965,-0.857 35.946,-0.317c13.43,0.598 26.704,2.541 39.799,5.298c6.248,1.308 12.411,1.943 18.83,1.984c7.103,0.043 14.035,-0.281 21.054,-1.181c7.703,-0.992 15.49,-1.908 23.195,-2.284c11.982,-0.581 23.879,-2.713 35.861,-1.703c2.054,0.171 4.279,-0.292 6.333,-0.762c6.248,-1.43 12.497,-1.824 18.916,-1.762c9.841,0.092 19.684,-1.354 29.612,-0.514c3.424,0.29 7.019,-0.462 10.527,-0.967c4.195,-0.6 8.387,-0.695 12.668,-0.617c4.878,0.076 9.927,0.052 14.722,-0.634c9.157,-1.292 18.314,-1.377 27.473,-1.428c9.157,-0.051 18.401,-0.018 27.558,-0.018Zm512.842,-595.272c-0.257,-11.955 -0.6,-21.13 -0.686,-30.314c-0.084,-7.06 0.343,-14.122 0.343,-21.182c0,-8.473 -0.086,-16.946 -0.257,-25.43c-0.17,-6.349 -0.256,-12.752 -1.197,-19.009c-1.37,-9.114 -1.97,-18.246 -2.225,-27.422c-0.343,-14.19 -3.51,-27.995 -5.478,-41.971c-0.257,-2.081 -0.857,-4.152 -1.541,-6.146c-5.564,-16.004 -10.1,-32.301 -15.064,-48.485c-2.652,-8.765 -6.163,-17.271 -9.242,-25.907c-1.2,-3.356 -3.081,-6.343 -5.051,-9.278c-7.103,-10.492 -14.206,-20.995 -19.428,-32.72c-2.824,-6.437 -6.589,-12.487 -10.186,-18.557c-2.138,-3.627 -4.706,-7.025 -7.189,-10.406c-8.987,-11.829 -18.999,-22.835 -27.388,-35.057c-7.275,-10.63 -16.519,-19.257 -26.276,-27.379c-3.765,-3.149 -7.787,-6.087 -11.638,-9.149c-6.076,-4.827 -12.068,-9.706 -17.203,-15.603c-5.136,-5.795 -11.298,-10.69 -17.033,-15.895c-2.141,-1.881 -4.365,-3.706 -6.676,-5.187c-6.59,-4.081 -13.352,-7.976 -20.027,-11.93c-3.252,-1.916 -6.676,-2.165 -10.101,-0.641c-3.851,1.711 -7.616,3.842 -11.468,5.46c-1.881,0.787 -4.108,1.13 -6.248,1.146c-7.617,0.103 -13.607,-2.413 -16.944,-10.046c-2.055,-4.665 -3.511,-9.176 -2.57,-14.268c0.257,-1.37 0.343,-2.792 0.257,-4.16c-0.171,-2.2 -1.284,-3.929 -2.909,-5.41c-3.681,-3.431 -8.216,-5.69 -12.924,-7.035c-12.239,-3.509 -24.307,-7.282 -35.434,-13.763c-3.594,-2.095 -7.873,-3.141 -11.897,-4.381c-12.838,-3.903 -25.59,-7.952 -38.515,-11.425c-13.008,-3.468 -26.017,-6.411 -39.112,-9.381c-4.194,-0.951 -8.216,-2.133 -12.068,-3.86c-11.04,-4.922 -23.024,-6.762 -34.749,-8.979c-11.041,-2.097 -22.338,-3.005 -33.55,-4.578c-4.194,-0.592 -8.302,-1.465 -12.41,-2.422c-7.617,-1.764 -15.063,-4.143 -22.682,-5.435c-8.301,-1.405 -16.774,-1.789 -25.076,-3.878c-16.861,-0.752 -33.807,-1.514 -50.753,-2.26c-12.668,1.806 -25.336,1.181 -38.087,1.446c-3.509,0.078 -7.104,-0.092 -10.528,0.719c-8.986,2.167 -18.144,2.619 -27.303,3.184c-4.963,0.3 -9.841,0.968 -14.635,2.414c-7.531,2.294 -15.234,2.748 -23.023,2.713c-16.946,-0.068 -33.892,0.481 -50.753,-1.892c-3.51,-0.478 -7.103,-0.289 -10.613,-0.667c-11.306,-1.222 -22.509,-0.471 -33.731,1.13c-5.638,0.813 -11.116,1.824 -16.165,4.613c-5.051,2.781 -10.357,4.451 -16.016,5.162c-1.444,0.179 -2.814,0.565 -4.193,0.898c-14.37,3.518 -28.757,6.899 -43.641,7.259c-9.244,0.222 -18.325,2.268 -27.055,5.168c-10.698,3.57 -21.397,7.173 -31.744,11.684c-18.744,8.181 -37.401,16.587 -55.802,25.709c-3.083,1.575 -6.078,3.475 -9.073,5.351c-2.997,1.873 -5.735,4.219 -8.902,5.803c-9.414,4.827 -18.058,10.954 -27.131,16.492c-9.073,5.579 -17.289,12.093 -24.392,20.06c-2.825,3.203 -5.906,6.155 -9.587,8.235c-8.643,4.852 -16.346,11.101 -24.392,16.75c-9.328,6.513 -18.571,12.727 -24.563,22.773c-1.455,2.354 -3.852,4.152 -5.906,6.087c-4.622,4.365 -8.9,9.011 -12.495,14.344c-1.884,2.902 -4.281,5.572 -6.676,8.105c-3.081,3.167 -4.965,6.779 -5.992,11.033c-0.427,2.037 -1.027,4.176 -2.14,5.922c-4.878,7.762 -9.319,15.978 -16.8,21.619c-7.479,5.641 -13.301,12.711 -18.231,20.43c-3.483,5.452 -7.505,10.262 -12.298,14.43c-5.94,5.162 -10.835,11.084 -14.619,17.965c-3.414,6.231 -7.608,11.922 -12.614,16.947c-4.511,4.527 -8.149,9.679 -11.94,14.789c-5.06,6.804 -9.833,13.788 -14.457,20.893c-3.85,5.905 -7.668,11.913 -12.195,17.287c-4.195,5 -6.787,10.538 -9.073,16.546c-4.519,11.87 -8.447,23.971 -13.976,35.45c-1.214,2.516 -2.003,5.262 -2.714,7.976c-0.898,3.424 -1.43,6.924 -2.251,10.356c-2.463,10.279 -4.476,20.72 -7.917,30.709c-3.457,10.039 -6.495,20.131 -8.319,30.59c-1.087,6.265 -2.046,12.571 -3.73,18.682c-1.908,6.892 -2.603,13.824 -2.962,20.901c-0.53,10.554 0.127,21.208 -2.406,31.633c-0.497,2.021 -0.497,4.221 -0.41,6.326c0.521,13.428 -0.641,26.815 -1.011,40.21c-0.273,9.892 -0.871,19.752 -2.755,29.501c-1.497,7.746 -0.651,15.362 0.539,23.143c2.226,14.627 6.419,28.936 6.967,43.847c0.068,2.087 0.719,4.16 1.165,6.222c1.376,6.205 2.908,12.376 4.151,18.606c2.063,10.416 4.552,20.66 8.925,30.409c1.438,3.202 2.424,6.633 3.338,10.04c3.133,11.571 5.898,23.245 10.306,34.44c0.77,1.943 1.154,4.091 1.421,6.189c1.925,14.824 7.419,28.679 11.93,42.768c3.022,9.379 6.898,18.538 11.041,27.49c5.341,11.511 11.365,22.725 18.881,33.012c7.506,10.262 17.425,18.495 24.598,29.082c1.557,2.311 3.833,4.126 5.82,6.137c0.992,1.001 2.089,1.909 3.089,2.901c6.497,6.489 12.711,13.197 18.752,20.138c8.781,10.108 17.298,20.482 26.508,30.222c10.681,11.263 20.866,22.99 32.847,32.942c5.222,4.262 11.041,6.129 17.374,7.267c1.456,0.265 4.965,-1.481 5.394,-2.713c2.225,-5.965 4.106,-11.922 3.593,-18.487c-1.027,-13.387 -2.225,-26.779 -2.395,-40.182c-0.087,-12.695 0.513,-25.404 0.256,-38.114c-0.172,-4.963 0.428,-9.92 2.311,-14.541c1.968,-4.69 2.482,-9.568 2.311,-14.525c-0.6,-19.771 0.084,-39.531 -0.429,-59.302c-0.428,-16.938 0.172,-33.893 0.513,-50.839c0.087,-4.94 0.6,-9.87 1.114,-14.781c1.54,-15.457 3.338,-30.882 4.792,-46.347c1.199,-11.947 2.054,-23.904 5.137,-35.579c0.684,-2.712 1.027,-5.579 1.027,-8.387c0.255,-19.839 4.193,-39.301 6.503,-58.918c1.114,-9.817 2.311,-19.625 2.741,-29.495c0.597,-11.998 1.795,-23.93 3.422,-35.834c2.397,-16.776 5.306,-33.482 6.846,-50.368c0.514,-5.616 1.284,-11.222 1.797,-16.844c0.514,-6.343 1.457,-12.59 2.741,-18.83c2.481,-11.725 4.535,-23.555 6.846,-35.322c4.622,-24.247 9.5,-48.469 15.235,-72.492c2.995,-12.351 6.676,-24.538 9.328,-36.957c1.713,-8.336 4.194,-16.39 6.762,-24.471c3.595,-11.425 7.362,-22.825 10.527,-34.388c1.884,-6.856 3.938,-13.565 6.847,-20.002c7.532,-16.707 14.978,-33.526 22.938,-50.051c4.279,-8.876 9.5,-17.324 14.549,-25.806c4.108,-6.94 12.24,-10.176 20.114,-8.532c0.684,0.137 1.456,0.23 2.054,0.419c6.848,1.927 13.686,3.724 20.027,6.856c10.185,4.99 20.447,9.593 30.385,15.088c6.846,3.818 13.779,7.045 21.311,9.116c7.617,2.097 14.379,5.649 20.455,10.638c3.338,2.654 6.933,4.87 10.613,7.062c16.852,10.209 33.969,20.06 50.497,30.931c7.702,5.067 16.005,8.987 24.392,12.822c2.568,1.205 5.392,1.694 8.208,1.419c2.833,-0.265 5.563,-0.906 8.397,-1.214c14.036,-1.508 27.985,-3.776 42.194,-2.835c2.14,0.146 4.278,0.035 6.333,-0.273c9.843,-1.411 19.6,-2.943 29.357,-4.416c3.51,-0.53 6.932,-1.37 10.441,-1.463c12.754,-0.335 25.335,-2.115 37.917,-3.8c9.157,-1.216 18.316,-2.311 27.473,-1.216c16.947,2.011 33.807,-0.976 50.753,-0.959c2.054,-0 4.194,-0.547 6.249,-1.019c10.441,-2.352 20.968,-2.781 31.581,-2.524c5.649,0.145 11.298,0.47 16.947,0.188c9.927,-0.513 19.771,0.146 29.614,1.422c2.054,0.273 4.192,0.624 6.333,0.657c6.419,0.087 12.495,-1 17.544,-5.776c4.621,-4.357 9.672,-8.225 14.551,-12.273c6.59,-5.409 12.752,-11.16 17.887,-18.009c6.849,-9.062 14.806,-17.049 23.366,-24.511c2.054,-1.857 4.365,-3.578 6.248,-5.692c7.019,-8.138 15.492,-14.447 24.477,-20.019c14.465,-8.952 27.732,-19.506 41.341,-29.588c1.711,-1.267 3.338,-2.524 5.133,-3.722c0.516,-0.394 1.2,-0.643 1.884,-0.856c5.648,-1.892 11.47,-1.754 16.346,1.37c5.308,3.406 10.271,7.395 15.492,11.065c2.225,1.592 4.108,3.895 5.649,6.214c5.049,7.678 9.843,15.492 16.605,21.841c5.392,8.26 11.555,15.903 14.12,25.849c1.713,6.787 4.708,13.274 8.303,19.403c2.227,3.765 3.338,7.771 3.508,12.076c0.257,9.971 2.654,19.574 5.392,29.082c1.2,4.057 2.741,8.019 4.281,11.982c2.225,6.043 3.166,12.273 2.738,18.711c-0.77,14.138 0.257,28.141 2.825,42.082c0.856,4.827 1.197,9.808 1.283,14.73c0.344,9.184 0.257,18.368 0.344,27.542c0.086,2.842 0.597,5.615 1.624,8.267c4.708,11.965 6.762,24.436 7.105,37.223c0.171,4.93 0,9.878 0.085,14.816c0.513,28.944 -1.625,57.839 -1.711,86.786c-0,4.219 -0.257,8.498 -0.941,12.657c-1.541,9.125 -1.627,18.274 -1.457,27.466c0.087,4.237 0.43,8.489 0.087,12.71c-1.625,21.834 -1.198,43.753 -2.652,65.594c-0.772,11.99 -1.284,23.922 1.197,35.793c0.598,2.757 0.771,5.622 0.857,8.438c0.257,9.887 0.598,19.857 -1.884,29.495c-1.626,6.238 -2.481,12.409 -2.567,18.795c-0.173,8.482 -0.343,16.955 -0.771,25.42c-0.086,3.5 -0.17,7.119 -1.113,10.476c-2.395,8.943 -3.251,18.041 -3.681,27.225c-0.257,3.516 -0.17,7.119 -0.941,10.535c-2.567,11.733 -2.054,23.939 -5.392,35.561c-0.597,1.994 -0.597,4.194 -0.684,6.3c-1.54,24.657 -3.681,49.282 -3.937,74.007c-0.087,6.351 0.17,12.727 -0.257,19.06c-1.111,15.57 0.17,31.044 1.284,46.536c0.086,2.07 0.513,4.244 1.37,6.111c0.513,1 2.224,2.003 3.338,2.011c2.908,0.025 5.392,-1.532 7.789,-3.048c15.404,-9.971 29.955,-21.115 44.077,-32.969c12.411,-10.5 24.306,-21.533 34.236,-34.498c2.138,-2.792 4.619,-5.333 7.016,-7.884c6.42,-6.649 12.241,-13.728 17.717,-21.114c5.051,-6.806 9.928,-13.72 15.063,-20.439c14.808,-19.249 25.676,-40.482 32.095,-63.909c0.6,-2.044 1.284,-4.065 1.8,-6.111c2.308,-8.892 5.562,-17.501 9.241,-25.898c5.992,-13.574 11.897,-27.182 19.087,-40.158c2.74,-4.93 5.392,-9.962 7.789,-15.046c4.365,-8.927 8.13,-18.152 9.843,-27.909c1.795,-10.408 5.392,-20.482 5.819,-31.171c0.171,-3.476 1.369,-6.908 2.139,-10.349c3.253,-15.225 5.221,-30.571 5.564,-46.201c0.514,-23.295 1.541,-46.585 0.257,-67.118Zm-1088.42,446.119c-0.257,0.008 -0.43,0.008 -0.684,0.016c-0,4.93 -0.259,9.877 0.084,14.79c0.343,5.641 1.027,11.246 0.257,16.903c-0.171,1.378 -0.171,2.859 0.172,4.211c1.368,6.206 2.652,12.411 4.279,18.538c0.513,1.978 1.797,3.86 3.851,4.803c2.652,1.138 5.135,2.67 7.789,3.268c9.071,2.029 17.374,5.727 25.418,10.246c2.483,1.37 5.137,2.508 7.875,3.089c10.355,2.225 20.285,6.128 31.153,5.803c4.878,-0.146 9.757,0.924 14.551,2.346c4.108,1.206 8.217,2.251 12.325,3.038c2.738,0.513 5.733,1.043 8.387,0.538c9.927,-1.882 19.686,-1.206 29.357,1.61c0.684,0.187 1.37,0.249 2.054,0.352c28.073,3.97 56.223,5.014 84.475,5.143c1.454,0.008 2.816,-0.172 4.279,-0.359c7.703,-0.994 15.484,-0.822 23.195,-0.403c10.603,0.59 21.217,0.651 31.752,0.017c9.919,-0.582 19.857,-0.428 29.614,1.318c6.333,1.122 12.495,1.095 18.82,-0.394c5.573,-1.317 11.308,-0.822 16.784,0.557c7.019,1.746 13.951,2.148 21.054,1.035c6.333,-0.992 12.582,-1.138 19.001,-0.162c7.019,1.078 14.036,0.488 20.97,-1.327c15.063,-3.928 30.383,-6.179 45.704,-8.568c4.193,-0.649 8.473,-0.906 12.579,-1.968c17.204,-4.484 34.836,-5.53 52.466,-6.333c18.317,-0.84 36.717,-1.251 55.034,-1.713c12.668,-0.316 25.419,-0.238 37.915,-3.081c2.054,-0.462 4.194,-0.411 6.332,-0.641c14.722,-1.66 29.444,-3.252 44.079,-5.562c14.636,-2.322 29.358,-3.998 43.907,-7.046c13.779,-2.892 27.558,-5.819 41.423,-8.763c1.37,-0.291 2.74,-0.745 4.024,-1.216c9.33,-3.295 18.744,-6.273 27.901,-10.038c11.127,-4.606 22.509,-8.124 34.492,-9.776c8.558,-1.181 16.261,-4.613 23.45,-9.319c1.884,-1.241 2.997,-3.065 3.254,-5.162c0.427,-2.765 0.513,-5.606 0.513,-8.422c0,-19.06 -0.343,-38.112 0.341,-57.18c0.686,-19.044 0.773,-38.112 3.511,-57.036c0.599,-4.185 0.599,-8.447 1.027,-12.658c0.684,-6.316 1.197,-12.659 2.311,-18.908c1.283,-7.703 1.711,-15.414 1.881,-23.193c0.257,-13.411 0.516,-26.832 1.027,-40.227c0.343,-7.763 1.027,-15.482 0.43,-23.263c-0.257,-3.492 -0.257,-7.128 0.427,-10.544c2.567,-13.206 3.167,-26.592 4.024,-39.968c1.795,-28.185 3.081,-56.386 3.508,-84.63c0,-3.51 0.341,-7.062 0.941,-10.519c1.797,-9.765 2.227,-19.625 2.227,-29.519c0.084,-7.052 0.511,-14.106 0.684,-21.166c0.086,-4.938 0.086,-9.876 0.086,-14.816c-0.086,-7.052 -0.343,-14.103 -0.259,-21.165c0.259,-19.052 0.686,-38.112 1.027,-57.164c0,-2.824 0.086,-5.657 -0.084,-8.473c-0.943,-14.79 -1.027,-29.631 -3.168,-44.342c-1.027,-7.011 -1.881,-14.019 0.43,-20.987c0.427,-1.319 0.511,-2.816 0.427,-4.203c-1.2,-13.36 -0.257,-26.806 -1.884,-40.166c-1.711,-13.308 -2.908,-26.66 -4.365,-39.995c-1.624,-14.722 -2.908,-29.468 -5.135,-44.137c-1.37,-9.175 -3.424,-17.948 -7.36,-26.354c-3.251,-7.035 -6.162,-14.249 -7.875,-21.866c-1.027,-4.948 -3.338,-9.243 -6.419,-13.216c-4.365,-5.622 -7.703,-11.741 -9.841,-18.606c-1.284,-4.005 -3.766,-7.514 -6.847,-10.579c-3.51,-3.483 -6.848,-7.146 -10.186,-10.74c-5.392,-5.658 -11.125,-10.828 -17.46,-15.398c-2.395,-1.781 -5.392,-1.968 -8.046,-0.951c-3.251,1.251 -6.676,2.697 -9.328,4.846c-11.04,8.773 -23.194,16.208 -32.352,27.19c-1.37,1.618 -2.995,3.056 -4.621,4.297c-10.871,8.003 -20.884,16.903 -29.957,26.814c-1.455,1.557 -2.995,3.038 -4.706,4.306c-9.16,6.813 -16.006,15.892 -23.366,24.408c-3.681,4.263 -6.762,9.065 -10.186,13.541c-1.711,2.233 -3.509,4.408 -5.476,6.403c-3.595,3.576 -7.79,6.049 -12.925,6.708c-6.333,0.797 -12.581,1.576 -18.914,2.611c-6.249,1.054 -12.581,1.524 -18.914,1.284c-11.984,-0.454 -24.052,0.222 -35.949,-1.832c-4.192,-0.719 -8.473,-0.649 -12.666,0.267c-9.073,2.019 -18.23,2.079 -27.387,1.736c-7.105,-0.265 -14.124,-0.144 -21.057,1.378c-7.103,1.559 -14.035,1.446 -20.968,-0.308c-6.162,-1.549 -12.409,-2.097 -18.914,-1.584c-7.703,0.608 -15.492,0.813 -23.195,-1.035c-1.968,-0.487 -4.195,-0.265 -6.249,0.129c-7.703,1.489 -15.403,1.771 -23.193,1.506c-3.594,-0.128 -7.018,0.462 -10.441,1.67c-10.015,3.636 -20.37,4.954 -30.984,5.673c-7.703,0.514 -15.492,0.573 -23.195,0.933c-5.733,0.257 -11.295,1.208 -16.517,3.621c-3.167,1.481 -6.333,3.055 -9.67,4.193c-3.34,1.14 -6.763,2.013 -10.195,2.551c-3.5,0.54 -7.095,0.573 -10.614,0.762c-4.364,0.214 -8.643,-0.625 -11.811,-3.603c-7.779,-7.173 -17.022,-12.59 -24.384,-20.344c-2.403,-2.535 -5.219,-4.767 -8.214,-6.548c-9.757,-5.744 -19.001,-12.274 -29.187,-17.125c-7.103,-3.338 -13.608,-7.473 -19.941,-11.976c-5.222,-3.671 -10.698,-6.854 -16.263,-9.892c-8.054,-4.408 -16.176,-8.808 -24.476,-12.625c-10.281,-4.716 -20.893,-8.738 -32.268,-9.662c-3.689,-0.3 -7.103,0.513 -9.157,3.911c-4.795,7.83 -9.844,15.473 -13.525,23.965c-1.624,3.851 -3.849,7.557 -6.332,10.946c-4.622,6.36 -8.301,13.146 -10.185,20.79c-1.199,4.835 -3.081,9.387 -5.308,13.787c-1.624,3.132 -3.508,6.17 -4.878,9.397c-3.679,8.398 -7.96,16.587 -9.757,25.66c-1.625,8.344 -4.279,16.382 -6.933,24.417c-3.165,9.355 -5.733,18.874 -7.359,28.663c-1.968,11.103 -3.936,22.314 -8.131,32.833c-2.397,6.076 -3.51,12.179 -3.424,18.582c0.257,10.732 -2.481,20.968 -5.049,31.23c-0.513,2.054 -1.54,3.979 -1.97,6.033c-2.224,10.314 -5.905,20.406 -5.562,31.155c0.513,18.522 -2.738,36.563 -6.762,54.493c-1.198,5.589 -1.882,11.109 -1.882,16.768c0.084,8.463 0.171,16.946 0.084,25.419c0,4.938 -0.513,9.841 -1.967,14.636c-5.306,16.946 -7.788,34.363 -8.474,52.071c-0.256,4.93 -0.77,9.842 -1.37,14.755c-0.684,5.597 -0.941,11.298 -2.908,16.655c-4.195,11.408 -5.649,23.281 -6.163,35.314c-0.343,9.954 -1.711,19.692 -4.964,29.1c-3.595,10.133 -4.793,20.582 -4.879,31.239c0,6.36 0.086,12.709 -0.086,19.06c-0.084,3.527 -0.171,7.07 -0.598,10.562c-1.027,8.404 -1.968,16.817 -3.424,25.163c-3.681,21.722 -4.879,43.444 -1.198,65.302c0.6,3.467 0.6,7.07 -0.513,10.495c-1.541,4.757 -1.114,9.876 -2.484,14.575c-1.54,5.682 -0.254,11.22 -0.513,16.801c-0.084,2.824 -0.171,5.692 -0.855,8.414c-2.311,9.773 -2.054,19.581 -0.94,29.466c0.513,4.178 0.513,8.432 0.684,12.651Zm868.543,788.193c-0.941,-21.32 -0.428,-44.642 -2.225,-67.897c-0.17,-2.113 -0.257,-4.243 -0.686,-6.316c-2.652,-13.984 -2.138,-28.133 -2.225,-42.245c-0.086,-19.771 0.087,-39.552 0.087,-59.331c-0.087,-7.078 0.427,-14.095 1.111,-21.13c0.943,-9.133 1.456,-18.3 2.054,-27.457c0.516,-7.771 0.429,-15.544 -0.427,-23.271c-1.541,-13.335 -2.054,-26.73 -2.911,-40.115c-0.341,-4.913 -0.768,-9.911 -1.881,-14.654c-1.627,-6.23 -2.227,-12.479 -2.568,-18.854c-0.686,-14.087 -0.857,-28.218 -3.081,-42.204c-0.77,-32.455 -3.852,-64.891 -0.427,-97.354c0.17,-1.405 0.341,-2.825 0.341,-4.222c-0.598,-16.278 1.37,-32.444 1.967,-48.672c0.087,-3.51 0.343,-7.148 -0.341,-10.545c-3.167,-16.065 -2.74,-32.326 -2.91,-48.553c-0.085,-1.413 -0,-2.825 0.086,-4.238c0.084,-4.254 -0.257,-8.489 -1.454,-12.573c-1.627,-5.495 -1.884,-11.117 -2.054,-16.774c-0.259,-10.587 -0.6,-21.184 -0.857,-31.771c-0.17,-5.683 -1.027,-11.262 -3.252,-16.543c-1.113,-2.706 -3.167,-4.554 -6.164,-5.127c-7.103,-1.352 -14.036,-1.36 -20.796,1.54c-2.654,1.105 -5.392,1.806 -8.046,2.714c-4.024,1.359 -8.13,2.302 -12.411,2.319c-7.873,0.026 -15.492,1.351 -23.108,2.859c-4.879,0.968 -9.757,1.617 -14.722,1.968c-4.963,0.351 -9.757,1.216 -14.377,2.911c-7.362,2.619 -15.235,2.781 -22.681,5.305c-7.36,2.492 -14.979,4.074 -22.509,6.138c-4.708,1.317 -9.5,2.284 -14.465,2.814c-4.194,0.438 -8.389,1.259 -12.411,2.508c-8.301,2.568 -16.774,3.073 -25.163,1.832c-13.438,-1.994 -26.787,-1.437 -40.141,0.403c-18.914,2.627 -37.999,2.96 -57.001,4.492c-1.368,0.111 -2.825,0.224 -4.193,0.138c-11.297,-0.676 -22.595,-0.343 -33.722,2.259c-9.843,0.325 -19.685,0.744 -29.614,0.949c-15.49,0.343 -30.982,0.446 -46.558,0.865c-4.195,0.111 -8.387,1.046 -12.582,1.489c-2.824,0.292 -5.735,0.984 -8.387,0.43c-6.419,-1.387 -12.583,-0.3 -18.83,0.854c-8.389,1.533 -16.776,2.74 -25.162,3.741c-11.214,1.343 -22.509,1.197 -33.817,0.916c-2.816,-0.078 -5.554,-0.873 -8.293,-1.473c-4.878,-1.052 -9.757,-2.046 -14.465,-3.346c-6.846,-1.884 -13.865,-2.757 -20.968,-2.9c-3.519,-0.078 -7.019,-0.284 -10.527,-0.73c-5.657,-0.727 -11.211,-0.024 -16.86,0.241c-13.533,0.643 -26.619,3.167 -39.714,6.281c-10.355,2.475 -20.806,3.938 -31.504,3.235c-4.195,-0.273 -8.473,-0.23 -12.66,0.224c-6.332,0.684 -12.667,0.308 -19,-0.71c-10.441,-1.703 -20.892,-3.433 -31.239,-5.384c-3.508,-0.641 -6.848,-1.909 -10.1,-3.125c-5.992,-2.208 -11.981,-4.286 -18.144,-5.956c-4.794,-1.284 -9.5,-2.636 -14.465,-2.884c-3.508,-0.163 -7.103,-0.333 -10.441,-1.627c-5.392,-2.122 -11.041,-2.284 -16.689,-2.114c-5.649,0.162 -11.298,-0.573 -16.606,-2.652c-3.338,-1.294 -6.76,-2.346 -10.27,-2.311c-7.188,0.076 -14.036,-1.618 -20.882,-3.167c-2.74,-0.608 -5.563,-0.462 -8.387,-0.557c-2.827,-0.076 -5.822,2.141 -6.335,4.587c-2.225,9.638 -4.622,19.233 -6.419,28.922c-1.198,6.23 -1.797,12.581 -2.225,18.906c-0.77,11.279 -1.027,22.577 -3.51,33.679c-0.598,2.722 -0.684,5.614 -0.684,8.422c-0,12.717 -1.711,25.368 -0.941,38.103c0.343,4.895 -0.684,9.86 -0.684,14.78c-0.173,12.71 -1.884,25.36 -1.2,38.095c0.087,2.8 -0.256,5.649 -0.599,8.457c-1.027,9.132 -1.798,18.255 -0.769,27.465c0.255,2.79 0.085,5.657 -0.086,8.465c-0.943,15.56 0.514,30.991 1.968,46.456c1.2,13.343 1.627,26.755 2.054,40.158c0.257,12 0.514,24 2.225,35.903c0.513,3.484 0.772,7.027 0.772,10.563c0.255,16.973 2.225,33.806 3.849,50.668c1.114,11.246 2.484,22.458 2.484,33.798c-0,4.203 0.513,8.457 1.284,12.606c2.481,13.979 2.91,28.101 2.91,42.231c0,21.884 -0.172,43.76 0.768,65.637c0.257,5.64 0.514,11.289 1.284,16.895c1.541,12.684 1.37,25.351 0.259,38.044c-0.343,4.211 -0.6,8.43 -1.029,12.641c-1.711,16.895 -2.054,33.814 -1.027,50.771c0.343,4.895 0.429,9.876 -1.027,14.695c-0.171,0.633 -0.768,1.146 -1.198,1.711c-0.427,-0.53 -1.111,-1.043 -1.111,-1.6c-0.429,-6.316 -0.856,-12.633 -1.027,-18.949c-0.343,-11.306 -0.429,-22.604 -0.686,-33.901c-0.171,-7.062 -0.77,-14.079 -1.541,-21.114c-1.454,-14.749 -2.651,-29.52 -2.824,-44.361c-0.086,-9.184 -0.171,-18.341 -2.481,-27.346c-0.943,-3.398 -1.114,-6.976 -1.37,-10.501c-1.198,-16.184 -2.568,-32.378 -3.338,-48.587c-0.684,-16.228 -0.857,-32.474 -1.027,-48.718c-0.257,-18.359 -0.684,-36.7 -2.482,-54.998c-0.686,-7.019 -0.77,-14.098 -1.027,-21.149c-0.172,-4.938 -0.086,-9.885 -0.257,-14.833c-0.343,-10.587 -0.856,-21.165 -1.197,-31.761c-0.343,-9.929 -2.997,-19.505 -4.195,-29.314c-1.37,-11.221 -1.626,-22.509 -3.081,-33.703c-0.343,-2.784 -0.17,-5.649 -0.086,-8.465c0.943,-22.579 1.541,-45.166 3.681,-67.667c1.027,-10.562 1.284,-21.149 1.197,-31.744c-0.17,-12 -0.256,-23.998 -0.256,-35.99c-0,-4.235 -0.087,-8.524 0.427,-12.692c3.51,-25.993 2.997,-52.139 3.167,-78.253c0.087,-2.816 0.173,-5.7 -0.341,-8.457c-1.199,-6.333 -0.856,-12.641 -0.513,-18.99c0.255,-3.733 -1.027,-6.849 -4.538,-8.851c-2.395,-1.403 -4.792,-2.901 -7.103,-4.536c-2.997,-2.07 -5.221,-4.921 -6.676,-8.097c-3.681,-7.695 -6.675,-15.611 -7.105,-24.247c-0.684,-10.562 -3.251,-20.943 -2.652,-31.625c0.171,-2.875 0.941,-5.416 2.139,-8.044c0.856,-1.883 0.172,-4.305 -1.625,-5.648c-9.073,-6.746 -17.717,-14.046 -25.514,-22.228c-6.822,-7.156 -13.344,-14.592 -19.857,-22.022c-7.9,-9.022 -15.568,-18.265 -23.536,-27.233c-7.498,-8.441 -15.26,-16.657 -22.903,-24.976c-2.387,-2.592 -5.06,-4.989 -7.095,-7.83c-5.341,-7.465 -10.957,-14.695 -16.844,-21.757c-3.603,-4.33 -6.702,-9.09 -8.824,-14.396c-0.787,-1.969 -1.746,-3.859 -2.679,-5.77c-3.108,-6.316 -6.711,-12.452 -9.303,-18.982c-7.267,-18.367 -14.816,-36.641 -20.808,-55.503c-3.2,-10.092 -6.768,-20.063 -10.184,-30.085c-0.676,-1.994 -1.695,-3.919 -2.149,-5.965c-3.354,-15.278 -9.533,-29.493 -16.063,-43.607c-6.608,-14.276 -10.186,-29.279 -10.7,-45.011c-0.146,-4.228 -0.402,-8.465 -0.411,-12.701c-0.008,-8.489 -0.529,-16.938 -1.727,-25.343c-1.789,-12.674 -1.465,-25.342 0.255,-38.009c0.856,-6.298 1.421,-12.625 2.089,-18.941c0.283,-2.806 0.205,-5.682 0.735,-8.447c4.143,-21.611 3.81,-43.555 4.983,-65.398c0.119,-2.114 0.017,-4.263 0.341,-6.341c1.524,-9.757 3.073,-19.523 4.784,-29.247c2.706,-15.336 7.395,-30.168 12.3,-44.89c2.225,-6.701 4.339,-13.454 5.99,-20.276c2.167,-8.952 5.102,-17.604 8.097,-26.274c1.849,-5.333 3.8,-10.638 5.409,-16.049c1.824,-6.136 4.435,-11.887 7.567,-17.441c5.906,-10.487 10.587,-21.484 13.582,-33.174c0.513,-2.046 0.943,-4.195 1.883,-6.051c10.571,-20.722 3.287,-21.536 25.25,-43.342c2.473,-2.457 4.356,-5.546 6.349,-8.457c2.799,-4.065 5.119,-8.489 8.2,-12.333c11.897,-14.892 23.965,-29.647 36.084,-44.368c4.484,-5.452 9.133,-10.776 13.95,-15.928c3.902,-4.178 7.207,-8.73 9.527,-13.916c1.754,-3.955 4.1,-7.379 7.359,-10.211c2.706,-2.346 4.682,-5.238 6.343,-8.387c2.714,-5.043 6.136,-9.468 10.587,-13.087c3.852,-3.151 6.933,-7.011 9.501,-11.289c4.365,-7.395 10.354,-13.344 17.032,-18.668c4.963,-3.944 9.414,-8.66 14.977,-11.733c11.297,-6.197 20.797,-14.695 30.041,-23.357c11.468,-10.749 24.392,-19.179 38.087,-26.585c8.644,-4.705 17.374,-9.303 25.761,-14.481c8.389,-5.143 17.46,-9.243 26.362,-13.582c6.333,-3.097 12.752,-6.111 19.941,-6.795c14.038,-4.775 28.331,-8.765 42.537,-12.916c8.988,-4.511 18.821,-6.008 28.492,-7.727c9.673,-1.73 19.438,-3.133 29.366,-4.068c16.86,-1.608 33.465,-4.662 49.384,-10.816c3.338,-1.284 6.752,-2.098 10.271,-2.441c2.138,-0.213 4.365,-0.068 6.333,-0.727c10.27,-3.457 20.884,-3.278 31.411,-3.295c14.208,-0.008 28.244,-1.164 42.28,-2.697c25.933,-2.832 51.952,-5.597 77.969,-7.711c9.16,-0.735 18.317,-1.711 27.476,0.351c5.563,1.26 11.296,0.941 16.774,-0.299c12.581,-2.841 25.249,-2.174 38.001,-1.831c14.122,0.376 27.987,3.141 42.109,3.963c7.532,1.797 15.149,3.381 22.595,5.486c4.108,1.155 8.13,2.26 12.411,2.455c1.368,0.07 2.911,0.061 4.195,0.557c9.927,3.929 20.711,4.27 30.982,6.521c7.616,1.662 15.062,4.049 22.765,4.854c7.789,0.83 15.063,3.517 22.682,5.109c6.162,1.302 12.238,2.962 18.657,3.748c10.443,1.292 20.968,3.168 31.239,5.692c6.164,1.525 12.325,2.817 18.659,3.236c4.279,0.283 8.387,0.959 12.496,2.302c2.653,0.881 5.392,1.541 8.216,1.798c9.243,0.856 17.63,4.913 26.36,7.429c2.654,0.752 5.222,2.319 7.446,4.022c5.051,3.946 10.187,7.387 16.606,8.765c2.738,0.59 5.306,1.925 7.959,3.03c6.504,2.773 12.582,6.246 17.374,11.673c3.938,4.322 9.073,6.539 14.806,7.677c18.23,3.621 35.263,10.013 50.241,21.251c2.225,1.662 4.879,2.971 7.446,3.903c9.757,3.441 16.69,10.476 23.193,17.906c1.884,2.07 3.425,4.673 4.195,7.292c2.397,7.66 7.105,13.676 12.324,19.538c5.649,6.335 11.384,12.565 17.974,17.906c6.078,4.938 11.127,10.879 16.262,16.63c1.882,2.089 3.681,4.357 5.136,6.744c4.108,6.581 8.045,13.232 12.665,19.497c4.622,6.206 8.303,13.069 13.095,19.198c2.227,2.765 3.854,5.957 5.565,9.046c4.708,8.652 8.986,17.606 14.635,25.763c1.541,2.292 2.654,4.954 3.765,7.557c5.308,12.357 11.384,24.323 18.573,35.655c8.046,12.846 12.153,26.917 15.234,41.433c1.199,5.538 2.14,11.041 4.108,16.382c3.938,10.63 4.965,22.003 8.303,32.798c0.427,1.335 0.599,2.754 0.77,4.149c1.797,21.098 4.194,42.152 4.792,63.336c0.343,11.998 0.943,23.99 1.2,35.99c0.084,4.938 -0.343,9.876 -0.428,14.814c-0.172,9.176 -0.429,18.35 2.139,27.347c0.77,2.678 0.856,5.579 0.943,8.395c0.254,9.876 0.427,19.762 0.427,29.647c-0.086,4.221 -0.257,8.551 -1.284,12.608c-1.97,8.344 -2.14,16.776 -2.225,25.239c-0.172,12.719 -0.256,25.429 -0.343,38.138c0,4.99 -0.856,9.792 -2.567,14.516c-1.455,3.963 -2.311,8.147 -3.595,12.163c-1.37,4.065 -2.054,8.206 -2.14,12.479c-0.171,7.822 -1.541,15.387 -4.193,22.8c-1.883,5.306 -3.338,10.792 -4.621,16.287c-1.286,5.528 -3.082,10.852 -5.136,16.125c-4.108,10.509 -7.961,21.122 -10.272,32.223c-1.112,5.605 -3.252,10.81 -6.076,15.722c-3.595,6.111 -7.017,12.24 -8.817,19.181c-0.684,2.678 -2.31,5.143 -3.508,7.66c-7.96,15.74 -16.519,31.187 -23.706,47.287c-3.768,8.362 -8.56,16.176 -14.722,23.152c-5.649,6.359 -10.014,13.66 -14.122,21.087c-2.397,4.341 -4.965,8.576 -8.73,11.933c-5.306,4.776 -9.5,10.441 -13.352,16.363c-5.051,7.721 -11.127,14.473 -17.889,20.824c-11.295,10.638 -22.336,21.603 -33.207,32.72c-8.13,8.371 -17.546,14.071 -29.271,15.619c-3.508,0.481 -6.762,1.687 -9.757,3.768c-2.397,1.668 -4.451,3.687 -4.878,6.606c-1.711,11.143 -3.765,22.235 -3.51,33.619c0.086,5.614 -0.771,11.246 -1.112,16.879c-0.686,10.732 -3.253,20.985 -8.389,30.417c-3.165,5.871 -3.935,11.922 -3.592,18.392c0.684,11.992 0.684,23.982 0.341,36.007c-0.257,9.86 -0.598,19.762 0.599,29.63c0.684,5.633 0.341,11.273 -0.086,16.914c-0.941,12.006 -0.77,23.938 1.454,35.869c1.114,6.205 1.284,12.649 1.371,18.984c0.256,24.725 0.599,49.452 0.343,74.161c-0.087,11.357 0.597,22.587 2.224,33.774c0.943,6.297 1.541,12.589 1.884,18.949c0.343,5.63 0.684,11.338 1.881,16.817c3.168,14.662 3.082,29.46 2.654,44.282c-0.257,8.465 -0.854,16.93 -1.37,25.395c-0.341,7.103 -0.084,14.165 2.227,20.925c1.968,5.427 2.481,10.973 2.567,16.665c0.171,13.411 0.428,26.814 0.771,40.234c0.086,4.262 -0.343,8.448 -1.284,12.6c-0.77,3.448 -1.627,6.881 -2.227,10.346c-1.197,6.265 -1.625,12.538 -1.538,18.949c0.854,43.779 1.111,87.575 -0,131.352c-0.257,9.903 0.17,19.771 0.941,29.622c1.027,12.658 2.567,25.282 3.851,37.923c0.343,3.511 0.514,7.046 0.77,10.554c0.514,5.622 0.941,11.246 1.455,16.879c0.343,3.508 0.94,7.008 0.94,10.517c0,8.483 0.173,16.93 1.627,25.335c0.684,4.176 0.257,8.446 -1.027,12.563c-0.941,2.902 -2.995,4.794 -5.819,5.521c-3.254,0.83 -7.703,-1.224 -9.244,-3.843c-3.251,-5.606 -5.051,-11.538 -5.051,-18.111c0.173,-19.779 -0.427,-39.55 0.686,-59.312c0.171,-2.122 0.257,-4.236 0.428,-8.319Z" style="fill:#231f20;fill-rule:nonzero;"/><path d="M1046.05,1815.47c0.257,-8.465 0,-16.922 -0.172,-25.403c-0.684,-23.999 -0.855,-48.023 -1.198,-72.04c-0.172,-21.182 -0.257,-42.374 -0.513,-63.558c-0.087,-4.93 0.084,-9.995 -0.943,-14.763c-2.138,-9.757 -2.481,-19.608 -2.825,-29.476c-0.597,-14.849 -3.337,-29.46 -4.705,-44.207c-2.911,-8.781 -3.252,-18.041 -5.222,-26.995c-1.284,-6.23 -2.481,-12.452 -3.167,-18.776c-0.341,-2.757 -1.112,-5.53 -2.139,-8.141c-7.789,-20.07 -20.114,-47.441 -27.73,-61.769c-1.027,-1.857 -2.227,-3.627 -3.424,-5.349c-9.842,-13.813 -19.599,-27.619 -29.528,-41.406c-1.198,-1.711 -2.481,-3.441 -3.936,-4.914c-7.618,-7.386 -15.235,-14.711 -22.938,-22.038c-3.081,-2.944 -6.335,-5.581 -10.014,-7.746c-2.397,-1.43 -4.964,-2.892 -6.932,-4.835c-7.019,-6.779 -15.236,-9.509 -24.993,-9.731c-12.667,-0.275 -25.333,-1.216 -37.744,-4.502c-7.53,-1.987 -15.576,-2.063 -23.108,0.119c-9.071,2.611 -18.144,3.313 -27.217,1.848c-7.874,-1.265 -15.577,-0.616 -23.109,1.371c-11.554,3.046 -23.195,6.084 -34.92,8.532c-5.649,1.165 -10.87,3.587 -15.319,7.011c-8.56,6.563 -18.146,10.876 -28.415,13.865c-4.794,1.411 -9.159,3.457 -13.524,5.803c-8.13,4.338 -16.26,8.514 -24.306,12.957c-6.162,3.414 -12.411,6.83 -18.23,10.793c-9.938,6.762 -19.685,13.676 -29.195,21.046c-7.779,6.068 -15.055,12.779 -20.02,21.611c-1.378,2.457 -3.346,4.595 -4.706,7.044c-4.621,8.087 -10.784,14.763 -17.546,21.062c-18.495,17.282 -18.495,17.349 -31.752,39.269c-1.806,3.011 -3.511,6.111 -5.478,9.03c-11.22,16.543 -18.058,35.098 -25.42,53.439c-0.257,0.651 -0.513,1.327 -0.684,2.011c-2.054,9.757 -6.335,18.676 -10.443,27.679c-5.219,11.565 -9.927,23.298 -12.333,35.947c-1.189,6.9 -3.671,13.576 -5.725,20.346c-3.081,10.176 -5.049,20.523 -5.735,31.153c-0.597,9.851 -1.113,19.686 -3.851,29.314c-1.541,5.408 -1.541,11.178 -1.198,16.843c0.257,3.519 0.428,7.052 0.855,10.554c0.848,6.368 0.6,12.684 -0.598,18.966c-0.513,2.773 -0.941,5.571 -1.456,8.354c-0.598,2.806 -0.598,5.571 -0,8.387c0.678,3.449 1.37,6.932 1.875,10.424c1.292,8.498 1.027,16.912 -2.046,25.044c-1.378,3.379 -1.711,6.795 -1.292,10.363c0.351,3.519 0.779,7.027 0.951,10.546c0.163,2.797 0.247,5.692 -0.257,8.413c-1.113,5.588 -1.456,11.203 -1.635,16.852c-0.248,7.087 0,14.095 2.233,20.952c1.027,3.354 1.713,6.863 2.225,10.347c0.515,3.475 0.762,7.002 0.943,10.51c0.084,4.228 -0.181,8.465 -0.095,12.693c0,5.64 -0.505,11.4 0.522,16.878c0.856,4.741 3.673,9.09 5.308,13.728c0.684,1.978 0.417,4.194 -0.857,6.035c-0.865,1.138 -1.627,2.413 -2.654,3.26c-2.824,2.2 -5.905,3.843 -9.414,4.759c-1.635,0.444 -4.63,-1.054 -5.135,-2.722c-0.608,-2.029 -1.456,-3.997 -1.721,-6.051c-1.446,-11.23 -3.338,-22.314 -6.666,-33.182c-1.892,-6.051 -2.919,-12.376 -4.032,-18.616c-0.59,-3.449 -0.933,-7.009 -0.933,-10.519c0,-6.35 0.343,-12.701 0.684,-19.042c0.249,-4.93 0.771,-9.86 1.027,-14.789c0.514,-7.79 0.335,-15.509 -1.54,-23.171c-1.292,-5.476 -2.141,-11.092 -3.338,-16.603c-1.454,-7.009 -1.968,-14.036 -0.257,-21.012c1.97,-7.729 1.798,-15.329 0.086,-23.073c-1.283,-6.232 -1.626,-12.625 -1.027,-18.976c1.114,-11.298 0.771,-22.587 0.341,-33.876c-0.341,-9.201 0,-18.239 2.398,-27.293c2.226,-8.149 3.337,-16.604 4.364,-25.009c0.943,-7.841 3.082,-15.354 6.506,-22.287c7.446,-15.371 12.581,-31.385 15.141,-48.255c0.864,-5.673 3.165,-10.895 5.657,-15.919c4.365,-8.876 8.13,-18.007 11.811,-27.182c5.476,-13.814 12.657,-26.739 21.046,-39.063c13.95,-20.43 27.901,-40.834 43.229,-60.21c4.451,-5.522 8.816,-11.076 13.429,-16.365c7.968,-9.012 16.177,-17.776 24.144,-26.738c7.095,-7.977 14.979,-15.012 24.307,-20.309c8.645,-4.914 16.519,-10.879 24.222,-17.025c9.5,-7.497 19.6,-13.814 30.641,-18.795c4.451,-2.044 8.9,-4.287 13.181,-6.752c8.644,-4.956 17.887,-8.405 27.215,-11.665c6.591,-2.311 13.438,-4.186 20.027,-6.694c17.976,-6.863 36.633,-10.441 55.89,-11.023c10.528,-0.316 21.139,-0.916 31.753,-1.207c11.981,-0.325 23.965,-0.454 35.947,0.694c5.648,0.546 11.211,1.249 16.86,1.976c5.564,0.719 11.127,1.943 16.775,2.259c13.781,0.762 26.19,5.76 37.658,12.882c13.182,8.181 25.336,17.751 35.606,29.638c8.387,9.638 16.433,19.412 23.109,30.29c4.022,6.625 7.616,13.541 12.152,19.822c4.194,5.795 6.592,12.479 10.443,18.376c3.938,5.992 6.676,12.317 7.873,19.455c0.684,4.116 2.568,8.062 4.022,12.033c1.713,4.621 3.854,9.124 5.392,13.789c3.168,9.328 6.078,18.709 7.962,28.439c1.968,9.689 3.338,19.489 5.904,29.057c1.713,6.078 2.054,12.522 2.91,18.822c0.427,3.484 0.6,7.009 1.027,10.527c1.37,12.658 4.109,25.104 7.617,37.264c2.997,10.246 4.537,20.687 6.335,31.103c0.6,3.476 0.427,7.122 1.284,10.492c3.251,12.455 3.422,25.139 3.508,37.847c0.086,3.535 0.086,7.106 0.6,10.579c2.567,16.092 2.567,32.352 3.679,48.547c0.686,10.552 0.856,21.157 1.027,31.752c0.343,16.946 0.6,33.893 2.483,50.763c0.941,9.2 0.941,18.436 -0.77,27.447c-3.168,16.039 -3.765,32.258 -4.024,48.493c-0.171,9.184 -0.684,18.344 -1.539,27.493c-0.429,4.911 -0.856,9.884 -0.599,14.797c0.513,9.236 -0.943,18.325 -1.627,27.466c-0.428,5.151 -3.595,9.054 -8.046,11.835c-2.311,1.438 -5.99,1.079 -7.703,-0.94c-1.368,-1.609 -2.825,-3.322 -2.909,-5.487c-0.513,-6.324 -1.027,-12.668 -1.113,-19.009c-0.086,-17.657 -0,-35.314 -0.086,-52.971c-0,-3.533 0.343,-7.095 -0,-10.587c-1.539,-14.122 -0.341,-28.217 0.172,-42.322c0.684,-16.228 0.941,-32.472 1.37,-48.707Z" style="fill:#231f20;fill-rule:nonzero;"/><path d="M938.897,750.958c0.513,-6.616 1.197,-10.168 0.854,-13.641c-0.854,-11.238 -0.768,-22.595 -4.022,-33.569c-0.94,-3.381 -1.797,-6.873 -2.054,-10.365c-1.027,-10.613 -4.022,-20.746 -6.589,-31.025c-2.568,-10.467 -7.019,-19.89 -13.095,-28.681c-2.825,-4.057 -5.992,-7.89 -8.56,-12.084c-6.76,-10.973 -15.919,-19.728 -25.59,-27.961c-10.27,-8.713 -21.311,-16.289 -34.406,-20.457c-3.938,-1.292 -7.703,-3.371 -11.554,-5.075c-3.938,-1.712 -8.046,-2.774 -12.325,-3.114c-11.213,-0.925 -22.425,-1.516 -33.636,-3.716c-9.757,-1.941 -19.686,-0.658 -29.014,3.227c-4.622,1.883 -9.157,3.792 -13.608,5.889c-4.538,2.097 -8.646,4.749 -12.155,8.335c-6.505,6.573 -13.522,12.471 -21.054,17.692c-5.22,3.587 -10.955,6.376 -16.176,9.92c-5.392,3.637 -7.617,10.116 -12.239,14.497c-1.54,1.447 -3.338,2.697 -4.794,4.179c-1.968,1.984 -4.106,3.911 -5.649,6.213c-3.251,4.647 -6.419,9.363 -8.984,14.336c-2.997,5.579 -5.651,11.297 -6.935,17.673c-2.403,12.452 -4.792,24.906 -6.503,37.479c-0.771,4.887 -1.455,9.79 -2.654,14.558c-1.37,5.538 -1.454,11.187 -2.397,16.741c-0.941,5.554 -2.311,11.024 -3.509,16.527c-0.178,0.684 -0.178,1.403 -0.178,2.106c-0.943,14.816 -1.876,29.614 1.719,44.249c0.505,2.054 0.684,4.176 1.027,6.273c1.968,13.325 5.049,26.276 11.554,38.266c1.627,3.073 2.568,6.539 3.681,9.887c3.422,10.86 7.874,21.13 15.576,29.749c1.884,2.079 3.425,4.528 4.879,6.925c4.622,7.368 10.954,12.932 18.401,17.143c14.208,7.968 28.757,15.071 44.079,20.48c8.816,3.108 17.887,4.075 27.13,2.875c5.649,-0.708 11.212,-1.557 16.86,-1.643c8.646,-0.144 16.69,-2.311 24.652,-5.511c5.903,-2.379 11.638,-5.024 17.887,-6.565c2.654,-0.684 5.306,-1.9 7.789,-3.149c8.9,-4.348 17.715,-8.757 26.444,-13.292c3.168,-1.617 6.335,-3.311 8.989,-5.554c6.504,-5.435 12.068,-11.871 19.514,-16.168c1.711,-1.011 2.909,-2.97 4.279,-4.595c2.652,-3.254 5.135,-6.754 7.96,-9.87c5.819,-6.282 10.527,-13.325 14.976,-20.49c7.532,-12.068 13.438,-24.836 14.979,-39.223c0.256,-2.808 0.684,-5.632 1.37,-8.346c2.567,-9.654 2.995,-19.506 3.081,-29.408c0.086,-4.938 -0,-9.877 -0,-11.717Zm-313.945,14.722l-0,-12.693c-0.087,-10.63 0.78,-21.054 4.118,-31.3c2.738,-8.781 3.414,-17.965 3.328,-27.19c-0.076,-3.527 -0.162,-7.062 -0,-10.571c0.265,-4.227 1.113,-8.387 3.091,-12.238c1.798,-3.792 3.679,-7.619 5.733,-11.273c6.325,-11.006 12.497,-22.098 17.633,-33.747c2.565,-5.932 6.246,-11.006 11.295,-15.073c1.113,-0.873 2.311,-1.684 3.168,-2.754c9.586,-11.503 21.824,-19.977 33.551,-28.971c11.212,-8.568 22.509,-16.99 33.807,-25.455c3.338,-2.543 7.103,-4.373 11.211,-5.735c12.238,-4.057 24.649,-5.519 37.487,-4.322c7.703,0.727 15.493,0.838 23.195,1.446c4.963,0.378 9.844,0.994 14.72,1.789c2.74,0.446 5.478,1.216 8.132,2.287c8.474,3.481 16.774,7.273 25.247,10.757c5.992,2.457 11.3,5.881 15.835,10.305c4.622,4.433 9.414,8.482 14.55,12.265c2.824,2.079 5.478,4.485 7.789,7.163c5.905,6.992 12.068,13.874 17.117,21.431c9.073,13.413 18.059,26.927 24.135,42.109c2.568,6.565 4.965,13.181 5.649,20.303c0.514,5.648 2.225,11.005 3.938,16.406c4.108,12.83 6.246,26.019 6.419,39.508c-0,2.814 -0.257,5.776 0.513,8.412c2.911,10.392 1.712,21.038 2.482,31.549c0.684,10.022 -1.711,19.633 -4.108,29.201c-0.514,1.995 -1.541,4.024 -2.738,5.641c-3.168,3.911 -5.308,8.337 -7.617,12.684c-3.938,7.489 -8.303,14.695 -13.095,21.73c-3.51,5.265 -6.848,10.665 -9.843,16.271c-4.879,9.405 -11.041,18.024 -17.033,26.738c-2.397,3.516 -5.306,6.676 -9.073,8.652c-6.333,3.262 -11.725,7.875 -17.03,12.478c-9.158,7.919 -19.685,13.601 -30.128,19.455c-3.081,1.703 -6.503,2.911 -9.841,3.886c-8.132,2.371 -16.092,5.222 -23.965,8.303c-4.022,1.557 -8.131,2.352 -12.325,2.489c-7.105,0.214 -13.952,1.225 -20.798,3.338c-11.041,3.39 -22.168,3.219 -33.295,-0.324c-6.076,-1.919 -12.322,-3.1 -18.314,-4.93c-6.078,-1.832 -11.982,-4.238 -18.06,-6.078c-10.184,-3.081 -19.684,-7.582 -29.271,-11.99c-6.59,-3.005 -11.895,-7.506 -16.347,-13.122c-0.94,-1.103 -1.797,-2.197 -2.567,-3.362c-13.96,-20.003 -14.979,-13.557 -22.766,-44.55c-0.172,-0.675 -0.515,-1.324 -0.772,-1.976c-7.189,-17.024 -9.5,-35.33 -13.865,-53.098c-1.206,-4.733 -1.292,-9.774 -1.455,-14.687c-0.256,-7.052 -0.084,-14.114 -0.084,-21.157l0.247,-0Z" style="fill:#231f20;fill-rule:nonzero;"/><path d="M450.363,423.02c0.684,-0.17 3.5,-0.581 6.162,-1.429c7.36,-2.352 14.806,-3.928 22.423,-5.247c6.838,-1.181 13.865,-2.497 20.198,-5.554c9.586,-4.535 19.43,-7.96 29.52,-11.024c2.319,-0.709 3.167,-5.058 1.548,-7.198c-5.049,-6.898 -11.219,-12.341 -19.514,-15.192c-11.295,-3.876 -21.909,-9.32 -32.095,-15.498c-1.795,-1.089 -3.765,-1.867 -5.657,-2.8c-1.36,-0.692 -4.698,0.129 -5.725,1.489c-1.199,1.67 -2.662,3.287 -3.51,5.144c-7.103,15.219 -14.036,30.495 -21.053,45.755c-0.259,0.635 -0.429,1.343 -0.513,2.038c-0.259,1.378 -0.514,2.764 -0.6,4.151c-0.257,3.697 3.081,6.573 8.816,5.365Zm16.166,-86.202c8.73,-0.319 14.73,1.411 20.37,4.689c4.203,2.49 8.56,4.922 12.839,7.335c6.77,3.8 13.446,7.779 20.806,10.417c1.967,0.708 3.843,1.684 5.821,2.549c7.273,3.192 13.35,7.986 18.306,14.062c2.225,2.706 4.365,5.555 6.257,8.552c1.027,1.754 1.884,3.876 2.14,5.922c1.188,9.894 -2.14,18.059 -10.016,24.195c-1.111,0.83 -2.575,1.292 -3.849,1.66c-4.794,1.283 -10.014,0.018 -14.551,2.278c-4.46,2.181 -8.738,4.654 -13.103,6.965c-5.641,2.978 -11.376,5.846 -17.623,7.002c-17.375,3.201 -34.406,8.096 -51.525,12.068c-8.984,2.063 -12.409,-0.18 -15.233,-9.827c-0.343,-1.359 -0.856,-2.711 -1.027,-4.097c-0.17,-2.081 -0.6,-4.357 0,-6.265c2.738,-8.792 3.936,-17.933 6.249,-26.817c3.508,-13.701 8.13,-27.001 14.376,-39.704c2.484,-5.057 4.957,-10.141 7.362,-15.243c1.703,-3.465 4.365,-5.433 8.208,-5.717c2.139,-0.154 4.279,-0.024 4.193,-0.024Z" style="fill:#231f20;fill-rule:nonzero;"/><path d="M1101.94,380.886c4.536,0.146 7.96,-0.343 11.298,-1.729c1.797,-0.727 3.252,-3.176 2.909,-5.092c-0.171,-1.379 -0.171,-2.868 -0.684,-4.125c-5.82,-14.379 -12.409,-28.39 -19.771,-42.049c-0.941,-1.833 -2.482,-3.408 -3.765,-5.076c-1.284,-1.763 -4.195,-2.44 -5.479,-1.292c-4.792,4.184 -9.5,8.395 -14.806,11.887c-2.91,1.935 -5.478,4.373 -7.532,7.343c-4.365,6.489 -9.671,12.052 -15.747,16.998c-1.027,0.857 -1.883,2.073 -2.483,3.305c-0.684,1.411 -0.427,2.909 0.513,3.8c2.654,2.473 5.992,3.825 9.416,4.527c11.039,2.285 21.996,4.879 32.607,8.593c4.624,1.608 9.673,2.105 13.524,2.91Zm10.698,17.974c-6.162,0.957 -13.608,-0.984 -21.225,-2.473c-15.235,-2.989 -30.127,-6.719 -44.763,-11.727c-4.108,-1.411 -8.216,-1.506 -12.409,-0.565c-4.794,1.062 -9.33,3.038 -14.381,2.97c-2.31,-0.035 -5.476,-2.816 -5.562,-5.281c-0.257,-6.427 0.943,-12.53 4.194,-18.16c1.027,-1.816 2.054,-3.665 3.423,-5.281c1.283,-1.611 3.081,-2.884 4.537,-4.392c5.306,-5.571 10.355,-11.425 16.004,-16.69c5.564,-5.27 11.726,-10.065 17.718,-14.873c6.59,-5.249 13.093,-10.649 19.171,-16.528c1.884,-1.883 4.536,-3.151 7.103,-4.373c4.622,-2.294 7.96,-0.943 11.641,1.976c3.851,3.098 6.59,7.257 8.987,11.581c1.283,2.447 2.397,5.049 3.424,7.66c3.336,8.516 7.189,16.774 11.468,24.846c5.733,10.663 7.873,22.466 10.784,34.012c0.77,3.338 0.513,6.976 0.598,10.476c-0,3.774 -4.536,7.865 -8.558,7.676c-3.51,-0.154 -7.019,-0.486 -12.154,-0.854Z" style="fill:#231f20;fill-rule:nonzero;"/><path d="M1092.53,680.237c-5.819,-0.24 -10.784,2.217 -15.662,4.93c-1.027,0.592 -1.882,2.062 -2.311,3.313c-1.711,5.649 -0.684,10.895 2.826,15.663c1.882,2.635 6.247,4.168 9.158,3.465c7.103,-1.66 12.838,-5.221 16.519,-11.579c1.454,-2.475 1.625,-5.23 0.511,-7.959c-2.138,-5.171 -5.99,-7.876 -11.041,-7.833Zm-1.797,-18.23c3.681,0.446 7.962,0.77 12.07,1.532c5.733,1.071 10.355,4.133 13.779,8.995c0.77,1.165 1.54,2.338 2.311,3.509c4.451,6.71 6.248,14.097 5.99,22.065c-0.171,5.127 -1.539,10.049 -5.477,13.308c-4.965,4.144 -8.216,9.587 -12.154,14.474c-2.311,2.841 -5.392,4.613 -8.9,5.221c-3.424,0.59 -7.019,1.284 -10.441,1.079c-4.881,-0.292 -9.757,-1.233 -14.638,-2.149c-3.508,-0.668 -6.674,-2.338 -9.5,-4.476c-1.625,-1.241 -3.338,-2.705 -4.365,-4.468c-3.849,-6.797 -6.419,-13.951 -6.419,-22.013c-0,-7.892 1.113,-15.414 4.451,-22.587c1.884,-3.92 4.451,-7.138 8.303,-9.287c3.679,-2.07 7.53,-3.782 11.811,-4.159c4.192,-0.376 8.473,-0.676 13.179,-1.044Z" style="fill:#231f20;fill-rule:nonzero;"/><path d="M518.489,701.473l0,-6.995c0,-8.422 -6.94,-13.146 -12.924,-13.933c-2.138,-0.273 -4.192,-0.316 -6.246,-0.367c-2.835,-0.068 -5.565,0.573 -7.876,2.232c-2.319,1.619 -4.544,3.262 -6.511,5.146c-2.046,1.908 -3.501,4.346 -4.1,7.138c-0.514,2.711 -1.2,5.443 -1.465,8.198c-0.333,3.562 0.694,6.959 2.835,9.8c1.616,2.184 3.584,4.203 5.648,6c2.215,1.9 5.049,2.584 7.874,2.089c6.932,-1.216 13.265,-3.827 18.573,-8.765c2.054,-1.951 3.508,-4.297 3.936,-7.138c0.256,-2.054 0.343,-4.151 0.256,-3.405Zm-29.611,36.852c-2.827,0 -5.649,0.249 -8.398,-0.076c-2.902,-0.326 -5.127,-2.054 -6.838,-4.4c-0.429,-0.565 -0.941,-1.103 -1.199,-1.711c-1.025,-1.848 -2.052,-3.697 -2.909,-5.597c-4.708,-9.868 -5.735,-20.149 -3.252,-30.744c0.769,-3.397 1.882,-6.727 2.823,-10.09c4.015,-4.837 6.591,-10.724 11.043,-15.227c5.219,-5.221 11.295,-7.873 18.827,-7.857c8.644,0.008 16.69,2.081 24.298,5.922c7.114,3.622 12.249,9.579 14.646,17.144c1.968,6 2.139,12.402 1.027,18.719c-0.086,0.676 -0.343,1.36 -0.608,1.984c-0.934,1.884 -1.961,3.724 -2.902,5.616c-5.135,10.56 -13.693,17.511 -24.136,22.433c-5.735,2.722 -11.811,4.398 -18.23,4.159c-1.454,-0.051 -2.833,-0.01 -4.192,-0.01l-0,-0.265Z" style="fill:#231f20;fill-rule:nonzero;"/><path d="M778.163,658.199c-0.172,0.016 -0.943,-0.068 -1.627,0.146c-1.283,0.435 -3.081,0.7 -3.681,1.651c-0.511,0.898 -0.256,2.919 0.516,3.876c4.108,5.684 8.473,11.23 12.838,16.751c0.855,1.052 2.138,1.787 3.338,2.568c1.282,0.914 2.652,0.957 3.936,0.084c5.221,-3.773 8.986,-8.789 11.897,-14.524c0.77,-1.566 -0.429,-4.69 -2.054,-5.22c-8.046,-2.619 -16.006,-5.419 -25.163,-5.332Zm-20.884,-24.471c5.308,1.113 10.87,2.089 16.347,3.484c17.119,4.392 34.406,7.395 51.952,9.492c3.681,0.437 6.762,1.797 9.5,4.168c4.452,3.835 4.708,11.273 0.514,15.089c-1.027,0.951 -1.968,2.019 -3.168,2.79c-5.905,3.946 -10.954,8.859 -15.233,14.532c-5.992,7.995 -14.036,13.781 -21.482,20.217c-1.542,1.343 -4.108,1.343 -6.078,0.316c-2.481,-1.284 -5.135,-2.498 -7.103,-4.416c-9.586,-9.338 -19.173,-18.76 -28.414,-28.431c-5.392,-5.624 -9.757,-12.129 -13.268,-19.044c-0.941,-1.805 -1.197,-4.048 -1.37,-6.119c-0.084,-1.302 0.257,-2.97 1.027,-3.937c2.74,-3.303 6.335,-5.581 10.273,-7.182c1.881,-0.77 4.106,-0.64 6.503,-0.959Z" style="fill:#231f20;fill-rule:nonzero;"/><path d="M785.609,768.58c0,-12.641 0,-25.274 0.085,-37.915c-0,-2.797 0.599,-5.529 1.713,-8.156c1.027,-2.26 4.706,-3.895 7.103,-2.893c4.108,1.763 7.019,4.657 7.789,9.158c0.513,2.748 1.027,5.589 0.856,8.337c-0.429,5.587 -1.027,11.195 -1.969,16.723c-2.995,17.435 -3.595,34.887 -1.112,52.423c0.085,0.684 0,1.386 0.085,2.08c0.17,2.73 -3.595,6.076 -6.933,6.693c-2.824,0.497 -5.99,-2.165 -6.333,-4.374c-1.113,-6.967 -1.199,-13.976 -1.027,-21.003c0.171,-4.211 0.343,-8.43 0.343,-12.651c0.084,-2.806 0.084,-5.614 0.084,-8.422l-0.684,0Z" style="fill:#231f20;fill-rule:nonzero;"/><path d="M792.456,832.036c2.567,0.71 5.307,1.181 7.873,2.208c7.875,3.251 9.673,12.495 3.854,18.719c-0.516,0.495 -1.028,0.992 -1.543,1.386c-2.395,1.668 -4.877,2.609 -7.787,1.522c-1.884,-0.735 -3.767,-1.573 -5.735,-2.405c-7.789,-3.441 -8.301,-12.811 -2.482,-19.068c1.284,-1.335 3.681,-1.549 5.82,-2.362Z" style="fill:#231f20;fill-rule:nonzero;"/></g></g></svg>