<?xml version="1.0" encoding="UTF-8" standalone="no"?><!DOCTYPE svg PUBLIC "-//W3C//DTD SVG 1.1//EN" "http://www.w3.org/Graphics/SVG/1.1/DTD/svg11.dtd"><svg width="100%" height="100%" viewBox="0 0 4057 2294" version="1.1" xmlns="http://www.w3.org/2000/svg" xmlns:xlink="http://www.w3.org/1999/xlink" xml:space="preserve" xmlns:serif="http://www.serif.com/" style="fill-rule:evenodd;clip-rule:evenodd;stroke-linejoin:round;stroke-miterlimit:2;"><path d="M57.581,81.364c-2.575,2.208 -4.917,3.075 -7.525,3.292c-1.475,0.12 -2.971,0.037 -4.442,0.187c-4.383,0.458 -8.475,-0.504 -12.429,-2.321c-1.516,-0.696 -3.033,-1.437 -4.629,-1.879c-8.658,-2.412 -15.667,-7.446 -21.983,-13.617c-0.663,-0.646 -1.225,-1.412 -1.934,-1.995c-3.308,-2.688 -4.296,-6.421 -4.566,-10.388c-0.259,-3.746 0.137,-7.529 1.75,-10.908c1.666,-3.492 3.854,-6.746 5.929,-10.029c0.462,-0.734 1.379,-1.209 2.154,-1.701c0.729,-0.462 1.963,0.051 2.35,0.838c0.783,1.596 0.746,3.25 0.283,4.888c-1.112,3.929 -2.083,7.912 -3.491,11.733c-1.18,3.196 -0.629,5.55 1.654,8.075c7.183,7.954 16.266,12.787 26.121,16.412c6.62,2.434 13.283,4.75 20.758,7.413Z" style="fill:#231f20;fill-rule:nonzero;"/><path d="M148.335,6.293c-0.337,1.904 -1.433,2.488 -2.846,2.504c-4.016,0.05 -7.637,-1.316 -11.091,-3.221c-0.317,-0.175 -0.546,-0.5 -0.809,-0.762c-0.887,-0.871 -1.146,-1.938 -0.675,-3.05c0.459,-1.088 1.421,-1.925 2.596,-1.738c4.963,0.784 9.725,2.055 12.825,6.267Z" style="fill:#231f20;fill-rule:nonzero;"/><path d="M64.523,83.722c4.283,-1.3 7.75,-0.108 11.066,1.563c2.138,1.075 2.067,3.558 0.017,4.85c-2.208,1.387 -4.483,1.229 -6.921,0.558c-2.337,-0.646 -3.179,-2.329 -3.733,-4.358c-0.188,-0.688 -0.242,-1.409 -0.429,-2.613Z" style="fill:#231f20;fill-rule:nonzero;"/><path d="M297.735,109.697c2.721,-0.341 3.979,1.271 5.292,2.446c3.45,3.079 6.725,6.362 10.087,9.538c1.213,1.15 2.455,2.266 3.73,3.341c8.808,7.383 17.579,14.813 26.474,22.088c3.438,2.812 7.184,5.246 10.771,7.871c7.513,5.495 15.963,9.383 23.98,14.016c2.245,1.3 4.491,2.613 6.649,4.054c1.788,1.196 1.434,3.517 -0.633,4.275c-0.825,0.3 -1.825,0.405 -2.696,0.271c-6.995,-1.066 -13.845,-2.616 -20.141,-6.066c-2.925,-1.605 -5.959,-3.009 -8.938,-4.513c-4.342,-2.196 -8.092,-5.242 -11.779,-8.346c-8.675,-7.3 -16.638,-15.354 -24.638,-23.371c-0.783,-0.783 -1.508,-1.641 -2.191,-2.516c-3.883,-4.975 -7.788,-9.929 -11.592,-14.963c-1.337,-1.771 -2.45,-3.716 -3.583,-5.633c-0.359,-0.604 -0.446,-1.371 -0.792,-2.492Z" style="fill:#231f20;fill-rule:nonzero;"/><path d="M401.302,177.701c0.942,0.267 1.3,0.342 1.642,0.467c1.045,0.383 2.087,0.804 2.32,2.067c0.167,0.9 -1.016,2.462 -2.125,2.908c-2.479,0.992 -5.87,0.329 -7.537,-1.7c-0.492,-0.6 -0.746,-1.787 -0.504,-2.496c0.241,-0.687 1.204,-1.208 1.954,-1.604c0.433,-0.229 1.079,-0.15 1.617,-0.083c1.079,0.133 2.158,0.358 2.633,0.441Z" style="fill:#231f20;fill-rule:nonzero;"/><path d="M124.993,117.043c4.001,4.4 4.675,7.071 2.167,10.929c-5.987,9.217 -9.833,19.483 -14.733,29.23c-1.825,3.629 -3.017,7.566 -4.696,11.274c-1.592,3.517 -3.042,7.192 -6.158,9.742c-0.946,0.775 -2.117,1.279 -3.284,1.967c-2.304,-2.313 -3.137,-4.825 -3.15,-7.713c-0.02,-5.679 1.675,-10.975 3.742,-16.146c4.554,-11.4 10.496,-22.045 17.929,-31.837c1.342,-1.763 2.742,-3.513 4.329,-5.046c1.013,-0.971 2.421,-1.533 3.854,-2.4Z" style="fill:#231f20;fill-rule:nonzero;"/><path d="M98.198,199.393c-0.267,0.392 -0.934,1.996 -2.117,2.963c-1.058,0.858 -2.712,1.337 -4.138,0.383c-1.604,-1.075 -2.737,-2.642 -2.483,-4.6c0.254,-1.975 0.913,-3.921 1.558,-5.825c0.346,-1.021 1.042,-1.925 1.567,-2.892c0.617,-1.146 1.217,-2.341 2.725,-2.425c1.25,-0.066 2.996,1.475 3.479,3.146c0.792,2.721 0.629,5.446 -0.591,9.25Z" style="fill:#231f20;fill-rule:nonzero;"/><path d="M239.769,15.876c0.787,1.65 1.445,2.417 1.479,3.209c0.116,2.766 0.287,5.575 -0.059,8.3c-0.766,6.062 -2.054,12.004 -4.604,17.641c-0.904,1.996 -1.221,4.271 -1.737,6.434c-1.38,5.771 -2.579,11.579 -4.109,17.308c-1.683,6.317 -1.296,12.475 0.896,18.546c0.484,1.341 1.454,2.512 2.092,3.592c-0.354,1.795 -0.946,3.195 -2.542,3.658c-1.662,0.487 -3.325,0.204 -4.787,-0.783c-2.042,-1.384 -3.563,-3.234 -4.721,-5.388c-4.034,-7.533 -4.729,-15.492 -3.017,-23.754c0.15,-0.725 0.308,-1.458 0.567,-2.15c4.15,-11.113 7.516,-22.542 13.091,-33.083c2.242,-4.242 4.621,-8.405 7.451,-13.53Z" style="fill:#231f20;fill-rule:nonzero;"/><path d="M244.702,102.022c-3.134,-0.787 -5.071,-1.858 -6.163,-3.954c-0.258,-0.487 -0.066,-1.533 0.317,-1.962c0.879,-0.98 2.096,-1.601 3.483,-1.25c2.405,0.608 4.546,1.708 5.755,3.999c0.299,0.571 0.424,1.626 0.104,2.042c-0.5,0.638 -1.417,1.104 -2.234,1.296c-0.662,0.154 -1.441,-0.204 -1.262,-0.171Z" style="fill:#231f20;fill-rule:nonzero;"/><path d="M3797.02,1927.55l0,-0.116c6.834,-0.159 13.709,-0.321 20.584,-0.488c0.708,-0.016 1.375,-0.062 2.042,-0.146c2.083,-0.254 4.083,-0.591 5.791,-1.895c1.167,-0.859 2.5,-1.171 3.875,-1.205c2.083,-0.054 4.167,0.184 6.167,-0.125c7.833,-1.195 15.583,-2.525 23.375,-3.879c1.708,-0.296 3.333,-0.912 5,-1.337c1.625,-0.421 3.292,-0.9 5,-1.159c5.083,-0.766 10.167,-1.695 15.292,-2.07c5.541,-0.405 10.791,-2.009 16.208,-2.859c1.708,-0.266 3.416,-0.45 5.125,-0.633c2.041,-0.221 4.083,-0.642 5.958,-1.479c3.208,-1.404 6.542,-2.15 10.042,-2.009c5.625,0.234 8.791,-3.15 11.292,-7.525c0.666,-1.191 1.291,-2.441 1.749,-3.733c2.167,-6.175 3.792,-12.487 4.25,-19.042c0.042,-0.679 0.042,-1.4 -0.125,-2.045c-0.166,-0.634 -0.458,-1.392 -0.958,-1.738c-0.458,-0.346 -1.416,-0.546 -1.916,-0.3c-5.876,2.979 -12.209,4.521 -18.625,5.779c-1.001,0.196 -2.042,0.359 -3.001,0.738c-5.416,2.162 -10.875,4.216 -16.208,6.65c-3.75,1.729 -7.541,3.2 -11.583,4.125c-4.042,0.916 -8.042,1.85 -12.042,2.829c-6.375,1.558 -12.792,2.571 -19.375,2.554c-1.708,-0.004 -3.458,0.175 -5.083,0.617c-4.042,1.091 -8.125,1.329 -12.25,1.483c-2.75,0.096 -5.542,0.042 -8.209,0.617c-9.124,1.971 -18.375,2.187 -27.666,1.858c-6.542,-0.225 -13.042,-0.1 -19.583,0.108c-5.125,0.163 -10.292,0.684 -15.417,1.046c-6.167,0.434 -12.375,0.559 -18.417,1.954c-1.333,0.309 -2.75,0.338 -4.125,0.392c-5.5,0.217 -10.916,1.225 -16.208,2.717c-4.708,1.333 -9.417,1.821 -14.25,1.662c-4.5,-0.15 -8.959,0.013 -13.333,0.909c-2.376,0.479 -4.834,0.491 -7.209,-0.059c-4.042,-0.937 -8.125,-0.987 -12.292,-1.004c-5.458,-0.021 -10.958,-0.462 -16.458,-0.492c-5.504,-0.033 -11,0.209 -16.504,0.334c-0.329,0.008 -0.662,0.012 -1,-0.013c-5.163,-0.312 -10.288,-0.283 -15.454,0.017c-5.125,0.296 -10.292,0.067 -15.458,-0.017c-1.709,-0.029 -3.463,-0.154 -5.125,-0.546c-3.709,-0.879 -7.459,-1.091 -11.251,-1.191c-5.124,-0.134 -10.249,-0.413 -15.333,-1.679c-1.958,-0.496 -4.083,-0.496 -6.125,-0.55c-2.416,-0.071 -4.792,0.087 -7.208,0.062c-2.417,-0.029 -4.833,-0.083 -7.125,-0.908c-2.625,-0.942 -5.334,-1.271 -8.083,-1.509c-3.084,-0.266 -6.126,-0.762 -9.167,-1.433c-7.375,-1.629 -14.667,-3.437 -21.5,-6.875c-4.625,-2.342 -12.125,-4.537 -17.542,-5.633c-0.625,-0.125 -1.208,0.391 -1.541,1.079c-0.167,0.275 -0.126,0.671 -0.084,0.987c1.208,5.375 1.917,10.805 1.959,16.321c-0,1.379 0.25,2.75 0.833,3.996c1.458,2.875 3.5,5.15 6.625,6.129c6.583,2.054 13.292,3.579 19.75,5.85c0.667,0.221 1.333,0.359 2,0.459c4.416,0.637 8.833,1.55 13.25,1.816c9,0.546 17.708,2.142 26.125,5.359c0.667,0.241 1.291,0.508 1.958,0.654c1,0.216 2.042,0.5 3.042,0.471c5.875,-0.18 11.625,0.975 17.496,0.695c4.125,-0.195 8.254,-0.162 12.337,-0.158c4.167,0.008 8.292,-0.204 12.333,-1.125c3.376,-0.771 6.75,-0.962 10.205,-0.908c2.083,0.033 4.166,0.246 6.171,0.004c5.829,-0.696 11.666,-0.417 17.499,-0.154c6.538,0.291 13,1.237 19.376,2.579c3.041,0.637 6.041,0.946 9.166,0.967c3.459,0.02 6.833,-0.138 10.25,-0.575c3.75,-0.484 7.542,-0.93 11.292,-1.113c5.833,-0.283 11.625,-1.321 17.458,-0.829c1,0.083 2.083,-0.142 3.083,-0.371c3.042,-0.696 6.084,-0.887 9.209,-0.858c4.792,0.046 9.583,-0.659 14.416,-0.25c1.667,0.141 3.417,-0.225 5.125,-0.471c2.042,-0.292 4.084,-0.338 6.167,-0.3c2.375,0.037 4.833,0.025 7.167,-0.308c4.458,-0.63 8.916,-0.671 13.375,-0.696c4.458,-0.025 8.958,-0.009 13.416,-0.009Zm249.667,-289.795c-0.125,-5.821 -0.292,-10.288 -0.333,-14.759c-0.042,-3.437 0.166,-6.875 0.166,-10.312c0,-4.125 -0.041,-8.25 -0.125,-12.379c-0.083,-3.092 -0.124,-6.209 -0.583,-9.255c-0.666,-4.437 -0.958,-8.883 -1.083,-13.35c-0.167,-6.908 -1.708,-13.629 -2.667,-20.433c-0.125,-1.012 -0.417,-2.021 -0.75,-2.992c-2.708,-7.791 -4.916,-15.725 -7.333,-23.604c-1.292,-4.266 -3,-8.408 -4.5,-12.612c-0.583,-1.634 -1.5,-3.088 -2.458,-4.517c-3.459,-5.108 -6.917,-10.221 -9.459,-15.929c-1.375,-3.133 -3.208,-6.079 -4.958,-9.033c-1.042,-1.767 -2.292,-3.421 -3.5,-5.067c-4.375,-5.758 -9.25,-11.117 -13.333,-17.067c-3.542,-5.175 -8.042,-9.375 -12.792,-13.329c-1.833,-1.533 -3.792,-2.962 -5.667,-4.454c-2.958,-2.35 -5.875,-4.725 -8.375,-7.596c-2.5,-2.821 -5.5,-5.204 -8.292,-7.737c-1.041,-0.917 -2.125,-1.805 -3.25,-2.525c-3.208,-1.988 -6.499,-3.884 -9.749,-5.809c-1.584,-0.933 -3.251,-1.054 -4.917,-0.312c-1.875,0.833 -3.708,1.871 -5.584,2.658c-0.916,0.383 -1.999,0.55 -3.041,0.558c-3.709,0.05 -6.625,-1.175 -8.25,-4.891c-1,-2.271 -1.709,-4.467 -1.25,-6.946c0.125,-0.667 0.167,-1.358 0.125,-2.025c-0.084,-1.071 -0.625,-1.913 -1.417,-2.633c-1.792,-1.671 -4,-2.771 -6.291,-3.425c-5.959,-1.709 -11.834,-3.546 -17.25,-6.7c-1.751,-1.021 -3.834,-1.53 -5.792,-2.134c-6.25,-1.9 -12.458,-3.871 -18.75,-5.562c-6.334,-1.688 -12.667,-3.121 -19.042,-4.567c-2.042,-0.462 -4,-1.037 -5.875,-1.879c-5.375,-2.396 -11.208,-3.292 -16.917,-4.371c-5.374,-1.021 -10.875,-1.462 -16.333,-2.229c-2.041,-0.288 -4.042,-0.713 -6.042,-1.179c-3.708,-0.859 -7.333,-2.017 -11.041,-2.646c-4.042,-0.683 -8.167,-0.871 -12.208,-1.888c-8.209,-0.366 -16.459,-0.737 -24.709,-1.1c-6.167,0.88 -12.333,0.575 -18.541,0.705c-1.709,0.037 -3.459,-0.046 -5.125,0.35c-4.376,1.054 -8.834,1.275 -13.292,1.55c-2.417,0.145 -4.792,0.47 -7.125,1.175c-3.667,1.116 -7.417,1.337 -11.208,1.32c-8.251,-0.033 -16.501,0.234 -24.709,-0.92c-1.708,-0.234 -3.458,-0.142 -5.166,-0.325c-5.505,-0.596 -10.959,-0.23 -16.421,0.55c-2.746,0.395 -5.413,0.887 -7.871,2.245c-2.459,1.355 -5.042,2.167 -7.796,2.513c-0.704,0.087 -1.371,0.275 -2.042,0.437c-6.995,1.713 -14,3.359 -21.246,3.534c-4.499,0.108 -8.92,1.104 -13.17,2.516c-5.209,1.738 -10.417,3.492 -15.455,5.688c-9.125,3.983 -18.208,8.075 -27.166,12.517c-1.5,0.766 -2.959,1.691 -4.417,2.604c-1.458,0.912 -2.792,2.054 -4.333,2.825c-4.583,2.35 -8.792,5.333 -13.208,8.029c-4.417,2.717 -8.417,5.887 -11.875,9.767c-1.375,1.558 -2.875,2.995 -4.667,4.008c-4.208,2.362 -7.959,5.404 -11.875,8.154c-4.542,3.171 -9.042,6.196 -11.959,11.088c-0.708,1.145 -1.875,2.02 -2.875,2.962c-2.249,2.125 -4.333,4.388 -6.083,6.983c-0.916,1.413 -2.083,2.713 -3.25,3.946c-1.5,1.542 -2.417,3.3 -2.917,5.371c-0.208,0.992 -0.5,2.033 -1.041,2.883c-2.375,3.78 -4.538,7.78 -8.179,10.525c-3.642,2.746 -6.475,6.188 -8.875,9.946c-1.696,2.654 -3.654,4.996 -5.988,7.025c-2.892,2.513 -5.275,5.396 -7.116,8.746c-1.663,3.033 -3.705,5.804 -6.142,8.25c-2.196,2.204 -3.967,4.713 -5.813,7.2c-2.462,3.313 -4.787,6.713 -7.037,10.171c-1.875,2.875 -3.734,5.8 -5.938,8.417c-2.041,2.433 -3.304,5.129 -4.416,8.054c-2.2,5.779 -4.113,11.671 -6.805,17.258c-0.591,1.225 -0.975,2.563 -1.32,3.883c-0.438,1.667 -0.696,3.371 -1.096,5.042c-1.2,5.004 -2.179,10.088 -3.854,14.95c-1.684,4.888 -3.163,9.8 -4.05,14.892c-0.53,3.05 -0.996,6.121 -1.817,9.096c-0.929,3.354 -1.267,6.729 -1.442,10.175c-0.258,5.137 0.063,10.325 -1.17,15.4c-0.242,0.983 -0.242,2.054 -0.201,3.079c0.255,6.537 -0.312,13.054 -0.491,19.575c-0.133,4.816 -0.425,9.616 -1.342,14.362c-0.729,3.771 -0.317,7.479 0.263,11.267c1.083,7.121 3.125,14.087 3.391,21.346c0.034,1.016 0.35,2.025 0.567,3.029c0.671,3.021 1.417,6.025 2.021,9.058c1.004,5.071 2.217,10.059 4.346,14.804c0.7,1.559 1.179,3.23 1.625,4.888c1.525,5.633 2.87,11.317 5.016,16.767c0.375,0.945 0.563,1.991 0.692,3.012c0.937,7.217 3.613,13.963 5.808,20.821c1.471,4.567 3.359,9.025 5.375,13.383c2.6,5.604 5.534,11.063 9.192,16.071c3.654,4.996 8.483,9.004 11.975,14.158c0.758,1.125 1.867,2.009 2.833,2.988c0.484,0.487 1.017,0.929 1.504,1.412c3.163,3.159 6.188,6.425 9.13,9.805c4.275,4.92 8.42,9.97 12.904,14.712c5.2,5.483 10.158,11.192 15.991,16.038c2.542,2.075 5.376,2.983 8.459,3.537c0.708,0.129 2.417,-0.721 2.625,-1.321c1.083,-2.904 2,-5.804 1.75,-9c-0.5,-6.516 -1.084,-13.037 -1.167,-19.562c-0.041,-6.179 0.25,-12.367 0.125,-18.554c-0.083,-2.417 0.208,-4.83 1.125,-7.08c0.958,-2.283 1.208,-4.658 1.125,-7.07c-0.291,-9.625 0.042,-19.246 -0.208,-28.871c-0.209,-8.246 0.083,-16.5 0.25,-24.75c0.041,-2.404 0.291,-4.804 0.541,-7.196c0.75,-7.525 1.625,-15.033 2.334,-22.563c0.583,-5.816 1,-11.637 2.5,-17.32c0.333,-1.321 0.5,-2.717 0.5,-4.084c0.125,-9.658 2.042,-19.133 3.167,-28.683c0.541,-4.779 1.124,-9.554 1.333,-14.358c0.291,-5.842 0.875,-11.65 1.666,-17.446c1.167,-8.167 2.584,-16.3 3.334,-24.521c0.25,-2.733 0.625,-5.463 0.875,-8.2c0.25,-3.088 0.708,-6.129 1.333,-9.167c1.208,-5.708 2.208,-11.466 3.333,-17.196c2.25,-11.804 4.625,-23.595 7.417,-35.291c1.459,-6.013 3.25,-11.946 4.542,-17.992c0.833,-4.058 2.041,-7.979 3.291,-11.912c1.751,-5.563 3.584,-11.113 5.126,-16.742c0.916,-3.338 1.916,-6.604 3.333,-9.738c3.667,-8.133 7.291,-16.32 11.166,-24.366c2.084,-4.321 4.625,-8.434 7.084,-12.563c2,-3.379 5.958,-4.954 9.791,-4.154c0.334,0.067 0.709,0.113 1,0.204c3.334,0.938 6.663,1.813 9.751,3.338c4.958,2.429 9.954,4.671 14.791,7.346c3.334,1.858 6.708,3.429 10.375,4.437c3.708,1.021 7,2.75 9.958,5.179c1.626,1.292 3.376,2.371 5.167,3.438c8.204,4.971 16.538,9.766 24.584,15.058c3.75,2.467 7.791,4.375 11.874,6.242c1.251,0.587 2.625,0.825 3.996,0.691c1.38,-0.129 2.709,-0.441 4.088,-0.591c6.833,-0.734 13.625,-1.838 20.541,-1.379c1.042,0.07 2.084,0.016 3.084,-0.134c4.791,-0.687 9.542,-1.433 14.292,-2.15c1.708,-0.258 3.374,-0.666 5.083,-0.712c6.208,-0.163 12.333,-1.029 18.458,-1.85c4.458,-0.592 8.917,-1.125 13.375,-0.592c8.25,0.979 16.458,-0.475 24.709,-0.467c1,0 2.041,-0.266 3.041,-0.495c5.084,-1.146 10.208,-1.355 15.375,-1.23c2.75,0.071 5.5,0.23 8.25,0.092c4.833,-0.25 9.625,0.071 14.417,0.692c1,0.133 2.042,0.304 3.083,0.321c3.125,0.041 6.083,-0.488 8.542,-2.813c2.25,-2.121 4.708,-4.004 7.083,-5.975c3.209,-2.633 6.209,-5.433 8.708,-8.767c3.334,-4.412 7.209,-8.3 11.375,-11.933c1,-0.904 2.125,-1.742 3.042,-2.771c3.417,-3.962 7.542,-7.033 11.917,-9.746c7.042,-4.358 13.5,-9.495 20.125,-14.404c0.833,-0.616 1.625,-1.229 2.5,-1.812c0.25,-0.192 0.583,-0.313 0.916,-0.417c2.751,-0.921 5.584,-0.854 7.959,0.667c2.583,1.658 5,3.6 7.541,5.387c1.084,0.775 2.001,1.896 2.75,3.025c2.459,3.738 4.792,7.542 8.084,10.634c2.625,4.02 5.625,7.741 6.875,12.583c0.833,3.304 2.291,6.462 4.042,9.446c1.083,1.833 1.625,3.783 1.708,5.879c0.125,4.854 1.292,9.529 2.625,14.158c0.583,1.975 1.333,3.904 2.083,5.834c1.083,2.941 1.542,5.975 1.334,9.108c-0.375,6.883 0.125,13.7 1.374,20.487c0.417,2.35 0.584,4.775 0.625,7.171c0.167,4.471 0.126,8.942 0.167,13.409c0.042,1.383 0.292,2.733 0.792,4.025c2.292,5.825 3.292,11.895 3.458,18.12c0.083,2.4 0,4.809 0.042,7.213c0.25,14.092 -0.792,28.158 -0.834,42.25c0,2.054 -0.125,4.137 -0.458,6.162c-0.75,4.442 -0.792,8.896 -0.708,13.371c0.041,2.063 0.208,4.134 0.041,6.188c-0.791,10.629 -0.583,21.3 -1.291,31.933c-0.375,5.838 -0.625,11.646 0.583,17.425c0.292,1.342 0.375,2.738 0.417,4.108c0.125,4.813 0.291,9.667 -0.917,14.359c-0.792,3.037 -1.208,6.041 -1.25,9.15c-0.083,4.129 -0.167,8.254 -0.375,12.375c-0.041,1.704 -0.083,3.466 -0.541,5.1c-1.167,4.354 -1.584,8.783 -1.792,13.254c-0.125,1.712 -0.084,3.467 -0.459,5.129c-1.25,5.713 -0.999,11.654 -2.625,17.313c-0.291,0.97 -0.291,2.041 -0.333,3.066c-0.75,12.004 -1.792,23.992 -1.917,36.029c-0.041,3.092 0.084,6.196 -0.124,9.28c-0.542,7.579 0.083,15.112 0.624,22.654c0.042,1.008 0.251,2.066 0.667,2.975c0.25,0.487 1.083,0.975 1.625,0.979c1.417,0.012 2.625,-0.746 3.792,-1.483c7.5,-4.855 14.583,-10.28 21.458,-16.05c6.042,-5.113 11.834,-10.484 16.667,-16.796c1.042,-1.359 2.25,-2.596 3.417,-3.838c3.125,-3.237 5.958,-6.683 8.624,-10.279c2.459,-3.312 4.834,-6.679 7.334,-9.95c7.208,-9.371 12.5,-19.708 15.625,-31.112c0.292,-0.996 0.625,-1.98 0.875,-2.975c1.125,-4.33 2.708,-8.521 4.5,-12.609c2.916,-6.608 5.792,-13.233 9.291,-19.55c1.334,-2.4 2.625,-4.85 3.792,-7.325c2.125,-4.346 3.958,-8.837 4.792,-13.587c0.875,-5.067 2.625,-9.971 2.833,-15.175c0.083,-1.692 0.667,-3.363 1.042,-5.038c1.583,-7.412 2.541,-14.883 2.708,-22.491c0.25,-11.342 0.75,-22.68 0.125,-32.675Zm-529.875,217.183c-0.125,0.004 -0.208,0.004 -0.333,0.008c-0,2.4 -0.125,4.809 0.041,7.2c0.167,2.746 0.501,5.475 0.126,8.229c-0.084,0.671 -0.084,1.392 0.083,2.05c0.666,3.021 1.292,6.042 2.083,9.025c0.25,0.963 0.875,1.88 1.875,2.338c1.292,0.554 2.5,1.3 3.792,1.592c4.417,0.987 8.458,2.787 12.375,4.987c1.208,0.667 2.5,1.221 3.833,1.504c5.042,1.084 9.875,2.984 15.167,2.825c2.375,-0.071 4.75,0.45 7.083,1.142c2,0.587 4,1.096 6,1.479c1.333,0.25 2.792,0.508 4.083,0.263c4.834,-0.917 9.584,-0.588 14.292,0.783c0.333,0.092 0.667,0.121 1,0.171c13.667,1.933 27.371,2.441 41.125,2.504c0.709,0.004 1.371,-0.083 2.084,-0.175c3.75,-0.483 7.537,-0.4 11.291,-0.196c5.163,0.288 10.329,0.317 15.459,0.008c4.829,-0.283 9.666,-0.208 14.416,0.642c3.084,0.546 6.083,0.533 9.163,-0.192c2.712,-0.641 5.504,-0.4 8.171,0.271c3.416,0.85 6.791,1.046 10.25,0.504c3.083,-0.483 6.124,-0.554 9.249,-0.079c3.417,0.525 6.834,0.238 10.209,-0.646c7.333,-1.912 14.791,-3.008 22.25,-4.17c2.042,-0.317 4.125,-0.442 6.125,-0.959c8.375,-2.183 16.958,-2.691 25.541,-3.083c8.917,-0.408 17.876,-0.608 26.792,-0.833c6.167,-0.155 12.375,-0.117 18.458,-1.5c1,-0.225 2.042,-0.2 3.084,-0.313c7.166,-0.808 14.333,-1.583 21.458,-2.708c7.125,-1.129 14.292,-1.946 21.375,-3.429c6.708,-1.409 13.417,-2.834 20.167,-4.267c0.666,-0.142 1.333,-0.363 1.958,-0.592c4.542,-1.604 9.125,-3.054 13.583,-4.887c5.417,-2.242 10.959,-3.954 16.792,-4.759c4.167,-0.575 7.917,-2.245 11.417,-4.537c0.917,-0.604 1.458,-1.492 1.583,-2.513c0.209,-1.345 0.25,-2.729 0.25,-4.1c0,-9.279 -0.167,-18.554 0.167,-27.837c0.333,-9.271 0.375,-18.554 1.708,-27.767c0.292,-2.037 0.292,-4.112 0.5,-6.162c0.334,-3.075 0.583,-6.163 1.125,-9.204c0.625,-3.75 0.833,-7.505 0.917,-11.292c0.125,-6.529 0.25,-13.063 0.5,-19.583c0.166,-3.78 0.5,-7.538 0.208,-11.325c-0.125,-1.7 -0.125,-3.471 0.209,-5.134c1.249,-6.429 1.541,-12.946 1.958,-19.458c0.875,-13.721 1.5,-27.45 1.708,-41.2c-0,-1.708 0.167,-3.438 0.459,-5.121c0.875,-4.754 1.083,-9.554 1.083,-14.371c0.041,-3.433 0.25,-6.866 0.333,-10.304c0.042,-2.404 0.042,-4.808 0.042,-7.212c-0.042,-3.434 -0.167,-6.867 -0.125,-10.305c0.125,-9.275 0.333,-18.554 0.5,-27.829c-0,-1.375 0.041,-2.754 -0.042,-4.125c-0.458,-7.2 -0.5,-14.425 -1.542,-21.587c-0.5,-3.413 -0.916,-6.825 0.209,-10.217c0.208,-0.642 0.25,-1.371 0.208,-2.046c-0.583,-6.504 -0.125,-13.05 -0.917,-19.554c-0.833,-6.479 -1.416,-12.979 -2.125,-19.471c-0.791,-7.166 -1.416,-14.346 -2.499,-21.487c-0.667,-4.467 -1.667,-8.738 -3.584,-12.829c-1.583,-3.425 -3,-6.938 -3.833,-10.646c-0.5,-2.409 -1.625,-4.5 -3.125,-6.434c-2.125,-2.737 -3.75,-5.716 -4.792,-9.058c-0.625,-1.95 -1.833,-3.658 -3.333,-5.15c-1.709,-1.696 -3.334,-3.479 -4.959,-5.229c-2.625,-2.754 -5.416,-5.271 -8.499,-7.496c-1.167,-0.867 -2.625,-0.958 -3.917,-0.462c-1.584,0.608 -3.25,1.312 -4.542,2.358c-5.375,4.271 -11.291,7.892 -15.75,13.237c-0.667,0.788 -1.458,1.488 -2.25,2.092c-5.291,3.896 -10.166,8.229 -14.583,13.054c-0.708,0.759 -1.459,1.479 -2.292,2.096c-4.458,3.317 -7.791,7.738 -11.375,11.883c-1.792,2.075 -3.292,4.413 -4.958,6.592c-0.833,1.088 -1.709,2.146 -2.667,3.117c-1.75,1.741 -3.791,2.946 -6.292,3.266c-3.083,0.388 -6.125,0.767 -9.208,1.271c-3.041,0.513 -6.125,0.742 -9.208,0.625c-5.833,-0.221 -11.709,0.109 -17.5,-0.891c-2.042,-0.35 -4.125,-0.317 -6.167,0.129c-4.416,0.983 -8.875,1.012 -13.333,0.846c-3.459,-0.13 -6.875,-0.071 -10.25,0.67c-3.459,0.759 -6.833,0.705 -10.209,-0.15c-2.999,-0.754 -6.041,-1.02 -9.208,-0.77c-3.75,0.295 -7.542,0.395 -11.292,-0.505c-0.958,-0.237 -2.041,-0.129 -3.041,0.063c-3.75,0.725 -7.5,0.862 -11.292,0.733c-1.75,-0.062 -3.416,0.225 -5.083,0.813c-4.875,1.771 -9.917,2.412 -15.083,2.762c-3.75,0.25 -7.542,0.279 -11.292,0.454c-2.792,0.125 -5.5,0.588 -8.042,1.763c-1.541,0.721 -3.083,1.487 -4.708,2.042c-1.625,0.554 -3.292,0.979 -4.963,1.241c-1.704,0.263 -3.454,0.279 -5.166,0.371c-2.125,0.104 -4.209,-0.304 -5.75,-1.754c-3.788,-3.492 -8.288,-6.129 -11.871,-9.904c-1.171,-1.234 -2.542,-2.321 -4,-3.188c-4.75,-2.796 -9.25,-5.975 -14.209,-8.337c-3.458,-1.625 -6.624,-3.638 -9.708,-5.829c-2.541,-1.788 -5.208,-3.338 -7.916,-4.817c-3.921,-2.146 -7.876,-4.288 -11.917,-6.146c-5.004,-2.296 -10.171,-4.254 -15.708,-4.704c-1.796,-0.146 -3.459,0.25 -4.459,1.904c-2.333,3.813 -4.792,7.533 -6.583,11.667c-0.792,1.875 -1.875,3.679 -3.084,5.329c-2.249,3.096 -4.041,6.4 -4.958,10.121c-0.583,2.354 -1.5,4.571 -2.583,6.712c-0.792,1.525 -1.708,3.004 -2.375,4.575c-1.792,4.088 -3.875,8.075 -4.75,12.492c-0.792,4.062 -2.084,7.975 -3.375,11.887c-1.542,4.555 -2.792,9.188 -3.584,13.955c-0.958,5.404 -1.916,10.862 -3.958,15.983c-1.166,2.958 -1.708,5.929 -1.666,9.046c0.124,5.225 -1.209,10.208 -2.459,15.204c-0.25,1 -0.75,1.937 -0.958,2.937c-1.084,5.021 -2.875,9.934 -2.709,15.167c0.25,9.017 -1.333,17.8 -3.291,26.529c-0.584,2.721 -0.917,5.409 -0.917,8.163c0.042,4.121 0.083,8.25 0.042,12.375c-0,2.404 -0.25,4.791 -0.959,7.125c-2.583,8.25 -3.791,16.729 -4.124,25.35c-0.126,2.4 -0.376,4.791 -0.667,7.183c-0.333,2.725 -0.459,5.5 -1.417,8.108c-2.041,5.555 -2.75,11.334 -3,17.192c-0.167,4.846 -0.833,9.588 -2.416,14.167c-1.751,4.933 -2.334,10.021 -2.375,15.208c-0,3.096 0.041,6.188 -0.042,9.279c-0.042,1.717 -0.084,3.442 -0.292,5.142c-0.5,4.092 -0.958,8.187 -1.667,12.25c-1.791,10.575 -2.374,21.15 -0.583,31.792c0.292,1.687 0.292,3.441 -0.25,5.108c-0.75,2.317 -0.541,4.808 -1.208,7.096c-0.75,2.766 -0.125,5.462 -0.25,8.179c-0.042,1.375 -0.083,2.771 -0.417,4.096c-1.125,4.758 -1,9.533 -0.458,14.346c0.25,2.033 0.25,4.104 0.333,6.158Zm422.833,383.717c-0.458,-10.38 -0.208,-21.734 -1.083,-33.055c-0.083,-1.029 -0.125,-2.066 -0.333,-3.075c-1.292,-6.808 -1.042,-13.695 -1.084,-20.566c-0.041,-9.625 0.042,-19.254 0.042,-28.884c-0.042,-3.445 0.209,-6.862 0.542,-10.287c0.458,-4.446 0.708,-8.908 1,-13.367c0.25,-3.783 0.208,-7.566 -0.209,-11.329c-0.749,-6.492 -1,-13.012 -1.416,-19.529c-0.167,-2.392 -0.375,-4.825 -0.917,-7.133c-0.792,-3.034 -1.083,-6.075 -1.25,-9.18c-0.333,-6.858 -0.417,-13.737 -1.5,-20.545c-0.375,-15.8 -1.875,-31.592 -0.208,-47.396c0.083,-0.684 0.166,-1.375 0.166,-2.054c-0.291,-7.925 0.667,-15.796 0.959,-23.696c0.041,-1.709 0.166,-3.479 -0.167,-5.134c-1.541,-7.82 -1.333,-15.737 -1.416,-23.637c-0.042,-0.688 -0,-1.375 0.041,-2.063c0.042,-2.07 -0.125,-4.133 -0.708,-6.12c-0.792,-2.675 -0.917,-5.413 -1,-8.167c-0.125,-5.154 -0.292,-10.313 -0.417,-15.467c-0.083,-2.766 -0.5,-5.483 -1.583,-8.054c-0.542,-1.317 -1.542,-2.217 -3,-2.496c-3.458,-0.658 -6.834,-0.662 -10.125,0.75c-1.292,0.538 -2.625,0.879 -3.917,1.321c-1.958,0.663 -3.958,1.121 -6.041,1.129c-3.834,0.013 -7.542,0.659 -11.251,1.392c-2.375,0.471 -4.749,0.787 -7.166,0.958c-2.417,0.171 -4.75,0.592 -7,1.417c-3.583,1.275 -7.417,1.354 -11.042,2.583c-3.583,1.213 -7.291,1.984 -10.958,2.988c-2.292,0.641 -4.625,1.112 -7.042,1.371c-2.042,0.212 -4.083,0.612 -6.042,1.22c-4.041,1.25 -8.166,1.496 -12.249,0.892c-6.542,-0.971 -13.042,-0.7 -19.542,0.196c-9.208,1.279 -18.5,1.442 -27.75,2.187c-0.667,0.055 -1.375,0.109 -2.042,0.067c-5.5,-0.329 -11,-0.167 -16.416,1.1c-4.792,0.158 -9.584,0.363 -14.417,0.463c-7.542,0.166 -15.084,0.216 -22.667,0.42c-2.041,0.055 -4.083,0.509 -6.125,0.725c-1.375,0.142 -2.792,0.48 -4.083,0.209c-3.125,-0.675 -6.125,-0.146 -9.167,0.416c-4.083,0.746 -8.166,1.334 -12.25,1.821c-5.458,0.654 -10.958,0.584 -16.462,0.446c-1.371,-0.037 -2.704,-0.425 -4.038,-0.717c-2.375,-0.512 -4.75,-0.995 -7.041,-1.629c-3.334,-0.916 -6.75,-1.341 -10.209,-1.412c-1.712,-0.038 -3.416,-0.138 -5.125,-0.354c-2.754,-0.355 -5.458,-0.013 -8.208,0.116c-6.588,0.313 -12.958,1.542 -19.333,3.059c-5.042,1.204 -10.13,1.916 -15.338,1.575c-2.042,-0.134 -4.125,-0.113 -6.163,0.108c-3.083,0.333 -6.166,0.15 -9.249,-0.346c-5.084,-0.829 -10.171,-1.671 -15.209,-2.621c-1.708,-0.312 -3.333,-0.929 -4.917,-1.521c-2.916,-1.075 -5.833,-2.087 -8.833,-2.9c-2.333,-0.625 -4.625,-1.283 -7.042,-1.404c-1.708,-0.079 -3.458,-0.162 -5.083,-0.791c-2.625,-1.034 -5.375,-1.113 -8.125,-1.03c-2.75,0.08 -5.5,-0.279 -8.083,-1.291c-1.625,-0.629 -3.292,-1.142 -5,-1.125c-3.5,0.037 -6.834,-0.788 -10.167,-1.542c-1.333,-0.296 -2.708,-0.225 -4.083,-0.271c-1.375,-0.037 -2.833,1.042 -3.083,2.234c-1.084,4.691 -2.251,9.362 -3.125,14.079c-0.584,3.033 -0.876,6.125 -1.084,9.204c-0.375,5.492 -0.5,10.992 -1.708,16.396c-0.292,1.325 -0.333,2.733 -0.333,4.1c-0,6.191 -0.834,12.35 -0.459,18.55c0.167,2.383 -0.333,4.8 -0.333,7.196c-0.084,6.187 -0.917,12.345 -0.583,18.545c0.041,1.363 -0.126,2.75 -0.292,4.117c-0.5,4.446 -0.875,8.888 -0.375,13.371c0.125,1.358 0.041,2.754 -0.042,4.121c-0.458,7.575 0.25,15.087 0.958,22.616c0.584,6.496 0.792,13.025 1,19.55c0.126,5.842 0.25,11.684 1.084,17.48c0.25,1.695 0.375,3.42 0.375,5.141c0.125,8.263 1.083,16.459 1.875,24.667c0.541,5.475 1.208,10.933 1.208,16.454c0,2.046 0.25,4.117 0.625,6.138c1.209,6.804 1.417,13.679 1.417,20.558c-0,10.654 -0.084,21.304 0.375,31.954c0.125,2.746 0.25,5.496 0.625,8.225c0.75,6.175 0.666,12.342 0.125,18.521c-0.167,2.05 -0.292,4.104 -0.5,6.154c-0.833,8.225 -1,16.463 -0.5,24.717c0.167,2.383 0.208,4.808 -0.5,7.154c-0.083,0.308 -0.375,0.558 -0.583,0.833c-0.209,-0.258 -0.542,-0.508 -0.542,-0.779c-0.209,-3.075 -0.417,-6.15 -0.5,-9.225c-0.167,-5.504 -0.209,-11.004 -0.333,-16.504c-0.084,-3.438 -0.376,-6.854 -0.75,-10.279c-0.709,-7.179 -1.292,-14.371 -1.376,-21.596c-0.041,-4.471 -0.083,-8.929 -1.208,-13.313c-0.458,-1.654 -0.541,-3.395 -0.667,-5.112c-0.583,-7.879 -1.25,-15.763 -1.625,-23.654c-0.333,-7.9 -0.416,-15.809 -0.5,-23.717c-0.124,-8.937 -0.333,-17.867 -1.208,-26.775c-0.333,-3.417 -0.375,-6.862 -0.5,-10.296c-0.083,-2.404 -0.042,-4.812 -0.125,-7.221c-0.167,-5.154 -0.417,-10.304 -0.583,-15.462c-0.167,-4.833 -1.459,-9.496 -2.042,-14.271c-0.667,-5.462 -0.791,-10.958 -1.5,-16.408c-0.166,-1.354 -0.083,-2.75 -0.042,-4.121c0.459,-10.992 0.751,-21.988 1.792,-32.942c0.5,-5.141 0.625,-10.296 0.583,-15.454c-0.083,-5.842 -0.124,-11.683 -0.124,-17.521c-0,-2.062 -0.042,-4.15 0.208,-6.179c1.708,-12.654 1.458,-25.383 1.541,-38.096c0.042,-1.371 0.084,-2.775 -0.166,-4.116c-0.583,-3.084 -0.417,-6.155 -0.25,-9.246c0.125,-1.817 -0.5,-3.334 -2.209,-4.309c-1.166,-0.683 -2.333,-1.412 -3.458,-2.208c-1.458,-1.008 -2.542,-2.396 -3.25,-3.942c-1.791,-3.745 -3.25,-7.6 -3.458,-11.804c-0.334,-5.141 -1.584,-10.196 -1.292,-15.396c0.084,-1.4 0.458,-2.637 1.042,-3.916c0.417,-0.917 0.083,-2.096 -0.792,-2.75c-4.417,-3.284 -8.625,-6.838 -12.421,-10.821c-3.321,-3.483 -6.495,-7.104 -9.666,-10.721c-3.846,-4.392 -7.58,-8.892 -11.459,-13.258c-3.65,-4.109 -7.429,-8.109 -11.15,-12.159c-1.162,-1.262 -2.462,-2.429 -3.454,-3.812c-2.6,-3.633 -5.333,-7.154 -8.2,-10.592c-1.754,-2.108 -3.262,-4.425 -4.296,-7.008c-0.383,-0.958 -0.85,-1.879 -1.304,-2.808c-1.512,-3.075 -3.266,-6.063 -4.529,-9.242c-3.538,-8.942 -7.212,-17.838 -10.129,-27.021c-1.559,-4.912 -3.296,-9.767 -4.959,-14.646c-0.329,-0.971 -0.824,-1.908 -1.045,-2.904c-1.634,-7.437 -4.642,-14.358 -7.821,-21.229c-3.217,-6.95 -4.958,-14.254 -5.208,-21.913c-0.071,-2.058 -0.196,-4.12 -0.201,-6.183c-0.004,-4.133 -0.258,-8.246 -0.841,-12.337c-0.871,-6.171 -0.713,-12.338 0.125,-18.505c0.417,-3.066 0.691,-6.145 1.016,-9.22c0.138,-1.367 0.1,-2.767 0.359,-4.113c2.017,-10.521 1.854,-21.204 2.425,-31.837c0.058,-1.03 0.008,-2.075 0.167,-3.088c0.741,-4.75 1.495,-9.504 2.329,-14.237c1.316,-7.467 3.6,-14.688 5.987,-21.855c1.083,-3.262 2.113,-6.55 2.917,-9.87c1.054,-4.359 2.483,-8.571 3.941,-12.792c0.9,-2.596 1.851,-5.179 2.634,-7.813c0.887,-2.987 2.158,-5.787 3.683,-8.491c2.875,-5.104 5.154,-10.459 6.613,-16.15c0.25,-0.996 0.458,-2.042 0.916,-2.946c5.146,-10.088 1.6,-10.483 12.292,-21.1c1.204,-1.196 2.121,-2.7 3.092,-4.117c1.362,-1.979 2.491,-4.133 3.991,-6.004c5.792,-7.25 11.667,-14.433 17.567,-21.6c2.183,-2.654 4.446,-5.246 6.792,-7.754c1.9,-2.033 3.508,-4.25 4.637,-6.775c0.854,-1.925 1.996,-3.592 3.584,-4.971c1.316,-1.142 2.279,-2.55 3.087,-4.083c1.321,-2.454 2.987,-4.609 5.154,-6.371c1.875,-1.533 3.375,-3.413 4.625,-5.496c2.125,-3.6 5.042,-6.496 8.292,-9.087c2.416,-1.921 4.583,-4.217 7.292,-5.713c5.499,-3.017 10.125,-7.154 14.624,-11.371c5.584,-5.233 11.876,-9.337 18.542,-12.941c4.208,-2.292 8.459,-4.53 12.542,-7.05c4.083,-2.505 8.5,-4.5 12.833,-6.613c3.084,-1.508 6.209,-2.975 9.708,-3.308c6.834,-2.325 13.792,-4.267 20.709,-6.288c4.375,-2.196 9.162,-2.925 13.871,-3.762c4.708,-0.842 9.462,-1.525 14.296,-1.979c8.208,-0.784 16.291,-2.271 24.041,-5.267c1.625,-0.625 3.288,-1.021 5,-1.188c1.042,-0.104 2.125,-0.033 3.083,-0.354c5.001,-1.683 10.167,-1.596 15.292,-1.604c6.917,-0.004 13.75,-0.567 20.583,-1.312c12.625,-1.38 25.292,-2.725 37.959,-3.755c4.458,-0.358 8.916,-0.833 13.375,0.171c2.708,0.613 5.5,0.459 8.166,-0.146c6.125,-1.383 12.292,-1.058 18.501,-0.891c6.874,0.183 13.624,1.529 20.499,1.929c3.667,0.875 7.375,1.646 11,2.671c2,0.562 3.959,1.1 6.042,1.196c0.667,0.033 1.417,0.029 2.042,0.27c4.833,1.913 10.083,2.08 15.083,3.175c3.708,0.809 7.334,1.971 11.083,2.363c3.792,0.404 7.334,1.712 11.042,2.487c3,0.634 5.959,1.442 9.084,1.825c5.083,0.63 10.208,1.542 15.208,2.771c3,0.742 6,1.371 9.083,1.575c2.083,0.138 4.083,0.467 6.083,1.121c1.292,0.429 2.625,0.75 4.001,0.875c4.499,0.417 8.583,2.392 12.833,3.617c1.292,0.366 2.541,1.129 3.625,1.958c2.458,1.921 4.958,3.596 8.083,4.267c1.333,0.287 2.584,0.937 3.875,1.475c3.167,1.35 6.125,3.041 8.459,5.683c1.916,2.104 4.416,3.183 7.208,3.738c8.875,1.762 17.166,4.875 24.458,10.345c1.083,0.809 2.375,1.446 3.625,1.9c4.75,1.675 8.125,5.1 11.292,8.717c0.917,1.008 1.666,2.275 2.042,3.55c1.166,3.729 3.458,6.658 5.999,9.513c2.751,3.083 5.542,6.116 8.75,8.716c2.959,2.404 5.417,5.296 7.917,8.096c0.917,1.017 1.792,2.121 2.5,3.283c2,3.205 3.917,6.442 6.167,9.492c2.25,3.021 4.042,6.363 6.375,9.346c1.083,1.346 1.875,2.9 2.708,4.404c2.292,4.213 4.375,8.571 7.125,12.542c0.75,1.116 1.292,2.412 1.834,3.679c2.583,6.017 5.541,11.842 9.041,17.358c3.917,6.254 5.917,13.104 7.417,20.171c0.583,2.696 1.041,5.375 2,7.975c1.917,5.175 2.417,10.713 4.042,15.967c0.208,0.65 0.291,1.341 0.375,2.021c0.874,10.27 2.041,20.52 2.333,30.833c0.166,5.842 0.458,11.679 0.583,17.521c0.042,2.404 -0.166,4.808 -0.208,7.212c-0.083,4.467 -0.209,8.934 1.042,13.313c0.375,1.304 0.416,2.716 0.458,4.087c0.125,4.809 0.208,9.621 0.208,14.434c-0.042,2.054 -0.125,4.162 -0.625,6.137c-0.958,4.063 -1.041,8.167 -1.083,12.288c-0.083,6.191 -0.125,12.379 -0.167,18.566c0,2.429 -0.416,4.767 -1.25,7.067c-0.708,1.929 -1.125,3.967 -1.75,5.921c-0.666,1.979 -1,3.996 -1.041,6.075c-0.084,3.808 -0.751,7.491 -2.042,11.1c-0.917,2.583 -1.625,5.254 -2.25,7.929c-0.625,2.692 -1.5,5.283 -2.5,7.85c-2,5.117 -3.875,10.283 -5,15.687c-0.542,2.73 -1.584,5.263 -2.959,7.655c-1.75,2.975 -3.416,5.958 -4.291,9.337c-0.333,1.304 -1.125,2.504 -1.708,3.729c-3.875,7.663 -8.042,15.184 -11.542,23.021c-1.834,4.071 -4.167,7.875 -7.167,11.271c-2.75,3.096 -4.875,6.65 -6.875,10.267c-1.166,2.112 -2.417,4.175 -4.25,5.808c-2.583,2.325 -4.625,5.083 -6.5,7.967c-2.458,3.758 -5.416,7.045 -8.708,10.137c-5.5,5.179 -10.875,10.517 -16.167,15.929c-3.958,4.075 -8.542,6.85 -14.25,7.604c-1.708,0.234 -3.291,0.821 -4.75,1.834c-1.166,0.812 -2.166,1.796 -2.375,3.216c-0.833,5.425 -1.833,10.825 -1.708,16.367c0.041,2.733 -0.375,5.475 -0.542,8.217c-0.333,5.225 -1.583,10.216 -4.083,14.808c-1.542,2.858 -1.917,5.804 -1.75,8.954c0.333,5.838 0.333,11.675 0.166,17.529c-0.124,4.8 -0.291,9.621 0.292,14.425c0.333,2.742 0.167,5.488 -0.041,8.234c-0.459,5.846 -0.375,11.654 0.708,17.462c0.541,3.021 0.625,6.159 0.666,9.242c0.126,12.037 0.292,24.075 0.167,36.104c-0.041,5.529 0.292,10.996 1.084,16.442c0.458,3.066 0.749,6.129 0.916,9.225c0.167,2.741 0.333,5.521 0.917,8.187c1.541,7.138 1.5,14.342 1.292,21.559c-0.126,4.12 -0.417,8.241 -0.667,12.362c-0.167,3.458 -0.042,6.896 1.083,10.188c0.958,2.641 1.209,5.341 1.25,8.112c0.083,6.529 0.208,13.054 0.375,19.588c0.042,2.075 -0.167,4.112 -0.625,6.133c-0.375,1.679 -0.791,3.35 -1.083,5.037c-0.584,3.05 -0.792,6.105 -0.75,9.225c0.417,21.313 0.542,42.634 0,63.946c-0.125,4.821 0.083,9.625 0.458,14.421c0.5,6.163 1.25,12.308 1.875,18.463c0.167,1.708 0.25,3.429 0.375,5.137c0.25,2.738 0.458,5.475 0.708,8.217c0.167,1.708 0.459,3.412 0.459,5.121c-0,4.129 0.083,8.241 0.792,12.333c0.333,2.033 0.124,4.112 -0.5,6.117c-0.459,1.412 -1.459,2.333 -2.834,2.687c-1.583,0.404 -3.75,-0.596 -4.5,-1.871c-1.583,-2.729 -2.458,-5.616 -2.458,-8.816c0.083,-9.63 -0.208,-19.255 0.333,-28.875c0.084,-1.034 0.125,-2.063 0.208,-4.05Z" style="fill:#231f20;fill-rule:nonzero;"/><path d="M3875.85,2205.89c0.125,-4.121 -0,-8.238 -0.083,-12.367c-0.334,-11.683 -0.417,-23.379 -0.584,-35.071c-0.083,-10.312 -0.125,-20.629 -0.25,-30.941c-0.041,-2.4 0.042,-4.867 -0.458,-7.188c-1.042,-4.75 -1.208,-9.546 -1.375,-14.35c-0.292,-7.229 -1.625,-14.342 -2.292,-21.521c-1.417,-4.275 -1.583,-8.783 -2.542,-13.141c-0.624,-3.034 -1.208,-6.063 -1.541,-9.142c-0.167,-1.342 -0.542,-2.692 -1.042,-3.963c-3.791,-9.77 -9.792,-23.095 -13.5,-30.07c-0.5,-0.905 -1.083,-1.767 -1.667,-2.605c-4.791,-6.725 -9.541,-13.445 -14.375,-20.158c-0.583,-0.833 -1.208,-1.675 -1.916,-2.392c-3.708,-3.595 -7.417,-7.162 -11.167,-10.729c-1.5,-1.433 -3.083,-2.716 -4.875,-3.771c-1.166,-0.695 -2.417,-1.408 -3.375,-2.354c-3.416,-3.3 -7.417,-4.629 -12.167,-4.737c-6.166,-0.134 -12.333,-0.592 -18.374,-2.192c-3.667,-0.967 -7.584,-1.004 -11.251,0.058c-4.416,1.271 -8.833,1.613 -13.249,0.9c-3.834,-0.616 -7.584,-0.3 -11.251,0.667c-5.625,1.483 -11.291,2.963 -16.999,4.154c-2.751,0.567 -5.292,1.746 -7.459,3.413c-4.167,3.196 -8.833,5.296 -13.833,6.75c-2.334,0.687 -4.459,1.683 -6.584,2.825c-3.958,2.112 -7.916,4.146 -11.833,6.308c-3,1.663 -6.041,3.325 -8.875,5.254c-4.837,3.292 -9.583,6.659 -14.212,10.246c-3.788,2.954 -7.329,6.221 -9.746,10.521c-0.671,1.196 -1.629,2.237 -2.292,3.429c-2.25,3.938 -5.25,7.188 -8.542,10.254c-9.004,8.413 -9.004,8.446 -15.458,19.117c-0.879,1.467 -1.708,2.975 -2.666,4.396c-5.463,8.054 -8.792,17.087 -12.375,26.016c-0.125,0.317 -0.251,0.646 -0.334,0.98c-1,4.75 -3.083,9.091 -5.083,13.475c-2.542,5.629 -4.834,11.341 -6.004,17.5c-0.579,3.358 -1.788,6.608 -2.788,9.904c-1.5,4.954 -2.458,9.991 -2.792,15.166c-0.291,4.796 -0.541,9.584 -1.874,14.271c-0.751,2.634 -0.751,5.442 -0.584,8.2c0.125,1.713 0.209,3.434 0.417,5.138c0.412,3.1 0.292,6.175 -0.292,9.233c-0.25,1.35 -0.458,2.713 -0.708,4.067c-0.292,1.366 -0.292,2.712 -0,4.083c0.329,1.679 0.667,3.375 0.912,5.075c0.629,4.138 0.5,8.233 -0.996,12.192c-0.67,1.646 -0.833,3.308 -0.629,5.046c0.171,1.712 0.38,3.42 0.463,5.133c0.079,1.362 0.121,2.771 -0.125,4.096c-0.542,2.721 -0.709,5.454 -0.796,8.204c-0.121,3.45 -0,6.862 1.087,10.2c0.5,1.633 0.834,3.342 1.084,5.037c0.25,1.692 0.371,3.409 0.458,5.117c0.042,2.058 -0.087,4.121 -0.046,6.179c0,2.746 -0.245,5.55 0.255,8.217c0.416,2.308 1.787,4.425 2.583,6.683c0.333,0.963 0.204,2.042 -0.417,2.938c-0.421,0.554 -0.792,1.175 -1.292,1.587c-1.374,1.071 -2.874,1.871 -4.583,2.317c-0.796,0.217 -2.254,-0.513 -2.5,-1.325c-0.296,-0.988 -0.708,-1.946 -0.837,-2.946c-0.704,-5.467 -1.625,-10.862 -3.246,-16.154c-0.921,-2.946 -1.421,-6.025 -1.963,-9.063c-0.287,-1.679 -0.454,-3.412 -0.454,-5.12c0,-3.092 0.167,-6.184 0.334,-9.271c0.12,-2.4 0.375,-4.8 0.5,-7.2c0.249,-3.792 0.162,-7.55 -0.751,-11.279c-0.629,-2.667 -1.041,-5.4 -1.625,-8.084c-0.708,-3.412 -0.958,-6.833 -0.124,-10.229c0.958,-3.762 0.875,-7.462 0.041,-11.233c-0.625,-3.034 -0.791,-6.146 -0.5,-9.238c0.542,-5.5 0.375,-10.996 0.167,-16.491c-0.167,-4.48 -0,-8.88 1.167,-13.288c1.083,-3.967 1.625,-8.083 2.125,-12.175c0.458,-3.817 1.5,-7.475 3.166,-10.85c3.625,-7.483 6.125,-15.279 7.371,-23.492c0.421,-2.762 1.542,-5.304 2.754,-7.75c2.125,-4.32 3.959,-8.766 5.75,-13.233c2.667,-6.725 6.163,-13.017 10.246,-19.017c6.792,-9.945 13.583,-19.879 21.046,-29.312c2.167,-2.688 4.292,-5.392 6.537,-7.967c3.879,-4.387 7.875,-8.654 11.755,-13.016c3.454,-3.884 7.291,-7.309 11.833,-9.888c4.208,-2.392 8.042,-5.296 11.792,-8.287c4.625,-3.65 9.541,-6.725 14.916,-9.15c2.167,-0.996 4.334,-2.088 6.417,-3.288c4.208,-2.412 8.708,-4.092 13.25,-5.679c3.208,-1.125 6.542,-2.038 9.75,-3.258c8.75,-3.342 17.833,-5.084 27.208,-5.367c5.125,-0.154 10.292,-0.446 15.459,-0.588c5.833,-0.158 11.666,-0.22 17.5,0.338c2.75,0.267 5.458,0.608 8.208,0.962c2.708,0.35 5.417,0.946 8.166,1.1c6.709,0.371 12.75,2.805 18.334,6.271c6.417,3.984 12.333,8.642 17.333,14.429c4.083,4.692 8,9.45 11.25,14.746c1.959,3.225 3.708,6.592 5.917,9.65c2.041,2.821 3.208,6.075 5.083,8.946c1.917,2.917 3.25,5.996 3.834,9.471c0.333,2.004 1.25,3.925 1.958,5.858c0.833,2.25 1.875,4.442 2.625,6.713c1.541,4.541 2.958,9.108 3.875,13.846c0.958,4.716 1.625,9.487 2.875,14.145c0.833,2.959 1,6.096 1.416,9.163c0.209,1.696 0.292,3.412 0.5,5.125c0.667,6.162 2.001,12.221 3.709,18.142c1.458,4.987 2.208,10.07 3.083,15.141c0.292,1.692 0.208,3.467 0.625,5.109c1.583,6.062 1.667,12.237 1.709,18.425c0.041,1.72 0.041,3.458 0.291,5.15c1.25,7.833 1.25,15.75 1.792,23.633c0.333,5.137 0.416,10.3 0.5,15.458c0.167,8.25 0.291,16.5 1.208,24.713c0.459,4.479 0.459,8.975 -0.375,13.362c-1.542,7.809 -1.833,15.704 -1.958,23.609c-0.084,4.47 -0.333,8.929 -0.75,13.383c-0.209,2.392 -0.417,4.812 -0.292,7.204c0.25,4.496 -0.458,8.921 -0.791,13.371c-0.209,2.508 -1.751,4.408 -3.917,5.762c-1.125,0.7 -2.917,0.525 -3.75,-0.458c-0.667,-0.783 -1.375,-1.617 -1.417,-2.671c-0.25,-3.079 -0.5,-6.166 -0.542,-9.254c-0.041,-8.596 0,-17.192 -0.041,-25.787c-0,-1.721 0.167,-3.455 -0,-5.155c-0.75,-6.875 -0.167,-13.737 0.083,-20.604c0.333,-7.9 0.458,-15.808 0.667,-23.712Z" style="fill:#231f20;fill-rule:nonzero;"/><path d="M3823.68,1687.65c0.25,-3.22 0.584,-4.95 0.417,-6.641c-0.417,-5.471 -0.375,-11 -1.958,-16.342c-0.459,-1.646 -0.875,-3.346 -1,-5.046c-0.5,-5.166 -1.959,-10.1 -3.209,-15.104c-1.25,-5.096 -3.416,-9.683 -6.375,-13.962c-1.375,-1.975 -2.916,-3.842 -4.167,-5.884c-3.291,-5.341 -7.75,-9.604 -12.458,-13.612c-5,-4.242 -10.375,-7.929 -16.75,-9.959c-1.917,-0.629 -3.75,-1.641 -5.625,-2.47c-1.916,-0.834 -3.916,-1.35 -6,-1.517c-5.458,-0.45 -10.916,-0.738 -16.375,-1.808c-4.75,-0.946 -9.583,-0.321 -14.125,1.57c-2.25,0.917 -4.458,1.846 -6.625,2.867c-2.208,1.021 -4.208,2.313 -5.917,4.058c-3.166,3.2 -6.583,6.071 -10.249,8.613c-2.542,1.746 -5.334,3.104 -7.876,4.829c-2.625,1.771 -3.708,4.925 -5.958,7.058c-0.75,0.705 -1.625,1.313 -2.333,2.034c-0.958,0.966 -2,1.904 -2.75,3.025c-1.584,2.262 -3.125,4.558 -4.375,6.979c-1.459,2.717 -2.75,5.5 -3.375,8.604c-1.171,6.063 -2.333,12.125 -3.167,18.246c-0.375,2.379 -0.708,4.767 -1.291,7.087c-0.667,2.696 -0.709,5.446 -1.167,8.15c-0.458,2.705 -1.125,5.367 -1.709,8.046c-0.087,0.334 -0.087,0.684 -0.087,1.025c-0.458,7.213 -0.913,14.417 0.838,21.542c0.245,1 0.333,2.033 0.5,3.054c0.958,6.488 2.458,12.792 5.624,18.629c0.792,1.496 1.251,3.184 1.792,4.813c1.667,5.287 3.833,10.287 7.583,14.483c0.917,1.013 1.667,2.204 2.375,3.371c2.25,3.587 5.334,6.296 8.959,8.346c6.916,3.879 14,7.337 21.458,9.971c4.292,1.512 8.708,1.983 13.209,1.4c2.749,-0.346 5.458,-0.759 8.208,-0.8c4.208,-0.071 8.125,-1.125 12,-2.684c2.875,-1.158 5.666,-2.446 8.708,-3.196c1.292,-0.333 2.583,-0.925 3.792,-1.533c4.333,-2.117 8.625,-4.262 12.875,-6.471c1.541,-0.787 3.083,-1.612 4.375,-2.704c3.167,-2.646 5.875,-5.779 9.5,-7.871c0.833,-0.491 1.417,-1.446 2.083,-2.237c1.292,-1.584 2.5,-3.288 3.875,-4.804c2.834,-3.059 5.125,-6.488 7.292,-9.975c3.666,-5.875 6.542,-12.092 7.291,-19.096c0.126,-1.367 0.334,-2.742 0.667,-4.063c1.25,-4.7 1.458,-9.496 1.5,-14.316c0.042,-2.405 0,-4.809 0,-5.705Zm-152.837,7.167l-0,-6.179c-0.042,-5.175 0.379,-10.25 2.004,-15.238c1.333,-4.275 1.662,-8.745 1.621,-13.237c-0.038,-1.717 -0.079,-3.438 -0,-5.146c0.129,-2.058 0.541,-4.083 1.504,-5.958c0.875,-1.846 1.791,-3.709 2.791,-5.488c3.08,-5.358 6.084,-10.758 8.584,-16.429c1.25,-2.887 3.042,-5.358 5.5,-7.337c0.541,-0.425 1.125,-0.821 1.541,-1.342c4.667,-5.6 10.626,-9.725 16.334,-14.104c5.458,-4.171 10.958,-8.271 16.458,-12.392c1.625,-1.237 3.459,-2.129 5.459,-2.792c5.958,-1.975 12,-2.687 18.25,-2.104c3.75,0.354 7.541,0.409 11.291,0.704c2.417,0.184 4.792,0.484 7.167,0.871c1.333,0.217 2.666,0.592 3.958,1.113c4.125,1.696 8.167,3.541 12.292,5.237c2.916,1.196 5.5,2.863 7.708,5.017c2.25,2.158 4.583,4.129 7.084,5.971c1.374,1.012 2.666,2.183 3.791,3.487c2.875,3.404 5.875,6.754 8.333,10.434c4.417,6.529 8.792,13.108 11.751,20.5c1.249,3.195 2.416,6.416 2.75,9.883c0.249,2.75 1.083,5.358 1.916,7.987c2,6.246 3.042,12.667 3.125,19.234c0,1.371 -0.125,2.812 0.25,4.096c1.417,5.058 0.834,10.241 1.208,15.358c0.334,4.879 -0.833,9.558 -1.999,14.217c-0.251,0.97 -0.751,1.958 -1.334,2.745c-1.542,1.905 -2.583,4.059 -3.708,6.175c-1.917,3.646 -4.042,7.155 -6.375,10.58c-1.709,2.562 -3.334,5.191 -4.792,7.92c-2.375,4.58 -5.375,8.775 -8.291,13.017c-1.167,1.713 -2.584,3.25 -4.417,4.213c-3.084,1.587 -5.709,3.833 -8.292,6.075c-4.458,3.854 -9.583,6.62 -14.666,9.47c-1.501,0.83 -3.167,1.417 -4.792,1.892c-3.959,1.154 -7.833,2.542 -11.667,4.042c-1.958,0.758 -3.958,1.146 -6,1.212c-3.458,0.104 -6.791,0.596 -10.125,1.625c-5.375,1.65 -10.791,1.567 -16.208,-0.158c-2.958,-0.933 -6,-1.508 -8.917,-2.4c-2.958,-0.892 -5.833,-2.063 -8.792,-2.958c-4.958,-1.5 -9.583,-3.692 -14.249,-5.838c-3.209,-1.462 -5.792,-3.654 -7.959,-6.387c-0.458,-0.538 -0.875,-1.071 -1.25,-1.638c-6.796,-9.737 -7.292,-6.6 -11.083,-21.687c-0.083,-0.33 -0.25,-0.646 -0.375,-0.963c-3.5,-8.287 -4.625,-17.2 -6.75,-25.85c-0.588,-2.304 -0.629,-4.758 -0.708,-7.15c-0.125,-3.433 -0.042,-6.871 -0.042,-10.3l0.121,0Z" style="fill:#231f20;fill-rule:nonzero;"/><path d="M3585.85,1528c0.333,-0.083 1.704,-0.283 3,-0.695c3.583,-1.146 7.208,-1.913 10.917,-2.555c3.329,-0.575 6.75,-1.216 9.833,-2.704c4.666,-2.208 9.458,-3.875 14.371,-5.366c1.129,-0.346 1.541,-2.463 0.754,-3.505c-2.458,-3.358 -5.463,-6.008 -9.5,-7.395c-5.5,-1.888 -10.667,-4.538 -15.625,-7.546c-0.875,-0.529 -1.833,-0.909 -2.754,-1.363c-0.663,-0.337 -2.288,0.063 -2.788,0.725c-0.583,0.813 -1.296,1.6 -1.708,2.504c-3.458,7.409 -6.834,14.846 -10.25,22.275c-0.125,0.309 -0.209,0.655 -0.25,0.992c-0.125,0.671 -0.25,1.346 -0.292,2.021c-0.125,1.8 1.5,3.2 4.292,2.612Zm7.871,-41.966c4.25,-0.154 7.171,0.687 9.916,2.283c2.046,1.213 4.167,2.396 6.25,3.571c3.296,1.85 6.546,3.787 10.129,5.071c0.959,0.346 1.871,0.821 2.834,1.241c3.542,1.555 6.5,3.888 8.912,6.846c1.084,1.317 2.125,2.704 3.046,4.163c0.5,0.854 0.917,1.887 1.042,2.883c0.579,4.817 -1.042,8.792 -4.875,11.779c-0.542,0.404 -1.254,0.629 -1.875,0.809c-2.334,0.625 -4.875,0.008 -7.084,1.108c-2.17,1.062 -4.254,2.267 -6.379,3.392c-2.745,1.45 -5.537,2.845 -8.579,3.408c-8.458,1.558 -16.75,3.942 -25.083,5.875c-4.375,1.004 -6.042,-0.088 -7.417,-4.783c-0.167,-0.663 -0.417,-1.321 -0.5,-1.996c-0.083,-1.013 -0.291,-2.121 0,-3.05c1.333,-4.279 1.917,-8.729 3.042,-13.054c1.708,-6.671 3.958,-13.146 7,-19.33c1.208,-2.462 2.412,-4.937 3.583,-7.42c0.829,-1.688 2.125,-2.646 3.996,-2.784c1.042,-0.075 2.083,-0.012 2.042,-0.012Z" style="fill:#231f20;fill-rule:nonzero;"/><path d="M3903.06,1507.49c2.208,0.071 3.875,-0.167 5.5,-0.842c0.875,-0.354 1.584,-1.546 1.417,-2.479c-0.084,-0.671 -0.084,-1.396 -0.333,-2.008c-2.834,-7 -6.042,-13.821 -9.626,-20.471c-0.458,-0.892 -1.208,-1.658 -1.833,-2.471c-0.625,-0.858 -2.041,-1.187 -2.667,-0.629c-2.333,2.037 -4.624,4.087 -7.208,5.787c-1.416,0.942 -2.667,2.13 -3.666,3.575c-2.126,3.159 -4.709,5.867 -7.667,8.275c-0.5,0.417 -0.917,1.009 -1.208,1.609c-0.334,0.687 -0.209,1.416 0.249,1.85c1.292,1.204 2.917,1.862 4.584,2.204c5.375,1.112 10.708,2.375 15.875,4.183c2.25,0.784 4.708,1.025 6.583,1.417Zm5.209,8.75c-3.001,0.467 -6.626,-0.479 -10.334,-1.204c-7.416,-1.454 -14.666,-3.271 -21.792,-5.709c-2,-0.687 -3.999,-0.733 -6.041,-0.275c-2.334,0.517 -4.542,1.48 -7,1.446c-1.125,-0.016 -2.667,-1.371 -2.709,-2.571c-0.124,-3.129 0.459,-6.1 2.042,-8.841c0.5,-0.884 1,-1.784 1.667,-2.571c0.625,-0.783 1.5,-1.404 2.208,-2.138c2.583,-2.712 5.042,-5.562 7.792,-8.125c2.708,-2.566 5.708,-4.9 8.625,-7.241c3.208,-2.554 6.375,-5.184 9.333,-8.046c0.917,-0.917 2.208,-1.533 3.458,-2.129c2.251,-1.117 3.876,-0.459 5.667,0.962c1.875,1.509 3.208,3.534 4.375,5.638c0.625,1.191 1.167,2.458 1.667,3.729c1.625,4.146 3.5,8.167 5.583,12.096c2.792,5.191 3.833,10.937 5.25,16.558c0.375,1.625 0.25,3.396 0.292,5.1c-0,1.838 -2.209,3.829 -4.167,3.738c-1.708,-0.075 -3.416,-0.238 -5.916,-0.417Z" style="fill:#231f20;fill-rule:nonzero;"/><path d="M3898.48,1653.22c-2.833,-0.116 -5.25,1.079 -7.625,2.4c-0.5,0.288 -0.917,1.004 -1.125,1.613c-0.833,2.75 -0.333,5.304 1.375,7.625c0.917,1.283 3.042,2.029 4.458,1.687c3.458,-0.808 6.25,-2.541 8.042,-5.637c0.708,-1.204 0.791,-2.546 0.25,-3.875c-1.042,-2.517 -2.917,-3.834 -5.375,-3.813Zm-0.875,-8.875c1.792,0.217 3.875,0.375 5.875,0.746c2.791,0.521 5.041,2.013 6.708,4.379c0.375,0.567 0.75,1.138 1.125,1.709c2.167,3.266 3.042,6.862 2.917,10.741c-0.084,2.496 -0.75,4.892 -2.667,6.479c-2.416,2.017 -4,4.667 -5.916,7.046c-1.125,1.384 -2.625,2.246 -4.334,2.542c-1.667,0.287 -3.417,0.625 -5.083,0.525c-2.375,-0.142 -4.75,-0.6 -7.125,-1.046c-1.708,-0.325 -3.25,-1.137 -4.625,-2.179c-0.792,-0.604 -1.625,-1.317 -2.125,-2.175c-1.875,-3.308 -3.125,-6.792 -3.125,-10.717c-0,-3.841 0.541,-7.504 2.166,-10.996c0.917,-1.908 2.167,-3.475 4.042,-4.52c1.792,-1.009 3.667,-1.842 5.75,-2.025c2.042,-0.184 4.125,-0.33 6.417,-0.509Z" style="fill:#231f20;fill-rule:nonzero;"/><path d="M3619.02,1663.56l-0,-3.404c-0,-4.1 -3.38,-6.4 -6.292,-6.784c-1.042,-0.133 -2.042,-0.154 -3.042,-0.179c-1.379,-0.033 -2.708,0.279 -3.833,1.088c-1.129,0.787 -2.213,1.587 -3.171,2.504c-0.996,0.929 -1.704,2.116 -1.996,3.475c-0.25,1.321 -0.583,2.65 -0.712,3.991c-0.163,1.734 0.337,3.388 1.379,4.771c0.787,1.063 1.746,2.046 2.75,2.921c1.079,0.925 2.458,1.258 3.833,1.017c3.375,-0.592 6.459,-1.863 9.042,-4.267c1,-0.95 1.708,-2.092 1.916,-3.475c0.126,-1 0.167,-2.021 0.126,-1.658Zm-14.417,17.941c-1.375,0 -2.75,0.121 -4.088,-0.037c-1.412,-0.158 -2.496,-1 -3.329,-2.142c-0.208,-0.275 -0.458,-0.537 -0.583,-0.833c-0.5,-0.9 -1,-1.8 -1.417,-2.725c-2.292,-4.804 -2.792,-9.808 -1.583,-14.967c0.375,-1.654 0.917,-3.275 1.375,-4.912c1.954,-2.354 3.208,-5.221 5.375,-7.413c2.542,-2.541 5.5,-3.833 9.166,-3.825c4.209,0.004 8.126,1.013 11.83,2.884c3.462,1.762 5.962,4.662 7.129,8.345c0.958,2.921 1.042,6.038 0.5,9.113c-0.042,0.329 -0.167,0.662 -0.296,0.967c-0.454,0.916 -0.954,1.812 -1.413,2.733c-2.499,5.142 -6.666,8.525 -11.749,10.921c-2.792,1.325 -5.75,2.141 -8.875,2.025c-0.709,-0.025 -1.38,-0.004 -2.042,-0.004l0,-0.13Z" style="fill:#231f20;fill-rule:nonzero;"/><path d="M3745.43,1642.49c-0.083,0.008 -0.458,-0.033 -0.791,0.071c-0.625,0.212 -1.5,0.342 -1.792,0.804c-0.25,0.438 -0.125,1.421 0.25,1.888c2,2.766 4.125,5.466 6.25,8.154c0.417,0.512 1.042,0.871 1.625,1.25c0.625,0.446 1.291,0.466 1.917,0.041c2.541,-1.837 4.374,-4.279 5.791,-7.07c0.375,-0.763 -0.208,-2.284 -1,-2.542c-3.917,-1.275 -7.791,-2.638 -12.25,-2.596Zm-10.166,-11.912c2.583,0.541 5.291,1.016 7.958,1.695c8.333,2.138 16.75,3.6 25.292,4.621c1.791,0.213 3.291,0.875 4.624,2.029c2.167,1.867 2.292,5.488 0.251,7.346c-0.501,0.463 -0.959,0.984 -1.542,1.359c-2.875,1.92 -5.333,4.312 -7.417,7.075c-2.917,3.891 -6.833,6.708 -10.458,9.841c-0.75,0.654 -2,0.654 -2.959,0.154c-1.208,-0.625 -2.5,-1.216 -3.458,-2.15c-4.667,-4.545 -9.333,-9.133 -13.833,-13.841c-2.625,-2.738 -4.75,-5.904 -6.459,-9.271c-0.458,-0.879 -0.583,-1.971 -0.666,-2.979c-0.042,-0.634 0.125,-1.446 0.5,-1.917c1.333,-1.608 3.083,-2.717 5,-3.496c0.916,-0.375 2,-0.312 3.167,-0.466Z" style="fill:#231f20;fill-rule:nonzero;"/><path d="M3749.06,1696.23c0,-6.155 0,-12.305 0.042,-18.459c-0,-1.362 0.292,-2.691 0.833,-3.971c0.5,-1.1 2.292,-1.895 3.459,-1.408c1.999,0.858 3.416,2.267 3.791,4.458c0.25,1.338 0.5,2.721 0.417,4.059c-0.209,2.721 -0.5,5.45 -0.958,8.141c-1.459,8.488 -1.751,16.984 -0.542,25.521c0.042,0.334 -0,0.675 0.042,1.013c0.083,1.329 -1.751,2.958 -3.376,3.258c-1.374,0.242 -2.916,-1.054 -3.083,-2.129c-0.542,-3.392 -0.583,-6.804 -0.5,-10.225c0.084,-2.05 0.167,-4.104 0.167,-6.158c0.042,-1.367 0.042,-2.734 0.042,-4.1l-0.334,-0Z" style="fill:#231f20;fill-rule:nonzero;"/><path d="M3752.39,1727.12c1.249,0.346 2.583,0.575 3.833,1.075c3.833,1.584 4.708,6.084 1.875,9.113c-0.25,0.241 -0.5,0.483 -0.75,0.675c-1.167,0.812 -2.375,1.271 -3.792,0.741c-0.917,-0.358 -1.833,-0.766 -2.791,-1.17c-3.792,-1.675 -4.042,-6.238 -1.209,-9.284c0.625,-0.65 1.792,-0.754 2.834,-1.15Z" style="fill:#231f20;fill-rule:nonzero;"/></svg>