<?xml version="1.0" encoding="UTF-8" standalone="no"?><!DOCTYPE svg PUBLIC "-//W3C//DTD SVG 1.1//EN" "http://www.w3.org/Graphics/SVG/1.1/DTD/svg11.dtd"><svg width="100%" height="100%" viewBox="0 0 1597 1598" version="1.1" xmlns="http://www.w3.org/2000/svg" xmlns:xlink="http://www.w3.org/1999/xlink" xml:space="preserve" xmlns:serif="http://www.serif.com/" style="fill-rule:evenodd;clip-rule:evenodd;stroke-linejoin:round;stroke-miterlimit:2;"><g><rect x="125" y="125" width="1471.98" height="1472" style="fill:#c5b38b;fill-rule:nonzero;"/><path d="M1471.98,180.667l-180.662,-180.667l-53.354,0l234.016,234.042l0,-53.375Z" style="fill-rule:nonzero;"/><path d="M1471.98,0l-53.354,0l53.354,53.375l0,-53.375Z" style="fill-rule:nonzero;"/><path d="M1471.98,361.333l-361.325,-361.333l-53.354,0l414.679,414.708l0,-53.375Z" style="fill-rule:nonzero;"/><path d="M1471.98,722.667l-722.65,-722.667l-53.354,0l776.004,776l0,-53.333Z" style="fill-rule:nonzero;"/><path d="M1471.98,542l-541.987,-542l-53.355,0l595.342,595.375l0,-53.375Z" style="fill-rule:nonzero;"/><path d="M1471.98,903.333l-903.312,-903.333l-53.354,0l956.666,956.667l0,-53.334Z" style="fill-rule:nonzero;"/><path d="M1471.98,1084l-1083.97,-1084l-53.354,0l1137.33,1137.33l0,-53.333Z" style="fill-rule:nonzero;"/><path d="M1471.98,1264.67l-1264.64,-1264.67l-53.35,0l1317.99,1318l0,-53.333Z" style="fill-rule:nonzero;"/><path d="M1471.98,1472l0,-26.667l-1445.3,-1445.33l-26.679,0l-0,26.708l1445.3,1445.29l26.679,0Z" style="fill-rule:nonzero;"/><path d="M1318,1472l-1318,-1318l0,53.375l1264.64,1264.62l53.359,0Z" style="fill-rule:nonzero;"/><path d="M1137.33,1472l-1137.33,-1137.33l0,53.333l1083.97,1084l53.354,0Z" style="fill-rule:nonzero;"/><path d="M956.667,1472l-956.667,-956.667l0,53.334l903.317,903.333l53.35,0Z" style="fill-rule:nonzero;"/><path d="M776.004,1472l-776.004,-776l0,53.333l722.65,722.667l53.354,0Z" style="fill-rule:nonzero;"/><path d="M595.342,1472l-595.342,-595.333l0,53.333l541.987,542l53.355,0Z" style="fill-rule:nonzero;"/><path d="M414.679,1472l-414.679,-414.667l0,53.334l361.325,361.333l53.354,0Z" style="fill-rule:nonzero;"/><path d="M234.017,1472l-234.017,-234.042l0,53.375l180.662,180.667l53.355,0Z" style="fill-rule:nonzero;"/><path d="M53.354,1472l-53.354,-53.375l0,53.375l53.354,0Z" style="fill-rule:nonzero;"/></g></svg>