<?xml version="1.0" encoding="UTF-8" standalone="no"?><!DOCTYPE svg PUBLIC "-//W3C//DTD SVG 1.1//EN" "http://www.w3.org/Graphics/SVG/1.1/DTD/svg11.dtd"><svg width="100%" height="100%" viewBox="0 0 621 1211" version="1.1" xmlns="http://www.w3.org/2000/svg" xmlns:xlink="http://www.w3.org/1999/xlink" xml:space="preserve" xmlns:serif="http://www.serif.com/" style="fill-rule:evenodd;clip-rule:evenodd;stroke-linejoin:round;stroke-miterlimit:2;"><path d="M449.621,34.063c-0.504,-0.338 -1.05,-0.675 -1.638,-0.967c-9.408,-4.917 -134.821,-17.471 -155.233,-14.742c-40.279,5.417 -59.05,54.725 -31.75,57.496c1.175,0.125 2.392,0.254 3.696,0.338c42.333,3.82 132.554,3.82 156.954,-2.984c3.571,-1.008 8.021,-3.146 12.475,-6.004c14.154,-8.987 28.225,-24.737 15.496,-33.137Z" style="fill:#919090;fill-rule:nonzero;"/><path d="M620.104,1073.31l0,-831.495c0,-26.105 -7.371,-51.676 -21.229,-73.792l-39.846,-78.154l-244.146,-6.034l0,-0.237l-4.841,0.121l-4.838,-0.121l0,0.237l-244.15,6.034l-39.841,78.154c-13.859,22.116 -21.213,47.687 -21.213,73.792l0,866.212c0,8.463 3.613,13.479 7.908,20.592c7.692,12.741 37.688,27.983 37.688,30.508c-0,0.979 -0.204,-0.313 0.421,9.079c0.291,4.371 3.058,8.175 7.116,9.834c41.409,16.895 147.309,32.537 257.067,32.537c117.321,0 227.95,-21.625 257.587,-35.042c3.959,-1.791 6.575,-5.637 6.788,-9.983c0.121,-2.446 0.229,-5 0.229,-6.425c0,-2.912 24.817,-15.079 32.225,-23.096c1.254,-1.354 2.325,-2.866 3.383,-4.375c12.692,-17.966 9.692,-37.271 9.692,-58.346Z" style="fill:#ffebd6;fill-rule:nonzero;"/><path d="M620.104,659.3c-87.908,48.629 -193.454,59.638 -293.208,63.888c-109.142,4.658 -220.959,0.625 -326.896,-27.305l0,412.142c0,8.463 3.613,13.479 7.908,20.592c7.692,12.741 37.688,27.983 37.688,30.508c-0,0.979 -0.204,-0.313 0.421,9.079c0.291,4.371 3.058,8.175 7.116,9.834c41.409,16.895 147.309,32.537 257.067,32.537c117.321,0 227.95,-21.625 257.587,-35.042c3.959,-1.791 6.575,-5.637 6.788,-9.983c0.121,-2.446 0.229,-5 0.229,-6.425c0,-2.912 24.817,-15.079 32.225,-23.096c1.254,-1.354 2.325,-2.866 3.383,-4.375c12.692,-17.966 9.692,-37.271 9.692,-58.346l0,-414.008Z" style="fill:#d6bdb8;fill-rule:nonzero;"/><path d="M619.937,1109.49c-0.916,9.491 -3.375,18.562 -9.537,27.3c-1.05,1.508 -2.1,3.025 -3.363,4.366c-7.433,8.021 -32.254,20.2 -32.254,23.1l0,0.505c-54.558,16.716 -152.629,27.845 -264.558,27.845c-112.058,0 -210.213,-11.17 -264.687,-27.887l0.041,-0.463c0,-2.516 -29.987,-17.766 -37.675,-30.491c-4.283,-7.142 -7.896,-12.138 -7.896,-20.621l0,-866.217c0,-17.221 3.192,-34.233 9.409,-50.191c49.308,39.27 165.396,66.862 300.808,66.862c135.112,0 251.121,-27.467 300.554,-66.65c6.117,15.875 9.325,32.842 9.325,49.979l0,831.525c0,10.792 0.792,21.084 -0.167,31.038Z" style="fill:#4f83c2;fill-rule:nonzero;"/><path d="M567.4,56.7l-0,21c-0,31.333 -115.25,56.7 -257.338,56.7c-138.054,0 -250.699,-23.942 -257.041,-54.012l-0.334,-0.255l0,-24.82c0.209,-0.505 0.334,-1.092 0.501,-1.638c7.141,-29.904 119.325,-53.675 256.874,-53.675c137.342,-0 249.567,23.687 256.959,53.55c0.254,1.05 0.379,2.1 0.379,3.15Z" style="fill:#d6bdb8;fill-rule:nonzero;"/><path d="M566.962,53.55c-7.396,29.863 -119.62,53.55 -256.962,53.55c-137.133,0 -249.188,-23.604 -256.875,-53.425c7.142,-29.904 119.325,-53.675 256.875,-53.675c137.342,0 249.566,23.687 256.962,53.55Z" style="fill:#d6bdb8;fill-rule:nonzero;"/><path d="M554.287,54.254c0,22.558 -106.808,47.688 -245.087,47.688c-138.279,-0 -243.4,-28.5 -243.4,-51.063c-0,-22.562 105.121,-44.312 243.4,-44.312c138.279,-0 245.087,25.125 245.087,47.687Z" style="fill:#a88882;fill-rule:nonzero;"/><path d="M547.129,61.746c-4.508,-8.763 -12.708,-13.134 -21.95,-15.7c-13.946,-3.867 -28.937,-5.084 -43.242,-7.021c-33.72,-4.563 -67.608,-7.871 -101.575,-9.846c-69.075,-4.012 -138.487,-2.55 -207.291,4.821c-17.375,1.862 -34.788,3.925 -52.038,6.729c-13.583,2.208 -26.862,5.742 -36.366,16.267c-1.809,2.004 1.154,4.983 2.966,2.971c12.425,-13.759 32.388,-15.004 49.642,-17.388c19.971,-2.754 40.017,-4.987 60.1,-6.733c39.871,-3.463 79.908,-4.967 119.925,-4.592c39.354,0.363 78.692,2.546 117.854,6.463c20.746,2.075 41.442,4.633 62.071,7.679c15.371,2.271 38.175,2.729 46.275,18.471c1.237,2.4 4.862,0.279 3.629,-2.121Z" style="fill:#290c0c;fill-rule:nonzero;"/><path d="M301.183,748.4c-4.091,-3.446 -12.646,-6.733 -17.316,-2.312c-4.95,4.691 6.387,11.504 9.616,13.187l0.413,0.117c3.45,1.733 7.337,2.629 10.662,1.316c6.592,-2.595 -0.429,-9.825 -3.375,-12.308Z" style="fill:#ffebd6;fill-rule:nonzero;"/><path d="M592.429,1119.16c-26.525,17.946 -60.337,24.009 -91.492,28.234c-39.308,5.325 -79.125,6.65 -118.754,7.075c-44.154,0.475 -88.362,-0.004 -132.487,-1.729c-44.813,-1.75 -89.879,-3.596 -134.284,-10.204c-19.725,-2.938 -39.42,-6.513 -58.754,-11.451c-11.12,-2.845 -28.779,-5.616 -36.775,-14.787c-1.779,-2.042 -4.741,0.942 -2.971,2.971c5.767,6.612 16.546,9.404 24.546,11.908c17.129,5.363 34.85,8.958 52.504,12.092c42.663,7.575 85.68,10.346 128.905,12.479c48.083,2.375 96.212,3.217 144.354,3.029c41.642,-0.162 83.454,-1.137 124.846,-6.054c34.67,-4.113 72.929,-9.942 102.483,-29.938c2.225,-1.504 0.125,-5.145 -2.121,-3.625Z" style="fill:#290c0c;fill-rule:nonzero;"/><path d="M498.838,451.342c-1.251,-0.046 -2.121,-1.296 -1.626,-2.446c2.05,-4.729 4.48,-15.108 4.696,-16.875c0.988,-8.096 -1.704,-13.467 -5.804,-20.138c-5.558,-9.062 -10.654,-18.437 -15.979,-27.641c-1.092,-1.888 -3.858,-1.759 -4.812,0.204c-5.163,10.625 -10.042,21.508 -9.217,33.746c-13.142,-25.538 -34.884,-37.417 -42.746,-44.221c-2.321,-2.013 -6.921,-2.308 -8.413,1.083c-6.991,15.859 3.605,39.792 13.155,52.671c10.833,14.613 26.758,22.279 43.212,28.638c0.384,0.5 0.804,1.045 1.188,1.55c0.262,1.395 0.929,2.35 1.775,2.991l0.095,0.263c-0.862,2.208 -0.491,4.937 2.026,6.608c11.595,7.704 24.399,12.058 38.241,13.642c12.808,1.466 31.171,3.291 43.125,-2.209c1.583,-0.729 -6.904,-25.837 -58.916,-27.866Z" style="fill:#426e4b;fill-rule:nonzero;"/><path d="M510.55,465.292c-13.642,-8.871 -29.925,-13.271 -44.396,-20.767c-13.558,-7.025 -26.412,-15.746 -41.583,-19.592c-46.304,-11.724 -91.209,18.925 -111.088,56.421c-23.391,44.113 -25.129,95.934 -25.508,144.15c-0.021,2.45 0.617,4.496 1.629,6.225c0.483,14.342 4.059,28.263 13.667,40.646c19.454,25.075 47.25,23.863 76.329,16.233c58.929,-15.466 121.571,-38.125 154.196,-89.945c26.854,-42.659 22.837,-103.392 -23.246,-133.371Z" style="fill:#ed4b26;fill-rule:nonzero;"/><path d="M386.85,658.025c-5.858,-39.942 -17.567,-78.704 -29.338,-117.221c-9.487,-31.041 -20.095,-59.979 -48.458,-78.775c-54.425,-36.058 -130.725,-14.479 -163.612,39.929c-23.125,13.896 -43.496,34.363 -51.238,60.784c-9.029,30.804 4.3,63.271 21.584,88.625c38.541,56.55 107.958,92.858 172.495,111.246c29.063,8.283 58.946,3.383 80.63,-18.784c14.845,-15.179 21.004,-36.004 20.508,-56.925c-0.225,-9.529 -1.146,-19.179 -2.571,-28.879Z" style="fill:#ff5f3b;fill-rule:nonzero;"/><path d="M234.546,457.183c-8.65,1.059 -28.796,5.4 -37.354,4.821c6.333,-29.508 23.42,-58.437 25.595,-88.646c0.463,-6.404 -3.091,-3.912 -9.287,-0.883c-30.138,14.746 -56.783,42.342 -64.463,75.608c-0.158,0.667 -0.366,1.413 -0.962,1.746c-1.113,0.621 -2.279,-0.662 -2.946,-1.741c-25.096,-40.913 -43.596,-34.271 -55.55,-37.284c-5.154,-1.304 -9.554,3.867 -7.467,8.759c6.063,14.195 -0.183,15.608 21.338,43.983c4.742,6.254 9.942,12.258 15.879,17.137c1.209,0.988 0.567,2.892 -0.983,3.05c-4.367,0.442 -8.579,1.559 -12.475,3.763c-17.429,9.846 -47.625,47.829 -41.279,47.771c13.616,-0.113 28.612,-0.88 42.566,-3.304c9.471,-1.65 23.867,-2.946 32.896,-8.984c4.85,-3.242 10.65,-4.587 16.479,-4.7c7.375,-0.141 15.034,-1.846 21.567,-3.708c14.408,-4.113 26.854,-14.246 37.062,-24.871c5.417,-5.637 10.38,-11.733 14.775,-18.204c1.463,-2.15 11.159,-15.112 4.609,-14.313Z" style="fill:#919e46;fill-rule:nonzero;"/><path d="M283.354,510.258c-2.737,-4.037 -7.625,-9.029 -13.041,-7.824c-4.826,1.075 -6.721,6.362 -6.226,10.804c0.421,3.829 2.3,7.712 5.03,10.691c1.316,2.209 3.008,4.179 5.279,5.634c4.483,2.879 9.933,1.783 12.021,-3.355c2.12,-5.216 -0.067,-11.533 -3.063,-15.95Z" style="fill:#ffebd6;fill-rule:nonzero;"/><path d="M222.275,569.888c-2.608,-5.55 -11.246,-13.075 -17.858,-11.834c-9.525,1.78 -2.08,14.804 1.312,19.104c7.179,9.096 22.446,5.309 16.546,-7.27Z" style="fill:#ffebd6;fill-rule:nonzero;"/><path d="M416.029,475.642c-8.583,4.075 -12.296,15.762 -4.829,23.025l0.883,0.479l0.384,0.208c8.041,3.509 16.608,-8.216 17.645,-15.012c1.309,-8.617 -5.8,-12.008 -13.158,-9.1l-0.925,0.4Z" style="fill:#ffebd6;fill-rule:nonzero;"/><path d="M490.833,519.942c-9.058,0.37 -14.487,11.887 -11.179,19.821c4.792,11.483 16.008,0.237 18.958,-7.13c2.371,-5.925 -0.812,-12.975 -7.779,-12.691Z" style="fill:#ffebd6;fill-rule:nonzero;"/><path d="M326.154,629.008c-1.821,-6.962 -8.954,-16.312 -17.125,-15.416c-7.771,0.85 -7.112,10.996 -3.679,15.671c3.017,4.108 7,8.716 11.592,11.07c2.654,1.359 6.15,1.867 8.358,-0.558c2.454,-2.687 1.679,-7.6 0.854,-10.767Z" style="fill:#ffebd6;fill-rule:nonzero;"/><path d="M148.217,604.9c-2.596,-6.154 -9.701,-14.4 -16.342,-7.671c-8.65,8.763 2.404,26.996 13.821,26.129c8.121,-0.616 4.358,-14.091 2.521,-18.458Z" style="fill:#ffebd6;fill-rule:nonzero;"/><path d="M230.637,650.292c-3.32,-5.196 -9.437,-9.271 -15.758,-9.292c-14.85,-0.042 3.454,18.013 7.638,20.275c9.741,5.262 13.2,-3.042 8.12,-10.983Z" style="fill:#ffebd6;fill-rule:nonzero;"/><path d="M426.692,557.121c-6.513,-2.617 -12.93,5.683 -16.046,10.325c-2.15,3.192 -5.404,9.537 -1.417,12.546c5.258,3.966 13.058,-3.571 15.942,-7.338c2.862,-3.737 8.641,-12.675 1.521,-15.533Z" style="fill:#ffebd6;fill-rule:nonzero;"/><path d="M375.225,523.571c-0.925,-6.821 -8.196,-5.254 -11.879,-1.463c-4.317,4.442 -3.525,19.971 5.225,15.659c2.2,-1.088 3.591,-3.829 4.692,-5.888c1.366,-2.537 2.362,-5.387 1.962,-8.308Z" style="fill:#ffebd6;fill-rule:nonzero;"/><path d="M463.946,600.975c-6.521,0.9 -15.729,6.458 -14.146,13.571c0.562,2.525 3.583,2.746 5.646,2.704c6.112,-0.125 12.9,-2.929 16.654,-7.917c3.666,-4.87 -1.629,-8.429 -6.296,-8.483c-0.583,-0.004 -1.208,0.038 -1.858,0.125Z" style="fill:#ffebd6;fill-rule:nonzero;"/><path d="M200.217,382.346c-18.096,25.917 -29.571,55.317 -33.784,86.65c-0.358,2.641 3.688,3.787 4.05,1.117c4.167,-30.988 15.463,-60.009 33.363,-85.646c1.55,-2.221 -2.088,-4.325 -3.629,-2.121Z" style="fill:#290c0c;fill-rule:nonzero;"/><path d="M91.875,425.313c11.933,9.825 24.154,19.287 36.738,28.266c11.454,8.171 23.191,17.663 36.812,21.838c2.592,0.791 3.7,-3.263 1.117,-4.05c-13.146,-4.029 -24.746,-13.525 -35.809,-21.417c-12.296,-8.771 -24.233,-18.008 -35.891,-27.608c-2.071,-1.704 -5.054,1.25 -2.967,2.971Z" style="fill:#290c0c;fill-rule:nonzero;"/><path d="M165.342,472.383c-32.875,10.784 -62.934,27.725 -89.204,50.246c-2.055,1.763 0.929,4.721 2.97,2.971c25.709,-22.037 55.175,-38.617 87.354,-49.171c2.555,-0.837 1.463,-4.896 -1.12,-4.046Z" style="fill:#290c0c;fill-rule:nonzero;"/><path d="M166.658,475.483c3.875,6.234 12.688,6.571 19.363,6.734c10.554,0.254 20.604,-2.534 29.883,-7.463c2.383,-1.27 0.267,-4.896 -2.125,-3.629c-7.196,3.825 -14.837,6.313 -23.012,6.825c-5.584,0.35 -17.013,0.992 -20.48,-4.583c-1.425,-2.292 -5.062,-0.184 -3.629,2.116Z" style="fill:#290c0c;fill-rule:nonzero;"/><path d="M462.892,417.163c-1.388,7.904 -0.225,15.529 3.541,22.629c1.263,2.387 4.892,0.266 3.625,-2.121c-3.204,-6.037 -4.3,-12.654 -3.116,-19.392c0.462,-2.642 -3.584,-3.779 -4.05,-1.116Z" style="fill:#290c0c;fill-rule:nonzero;"/><path d="M605.833,222.933c-59.887,42.634 -133.883,54.692 -205.612,60.109c-79.692,6.021 -161.65,9.954 -240.625,-4.775c-43.209,-8.063 -85.171,-22.021 -123.433,-43.842c-2.351,-1.342 -4.467,2.288 -2.117,3.625c69.508,39.646 149.729,52.625 228.812,54.079c42.309,0.779 84.7,-1.287 126.9,-4.137c36.213,-2.45 72.513,-6.175 107.954,-14.246c39.35,-8.963 77.23,-23.683 110.238,-47.184c2.183,-1.554 0.088,-5.195 -2.117,-3.629Z" style="fill:#290c0c;fill-rule:nonzero;"/><path d="M559.887,54.254c1.596,23.392 -33.429,32.042 -50.687,36.396c-26.737,6.754 -54.35,11.204 -81.629,14.929c-81.35,11.113 -164.508,10.746 -245.525,-2.912c-21.913,-3.696 -43.667,-8.359 -65.159,-14.013c-20.199,-5.312 -42.233,-10.558 -55.858,-27.658c-1.683,-2.113 -4.637,0.875 -2.971,2.971c10.213,12.816 25.021,19.212 40.334,23.896c21.341,6.529 43.275,11.487 65.175,15.712c43.191,8.329 87.104,12.871 131.075,13.85c72.883,1.625 149.216,-4.646 219.833,-23.812c18.429,-5 51.283,-14.859 49.612,-39.359c-0.183,-2.683 -4.383,-2.704 -4.2,0Z" style="fill:#290c0c;fill-rule:nonzero;"/><path d="M447.196,46.509c-0.471,-0.38 -0.988,-0.759 -1.546,-1.105c-8.942,-5.72 -129.521,-33.016 -150.096,-32.091c-40.596,1.854 -63.637,49.316 -36.687,54.483c1.162,0.225 2.366,0.458 3.654,0.658c42.533,7.255 144.654,10.583 169.562,5.95c15.355,-2.946 31.579,-15.729 15.113,-27.895Z" style="fill:#d6bdb8;fill-rule:nonzero;"/><path d="M290.446,25.575c-8.784,3.267 -21.292,12.892 -9.317,20.733c13.271,8.688 36.917,10.1 51.654,5.205c7.534,-2.505 17.408,-8.792 8.992,-16.513c-12.3,-11.271 -36.017,-11.817 -51.329,-9.425c-2.659,0.417 -1.529,4.467 1.116,4.05c10.409,-1.629 21.059,-1.175 31.263,1.521c3.775,0.996 11.996,2.487 14.217,5.687c5.412,7.788 -1.309,9.417 -6.417,10.975c-9.729,2.967 -21.092,2.209 -30.938,0.271c-4,-0.783 -11.212,-1.621 -14.437,-4.304c-8.204,-6.829 -0.413,-11.646 6.312,-14.15c2.513,-0.933 1.426,-4.996 -1.116,-4.05Z" style="fill:#290c0c;fill-rule:nonzero;"/><path d="M380.442,39.079c-7.092,-0.35 -27.967,2.921 -19.517,14.313c8.175,11.025 28.112,11.546 39.892,10.392c6.083,-0.592 29.791,-2.013 21.358,-12.846c-8.783,-11.288 -29.254,-12.451 -41.733,-11.859c-2.692,0.129 -2.709,4.334 -0,4.2c9.525,-0.454 19.204,-0.083 28.004,3.909c2.354,1.07 7.579,2.891 8.896,5.104c3.47,5.829 -9.621,6.483 -13.234,6.92c-9.425,1.138 -19.175,1.571 -28.254,-1.662c-2.683,-0.954 -7.067,-2.533 -9.258,-4.654c-8.104,-7.842 7.996,-9.904 13.846,-9.617c2.7,0.138 2.696,-4.066 -0,-4.2Z" style="fill:#290c0c;fill-rule:nonzero;"/><path d="M35.962,193.271c64.959,28.521 134.517,44.65 205.405,47.55c2.704,0.108 2.696,-4.092 -0,-4.2c-70.109,-2.871 -139.034,-18.771 -203.288,-46.975c-2.45,-1.079 -4.587,2.541 -2.117,3.625Z" style="fill:#290c0c;fill-rule:nonzero;"/><clipPath id="_clip1"><path d="M79.517,818.775c-7.355,0 -14.821,-4.737 -15.025,-14.192c-3.238,-151.191 -6.484,-302.383 -9.725,-453.575c-0.205,-9.471 7.033,-14.195 14.379,-14.195c7.354,-0 14.821,4.741 15.021,14.195c0.429,20.042 0.858,40.076 1.287,60.117c-3.025,1.325 -4.829,4.954 -3.342,8.438c2.321,5.437 2.838,9 3.8,12.916c0.505,23.45 1.009,46.896 1.509,70.342c-14.192,14.421 -27.175,32.446 -22.842,32.446l0.013,-0c7.55,-0.063 15.52,-0.325 23.504,-0.963c1.933,90.092 3.866,180.183 5.8,270.279c0.204,9.471 -7.034,14.192 -14.379,14.192Z"/></clipPath><g clip-path="url(#_clip1)"><rect x="54.562" y="336.813" width="39.538" height="481.963" style="fill:#b9cde7;fill-rule:nonzero;"/></g><path d="M64.579,535.267c-4.333,-0 8.65,-18.025 22.842,-32.446c0.075,3.5 0.15,6.987 0.225,10.483c-3.913,2.996 -7.746,6.104 -11.508,9.325c-1.613,1.384 -0.122,3.504 1.587,3.504c0.463,0 0.946,-0.158 1.383,-0.533c2.838,-2.433 5.725,-4.8 8.65,-7.096c0.113,5.267 0.225,10.529 0.338,15.8c-7.984,0.638 -15.954,0.9 -23.504,0.963l-0.013,-0Zm21.333,-102.788c-0.962,-3.916 -1.479,-7.479 -3.8,-12.916c-1.487,-3.484 0.317,-7.113 3.342,-8.438c0.154,7.117 0.309,14.242 0.458,21.354Z" style="fill:#d3d8b5;fill-rule:nonzero;"/><path d="M77.725,526.133c-1.709,0 -3.2,-2.12 -1.587,-3.504c3.762,-3.221 7.595,-6.329 11.508,-9.325c0.037,1.729 0.075,3.475 0.112,5.2c-2.925,2.296 -5.812,4.663 -8.65,7.096c-0.437,0.375 -0.92,0.533 -1.383,0.533Z" style="fill:#a99e9e;fill-rule:nonzero;"/><path d="M191.704,831.325c-3.037,-3.271 -10.562,-10.917 -16.216,-2.937c-7.767,11.191 13.966,31.937 12.029,55.087c-1.45,16.146 -9.571,25.813 -25.288,24.429c-14.537,-1.358 -21.454,-15.837 -23.362,-20.704c-0.321,-0.787 -0.021,-1.771 0.787,-2.238l5.617,-2.97c0.812,-0.467 1.941,-0.146 2.408,0.662c3.258,5.667 12.879,21.746 23.784,12.217c15.491,-14.434 -14.988,-46.4 -7.201,-67.329c3.738,-9.896 10.196,-14.504 21.542,-11.58c7.379,1.871 11.884,7.138 13.812,9.938c0.609,0.833 0.267,2.109 -0.545,2.575l-4.921,3.225c-0.808,0.462 -1.817,0.308 -2.446,-0.375Z" style="fill:#ffebd6;fill-rule:nonzero;"/><path d="M265.371,825.621l-1.442,7.329c-0.071,0.729 -0.854,1.238 -1.575,1.167c-3.196,-0.309 -11.017,-1.213 -22.783,-2.205l-19.05,78.859c-0.204,0.562 -0.521,0.825 -0.954,0.783l-10.2,-0.546c-0.579,-0.054 -0.971,-0.533 -0.904,-1.258l19.054,-78.854c-6.113,-0.45 -12.946,-0.963 -20.371,-1.388c-1.017,-0.095 -1.688,-0.75 -1.446,-1.745c0.846,-4.171 1.692,-6.871 1.95,-8.017c0.071,-0.725 0.546,-1.121 1.287,-1.192c3.684,-0.233 14.55,0.963 27.596,2.375l4.396,-0.012c0.434,0.037 0.708,0.212 0.829,0.517c7.388,0.862 15.059,1.749 22.459,2.462c0.875,0.088 1.383,0.866 1.154,1.725Z" style="fill:#ffebd6;fill-rule:nonzero;"/><path d="M308.321,835.646c-10.633,-0.333 -27.034,20.296 -34.509,30.708l-2.737,12.892c15.267,-3.163 43.929,-19.617 44.812,-33.588c0.725,-9.17 -4.066,-9.904 -7.566,-10.012Zm14.704,19.567c-7.529,16.683 -28.142,27.558 -42.596,32.496c7.913,12.937 19.121,18.249 23.759,19.124c1.162,0.184 2.012,1.084 2.116,2.255c0.117,1.025 0.217,2.341 0.013,4.229c-0.042,1.312 -1.246,2.442 -2.7,2.395c-21.38,-1.837 -30.359,-17.729 -33.617,-25.412c-0.437,-0.012 -0.879,0.117 -1.321,0.1l-5.142,24.487c-0.012,0.438 -0.462,0.717 -0.9,0.705l-10.2,-0.179c-0.587,-0.017 -1.004,-0.613 -0.841,-1.192l19.404,-92.875c0.012,-0.438 0.463,-0.717 0.9,-0.85l10.358,-0.108c0.588,0.016 1.004,0.616 0.842,1.191l-4.467,21.3c7.275,-8.667 17.592,-16.804 30.854,-16.387c12.963,0.412 20.121,14.054 13.538,28.721Z" style="fill:#ffebd6;fill-rule:nonzero;"/><path d="M371.058,870.075c-0.575,-18.8 -2.121,-36.671 -6.254,-37.466c-6.625,-1.105 -13.412,19.258 -18.562,40.116c5.933,-0.904 16.375,-2.196 24.816,-2.65Zm11.246,43.325c0.021,0.438 -0.4,0.754 -0.837,0.775l-9.75,0.529c-0.584,0.029 -1.042,-0.383 -1.075,-0.967c0.241,-3.658 0.646,-17.841 0.55,-33.162c-7.846,0.717 -19.892,1.95 -27.567,3.096c-3.429,14.925 -5.779,28.187 -6.479,31.437c0.025,0.442 -0.4,0.755 -0.983,0.784l-8.809,-0.984c-0.433,0.026 -0.904,-0.533 -0.779,-0.983c1.646,-10.008 14.863,-100.492 41.317,-94.475c19.799,4.479 15.225,84.713 14.412,93.95Z" style="fill:#ffebd6;fill-rule:nonzero;"/><path d="M472.617,807.946c-0.238,33.133 6.475,98.175 -19.459,95.975c-10.279,-1.013 -13.77,-18.6 -15.858,-24.133c0.742,3.12 -1.421,16.737 -3.471,21.575c-3.125,6.97 -11.708,10.979 -17.296,8.92c-8.425,-2.995 -12.904,-16.387 -16.712,-38.812c-3.059,-17.663 -6.988,-46.142 -6.879,-48.688c-0.055,-0.283 0.179,-0.629 0.583,-0.854c1.208,-0.675 5.054,-2.291 9.333,-1.621c0.6,0.034 0.971,0.409 0.938,1.009c-0.108,1.8 6.529,39.854 7.021,44.804c1.337,12.504 5.55,35.442 10.558,34.492c5.583,-1.059 8.112,-37.742 9.229,-43.588c0.121,-0.917 0.871,-1.65 1.758,-1.671l6.671,-0.821c1.142,-0.22 2.05,0.65 2.267,1.792c0.921,5.612 7.842,37.383 13.775,38.183c7.787,-0.441 5.038,-79.733 5.55,-85.616c0.179,-0.629 0.525,-1.142 1.246,-1.275c2.921,-1 10.8,-2.496 10.746,0.329Z" style="fill:#ffebd6;fill-rule:nonzero;"/><path d="M201.521,945.812c-7.446,-2.512 -16.167,-2.253 -24.125,-1.154l-7.75,23.942c5.316,-0.146 13.358,-0.787 19.575,-3.158c18.054,-7.05 16.246,-18.342 12.3,-19.63Zm-35.242,33.209l-11.079,34.079c15.921,1.925 34.362,-1.541 38.65,-14.337c5.225,-15.317 -18.7,-18.95 -27.571,-19.742Zm24.85,-4.042c0,0 18.75,9.092 14.209,24.796c-10.292,35.804 -66.926,23.938 -69.796,17.058c-1.988,-2.633 0.424,-9.358 3.191,-8.091c1.38,0.637 3.054,1.308 4.746,1.837l20.425,-63.091c-2.45,0.687 -4.592,1.27 -6.117,1.65c-1.237,0.412 -2.575,-0.509 -2.708,-1.705l-1.604,-4.345c-0.142,-1.051 0.429,-2 1.354,-2.313c2.208,-1.017 6.529,-2.475 12.604,-3.838l3.45,-10.999c0.204,-0.409 0.679,-0.642 1.134,-0.725l10.162,0.979c0.579,0.079 1.079,0.737 0.854,1.296l-2.529,7.596c3.583,-0.384 7.275,-0.459 11.233,-0.346c17.092,-0.121 24.859,11.704 21.8,22.025c-3.524,11.575 -22.408,18.216 -22.408,18.216Z" style="fill:#ffebd6;fill-rule:nonzero;"/><path d="M272.783,945.763l-1.537,7.05c-0.188,0.575 -0.8,0.966 -1.379,0.925c-3.78,-0.276 -12.225,-0.746 -24.45,-1.488l-6.4,27.596c7.666,1.146 12.029,1.458 17.991,1.896c0.725,0.05 1.259,0.825 1.054,1.537l-1.525,6.909c-0.187,0.566 -0.812,1.108 -1.391,1.062c-3.192,-0.375 -8.309,-0.312 -18.321,-1.329l-6.713,31.962c9.909,0.425 20.626,1.792 26.588,2.225c0.721,0.05 1.263,0.675 1.067,1.396l-1.538,7.046c-0.196,0.717 -0.812,1.113 -1.391,1.067c-4.076,-0.292 -32.913,-1.663 -32.913,-1.663c-0.725,-0.054 -2.338,-0.025 -2.488,-0.037c-1.433,-0.392 -2.658,-1.654 -2.679,-3.263l0.038,-0.583l7.916,-38.45l2.209,-10.217l5.408,-26.062c0,-0 1.596,-5.88 2.567,-9.171c0.237,-1.296 1.479,-2.229 2.8,-2.283c0.879,-0.08 1.75,-0.017 1.9,-0.005c2.045,0.005 2.625,0.046 8.017,0.292c9.62,0.408 19.9,1.742 24.112,2.054c0.729,0.05 1.113,0.809 1.058,1.534Z" style="fill:#ffebd6;fill-rule:nonzero;"/><path d="M325.175,954.667c-10.642,-0.038 -26.463,21.033 -33.65,31.646l-2.383,12.962c15.175,-3.583 43.375,-20.821 43.866,-34.808c0.471,-9.184 -4.333,-9.784 -7.833,-9.8Zm15.225,19.154c-7.058,16.883 -27.363,28.317 -41.667,33.654c8.255,12.713 19.605,17.713 24.267,18.463c1.167,0.145 2.033,1.025 2.179,2.191c0.138,1.021 0.283,2.338 0.125,4.229c-0.004,1.313 -1.171,2.471 -2.633,2.467c-21.421,-1.25 -30.829,-16.883 -34.3,-24.475c-0.438,-0.004 -0.879,0.142 -1.313,0.142l-4.471,24.608c0,0.442 -0.437,0.733 -0.879,0.729l-10.2,0.108c-0.583,-0.004 -1.016,-0.591 -0.87,-1.17l16.837,-93.363c-0,-0.437 0.442,-0.729 0.879,-0.875l10.35,-0.396c0.579,0.004 1.017,0.588 0.867,1.171l-3.871,21.409c7.029,-8.863 17.121,-17.28 30.383,-17.226c12.975,0.055 20.5,13.492 14.317,28.334Z" style="fill:#ffebd6;fill-rule:nonzero;"/><path d="M398.079,949.517c-10.591,1.062 -24.146,23.671 -30.196,34.971l-1.025,13.141c14.725,-5.137 40.992,-25.208 40.034,-39.175c-0.484,-9.183 -5.329,-9.283 -8.813,-8.937Zm17.138,17.479c-5.275,17.525 -24.296,31.008 -37.971,37.796c9.533,11.796 21.342,15.596 26.058,15.854c1.179,0.029 2.129,0.812 2.392,1.954c0.25,1.004 0.525,2.3 0.566,4.196c0.13,1.304 -0.912,2.583 -2.362,2.729c-21.437,0.975 -32.425,-13.604 -36.663,-20.796c-0.437,0.042 -0.854,0.229 -1.291,0.275l-1.896,24.95c0.046,0.438 -0.363,0.771 -0.796,0.813l-10.141,1.166c-0.575,0.059 -1.075,-0.483 -0.984,-1.079l7.071,-94.625c-0.046,-0.437 0.366,-0.771 0.783,-0.958l10.259,-1.467c0.579,-0.058 1.07,0.48 0.983,1.075l-1.633,21.7c6.075,-9.545 15.245,-18.962 28.441,-20.287c12.913,-1.292 21.792,11.296 17.184,26.704Z" style="fill:#ffebd6;fill-rule:nonzero;"/><path d="M475.9,1028.28c-7.05,5.496 -13.121,14.354 -14.221,28.742c-0.442,4.912 0.508,8.133 3.759,9.133c2.72,0.679 9.699,-3.896 10.766,-20.233c0.363,-3.996 0.171,-10.25 -0.304,-17.642Zm23.442,-15.108c1.808,0.008 2.97,1.671 2.47,3.296l-0.679,2.12c-0.354,0.988 -1.383,1.692 -2.408,1.796c-2.725,-0.075 -7.742,0.263 -13.196,2.513c0.821,10.608 1.042,20.012 0.608,24.925c-1.345,12.795 -8.204,26.358 -21.533,24.696c-11.912,-1.413 -14.279,-14.642 -10.283,-28.242c1.962,-6.646 7.691,-18.725 20.829,-25.725c-0.692,-7.637 -3.229,-36.746 -3.921,-43.784c-0.108,1.984 -2.608,23.472 -6.158,30.359c-5.621,11.3 -11.279,12.7 -17.292,13.283c-11.987,1.309 -17.492,-17.904 -18.704,-26.462c-1.7,-11.742 -7.296,-48.355 -7.325,-50.9c0.038,-0.459 0.288,-0.671 0.533,-0.879c1.313,-0.775 4.992,-2.288 9.446,-1.888c0.458,0.033 0.879,0.533 0.846,0.992c-0.112,1.983 6.217,42.767 6.696,47.754c0.654,6.896 3.967,23.946 11.158,19.017c11.721,-7.855 14.029,-77.505 13.967,-78.388l0.533,-0.883c1.338,-0.634 4.954,-2.425 9.375,-2.167c0.454,0.038 0.879,0.534 0.846,0.992c0.096,1.625 5.175,47.079 5.9,52.454c1.817,9.158 2.492,22.208 3.829,36.742c4.212,-1.188 9.021,-1.775 14.463,-1.621Z" style="fill:#ffebd6;fill-rule:nonzero;"/></svg>