<?xml version="1.0" encoding="UTF-8" standalone="no"?><!DOCTYPE svg PUBLIC "-//W3C//DTD SVG 1.1//EN" "http://www.w3.org/Graphics/SVG/1.1/DTD/svg11.dtd"><svg width="100%" height="100%" viewBox="0 0 12500 7500" version="1.1" xmlns="http://www.w3.org/2000/svg" xmlns:xlink="http://www.w3.org/1999/xlink" xml:space="preserve" xmlns:serif="http://www.serif.com/" style="fill-rule:evenodd;clip-rule:evenodd;stroke-miterlimit:2;"><g><rect x="0" y="0" width="12500" height="7500" style="fill:url(#_Linear1);fill-rule:nonzero;"/><path d="M9926.88,1283.25c-93.041,-0 -168.417,-69.271 -168.417,-154.725c0,-85.504 75.376,-154.771 168.417,-154.771c93,-0 168.375,69.267 168.375,154.771c0,85.454 -75.375,154.725 -168.375,154.725Zm-7708.3,3710.38l-281.65,-0c-484.3,-0 -880.517,364.083 -880.517,809.083c0,445 396.217,809.084 880.517,809.084l8014.82,-0c784.208,-0 1425.79,-589.584 1425.79,-1310.17c0,-720.542 -641.584,-1310.14 -1425.79,-1310.14c-331.541,0 -631.458,-249.291 -631.458,-553.975c0,-304.675 271.291,-553.945 602.833,-553.945l340.958,-0c344.751,-0 626.792,-259.167 626.792,-575.946c0,-316.758 -282.041,-575.938 -626.792,-575.938l-971.541,0c-134.25,0 -244.042,-100.891 -244.042,-224.208c-0,-123.338 109.792,-224.229 244.042,-224.229l161.708,-0c92.625,-0 168.416,-69.634 168.416,-154.725l0,-0.029c0,-85.105 -75.791,-154.742 -168.416,-154.742l-1007.17,-0c-223.501,-0 -248.417,242.613 -813,242.613l-1213.46,-0c-120.834,-0 -219.75,90.887 -219.75,201.916l-0,0.021c-0,111.05 98.916,201.921 219.75,201.921l211.083,-0c175.084,-0 318.375,131.667 318.375,292.591c0,160.909 -143.291,292.559 -318.375,292.559l-317.583,-0c-857.666,-0 -978.792,205.979 -1129,615.583c-150.208,409.633 -1673.12,442.638 -1673.12,442.638l-1123.31,-0c-263.925,-0 -479.842,198.404 -479.842,440.916c1.071,157.613 55.013,341.175 409.083,479.075c160.905,62.709 270.717,215.084 270.717,385.959c0,233.25 -116.237,424.083 -370.079,424.083Z" style="fill:url(#_Linear2);"/><path d="M4233.12,2492.57l4531.46,0c162.459,0 295.333,132.892 295.333,295.33l0,2835.35c0,162.417 -132.874,295.333 -295.333,295.333l-4531.46,0c-162.442,0 -295.338,-132.916 -295.338,-295.333l0,-2835.35c0,-162.438 132.896,-295.33 295.338,-295.33Z" style="fill:#003398;"/><path d="M4152.52,2710.24l4692.69,-0c2.499,-0 4.582,2.062 4.582,4.587l0,2981.51c0,2.5 -2.083,4.584 -4.582,4.584l-4692.69,-0c-2.517,-0 -4.583,-2.084 -4.583,-4.584l-0,-2981.51c-0,-2.525 2.066,-4.587 4.583,-4.587Z" style="fill:url(#_Linear3);"/><rect x="6750.25" y="2409.12" width="1832.83" height="2849.33" style="fill:#102b6e;"/><rect x="6750.25" y="2409.12" width="1832.83" height="2849.33" style="fill:none;stroke:#102b6e;stroke-width:2.08px;"/><path d="M6097.67,5873c-20.791,405.375 -75.833,507.917 -457.25,738.917l1690.71,-0c-381.375,-231 -436.417,-333.542 -457.25,-738.917l-388.083,-32.917l-388.126,32.917Z" style="fill:#4596d1;"/><path d="M9059.92,5429.17l0,194.083c0,162.417 -132.874,295.333 -295.333,295.333l-4531.46,0c-162.442,0 -295.338,-132.916 -295.338,-295.333l0,-194.083l5122.13,-0Z" style="fill:#e4f5fb;"/><rect x="3937.79" y="5237.79" width="5122.13" height="310.292" style="fill:#003398;"/><path d="M6727.42,2409.12l1909.42,-0c33.791,-0 61.416,-27.637 61.416,-61.421c0,-33.783 -27.625,-61.417 -61.416,-61.417l-1909.42,0c-33.749,0 -61.416,27.634 -61.416,61.417c-0,33.784 27.667,61.421 61.416,61.421Z" style="fill:#ee4354;"/><path d="M6564,5100.62l1792.62,0l215,-2561.5l-1795.54,0l-212.083,2561.5Z" style="fill:#a5dbfd;"/><path d="M6736.71,2409.12c-102.751,937.4 -306.376,1736.87 -482.709,2683.04c631.042,8.458 1265.42,8.458 1893.12,8.458c137.459,-696.375 303.792,-1954.86 435.958,-2691.5l-1846.37,-0Z" style="fill:#fdfdfd;"/><path d="M6662.75,4512.83l1236.46,0c17.499,0 31.791,14.292 31.791,31.792c-0,17.458 -14.292,31.792 -31.791,31.792l-1236.46,-0c-17.5,-0 -31.791,-14.334 -31.791,-31.792c-0,-17.5 14.291,-31.792 31.791,-31.792Z" style="fill:#b2defc;"/><path d="M6617.88,4716.33l1236.46,0c17.5,0 31.792,14.292 31.792,31.792c0,17.5 -14.292,31.792 -31.792,31.792l-1236.46,-0c-17.5,-0 -31.792,-14.292 -31.792,-31.792c0,-17.5 14.292,-31.792 31.792,-31.792Z" style="fill:#b2defc;"/><path d="M5475.38,3820.24c116.458,255.662 260.958,548.591 594.333,598.258c270.417,40.292 666.167,-468.746 705.083,-551.775c38.917,-83.033 -108.875,-299.925 -156.541,-274.825c-47.708,25.108 -439.708,327.767 -475.5,325.467c-41.875,-2.717 -184.583,-456.655 -443.541,-606.071c-40.376,-23.304 -273.959,398.975 -223.834,508.946Z" style="fill:#003398;"/><path d="M4829.79,3189.73c-164.458,0 -305.501,50.538 -405.083,153.688c-138.584,143.587 102.249,1113 119.291,1899.16l1402.88,0c8.458,-348.916 1.458,-1171.46 -77.25,-1762.86c-46.167,-72.796 -153.375,-165.667 -259.833,-226.429c-186.875,-106.634 -551.75,-63.559 -780,-63.559Z" style="fill:#003398;"/><path d="M5339.25,3186.17c204.25,110.446 363.458,867.75 359.042,2051.62l-563,-0c-21.542,-1239.08 -217.042,-1837.08 -294.5,-2048.11c166.167,-10.972 292.208,-21.017 498.458,-3.513Z" style="fill:#fff;"/><path d="M4909.96,3185.11c131.125,-8.476 246.25,-13.655 415.375,-0.092c49.834,67.521 68.334,279.816 -102.625,367.571c-142.291,-26.98 -372.458,-218.18 -312.75,-367.479Z" style="fill:#e4f5fb;"/><path d="M5340.71,3212.81c-12.208,-12.083 -24.792,-22.091 -37.874,-29.5c7.416,0.529 14.874,1.101 22.499,1.713c5.584,7.579 10.792,16.958 15.375,27.787Z" style="fill:#fff;"/><path d="M5552.29,2883.53c23.208,147.158 -153.584,259.309 -273.584,249.504l0,67.321l12,16.233c70.459,138.859 -5.333,246.076 -78.166,283.521c-113.959,-40.875 -271.5,-145.375 -274.042,-290.767l7.375,-8.987l0,-257.925c-8.584,-2.537 -17.833,-6.108 -26.416,-11.108c-26.459,-15.4 -36.751,-53.004 -29.667,-91.829c7.083,-38.813 63.5,-12.571 63.5,-12.571c-48.959,-115.084 -111.584,-214.338 14.541,-278.3c126.126,-63.971 380.5,-59.167 380.5,-59.167l170.292,-14.25c-41.25,62.675 18.333,310.804 33.667,408.325Z" style="fill:#f8babc;"/><path d="M5306.79,3134.47c-9.584,-0.196 -18.959,-0.675 -28.125,-1.421c-75.625,-1.296 -155.084,-52.65 -225.417,-78.35c0,-0 35.667,125.954 125.666,165.687c39.543,17.475 73.834,24.934 99.751,27.809l-0,-115.146l27.208,0.62l0.917,0.801Z" style="fill:#ea8287;"/><path d="M5032.38,2610.48c-61.958,48.325 -18.917,175.679 -1.375,212.292c19.042,39.792 39.042,91.584 25.25,97.612c-53.834,23.513 -98.5,-74.92 -123.958,-87.083c-8.584,-4.067 -24.917,-6.05 -31.917,-0.758c-23.75,17.9 -10.792,74.442 16.333,93.404c8.001,5.579 20.292,16.479 20.292,16.479c-109.208,-2.983 -368.125,-263.445 -242.208,-423c30.666,-316.104 212.416,-400.696 422.25,-395.329c81.916,2.079 158.667,47.908 241.25,82.867c32.583,13.804 59.083,28.704 83.583,31.12c60.125,5.946 73.459,-50.504 109.458,-17.687c147.542,134.604 34.709,516.504 -306.666,407.117c-111.584,-35.763 -168.542,-51.179 -212.292,-17.034Z" style="fill:#003398;"/><path d="M4794.83,3618.14c60.084,-123.617 -7.333,-252.963 -134.667,-307.359c-127.333,-54.395 -264.499,22.554 -324.541,146.167c-117.917,242.579 -462.129,794.05 -293.046,1066.88c137.171,221.334 509.213,114.75 594.921,91.709c85.708,-23.084 137.375,-292.667 137.375,-292.667c-0,-0 -255.25,6.208 -283.917,-60.25c-47.541,-110.142 261.75,-557.825 303.875,-644.483Z" style="fill:#003398;"/><path d="M4747.25,4348.38c-72.25,43.125 -127.25,167.417 -122.583,249.25c19.5,-3.792 187.375,-59.458 187.375,-59.458c58.625,-66.459 78.125,-152.125 62.833,-206.917l-127.625,17.125Z" style="fill:#fff;"/><path d="M5191.29,4190l18.5,14.542c6.124,4.833 7.25,13.75 2.417,19.875l-313.417,396.375c-4.792,6.125 -41.584,23.666 -47.709,18.875c-6.125,-4.792 2.709,-45.5 7.501,-51.584l312.874,-395.666c4.792,-6.125 13.708,-7.209 19.834,-2.417Z" style="fill:#ee4354;"/><path d="M4868,4343.21l88.5,-14.583l101.125,-67.083c-0,-0 14.25,-11.417 33.709,3.583c147.041,113.083 16.958,154.667 -79.876,255.292c-44.958,1.125 -40.083,1.291 -70.5,-39.584c-5.916,-7.916 -135.208,37.292 -135.208,37.292c-1.958,-26.833 8.542,-115.625 62.25,-174.917Z" style="fill:#f8babc;"/><path d="M6631.75,3621.28c-12.5,78.458 60.667,205.025 116.292,227.488c6.208,-11.046 43.374,-58.951 68,-95.746c52.875,-79.046 -71.959,-244.234 -108.542,-207.579l-75.75,75.837Z" style="fill:#fff;"/><path d="M7162.17,3474.48c57.458,99.742 111.041,232.896 122.75,330.704l303.791,0c23.25,-48.316 94.334,-143.396 159.25,-226.191c64.833,-82.7 123.584,-153.58 122.375,-153.13c48.417,-62.466 79.334,-116.141 96.625,-213.066c17.375,-96.913 -8.083,-221.384 -71.333,-297.462c-63.167,-76.001 -161.083,-123.309 -278.458,-123.309c-117.376,0 -232.25,47.279 -322.708,123.309c-90.417,76.037 -160.334,200.695 -177.667,297.462c-17.334,96.766 -5.709,149.85 19.917,212.175c9.208,16.696 14.749,32.804 25.458,49.508Z" style="fill:#f7ab2b;"/><path d="M7576.12,3374.88c10.208,-14.612 23.958,-24.004 41.042,-27.138c11.208,-1.941 22.291,-0.195 31.5,4.463c9.541,4.879 17.041,12.675 22.25,22.079c5.833,10.879 8.375,23.563 7.375,36.833c-0.667,15.05 -5.417,30.463 -12.584,45.017c-10.75,21.971 -45.375,37.129 -88.083,45.779c-11.042,62.321 -22.25,124.504 -33.333,186.679l-27.125,0c10.916,-60.691 21.791,-121.375 32.666,-182.212c-39.5,5.075 -83.041,5.217 -121.083,0.3c-10.875,60.683 -21.75,121.375 -32.458,181.912l-28.959,0c11.042,-62.175 22.25,-124.358 33.292,-186.679c-39.833,-8.65 -68.625,-23.862 -71.667,-45.779c-2,-14.604 -1.25,-30.008 3.375,-45.017c4.084,-13.308 11.042,-25.954 20.75,-36.833c8.375,-9.404 18.75,-17.15 30.125,-22.079c11.084,-4.608 22.625,-6.404 33.167,-4.463c15.917,3.134 26.458,12.534 31.333,27.138c5.334,15.954 3.334,35.792 -0.833,53.233c-0.709,2.23 -1.208,4.467 -1.708,6.7c-9.375,-0.75 -18.417,-1.641 -27.625,-2.533c0.333,-2.083 0.999,-4.179 1.499,-6.267c2.667,-11.025 4.876,-25.337 1.334,-35.333c-2.334,-6.7 -6.833,-10.579 -14.042,-11.925c-5.542,-1.046 -11.75,0 -17.416,2.383c-6.542,2.83 -12.542,7.304 -17.251,12.675c-5.832,6.413 -9.875,13.863 -12.208,21.617c-3.208,10.133 -3.375,20.575 -2.166,30.271c5.666,41.154 263.333,41.121 283.666,-0c4.792,-9.713 8.125,-20.138 8.709,-30.271c0.416,-7.754 -0.875,-15.204 -4.209,-21.617c-2.833,-5.371 -7.208,-9.821 -12.916,-12.675c-4.667,-2.358 -10.5,-3.429 -16.542,-2.383c-7.542,1.346 -13.75,5.213 -18.25,11.925c-7.042,9.996 -10.083,24.308 -11.417,35.333c-0.166,2.1 -0.5,4.184 -0.666,6.267c-9.709,0.892 -19.084,1.783 -28.459,2.533c0.167,-2.233 0.584,-4.458 0.834,-6.7c1.916,-17.441 7.041,-37.287 18.083,-53.233Z" style="fill:#fff;"/><path d="M7332.83,3825.91l199.75,0c24.792,0 41.209,20.271 36.834,44.867c-4.501,24.613 -28.125,44.888 -52.875,44.888l-199.792,-0c-24.625,-0 -41.375,-20.275 -36.833,-44.888c4.333,-24.596 28.291,-44.867 52.916,-44.867Z" style="fill:#76c5fb;"/><path d="M7331.46,3926.7l166.458,0c16.583,0 27.625,13.713 24.625,30.267c-2.834,16.692 -18.917,30.262 -35.5,30.262l-166.459,0c-16.749,0 -27.791,-13.57 -24.958,-30.262c3.042,-16.554 19.125,-30.267 35.834,-30.267Z" style="fill:#76c5fb;"/><path d="M7345.88,3998.13l111.708,0c15.875,0 26.792,12.963 23.792,28.917c-2.875,15.958 -18.292,28.925 -34,28.925l-111.875,-0c-15.917,-0 -26.625,-12.967 -23.791,-28.925c3.041,-15.954 18.249,-28.917 34.166,-28.917Z" style="fill:#76c5fb;"/><path d="M7658,2564.94c12.917,-0 21.625,10.729 19.292,23.712c-6.208,34.438 -12.376,68.892 -18.417,103.321c-2.292,12.979 -14.916,23.567 -27.792,23.567c-13.25,-0 -21.75,-10.588 -19.458,-23.567c6.083,-34.429 12.25,-68.883 18.417,-103.321c2.333,-12.983 14.916,-23.712 27.958,-23.712Zm-679.166,703.766c-2.376,12.971 -14.917,23.713 -28.001,23.713l-103.333,-0c-12.875,-0 -21.417,-10.742 -19.084,-23.713c2.376,-12.97 14.751,-23.558 27.667,-23.558l103.292,-0c13.083,-0 21.792,10.588 19.459,23.558Zm1256.75,0c-2.375,12.971 -14.916,23.713 -27.958,23.713l-103.333,-0c-13.042,-0 -21.75,-10.742 -19.417,-23.713c2.334,-12.97 14.708,-23.558 27.958,-23.558l103.167,-0c13.042,-0 21.917,10.588 19.583,23.558Zm-31.333,-351.883c4.542,11.329 -2,25.767 -14.542,32.354c-32.833,17.267 -65.833,34.463 -98.458,51.583c-12.583,6.58 -26.5,2.688 -30.833,-8.633c-4.5,-11.183 2.041,-25.766 14.416,-32.212c32.834,-17.096 65.75,-34.521 98.625,-51.734c12.334,-6.487 26.292,-2.537 30.792,8.642Zm-1218.75,-0c8.541,-11.179 23.833,-15.117 33.833,-8.642c26.667,17.225 53.417,34.596 80.209,51.734c10.042,6.417 11.208,21.029 3.041,32.212c-8.75,11.321 -23.958,15.213 -34.166,8.633c-26.625,-17.12 -53.459,-34.262 -80.084,-51.583c-10.041,-6.533 -11.375,-21.025 -2.833,-32.354Zm303.792,-257.496c12.375,-6.558 26.166,-2.7 30.625,8.646c11.75,29.8 23.624,59.654 35.666,89.454c4.501,11.188 -2,25.796 -14.541,32.208c-12.417,6.563 -26.167,2.63 -30.667,-8.649c-11.917,-29.867 -23.833,-59.609 -35.666,-89.455c-4.417,-11.158 1.999,-25.792 14.583,-32.204Zm703.667,0c10.166,6.412 11.249,21.083 2.833,32.204c-22.709,29.88 -45.334,59.567 -67.834,89.455c-8.458,11.266 -23.625,15.212 -33.666,8.649c-10.042,-6.412 -11.459,-20.979 -3,-32.208c22.5,-29.771 45.083,-59.625 67.666,-89.454c8.542,-11.308 23.75,-15.204 34.001,-8.646Z" style="fill:#fca700;"/><path d="M6778.92,3497.13c7.793,-36.058 40.543,-178.562 67.126,-202.525c13.583,-12.22 16.791,-6.691 22.791,1.067c5.292,6.792 9.792,25.246 8.292,37.875c-3.125,26.421 -5.208,50.504 -9.166,64.75c80.374,-42.075 157.374,-140.725 216.166,-208.271c23.875,-27.454 61.875,-24.504 38.875,24.48c-18.792,40.07 -126.083,170.895 -126.083,170.895l160.042,-86.633c28.166,-15.246 27.999,19.392 14.583,33.954c-22.042,23.883 -159.542,109.804 -159.542,109.804l150.625,-22.083c0,-0 15.417,16.142 -3.333,27.387c-18.75,11.259 -163.208,57.671 -163.208,57.671l97.583,1.896c-0,0 9.167,19.692 -15.5,27.438c-13.084,4.133 -47.167,8.054 -79.709,18.791c-28.458,9.383 -55.916,25.508 -66.25,31.713c-57.708,34.608 -85.083,91.829 -126.041,139.9c-22.167,-17 -77.917,-81.821 -85.834,-161.571l58.583,-66.538Z" style="fill:#f8babc;"/><path d="M3638.89,4808.83c306.066,293.834 245.099,1277.67 634.07,1400.21c0,-0 277.875,64.208 259.125,145.833c-18.708,81.667 -54.875,112.458 -54.875,112.458c0,0 -327.312,29.792 -602.22,-27.75c-154.634,-32.375 -177.471,-236 -236.092,-259.625c-162.871,-65.583 -249.175,-724.375 -249.175,-724.375l249.167,-646.75Z" style="fill:#6aaff1;"/><path d="M3278.4,4666.12l-676.221,-0c-296.742,-0 -545.175,218.75 -594.254,504c-5.142,0 -27.471,188.25 -29.029,204.708c-33.371,352.084 -35.95,866.5 63.15,1236.96l1590,-0l6.846,-873.709l-0,-929.208c-104.979,-88.958 -213.421,-142.75 -360.496,-142.75Z" style="fill:#569bdd;"/><path d="M3336.4,4026.2c-2.787,63.625 7.004,120.642 22.042,163.762c47.208,135.375 -56.142,368.292 -236.954,352.834l0.645,123.333l-2.829,-0c80.054,94 -18.675,317.125 -109.537,317.833c-78.383,0.584 -221.917,-168.583 -231.959,-317.833l0,-252.875c-8.912,-2.792 -9.275,-1 -27.437,-12.083c-18.167,-11.084 -109.567,-101.417 -102.208,-143.584c7.358,-42.166 91.525,-47.041 91.525,-47.041l19.412,-17.084c-50.8,-124.995 -89.417,-127.237 41.475,-196.712c130.904,-69.463 394.925,-64.238 394.925,-64.238l136.638,40.963l4.262,52.725Z" style="fill:#e2a163;"/><path d="M3121.5,4543.04l0.633,121.833c-26.562,-3.917 -70.146,-13.958 -125.104,-39.333c-93.392,-43.167 -119.796,-128.167 -119.796,-128.167c73.021,27.917 140.55,43.667 219.088,45.083l25.179,0.584Z" style="fill:#b48345;"/><path d="M3996.35,5924.96c0,0 186.9,-1.791 247.358,21.125c60.459,22.917 82.292,54.459 82.292,54.459l61.75,15.458c0,-0 11.708,46.292 0,46.292c-11.667,-0 -339.696,30.916 -339.696,30.916l-69.904,-9.041c-0,-0 22.929,-104.625 15.525,-125c-7.388,-20.375 -42.488,-43.334 -42.488,-43.334l45.163,9.125Z" style="fill:#f7aaac;"/><path d="M2529.45,5089.29c-64.304,-142.792 -214.442,-308.459 -284.488,-168.375l-0.004,-0c-82.871,82.875 -100.316,94.375 -102.304,204.375c-6.067,340.375 123.083,1197.46 495.842,1293.62c199.854,51.583 540.5,95.791 764.787,88.083c90.567,-3.125 190.425,32.125 225.95,5.458c123.508,-92.625 -15.087,-197.333 -15.087,-197.333c-0,0 -775.546,-230.458 -854.475,-254.5c-130.784,-39.875 -185.13,-871.25 -230.221,-971.333Z" style="fill:#e2a163;"/><path d="M3661.82,6183.96c-0,0 -38.142,52.875 -46.85,123.834c-8.705,70.916 7.462,107.916 7.462,107.916c187.167,15 563.029,0.917 562.321,0.792c-12.625,-1.917 17.5,-28.875 -22.775,-49.583c-28.971,-14.875 -124.367,-19.667 -157.908,-42c-148.863,-98.917 -249,-79.5 -342.25,-140.959Z" style="fill:#e88e92;"/><path d="M3737.07,5535.67l1343.35,-0c51.791,-0 105.583,43.666 94.208,94.208l-200.75,887.833c-11.417,50.542 -42.416,94.209 -94.208,94.209l-1343.33,-0c-51.809,-0 -105.63,-43.667 -94.201,-94.209l200.742,-887.833c11.425,-50.542 42.379,-94.208 94.192,-94.208Z" style="fill:#8ccdfb;"/><path d="M3797.29,5535.67l1343.34,-0c51.792,-0 105.625,43.666 94.208,94.208l-200.749,887.833c-11.418,50.542 -42.417,94.209 -94.209,94.209l-1343.33,-0c-51.796,-0 -105.621,-43.667 -94.192,-94.209l200.742,-887.833c11.425,-50.542 42.379,-94.208 94.191,-94.208Z" style="fill:#fff;"/><path d="M4396.92,5985.58c40.625,13.042 60.833,63.125 45.166,111.834c-15.666,48.708 -61.25,77.625 -101.833,64.583c-40.625,-13.083 -60.833,-63.125 -45.171,-111.833c15.667,-48.709 61.254,-77.625 101.838,-64.584Z" style="fill:#76c5fb;"/><path d="M2663.93,6507l792.421,-0l75.217,104.917l-920.1,-0l-0,-52.459c-0,-28.875 23.637,-52.458 52.462,-52.458Z" style="fill:#8ccdfb;"/><path d="M2858.49,4032.26c-38.462,72.421 -21.72,201.071 -3.429,239.284c26.188,54.708 6.871,76.625 -15.958,68.792c-50.675,-17.296 -65.892,-39.505 -103.846,-57.63c-8.912,-4.25 -27.158,-7.537 -33.312,-0.787c-25.229,27.871 30.15,106.246 63.97,127.204c-165.562,19.542 -382.729,-261.762 -246.274,-434.637c-77.725,-539.33 645.57,-532.046 913.808,-226.496c46.275,52.708 52.758,161.466 24.829,203.929c-127.171,193.304 -451.9,-6.696 -568.867,50.521c-13.1,6.4 -23.604,16.054 -30.921,29.82Z" style="fill:#003398;"/><path d="M1519.56,6611.92l9499.19,-0c25.167,-0 45.792,20.625 45.792,45.791c-0,25.209 -20.625,45.834 -45.792,45.834l-9499.19,-0c-25.2,-0 -45.813,-20.625 -45.813,-45.834c0,-25.166 20.613,-45.791 45.813,-45.791Z" style="fill:#1a47b6;"/><path d="M9151.33,4877.38c-302.584,290.458 -499.714,1188.67 -884.209,1309.79c-0,-0 -35.708,90.041 -17.208,170.75c18.542,80.708 54.25,111.125 54.25,111.125c-0,-0 323.579,29.5 595.333,-27.417c152.875,-32 175.417,-233.292 233.375,-256.625c161,-64.833 246.333,-716.083 246.333,-716.083l-227.874,-591.542Z" style="fill:#f7ab2b;"/><path d="M8244.62,6305.96c-0.125,17.125 -5.917,2.959 5.292,51.959c11.25,48.958 54.25,111.166 54.25,111.166c-0,0 323.579,29.417 595.333,-27.458c152.834,-32 223.75,-155 281.667,-178.333c70,-28.167 33.541,-580.5 85.708,-640.417l7.625,-34.042l-111.292,-351.5c0,0 -165.667,847.792 -495.796,949.959c-330.121,102.166 -345.828,101.041 -422.787,118.666Z" style="fill:#eca01f;"/><path d="M9342.96,3784.45c78.041,569.342 -304.542,745.004 70.041,1271.5c0,0 229.416,-252.5 327.708,-270.333c98.251,-17.875 111.292,-326.792 111.292,-342.625c-0,-15.875 -87.417,-631.771 -87.417,-631.771l-421.624,-26.775Z" style="fill:#003398;"/><path d="M9573.25,4688.46l583.541,0c293.334,0 560.751,202.959 609.293,484.959c96.833,539.958 -94.042,1388.67 -98.876,1438.46l-1527.54,0l-6.792,-863.708l18.417,-870.792c90.541,-101.208 276.583,-188.917 421.958,-188.917Z" style="fill:#f7ab2b;"/><path d="M9984.12,4688.46c-95,264.709 -219.375,87.334 -340.375,0c-23.5,0 -61.834,-1.541 -100.292,1.167c-340.375,1137.12 -89.458,1137.12 -53.083,1720.25l333.042,167.292c74.249,-45.209 176.166,-85.959 250.416,-131.167c11.417,-593.208 -228.333,-597.833 82.958,-1757.54l-172.666,0Z" style="fill:#fff;"/><path d="M9431.92,4055.88c2.751,62.9 -6.916,119.25 -21.791,161.875c-46.667,133.833 55.5,364.083 234.25,348.792l-0.625,121.916l2.791,0c-44.333,148.834 42.959,289.917 111.084,292.834c60.459,2.541 218.208,-93.834 226.5,-292.834l-17.709,-199c8.793,-2.75 26.834,-40.833 44.834,-51.791c17.958,-10.917 37.708,-56.875 30.417,-98.584c-7.292,-41.666 -44.126,-128.541 -44.126,-128.541c50.209,-123.588 93.459,-115.096 -35.916,-183.767c-129.417,-68.683 -390.416,-63.513 -390.416,-63.513l-135.084,40.501l-4.209,52.112Z" style="fill:#f8babc;"/><path d="M9644.38,4566.83l-0.625,120.417c26.25,-3.875 69.333,-13.792 123.666,-38.917c92.293,-42.625 118.418,-126.666 118.418,-126.666c-72.167,27.583 -138.959,43.166 -216.584,44.541l-24.875,0.625Z" style="fill:#eb8e91;"/><path d="M8779.54,5932.92c0,-0 -184.792,-1.75 -244.546,20.875c-59.787,22.625 -81.329,53.833 -81.329,53.833l-61.084,15.25c0,-0 -11.542,45.792 0,45.792c11.542,-0 335.834,30.541 335.834,30.541l69.083,-8.916c-0,-0 -22.625,-103.459 -15.333,-123.584c7.291,-20.166 42,-42.833 42,-42.833l-44.625,9.042Z" style="fill:#f7aaac;"/><path d="M10254.7,5048.71c63.583,-141.166 252.917,-217.833 362.417,-108.333c81.916,81.917 99.166,93.25 101.125,202c6,336.5 -131.542,1284.12 -507.876,1340.79c-206.417,31.083 -543.166,64.041 -764.875,56.416c-89.542,-3.041 -161.708,0.417 -196.792,-25.916c-122.124,-91.542 52.292,-230.917 52.292,-230.917c0,-0 667.292,-239.542 745.334,-263.333c129.291,-39.417 163.791,-871.75 208.375,-970.709Z" style="fill:#ffc86b;"/><path d="M10689.6,5027.42c205.042,299.416 -113,1403.79 -479.25,1455.75c-206.667,29.333 -543.166,64 -764.875,56.416c-89.542,-3.041 -161.708,0.459 -196.792,-25.875c0,0 659.084,-84.416 972.042,-174.708c282.375,-81.5 478.417,-981.625 468.875,-1311.58Z" style="fill:#ffbc4a;"/><path d="M9110.25,6188.92c-0,-0 37.667,52.291 46.292,122.416c8.624,70.125 -7.375,106.667 -7.375,106.667c-185.042,14.875 -556.584,0.917 -555.88,0.792c12.458,-1.875 -17.287,-28.542 22.505,-49c28.662,-14.709 122.958,-19.459 156.125,-41.5c147.125,-97.792 246.125,-78.625 338.333,-139.375Z" style="fill:#e88e92;"/><path d="M9035.83,5548.08l-1327.96,0c-51.208,0 -104.375,43.167 -93.083,93.125l198.417,877.667c11.291,49.958 41.916,93.125 93.124,93.125l1327.96,0c51.208,0 104.416,-43.167 93.083,-93.125l-198.417,-877.667c-11.291,-49.958 -41.917,-93.125 -93.124,-93.125Z" style="fill:#8ccdfb;"/><path d="M8976.33,5548.08l-1327.96,0c-51.25,0 -104.416,43.167 -93.125,93.125l198.417,877.667c11.333,49.958 41.916,93.125 93.125,93.125l1327.96,0c51.208,0 104.417,-43.167 93.125,-93.125l-198.459,-877.667c-11.291,-49.958 -41.874,-93.125 -93.082,-93.125Z" style="fill:#fff;"/><path d="M8383.54,5992.83c-40.167,12.917 -60.125,62.375 -44.667,110.542c15.5,48.167 60.583,76.75 100.708,63.833c40.125,-12.875 60.126,-62.375 44.625,-110.541c-15.458,-48.167 -60.541,-76.75 -100.666,-63.834Z" style="fill:#76c5fb;"/><path d="M9957.46,6525.04l-674.333,-0l-0,86.958l717.833,0l0,-43.5c0,-23.917 -19.583,-43.458 -43.5,-43.458Z" style="fill:#8ccdfb;"/><path d="M4462.12,6272.17l521.917,-0c93.458,-0 169.874,76.458 169.874,169.875c0,93.416 -76.416,169.875 -169.874,169.875l-521.917,-0c-93.458,-0 -169.875,-76.459 -169.875,-169.875c0,-93.417 76.417,-169.875 169.875,-169.875Z" style="fill:#992842;"/><path d="M4921.25,6559.79l1179.71,-0c-76.333,-24.5 -114.5,-173.5 0,-237.834l-1179.71,0c-42.625,0 -77.583,53.584 -77.583,118.917c-0,65.333 34.958,118.917 77.583,118.917Z" style="fill:#e4f5fb;"/><path d="M6140.75,6611.92l-1223.75,-0c-61.417,-0 -126.333,-78 -126.333,-172.084c-0,-94.083 64.916,-170 126.333,-170l1223.75,0l-0.583,51.25l-1218.92,0.875c-42.625,0.042 -77.583,53.584 -77.583,118.917c-0,65.333 34.958,118.917 77.583,118.917l1218.92,-0.875l0.583,53Z" style="fill:#ba3954;"/><path d="M5100.75,6444.38l138.125,-0c53,20.083 37.667,99.625 69.125,151.75l-81.583,-43.042l-59.167,40.292c-45.875,-47.25 -19.666,-127.833 -66.5,-149Z" style="fill:#efd817;"/><path d="M6103.54,6067.21l-505,0c-57.584,0 -104.667,47.084 -104.667,104.667c0,57.583 47.083,104.708 104.667,104.708l505,0c57.583,0 104.708,-47.125 104.708,-104.708c-0,-57.583 -47.125,-104.667 -104.708,-104.667Z" style="fill:#992842;"/><path d="M5686.75,6244.46l-978,0c38.167,-15.666 68.875,-92.75 -0,-146.583l978,-0c35.375,-0 64.375,33.042 64.375,73.292c0,40.25 -29,73.291 -64.375,73.291Z" style="fill:#e4f5fb;"/><path d="M4675.75,6276.58l1014.54,0c50.916,0 104.75,-48.083 104.75,-106.041c-0,-58 -53.834,-104.792 -104.75,-104.792l-1014.54,-0l0.458,31.583l1010.54,0.542c35.375,-0 64.375,33.042 64.375,73.292c0,40.25 -29,73.291 -64.375,73.291l-1010.54,-0.541l-0.458,32.666Z" style="fill:#ba3954;"/><path d="M7576.92,6102.29c-0,280.291 -38.167,509.625 -84.792,509.625l-290.542,-0c-46.666,-0 -84.791,-229.334 -84.791,-509.625l460.125,-0Z" style="fill:#90a7d1;"/><path d="M7574.88,6214.04c-8.541,227 -42.5,397.875 -82.75,397.875l-290.542,-0c-46.333,-0 -84.291,-226.375 -84.791,-504.209l2.625,-3.875c-0,0 47.416,314.5 127.749,363.375c80.334,48.875 146.667,38.417 232.209,-90.791c36.583,-55.209 69.625,-113.584 95.5,-162.375Z" style="fill:#7c93c3;"/><path d="M7227.96,6102.29c17.334,-217.084 134.209,-669.084 321.667,-679.209c163.208,118.959 -18.792,533 -72.291,679.209l-249.376,-0Z" style="fill:#00a551;"/><path d="M7508.83,5533.17l-152.25,570.166l-7.875,-2.125l152.25,-570.125l7.875,2.084Z" style="fill:#cbe6d2;fill-rule:nonzero;"/><path d="M7298.21,5983.83l70.042,44.25l30.083,-112.708l80.875,-44.125l3.917,7.167l-77.792,42.416l-32.083,120.042l-79.375,-50.125l4.333,-6.917Z" style="fill:#cbe6d2;fill-rule:nonzero;"/><path d="M7348.38,5796.62l70.042,44.25l30.083,-112.708l80.875,-44.125l3.917,7.166l-77.792,42.417l-32.083,120.042l-79.376,-50.125l4.334,-6.917Z" style="fill:#cbe6d2;fill-rule:nonzero;"/><path d="M7379.54,5680.25l70.041,44.25l30.125,-112.708l80.875,-44.125l3.875,7.166l-77.791,42.417l-32.042,120.042l-79.416,-50.167l4.333,-6.875Z" style="fill:#cbe6d2;fill-rule:nonzero;"/><path d="M7348.46,6099.62c-11.208,-140.417 -86.833,-432.792 -208.083,-439.375c-105.583,76.958 12.167,344.792 46.75,439.375l161.333,0Z" style="fill:#00a551;"/><path d="M7166.75,5731.46l98.5,368.834l5.083,-1.334l-98.458,-368.833l-5.125,1.333Z" style="fill:#cbe6d2;fill-rule:nonzero;"/><path d="M7303,6023l-45.292,28.667l-19.458,-72.959l-52.333,-28.541l-2.542,4.666l50.333,27.417l20.75,77.667l51.375,-32.459l-2.833,-4.458Z" style="fill:#cbe6d2;fill-rule:nonzero;"/><path d="M7270.54,5901.92l-45.292,28.625l-19.458,-72.917l-52.334,-28.542l-2.5,4.625l50.334,27.417l20.708,77.708l51.375,-32.458l-2.833,-4.458Z" style="fill:#cbe6d2;fill-rule:nonzero;"/><path d="M7250.38,5826.62l-45.292,28.625l-19.458,-72.917l-52.333,-28.541l-2.542,4.625l50.333,27.458l20.75,77.667l51.375,-32.459l-2.833,-4.458Z" style="fill:#cbe6d2;fill-rule:nonzero;"/><rect x="7119.42" y="6103.83" width="457.416" height="26.5" style="fill:#fff;"/><path d="M2599.2,5002.42c-60.237,-133.709 -227.575,-212.5 -344.596,-143.209c-39.829,23.584 -90.108,75.375 -107.3,138.834c-83.108,306.625 109.267,1042.12 183.588,1226.33c192.862,-171.75 379.762,-207.25 423.179,-217.417c-75.021,-260.625 -118.479,-923.75 -154.871,-1004.54Z" style="fill:#6aaff1;"/><path d="M2154.2,4981.83c-135.35,298.709 77.712,997.209 176.692,1242.54c35.783,-31.875 72.058,-59.75 107.679,-84.042c-144.258,-316.375 -274.696,-902.625 -284.371,-1158.5Z" style="fill:#64a4e2;"/><path d="M2754.07,6006.96c-0,0 -2.783,18.375 -10.621,24.792c-7.825,6.458 -12.075,9.542 -12.075,9.542l-12.737,-26.042l35.433,-8.292Z" style="fill:#4596d1;"/><path d="M3122.14,4681.46c51.146,144.875 -33.487,253.334 -112.37,302.459c-122.325,-88.709 -232.304,-175.167 -232.304,-342.042c-0,-0 -42.217,-0.875 -69.588,73.958c-45.196,121.209 30.55,393.375 30.55,393.375c-0,0 84.988,-122.833 155.642,-129.458c70.662,-6.625 116.5,17.25 116.5,17.25c90.375,-74.125 151.97,21.917 212.437,92.292c19.063,-179.542 19.171,-305.584 -101.042,-444.459c0.042,8.5 -1.445,32 0.175,36.625Zm-95.687,428.084c-14.062,-0 -25.463,12.75 -25.463,28.458c0,15.667 11.401,28.417 25.463,28.417c14.063,-0 25.458,-12.75 25.458,-28.417c0,-15.708 -11.395,-28.458 -25.458,-28.458Zm0,165c-14.062,-0 -25.463,12.708 -25.463,28.458c0,15.708 11.401,28.417 25.463,28.417c14.063,-0 25.458,-12.709 25.458,-28.417c0,-15.75 -11.395,-28.458 -25.458,-28.458Z" style="fill:#fff;"/><rect x="3294.67" y="5454.42" width="271.975" height="66.083" style="fill:#76c5fb;"/><path d="M6280.33,5628.67c29.042,-0 52.584,23.541 52.584,52.583c-0,29.083 -23.542,52.625 -52.584,52.625c-29.041,0 -52.583,-23.542 -52.583,-52.625c0,-29.042 23.542,-52.583 52.583,-52.583Z" style="fill:#ec1c24;"/><path d="M6475.04,5628.67c29.083,-0 52.583,23.541 52.583,52.583c0,29.083 -23.5,52.625 -52.583,52.625c-29.042,0 -52.584,-23.542 -52.584,-52.625c0,-29.042 23.542,-52.583 52.584,-52.583Z" style="fill:#3dabf9;"/><path d="M6669.75,5628.67c29.083,-0 52.625,23.541 52.625,52.583c-0,29.083 -23.542,52.625 -52.625,52.625c-29.042,0 -52.583,-23.542 -52.583,-52.625c-0,-29.042 23.541,-52.583 52.583,-52.583Z" style="fill:#3dabf9;"/><path d="M9449.79,2501.97l551.292,-0c4.459,-0 8.083,3.62 8.083,8.062l0,23.475c0,4.429 -3.624,8.05 -8.083,8.05l-551.292,0c-4.416,0 -8.041,-3.621 -8.041,-8.05l0,-23.475c0,-4.442 3.625,-8.062 8.041,-8.062Z" style="fill:#ff5269;"/><path d="M9449.79,2686.7l1250.67,-0c4.457,-0 8.083,3.63 8.083,8.05l-0,23.483c-0,4.429 -3.626,8.063 -8.083,8.063l-1250.67,0c-4.458,0 -8.041,-3.634 -8.041,-8.063l0,-23.483c0,-4.42 3.583,-8.05 8.041,-8.05Z" style="fill:#26a0f8;"/><path d="M9449.79,2871.45l1250.67,-0c4.457,-0 8.083,3.625 8.083,8.054l-0,23.471c-0,4.442 -3.626,8.062 -8.083,8.062l-1250.67,0c-4.458,0 -8.041,-3.62 -8.041,-8.062l0,-23.471c0,-4.429 3.583,-8.054 8.041,-8.054Z" style="fill:#26a0f8;"/><path d="M9449.79,3056.18l1250.67,0c4.457,0 8.083,3.621 8.083,8.067l-0,23.471c-0,4.442 -3.626,8.05 -8.083,8.05l-1250.67,-0c-4.458,-0 -8.041,-3.608 -8.041,-8.05l0,-23.471c0,-4.446 3.583,-8.067 8.041,-8.067Z" style="fill:#26a0f8;"/><path d="M9449.79,3240.93l1250.67,0c4.457,0 8.083,3.617 8.083,8.046l-0,23.488c-0,4.429 -3.626,8.05 -8.083,8.05l-1250.67,-0c-4.458,-0 -8.041,-3.621 -8.041,-8.05l0,-23.488c0,-4.429 3.583,-8.046 8.041,-8.046Z" style="fill:#26a0f8;"/><path d="M6707.46,4293.83l1236.46,0c17.5,0 31.792,14.292 31.792,31.792c-0,17.5 -14.292,31.792 -31.792,31.792l-1236.46,-0c-17.5,-0 -31.791,-14.292 -31.791,-31.792c-0,-17.5 14.291,-31.792 31.791,-31.792Z" style="fill:#b2defc;"/><path d="M9785.62,4002.04c0,-0 -310.75,81.35 -485.834,-24.742c-114.833,-79.633 -127.791,-240.883 40.5,-359.8c216.792,-153.179 632.667,-108.062 792.209,136.067c55.666,85.212 111.333,233.3 177.416,384.241c153.667,350.942 565.042,131.734 682.459,720.692c5.417,27.25 -92.458,-34.208 -179,-56.417c83,193.292 -27.209,336.875 -48.667,363.709c-93.416,-426.542 -482.166,-443.167 -780.583,-477.334c-44.291,-40.958 -50.416,-156.291 -50.792,-213.875c0,0 89.876,-63.208 85.459,-136.625c-4.375,-73.416 -25.125,-71.5 -33.5,-69.708c-8.417,1.754 -56.459,29.708 -56.459,29.708c-17.041,-95.333 -13.166,-285.329 -143.208,-295.916Z" style="fill:#003398;"/><path d="M9946.5,4394.62c18.833,0 34.125,15.25 34.125,34.125c0,18.833 -15.292,34.083 -34.125,34.083c-18.875,0 -34.125,-15.25 -34.125,-34.083c-0,-18.875 15.25,-34.125 34.125,-34.125Z" style="fill:#fff;"/><path d="M8119.46,1271.37c13.166,-0 24,10.791 24,23.991l-0,209.784c-0,13.187 -10.834,23.991 -24,23.991c-13.209,0 -24.001,-10.804 -24.001,-23.991l0,-209.784c0,-13.2 10.792,-23.991 24.001,-23.991Z" style="fill:#219ef8;"/><path d="M8248.33,1400.25c0,13.195 -10.791,23.996 -24,23.996l-209.791,-0c-13.209,-0 -24,-10.801 -24,-23.996c-0,-13.2 10.791,-23.992 24,-23.992l209.791,0c13.209,0 24,10.792 24,23.992Z" style="fill:#219ef8;"/><path d="M5396,1508.5c10.708,0 19.5,8.775 19.5,19.517l-0,170.637c-0,10.73 -8.792,19.509 -19.5,19.509c-10.75,-0 -19.542,-8.779 -19.542,-19.509l0,-170.637c0,-10.742 8.792,-19.517 19.542,-19.517Z" style="fill:#219ef8;"/><path d="M5500.83,1613.33l0,0.013c0,10.725 -8.791,19.508 -19.541,19.508l-170.625,0c-10.75,0 -19.5,-8.783 -19.5,-19.508l-0,-0.013c-0,-10.742 8.75,-19.516 19.5,-19.516l170.625,-0c10.75,-0 19.541,8.774 19.541,19.516Z" style="fill:#219ef8;"/><path d="M6287.83,694.983c26.584,0 50.625,10.771 68.042,28.188l-0.042,0.037c17.459,17.455 28.209,41.488 28.209,68.009c-0,26.566 -10.75,50.616 -28.167,68.029c-17.417,17.412 -41.458,28.196 -68.042,28.196c-26.5,-0 -50.583,-10.784 -68,-28.225l-0.041,0.029c-17.417,-17.413 -28.209,-41.463 -28.209,-68.029c0,-26.5 10.792,-50.534 28.209,-67.992l0.041,-0.017l0,-0.037c17.458,-17.417 41.5,-28.188 68,-28.188Zm43.667,52.546c-11.167,-11.187 -26.625,-18.092 -43.667,-18.092c-17.125,0 -32.541,6.888 -43.666,18.034l-0.084,0.058c-11.166,11.129 -18.041,26.575 -18.041,43.688c-0,17.058 6.916,32.5 18.125,43.679l-0,0.071c11.125,11.121 26.541,18.025 43.666,18.025c17.042,-0 32.5,-6.921 43.667,-18.096c11.167,-11.179 18.125,-26.621 18.125,-43.679c0,-17.113 -6.917,-32.559 -18.042,-43.688l-0.083,0Z" style="fill:#f68c21;fill-rule:nonzero;"/><path d="M7148.79,1800c22.708,-0 43.208,9.196 58.083,24.054l-0.042,0.029c14.917,14.892 24.126,35.412 24.126,58.046c-0,22.675 -9.209,43.221 -24.084,58.079c-14.875,14.862 -35.375,24.054 -58.083,24.054c-22.584,0 -43.125,-9.204 -58.042,-24.087l0,0.033c-14.875,-14.858 -24.083,-35.404 -24.083,-58.079c-0,-22.608 9.208,-43.125 24.083,-58.013l0,-0.033l0.042,-0.029c14.875,-14.858 35.416,-24.054 58,-24.054Zm37.291,44.846c-9.541,-9.546 -22.708,-15.438 -37.291,-15.438c-14.584,0 -27.792,5.883 -37.25,15.38l-0.084,0.058c-9.5,9.504 -15.374,22.687 -15.374,37.283c-0,14.562 5.916,27.75 15.458,37.283l-0,0.063c9.458,9.508 22.666,15.379 37.25,15.379c14.583,0 27.75,-5.896 37.291,-15.442c9.542,-9.533 15.459,-22.721 15.459,-37.283c-0,-14.596 -5.875,-27.779 -15.375,-37.283l-0.084,-0Z" style="fill:#f68c21;fill-rule:nonzero;"/><path d="M9282.46,1421.86c22.667,0 43.208,9.192 58.084,24.067l-0.042,0.021c14.875,14.9 24.083,35.425 24.083,58.046c0,22.679 -9.166,43.208 -24.041,58.075c-14.876,14.87 -35.417,24.066 -58.084,24.066c-22.624,0 -43.167,-9.216 -58.041,-24.095l-0.042,0.029c-14.833,-14.867 -24.041,-35.396 -24.041,-58.075c-0,-22.613 9.208,-43.129 24.041,-58.017l0.042,-0.029l0.042,-0.021c14.874,-14.875 35.375,-24.067 57.999,-24.067Zm37.292,44.85c-9.542,-9.537 -22.708,-15.442 -37.292,-15.442c-14.583,0 -27.791,5.884 -37.291,15.388l-0.042,0.054c-9.5,9.492 -15.417,22.68 -15.417,37.284c-0,14.57 5.917,27.745 15.459,37.291l0,0.055c9.5,9.504 22.708,15.387 37.291,15.387c14.584,0 27.75,-5.904 37.292,-15.442c9.542,-9.546 15.458,-22.721 15.458,-37.291c0,-14.604 -5.916,-27.792 -15.416,-37.284l-0.042,0Z" style="fill:#f68c21;fill-rule:nonzero;"/><path d="M4405.46,1343.65c22.666,0 43.208,9.188 58.083,24.05l-0.042,0.033c14.875,14.888 24.083,35.413 24.083,58.046c0,22.671 -9.208,43.217 -24.041,58.075c-14.875,14.859 -35.417,24.059 -58.083,24.059c-22.626,-0 -43.172,-9.213 -58.042,-24.088l-0.042,0.029c-14.875,-14.858 -24.088,-35.404 -24.088,-58.075c0,-22.612 9.213,-43.137 24.088,-58.016l0.042,-0.03l-0,-0.033c14.912,-14.862 35.416,-24.05 58.042,-24.05Zm37.291,44.842c-9.542,-9.542 -22.75,-15.442 -37.291,-15.442c-14.625,-0 -27.792,5.879 -37.292,15.383l-0.088,0.059c-9.495,9.508 -15.371,22.687 -15.371,37.287c0,14.559 5.913,27.746 15.459,37.284l-0,0.058c9.5,9.508 22.667,15.379 37.292,15.379c14.541,-0 27.749,-5.896 37.291,-15.437c9.5,-9.538 15.417,-22.725 15.417,-37.284c-0,-14.6 -5.875,-27.779 -15.375,-37.287l-0.042,-0Z" style="fill:#f68c21;fill-rule:nonzero;"/><path d="M9980.42,1949.76c9.375,0 16.999,7.667 16.999,17.047l0,149.033c0,9.379 -7.624,17.037 -16.999,17.037c-9.417,0 -17.042,-7.658 -17.042,-17.037l-0,-149.033c-0,-9.38 7.625,-17.047 17.042,-17.047Z" style="fill:#219ef8;"/><path d="M10072,2041.33c0,9.371 -7.667,17.05 -17.042,17.05l-149.041,0c-9.375,0 -17.041,-7.679 -17.041,-17.05c-0,-9.379 7.666,-17.046 17.041,-17.046l149.041,0c9.375,0 17.042,7.667 17.042,17.046Z" style="fill:#219ef8;"/><path d="M3933.73,1936.92l0.008,-0c8.159,-0 14.838,6.671 14.838,14.837l0,129.717c0,8.158 -6.679,14.829 -14.838,14.829l-0.008,0c-8.158,0 -14.833,-6.671 -14.833,-14.829l-0,-129.717c-0,-8.166 6.675,-14.837 14.833,-14.837Z" style="fill:#219ef8;"/><path d="M4013.42,2016.61l-0,0.013c-0,8.15 -6.671,14.838 -14.833,14.838l-129.717,-0c-8.159,-0 -14.829,-6.688 -14.829,-14.838l-0,-0.013c-0,-8.166 6.67,-14.829 14.829,-14.829l129.717,0c8.162,0 14.833,6.663 14.833,14.829Z" style="fill:#219ef8;"/></g><defs><linearGradient id="_Linear1" x1="0" y1="0" x2="1" y2="0" gradientUnits="userSpaceOnUse" gradientTransform="matrix(-0.000445229,-10185.7,10185.7,-0.000445229,6250,12714.7)"><stop offset="0" style="stop-color:#afd6ff;stop-opacity:1"/><stop offset="1" style="stop-color:#fdfdfd;stop-opacity:1"/></linearGradient><linearGradient id="_Linear2" x1="0" y1="0" x2="1" y2="0" gradientUnits="userSpaceOnUse" gradientTransform="matrix(-0.0005813,-13298.6,13298.6,-0.0005813,6216.96,13614.8)"><stop offset="0" style="stop-color:#1d9cf7;stop-opacity:1"/><stop offset="0.9" style="stop-color:#dff1fe;stop-opacity:1"/><stop offset="1" style="stop-color:#ebf6ff;stop-opacity:1"/></linearGradient><linearGradient id="_Linear3" x1="0" y1="0" x2="1" y2="0" gradientUnits="userSpaceOnUse" gradientTransform="matrix(-0.00010587,-2422.03,2422.03,-0.00010587,6498.88,5505.08)"><stop offset="0" style="stop-color:#3d9cff;stop-opacity:1"/><stop offset="1" style="stop-color:#cdebf9;stop-opacity:1"/></linearGradient></defs></svg>