<?xml version="1.0" encoding="UTF-8" standalone="no"?><!DOCTYPE svg PUBLIC "-//W3C//DTD SVG 1.1//EN" "http://www.w3.org/Graphics/SVG/1.1/DTD/svg11.dtd"><svg width="100%" height="100%" viewBox="0 0 1238 1238" version="1.1" xmlns="http://www.w3.org/2000/svg" xmlns:xlink="http://www.w3.org/1999/xlink" xml:space="preserve" xmlns:serif="http://www.serif.com/" style="fill-rule:evenodd;clip-rule:evenodd;stroke-linejoin:round;stroke-miterlimit:2;"><g><path d="M1131.75,1237.5l-1131.75,0l0,-1132.92l1131.75,1132.92Z" style="fill:#c5b38b;fill-rule:nonzero;"/><path d="M154.167,1097.92c-0,8.041 -6.501,14.583 -14.584,14.583c-8.042,0 -14.583,-6.542 -14.583,-14.583c0,-8.042 6.541,-14.584 14.583,-14.584c8.083,0 14.584,6.542 14.584,14.584Z" style="fill-rule:nonzero;"/><path d="M237.5,1097.92c0,8.041 -6.5,14.583 -14.583,14.583c-8.042,0 -14.584,-6.542 -14.584,-14.583c0,-8.042 6.542,-14.584 14.584,-14.584c8.083,0 14.583,6.542 14.583,14.584Z" style="fill-rule:nonzero;"/><path d="M320.833,1097.92c0,8.041 -6.5,14.583 -14.583,14.583c-8.042,0 -14.583,-6.542 -14.583,-14.583c-0,-8.042 6.541,-14.584 14.583,-14.584c8.083,0 14.583,6.542 14.583,14.584Z" style="fill-rule:nonzero;"/><path d="M404.167,1097.92c-0,8.041 -6.501,14.583 -14.584,14.583c-8.042,0 -14.583,-6.542 -14.583,-14.583c0,-8.042 6.541,-14.584 14.583,-14.584c8.083,0 14.584,6.542 14.584,14.584Z" style="fill-rule:nonzero;"/><path d="M487.5,1097.92c0,8.041 -6.5,14.583 -14.583,14.583c-8.042,0 -14.584,-6.542 -14.584,-14.583c0,-8.042 6.542,-14.584 14.584,-14.584c8.083,0 14.583,6.542 14.583,14.584Z" style="fill-rule:nonzero;"/><path d="M570.833,1097.92c0,8.041 -6.5,14.583 -14.583,14.583c-8.042,0 -14.583,-6.542 -14.583,-14.583c-0,-8.042 6.541,-14.584 14.583,-14.584c8.083,0 14.583,6.542 14.583,14.584Z" style="fill-rule:nonzero;"/><path d="M654.167,1097.92c-0,8.041 -6.501,14.583 -14.584,14.583c-8.042,0 -14.583,-6.542 -14.583,-14.583c-0,-8.042 6.541,-14.584 14.583,-14.584c8.083,0 14.584,6.542 14.584,14.584Z" style="fill-rule:nonzero;"/><path d="M737.5,1097.92c0,8.041 -6.5,14.583 -14.583,14.583c-8.042,0 -14.584,-6.542 -14.584,-14.583c0,-8.042 6.542,-14.584 14.584,-14.584c8.083,0 14.583,6.542 14.583,14.584Z" style="fill-rule:nonzero;"/><path d="M820.833,1097.92c0,8.041 -6.5,14.583 -14.583,14.583c-8.042,0 -14.583,-6.542 -14.583,-14.583c-0,-8.042 6.541,-14.584 14.583,-14.584c8.083,0 14.583,6.542 14.583,14.584Z" style="fill-rule:nonzero;"/><path d="M904.167,1097.92c-0,8.041 -6.501,14.583 -14.584,14.583c-8.042,0 -14.583,-6.542 -14.583,-14.583c-0,-8.042 6.541,-14.584 14.583,-14.584c8.083,0 14.584,6.542 14.584,14.584Z" style="fill-rule:nonzero;"/><path d="M987.5,1097.92c0,8.041 -6.5,14.583 -14.583,14.583c-8.042,0 -14.584,-6.542 -14.584,-14.583c0,-8.042 6.542,-14.584 14.584,-14.584c8.083,0 14.583,6.542 14.583,14.584Z" style="fill-rule:nonzero;"/><path d="M1070.83,1097.92c0,8.041 -6.5,14.583 -14.583,14.583c-8.042,0 -14.583,-6.542 -14.583,-14.583c-0,-8.042 6.541,-14.584 14.583,-14.584c8.083,0 14.583,6.542 14.583,14.584Z" style="fill-rule:nonzero;"/><path d="M1154.17,1097.92c-0,8.041 -6.501,14.583 -14.584,14.583c-8.042,0 -14.583,-6.542 -14.583,-14.583c0,-8.042 6.541,-14.584 14.583,-14.584c8.083,0 14.584,6.542 14.584,14.584Z" style="fill-rule:nonzero;"/><path d="M1237.5,1097.92c0,8.041 -6.5,14.583 -14.583,14.583c-8.042,0 -14.584,-6.542 -14.584,-14.583c0,-8.042 6.542,-14.584 14.584,-14.584c8.083,0 14.583,6.542 14.583,14.584Z" style="fill-rule:nonzero;"/><path d="M154.167,1014.58c-0,8.042 -6.501,14.584 -14.584,14.584c-8.042,-0 -14.583,-6.542 -14.583,-14.584c0,-8.041 6.541,-14.583 14.583,-14.583c8.083,0 14.584,6.542 14.584,14.583Z" style="fill-rule:nonzero;"/><path d="M237.5,1014.58c0,8.042 -6.5,14.584 -14.583,14.584c-8.042,-0 -14.584,-6.542 -14.584,-14.584c0,-8.041 6.542,-14.583 14.584,-14.583c8.083,0 14.583,6.542 14.583,14.583Z" style="fill-rule:nonzero;"/><path d="M320.833,1014.58c0,8.042 -6.5,14.584 -14.583,14.584c-8.042,-0 -14.583,-6.542 -14.583,-14.584c-0,-8.041 6.541,-14.583 14.583,-14.583c8.083,0 14.583,6.542 14.583,14.583Z" style="fill-rule:nonzero;"/><path d="M404.167,1014.58c-0,8.042 -6.501,14.584 -14.584,14.584c-8.042,-0 -14.583,-6.542 -14.583,-14.584c0,-8.041 6.541,-14.583 14.583,-14.583c8.083,0 14.584,6.542 14.584,14.583Z" style="fill-rule:nonzero;"/><path d="M487.5,1014.58c0,8.042 -6.5,14.584 -14.583,14.584c-8.042,-0 -14.584,-6.542 -14.584,-14.584c0,-8.041 6.542,-14.583 14.584,-14.583c8.083,0 14.583,6.542 14.583,14.583Z" style="fill-rule:nonzero;"/><path d="M570.833,1014.58c0,8.042 -6.5,14.584 -14.583,14.584c-8.042,-0 -14.583,-6.542 -14.583,-14.584c-0,-8.041 6.541,-14.583 14.583,-14.583c8.083,0 14.583,6.542 14.583,14.583Z" style="fill-rule:nonzero;"/><path d="M654.167,1014.58c-0,8.042 -6.501,14.584 -14.584,14.584c-8.042,-0 -14.583,-6.542 -14.583,-14.584c-0,-8.041 6.541,-14.583 14.583,-14.583c8.083,0 14.584,6.542 14.584,14.583Z" style="fill-rule:nonzero;"/><path d="M737.5,1014.58c0,8.042 -6.5,14.584 -14.583,14.584c-8.042,-0 -14.584,-6.542 -14.584,-14.584c0,-8.041 6.542,-14.583 14.584,-14.583c8.083,0 14.583,6.542 14.583,14.583Z" style="fill-rule:nonzero;"/><path d="M820.833,1014.58c0,8.042 -6.5,14.584 -14.583,14.584c-8.042,-0 -14.583,-6.542 -14.583,-14.584c-0,-8.041 6.541,-14.583 14.583,-14.583c8.083,0 14.583,6.542 14.583,14.583Z" style="fill-rule:nonzero;"/><path d="M904.167,1014.58c-0,8.042 -6.501,14.584 -14.584,14.584c-8.042,-0 -14.583,-6.542 -14.583,-14.584c-0,-8.041 6.541,-14.583 14.583,-14.583c8.083,0 14.584,6.542 14.584,14.583Z" style="fill-rule:nonzero;"/><path d="M987.5,1014.58c0,8.042 -6.5,14.584 -14.583,14.584c-8.042,-0 -14.584,-6.542 -14.584,-14.584c0,-8.041 6.542,-14.583 14.584,-14.583c8.083,0 14.583,6.542 14.583,14.583Z" style="fill-rule:nonzero;"/><path d="M1070.83,1014.58c0,8.042 -6.5,14.584 -14.583,14.584c-8.042,-0 -14.583,-6.542 -14.583,-14.584c-0,-8.041 6.541,-14.583 14.583,-14.583c8.083,0 14.583,6.542 14.583,14.583Z" style="fill-rule:nonzero;"/><path d="M1154.17,1014.58c-0,8.042 -6.501,14.584 -14.584,14.584c-8.042,-0 -14.583,-6.542 -14.583,-14.584c0,-8.041 6.541,-14.583 14.583,-14.583c8.083,0 14.584,6.542 14.584,14.583Z" style="fill-rule:nonzero;"/><path d="M154.167,931.25c-0,8.042 -6.501,14.583 -14.584,14.583c-8.042,0 -14.583,-6.541 -14.583,-14.583c0,-8.042 6.541,-14.583 14.583,-14.583c8.083,-0 14.584,6.541 14.584,14.583Z" style="fill-rule:nonzero;"/><path d="M237.5,931.25c0,8.042 -6.5,14.583 -14.583,14.583c-8.042,0 -14.584,-6.541 -14.584,-14.583c0,-8.042 6.542,-14.583 14.584,-14.583c8.083,-0 14.583,6.541 14.583,14.583Z" style="fill-rule:nonzero;"/><path d="M320.833,931.25c0,8.042 -6.5,14.583 -14.583,14.583c-8.042,0 -14.583,-6.541 -14.583,-14.583c-0,-8.042 6.541,-14.583 14.583,-14.583c8.083,-0 14.583,6.541 14.583,14.583Z" style="fill-rule:nonzero;"/><path d="M404.167,931.25c-0,8.042 -6.501,14.583 -14.584,14.583c-8.042,0 -14.583,-6.541 -14.583,-14.583c0,-8.042 6.541,-14.583 14.583,-14.583c8.083,-0 14.584,6.541 14.584,14.583Z" style="fill-rule:nonzero;"/><path d="M487.5,931.25c0,8.042 -6.5,14.583 -14.583,14.583c-8.042,0 -14.584,-6.541 -14.584,-14.583c0,-8.042 6.542,-14.583 14.584,-14.583c8.083,-0 14.583,6.541 14.583,14.583Z" style="fill-rule:nonzero;"/><path d="M570.833,931.25c0,8.042 -6.5,14.583 -14.583,14.583c-8.042,0 -14.583,-6.541 -14.583,-14.583c-0,-8.042 6.541,-14.583 14.583,-14.583c8.083,-0 14.583,6.541 14.583,14.583Z" style="fill-rule:nonzero;"/><path d="M654.167,931.25c-0,8.042 -6.501,14.583 -14.584,14.583c-8.042,0 -14.583,-6.541 -14.583,-14.583c-0,-8.042 6.541,-14.583 14.583,-14.583c8.083,-0 14.584,6.541 14.584,14.583Z" style="fill-rule:nonzero;"/><path d="M737.5,931.25c0,8.042 -6.5,14.583 -14.583,14.583c-8.042,0 -14.584,-6.541 -14.584,-14.583c0,-8.042 6.542,-14.583 14.584,-14.583c8.083,-0 14.583,6.541 14.583,14.583Z" style="fill-rule:nonzero;"/><path d="M820.833,931.25c0,8.042 -6.5,14.583 -14.583,14.583c-8.042,0 -14.583,-6.541 -14.583,-14.583c-0,-8.042 6.541,-14.583 14.583,-14.583c8.083,-0 14.583,6.541 14.583,14.583Z" style="fill-rule:nonzero;"/><path d="M904.167,931.25c-0,8.042 -6.501,14.583 -14.584,14.583c-8.042,0 -14.583,-6.541 -14.583,-14.583c-0,-8.042 6.541,-14.583 14.583,-14.583c8.083,-0 14.584,6.541 14.584,14.583Z" style="fill-rule:nonzero;"/><path d="M987.5,931.25c0,8.042 -6.5,14.583 -14.583,14.583c-8.042,0 -14.584,-6.541 -14.584,-14.583c0,-8.042 6.542,-14.583 14.584,-14.583c8.083,-0 14.583,6.541 14.583,14.583Z" style="fill-rule:nonzero;"/><path d="M1070.83,931.25c0,8.042 -6.5,14.583 -14.583,14.583c-8.042,0 -14.583,-6.541 -14.583,-14.583c-0,-8.042 6.541,-14.583 14.583,-14.583c8.083,-0 14.583,6.541 14.583,14.583Z" style="fill-rule:nonzero;"/><path d="M154.167,847.917c-0,8.041 -6.501,14.583 -14.584,14.583c-8.042,0 -14.583,-6.542 -14.583,-14.583c0,-8.042 6.541,-14.584 14.583,-14.584c8.083,0 14.584,6.542 14.584,14.584Z" style="fill-rule:nonzero;"/><path d="M237.5,847.917c0,8.041 -6.5,14.583 -14.583,14.583c-8.042,0 -14.584,-6.542 -14.584,-14.583c0,-8.042 6.542,-14.584 14.584,-14.584c8.083,0 14.583,6.542 14.583,14.584Z" style="fill-rule:nonzero;"/><path d="M320.833,847.917c0,8.041 -6.5,14.583 -14.583,14.583c-8.042,0 -14.583,-6.542 -14.583,-14.583c-0,-8.042 6.541,-14.584 14.583,-14.584c8.083,0 14.583,6.542 14.583,14.584Z" style="fill-rule:nonzero;"/><path d="M404.167,847.917c-0,8.041 -6.501,14.583 -14.584,14.583c-8.042,0 -14.583,-6.542 -14.583,-14.583c0,-8.042 6.541,-14.584 14.583,-14.584c8.083,0 14.584,6.542 14.584,14.584Z" style="fill-rule:nonzero;"/><path d="M487.5,847.917c0,8.041 -6.5,14.583 -14.583,14.583c-8.042,0 -14.584,-6.542 -14.584,-14.583c0,-8.042 6.542,-14.584 14.584,-14.584c8.083,0 14.583,6.542 14.583,14.584Z" style="fill-rule:nonzero;"/><path d="M570.833,847.917c0,8.041 -6.5,14.583 -14.583,14.583c-8.042,0 -14.583,-6.542 -14.583,-14.583c-0,-8.042 6.541,-14.584 14.583,-14.584c8.083,0 14.583,6.542 14.583,14.584Z" style="fill-rule:nonzero;"/><path d="M654.167,847.917c-0,8.041 -6.501,14.583 -14.584,14.583c-8.042,0 -14.583,-6.542 -14.583,-14.583c-0,-8.042 6.541,-14.584 14.583,-14.584c8.083,0 14.584,6.542 14.584,14.584Z" style="fill-rule:nonzero;"/><path d="M737.5,847.917c0,8.041 -6.5,14.583 -14.583,14.583c-8.042,0 -14.584,-6.542 -14.584,-14.583c0,-8.042 6.542,-14.584 14.584,-14.584c8.083,0 14.583,6.542 14.583,14.584Z" style="fill-rule:nonzero;"/><path d="M820.833,847.917c0,8.041 -6.5,14.583 -14.583,14.583c-8.042,0 -14.583,-6.542 -14.583,-14.583c-0,-8.042 6.541,-14.584 14.583,-14.584c8.083,0 14.583,6.542 14.583,14.584Z" style="fill-rule:nonzero;"/><path d="M904.167,847.917c-0,8.041 -6.501,14.583 -14.584,14.583c-8.042,0 -14.583,-6.542 -14.583,-14.583c-0,-8.042 6.541,-14.584 14.583,-14.584c8.083,0 14.584,6.542 14.584,14.584Z" style="fill-rule:nonzero;"/><path d="M987.5,847.917c0,8.041 -6.5,14.583 -14.583,14.583c-8.042,0 -14.584,-6.542 -14.584,-14.583c0,-8.042 6.542,-14.584 14.584,-14.584c8.083,0 14.583,6.542 14.583,14.584Z" style="fill-rule:nonzero;"/><path d="M154.167,764.583c-0,8.042 -6.501,14.584 -14.584,14.584c-8.042,-0 -14.583,-6.542 -14.583,-14.584c0,-8.041 6.541,-14.583 14.583,-14.583c8.083,0 14.584,6.542 14.584,14.583Z" style="fill-rule:nonzero;"/><path d="M237.5,764.583c0,8.042 -6.5,14.584 -14.583,14.584c-8.042,-0 -14.584,-6.542 -14.584,-14.584c0,-8.041 6.542,-14.583 14.584,-14.583c8.083,0 14.583,6.542 14.583,14.583Z" style="fill-rule:nonzero;"/><path d="M320.833,764.583c0,8.042 -6.5,14.584 -14.583,14.584c-8.042,-0 -14.583,-6.542 -14.583,-14.584c-0,-8.041 6.541,-14.583 14.583,-14.583c8.083,0 14.583,6.542 14.583,14.583Z" style="fill-rule:nonzero;"/><path d="M404.167,764.583c-0,8.042 -6.501,14.584 -14.584,14.584c-8.042,-0 -14.583,-6.542 -14.583,-14.584c0,-8.041 6.541,-14.583 14.583,-14.583c8.083,0 14.584,6.542 14.584,14.583Z" style="fill-rule:nonzero;"/><path d="M487.5,764.583c0,8.042 -6.5,14.584 -14.583,14.584c-8.042,-0 -14.584,-6.542 -14.584,-14.584c0,-8.041 6.542,-14.583 14.584,-14.583c8.083,0 14.583,6.542 14.583,14.583Z" style="fill-rule:nonzero;"/><path d="M570.833,764.583c0,8.042 -6.5,14.584 -14.583,14.584c-8.042,-0 -14.583,-6.542 -14.583,-14.584c-0,-8.041 6.541,-14.583 14.583,-14.583c8.083,0 14.583,6.542 14.583,14.583Z" style="fill-rule:nonzero;"/><path d="M654.167,764.583c-0,8.042 -6.501,14.584 -14.584,14.584c-8.042,-0 -14.583,-6.542 -14.583,-14.584c-0,-8.041 6.541,-14.583 14.583,-14.583c8.083,0 14.584,6.542 14.584,14.583Z" style="fill-rule:nonzero;"/><path d="M737.5,764.583c0,8.042 -6.5,14.584 -14.583,14.584c-8.042,-0 -14.584,-6.542 -14.584,-14.584c0,-8.041 6.542,-14.583 14.584,-14.583c8.083,0 14.583,6.542 14.583,14.583Z" style="fill-rule:nonzero;"/><path d="M820.833,764.583c0,8.042 -6.5,14.584 -14.583,14.584c-8.042,-0 -14.583,-6.542 -14.583,-14.584c-0,-8.041 6.541,-14.583 14.583,-14.583c8.083,0 14.583,6.542 14.583,14.583Z" style="fill-rule:nonzero;"/><path d="M904.167,764.583c-0,8.042 -6.501,14.584 -14.584,14.584c-8.042,-0 -14.583,-6.542 -14.583,-14.584c-0,-8.041 6.541,-14.583 14.583,-14.583c8.083,0 14.584,6.542 14.584,14.583Z" style="fill-rule:nonzero;"/><path d="M154.167,681.25c-0,8.042 -6.501,14.583 -14.584,14.583c-8.042,0 -14.583,-6.541 -14.583,-14.583c0,-8.042 6.541,-14.583 14.583,-14.583c8.083,-0 14.584,6.541 14.584,14.583Z" style="fill-rule:nonzero;"/><path d="M237.5,681.25c0,8.042 -6.5,14.583 -14.583,14.583c-8.042,0 -14.584,-6.541 -14.584,-14.583c0,-8.042 6.542,-14.583 14.584,-14.583c8.083,-0 14.583,6.541 14.583,14.583Z" style="fill-rule:nonzero;"/><path d="M320.833,681.25c0,8.042 -6.5,14.583 -14.583,14.583c-8.042,0 -14.583,-6.541 -14.583,-14.583c-0,-8.042 6.541,-14.583 14.583,-14.583c8.083,-0 14.583,6.541 14.583,14.583Z" style="fill-rule:nonzero;"/><path d="M404.167,681.25c-0,8.042 -6.501,14.583 -14.584,14.583c-8.042,0 -14.583,-6.541 -14.583,-14.583c0,-8.042 6.541,-14.583 14.583,-14.583c8.083,-0 14.584,6.541 14.584,14.583Z" style="fill-rule:nonzero;"/><path d="M487.5,681.25c0,8.042 -6.5,14.583 -14.583,14.583c-8.042,0 -14.584,-6.541 -14.584,-14.583c0,-8.042 6.542,-14.583 14.584,-14.583c8.083,-0 14.583,6.541 14.583,14.583Z" style="fill-rule:nonzero;"/><path d="M570.833,681.25c0,8.042 -6.5,14.583 -14.583,14.583c-8.042,0 -14.583,-6.541 -14.583,-14.583c-0,-8.042 6.541,-14.583 14.583,-14.583c8.083,-0 14.583,6.541 14.583,14.583Z" style="fill-rule:nonzero;"/><path d="M654.167,681.25c-0,8.042 -6.501,14.583 -14.584,14.583c-8.042,0 -14.583,-6.541 -14.583,-14.583c-0,-8.042 6.541,-14.583 14.583,-14.583c8.083,-0 14.584,6.541 14.584,14.583Z" style="fill-rule:nonzero;"/><path d="M737.5,681.25c0,8.042 -6.5,14.583 -14.583,14.583c-8.042,0 -14.584,-6.541 -14.584,-14.583c0,-8.042 6.542,-14.583 14.584,-14.583c8.083,-0 14.583,6.541 14.583,14.583Z" style="fill-rule:nonzero;"/><path d="M820.833,681.25c0,8.042 -6.5,14.583 -14.583,14.583c-8.042,0 -14.583,-6.541 -14.583,-14.583c-0,-8.042 6.541,-14.583 14.583,-14.583c8.083,-0 14.583,6.541 14.583,14.583Z" style="fill-rule:nonzero;"/><path d="M154.167,597.917c-0,8.041 -6.501,14.583 -14.584,14.583c-8.042,0 -14.583,-6.542 -14.583,-14.583c0,-8.042 6.541,-14.584 14.583,-14.584c8.083,0 14.584,6.542 14.584,14.584Z" style="fill-rule:nonzero;"/><path d="M237.5,597.917c0,8.041 -6.5,14.583 -14.583,14.583c-8.042,0 -14.584,-6.542 -14.584,-14.583c0,-8.042 6.542,-14.584 14.584,-14.584c8.083,0 14.583,6.542 14.583,14.584Z" style="fill-rule:nonzero;"/><path d="M320.833,597.917c0,8.041 -6.5,14.583 -14.583,14.583c-8.042,0 -14.583,-6.542 -14.583,-14.583c-0,-8.042 6.541,-14.584 14.583,-14.584c8.083,0 14.583,6.542 14.583,14.584Z" style="fill-rule:nonzero;"/><path d="M404.167,597.917c-0,8.041 -6.501,14.583 -14.584,14.583c-8.042,0 -14.583,-6.542 -14.583,-14.583c0,-8.042 6.541,-14.584 14.583,-14.584c8.083,0 14.584,6.542 14.584,14.584Z" style="fill-rule:nonzero;"/><path d="M487.5,597.917c0,8.041 -6.5,14.583 -14.583,14.583c-8.042,0 -14.584,-6.542 -14.584,-14.583c0,-8.042 6.542,-14.584 14.584,-14.584c8.083,0 14.583,6.542 14.583,14.584Z" style="fill-rule:nonzero;"/><path d="M570.833,597.917c0,8.041 -6.5,14.583 -14.583,14.583c-8.042,0 -14.583,-6.542 -14.583,-14.583c-0,-8.042 6.541,-14.584 14.583,-14.584c8.083,0 14.583,6.542 14.583,14.584Z" style="fill-rule:nonzero;"/><path d="M654.167,597.917c-0,8.041 -6.501,14.583 -14.584,14.583c-8.042,0 -14.583,-6.542 -14.583,-14.583c-0,-8.042 6.541,-14.584 14.583,-14.584c8.083,0 14.584,6.542 14.584,14.584Z" style="fill-rule:nonzero;"/><path d="M737.5,597.917c0,8.041 -6.5,14.583 -14.583,14.583c-8.042,0 -14.584,-6.542 -14.584,-14.583c0,-8.042 6.542,-14.584 14.584,-14.584c8.083,0 14.583,6.542 14.583,14.584Z" style="fill-rule:nonzero;"/><path d="M154.167,514.583c-0,8.042 -6.501,14.584 -14.584,14.584c-8.042,-0 -14.583,-6.542 -14.583,-14.584c0,-8.041 6.541,-14.583 14.583,-14.583c8.083,0 14.584,6.542 14.584,14.583Z" style="fill-rule:nonzero;"/><path d="M237.5,514.583c0,8.042 -6.5,14.584 -14.583,14.584c-8.042,-0 -14.584,-6.542 -14.584,-14.584c0,-8.041 6.542,-14.583 14.584,-14.583c8.083,0 14.583,6.542 14.583,14.583Z" style="fill-rule:nonzero;"/><path d="M320.833,514.583c0,8.042 -6.5,14.584 -14.583,14.584c-8.042,-0 -14.583,-6.542 -14.583,-14.584c-0,-8.041 6.541,-14.583 14.583,-14.583c8.083,0 14.583,6.542 14.583,14.583Z" style="fill-rule:nonzero;"/><path d="M404.167,514.583c-0,8.042 -6.501,14.584 -14.584,14.584c-8.042,-0 -14.583,-6.542 -14.583,-14.584c0,-8.041 6.541,-14.583 14.583,-14.583c8.083,0 14.584,6.542 14.584,14.583Z" style="fill-rule:nonzero;"/><path d="M487.5,514.583c0,8.042 -6.5,14.584 -14.583,14.584c-8.042,-0 -14.584,-6.542 -14.584,-14.584c0,-8.041 6.542,-14.583 14.584,-14.583c8.083,0 14.583,6.542 14.583,14.583Z" style="fill-rule:nonzero;"/><path d="M570.833,514.583c0,8.042 -6.5,14.584 -14.583,14.584c-8.042,-0 -14.583,-6.542 -14.583,-14.584c-0,-8.041 6.541,-14.583 14.583,-14.583c8.083,0 14.583,6.542 14.583,14.583Z" style="fill-rule:nonzero;"/><path d="M654.167,514.583c-0,8.042 -6.501,14.584 -14.584,14.584c-8.042,-0 -14.583,-6.542 -14.583,-14.584c-0,-8.041 6.541,-14.583 14.583,-14.583c8.083,0 14.584,6.542 14.584,14.583Z" style="fill-rule:nonzero;"/><path d="M154.167,431.25c-0,8.042 -6.501,14.583 -14.584,14.583c-8.042,0 -14.583,-6.541 -14.583,-14.583c0,-8.042 6.541,-14.583 14.583,-14.583c8.083,-0 14.584,6.541 14.584,14.583Z" style="fill-rule:nonzero;"/><path d="M237.5,431.25c0,8.042 -6.5,14.583 -14.583,14.583c-8.042,0 -14.584,-6.541 -14.584,-14.583c0,-8.042 6.542,-14.583 14.584,-14.583c8.083,-0 14.583,6.541 14.583,14.583Z" style="fill-rule:nonzero;"/><path d="M320.833,431.25c0,8.042 -6.5,14.583 -14.583,14.583c-8.042,0 -14.583,-6.541 -14.583,-14.583c-0,-8.042 6.541,-14.583 14.583,-14.583c8.083,-0 14.583,6.541 14.583,14.583Z" style="fill-rule:nonzero;"/><path d="M404.167,431.25c-0,8.042 -6.501,14.583 -14.584,14.583c-8.042,0 -14.583,-6.541 -14.583,-14.583c0,-8.042 6.541,-14.583 14.583,-14.583c8.083,-0 14.584,6.541 14.584,14.583Z" style="fill-rule:nonzero;"/><path d="M487.5,431.25c0,8.042 -6.5,14.583 -14.583,14.583c-8.042,0 -14.584,-6.541 -14.584,-14.583c0,-8.042 6.542,-14.583 14.584,-14.583c8.083,-0 14.583,6.541 14.583,14.583Z" style="fill-rule:nonzero;"/><path d="M570.833,431.25c0,8.042 -6.5,14.583 -14.583,14.583c-8.042,0 -14.583,-6.541 -14.583,-14.583c-0,-8.042 6.541,-14.583 14.583,-14.583c8.083,-0 14.583,6.541 14.583,14.583Z" style="fill-rule:nonzero;"/><path d="M154.167,347.917c-0,8.041 -6.501,14.583 -14.584,14.583c-8.042,-0 -14.583,-6.542 -14.583,-14.583c0,-8.042 6.541,-14.584 14.583,-14.584c8.083,0 14.584,6.542 14.584,14.584Z" style="fill-rule:nonzero;"/><path d="M237.5,347.917c0,8.041 -6.5,14.583 -14.583,14.583c-8.042,-0 -14.584,-6.542 -14.584,-14.583c0,-8.042 6.542,-14.584 14.584,-14.584c8.083,0 14.583,6.542 14.583,14.584Z" style="fill-rule:nonzero;"/><path d="M320.833,347.917c0,8.041 -6.5,14.583 -14.583,14.583c-8.042,-0 -14.583,-6.542 -14.583,-14.583c-0,-8.042 6.541,-14.584 14.583,-14.584c8.083,0 14.583,6.542 14.583,14.584Z" style="fill-rule:nonzero;"/><path d="M404.167,347.917c-0,8.041 -6.501,14.583 -14.584,14.583c-8.042,-0 -14.583,-6.542 -14.583,-14.583c0,-8.042 6.541,-14.584 14.583,-14.584c8.083,0 14.584,6.542 14.584,14.584Z" style="fill-rule:nonzero;"/><path d="M487.5,347.917c0,8.041 -6.5,14.583 -14.583,14.583c-8.042,-0 -14.584,-6.542 -14.584,-14.583c0,-8.042 6.542,-14.584 14.584,-14.584c8.083,0 14.583,6.542 14.583,14.584Z" style="fill-rule:nonzero;"/><path d="M154.167,264.583c-0,8.042 -6.501,14.584 -14.584,14.584c-8.042,-0 -14.583,-6.542 -14.583,-14.584c0,-8.041 6.541,-14.583 14.583,-14.583c8.083,-0 14.584,6.542 14.584,14.583Z" style="fill-rule:nonzero;"/><path d="M237.5,264.583c0,8.042 -6.5,14.584 -14.583,14.584c-8.042,-0 -14.584,-6.542 -14.584,-14.584c0,-8.041 6.542,-14.583 14.584,-14.583c8.083,-0 14.583,6.542 14.583,14.583Z" style="fill-rule:nonzero;"/><path d="M320.833,264.583c0,8.042 -6.5,14.584 -14.583,14.584c-8.042,-0 -14.583,-6.542 -14.583,-14.584c-0,-8.041 6.541,-14.583 14.583,-14.583c8.083,-0 14.583,6.542 14.583,14.583Z" style="fill-rule:nonzero;"/><path d="M404.167,264.583c-0,8.042 -6.501,14.584 -14.584,14.584c-8.042,-0 -14.583,-6.542 -14.583,-14.584c0,-8.041 6.541,-14.583 14.583,-14.583c8.083,-0 14.584,6.542 14.584,14.583Z" style="fill-rule:nonzero;"/><path d="M154.167,181.25c-0,8.042 -6.501,14.583 -14.584,14.583c-8.042,0 -14.583,-6.541 -14.583,-14.583c0,-8.042 6.541,-14.583 14.583,-14.583c8.083,-0 14.584,6.541 14.584,14.583Z" style="fill-rule:nonzero;"/><path d="M237.5,181.25c0,8.042 -6.5,14.583 -14.583,14.583c-8.042,0 -14.584,-6.541 -14.584,-14.583c0,-8.042 6.542,-14.583 14.584,-14.583c8.083,-0 14.583,6.541 14.583,14.583Z" style="fill-rule:nonzero;"/><path d="M320.833,181.25c0,8.042 -6.5,14.583 -14.583,14.583c-8.042,0 -14.583,-6.541 -14.583,-14.583c-0,-8.042 6.541,-14.583 14.583,-14.583c8.083,-0 14.583,6.541 14.583,14.583Z" style="fill-rule:nonzero;"/><path d="M154.167,97.917c-0,8.041 -6.501,14.583 -14.584,14.583c-8.042,0 -14.583,-6.542 -14.583,-14.583c0,-8.042 6.541,-14.584 14.583,-14.584c8.083,0 14.584,6.542 14.584,14.584Z" style="fill-rule:nonzero;"/><path d="M237.5,97.917c0,8.041 -6.5,14.583 -14.583,14.583c-8.042,0 -14.584,-6.542 -14.584,-14.583c0,-8.042 6.542,-14.584 14.584,-14.584c8.083,0 14.583,6.542 14.583,14.584Z" style="fill-rule:nonzero;"/><path d="M154.167,14.583c-0,8.042 -6.501,14.584 -14.584,14.584c-8.042,-0 -14.583,-6.542 -14.583,-14.584c0,-8.041 6.541,-14.583 14.583,-14.583c8.083,-0 14.584,6.542 14.584,14.583Z" style="fill-rule:nonzero;"/></g></svg>