<?xml version="1.0" encoding="UTF-8" standalone="no"?><!DOCTYPE svg PUBLIC "-//W3C//DTD SVG 1.1//EN" "http://www.w3.org/Graphics/SVG/1.1/DTD/svg11.dtd"><svg width="100%" height="100%" viewBox="0 0 1078 459" version="1.1" xmlns="http://www.w3.org/2000/svg" xmlns:xlink="http://www.w3.org/1999/xlink" xml:space="preserve" xmlns:serif="http://www.serif.com/" style="fill-rule:evenodd;clip-rule:evenodd;stroke-linejoin:round;stroke-miterlimit:2;"><path d="M349.139,217.463c1.333,-4.417 4.488,-8.284 7.125,-12.921c-4.046,-5.546 -6.663,-12.43 -8.321,-19.575c-1.683,-0.208 -2.042,0.983 -2.6,1.729c-1.846,2.483 -3.641,5.017 -5.333,7.608c-0.792,1.204 -1.638,2.538 -1.867,3.909c-1.179,6.937 -3.716,13.583 -4.062,20.716c-0.288,6.042 1.462,11.317 4.979,17.688c3.771,-7.192 8.046,-12.417 10.079,-19.154Zm126.217,119.404c1.641,-3.342 3.266,-6.613 4.608,-10.242c-1.929,-1.538 -3.467,-2.912 -5.154,-4.075c-5.804,-4.025 -11.7,-7.917 -17.479,-11.983c-2.359,-1.663 -4.621,-3.513 -6.709,-5.508c-2.566,-2.455 -5.133,-4.809 -8.583,-5.971c-1.817,0.796 -1.933,2.596 -2.329,4.154c-1.45,5.754 -3.925,10.9 -8.917,15.016c4,4.2 9.009,6.788 13.254,10.305c4.317,3.57 8.909,6.82 13.53,10.004c4.566,3.15 9.312,6.042 14.279,9.237c1.212,-3.937 1.896,-7.662 3.5,-10.937Zm93.971,43.991c-0.134,-4.445 1.97,-8.4 2.508,-13.091c-3.95,-1.371 -7.825,-2.65 -11.658,-4.059c-3.896,-1.429 -7.73,-3.033 -11.617,-4.475c-3.884,-1.437 -7.809,-2.77 -11.654,-4.129c-4.434,4.521 -5.621,6.929 -11.009,22.25c1.85,2.25 4.584,3.171 7.255,4.184c1.741,0.662 3.487,1.312 5.22,1.979c8.5,3.287 16.988,6.596 25.505,9.837c1.337,0.504 2.787,0.704 4.991,1.238c0.192,-5.117 0.583,-9.433 0.459,-13.734Zm474.891,19.971c4.079,-3.141 8.642,-5.562 12.729,-8.65c2.284,-1.725 4.104,-4.066 6.138,-6.12c1.55,-1.563 2.137,-3.417 2.15,-5.634c0.012,-1.841 0.475,-3.687 0.783,-5.521c0.171,-1.021 0.659,-2.033 0.633,-3.037c-0.224,-9.35 2.146,-18.488 2.213,-27.804c0.008,-1.184 -0.321,-2.371 -0.542,-3.934c-2.7,0.692 -4.396,2.325 -5.662,3.984c-5.896,7.741 -13.842,13.058 -21.509,18.725c-0.32,0.241 -0.566,0.591 -0.9,0.946c0.138,6.533 0.58,13.133 0.317,19.708c-0.258,6.379 -1.233,12.733 -2.004,20.154c2.379,-1.158 4.225,-1.717 5.654,-2.817Zm-565.791,-48.979c6.833,6.283 32.379,20.621 40.433,22.667c1.683,-7.638 3.983,-15.1 7.608,-22.317c-1.867,-2.208 -4.333,-3.404 -6.571,-4.704c-4.308,-2.504 -8.862,-4.567 -13.262,-6.912c-6.013,-3.209 -11.979,-6.517 -17.971,-9.771c-0.508,-0.28 -1.042,-0.496 -1.762,-0.834c-3.563,7.171 -4.092,15.329 -8.475,21.871Zm370.475,90.75c0.529,1.233 1.704,1.179 2.633,0.963c8.762,-2.042 17.729,-1.617 26.6,-2.317c1.629,-0.125 3.25,-0.254 5.104,-0.4c1.337,-11.696 -0.296,-22.913 -1.7,-34.529c-10.967,0.683 -21.85,1.362 -33.242,2.079c3.646,25.258 2.18,27.433 0.605,34.204Zm-271.538,-44.217c12.433,6.075 25.529,9.855 37.817,14.529c0.804,-0.545 1.021,-0.629 1.137,-0.787c0.125,-0.154 0.209,-0.379 0.217,-0.579c0.15,-4.563 0.366,-9.129 0.421,-13.696c0.062,-5.596 -0.004,-11.196 -0.017,-17.004c-5.612,-3.1 -12.108,-2.879 -18,-4.846c-5.892,-1.967 -12.025,-3.208 -18.75,-4.946c-2.325,9.18 -1.104,18.204 -2.825,27.329Zm-152.058,-85.079c4.241,-6.416 5.908,-13.896 8.7,-20.975c-4.221,-4.746 -9.042,-8.32 -13.73,-12.062c-3.391,-2.709 -6.766,-5.517 -9.737,-8.667c-3.596,-3.821 -7.683,-6.904 -12.017,-9.683c-1.65,0.337 -1.45,1.879 -2.012,2.875c-0.509,0.9 -0.925,1.858 -1.325,2.821c-0.554,1.341 -0.979,2.741 -1.584,4.062c-2.345,5.129 -4.895,10.113 -10.866,12.975c7.812,7.492 34.283,25.254 42.571,28.654Zm555.15,92.309c0.362,-6.479 -0.267,-12.842 -1.921,-19.113c-3.388,-0.804 -6.4,0.188 -9.242,1.412c-5,2.163 -10.266,3.355 -15.483,4.755c-2.992,0.8 -5.921,1.712 -9.034,2.942c1.784,11.487 1.325,22.653 0.667,34.229c1.229,0.125 2.421,0.5 3.508,0.308c3.48,-0.608 6.984,-1.217 10.367,-2.212c5.996,-1.771 12.046,-3.192 18.271,-3.851c0.596,-0.062 1.171,-0.337 1.921,-0.566c0.329,-6.304 0.625,-12.104 0.946,-17.904Zm-600.292,-122.821c1.046,-4.921 2.954,-9.413 4.771,-13.934c1.85,-4.608 3.921,-9.125 5.9,-13.679c-5.246,-6.233 -10.604,-12.025 -15.275,-18.321c-4.521,-6.104 -8.338,-12.729 -12.788,-19.633c-6.129,8.979 -11.571,17.838 -19.925,24.654c5.275,12.146 26.2,33.05 37.317,40.913Zm281.85,109.804c-6.292,-1.404 -12.479,-3.075 -18.567,-5.287c-5.62,-2.046 -11.516,-3.338 -17.795,-4.421c-0.317,1.52 -0.717,2.658 -0.759,3.812c-0.183,5.196 -0.2,10.396 -0.4,15.588c-0.158,4.133 -0.504,8.258 -0.796,12.891c0.634,0.429 1.55,1.25 2.621,1.734c4.363,1.966 8.85,3.545 13.579,4.491c7.75,1.55 15.438,3.363 23.163,5.034c2.004,0.437 4.033,0.766 6.446,1.22c0.162,-1.35 0.387,-2.312 0.375,-3.279c-0.088,-7.046 -0.267,-14.096 -0.313,-21.141c-0.021,-2.68 0.217,-5.355 0.371,-8.796c-2.696,-0.629 -5.304,-1.259 -7.925,-1.846Zm229.496,30.2c0.683,5.617 -0.709,11.017 -2.184,16.575c4.955,1.1 9.455,0.5 13.876,-0.458c6.491,-1.405 12.962,-2.675 19.645,-2.967c4.942,-0.217 9.825,-1.292 14.5,-3.483c-0.575,-10.913 -1.129,-21.638 -1.733,-32.359c-0.046,-0.762 -0.425,-1.508 -0.742,-2.55c-1.808,0.634 -3.379,1.067 -4.85,1.725c-5.366,2.4 -11.004,3.6 -16.837,4.138c-7.429,0.683 -14.846,1.462 -22.267,2.237c-0.354,0.038 -0.671,0.425 -1.371,0.896c0.638,5.254 1.296,10.75 1.963,16.246Zm-167.525,-1.675c0.187,-5.183 0.587,-10.342 -0.567,-15.846c-1.408,-0.392 -2.962,-0.917 -4.558,-1.242c-3.054,-0.629 -6.133,-1.116 -9.192,-1.72c-0.8,-0.159 -1.746,-0.334 -2.3,-0.85c-2.871,-2.675 -6.312,-2.484 -9.9,-2.617c-5.167,-0.196 -10.312,-1.054 -15.462,-1.617c-1.409,-0.15 -2.817,-0.254 -4.505,-0.408c-0.129,3.879 -0.425,7.383 -0.329,10.879c0.167,6.05 0.125,12.058 -0.962,18.042c-0.567,3.154 0.066,3.846 3.462,4.475c11.267,2.083 22.534,4.187 33.817,6.171c3.229,0.57 6.529,0.758 10.642,1.212c-0.075,-6.117 -0.334,-11.308 -0.146,-16.479Zm114.1,-11.496c-15.563,-1.008 -30.971,0.134 -46.679,0.517c-0.4,5.825 1.35,11.058 1.47,16.387c0.121,5.363 -0.425,10.746 -0.695,16.421c5.346,1.259 10.758,0.038 16.087,0.6c5.35,0.563 10.771,0.617 16.159,0.625c5.374,0.004 10.745,-0.329 16.704,-0.529c0.933,-11.675 -0.367,-22.725 -3.046,-34.021Zm-105.059,12.963c-0.233,4.97 -0.237,9.954 -0.341,15.15c2.058,1.433 4.612,1.641 7.004,1.92c6.396,0.759 12.821,1.367 19.246,1.751c8.912,0.537 17.841,0.825 26.767,1.195c0.595,0.025 1.2,-0.129 1.908,-0.216c-0.592,-5.413 -1.384,-10.7 -1.692,-16.021c-0.308,-5.367 -1.033,-10.646 -1.808,-15.909c-5.304,-0.345 -10.358,-0.183 -15.188,-1.15c-3.741,-0.754 -7.375,-0.945 -11.079,-0.671c-3.321,0.246 -6.579,0.505 -9.937,0.096c-2.467,-0.304 -4.9,-0.425 -7.334,-1.162c-2.141,-0.65 -4.475,-0.679 -7.379,-1.071c-0.937,5.783 0.071,10.95 -0.167,16.088Zm286.596,-50.796c-7.096,3.646 -14.637,5.854 -22.304,7.8c-3.621,0.916 -7.154,2.042 -10.308,4.708c2.7,12.45 -0.375,24.608 -2.233,37.087c1.316,-0.199 2.162,-0.216 2.937,-0.466c6.329,-2.017 12.662,-4.025 18.958,-6.146c7.284,-2.45 14.513,-5.067 21.804,-7.5c2.596,-0.867 3.534,-2.612 3.613,-5.158c0.275,-8.721 0.592,-17.442 0.888,-26.163c0.07,-2.079 0.187,-4.162 0.154,-6.237c-0.013,-0.767 -0.388,-1.529 -0.842,-3.163c-4.667,1.9 -8.825,3.263 -12.667,5.238Zm-84.379,-137.896c4.617,9.358 8.279,19.058 10.529,29.262c0.575,2.634 0.971,5.309 1.417,7.971c1.267,7.588 -1.537,14.184 -6.213,19.604c-5.812,6.738 -12.07,13.15 -20.758,16.596c-4.404,1.746 -8.221,4.825 -12.991,5.955c-7.684,1.816 -15.288,3.954 -22.971,5.783c-2.821,0.67 -5.746,1.083 -8.638,1.217c-7.354,0.341 -14.179,3.125 -21.333,4.35c-8.25,1.412 -16.563,1.641 -24.892,1.462c-5.816,-0.121 -11.629,-0.529 -17.442,-0.842c-3.108,-0.171 -6.258,-0.167 -9.312,-0.683c-6.163,-1.042 -12.388,-0.821 -18.571,-1.258c-12.25,-0.867 -24.425,-2.434 -36.521,-4.667c-6.537,-1.209 -13.141,-2.192 -19.758,-2.863c-7.075,-0.716 -13.933,-2.433 -20.833,-3.941c-14.029,-3.063 -28.013,-6.346 -42.046,-9.421c-6.3,-1.383 -12.683,-2.404 -18.996,-3.738c-7.537,-1.595 -15.087,-3.137 -22.533,-5.091c-10.067,-2.638 -20.155,-5.313 -30.021,-8.604c-7.879,-2.625 -15.483,-6.109 -23.142,-9.38c-6.308,-2.691 -12.521,-5.604 -18.75,-8.475c-1.316,-0.608 -2.521,-1.462 -3.771,-2.216c-6.762,-4.084 -13.504,-8.208 -20.304,-12.238c-2.137,-1.266 -4.475,-2.2 -6.646,-3.421c-8.187,-4.608 -15.375,-10.637 -22.833,-16.275c-1.483,-1.125 -3.033,-2.183 -4.408,-3.429c-1.375,-1.241 -3.009,-2.475 -3.75,-4.071c-1.425,-3.062 -3.892,-4.891 -6.58,-6.408c-4.908,-2.767 -8.395,-6.6 -10.645,-11.779c-1.229,-2.842 -3.054,-5.433 -4.659,-8.108c-1.408,-2.35 -2.425,-4.717 -2.337,-7.617c0.096,-3.329 -0.558,-6.617 -1.979,-9.713c-1.129,-2.462 -0.93,-4.608 0.971,-6.887c2.916,-3.508 5.362,-7.354 8.945,-10.35c2.521,-2.113 4.617,-4.787 6.654,-7.408c3.98,-5.13 8.884,-9.309 13.546,-13.754c1.025,-0.98 1.863,-2.151 3.292,-3.821c-2.454,-0.121 -4.208,-0.23 -5.967,-0.284c-6.662,-0.2 -13.316,-0.479 -19.979,-0.521c-2.892,-0.02 -5.783,0.613 -8.679,0.692c-4.571,0.125 -9.162,0.254 -13.721,-0.021c-6.079,-0.366 -12.033,0.375 -18.008,1.225c-2.879,0.413 -5.8,0.529 -8.679,0.934c-4.104,0.571 -8.196,1.291 -12.296,1.945c-2.254,0.363 -4.521,0.671 -6.763,1.088c-3.271,0.604 -6.541,1.233 -9.787,1.937c-5.533,1.205 -10.708,3.196 -15.379,6.538c-3.038,2.171 -6.363,3.946 -9.554,5.9c-4.088,2.496 -6.655,6.2 -8.48,10.525c-3.416,8.075 -3.458,9.737 -0.87,18.012c1.62,5.188 3.295,10.309 6.999,14.488c0.538,0.604 0.834,1.446 1.151,2.212c2.916,7.18 7.462,13.455 11.445,20.005c3.338,5.491 7.571,10.446 11.529,15.541c4.48,5.767 9.53,10.892 15.467,15.292c5.833,4.325 10.959,9.579 16.571,14.221c4.804,3.975 9.854,7.621 14.196,12.179c2.404,2.533 5.542,4.379 8.375,6.504c11.8,8.871 23.596,17.733 36.196,25.479c5.666,3.479 11.175,7.221 16.616,11.038c3.946,2.762 8.08,5.045 12.43,7.121c4.308,2.058 8.566,4.166 12.949,6.091c9.346,4.096 18.867,7.65 28.525,10.908c11.025,3.717 21.921,7.842 32.98,11.472c7.308,2.399 14.771,4.37 22.225,6.295c9.075,2.338 18.212,4.425 27.325,6.613c9.108,2.191 18.22,4.383 27.333,6.558c6.888,1.638 13.754,3.354 20.671,4.846c6.1,1.321 12.217,2.7 18.4,3.492c11.979,1.533 24.012,2.641 36.021,3.991c4.545,0.509 9.083,1.192 13.621,1.809c7.237,0.987 14.483,1.362 21.795,1.2c14.775,-0.325 29.554,-0.513 44.334,-0.513c10.437,-0.004 20.77,-0.95 31.062,-2.5c5.133,-0.775 10.267,-1.546 15.409,-2.275c8.241,-1.175 16.458,-2.842 24.741,-3.312c7.288,-0.417 14.396,-2.23 21.7,-2.184c0.625,0.005 1.3,0.005 1.854,-0.221c5.588,-2.249 11.467,-1.916 17.275,-1.812c4.192,0.079 8.304,-0.333 12.438,-0.863c6.396,-0.816 12.854,-1.245 19.2,-2.333c6.958,-1.187 14.029,-2.054 20.6,-4.921c0.192,-0.083 0.391,-0.22 0.583,-0.216c7.717,0.12 14.458,-3.7 21.704,-5.488c5.43,-1.337 10.7,-3.425 15.925,-5.479c5.225,-2.058 10.325,-4.433 15.43,-6.787c2.254,-1.038 4.6,-2.084 6.512,-3.613c5.996,-4.796 12.554,-8.925 17.808,-14.621c1.409,-1.529 2.796,-3.1 4,-4.783c2.634,-3.696 3.05,-7.767 1.163,-11.846c-2.613,-5.65 -5.425,-11.108 -9.721,-15.867c-9.358,-10.375 -19.142,-20.262 -30.092,-28.946c-3.425,-2.708 -7.062,-5.15 -10.629,-7.674c-4.25,-3.005 -8.475,-6.046 -12.821,-8.909c-2.237,-1.475 -4.754,-2.521 -7.071,-3.892c-3.037,-1.791 -6.091,-3.583 -8.974,-5.612c-2.421,-1.7 -4.959,-2.908 -7.792,-3.783c-3.158,-0.975 -6.138,-2.513 -9.225,-3.734c-7.933,-3.137 -15.896,-6.204 -23.821,-9.366c-2.867,-1.146 -5.654,-2.492 -8.479,-3.746c-0.292,0.321 -0.584,0.637 -0.871,0.954c0.458,1.092 0.854,2.217 1.379,3.275Zm-40.137,-46.896c-5.088,-6.292 -9.317,-13.321 -15.359,-18.817c-4.15,-3.77 -8.4,-7.437 -12.716,-11.016c-10.721,-8.888 -21.421,-17.804 -32.309,-26.492c-5.85,-4.671 -12.471,-8.25 -19.187,-11.5c-8.425,-4.079 -16.875,-8.171 -25.596,-11.533c-12.817,-4.95 -25.933,-9.059 -39.563,-11.296c-4.104,-0.675 -8.141,-1.746 -12.245,-2.442c-6.159,-1.046 -12.317,-1.995 -18.613,-1.92c-4.358,0.054 -8.725,-0.271 -13.087,-0.471c-13.575,-0.621 -26.979,1.371 -40.421,2.675c-6.008,0.583 -12.004,1.1 -18.038,1.162c-3.329,0.033 -6.529,0.704 -9.804,1.446c-8.3,1.883 -16.721,3.279 -25.137,4.604c-9.684,1.525 -19.188,3.65 -28.45,6.904c-6.28,2.204 -12.629,4.217 -18.954,6.305c-0.988,0.325 -2.084,0.412 -2.988,0.891c-7.962,4.204 -16.871,5.917 -25.042,9.496c-5.5,2.408 -10.591,5.729 -15.9,8.583c-2.554,1.375 -5.146,2.7 -7.795,3.888c-5.521,2.483 -10.805,5.183 -15.13,9.671c-3.295,3.425 -7.446,6.02 -10.804,9.391c-2.921,2.921 -5.429,6.296 -7.812,9.688c-2.255,3.212 -3.738,6.921 -6.913,9.546c-1.729,1.429 -1.562,3.791 -1.275,5.875c0.913,6.745 3.259,12.821 8.05,17.887c6.571,6.946 12.788,14.238 19.942,20.617c0.933,0.829 1.837,1.708 2.85,2.425c8.129,5.787 16.279,11.541 24.425,17.3c0.337,0.241 0.721,0.416 1.087,0.621c12.592,6.904 24.5,15.05 37.525,21.137c13.563,6.338 26.859,13.425 41.384,17.45c12.433,3.442 24.941,6.646 37.491,9.658c14.371,3.45 28.825,6.584 43.246,9.834c12.388,2.796 24.767,5.641 37.188,8.287c4.266,0.909 8.633,1.388 12.975,1.85c6.008,0.646 11.941,1.663 17.866,2.867c3.85,0.783 7.821,0.975 11.725,1.512c10.309,1.417 20.671,2.234 31.025,3.184c11.834,1.091 23.65,1.9 35.513,2.083c3.729,0.058 7.483,-0.246 11.196,-0.629c6.616,-0.683 13.108,-2.017 19.579,-3.654c5.412,-1.371 11.066,-1.779 16.591,-2.75c3.684,-0.65 7.338,-1.483 10.976,-2.35c3.641,-0.867 7.27,-1.792 10.858,-2.838c14.275,-4.162 25.941,-12.062 34.466,-24.362c1.717,-2.479 2.363,-5.163 2.005,-8.267c-0.767,-6.65 -2.342,-13.058 -4.555,-19.371c-2.416,-6.908 -5.387,-13.5 -9.129,-19.791c-2.446,-4.104 -4.291,-8.559 -6.646,-12.721c-1.633,-2.884 -3.674,-5.538 -5.533,-8.292c0.071,-0.05 0.142,-0.1 0.217,-0.15c-6.354,-8.754 -12.383,-17.779 -19.179,-26.175Zm-382.425,-56.317c6.229,-3.783 12.212,-8.091 18.758,-11.216c12.396,-5.921 25.408,-10.396 38.433,-14.759c4.334,-1.454 8.625,-3.037 13.005,-4.333c4.579,-1.354 9.212,-2.604 13.883,-3.608c8.346,-1.8 16.829,-3.021 25.071,-5.167c7.308,-1.9 14.733,-2.717 22.15,-3.671c9.483,-1.225 19.079,-1.754 28.504,-3.325c13.633,-2.271 27.271,-3.329 41.05,-2.245c2.9,0.229 5.775,0.733 8.671,0.937c17.137,1.208 33.829,4.879 50.237,9.696c12.596,3.7 24.525,9.291 36.434,14.816c11.754,5.455 22.62,12.442 33.054,20.042c9.408,6.846 18.504,14.134 27.583,21.417c7.454,5.979 15.212,11.687 20.55,19.879c0.337,0.517 0.858,0.912 1.267,1.383c7.762,8.967 15.408,18.042 22.354,27.659c4.266,5.904 8.242,12.025 12.225,18.125c1.212,1.858 2.537,3.133 4.833,3.475c1.838,0.27 3.629,0.9 5.404,1.487c8.888,2.954 17.771,5.917 26.638,8.938c5.525,1.883 10.971,4.058 15.637,7.612c3.567,2.717 7.588,4.296 11.696,5.754c5.138,1.821 9.859,4.267 14.196,7.642c3.608,2.804 7.6,5.112 11.437,7.612c1.746,1.138 3.667,2.034 5.288,3.321c6.183,4.905 12.283,9.917 18.404,14.904c0.963,0.784 1.917,1.596 2.783,2.488c4.634,4.754 9.109,9.679 13.892,14.279c5.95,5.713 10.767,12.092 13.488,19.95c0.408,1.167 1.087,2.242 1.654,3.35c4.116,8.117 6.4,16.671 5.908,25.817c-0.325,6.004 -0.567,11.995 -0.346,18.004c0.067,1.854 -0.079,3.738 -0.337,5.579c-0.608,4.304 -1.763,8.575 -1.938,12.892c-0.3,7.337 -3.291,13.212 -8.429,18.187c-6.766,6.559 -14.6,11.625 -22.725,16.304c-4.179,2.409 -8.562,4.175 -13.183,5.559c-5.975,1.796 -11.838,3.979 -17.763,5.941c-4.937,1.634 -9.895,3.205 -14.845,4.779c-4.367,1.384 -8.775,2.625 -13.105,4.13c-4.716,1.641 -9.375,3.204 -14.454,3.633c-3.9,0.329 -7.762,1.467 -11.562,2.521c-5.625,1.562 -11.259,2.962 -17.113,3.442c-2.237,0.183 -4.579,0.645 -6.617,1.554c-6.204,2.767 -12.579,4.275 -19.404,3.808c-3.579,-0.246 -6.996,0.638 -10.454,1.509c-3.812,0.962 -7.746,1.608 -11.666,1.937c-5.588,0.471 -11.175,0.604 -16.738,1.587c-4.287,0.755 -8.7,1.001 -13.058,1.013c-3.988,0.012 -7.875,0.337 -11.775,1.125c-5.304,1.075 -10.617,2 -16.113,1.346c-2.862,-0.342 -5.854,-0.429 -8.692,-0.004c-3.55,0.529 -7.045,0.441 -10.574,0.279c-8.101,-0.383 -16.192,-0.909 -24.296,-1.088c-6.229,-0.137 -12.463,0.171 -18.696,0.254c-1.034,0.013 -2.15,0.096 -3.088,-0.233c-4.812,-1.704 -9.883,-1.379 -14.825,-1.825c-10.979,-0.992 -22.062,-0.996 -32.758,-4.171c-0.592,-0.175 -1.246,-0.112 -1.863,-0.2c-9.683,-1.358 -19.37,-2.692 -29.041,-4.1c-5.35,-0.775 -10.625,-1.987 -15.463,-4.458c-3.745,-1.908 -7.65,-3.208 -11.737,-4.054c-6.734,-1.388 -13.484,-2.688 -20.179,-4.221c-3.234,-0.738 -6.392,-1.829 -9.525,-2.938c-5.788,-2.049 -11.146,-5.625 -17.734,-4.787c-0.779,0.1 -1.629,-0.3 -2.441,-0.483c-5.459,-1.221 -10.954,-2.296 -16.359,-3.713c-6.433,-1.691 -12.95,-3.258 -19.137,-5.646c-7.959,-3.075 -15.788,-6.462 -23.971,-8.95c-3.371,-1.025 -6.608,-2.517 -9.842,-3.958c-10.45,-4.671 -20.791,-9.583 -31.312,-14.092c-13.409,-5.746 -26.638,-11.758 -38.546,-20.325c-2.2,-1.579 -4.575,-2.908 -6.758,-4.504c-2.492,-1.829 -5.042,-3.525 -7.33,-5.708c-2.966,-2.829 -6.42,-5.263 -9.974,-7.346c-10.584,-6.208 -21.184,-12.375 -31.334,-19.275c-1.717,-1.167 -3.342,-2.467 -4.958,-3.767c-2.434,-1.958 -4.8,-3.991 -7.221,-5.962c-1.929,-1.567 -3.937,-3.042 -5.842,-4.638c-5.883,-4.941 -11.595,-10.091 -17.637,-14.821c-3.971,-3.104 -7.563,-6.491 -10.825,-10.308c-1.609,-1.883 -3.471,-3.566 -5.317,-5.237c-4.308,-3.892 -8.867,-7.538 -12.983,-11.621c-6.35,-6.296 -11.629,-13.555 -17.25,-20.479c-3.904,-4.813 -6.621,-10.58 -10.225,-15.663c-2.917,-4.112 -4.133,-8.6 -4.204,-13.458c-0.088,-6.417 0.179,-12.713 2.133,-19.038c1.775,-5.737 2.842,-11.725 4.958,-17.391c0.5,-1.329 1.075,-2.75 2.005,-3.775c3.191,-3.542 6.491,-6.976 9.191,-10.946c2.558,-3.779 5.721,-7.209 7.85,-11.2c1.888,-3.538 4.583,-6.079 7.85,-7.688c5.296,-2.604 9.788,-6.275 14.584,-9.55c4.287,-2.925 8.566,-5.925 13.829,-6.933c9.808,-1.875 19.587,-3.946 29.441,-5.55c7.592,-1.238 15.271,-1.9 22.921,-2.771c3.517,-0.396 7.046,-0.929 10.567,-0.958c10.616,-0.084 21.233,0.046 31.85,0.1c4.787,0.029 9.587,-0.129 14.358,0.175c4.775,0.312 9.513,1.1 14.817,1.746c1.004,-0.675 1.837,-1.292 2.721,-1.83Z" style="fill:#231f20;fill-rule:nonzero;"/><path d="M682.86,0c-3.888,0.534 -5.583,3.558 -6.696,6.667c-1.254,3.508 -1.912,7.271 -0.725,11.033c1.058,3.367 2.175,6.713 3.246,10.075c1.696,5.35 3.346,10.712 5.071,16.054c0.633,1.963 1.304,3.934 2.179,5.796c0.754,1.608 2.904,1.779 4.258,0.554c1.625,-1.462 2.579,-3.325 2.771,-5.437c0.354,-3.925 0.775,-7.871 0.675,-11.796c-0.192,-7.546 -2.254,-14.754 -4.646,-21.867c-0.666,-1.971 -1.383,-3.925 -1.95,-5.925c-0.662,-2.333 -1.95,-4.1 -4.183,-5.154Z" style="fill:#231f20;fill-rule:nonzero;"/><path d="M801.256,23.283c-2.821,1.942 -4.834,4.396 -5.921,7.767c-3.096,9.588 -4.413,19.454 -4.604,29.458c-0.059,2.834 0.75,5.738 1.512,8.517c0.588,2.15 2.809,2.504 4.408,0.954c2.13,-2.071 3.663,-4.508 4.38,-7.412c1.691,-6.871 3.362,-13.742 5.037,-20.617c0.296,-1.208 0.4,-2.496 0.875,-3.629c1.671,-3.963 1.546,-8.146 1.575,-12.287c0.025,-4.08 -2.708,-5.526 -6.229,-3.45c-0.358,0.212 -0.692,0.462 -1.033,0.699Z" style="fill:#231f20;fill-rule:nonzero;"/><path d="M518.293,104.513c-1.421,-2.105 -2.279,-3.734 -3.462,-5.075c-6.2,-7.025 -12.359,-14.092 -18.779,-20.909c-3.134,-3.329 -6.817,-6.104 -11.151,-7.891c-1.716,-0.709 -3.237,-1.867 -4.895,-2.734c-2.255,-1.179 -4.75,0.046 -5.205,2.588c-0.491,2.758 -0.129,5.346 1.596,7.708c1.88,2.579 4.471,4.317 6.934,6.208c6.591,5.075 13.262,10.051 19.804,15.18c1.829,1.433 3.483,2.908 5.946,3.15c0.975,0.096 2.154,0.491 2.8,1.166c1.887,1.98 3.725,0.792 6.412,0.609Z" style="fill:#231f20;fill-rule:nonzero;"/><path d="M596.872,59.533c0.321,-3.07 0.405,-5.466 -0.525,-7.883c-1.708,-4.433 -3.308,-8.908 -4.904,-13.383c-1.45,-4.063 -3.842,-7.759 -4.433,-12.154c-0.225,-1.65 -1.042,-3.15 -2.663,-4.005c-1.962,-1.041 -3.579,-1.016 -5.245,1.205c-4.238,5.625 -4.175,11.291 -1.8,17.604c1.712,4.558 3.85,8.783 7.383,12.017c3.271,2.983 6.683,6.095 12.187,6.599Z" style="fill:#231f20;fill-rule:nonzero;"/><path d="M887.76,117.421c0.621,-0.608 1.546,-1.438 2.383,-2.35c7.154,-7.8 13.304,-16.35 18.854,-25.342c0.221,-0.354 0.467,-0.695 0.63,-1.071c0.641,-1.5 1.712,-3.008 0.55,-4.662c-1.159,-1.642 -4.275,-2.588 -6.18,-1.538c-1.954,1.067 -3.821,2.484 -5.346,4.105c-5.704,6.058 -10.183,13.008 -14.154,20.291c-1.187,2.175 -2.358,4.396 -3.195,6.717c-0.53,1.471 -1.013,3.237 0.416,4.662c1.079,1.075 3.029,0.955 5.179,-0.304c0.18,-0.104 0.359,-0.212 0.863,-0.508Z" style="fill:#231f20;fill-rule:nonzero;"/><path d="M938.064,176.967c-0.525,0.429 -1.208,0.908 -1.8,1.483c-1.092,1.058 -0.963,3 0.462,3.733c1.43,0.738 3.08,1.467 4.634,1.463c3.512,-0.004 7.004,-0.212 10.45,-1.409c5.296,-1.837 10.767,-3.174 16.137,-4.803c4.413,-1.338 8.538,-3.226 11.521,-6.951c0.517,-0.633 0.95,-1.354 1.3,-2.087c0.6,-1.25 0.046,-2.421 -1.15,-3.117c-1.779,-1.033 -3.6,-0.875 -5.437,-0.366c-5.596,1.537 -11.221,2.979 -16.759,4.708c-4.954,1.55 -9.816,3.387 -14.696,5.179c-1.549,0.567 -3.012,1.392 -4.662,2.167Z" style="fill:#231f20;fill-rule:nonzero;"/><path d="M637.556,233.088c-1.871,-1.296 -3.884,-2.392 -5.838,-3.563c-4.604,-2.754 -10.171,-1.833 -14.096,1.946c-1.9,1.829 -2.529,3.646 -1.775,6.104c0.425,1.383 0.988,2.842 0.921,4.238c-0.217,4.341 2.579,6.925 5.367,9.379c2.837,2.504 6.25,4.137 10.129,4.35c8.158,0.437 13.892,-7.567 10.892,-15.217c-0.525,-1.342 -1.384,-2.546 -2.521,-4.591c-0.617,-0.542 -1.758,-1.73 -3.079,-2.646Zm11.508,17.324c-0.517,1.763 -1.633,3.342 -2.321,5.063c-2.746,6.879 -7.875,9.913 -15.162,9.571c-0.409,-0.021 -0.829,0.104 -1.246,0.087c-7.713,-0.287 -14.146,-3.145 -18.654,-9.591c-1.654,-2.367 -3.08,-4.909 -4.454,-7.45c-0.471,-0.859 -0.68,-1.975 -0.646,-2.963c0.12,-3.104 0.408,-6.2 0.637,-9.296c0.204,-2.841 1.129,-5.241 3.8,-6.737c2.192,-1.229 4.088,-2.779 5.479,-4.983c0.609,-0.963 1.821,-1.992 2.875,-2.138c2.854,-0.396 5.992,-1.083 8.617,-0.304c7.013,2.079 13.5,5.342 17.904,11.587c3.883,5.213 5,10.951 3.171,17.154Z" style="fill:#231f20;fill-rule:nonzero;"/><path d="M727.651,269.463c4.221,-4.542 4.059,-9.379 -0.52,-13.517c-3.842,-3.467 -7.967,-6.533 -12.729,-8.704c-2.513,-1.15 -4.655,-1.105 -6.913,0.667c-2.662,2.083 -4.979,4.275 -5.988,7.666c-1.758,5.917 0.096,11.138 5.43,14.3c2.129,1.267 4.387,2.333 6.658,3.325c3.962,1.738 7.675,0.871 11.304,-1.425c0.863,-0.712 1.921,-1.412 2.758,-2.312Zm-38.079,-10.43c1.246,-4.7 3.15,-9.137 7.188,-12.041c2.825,-2.034 6.117,-3.429 9.225,-5.054c0.533,-0.279 1.204,-0.409 1.808,-0.396c5.875,0.129 11.604,0.779 16.363,4.779c1.583,1.333 3.329,2.5 4.8,3.942c2.225,2.171 4.491,4.354 6.337,6.829c2.784,3.729 2.259,10.175 -0.896,14.675c-2.166,3.087 -5.179,5.325 -7.891,7.883c-4.334,4.079 -9.134,4.496 -14.421,3.175c-7.784,-1.937 -13.35,-7.208 -18.683,-12.442c-2.355,-3.612 -2.83,-7.57 -3.83,-11.35Z" style="fill:#231f20;fill-rule:nonzero;"/><path d="M791.589,257.104c-3.996,1.696 -5.213,5.192 -6.121,8.8c-0.296,1.175 0.371,2.921 1.163,3.984c4.445,5.962 12.621,10.254 21.408,8.225c5.204,-1.209 9.762,-6.3 10.196,-11.18c0.242,-2.7 -0.721,-4.941 -2.254,-6.912c-1.913,-2.471 -4.117,-4.675 -7.275,-5.617c-2.567,-0.766 -5.109,-1.616 -7.542,-2.387c-3.712,2 -6.537,3.796 -9.575,5.087Zm30.842,2.834c1.475,2.212 1.904,4.525 0.991,7.116c-0.47,1.354 -0.654,2.829 -0.837,4.271c-0.304,2.375 -1.213,4.325 -3.196,5.821c-1.471,1.108 -3.133,2.283 -3.983,3.829c-1.754,3.221 -4.571,3.971 -7.779,4.367c-2.055,0.254 -4.096,0.658 -6.13,1.05c-2.121,0.412 -3.991,-0.029 -6.025,-0.863c-7.562,-3.108 -12.858,-9.033 -18.587,-14.441c-0.292,-0.276 -0.546,-0.654 -0.684,-1.034c-1.841,-5.096 -0.87,-11.058 2.151,-14.021c2.95,-2.891 6.245,-4.754 10.3,-5.345c1.204,-0.18 2.42,-0.063 3.395,-1.188c2.096,-2.412 4.942,-2.983 7.942,-2.483c3.9,0.646 7.754,1.546 11.633,2.266c2.388,0.446 4.184,1.78 5.692,3.563c1.079,1.271 2.075,2.612 2.233,2.812c1.488,2.205 2.192,3.238 2.884,4.28Z" style="fill:#231f20;fill-rule:nonzero;"/><path d="M880.485,249.113c-2.796,11.175 5.85,20.654 16.733,19.416c3.883,-0.441 7.542,-2.129 10.225,-5.266c3.963,-4.638 3.817,-10.238 -0.521,-14.48c-3.133,-3.062 -6.854,-5.316 -10.945,-6.9c-0.921,-0.358 -2.055,-0.504 -3.026,-0.345c-3.658,0.595 -7.283,1.362 -11.154,2.112c-0.55,2.284 -0.916,3.875 -1.312,5.463Zm19.958,25.8c-2.279,1.946 -4.842,2.191 -7.608,1.608c-8.05,-1.7 -14.296,-2.554 -18.667,-11.292c-0.183,-0.366 -0.433,-0.721 -0.717,-1.016c-2.741,-2.871 -1.57,-6.671 -2.366,-10.005c-0.084,-0.341 0.091,-0.895 0.35,-1.154c2.041,-2.046 2,-4.942 3.079,-7.366c2.237,-5.034 5.888,-10.417 13.754,-9.396c4.254,-1.304 7.996,0.487 12.004,1.554c5.438,1.45 9,4.958 12.367,8.921c4.492,5.279 5.104,11.054 0.4,18.321c-2.304,3.558 -5.454,6.233 -9.454,7.92c-1.029,0.609 -2.213,1.109 -3.142,1.905Z" style="fill:#231f20;fill-rule:nonzero;"/><path d="M496.939,175.175c-1.004,3.454 -0.579,4.854 2.383,6.967c5.134,3.65 10.771,4 16.617,2.104c1.646,-0.529 2.858,-1.721 3.454,-3.388c1.608,-4.504 1.458,-9.024 -0.375,-13.395c-0.9,-2.138 -2.558,-3.655 -4.85,-4.575c-4.175,-1.68 -8.367,-2.338 -13.179,-1.038c-1.404,4.608 -2.775,8.954 -4.05,13.325Zm17.942,17.292c-7.225,1.691 -14.109,0.4 -20.471,-3.221c-7.304,-4.154 -8.875,-12.513 -3.759,-19.142c2.034,-2.637 3.934,-5.196 4.921,-8.545c1.171,-3.992 4.279,-6.705 8.371,-7.509c6.521,-1.279 12.292,0.971 17.492,4.813c0.625,0.466 1,1.316 1.404,2.037c4.283,7.696 5.213,15.654 2.012,24c-0.862,2.25 -2.158,4.004 -4.158,5.413c-1.933,0.733 -3.817,1.691 -5.812,2.154Z" style="fill:#231f20;fill-rule:nonzero;"/><path d="M552.481,216.554c3.675,2.804 7.483,2.888 11.762,1.688c4.621,-1.288 7.059,-4.509 7.65,-8.738c0.596,-4.258 -1.046,-8.179 -4.762,-10.812c-3.046,-2.159 -6.155,-4.05 -10.113,-4.325c-5.396,-0.367 -5.425,-0.579 -9.25,3.208c-0.825,0.817 -1.425,1.975 -1.833,3.083c-0.792,2.117 -1.375,4.313 -2.213,7.013c2.325,3.708 5.45,6.354 8.759,8.883Zm-16.375,-4.046c-1.93,-3.4 -2.046,-6.687 0.379,-9.92c0.492,-0.659 0.942,-1.425 1.137,-2.209c1.025,-3.992 3.975,-6.225 7.255,-8.192c2.137,-1.278 4.179,-2.766 6.425,-3.82c1.42,-0.667 3.3,-1.288 4.695,-0.908c3.78,1.02 7.684,2.112 11.05,4.037c6.28,3.596 10.634,8.679 9.5,16.692c-0.083,0.612 -0.041,1.245 -0.033,1.866c0.146,7.359 -3.213,12.004 -10.221,14.625c-8.637,3.229 -8.504,3.384 -17.287,0.521c-4.163,-1.354 -7.471,-3.592 -9.959,-7.183c-0.975,-1.838 -1.916,-3.7 -2.941,-5.509Z" style="fill:#231f20;fill-rule:nonzero;"/><path d="M1032.31,323.913c-3.084,1.691 -5.234,2.92 -7.43,4.058c-6.633,3.45 -13.362,6.721 -19.904,10.325c-5.545,3.058 -11.55,4.692 -17.545,6.4c-3.992,1.133 -7.992,2.262 -12.025,3.233c-7.284,1.763 -14.601,3.371 -21.888,5.113c-3.233,0.771 -6.404,1.8 -9.642,2.55c-1.587,0.367 -2.512,1.4 -3.387,2.562c-0.954,1.275 -1.271,2.888 -0.3,4.063c0.667,0.804 2.204,1.433 3.237,1.291c5.346,-0.741 10.759,-1.366 15.946,-2.77c6.409,-1.729 13.079,-2.655 19.154,-5.575c0.725,-0.35 1.613,-0.388 2.438,-0.492c10.067,-1.329 19.262,-5.025 27.996,-10.083c3.05,-1.771 6.3,-3.196 9.429,-4.838c1.096,-0.579 2.15,-1.271 3.129,-2.029c2.462,-1.9 4.829,-3.921 7.312,-5.796c1.7,-1.287 3.255,-2.662 3.801,-4.787c0.175,-0.688 -0.13,-1.5 -0.321,-3.225Z" style="fill:#231f20;fill-rule:nonzero;"/><path d="M924.681,364.663c1.033,-0.9 1.737,-1.379 2.275,-2c0.846,-0.971 1.45,-2.105 0.683,-3.384c-0.679,-1.133 -1.742,-1.829 -3.108,-1.687c-1.234,0.133 -2.455,0.429 -3.675,0.679c-6.5,1.337 -13.105,2.042 -19.629,3.333c-5.846,1.154 -11.996,0.913 -18.013,1.059c-2.125,0.05 -4.183,0.041 -6.008,1.175c-0.855,0.525 -1.654,1.283 -2.196,2.116c-1.163,1.788 0.071,4.275 2.1,4c9.05,-1.208 18.254,0.642 27.287,-1.921c4.942,-1.4 10.271,-1.458 15.425,-2.116c1.846,-0.234 3.784,-0.163 4.859,-1.254Z" style="fill:#231f20;fill-rule:nonzero;"/><path d="M862.831,366.375c-4.959,-2.833 -9.442,-0.233 -13.925,0.079c-0.85,4.275 -0.209,5.563 2.958,6.196c1.417,0.283 2.867,0.4 4.292,0.646c1.962,0.337 3.67,-0.317 5.254,-1.35c1.154,-0.75 1.204,-1.038 1.421,-5.571Z" style="fill:#231f20;fill-rule:nonzero;"/><path d="M68.872,175c13.467,-6.116 41.446,-16.046 47.967,-17.004c3.646,6.408 7.396,13.033 11.179,19.633c4.792,8.35 9.554,16.721 14.479,24.992c0.934,1.558 2.588,2.692 3.859,3.979c3.116,-2.025 3.125,-4.804 3.416,-7.387c0.442,-3.955 0.625,-7.934 1.055,-11.892c1.079,-9.858 2.008,-19.725 2.183,-29.65c0.125,-6.967 5.304,-16.758 14.45,-17.754c8.75,-0.959 16.558,-4.675 24.5,-8.034c1.804,-0.766 3.775,-1.362 5.271,-2.545c0.679,-0.534 0.704,-2.392 0.416,-3.488c-0.208,-0.787 -1.337,-1.504 -2.208,-1.908c-9.367,-4.354 -16.771,-11.992 -26.454,-15.817c-0.875,-0.346 -1.554,-1.192 -2.259,-1.758c-1.179,-10.5 0.851,-20.621 3.363,-30.484c3.013,-11.821 3.008,-23.612 2.083,-35.545c-0.041,-0.479 -0.854,-0.892 -1.554,-1.584c-7.412,3.088 -13.45,8.35 -18.846,14.134c-7.779,8.337 -18.162,13.2 -26.5,20.766c-1.471,1.334 -4.395,1.367 -6.662,1.413c-1.942,0.041 -3.904,-0.709 -5.842,-1.192c-8.058,-2.004 -16.075,-4.166 -24.167,-6.012c-5.512,-1.259 -11.124,-1.859 -16.983,-0.284c-2.9,4.367 -2.65,8.588 0.213,12.942c4.558,6.925 8.741,14.112 13.537,20.867c5.121,7.208 5.363,15.187 3.171,22.908c-2.437,8.596 -6.346,16.783 -9.813,25.067c-3.07,7.329 -6.437,14.533 -9.587,21.833c-0.363,0.842 -0.154,1.929 -0.267,3.804Zm114.096,-74.654c13.683,8.7 28.488,14.9 41.684,24.508c-0.225,1.65 -0.292,3.3 -0.696,4.863c-0.409,1.583 -1.146,3.087 -1.929,5.108c-3.996,1.096 -8.188,2.008 -12.226,3.392c-11.308,3.879 -22.554,7.929 -33.808,11.971c-1.558,0.558 -2.95,1.558 -4.487,2.183c-5.834,2.375 -8.784,6.762 -9.367,12.937c-0.812,8.6 -1.508,17.217 -2.583,25.784c-1.034,8.221 -2.484,16.391 -3.705,24.3c-1.633,1.129 -2.683,1.912 -3.791,2.608c-5.208,3.279 -8.325,3.425 -12.354,-0.608c-3.721,-3.717 -7.113,-7.875 -10.025,-12.254c-6.413,-9.634 -12.429,-19.53 -18.555,-29.23c-5.854,-0.42 -10.824,1.325 -15.741,3.475c-4.563,1.992 -9.121,3.942 -14.321,3.825c-1.883,-0.045 -3.813,0.955 -5.679,1.596c-10.071,3.467 -12.667,3.871 -23.179,-1.866c0.346,-1.355 0.629,-2.892 1.129,-4.35c1.4,-4.08 3.079,-8.075 4.304,-12.205c2.067,-6.975 3.958,-13.983 6.825,-20.716c1.55,-3.642 2.65,-7.521 3.529,-11.392c0.796,-3.529 1.113,-6.85 4.15,-9.721c2.463,-2.333 1.925,-5.875 0.092,-9.204c-4.938,-9 -8.879,-18.496 -13.146,-27.825c-0.808,-1.771 -1.571,-3.967 -1.254,-5.771c0.65,-3.687 -1.142,-6.266 -2.654,-9.225c-3.255,-6.379 0.187,-13.375 7.329,-14.104c9.562,-0.975 19.154,-2.537 28.842,-0.6c6.825,1.367 13.737,2.259 20.612,3.342c6.508,1.029 12.692,0.104 18.017,-3.904c7.966,-5.996 16.104,-11.855 23.483,-18.53c5.5,-4.966 11.467,-8.916 17.908,-12.337c6.221,-3.3 11.909,-1.179 14.325,5.437c0.675,1.851 1.084,3.88 1.188,5.85c0.583,11.301 0.775,22.58 -0.767,33.859c-1.3,9.517 -2.108,19.096 -3.15,28.804Z" style="fill:#231f20;fill-rule:nonzero;"/><path d="M0.006,120.492c-0.125,-3.792 1.845,-5.771 5.162,-6.329c1.921,-0.321 3.946,-0.159 5.909,-0.067c5.675,0.271 11.224,-0.008 16.72,-1.796c11.021,-3.592 21.654,-1.337 32.071,2.713c0.496,0.191 0.746,1.037 1.442,2.075c-1.079,2.004 -2.296,4.254 -3.325,6.162c-6.263,2.613 -12.442,2.292 -18.213,1.408c-10.929,-1.662 -21.812,-1.995 -32.783,-1.462c-2.817,0.137 -5.108,-0.775 -6.983,-2.704Z" style="fill:#231f20;fill-rule:nonzero;"/><path d="M257.747,65.804c-1.279,7.038 -5.241,9.621 -10.166,11.234c-10.038,3.295 -20.08,6.575 -30.105,9.904c-4.362,1.45 -8.687,3.008 -13.029,4.516c-1.766,-5.112 -1.558,-6.433 1.592,-8.22c1.717,-0.975 3.6,-1.646 5.429,-2.4c5.171,-2.121 10.038,-4.505 14.588,-8.042c5.125,-3.983 11.346,-6.579 17.171,-9.613c1.066,-0.558 2.616,-0.679 3.8,-0.399c3.479,0.808 6.891,1.916 10.72,3.02Z" style="fill:#231f20;fill-rule:nonzero;"/><path d="M104.135,192.809c0.179,3.024 -0.713,5.854 -2.65,8.12c-5.584,6.538 -11.183,13.079 -17.104,19.308c-4.517,4.755 -10.517,6.825 -16.967,7.359c-1.096,0.092 -3.179,-0.854 -3.25,-1.496c-0.154,-1.391 0.333,-3.904 1.179,-4.204c8.104,-2.875 12.008,-10.104 17.15,-16.021c1.925,-2.212 3.229,-4.804 4.567,-7.492c4.033,-8.104 7.291,-8.883 17.075,-5.574Z" style="fill:#231f20;fill-rule:nonzero;"/><path d="M183.047,173.421c0.996,-1.3 2.15,-2.812 3.067,-4.013c1.262,-0.041 2.013,-0.287 2.55,-0.05c11.383,5.03 21.417,11.867 28.946,21.971c1.275,1.717 1.571,3.571 0.596,5.609c-1.005,2.108 -2.909,2.775 -4.892,2.845c-4.071,0.138 -8.192,-0.566 -11.225,-3.333c-3.875,-3.537 -7.375,-7.525 -10.75,-11.562c-2.712,-3.259 -5,-6.871 -8.292,-11.467Z" style="fill:#231f20;fill-rule:nonzero;"/><path d="M123.781,44.108c-5.688,2.242 -10.292,-0.487 -14.809,-2.758c-0.321,-0.925 -0.862,-1.646 -0.691,-2.121c2.216,-6.375 2.396,-12.912 1.804,-19.533c-0.146,-1.646 -0.367,-3.329 -0.129,-4.933c0.112,-0.763 1.125,-1.746 1.908,-1.95c0.754,-0.196 1.987,0.245 2.562,0.841c1.13,1.175 2.192,2.542 2.851,4.025c2.654,6.025 5.141,12.13 7.695,18.2c1.263,3.004 0.93,5.767 -1.191,8.229Z" style="fill:#231f20;fill-rule:nonzero;"/></svg>