<?xml version="1.0" encoding="UTF-8" standalone="no"?><!DOCTYPE svg PUBLIC "-//W3C//DTD SVG 1.1//EN" "http://www.w3.org/Graphics/SVG/1.1/DTD/svg11.dtd"><svg width="100%" height="100%" viewBox="0 0 1955 1214" version="1.1" xmlns="http://www.w3.org/2000/svg" xmlns:xlink="http://www.w3.org/1999/xlink" xml:space="preserve" xmlns:serif="http://www.serif.com/" style="fill-rule:evenodd;clip-rule:evenodd;stroke-linejoin:round;stroke-miterlimit:2;"><path d="M541.528,680.242c0.111,33.566 7.786,56.448 26.102,83.197c6.418,9.352 14.414,16.774 24.178,22.177c15.659,8.674 33.422,12.292 51.031,15.954c1.798,0.36 3.839,0.242 5.681,-0.086c15.844,-2.798 31.381,-5.651 44.782,-15.595c11.179,-8.301 22.045,-16.716 32.288,-26.081c24.87,-22.727 32.424,-49.562 23.12,-80.545c-3.592,-11.946 -9.381,-23.345 -12.914,-35.319c-2.623,-8.923 -7.52,-16.1 -13.463,-23.19c-13.891,-16.615 -31.824,-27.565 -52.395,-35.652c-13.865,-5.447 -27.589,-6.025 -41.76,-2.68c-16.732,3.918 -32.07,10.677 -46.149,20.205c-26.374,17.84 -41.65,40.94 -40.515,72.271c0.062,1.771 0.014,3.559 0.014,5.344Zm757.638,-45.723c-0.615,14.682 5.711,34.413 13.125,53.737c9.042,23.591 25.869,41.316 49.494,53.148c5.037,2.522 10.394,4.438 15.46,6.917c14.938,7.277 30.844,8.301 47.211,6.731c6.739,-0.65 13.032,-2.508 18.758,-5.88c28.787,-16.892 51.801,-38.895 68.057,-67.042c3.791,-6.557 5.235,-13.402 4.469,-20.634c-0.877,-7.986 -3.058,-15.896 -3.194,-23.864c-0.277,-15.796 -5.848,-29.644 -14.952,-42.586c-3.67,-5.202 -6.879,-10.677 -10.38,-15.996c-17.855,-27.164 -44.782,-43.074 -75.916,-53.595c-7.277,-2.463 -15.077,-2.736 -22.524,-0.851c-10.991,2.784 -22.136,5.447 -32.593,9.598c-18.898,7.522 -34.679,19.299 -43.275,37.111c-8.659,17.926 -14.462,36.848 -13.74,63.206Zm-1001.6,275.707l0,-0.173c7.598,0 15.214,-0.072 22.83,0.014c30.475,0.332 60.625,-3.113 90.746,-6.931c2.196,-0.273 3.884,-4.569 2.594,-6.44c-1.518,-2.248 -2.822,-4.669 -4.649,-6.671c-30.398,-33.407 -22.524,-29.918 -37.262,-59.548c-1.596,-3.226 -2.303,-6.83 -3.869,-10.057c-8.751,-18.116 -12.174,-37.499 -14.86,-56.953c-4.698,-33.749 -3.423,-67.616 1.183,-101.251c2.284,-16.733 4.989,-33.449 9.871,-49.905c8.198,-27.7 20.464,-53.595 35.172,-78.628c3.21,-5.475 6.249,-11.036 9.12,-16.657c0.751,-1.515 0.995,-3.517 0.659,-5.146c-0.324,-1.47 -1.536,-3.673 -2.748,-3.946c-4.558,-0.983 -9.289,-1.903 -13.91,-1.775c-18.99,0.564 -37.98,1.429 -56.955,2.38c-4.716,0.242 -9.352,1.484 -14.064,1.971c-37.723,3.836 -74.874,11.832 -113.009,12.915c-25.147,0.719 -27.925,4.669 -25.836,30.491c0.199,2.625 1.566,5.16 1.935,7.799c1.488,10.618 3.345,21.212 4.034,31.875c1.658,25.798 2.719,51.633 4.086,77.459c0.277,5.347 -0.125,10.94 1.412,15.982c4.789,15.723 4.237,31.833 4.62,47.843c0.431,17.826 0.063,35.697 -0.03,53.554c-0.062,12.506 0.417,24.902 2.963,37.294c1.614,7.796 1.488,15.923 1.75,23.923c0.309,9.771 -0.597,19.597 0.416,29.281c2.333,22.426 11.345,30.968 33.898,31.56c3.806,0.086 7.612,-0.246 11.407,-0.246c16.165,-0.027 32.329,-0.014 48.496,-0.014Zm715.616,77.072c-32.317,0.574 -77.943,1.152 -123.554,2.304c-40.854,1.023 -81.675,3.489 -122.529,3.804c-41.879,0.332 -83.625,2.394 -125.197,6.544c-21.662,2.148 -43.154,6.557 -64.373,11.355c-18.345,4.136 -32.284,15.103 -41.282,30.709c-5.862,10.161 -11.112,20.682 -12.004,32.656c-0.446,6.198 -1.643,12.437 -3.393,18.431c-5.619,19.34 -4.761,38.868 -2.657,58.464c0.402,3.618 3.607,6.198 7.8,6.226c3.807,0.017 7.598,-0.087 11.393,-0.156c47.512,-0.909 95.028,-2.248 142.544,-2.611c50.357,-0.36 100.68,-0.187 151.051,-2.549c50.294,-2.38 100.725,-1.989 151.096,-2.853c8.537,-0.146 17.211,0.287 25.608,-0.865c26.47,-3.632 53.072,-3.227 79.693,-3.632c23.75,-0.359 47.501,-1.269 71.251,-2.075c31.334,-1.065 62.652,-2.566 94.001,-3.358c30.382,-0.764 60.809,-0.865 91.21,-1.311c17.086,-0.259 34.171,-0.865 51.275,-0.892c22.799,-0.045 45.596,0.359 68.41,0.415c3.762,0.014 7.539,-0.692 11.282,-1.266c6.371,-0.965 10.166,-5.233 9.949,-11.012c-0.52,-15.232 -4.742,-29.931 -7.215,-44.89c-2.516,-15.273 -7.8,-29.426 -16.687,-42.195c-23.798,-34.168 -55.942,-55.352 -101.141,-55.106c-7.601,0.041 -15.198,0.619 -22.8,0.605c-58.919,-0.114 -117.828,0.073 -176.703,2.826c-7.553,0.373 -15.184,-0.173 -22.781,-0.464c-3.762,-0.141 -7.587,-1.252 -11.257,-0.85c-33.175,3.562 -66.428,2.639 -112.99,1.746Zm-853.296,-691.45c-0.427,0.013 -0.858,0.013 -1.289,0.027c0.567,12.479 0.202,25.061 1.904,37.412c2.58,18.69 2.672,37.395 2.963,56.116c0.092,5.347 -0.107,10.722 0.199,16.069c0.475,8.415 9.69,16.802 18.916,16.657c7.568,-0.114 15.122,-1.124 22.675,-1.916c4.698,-0.492 9.517,-2.349 14.031,-1.771c16.197,2.089 32.239,-0.45 48.359,-0.664c46.595,-0.619 93.19,-1.052 139.77,-2.321c27.523,-0.751 55.006,-3.286 82.533,-4.396c27.509,-1.093 55.129,-0.159 82.501,-4.078c3.747,-0.532 7.583,-0.678 11.378,-0.733c46.595,-0.723 93.142,-2.334 139.703,-3.59c30.368,-0.792 60.766,-1.902 91.178,-2.103c37.092,-0.259 74.184,-0.404 111.258,-0.778c17.119,-0.187 34.237,-0.705 51.337,-1.342c13.279,-0.474 26.562,-1.497 39.841,-2.016c28.493,-1.124 57.096,-1.152 85.496,-3.4c20.88,-1.643 41.713,-2.639 62.623,-2.812c27.571,-0.232 55.143,-0.692 82.718,-1.096c2.84,-0.028 5.74,-0.042 8.533,-0.488c24.458,-4.009 49.207,-3.718 73.875,-5.001c29.418,-1.529 58.632,-2.954 88.157,-0.979c28.415,1.871 57.033,1.107 85.555,1.28c51.355,0.346 102.706,0.923 154.047,0.591c27.494,-0.173 54.929,-3.86 82.486,-0.678c6.54,0.751 13.341,0.45 19.944,-0.287c10.361,-1.138 20.633,-2.998 30.917,-4.683c3.777,-0.619 7.354,-3.918 7.461,-7.149c0.277,-8.01 0.936,-16.082 0.155,-24.006c-1.212,-12.537 -1.551,-25.033 0.707,-37.384c1.334,-7.35 0.461,-14.267 -1.812,-21.098c-4.009,-12.105 -4.96,-24.238 -4.208,-36.948c0.722,-12.365 -1.183,-24.861 -2.027,-37.281c-0.228,-3.444 -3.699,-7.076 -7.107,-7.277c-8.537,-0.491 -17.071,-0.937 -25.608,-1.068c-14.277,-0.229 -28.507,-0.36 -42.77,-0.26c-38.072,0.273 -75.857,-4.351 -113.944,-4.192c-56.083,0.215 -112.165,-1.11 -168.248,-1.774c-2.855,-0.041 -5.711,0.132 -8.566,0.145c-76.068,0.187 -152.139,0.388 -228.21,0.606c-6.661,0.014 -13.327,-0.187 -19.974,0.186c-36.982,2.017 -74.199,-1.124 -111.026,4.469c-3.733,0.574 -7.601,0.246 -11.407,0.332c-26.621,0.619 -53.242,1.366 -79.863,1.816c-16.149,0.273 -32.361,0.778 -48.466,-0.087c-33.331,-1.815 -66.54,0.633 -99.793,1.194c-28.507,0.491 -56.999,2.106 -85.496,3.185c-7.597,0.304 -15.257,-0 -22.796,0.837c-33.117,3.673 -66.34,4.728 -99.652,4.711c-7.539,-0 -15.228,0.864 -22.601,2.365c-27.94,5.762 -56.171,8.429 -84.789,8.142c-6.588,-0.073 -13.308,0.446 -19.775,1.629c-15.029,2.736 -30.136,3.472 -45.397,3.514c-17.071,0.031 -34.296,-0.215 -51.215,1.601c-19.801,2.148 -39.392,5.952 -59.487,5.115c-3.762,-0.159 -7.568,0.664 -11.363,0.924c-13.25,0.92 -26.529,2.781 -39.76,2.476c-32.457,-0.719 -64.251,6.617 -96.627,6.271c-1.876,-0.014 -3.795,0.359 -5.619,0.792c-17.87,4.237 -23.198,2.466 -22.354,23.792c0.276,7.135 0.029,14.266 0.029,21.402Zm1178.83,580.124l-0,1.138c13.308,0 26.635,0.259 39.929,-0.041c41.79,-0.965 83.562,-2.193 125.337,-3.186c7.601,-0.173 15.261,-0.2 22.815,0.474c46.517,4.209 93.141,2.525 139.736,2.48c21.86,-0.042 43.706,-0.446 65.585,-0.765c11.389,-0.172 22.811,-0.373 34.189,-0.85c4.068,-0.156 7.446,-2.577 8.426,-6.167c2.366,-8.633 5.008,-17.335 5.822,-26.14c1.289,-14.239 2.929,-28.392 5.693,-42.441c1.197,-6.111 1.488,-12.451 1.613,-18.677c0.413,-21.384 0.781,-42.772 0.737,-64.157c-0.014,-9.051 0.921,-17.798 4.669,-26.185c1.746,-3.95 8.456,-5.015 11.989,-2.148c6.216,5.029 8.456,11.531 9.042,18.922c1.304,16.906 2.918,33.794 4.189,50.697c0.417,5.319 0.862,10.78 0.033,15.996c-3.868,23.895 -5.375,47.919 -5.066,72.057c0.044,4.451 -0.663,8.906 -1.12,13.343c-1.308,12.582 -5.405,24.369 -11.761,35.451c-1.842,3.227 -4.668,5.852 -8.813,6.011c-17.071,0.633 -34.175,1.47 -51.26,1.497c-32.332,0.028 -64.682,-0.432 -96.995,-0.65c-40.884,-0.301 -81.768,1.356 -122.622,-2.476c-12.203,-1.155 -24.686,0.055 -37.044,0.373c-5.697,0.146 -11.36,0.951 -17.056,1.097c-55.099,1.643 -110.212,1.771 -165.267,5.561c-33.131,2.276 -66.52,1.097 -99.803,1.37c-52.306,0.404 -104.626,0.619 -156.932,1.183c-8.474,0.1 -16.978,1.47 -25.409,2.563c-15.044,1.933 -29.999,4.769 -45.106,5.997c-16.072,1.297 -32.298,1.311 -48.466,1.684c-18.054,0.419 -36.123,0.65 -54.192,0.865c-8.751,0.1 -16.702,2.047 -24.134,6.803c-14.127,9.034 -28.681,17.48 -42.896,26.386c-1.057,0.678 -0.965,3.154 -1.076,4.814c-0.029,0.533 0.999,1.498 1.644,1.598c2.796,0.46 5.633,0.979 8.445,0.878c39.9,-1.238 79.818,-2.535 119.718,-3.946c4.742,-0.145 9.532,-0.692 14.137,-1.674c25.501,-5.33 51.293,-2.839 76.687,-0.937c21.86,1.643 43.614,2.494 65.478,1.975c23.747,-0.547 47.483,-1.871 71.233,-2.321c48.496,-0.878 97.011,-1.484 145.506,-2.016c21.802,-0.232 43.754,-2.176 65.095,4.236c1.75,0.533 3.777,0.305 5.667,0.419c32.977,1.857 33.603,1.975 58.846,16.847c3.206,1.885 6.846,3.113 10.147,4.883c19.65,10.58 34.082,25.421 42.033,45.54c5.973,15.118 10.516,30.754 12.053,46.678c1.12,11.659 3.544,22.968 5.972,34.268c6.769,31.459 4.79,29.803 38.349,28.606c3.791,-0.114 7.631,-0.332 11.359,-0.91c21.71,-3.313 43.618,-2.895 65.464,-3.313c17.133,-0.332 34.251,-0.36 51.37,-1.096c17.991,-0.761 35.983,-0.706 54.037,-2.522c20.711,-2.103 41.805,-1.006 62.729,-1.037c29.002,-0.042 56.389,-6.859 83.197,-16.602c8.442,-3.068 14.492,-8.387 18.375,-15.909c2.487,-4.798 5.387,-9.553 6.846,-14.641c9.551,-33.721 16.78,-67.675 14.355,-102.994c-2.133,-31.173 -2.686,-62.428 -4.023,-93.656c-2.852,-66.91 -2.303,-133.88 -2.546,-200.832c-0.034,-8.933 -0.476,-17.884 0.169,-26.79c3.298,-45.481 2.454,-91.062 1.934,-136.543c-0.843,-71.393 -0.475,-142.799 -4.712,-214.189c-3.132,-52.557 -7.155,-104.969 -14.02,-157.194c-1.09,-8.245 -4.266,-15.578 -9.9,-21.834c-4.285,-4.77 -8.92,-9.294 -13.696,-13.631c-18.835,-17.12 -41.727,-27.741 -66.089,-35.987c-21.511,-7.263 -43.861,-11.5 -65.847,-17.075c-19.542,-4.987 -39.148,-6.831 -59.151,-6.976c-7.616,-0.055 -15.232,-0.142 -22.83,-0.488c-17.07,-0.736 -34.251,1.311 -51.23,-1.774c-18.732,3.877 -37.906,2.708 -56.819,4.265c-54.056,4.496 -108.171,6.198 -162.444,4.295c-15.166,-0.519 -30.398,0.692 -45.611,1.01c-9.488,0.215 -18.99,0.488 -28.478,0.301c-15.199,-0.332 -30.412,-1.051 -45.611,-1.57c-21.846,-0.733 -43.754,-0.751 -65.541,-2.335c-23.746,-1.715 -47.405,-2.953 -71.218,-1.397c-8.489,0.546 -17.085,-0.059 -25.608,-0.546c-15.184,-0.865 -30.368,-3.086 -45.519,-2.785c-17.195,0.346 -34.188,-1.037 -51.185,-2.434c-12.45,-1.024 -24.76,-0.879 -36.967,1.037c-13.294,2.106 -26.407,1.902 -39.731,0.273c-17.011,-2.103 -33.99,-1.77 -51.156,0.305c-19.771,2.376 -39.808,2.825 -59.734,4.019c-10.408,0.622 -20.85,0.909 -31.274,1.601c-31.286,2.061 -62.527,4.901 -93.864,6.167c-36.09,1.456 -72.246,1.501 -108.384,2.279c-11.408,0.259 -22.892,0.2 -34.174,1.511c-29.385,3.459 -58.879,2.435 -88.308,2.881c-29.476,0.433 -58.967,0.277 -88.444,0.519c-5.696,0.059 -11.422,0.505 -17.07,1.242c-16.046,2.103 -32.148,2.853 -48.345,2.895c-31.396,0.072 -62.777,0.982 -94.159,0.691c-39.347,-0.359 -77.449,5.534 -114.803,16.948c-7.936,2.421 -13.4,6.689 -17.041,13.156c-6.617,11.804 -12.91,23.795 -19.052,35.842c-6.201,12.205 -9.396,24.916 -9.842,38.691c-1.411,44.603 -0.641,89.233 -3.36,133.835c-2.012,32.93 -0.722,66.046 -0.814,99.09c-0.015,6.225 0.261,12.482 0.644,18.721c0.907,15.145 2.366,30.263 2.841,45.422c0.844,26.746 2.473,53.436 4.315,80.14c3.224,47.182 6.831,94.375 7.247,141.717c0.442,51.779 1.504,103.54 2.226,155.319c0.228,16.906 3.297,33.767 0.519,50.77c-0.703,4.281 0.571,8.85 0.955,13.301c0.611,7.104 1.75,14.212 1.794,21.33c0.232,28.606 2.273,57.053 7.063,85.282c3.287,19.341 5.988,38.796 14.293,57.14c11.252,24.861 27.711,44.544 55.743,53.882c14.326,4.769 28.555,9.871 43.094,14.007c8.092,2.307 16.688,3.85 25.133,4.21c53.179,2.348 106.284,6.066 159.618,4.568c20.817,-0.577 41.834,1.225 62.56,3.532c13.341,1.452 26.514,1.771 39.822,1.497c12.406,-0.245 16.275,-4.582 17.487,-16.542c0.538,-5.292 0.262,-10.708 -0.247,-16.028c-1.12,-11.686 -0.136,-23.158 2.734,-34.555c2.196,-8.691 5.144,-17.352 5.833,-26.171c1.013,-12.811 6.816,-24.051 10.98,-35.842c3.345,-9.466 9.333,-17.379 17.498,-23.992c10.795,-8.747 21.02,-18.099 34.207,-23.806c1.227,-0.536 2.609,-2.767 2.317,-3.835c-0.383,-1.456 -2.055,-3.113 -3.592,-3.732c-4.359,-1.73 -8.964,-2.895 -13.434,-4.424c-23.198,-7.941 -46.886,-14.844 -68.179,-27.064c-7.66,-4.409 -15.983,-5.215 -24.701,-4.755c-37.029,1.975 -74.059,3.877 -111.089,5.821c-14.248,0.764 -28.511,2.48 -42.726,2.148c-19.94,-0.474 -39.793,-1.443 -59.568,1.929c-2.715,0.464 -5.77,0.246 -8.441,-0.446c-11.883,-3.112 -23.891,-5.98 -35.464,-9.943c-10.147,-3.5 -17.442,-10.103 -20.972,-20.361c-5.037,-14.685 -4.79,-29.948 -6.861,-44.948c3.298,-27.569 0.549,-55.093 0.291,-82.661c-0.232,-24.024 -2.428,-48.134 0,-72.199c0.35,-3.445 -0.678,-7.049 -1.26,-10.549c-0.858,-5.288 -2.395,-10.535 -2.763,-15.837c-1.964,-27.596 -4.407,-55.196 -5.188,-82.82c-0.538,-18.808 -2.579,-37.325 -5.313,-55.902c-1.673,-11.441 -2.41,-23.086 -2.351,-34.641c0.077,-13.174 13.618,-22.353 23.861,-22.754c8.548,-0.346 17.133,-0.623 25.681,-0.377c18.117,0.55 36.032,-0.46 53.997,-3.155c17.793,-2.68 35.862,-5.288 53.824,-5.305c38.165,-0.042 75.703,-6.886 113.731,-7.824c7.642,-0.2 15.49,-1.428 21.706,-5.779c11.378,-7.982 22.262,-16.587 33.146,-25.161c0.984,-0.779 0.645,-3.258 0.505,-4.901c-0.045,-0.46 -1.563,-1.093 -2.44,-1.166c-8.503,-0.564 -17.026,-1.57 -25.515,-1.411c-32.317,0.588 -64.634,1.57 -96.948,2.362c-7.601,0.187 -15.217,0.491 -22.814,0.232c-20.91,-0.692 -41.805,-1.688 -62.579,1.857c-2.793,0.478 -5.895,1.083 -8.504,0.419c-10.501,-2.681 -20.725,0.474 -31.071,0.678c-17.977,0.373 -36.142,2.521 -53.625,-3.677c-5.711,-2.002 -11.253,-0.82 -16.614,1.297c-4.834,1.947 -9.594,1.242 -13.555,-1.338c-9.842,-6.471 -16.334,-15.018 -15.442,-26.922c0.844,-11.542 2.255,-23.069 3.128,-34.642c0.737,-9.77 2.491,-19.714 1.275,-29.298c-2.469,-19.627 -0.689,-39.068 0.324,-58.596c0.383,-7.176 0.092,-14.149 -1.536,-21.239c-1.78,-7.827 -3.191,-15.868 -3.361,-23.837c-0.217,-10.735 5.417,-19.036 16.058,-23.245c9.609,-3.791 19.557,-6.831 30.198,-7.409c31.333,-1.684 62.637,-3.572 93.956,-5.388c8.533,-0.519 17.07,-1.065 25.608,-1.643c16.119,-1.079 32.225,-2.22 48.344,-3.286c15.166,-1.01 30.35,-1.874 45.519,-2.912c9.455,-0.66 18.898,-1.729 28.371,-2.289c18.025,-1.066 36.076,-1.802 54.1,-2.881c12.329,-0.765 24.609,-1.948 36.938,-2.798c6.632,-0.474 13.449,0.058 19.911,-1.138c19.746,-3.66 39.734,-3.459 59.66,-4.209c18.069,-0.692 36.109,-1.54 54.178,-2.304c25.641,-1.096 51.263,-2.248 76.915,-3.244c18.054,-0.692 36.123,-1.024 54.177,-1.785c20.895,-0.882 41.746,-2.421 62.637,-2.926c17.996,-0.418 36.002,0.374 54.012,0.315c19.005,-0.055 37.995,-0.56 57.019,-0.733c19.019,-0.146 38.057,0.114 57.062,-0.26c19.023,-0.39 38.028,-1.21 57.018,-2.12c19.945,-0.934 39.841,-2.94 59.767,-3.14c39.948,-0.446 79.907,-0.059 119.87,0.173c39.947,0.231 79.91,1.037 119.854,0.996c49.436,-0.045 98.838,-0.377 148.244,2.549c33.205,1.961 66.55,1.743 99.836,2.321c56.112,0.992 112.103,5.547 168.259,4.755c5.681,-0.072 11.407,0.491 17.059,1.166c21.662,2.566 25.807,14.284 25.037,26.648c-0.811,13.358 -1.887,26.732 -3.7,39.989c-1.367,9.885 -1.857,19.455 1.658,29.052c3.132,8.56 3.792,17.408 3.073,26.445c-1.86,23.214 -0.294,46.373 1.474,69.532c0.258,3.531 0.383,7.163 -0.232,10.608c-0.999,5.634 -4.436,9.929 -10.394,11.686c-3.578,1.079 -7.399,1.771 -11.131,1.903c-20.895,0.778 -41.849,2.493 -62.682,1.684c-25.699,-0.993 -51.322,-1.311 -76.992,-0.273c-8.552,0.332 -17.103,0.463 -25.67,0.446c-86.554,-0.114 -173.096,-0.301 -259.668,-0.346c-10.438,-0 -20.987,-0.014 -31.304,1.314c-17.944,2.276 -36.046,2.203 -53.993,3.687c-33.143,2.781 -66.274,4.828 -99.56,4.828c-11.389,0 -22.797,0.865 -34.204,0.692c-19.989,-0.287 -39.929,-0.145 -59.826,2.089c-6.555,0.737 -13.25,0.273 -19.882,0.232c-6.661,-0.028 -13.419,-1.024 -19.929,-0.173c-22.675,2.94 -45.597,2.075 -68.301,3.905c-34.144,2.767 -68.304,4.064 -102.552,4.337c-16.153,0.131 -32.332,0.304 -48.485,0.564c-9.517,0.141 -19.067,0.086 -28.507,0.892c-4.576,0.391 -8.983,2.48 -13.404,3.95c-0.796,0.259 -1.887,1.238 -1.872,1.829c0.063,1.47 0.214,3.673 1.197,4.265c7.215,4.295 15.413,7.408 21.861,12.496c11.116,8.719 23.566,10.331 37.291,9.999c27.575,-0.678 55.161,-0.575 82.733,-0.993c19.023,-0.287 38.061,-0.592 57.051,-1.411c60.795,-2.594 121.575,-5.506 182.367,-8.187c36.094,-1.584 72.187,-3.14 108.296,-4.368c9.705,-0.329 18.747,-1.958 27.512,-5.935c16.503,-7.523 34.219,-10.476 52.428,-11.185c7.601,-0.287 15.243,-0.315 22.814,-0.92c20.28,-1.602 39.793,1.297 58.736,8.155c5.328,1.916 10.869,3.372 15.998,5.648c12.358,5.479 25.331,6.935 38.842,7.09c72.276,0.896 144.556,0.969 216.865,-0.574c23.736,-0.505 47.516,1.093 71.267,1.73c9.948,0.259 18.36,4.309 26.097,9.684c2.119,1.47 4.053,3.991 4.669,6.353c1.765,6.949 2.977,14.167 0.644,21.184c-3.194,9.543 -2.918,19.327 -3.702,29.098c-1.548,19.568 -2.745,39.196 -6.909,58.492c-0.733,3.417 -2.318,6.703 -3.699,9.974c-1.242,2.954 -7.336,3.891 -9.915,1.712c-6.71,-5.648 -10.826,-12.592 -10.516,-21.125c0.612,-16.919 1.164,-33.88 2.623,-50.755c3.854,-44.471 9.226,-37.281 -37.32,-39.833c-7.587,-0.401 -15.232,-0.315 -22.83,-0.187c-42.77,0.678 -85.559,1.398 -128.344,2.248c-17.103,0.332 -34.192,1.038 -51.277,1.588c-0.951,0.028 -1.983,0.014 -2.826,0.346c-0.829,0.301 -2.012,0.934 -2.119,1.57c-0.276,1.584 -0.766,4.064 0.107,4.756c16.798,13.184 33.102,26.79 45.78,43.765c15.848,21.257 30.416,42.914 36.879,68.84c8.121,32.484 11.529,64.849 5.372,98.024c-4.116,22.049 -8.552,43.88 -18.515,64.331c-3.515,7.263 -7.52,14.467 -12.435,20.952c-17.026,22.481 -39.285,38.377 -67.626,46.778c-22.631,6.717 -45.368,13.388 -67.273,21.848c-19.576,7.564 -39.472,12.437 -60.367,14.841c-13.478,1.556 -26.374,0.377 -39.392,-3.14c-24.734,-6.717 -47.991,-16.761 -71.649,-26.068c-16.013,-6.329 -30.044,-14.976 -43.493,-24.802c-5.972,-4.368 -11.3,-9.542 -16.827,-14.44c-21.065,-18.662 -38.043,-39.788 -46.086,-66.419c-1.032,-3.431 -2.594,-6.717 -3.81,-10.103c-9.794,-27.44 -11.529,-55.929 -12.402,-84.507c-0.126,-4.351 1.197,-8.834 2.303,-13.157c5.77,-22.523 11.267,-45.121 17.778,-67.471c2.73,-9.397 7.258,-18.403 11.834,-27.195c4.989,-9.611 10.962,-18.791 16.503,-28.143c2.303,-3.904 4.683,-7.768 6.865,-11.745c2.638,-4.797 0.32,-9.771 -4.776,-9.899c-8.537,-0.204 -17.302,-1.21 -25.578,0.201c-26.403,4.468 -53.042,3.4 -79.601,4.164c-23.765,0.678 -47.666,-0.418 -71.295,1.556c-27.528,2.276 -55.055,2.954 -82.597,3.763c-22.811,0.647 -45.655,0.374 -68.455,1.021c-7.306,0.218 -15.107,-2.663 -21.952,2.12c-1.706,9.871 8.78,12.769 12.833,19.396c6.602,10.808 14.786,20.765 21.646,31.432c6.389,9.898 12.576,20.029 17.719,30.522c9.547,19.482 17.73,39.601 21.599,60.785c4.484,24.612 6.85,49.459 6.496,74.589c-0.387,26.821 -0.645,53.494 -10.718,79.175c-2.933,7.463 -4.252,15.536 -5.91,23.404c-4.635,22.063 -12.019,43.132 -25.346,62.068c-0.509,0.734 -0.645,1.685 -1.013,2.491c-0.97,2.075 1.396,5.879 3.868,6.139c2.812,0.304 5.634,0.937 8.431,0.795c42.737,-2.248 85.525,-2.034 128.328,-2.148c61.809,-0.159 123.617,-1.155 185.44,-1.57c34.233,-0.245 68.47,-0.045 102.707,-0.045Zm613.461,-220.961c-0.737,66.261 -1.783,126.946 -1.967,187.644c-0.107,36.589 1.459,73.164 1.672,109.753c0.111,18.735 -1.532,37.453 -1.595,56.202c-0.077,27.814 -4.484,55.051 -10.085,82.229c-2.21,10.749 -6.389,20.551 -13.894,28.938c-6.695,7.492 -12.435,15.619 -20.405,22.249c-13.216,11.027 -29.075,16.975 -45.213,22.136c-25.313,8.127 -51.628,12.236 -78.278,13.921c-17.074,1.065 -34.189,1.57 -51.307,2.002c-8.552,0.204 -17.104,-0.301 -25.656,-0.56c-5.696,-0.145 -11.407,-0.823 -17.085,-0.619c-107.419,3.818 -214.901,2.767 -322.353,2.116c-81.735,-0.491 -163.473,-0.764 -245.192,0.91c-42.741,0.879 -85.448,3.459 -128.207,4.41c-38.102,0.833 -75.578,7.391 -113.499,9.597c-6.647,0.388 -13.231,1.73 -19.863,1.844c-20.096,0.346 -39.642,3.95 -59.215,7.809c-11.131,2.193 -22.523,4.887 -33.743,4.683c-22.921,-0.415 -45.581,2.581 -68.381,2.812c-36.138,0.332 -72.261,0.301 -108.403,0.301c-35.188,0 -70.39,0.346 -105.562,-0.373c-40.884,-0.851 -81.72,-2.681 -122.57,-4.123c-4.761,-0.173 -9.488,-0.934 -14.234,-0.993c-34.281,-0.39 -68.223,-4.005 -102.091,-8.791c-15.015,-2.117 -30.291,-2.522 -45.335,-4.466c-17.87,-2.32 -35.618,-5.564 -53.444,-8.231c-6.754,-0.993 -12.664,-3.659 -18.345,-6.986c-17.856,-10.435 -34.127,-22.741 -48.728,-36.88c-8.626,-8.342 -14.768,-18.216 -19.805,-29.066c-10.792,-23.218 -14.738,-47.93 -19.509,-72.43c-5.822,-29.859 -7.587,-60.222 -9.967,-90.457c-1.106,-14.208 -0.704,-28.561 -0.122,-42.814c0.63,-15.204 0.122,-30.263 -1.275,-45.409c-1.168,-12.423 -0.63,-24.988 -0.781,-37.484c-0.14,-11.586 0.383,-23.086 -2.059,-34.659c-1.441,-6.831 0.048,-14.194 0.125,-21.298c0.092,-9.785 1.135,-19.714 -0.077,-29.371c-2.919,-23.114 -3.656,-46.3 -4.271,-69.501c-0.35,-13.388 -1.426,-26.648 -3.589,-39.964c-3.577,-22.018 -5.269,-44.312 -8.154,-66.447c-4.852,-37.28 -5.541,-74.706 -6.079,-112.205c-0.199,-15.072 -2.502,-30.103 -3.069,-45.262c-1.168,-31.259 -0.218,-62.474 0.151,-93.688c0.169,-13.315 1.507,-26.617 3.146,-39.947c2.167,-17.639 0.94,-35.623 1.367,-53.449c0.354,-14.267 0.509,-28.548 1.644,-42.773c0.983,-12.434 3.286,-24.771 9.41,-36.156c1.706,-3.155 3.64,-6.541 3.994,-9.958c2.472,-23.477 16.382,-41.344 31.761,-58.578c1.216,-1.356 2.229,-2.899 3.316,-4.369c3.379,-4.61 8.076,-7.595 13.802,-8.805c10.21,-2.131 20.42,-5.057 30.766,-5.676c21.065,-1.269 41.175,-6.53 61.488,-11.112c25.022,-5.634 50.401,-8.533 76.148,-9.065c38.964,-0.806 77.925,-1.916 116.889,-2.926c2.855,-0.056 5.759,-0 8.552,-0.46c35.865,-5.821 72.066,-3.819 108.174,-4.265c19.974,-0.232 39.944,0.073 59.918,-0.045c7.601,-0.055 15.306,0.132 22.785,-0.992c27.373,-4.123 54.992,-3.373 82.549,-3.992c13.294,-0.318 26.573,-1.141 39.852,-1.774c32.287,-1.529 64.571,-3.012 96.844,-4.61c10.424,-0.505 20.818,-1.384 31.227,-1.889c22.781,-1.051 45.581,-1.988 68.378,-2.926c5.696,-0.214 11.436,0.114 17.103,-0.418c60.688,-5.88 121.605,-3.732 182.429,-4.655c9.488,-0.142 19.053,0.332 28.478,1.383c17.962,2.006 35.818,3.922 53.702,-0.474c2.686,-0.664 5.682,-0.418 8.523,-0.273c37.965,1.729 76.115,-1.688 113.944,3.5c32.24,-0.46 64.616,3.517 96.686,-2.909c4.577,-0.923 9.473,-0.678 14.219,-0.622c12.358,0.159 24.701,0.505 37.059,0.764c25.623,0.578 51.201,1.557 76.793,-0.851c8.475,-0.806 17.1,0.018 25.652,-0.027c6.651,-0.028 13.279,-0.246 19.912,-0.374c11.377,-0.245 22.77,-0.377 34.129,-0.792c5.649,-0.218 11.268,-0.937 16.901,-1.487c4.639,-0.446 9.473,-2.03 13.913,-1.297c9.503,1.556 18.714,1.688 28.294,0.29c4.407,-0.636 9.547,0.488 13.802,2.131c12.664,4.814 25.575,6.471 39.101,5.146c3.728,-0.373 7.877,-0.591 11.315,0.505c15.552,4.929 31.856,4.237 47.777,6.181c16.043,1.947 32.115,3.69 48.021,6.239c14.952,2.421 29.904,5.06 43.448,12.192c4.956,2.608 10.191,5.565 15.626,6.371c13.235,1.947 22.063,9.902 30.95,17.957c4.776,4.323 8.983,9.207 13.648,13.648c6.894,6.512 11.345,13.92 13.172,23.155c1.551,7.813 4.407,15.536 7.815,22.858c8.062,17.407 11.621,35.593 14.001,54.373c6.264,49.686 9.337,99.591 11.087,149.513c1.857,52.626 1.688,105.315 2.192,157.986c0.295,31.214 0.601,62.4 2.06,93.597c0.873,18.663 -0.262,37.412 -0.799,56.133c-0.306,10.691 -1.198,21.399 -1.504,26.545Z" style="fill:#231f20;fill-rule:nonzero;"/><path d="M1876.92,441.037c-3.039,37.439 -1.783,74.893 0.107,112.305c0.398,8.01 0.689,16.11 2.226,23.937c2.317,11.828 -0.675,23.041 -3.224,34.268c-1.474,6.526 -7.156,10.262 -14.079,11.946c-7.874,1.916 -16.304,-2.089 -18.021,-9.107c-2.981,-12.105 -5.803,-23.923 -2.598,-36.879c2.55,-10.203 2.244,-21.326 1.43,-31.933c-2.104,-27.655 1.901,-55.124 1.581,-82.706c-0.092,-7.09 1.076,-14.181 1.58,-21.298c0.49,-7.091 1.765,-14.267 1.12,-21.271c-1.164,-12.465 -0.184,-24.916 -0.644,-37.267c-0.66,-17.87 0.615,-35.623 0.615,-53.408c0.015,-7.059 -1.518,-14.135 -1.934,-21.211c-0.17,-2.567 0.659,-5.23 1.381,-7.768c0.785,-2.722 6.327,-5.935 9.013,-5.289c3.655,0.879 7.277,1.948 10.854,3.041c6.047,1.846 9.503,5.852 9.779,11.773c1.566,32.915 5.081,65.8 2.594,98.816c-0.799,10.68 -1.197,21.371 -1.78,32.051Z" style="fill:#231f20;fill-rule:nonzero;"/><path d="M159.213,880.41c-0,8.906 0.582,17.856 -0.122,26.704c-1.23,15.09 -2.933,30.148 -5.084,45.121c-1.242,8.646 -9.532,12.824 -19.374,10.535c-3.762,-0.865 -7.476,-2.767 -8.412,-6.444c-2.84,-11.223 -6.341,-22.463 -7.461,-33.877c-2.409,-24.833 -3.699,-49.776 -5.114,-74.665c-1.043,-18.662 -1.595,-37.252 -3.976,-55.898c-2.225,-17.483 0.199,-35.496 0.999,-53.249c0.214,-4.8 3.946,-7.913 8.891,-9.324c5.755,-1.657 11.252,-1.256 16.057,2.521c6.109,4.783 9.241,11.213 10.564,18.376c1.304,7.017 2.284,14.094 3.161,21.167c3.132,25.652 6.385,51.305 9.119,76.985c1.135,10.621 1.106,21.34 1.596,32.034c-0.277,-0 -0.553,0.014 -0.844,0.014Z" style="fill:#231f20;fill-rule:nonzero;"/><path d="M1535.04,79.539c15.214,-0 30.412,-0.215 45.611,0.086c8.6,0.187 16.875,2.061 24.289,6.571c3.36,2.048 4.391,9.799 0.998,11.787c-3.917,2.321 -8.091,5.119 -12.483,5.724c-8.397,1.166 -16.993,1.107 -25.53,1.252c-17.1,0.274 -34.281,-0.546 -51.308,0.692c-22.689,1.657 -45.32,4.455 -67.873,7.45c-26.311,3.49 -52.471,8.114 -79.184,7.913c-3.762,-0.031 -7.771,0.014 -11.209,-1.155c-2.24,-0.747 -4.469,-3.4 -5.313,-5.648c-2.715,-7.363 0.494,-15.031 6.894,-18.562c5.866,-3.255 12.13,-4.725 18.917,-5.257c28.4,-2.235 56.863,-4.023 85.127,-7.35c23.659,-2.812 47.284,-4.022 71.064,-3.503Z" style="fill:#231f20;fill-rule:nonzero;"/><path d="M155.897,165.326c-0.184,-7.809 -2.351,-14.236 -9.517,-18.604c-7.815,-4.742 -15.601,-6.267 -23.814,-0.979c-4.683,3.013 -9.701,5.648 -13.986,9.107c-2.837,2.293 -3.991,5.821 -3.283,9.712c1.702,9.182 6.938,16.487 13.968,22.671c1.905,1.671 5.066,2.881 7.645,2.867c4.639,-0.031 9.396,-0.736 13.91,-1.874c6.927,-1.716 11.455,-6.094 13.157,-12.697c0.877,-3.459 1.338,-7.004 1.92,-10.203Zm19.576,5.102c-2.152,14.713 -6.496,29.097 -20.652,38.736c-3.714,2.508 -8.489,4.915 -12.863,5.06c-20.342,0.647 -38.982,-3.358 -55.423,-16.255c-11.514,-9.024 -18.835,-33.103 -9.933,-48.954c0.877,-1.542 1.842,-3.303 3.301,-4.254c13.128,-8.615 25.515,-18.458 41.68,-22.031c7.649,-1.674 14.741,-0.851 21.908,2.68c16.09,7.938 26.499,19.756 30.523,36.444c0.611,2.58 0.902,5.246 1.459,8.574Z" style="fill:#231f20;fill-rule:nonzero;"/><path d="M1839.78,1036.5c-3.316,0 -5.202,-0.017 -7.089,0c-12.435,0.128 -24.259,12.984 -16.061,26.818c4.823,8.142 11.898,10.923 20.973,10.95c1.812,0 4.13,-0.2 5.357,-1.21c8.121,-6.713 13.74,-14.627 12.159,-25.463c-0.737,-5.042 -5.91,-10.075 -11.116,-10.749c-1.872,-0.246 -3.759,-0.304 -4.223,-0.346Zm-4.742,-21.257c13.018,-1.068 24.303,2.363 34.174,10.535c4.543,3.746 7.263,8.228 8.121,13.645c2.657,16.646 -1.411,31.85 -12.082,45.339c-4.867,6.166 -12.096,8.947 -19.926,8.688c-11.344,-0.401 -22.693,-1.612 -33.975,-2.94c-10.088,-1.179 -17.439,-6.672 -22.49,-14.727c-1.905,-3.04 -2.749,-6.644 -4.344,-9.857c-3.073,-6.225 -2.487,-12.205 1.396,-17.812c5.678,-8.2 11.374,-16.401 17.531,-24.283c3.456,-4.437 8.629,-6.959 14.569,-7.495c5.667,-0.501 11.345,-0.747 17.026,-1.093Z" style="fill:#231f20;fill-rule:nonzero;"/><path d="M1822.25,158.295c1.872,-0.246 3.762,-0.419 5.604,-0.778c7.646,-1.543 12.896,-8.865 10.807,-16.169c-1.441,-5.043 -3.835,-9.972 -6.521,-14.572c-3.855,-6.599 -12.804,-8.702 -19.606,-5.156c-5.973,3.126 -10.486,7.522 -13.065,13.53c-1.92,4.441 -1.198,8.747 1.319,12.755c4.804,7.609 12.159,10.822 21.462,10.39Zm-2.104,21.471c-19.834,0.923 -34.141,-7.941 -45.577,-22.277c-4.208,-5.292 -6.511,-10.535 -3.98,-17.193c2.211,-5.793 3.349,-11.949 5.697,-17.684c5.173,-12.593 15.091,-20.001 29.384,-21.99c2.778,-0.373 5.667,-0.173 8.459,-0.605c17.318,-2.622 28.88,5.489 37.767,18.113c5.818,8.259 9.012,17.411 9.333,27.454c0.645,19.597 -17.502,34.154 -32.608,33.763c-2.823,-0.086 -5.649,0.277 -8.475,0.419Z" style="fill:#231f20;fill-rule:nonzero;"/><path d="M155.451,1048.62c-1.857,0.706 -3.898,1.038 -5.251,2.117c-4.48,3.645 -6.938,8.546 -7.413,13.966c-0.494,5.848 2.822,10.476 8.058,13.111c6.772,3.417 14.215,5.984 21.477,1.183c6.787,-4.496 8.261,-16.124 3.011,-21.616c-5.299,-5.548 -12.13,-8.256 -19.882,-8.761Zm38.426,20.925c0.339,13.544 -5.833,24.037 -17.026,32.078c-8.766,6.299 -18.423,8.948 -29.23,4.957c-6.138,-2.262 -12.557,-4.106 -18.253,-7.118c-17.409,-9.197 -22.398,-33.262 -10.623,-48.781c4.927,-6.471 9.503,-13.187 14.429,-19.645c4.223,-5.533 13.298,-8.228 20.298,-6.253c15.015,4.223 26.573,13.143 36.385,24.211c1.702,1.916 2.594,4.769 3.007,7.322c0.692,4.337 0.707,8.805 1.013,13.229Z" style="fill:#231f20;fill-rule:nonzero;"/><path d="M1847.1,788.569c0.398,-14.121 0.597,-28.243 1.304,-42.368c0.339,-6.799 8.523,-10.102 14.676,-6.571c6.787,3.922 11.794,9.311 12.881,16.587c3.209,21.185 2.027,42.369 -1.824,63.38c-0.615,3.299 -2.903,6.53 -5.099,9.324c-2.933,3.746 -7.321,5.316 -12.343,5.216c-3.117,-0.056 -8.228,-3.428 -8.412,-5.866c-0.276,-3.5 -0.523,-7.018 -0.538,-10.532c-0.077,-9.715 -0.03,-19.44 -0.03,-29.156c-0.199,0 -0.401,-0.014 -0.615,-0.014Z" style="fill:#231f20;fill-rule:nonzero;"/><path d="M102.486,681.657c0.324,-3.732 0.523,-6.385 0.784,-9.007c0.796,-8.332 5.77,-12.869 14.37,-13.174c10.593,-0.387 19.819,5.635 21.046,13.821c0.262,1.729 0.66,3.559 0.354,5.233c-1.489,7.782 -2.87,15.605 -4.897,23.273c-1.72,6.54 -12.144,9.584 -18.806,6.08c-6.094,-3.199 -10.21,-7.854 -11.639,-14.18c-0.951,-4.265 -0.907,-8.747 -1.212,-12.046Z" style="fill:#231f20;fill-rule:nonzero;"/><path d="M1841.18,680.806c0.767,-5.06 1.334,-9.425 2.119,-13.776c0.844,-4.614 4.771,-8.705 8.917,-9.183c5.803,-0.66 11.853,-0.328 15.445,4.382c7.509,9.885 9.978,20.853 5.066,32.57c-2.623,6.281 -7.737,9.726 -14.859,10.736c-6.05,0.865 -12.299,-2.176 -13.386,-7.076c-1.338,-6.039 -2.288,-12.147 -3.302,-17.653Z" style="fill:#231f20;fill-rule:nonzero;"/><path d="M1639.52,96.413c0.232,-4.61 2.104,-8.574 5.899,-11.614c5.358,-4.264 11.636,-5.752 18.559,-5.074c8.998,0.879 16.537,5.866 17.226,11.514c1.197,9.757 -6.264,19.832 -16.382,22.066c-0.921,0.214 -1.92,0.588 -2.763,0.415c-8.475,-1.743 -16.581,-4.164 -20.803,-12.233c-0.829,-1.57 -1.15,-3.358 -1.736,-5.074Z" style="fill:#231f20;fill-rule:nonzero;"/><path d="M1848.13,879.099c0.398,-2.017 0.984,-6.399 2.167,-10.622c1.916,-6.758 12.004,-9.839 18.559,-5.879c10.195,6.139 14.476,19.686 9.627,30.394c-2.487,5.489 -10.117,9.224 -16.167,7.927c-10.977,-2.365 -14.798,-7.567 -14.186,-21.82Z" style="fill:#231f20;fill-rule:nonzero;"/><path d="M1815.35,630.784c-1.057,3.994 -1.963,9.224 -3.927,14.08c-0.877,2.161 -3.685,3.863 -5.973,5.288c-2.074,1.283 -8.047,-1.166 -9.919,-3.587c-6.326,-8.155 -9.226,-17.078 -7.369,-27.264c0.954,-5.205 3.792,-9.355 7.587,-10.016c6.768,-1.183 14.167,2.162 16.44,7.464c0.689,1.615 1.43,3.258 1.794,4.973c0.557,2.563 0.8,5.216 1.367,9.062Z" style="fill:#231f20;fill-rule:nonzero;"/><path d="M417.632,394.93c0.685,-0.342 1.356,-0.764 2.012,-1.28c2.524,-2.006 7.181,-7.104 13.043,-13.647c5.866,-6.544 13.04,-14.495 20.401,-22.302c6.036,-6.422 12.196,-12.731 17.605,-18.209c1.894,3.853 4.016,7.91 6.26,11.922c7.808,14.111 17.06,27.603 20.619,30.301c0.582,0.446 1.208,0.83 1.864,1.169c3.069,8.148 12.071,9.725 18.368,3.936c2.011,-1.844 5.884,-11.483 10.747,-24.878c4.849,-13.395 10.726,-30.54 16.548,-47.425c11.584,-33.784 23.234,-66.499 23.234,-66.499c4.927,-13.803 -11.989,-30.491 -22.048,-13.962c-5.037,8.262 -17.468,39.598 -28.006,70.85c-4.871,14.336 -9.34,28.64 -12.804,40.652c-8.058,-14.827 -15.608,-29.073 -15.608,-29.073c-0.578,-1.096 -1.823,-2.013 -3.463,-2.743c-2.321,-3.479 -7.303,-5.589 -12.48,-4.783c-1.44,0.225 -4.605,2.079 -8.791,5.081c-0.309,0.19 -0.593,0.394 -0.851,0.612c-2.111,1.543 -4.458,3.351 -6.96,5.378c-7.962,6.444 -17.384,15.097 -26.017,23.923c-3.389,3.449 -6.639,6.925 -9.683,10.29c0.361,-7.851 0.756,-16.231 1.224,-24.539c0.814,-15.01 1.919,-29.796 2.892,-40.822c0.483,-5.517 0.914,-10.092 1.234,-13.288c0.317,-3.199 0.498,-5.015 0.498,-5.015c0.626,-6.15 -4.252,-12.375 -10.033,-15.232c-5.781,-2.846 -12.458,-2.283 -15.324,5.344c-1.423,3.808 -3.224,12.779 -4.798,24.307c-1.588,11.531 -2.914,25.618 -3.64,39.632c-0.748,14.015 -0.851,27.953 -0.494,39.179c0.343,11.227 1.179,19.742 2.086,22.941c3.596,12.451 16.595,14.769 22.365,8.18Z" style="fill-rule:nonzero;"/><path d="M663.759,328.383c-0.324,-2.38 -0.987,-5.029 -1.838,-7.824c-0.862,-2.77 -1.971,-6.153 -4.267,-10.033c-1.172,-1.93 -2.638,-3.977 -4.591,-6.004c-1.905,-1.992 -4.443,-4.109 -7.314,-5.852c-2.87,-1.771 -6.123,-3.331 -9.775,-4.586c-3.633,-1.266 -7.675,-2.224 -12.008,-2.743c-4.314,-0.54 -8.96,-0.578 -13.445,-0.135c-4.502,0.432 -8.872,1.339 -12.969,2.636c-4.116,1.286 -7.97,2.964 -11.522,5.015c-1.772,1.034 -3.482,2.147 -5.081,3.406c-1.61,1.245 -2.973,2.484 -4.255,3.808c-2.565,2.629 -4.518,5.416 -6.013,8.107c-1.507,2.701 -2.561,5.309 -3.438,7.761c-1.695,4.804 -3.018,9.75 -3.666,14.862c-0.678,5.088 -0.512,10.372 0.689,15.553c1.19,5.185 3.721,10.266 7.236,14.71c0.826,1.134 1.85,2.172 2.808,3.216c0.936,1.048 2.059,2.038 3.139,2.999c2.222,1.906 4.639,3.632 7.178,5.164c5.081,3.068 10.718,5.312 16.208,6.786c5.527,1.452 10.714,2.158 15.213,2.459c4.51,0.287 8.383,0.263 11.526,0.062c3.154,-0.18 5.6,-0.477 7.31,-0.754c6.853,-1.11 11.801,-3.05 15.132,-5.005c3.338,-1.971 5.041,-4.032 5.505,-5.803c0.468,-1.774 -0.306,-3.286 -1.968,-4.424c-1.665,-1.131 -4.207,-1.874 -7.465,-2.234c-1.617,-0.169 -5.972,0.301 -12.159,0.526c-3.084,0.093 -6.613,0.103 -10.324,-0.17c-3.692,-0.287 -7.527,-0.882 -11.061,-1.916c-3.511,-1.044 -6.945,-2.625 -9.955,-4.811c-1.507,-1.086 -2.911,-2.303 -4.116,-3.669c-0.582,-0.709 -1.249,-1.387 -1.732,-2.145c-0.25,-0.373 -0.56,-0.73 -0.785,-1.117c-0.224,-0.387 -0.453,-0.778 -0.685,-1.165c-0.847,-1.588 -1.588,-3.245 -2.023,-5.043c-0.247,-0.758 -0.357,-1.563 -0.508,-2.362c7.107,-0.042 15.987,-0.315 24.815,-0.651c14.271,-0.57 28.404,-1.286 34.628,-2.248c1.245,0.457 2.579,0.599 4.038,0.246c1.562,-0.377 3.283,-1.356 4.746,-3.123c1.47,-1.754 2.667,-4.32 2.991,-7.485c0.163,-1.573 0.137,-3.642 -0.199,-6.014Zm-43.997,-1.826c-8.872,0.214 -17.604,0.653 -24.34,1.055c0.247,-0.734 0.501,-1.46 0.767,-2.162c0.781,-2.051 1.632,-3.85 2.608,-5.389c0.98,-1.535 2.06,-2.812 3.302,-3.894c0.158,-0.131 0.313,-0.28 0.464,-0.398l0.438,-0.342c0.317,-0.222 0.619,-0.46 0.973,-0.675c0.667,-0.453 1.452,-0.854 2.222,-1.241c3.187,-1.539 6.779,-2.345 9.686,-2.394c2.9,-0.086 5.796,0.509 8.265,1.505c1.223,0.498 2.321,1.082 3.228,1.681c0.217,0.152 0.434,0.304 0.644,0.449c0.196,0.156 0.387,0.308 0.575,0.46c0.398,0.343 0.778,0.685 1.12,1.048c1.393,1.432 2.417,3.065 3.213,4.59c0.781,1.536 1.349,2.919 1.736,3.901c0.383,1 0.585,1.529 0.585,1.529c0.012,0.031 0.026,0.059 0.037,0.09c-4.959,-0.024 -10.261,0.041 -15.523,0.187Z" style="fill-rule:nonzero;"/><path d="M762.737,320.314c-0.504,-2.141 -1.352,-4.379 -2.837,-6.651c-1.455,-2.266 -3.566,-4.572 -6.455,-6.648c-2.892,-2.057 -6.669,-3.863 -10.674,-4.925c-3.994,-1.086 -8.084,-1.546 -11.879,-1.587c-3.81,-0.042 -7.358,0.315 -10.608,0.899c-3.253,0.585 -6.219,1.401 -8.917,2.359c-0.526,0.187 -1.009,0.373 -1.492,0.56c-6.426,-3.932 -16.938,-5.565 -20.338,0.27c-2.572,4.406 -6.146,20.9 -9.363,37.229c-3.161,16.335 -5.976,32.521 -5.177,36.443c1.607,7.834 14.584,10.763 21.223,7.059c3.331,-1.843 8.699,-20.254 12.524,-38.266c1.511,-6.973 2.793,-13.876 3.802,-19.725c2.093,-1.131 4.75,-2.735 7.539,-4.029c1.01,-0.47 2.045,-0.899 3.062,-1.255c0.869,-0.298 1.85,-0.557 2.833,-0.754c1.975,-0.412 3.946,-0.457 4.96,-0.312c0.53,0.063 0.81,0.146 1.065,0.218c0.25,0.097 0.6,0.218 0.998,0.522c0.822,0.575 1.728,1.747 2.237,2.947c0.265,0.567 0.475,1.245 0.637,1.927c0.166,0.674 0.287,1.349 0.383,1.988c0.207,1.273 0.347,2.38 0.645,3.009c1.157,2.546 4.79,4.763 9.086,5.87c4.278,1.113 9.13,1.234 12.365,-0.014c0.804,-0.325 1.725,-1.404 2.65,-3.248c0.899,-1.847 1.875,-4.475 2.151,-7.986c0.067,-0.875 0.085,-1.802 0.026,-2.777c-0.055,-0.982 -0.21,-2.061 -0.446,-3.123Z" style="fill-rule:nonzero;"/><path d="M885.856,296.57c-2.332,-4.167 -7.203,-7.211 -13.246,-5.271c-6.046,1.958 -24.432,12.071 -42.74,21.959c-7.583,4.13 -15.151,8.221 -21.662,11.818c0.652,-4.821 1.364,-9.705 2.13,-14.571c2.675,-17.366 6.223,-34.417 9.241,-47.103c0.77,-3.168 1.474,-6.07 2.096,-8.639c0.671,-2.563 1.249,-4.794 1.728,-6.627c0.933,-3.677 1.537,-5.759 1.537,-5.759c1.006,-3.521 0.541,-7.173 -0.667,-10.41c-1.227,-3.237 -3.353,-6.077 -5.892,-7.955c-5.077,-3.756 -11.823,-3.649 -16.436,5.012c-2.277,4.323 -6.08,14.64 -9.868,28.004c-3.809,13.357 -7.512,29.768 -10.132,46.152c-2.671,16.383 -4.156,32.739 -4.676,45.92c-0.085,3.296 -0.166,6.391 -0.236,9.245c0.008,2.853 0.037,5.458 0.096,7.771c0.092,4.621 0.468,8.066 0.822,9.954c0.733,3.774 2.244,6.779 4.068,9.024c1.831,2.244 4.016,3.725 6.278,4.472c4.521,1.487 9.34,0.034 12.207,-4.171c0.744,-1.055 1.271,-4.092 1.901,-8.598c0.306,-2.252 0.593,-4.87 0.873,-7.793c0.056,-0.494 0.111,-1.006 0.166,-1.518c2.344,1.805 4.908,3.542 7.646,5.136c7.439,4.417 16.193,7.612 23.636,9.39c1.883,0.419 3.659,0.792 5.295,1.11c1.68,0.253 3.216,0.457 4.583,0.616c0.686,0.076 1.323,0.156 1.927,0.194c0.608,0.031 1.168,0.048 1.68,0.058c1.021,0.018 1.843,-0.006 2.432,-0.072c2.366,-0.222 4.411,-1.131 5.962,-2.269c1.558,-1.148 2.653,-2.591 3.334,-4.112c1.349,-3.047 1.124,-6.44 -0.213,-8.553c-0.17,-0.267 -0.553,-0.53 -1.117,-0.789c-0.28,-0.128 -0.604,-0.256 -0.973,-0.381c-0.364,-0.131 -0.762,-0.3 -1.201,-0.449c-0.877,-0.308 -1.901,-0.612 -3.043,-0.92c-1.124,-0.381 -2.362,-0.764 -3.696,-1.141c-5.309,-1.612 -11.768,-4.161 -17.424,-7.326c-1.474,-0.74 -2.727,-1.65 -4.082,-2.445c-0.678,-0.398 -1.238,-0.872 -1.857,-1.29c-0.597,-0.432 -1.231,-0.837 -1.784,-1.269c-0.541,-0.443 -1.079,-0.875 -1.599,-1.301c-0.523,-0.422 -1.068,-0.82 -1.496,-1.255c-0.457,-0.426 -0.899,-0.837 -1.326,-1.232c-0.435,-0.394 -0.87,-0.771 -1.201,-1.165c-0.719,-0.768 -1.375,-1.474 -1.957,-2.096c-0.324,-0.408 -0.612,-0.768 -0.877,-1.107c8.43,-3.749 18.497,-8.705 28.216,-13.817c20.778,-10.857 39.631,-22.505 39.631,-22.505c4.013,-2.446 4.252,-7.765 1.916,-11.926Z" style="fill-rule:nonzero;"/><path d="M1027.63,373.978c2.015,-0.097 4.229,-0.682 6.517,-1.833c2.734,-1.38 10.94,-9.982 20.98,-22.388c10.059,-12.399 21.791,-28.644 32.314,-44.955c10.596,-16.297 19.841,-32.681 26.352,-44.99c1.606,-3.081 3.072,-5.904 4.373,-8.401c1.253,-2.507 2.34,-4.69 3.239,-6.485c1.805,-3.59 2.749,-5.648 2.749,-5.648c3.363,-6.945 1.075,-14.847 -3.453,-18.88c-4.521,-4.04 -11.286,-4.285 -16.986,3.725c-2.874,4.005 -8.198,13.627 -15.162,25.898c-6.949,12.274 -15.629,27.174 -24.785,41.842c-9.112,14.679 -18.747,29.104 -26.699,40.691c-2.815,4.091 -5.383,7.827 -7.641,11.112c-3.228,-41.41 -12.999,-113.933 -12.999,-113.933c-1.865,-14.07 -25.988,-25.674 -27.627,-8.011c-1.64,17.664 11.975,127.769 17.148,142.039c4.557,12.562 15.851,15.55 21.68,10.217Z" style="fill-rule:nonzero;"/><path d="M1137.33,254.036c-4.104,2.331 -6.19,18.625 -3.095,20.987c3.095,2.366 16.503,3.659 22.332,2.812c5.829,-0.847 6.89,-20.644 6.89,-20.644c0.144,-2.089 -22.019,-5.486 -26.127,-3.155Zm9.134,38.263c-5.11,-2.888 -11.625,-3.638 -15.733,1.307c-2.03,2.466 -5.265,8.55 -8.331,16.571c-3.076,8.01 -5.84,17.971 -7.38,27.969c-0.217,1.246 -0.39,2.498 -0.527,3.743c-0.143,1.248 -0.287,2.49 -0.431,3.725c-0.25,2.469 -0.372,4.911 -0.53,7.287c-0.048,2.376 -0.111,4.693 -0.096,6.914c0.074,2.224 0.136,4.354 0.261,6.36c0.177,2.006 0.362,3.888 0.557,5.617c0.232,1.729 0.519,3.306 0.777,4.7c0.251,1.394 0.538,2.608 0.855,3.611c0.306,1 0.597,1.795 0.873,2.348c1.08,2.228 2.878,3.922 4.912,5.116c2.041,1.196 4.362,1.888 6.68,2.137c4.642,0.488 9.296,-0.799 11.761,-3.434c0.309,-0.329 0.542,-0.941 0.711,-1.795c0.159,-0.851 0.276,-1.951 0.394,-3.258c0.111,-1.308 0.144,-2.819 0.177,-4.5c0.081,-1.688 0.125,-3.545 0.14,-5.534c0.181,-7.965 0.781,-18.113 2.266,-28.084c1.4,-9.974 3.873,-19.742 6.039,-26.994c0.571,-1.809 1.043,-3.473 1.537,-4.936c0.497,-1.463 0.932,-2.736 1.289,-3.78c0.354,-1.048 0.634,-1.871 0.851,-2.428c0.21,-0.557 0.321,-0.851 0.321,-0.851c1.448,-4.001 -2.266,-8.906 -7.373,-11.811Z" style="fill-rule:nonzero;"/><path d="M1275.79,290.926c-0.266,-0.948 -0.572,-1.868 -0.866,-2.805c-0.31,-0.944 -0.667,-1.933 -1.058,-2.929c-0.799,-2.006 -1.813,-4.12 -3.264,-6.264c-1.463,-2.137 -3.361,-4.323 -5.899,-6.277c-2.498,-1.961 -5.608,-3.615 -8.681,-4.77c-3.095,-1.169 -6.186,-1.902 -9.064,-2.366c-2.878,-0.446 -5.542,-0.626 -7.992,-0.688c-4.878,-0.072 -8.88,0.346 -12.081,0.837c-1.599,0.26 -3.007,0.526 -4.219,0.789c-1.187,0.259 -2.108,0.484 -2.874,0.678c-0.748,0.193 -1.323,0.345 -1.706,0.446c-0.376,0.107 -0.567,0.162 -0.567,0.162c-3.449,0.972 -6.238,2.383 -8.442,3.964c3.696,-28.101 6.993,-51.724 6.993,-51.724c1.998,-14.242 -18.301,-29.107 -24.819,-11.631c-3.264,8.74 -9.041,41.185 -12.999,73.357c-4.034,32.165 -6.241,64.03 -5.224,71.49c2.019,14.938 15.302,18.255 21.742,10.099c0.641,-0.809 1.323,-2.874 2.038,-5.931c-0.188,3.472 3.209,6.104 9.252,6.45c2.991,0.169 15.173,-2.757 31.76,-7.239c2.071,-0.567 4.215,-1.152 6.419,-1.754c2.181,-0.601 4.639,-1.272 7.365,-2.151c2.719,-0.878 5.719,-1.95 8.839,-3.472c1.559,-0.765 3.136,-1.626 4.672,-2.629c0.763,-0.512 1.533,-1.034 2.233,-1.598c0.722,-0.557 1.43,-1.124 2.056,-1.719c2.605,-2.365 4.554,-4.956 5.954,-7.494c1.408,-2.549 2.27,-5.047 2.86,-7.443c0.586,-2.401 0.888,-4.704 1.05,-6.914c0.158,-2.234 0.184,-4.244 0.169,-6.35c-0.088,-8.346 -1.418,-16.588 -3.647,-24.124Zm-25.748,25.206c0.022,1.591 0.018,3.262 -0.052,4.728c-0.136,2.964 -0.611,5.586 -1.444,7.557c-0.409,0.986 -0.892,1.802 -1.4,2.456c-0.52,0.667 -1.035,1.138 -1.677,1.612c-1.282,0.965 -3.813,2.089 -6.96,3.171c-1.573,0.55 -3.297,1.104 -5.07,1.681c-1.75,0.574 -3.434,1.128 -5.051,1.657c-3.224,1.069 -6.164,2.061 -8.762,2.957c-5.195,1.798 -9.02,3.227 -11.031,4.147c-6.596,3.019 -10.218,6.419 -11.378,9.431c0.969,-4.555 1.997,-10.787 3.084,-18.088c2.026,-13.734 4.285,-31.252 6.54,-48.542c0.674,0.125 1.396,0.218 2.21,0.239c2.027,0.062 4.473,-0.225 7.185,-0.844c2.712,-0.598 6.938,-1.888 11.485,-2.86c1.12,-0.236 2.329,-0.45 3.349,-0.595c1.08,-0.139 2.204,-0.246 3.335,-0.301c2.229,-0.083 4.502,0.066 5.976,0.47c0.741,0.197 1.279,0.426 1.666,0.654c0.198,0.118 0.357,0.232 0.552,0.373c0.173,0.17 0.387,0.329 0.604,0.588c0.907,0.958 2.005,2.989 2.882,5.801c1.89,5.955 3.216,12.437 3.717,18.873c0.126,1.612 0.199,3.224 0.24,4.835Z" style="fill-rule:nonzero;"/><path d="M1395.64,303.055c-0.324,-2.379 -0.987,-5.029 -1.838,-7.823c-0.862,-2.77 -1.971,-6.153 -4.267,-10.034c-1.168,-1.929 -2.638,-3.977 -4.591,-6.004c-1.905,-1.988 -4.44,-4.109 -7.31,-5.852c-2.874,-1.771 -6.127,-3.33 -9.779,-4.586c-3.633,-1.266 -7.675,-2.224 -12.008,-2.743c-4.314,-0.539 -8.96,-0.577 -13.445,-0.134c-4.498,0.432 -8.872,1.338 -12.969,2.635c-4.116,1.287 -7.966,2.964 -11.522,5.015c-1.772,1.034 -3.482,2.151 -5.081,3.407c-1.61,1.245 -2.973,2.483 -4.255,3.811c-2.565,2.629 -4.518,5.413 -6.014,8.104c-1.507,2.701 -2.56,5.312 -3.437,7.761c-1.691,4.804 -3.014,9.75 -3.663,14.862c-0.681,5.087 -0.515,10.372 0.686,15.556c1.19,5.185 3.721,10.262 7.236,14.707c0.825,1.134 1.85,2.172 2.808,3.216c0.936,1.048 2.059,2.041 3.143,3.002c2.221,1.902 4.635,3.628 7.173,5.16c5.085,3.068 10.719,5.313 16.212,6.786c5.524,1.456 10.715,2.158 15.214,2.459c4.506,0.291 8.382,0.263 11.525,0.063c3.15,-0.177 5.601,-0.478 7.31,-0.754c6.85,-1.111 11.802,-3.051 15.129,-5.005c3.338,-1.972 5.041,-4.033 5.508,-5.804c0.465,-1.774 -0.305,-3.285 -1.971,-4.423c-1.662,-1.131 -4.204,-1.871 -7.465,-2.234c-1.614,-0.17 -5.972,0.3 -12.159,0.529c-3.08,0.093 -6.613,0.1 -10.32,-0.173c-3.696,-0.284 -7.531,-0.882 -11.065,-1.913c-3.507,-1.048 -6.941,-2.628 -9.955,-4.814c-1.507,-1.086 -2.911,-2.304 -4.116,-3.67c-0.579,-0.709 -1.249,-1.387 -1.728,-2.144c-0.254,-0.374 -0.564,-0.73 -0.785,-1.117c-0.228,-0.388 -0.457,-0.775 -0.685,-1.166c-0.848,-1.587 -1.592,-3.244 -2.023,-5.043c-0.251,-0.754 -0.361,-1.563 -0.512,-2.362c7.111,-0.041 15.991,-0.315 24.815,-0.647c14.274,-0.574 28.408,-1.29 34.631,-2.248c1.242,0.453 2.576,0.599 4.035,0.246c1.562,-0.377 3.283,-1.359 4.749,-3.127c1.47,-1.753 2.668,-4.32 2.988,-7.484c0.162,-1.574 0.137,-3.642 -0.199,-6.015Zm-43.997,-1.826c-8.872,0.215 -17.604,0.654 -24.34,1.055c0.247,-0.733 0.501,-1.46 0.77,-2.162c0.778,-2.047 1.632,-3.849 2.605,-5.388c0.984,-1.536 2.06,-2.809 3.305,-3.895c0.155,-0.128 0.313,-0.276 0.461,-0.397l0.442,-0.343c0.313,-0.221 0.615,-0.456 0.973,-0.674c0.663,-0.45 1.448,-0.851 2.218,-1.242c3.187,-1.535 6.783,-2.345 9.69,-2.39c2.896,-0.09 5.792,0.505 8.261,1.501c1.223,0.498 2.321,1.083 3.231,1.681c0.218,0.152 0.431,0.305 0.645,0.45c0.192,0.156 0.383,0.308 0.571,0.46c0.398,0.342 0.778,0.685 1.124,1.048c1.389,1.432 2.417,3.068 3.209,4.589c0.785,1.536 1.349,2.92 1.736,3.905c0.383,0.996 0.585,1.525 0.585,1.525c0.011,0.032 0.026,0.063 0.037,0.09c-4.955,-0.024 -10.261,0.042 -15.523,0.187Z" style="fill-rule:nonzero;"/><path d="M1480.42,277.444c-1.253,-1.383 -3.298,-3.185 -6.842,-4.928c-1.861,-0.879 -4.057,-1.723 -6.625,-2.324c-2.561,-0.599 -5.472,-0.979 -8.622,-0.986c-2.413,0.055 -4.974,0.242 -7.539,0.768c-2.627,0.498 -4.896,1.214 -7.133,2.071c-4.399,1.74 -8.198,4.078 -11.308,6.831c-1.577,1.377 -2.981,2.864 -4.197,4.462c-1.245,1.577 -2.277,3.334 -3.098,5.094c-1.585,3.455 -2.333,7.115 -2.277,10.739c0.044,3.632 0.873,7.236 2.409,10.729c0.774,1.743 1.74,3.479 2.871,5.146c1.116,1.643 2.328,3.12 3.518,4.5c2.392,2.739 4.687,5.001 6.353,6.948c1.709,1.954 2.756,3.545 3.356,4.988c1.083,2.483 0.564,6.07 -1.157,8.989c-0.836,1.466 -1.934,2.78 -3.087,3.797c-1.157,1.027 -2.333,1.757 -3.342,2.234c-3.792,1.958 -8.548,1.021 -10.486,0.678c-2.539,-0.349 -4.93,-0.681 -7.399,-1.023c-1.301,-0.153 -2.513,-0.339 -3.847,-0.426c-1.234,-0.128 -2.494,-0.19 -3.717,-0.162c-2.447,0.055 -4.728,0.487 -6.356,1.639c-0.815,0.574 -1.467,1.328 -1.887,2.279c-0.409,0.944 -0.457,2.051 -0.217,3.352c0.35,1.113 2.152,4.126 7.303,7.315c1.249,0.819 2.789,1.556 4.458,2.334c0.873,0.353 1.783,0.706 2.738,1.062c0.954,0.346 2.004,0.626 3.065,0.937c4.3,1.155 9.573,1.878 15.413,1.56c5.803,-0.259 12.162,-1.819 17.453,-4.334c5.291,-2.504 9.643,-5.772 12.9,-9.431c3.272,-3.67 5.63,-7.737 6.923,-12.123c1.231,-4.385 1.352,-9.158 -0.324,-13.997c-1.666,-4.631 -4.731,-8.536 -7.465,-11.607c-2.775,-3.095 -5.225,-5.53 -6.776,-7.585c-0.799,-1.044 -1.36,-1.905 -1.85,-2.867c-0.486,-0.947 -0.862,-1.916 -1.127,-2.867c-0.512,-1.913 -0.567,-3.746 -0.273,-5.337c0.159,-0.792 0.391,-1.532 0.678,-2.213c0.284,-0.592 0.616,-1.173 1.01,-1.709c0.818,-1.058 1.798,-1.95 2.649,-2.479c0.84,-0.547 1.496,-0.799 1.765,-0.886c0.114,-0.045 0.096,-0.041 0.147,-0.079c0.044,0.003 0.074,-0.011 0.074,-0.011c0.059,-0.01 0.217,-0.277 0.752,-0.574c0.67,-0.242 1.783,-0.439 3.113,-0.505c2.675,-0.173 6.275,0.273 9.591,0.771c3.29,0.46 6.636,0.824 8.946,-0.608c1.161,-0.716 2.049,-1.899 2.2,-3.632c0.147,-1.719 -0.457,-4.019 -2.734,-6.53Z" style="fill-rule:nonzero;"/><path d="M1366.24,646.711c0.368,5.502 0.383,9.079 0.873,12.579c2.918,20.406 24.502,34.572 46.197,26.603c6.157,-2.279 12.203,-4.9 18.069,-7.754c2.424,-1.183 4.897,-3.026 6.278,-5.202c5.881,-9.296 9.381,-19.586 8.979,-30.349c-0.383,-9.857 -4.344,-18.95 -10.084,-27.455c-9.182,-13.557 -21.768,-19.05 -38.551,-15.937c-2.779,0.505 -5.557,1.152 -8.18,2.103c-10.35,3.804 -17.841,10.348 -19.959,20.897c-1.765,8.705 -2.627,17.566 -3.622,24.515Zm-36.603,-9.11c0,-5.749 -0.228,-9.325 0.078,-12.884c0.214,-2.621 0.475,-5.561 1.842,-7.737c13.482,-21.329 29.878,-39.213 58.522,-41.967c3.795,-0.359 7.601,-0.605 11.315,-1.279c17.671,-3.231 31.444,3.659 43.54,14.727c21.065,19.268 29.447,43.073 27.863,70.251c-0.365,6.284 -2.042,12.351 -6.691,17.266c-5.682,5.979 -11.209,12.091 -17.134,17.839c-21.064,20.437 -47.176,21.316 -74.015,14.889c-11.849,-2.839 -22.475,-9.615 -28.4,-20.796c-0.844,-1.598 -1.397,-3.4 -2.55,-4.77c-11.79,-14.066 -15.718,-30.204 -14.37,-45.539Z" style="fill:#231f20;fill-rule:nonzero;"/><path d="M646.925,739.156c18.452,0.26 29.981,-7.394 37.781,-18.967c6.555,-9.739 8.795,-20.821 6.54,-33.085c-2.719,-14.8 -11.267,-25.971 -20.832,-36.921c-3.073,-3.517 -8.029,-4.583 -12.822,-4.755c-15.137,-0.519 -28.769,4.855 -37.564,15.463c-16.013,19.323 -19.654,39.342 -3.84,61.173c8.121,11.226 19.882,15.636 30.737,17.092Zm7.03,-113.702c1.687,0.214 9.351,0.488 16.61,2.234c13.371,3.199 23.798,10.086 30.077,22.322c8.795,17.176 15.014,34.573 10.302,53.896c-1.047,4.282 -1.798,8.792 -3.795,12.696c-4.05,7.997 -8.718,15.737 -13.401,23.446c-10.637,17.612 -27.498,23.547 -47.976,21.357c-22.583,-2.434 -41.514,-11.614 -55.928,-28.461c-16.15,-18.877 -21.002,-39.341 -10.055,-62.068c1.164,-2.435 2.933,-4.669 3.776,-7.163c9.042,-27.136 32.133,-35.132 58.831,-38.231c1.872,-0.201 3.792,-0.028 11.559,-0.028Z" style="fill:#231f20;fill-rule:nonzero;"/><path d="M255.011,314.967l0.007,-0c0.059,-1.273 0.244,-2.556 0.151,-3.825c-0.213,-2.909 -0.847,-5.752 -1.886,-8.519c-2.056,-5.451 -5.21,-10.327 -9.252,-14.73c-0.73,-0.796 -1.559,-1.539 -2.443,-2.19c-1.687,-1.234 -3.434,-2.4 -5.184,-3.559c-0.505,-0.338 -1.076,-0.619 -1.662,-0.847c-2.77,-1.069 -9.115,-1.383 -12.026,-0.598c-1.345,0.366 -2.668,0.833 -3.758,1.653c-1.076,0.809 -2.082,1.705 -3.029,2.639c-0.416,0.408 -0.652,0.989 -0.881,1.525c-1.337,3.144 -1.263,6.368 -0.541,9.608c1.02,4.579 2.866,8.913 5,13.129c3.051,6.029 6.812,11.694 10.806,17.224c2.451,3.393 5.067,6.682 7.661,9.985c3.784,4.811 7.439,9.712 11.536,14.315c4.178,4.687 8.401,9.335 13.253,13.465c0.461,0.394 0.955,0.764 1.474,1.082c0.166,0.101 0.505,0.069 0.715,-0.017c0.217,-0.083 0.409,-0.273 0.541,-0.467c3.353,-4.807 7.134,-9.331 10.951,-13.831c0.7,-0.83 1.352,-1.691 1.964,-2.577c2.45,-3.527 4.893,-7.062 7.303,-10.614c0.799,-1.183 1.569,-2.393 2.24,-3.645c2.627,-4.898 5.272,-9.799 7.785,-14.741c2.465,-4.853 4.635,-9.809 6.157,-14.993c1.467,-4.988 2.17,-9.996 1.537,-15.17c-0.306,-2.469 -0.815,-4.8 -2.285,-6.92c-0.405,-0.588 -0.678,-1.246 -1.032,-1.868c-1.709,-3.006 -4.469,-4.721 -8.076,-5.191c-4.241,-0.557 -8.113,0.619 -11.514,2.815c-4.985,3.216 -8.677,7.484 -11.058,12.634c-1.68,3.639 -3.235,7.329 -4.414,11.137c-0.486,1.563 -0.913,3.14 -1.359,4.714c-0.295,1.027 -0.262,2.037 -0.037,3.095c0.339,1.588 0.46,3.22 0.659,4.832c0.085,0.713 -0.088,1.397 -0.442,2.023c-0.877,1.564 -2.041,2.947 -3.397,4.182c-0.685,0.622 -2.034,0.802 -2.844,0.36c-0.756,-0.415 -1.47,-0.9 -2.163,-1.405c-0.402,-0.297 -0.623,-0.743 -0.612,-1.231c0.033,-1.158 0.096,-2.314 0.155,-3.479Zm57.121,-23.993c-0.022,3.39 -0.659,6.679 -1.518,9.982c-1.477,5.693 -3.85,11.068 -6.333,16.418c-0.247,0.536 -0.501,1.069 -0.804,1.581c-2.1,3.583 -4.237,7.149 -6.315,10.749c-1.127,1.951 -2.258,3.905 -3.224,5.925c-1.942,4.057 -4.267,7.927 -6.684,11.752c-3.249,5.133 -6.285,10.365 -9.163,15.678c-1.19,2.182 -2.428,4.337 -4.038,6.312c-1.515,1.857 -2.852,3.825 -3.7,6.066c-0.401,1.066 -1.249,2.01 -1.989,2.944c-0.73,0.923 -2.159,0.833 -2.937,-0.118c-0.376,-0.467 -0.726,-0.958 -1.046,-1.453c-1.294,-2.006 -2.565,-4.015 -4.381,-5.689c-0.35,-0.329 -0.634,-0.73 -0.888,-1.128c-0.837,-1.331 -2.019,-2.379 -3.173,-3.469c-1.33,-1.241 -2.605,-2.542 -3.916,-3.801c-0.966,-0.923 -1.953,-1.826 -2.937,-2.735c-0.807,-0.744 -1.684,-1.429 -2.417,-2.228c-3.67,-4.005 -7.325,-8.02 -10.943,-12.074c-1.522,-1.712 -2.9,-3.531 -4.392,-5.267c-0.939,-1.097 -1.901,-2.186 -2.959,-3.193c-2.641,-2.521 -5.055,-5.215 -7.273,-8.062c-1.028,-1.328 -2.137,-2.6 -3.231,-3.884c-2.506,-2.946 -4.72,-6.059 -6.408,-9.462c-0.574,-1.159 -1.028,-2.38 -1.411,-3.604c-0.486,-1.557 -0.788,-3.172 -1.275,-4.732c-1.157,-3.704 -1.529,-7.539 -2.332,-11.299c-0.166,-0.789 -0.133,-1.622 -0.103,-2.431c0.033,-1.045 0.221,-2.089 0.236,-3.13c0.029,-2.297 0.858,-4.313 2.302,-6.167c1.92,-2.456 3.762,-4.967 5.734,-7.391c1.897,-2.331 4.414,-3.784 7.612,-4.24c3.165,-0.45 3.165,-0.516 6.418,-0.011c3.523,0.547 6.92,1.508 10.21,2.791c1.78,0.695 3.294,1.671 4.506,3.106c2.02,2.39 4.149,4.693 6.275,7.004c2.8,3.043 4.783,6.575 7.145,9.881c0.416,0.581 0.711,1.238 1.171,1.792c0.505,0.622 0.678,1.559 1.754,1.694c0.759,-0.522 0.984,-1.324 1.238,-2.085c0.814,-2.449 1.901,-4.808 2.881,-7.198c3.073,-7.515 8.269,-13.54 15.236,-18.348c2.259,-1.559 4.79,-2.635 7.439,-3.475c1.444,-0.46 2.959,-0.675 4.51,-0.592c1.267,0.066 2.542,0.062 3.81,0.138c2.734,0.173 5.217,1.007 7.384,2.546c3.05,2.172 5.666,4.676 7.063,8.062c0.63,1.522 1.289,3.033 1.853,4.576c0.77,2.113 1.12,4.288 1.017,6.526c-0.026,0.578 -0.004,1.162 -0.004,1.743Z" style="fill:#231f20;fill-rule:nonzero;stroke:#000;stroke-width:3.72px;"/><path d="M1698.63,269.016c-0.029,-0.049 -0.059,-0.097 -0.088,-0.149l-0.074,-0.114l-0.044,-0.073c-0.656,-1.055 -1.673,-1.581 -2.27,-1.179c-0.055,0.038 -0.11,0.069 -0.169,0.103c-0.174,0.108 -0.373,0.225 -0.56,0.412c-0.535,0.526 -1.062,1.055 -1.589,1.588c-0.519,0.518 -1.035,1.041 -1.558,1.556c-0.405,0.401 -0.818,0.792 -1.231,1.186c-0.523,0.502 -1.065,1.017 -1.588,1.543c-0.667,0.667 -1.323,1.345 -1.982,2.023c-0.781,0.806 -1.592,1.639 -2.395,2.438c-0.663,0.661 -1.356,1.315 -2.023,1.944c-0.611,0.578 -1.241,1.176 -1.853,1.778c-0.833,0.82 -1.666,1.667 -2.469,2.487c-0.49,0.498 -0.98,0.996 -1.47,1.49c-1.12,1.128 -2.115,2.12 -3.043,3.033c-0.465,0.454 -0.933,0.907 -1.397,1.356c-0.508,0.488 -1.013,0.979 -1.518,1.474c-0.339,0.335 -0.674,0.678 -1.006,1.023c-0.306,0.315 -0.611,0.626 -0.921,0.934c-0.508,0.509 -1.024,1.007 -1.54,1.508c-0.453,0.443 -0.91,0.889 -1.36,1.335c-0.534,0.526 -1.064,1.062 -1.591,1.595l-0.487,0.491c-0.305,0.308 -0.608,0.615 -0.91,0.927c-0.582,0.588 -1.164,1.179 -1.75,1.764c-0.449,0.446 -0.906,0.885 -1.359,1.321c-0.144,0.138 -0.284,0.276 -0.428,0.411l-4.609,-15.142l-1.54,-5.059c-0.078,-0.246 -0.181,-0.492 -0.314,-0.723c-0.243,-0.436 -0.574,-0.827 -0.939,-1.093c-0.56,-0.412 -1.12,-0.484 -1.474,-0.19c-0.044,0.034 -0.077,0.058 -0.103,0.079c-0.085,0.066 -0.192,0.142 -0.295,0.284l-0.534,0.74c-0.534,0.733 -1.083,1.49 -1.614,2.255c-0.737,1.058 -1.466,2.13 -2.196,3.199c-0.398,0.585 -0.796,1.169 -1.197,1.757c-0.542,0.792 -1.087,1.584 -1.633,2.373c-0.884,1.29 -1.768,2.58 -2.653,3.873c-0.442,0.647 -0.876,1.297 -1.315,1.951c-0.494,0.74 -0.991,1.48 -1.492,2.213c-0.542,0.786 -1.087,1.567 -1.632,2.349c-0.513,0.733 -1.028,1.466 -1.533,2.206c-0.597,0.865 -1.183,1.733 -1.772,2.605c-0.369,0.546 -0.737,1.093 -1.106,1.636c-0.398,0.584 -0.796,1.169 -1.194,1.75c-0.453,0.664 -0.906,1.324 -1.359,1.992c-0.177,0.259 -0.35,0.522 -0.523,0.789c-0.203,0.311 -0.409,0.626 -0.619,0.93c-0.354,0.512 -0.712,1.017 -1.073,1.522c-0.261,0.37 -0.523,0.74 -0.781,1.113c-0.011,-0.038 -0.022,-0.072 -0.029,-0.11c-0.207,-0.751 -0.413,-1.501 -0.619,-2.252c-0.269,-0.992 -0.546,-1.985 -0.818,-2.978c-0.494,-1.781 -0.984,-3.566 -1.467,-5.347c-0.501,-1.854 -0.994,-3.707 -1.488,-5.561c-0.354,-1.325 -0.704,-2.653 -1.061,-3.978c-0.092,-0.345 -0.207,-0.626 -0.321,-0.902c-0.04,-0.101 -0.088,-0.222 -0.147,-0.367c-0.063,-0.169 -0.14,-0.332 -0.229,-0.488c-0.317,-0.563 -0.77,-1.034 -1.241,-1.283c-0.605,-0.314 -1.143,-0.207 -1.393,0.273c-0.111,0.218 -0.214,0.419 -0.313,0.609c-0.218,0.412 -0.409,0.782 -0.59,1.159c-0.28,0.584 -0.556,1.172 -0.833,1.76c-0.335,0.713 -0.667,1.422 -1.005,2.124c-0.505,1.041 -1.014,2.072 -1.519,3.106c-0.475,0.968 -0.95,1.933 -1.425,2.905c-0.358,0.74 -0.712,1.484 -1.065,2.231c-0.409,0.857 -0.818,1.719 -1.235,2.573c-0.608,1.238 -1.215,2.469 -1.827,3.704c-0.523,1.055 -1.047,2.106 -1.566,3.165c-0.918,1.871 -1.824,3.749 -2.59,5.343c-0.398,0.827 -0.792,1.657 -1.19,2.487c-0.538,1.135 -1.076,2.266 -1.622,3.39c-0.604,1.245 -1.215,2.479 -1.823,3.718c-0.395,0.792 -0.785,1.584 -1.172,2.376c-0.693,1.414 -1.411,2.877 -2.119,4.361c-0.258,0.536 -0.505,1.083 -0.751,1.632c-0.177,0.388 -0.354,0.779 -0.535,1.166c-0.39,0.84 -0.751,1.594 -1.105,2.31c-0.38,0.779 -0.763,1.557 -1.15,2.331c-0.571,1.163 -1.145,2.325 -1.713,3.494c-0.313,0.64 -0.615,1.29 -0.917,1.94c-0.302,0.65 -0.608,1.304 -0.921,1.944c-0.586,1.21 -1.18,2.41 -1.769,3.614c-0.601,1.214 -1.198,2.428 -1.791,3.645c-0.405,0.837 -0.803,1.681 -1.205,2.525c-0.331,0.702 -0.663,1.408 -0.998,2.106c-0.203,0.415 -0.409,0.824 -0.619,1.232c-0.188,0.363 -0.376,0.726 -0.556,1.096c-0.395,0.802 -0.782,1.612 -1.172,2.421l-0.498,1.041c-0.232,0.484 -0.147,1.249 0.225,1.985c0.026,0.052 0.055,0.104 0.081,0.156c0.376,0.664 0.929,1.186 1.47,1.38c0.656,0.239 1.198,0.131 1.529,-0.294c0.428,-0.553 0.852,-1.114 1.272,-1.67c0.221,-0.298 0.445,-0.592 0.67,-0.886c0.269,-0.353 0.538,-0.705 0.807,-1.058c0.391,-0.509 0.781,-1.017 1.168,-1.529c0.21,-0.28 0.416,-0.567 0.623,-0.851c0.254,-0.346 0.505,-0.691 0.763,-1.027c0.39,-0.505 0.784,-1.006 1.179,-1.504c0.412,-0.526 0.829,-1.052 1.238,-1.585c0.291,-0.38 0.578,-0.771 0.862,-1.162c0.261,-0.356 0.523,-0.716 0.792,-1.068c0.416,-0.543 0.84,-1.083 1.26,-1.622c0.405,-0.516 0.807,-1.031 1.205,-1.553c0.273,-0.357 0.542,-0.716 0.81,-1.083c0.262,-0.356 0.524,-0.712 0.793,-1.062c0.372,-0.487 0.751,-0.972 1.131,-1.456c0.427,-0.543 0.855,-1.089 1.275,-1.639c0.269,-0.349 0.527,-0.709 0.784,-1.069c0.255,-0.356 0.513,-0.712 0.774,-1.058c0.439,-0.574 0.885,-1.138 1.33,-1.705c0.391,-0.498 0.785,-0.996 1.172,-1.498c0.287,-0.373 0.567,-0.754 0.847,-1.134c0.262,-0.353 0.524,-0.702 0.789,-1.048c0.379,-0.498 0.766,-0.993 1.15,-1.484c0.431,-0.55 0.858,-1.1 1.285,-1.657c0.269,-0.352 0.535,-0.716 0.796,-1.079c0.255,-0.349 0.509,-0.698 0.767,-1.037c0.471,-0.619 0.95,-1.232 1.426,-1.84c0.357,-0.457 0.711,-0.913 1.064,-1.373c0.255,-0.332 0.509,-0.668 0.759,-1.003c0.277,-0.364 0.549,-0.727 0.826,-1.086c0.357,-0.46 0.715,-0.913 1.072,-1.367c0.438,-0.56 0.881,-1.12 1.319,-1.687c0.335,-0.436 0.667,-0.879 0.999,-1.322c0.059,0.16 0.121,0.319 0.18,0.478c0.494,1.304 0.988,2.604 1.478,3.908c0.261,0.702 0.515,1.404 0.77,2.106c0.258,0.702 0.512,1.404 0.773,2.107c0.494,1.317 0.992,2.635 1.493,3.953c0.294,0.788 0.593,1.573 0.891,2.359c0.317,0.85 0.634,1.698 0.966,2.583l0.475,1.266c0.066,0.18 0.151,0.356 0.243,0.522c0.262,0.464 0.612,0.868 0.999,1.135c0.527,0.366 1.046,0.429 1.389,0.169c0.044,-0.031 0.085,-0.059 0.125,-0.083c0.129,-0.086 0.295,-0.194 0.442,-0.394c0.347,-0.471 0.686,-0.948 1.028,-1.429c0.229,-0.318 0.457,-0.636 0.686,-0.954c0.416,-0.578 0.836,-1.155 1.256,-1.733c0.711,-0.975 1.422,-1.954 2.13,-2.94c0.593,-0.833 1.182,-1.674 1.768,-2.518c0.409,-0.577 0.814,-1.158 1.223,-1.736c0.502,-0.709 1.006,-1.418 1.507,-2.123c0.398,-0.554 0.793,-1.111 1.187,-1.667c0.306,-0.433 0.611,-0.865 0.917,-1.301c0.439,-0.622 0.877,-1.245 1.316,-1.861c0.35,-0.484 0.7,-0.965 1.05,-1.445c0.39,-0.53 0.777,-1.059 1.157,-1.595c0.239,-0.335 0.468,-0.674 0.7,-1.017c0.228,-0.339 0.457,-0.678 0.692,-1.01c0.38,-0.529 0.767,-1.054 1.15,-1.577c0.365,-0.498 0.733,-0.992 1.091,-1.497c0.247,-0.339 0.482,-0.689 0.722,-1.038c0.225,-0.328 0.449,-0.66 0.678,-0.979c0.77,-1.079 1.547,-2.147 2.325,-3.216l1.573,5.869l2.756,10.272c0.077,0.28 0.195,0.564 0.343,0.827c0.202,0.363 0.464,0.692 0.759,0.947c0.512,0.447 1.054,0.616 1.455,0.454c0.033,-0.014 0.063,-0.021 0.081,-0.028c0.114,-0.035 0.35,-0.111 0.523,-0.387c0.314,-0.499 0.63,-1.003 0.944,-1.505c0.527,-0.847 1.057,-1.695 1.595,-2.535c0.52,-0.809 1.043,-1.615 1.57,-2.421c0.681,-1.045 1.385,-2.124 2.067,-3.203c0.457,-0.726 0.91,-1.473 1.345,-2.2c0.449,-0.75 0.917,-1.525 1.389,-2.265c0.663,-1.044 1.356,-2.092 2.026,-3.106c0.461,-0.698 0.921,-1.397 1.382,-2.099c0.987,-1.525 2.008,-3.116 3.032,-4.732c0.553,-0.875 1.106,-1.757 1.655,-2.635c0.556,-0.892 1.116,-1.788 1.68,-2.674c0.353,-0.563 0.715,-1.117 1.076,-1.67c0.394,-0.605 0.792,-1.214 1.179,-1.83c0.306,-0.48 0.597,-0.972 0.891,-1.463c0.306,-0.508 0.612,-1.02 0.929,-1.518c0.475,-0.747 0.958,-1.487 1.444,-2.227c0.406,-0.626 0.814,-1.252 1.22,-1.882c0.35,-0.546 0.692,-1.096 1.035,-1.65c0.306,-0.498 0.612,-0.992 0.925,-1.48c0.431,-0.678 0.866,-1.349 1.301,-2.023c0.442,-0.685 0.884,-1.37 1.322,-2.061c0.299,-0.467 0.59,-0.938 0.881,-1.412c0.346,-0.556 0.689,-1.117 1.043,-1.663c0.401,-0.623 0.807,-1.235 1.216,-1.851c0.475,-0.715 0.95,-1.435 1.414,-2.161c0.362,-0.56 0.708,-1.142 1.043,-1.698c0.313,-0.519 0.623,-1.038 0.943,-1.543c0.645,-1.017 1.316,-2.044 1.964,-3.033l0.726,-1.117c0.166,-0.256 0.335,-0.509 0.501,-0.761c0.28,-0.426 0.56,-0.848 0.833,-1.28c0.391,-0.615 0.777,-1.235 1.164,-1.857l0.49,-0.789c0.317,-0.508 0.21,-1.411 -0.254,-2.237Zm-1.172,0.581c-0.549,0.878 -1.09,1.764 -1.647,2.635c-0.434,0.688 -0.888,1.356 -1.33,2.034c-0.899,1.387 -1.805,2.76 -2.693,4.16c-0.674,1.062 -1.308,2.176 -1.982,3.238c-0.866,1.349 -1.765,2.659 -2.631,4.008c-0.656,1.014 -1.279,2.062 -1.927,3.078c-0.87,1.37 -1.754,2.719 -2.624,4.085c-0.659,1.034 -1.297,2.096 -1.96,3.13c-0.88,1.377 -1.787,2.729 -2.664,4.112c-0.622,0.979 -1.205,2.003 -1.824,2.985c-0.74,1.176 -1.51,2.321 -2.254,3.497c-1.117,1.76 -2.215,3.545 -3.331,5.309c-1.002,1.58 -2.012,3.154 -3.029,4.721c-1.135,1.743 -2.295,3.455 -3.412,5.212c-0.932,1.466 -1.805,3.002 -2.737,4.469c-1.194,1.891 -2.429,3.738 -3.633,5.62c-0.855,1.338 -1.695,2.698 -2.543,4.046c-0.022,0.038 -0.081,0.035 -0.228,0.097c-1.817,-6.768 -3.611,-13.457 -5.405,-20.146c-0.063,-0.056 -0.126,-0.114 -0.185,-0.173c-0.283,0.373 -0.571,0.743 -0.847,1.124c-1.043,1.435 -2.082,2.871 -3.117,4.313c-0.476,0.664 -0.925,1.356 -1.4,2.02c-0.741,1.03 -1.5,2.04 -2.241,3.071c-0.475,0.664 -0.921,1.366 -1.392,2.03c-0.73,1.02 -1.478,2.02 -2.207,3.04c-0.752,1.048 -1.489,2.113 -2.237,3.165c-0.899,1.266 -1.802,2.521 -2.697,3.787c-0.998,1.415 -1.982,2.846 -2.988,4.251c-1.12,1.566 -2.255,3.112 -3.383,4.672c-0.571,0.789 -1.134,1.591 -1.709,2.376c-0.089,0.121 -0.229,0.184 -0.402,0.312c-0.512,-1.367 -0.976,-2.612 -1.444,-3.857c-0.792,-2.103 -1.592,-4.202 -2.38,-6.305c-0.524,-1.404 -1.017,-2.808 -1.544,-4.212c-0.778,-2.079 -1.573,-4.158 -2.358,-6.236c-0.129,-0.339 -0.243,-0.678 -0.361,-1.017c-0.045,-0.121 -0.085,-0.221 -0.133,-0.304c-0.129,-0.229 -0.269,-0.274 -0.427,-0.059c-0.719,0.961 -1.434,1.926 -2.163,2.874c-0.789,1.027 -1.596,2.03 -2.388,3.054c-0.534,0.688 -1.054,1.397 -1.584,2.089c-0.829,1.075 -1.669,2.137 -2.495,3.216c-0.53,0.696 -1.031,1.425 -1.562,2.12c-0.807,1.052 -1.628,2.083 -2.435,3.134c-0.553,0.719 -1.084,1.466 -1.636,2.182c-0.829,1.076 -1.677,2.127 -2.502,3.207c-0.531,0.695 -1.028,1.431 -1.559,2.127c-0.796,1.041 -1.61,2.054 -2.406,3.092c-0.541,0.705 -1.061,1.442 -1.602,2.147c-0.815,1.066 -1.651,2.11 -2.465,3.175c-0.56,0.734 -1.091,1.501 -1.655,2.231c-0.796,1.038 -1.617,2.048 -2.417,3.085c-0.471,0.616 -0.921,1.263 -1.389,1.885c-0.656,0.868 -1.319,1.723 -1.975,2.584c-0.645,0.851 -1.282,1.708 -1.934,2.552c-0.089,0.111 -0.236,0.149 -0.457,0.069c0.553,-1.155 1.102,-2.31 1.665,-3.455c0.384,-0.788 0.796,-1.542 1.176,-2.334c0.74,-1.536 1.459,-3.096 2.203,-4.628c1.179,-2.428 2.38,-4.832 3.563,-7.26c0.623,-1.279 1.212,-2.6 1.835,-3.887c0.947,-1.947 1.912,-3.877 2.863,-5.817c0.376,-0.772 0.748,-1.55 1.113,-2.332c0.431,-0.926 0.843,-1.871 1.282,-2.791c0.696,-1.456 1.404,-2.901 2.111,-4.347c0.999,-2.034 2.008,-4.057 2.999,-6.098c0.947,-1.95 1.872,-3.922 2.812,-5.879c0.858,-1.785 1.717,-3.566 2.586,-5.337c1.128,-2.293 2.273,-4.572 3.397,-6.872c0.778,-1.591 1.526,-3.21 2.303,-4.804c0.973,-2.01 1.964,-4.002 2.94,-6.011c0.623,-1.287 1.22,-2.598 1.839,-3.888c0.265,-0.55 0.549,-1.072 0.895,-1.743c0.181,0.474 0.295,0.706 0.354,0.93c0.855,3.182 1.691,6.361 2.553,9.543c0.748,2.777 1.526,5.558 2.288,8.335c0.564,2.058 1.121,4.112 1.688,6.17c0.015,0.049 0.037,0.097 0.066,0.149c0.052,0.09 0.122,0.194 0.196,0.325c0.482,-0.716 0.935,-1.397 1.396,-2.061c0.682,-0.983 1.378,-1.944 2.06,-2.926c0.39,-0.564 0.759,-1.156 1.146,-1.726c0.847,-1.252 1.706,-2.494 2.553,-3.742c0.958,-1.412 1.909,-2.833 2.874,-4.237c1.05,-1.525 2.119,-3.027 3.165,-4.555c0.947,-1.38 1.868,-2.784 2.811,-4.168c1.422,-2.085 2.856,-4.161 4.285,-6.243c1.128,-1.649 2.252,-3.313 3.39,-4.952c0.7,-1.007 1.422,-1.989 2.137,-2.978c0.044,-0.063 0.114,-0.097 0.254,-0.215c2.421,7.948 4.805,15.789 7.259,23.841c0.431,-0.443 0.774,-0.799 1.124,-1.145c0.777,-0.758 1.562,-1.501 2.336,-2.269c0.895,-0.889 1.776,-1.795 2.664,-2.694c0.689,-0.696 1.374,-1.394 2.07,-2.079c0.966,-0.955 1.942,-1.888 2.904,-2.843c0.648,-0.643 1.275,-1.318 1.927,-1.958c0.961,-0.951 1.945,-1.881 2.911,-2.829c1.02,-1.006 2.037,-2.02 3.05,-3.036c1.312,-1.322 2.605,-2.667 3.932,-3.974c1.278,-1.259 2.605,-2.456 3.88,-3.722c1.473,-1.466 2.91,-2.992 4.381,-4.465c0.921,-0.93 1.882,-1.809 2.811,-2.725c1.057,-1.041 2.093,-2.103 3.146,-3.144c0.181,-0.177 0.413,-0.284 0.623,-0.426c0.037,0.063 0.078,0.125 0.114,0.191Z" style="fill:#231f20;fill-rule:nonzero;stroke:#000;stroke-width:9.68px;"/><path d="M1626.62,205.176c-0.037,-0.045 -0.078,-0.086 -0.118,-0.128l-0.092,-0.1l-0.063,-0.062c-0.869,-0.91 -1.975,-1.231 -2.472,-0.726c-0.048,0.045 -0.096,0.089 -0.144,0.134c-0.151,0.139 -0.317,0.291 -0.464,0.509c-0.409,0.615 -0.811,1.235 -1.212,1.854c-0.398,0.608 -0.793,1.217 -1.194,1.819c-0.313,0.47 -0.63,0.934 -0.951,1.397c-0.405,0.588 -0.821,1.197 -1.223,1.812c-0.505,0.782 -1.006,1.571 -1.503,2.359c-0.594,0.938 -1.209,1.906 -1.824,2.84c-0.509,0.771 -1.043,1.542 -1.562,2.289c-0.476,0.678 -0.962,1.384 -1.434,2.093c-0.637,0.958 -1.271,1.947 -1.883,2.902c-0.372,0.581 -0.744,1.162 -1.12,1.739c-0.854,1.315 -1.617,2.477 -2.328,3.545c-0.358,0.533 -0.715,1.062 -1.076,1.591c-0.391,0.578 -0.781,1.152 -1.168,1.733c-0.262,0.391 -0.516,0.792 -0.767,1.193c-0.232,0.367 -0.464,0.73 -0.7,1.09c-0.39,0.591 -0.788,1.179 -1.182,1.767c-0.35,0.522 -0.7,1.041 -1.05,1.567c-0.409,0.616 -0.811,1.238 -1.213,1.864l-0.372,0.571c-0.232,0.36 -0.46,0.719 -0.693,1.079c-0.442,0.688 -0.884,1.376 -1.333,2.061c-0.347,0.523 -0.697,1.038 -1.047,1.553c-0.11,0.159 -0.221,0.322 -0.331,0.484l-7.771,-13.959l-2.594,-4.662c-0.129,-0.228 -0.287,-0.449 -0.464,-0.65c-0.336,-0.381 -0.741,-0.699 -1.157,-0.892c-0.634,-0.298 -1.198,-0.263 -1.485,0.093c-0.033,0.042 -0.059,0.073 -0.085,0.097c-0.066,0.079 -0.155,0.176 -0.225,0.332l-0.364,0.83c-0.365,0.816 -0.741,1.664 -1.095,2.511c-0.493,1.179 -0.976,2.366 -1.462,3.552c-0.266,0.647 -0.531,1.297 -0.796,1.944c-0.361,0.878 -0.722,1.76 -1.087,2.635c-0.59,1.432 -1.179,2.86 -1.765,4.296c-0.295,0.716 -0.582,1.439 -0.87,2.161c-0.328,0.82 -0.652,1.636 -0.987,2.449c-0.361,0.875 -0.726,1.743 -1.094,2.611c-0.343,0.817 -0.689,1.629 -1.028,2.452c-0.395,0.959 -0.785,1.923 -1.172,2.888c-0.243,0.602 -0.486,1.207 -0.733,1.809c-0.262,0.647 -0.527,1.294 -0.792,1.941c-0.303,0.736 -0.605,1.469 -0.903,2.21c-0.118,0.287 -0.229,0.577 -0.343,0.868c-0.132,0.346 -0.265,0.691 -0.405,1.03c-0.236,0.568 -0.479,1.131 -0.722,1.695c-0.177,0.412 -0.354,0.823 -0.531,1.238c-0.015,-0.034 -0.033,-0.069 -0.051,-0.1c-0.362,-0.699 -0.726,-1.394 -1.087,-2.092c-0.479,-0.92 -0.962,-1.84 -1.445,-2.757c-0.866,-1.657 -1.728,-3.31 -2.583,-4.963c-0.891,-1.722 -1.772,-3.445 -2.656,-5.164c-0.63,-1.231 -1.26,-2.462 -1.894,-3.694c-0.166,-0.321 -0.339,-0.577 -0.508,-0.823c-0.063,-0.093 -0.137,-0.2 -0.222,-0.332c-0.099,-0.152 -0.213,-0.297 -0.331,-0.436c-0.431,-0.491 -0.973,-0.868 -1.492,-1.02c-0.66,-0.194 -1.165,0.011 -1.301,0.533c-0.063,0.231 -0.125,0.449 -0.181,0.653c-0.121,0.443 -0.232,0.844 -0.328,1.249c-0.147,0.626 -0.291,1.255 -0.434,1.881c-0.177,0.761 -0.35,1.519 -0.531,2.273c-0.269,1.11 -0.545,2.217 -0.818,3.327c-0.258,1.038 -0.516,2.075 -0.77,3.116c-0.192,0.792 -0.379,1.588 -0.564,2.387c-0.217,0.92 -0.431,1.84 -0.655,2.753c-0.328,1.328 -0.664,2.649 -0.995,3.974c-0.288,1.134 -0.571,2.265 -0.851,3.399c-0.498,2.003 -0.981,4.016 -1.39,5.721c-0.213,0.885 -0.42,1.774 -0.63,2.663c-0.283,1.211 -0.567,2.421 -0.862,3.628c-0.324,1.332 -0.656,2.657 -0.987,3.985c-0.21,0.85 -0.424,1.698 -0.634,2.549c-0.376,1.518 -0.763,3.085 -1.138,4.672c-0.133,0.574 -0.262,1.159 -0.387,1.74c-0.089,0.415 -0.177,0.83 -0.269,1.245c-0.203,0.896 -0.395,1.705 -0.586,2.473c-0.207,0.833 -0.413,1.667 -0.623,2.5c-0.313,1.249 -0.626,2.494 -0.928,3.746c-0.17,0.685 -0.325,1.38 -0.483,2.075c-0.155,0.696 -0.313,1.391 -0.483,2.079c-0.313,1.294 -0.633,2.584 -0.958,3.874c-0.324,1.3 -0.648,2.604 -0.969,3.911c-0.217,0.896 -0.423,1.795 -0.633,2.698c-0.174,0.754 -0.347,1.505 -0.527,2.255c-0.107,0.446 -0.225,0.882 -0.343,1.321c-0.107,0.391 -0.21,0.782 -0.31,1.18c-0.21,0.861 -0.416,1.726 -0.622,2.594l-0.266,1.113c-0.125,0.519 0.122,1.249 0.645,1.899c0.037,0.049 0.078,0.097 0.115,0.138c0.512,0.581 1.164,0.99 1.735,1.076c0.693,0.107 1.201,-0.1 1.433,-0.581c0.302,-0.623 0.593,-1.249 0.888,-1.875c0.155,-0.332 0.31,-0.664 0.464,-0.996c0.188,-0.394 0.376,-0.792 0.564,-1.186c0.277,-0.574 0.549,-1.145 0.814,-1.719c0.148,-0.315 0.292,-0.633 0.432,-0.954c0.169,-0.384 0.342,-0.772 0.523,-1.149c0.272,-0.57 0.552,-1.134 0.832,-1.698c0.292,-0.591 0.586,-1.186 0.87,-1.785c0.206,-0.425 0.402,-0.864 0.597,-1.3c0.18,-0.401 0.357,-0.802 0.545,-1.197c0.291,-0.612 0.59,-1.221 0.885,-1.829c0.287,-0.581 0.571,-1.162 0.847,-1.747c0.192,-0.401 0.376,-0.806 0.56,-1.214c0.181,-0.401 0.361,-0.799 0.549,-1.193c0.262,-0.55 0.527,-1.093 0.796,-1.636c0.298,-0.616 0.6,-1.231 0.895,-1.85c0.188,-0.395 0.361,-0.796 0.538,-1.197c0.173,-0.398 0.347,-0.792 0.531,-1.179c0.306,-0.647 0.622,-1.287 0.936,-1.923c0.276,-0.564 0.552,-1.124 0.825,-1.692c0.199,-0.418 0.394,-0.844 0.586,-1.269c0.18,-0.394 0.361,-0.789 0.545,-1.179c0.269,-0.557 0.538,-1.114 0.811,-1.671c0.302,-0.619 0.604,-1.238 0.899,-1.864c0.191,-0.398 0.368,-0.803 0.549,-1.207c0.173,-0.391 0.346,-0.782 0.53,-1.166c0.328,-0.691 0.664,-1.38 0.999,-2.068c0.25,-0.515 0.501,-1.031 0.748,-1.546c0.18,-0.374 0.353,-0.751 0.53,-1.127c0.188,-0.409 0.376,-0.817 0.571,-1.221c0.251,-0.516 0.505,-1.028 0.756,-1.539c0.313,-0.633 0.622,-1.266 0.928,-1.906c0.236,-0.491 0.468,-0.986 0.697,-1.48c0.092,0.141 0.184,0.287 0.28,0.432c0.762,1.183 1.529,2.362 2.288,3.548c0.405,0.637 0.807,1.277 1.208,1.916c0.398,0.64 0.8,1.277 1.209,1.917c0.766,1.196 1.536,2.393 2.31,3.59c0.461,0.712 0.921,1.428 1.382,2.14c0.493,0.772 0.987,1.54 1.499,2.345l0.741,1.152c0.103,0.163 0.221,0.318 0.35,0.467c0.354,0.401 0.785,0.733 1.22,0.92c0.596,0.259 1.116,0.221 1.4,-0.097c0.033,-0.041 0.07,-0.072 0.099,-0.104c0.114,-0.11 0.251,-0.245 0.35,-0.47c0.24,-0.529 0.472,-1.062 0.7,-1.594c0.155,-0.357 0.31,-0.709 0.468,-1.066c0.284,-0.646 0.571,-1.29 0.859,-1.933c0.486,-1.093 0.972,-2.186 1.451,-3.286c0.402,-0.927 0.796,-1.864 1.194,-2.798c0.273,-0.646 0.546,-1.293 0.822,-1.933c0.335,-0.792 0.678,-1.581 1.02,-2.366c0.269,-0.619 0.538,-1.238 0.804,-1.857c0.206,-0.481 0.412,-0.965 0.619,-1.449c0.294,-0.692 0.589,-1.384 0.888,-2.072c0.236,-0.539 0.479,-1.076 0.718,-1.615c0.265,-0.591 0.531,-1.183 0.789,-1.781c0.162,-0.37 0.313,-0.747 0.464,-1.128c0.155,-0.377 0.306,-0.75 0.464,-1.12c0.258,-0.592 0.523,-1.176 0.789,-1.761c0.25,-0.557 0.501,-1.113 0.748,-1.674c0.165,-0.38 0.324,-0.768 0.482,-1.155c0.148,-0.363 0.295,-0.73 0.454,-1.086c0.523,-1.2 1.05,-2.397 1.58,-3.59l2.808,5.451l4.908,9.535c0.132,0.263 0.309,0.516 0.512,0.747c0.276,0.315 0.604,0.588 0.947,0.785c0.597,0.339 1.164,0.402 1.525,0.17c0.03,-0.021 0.052,-0.035 0.07,-0.045c0.103,-0.055 0.321,-0.173 0.431,-0.477c0.199,-0.55 0.398,-1.1 0.597,-1.654c0.339,-0.93 0.674,-1.86 1.021,-2.784c0.335,-0.892 0.674,-1.781 1.017,-2.67c0.442,-1.152 0.899,-2.341 1.333,-3.528c0.295,-0.799 0.575,-1.615 0.844,-2.407c0.28,-0.823 0.571,-1.67 0.873,-2.483c0.428,-1.148 0.881,-2.307 1.316,-3.428c0.306,-0.771 0.604,-1.542 0.903,-2.317c0.641,-1.681 1.3,-3.434 1.952,-5.209c0.358,-0.965 0.704,-1.93 1.054,-2.894c0.358,-0.979 0.711,-1.962 1.072,-2.937c0.225,-0.619 0.461,-1.228 0.697,-1.84c0.254,-0.667 0.512,-1.338 0.759,-2.016c0.195,-0.526 0.379,-1.065 0.56,-1.602c0.191,-0.556 0.379,-1.113 0.582,-1.66c0.306,-0.826 0.619,-1.643 0.936,-2.459c0.265,-0.688 0.53,-1.38 0.788,-2.071c0.225,-0.602 0.442,-1.208 0.66,-1.816c0.191,-0.543 0.387,-1.086 0.586,-1.622c0.276,-0.747 0.56,-1.488 0.84,-2.228c0.287,-0.757 0.575,-1.511 0.855,-2.269c0.191,-0.515 0.375,-1.03 0.556,-1.549c0.217,-0.612 0.435,-1.224 0.667,-1.83c0.258,-0.684 0.523,-1.362 0.788,-2.04c0.314,-0.792 0.627,-1.584 0.925,-2.387c0.229,-0.615 0.446,-1.248 0.656,-1.86c0.192,-0.568 0.387,-1.135 0.593,-1.692c0.413,-1.117 0.848,-2.248 1.268,-3.341l0.471,-1.231c0.111,-0.28 0.218,-0.56 0.328,-0.84c0.181,-0.471 0.365,-0.938 0.542,-1.412c0.25,-0.674 0.494,-1.359 0.737,-2.04l0.313,-0.865c0.199,-0.557 -0.1,-1.418 -0.733,-2.141Zm-1.021,0.789c-0.346,0.965 -0.689,1.937 -1.046,2.895c-0.28,0.754 -0.575,1.494 -0.862,2.244c-0.586,1.526 -1.18,3.044 -1.747,4.583c-0.431,1.169 -0.811,2.38 -1.245,3.545c-0.557,1.487 -1.154,2.943 -1.714,4.427c-0.423,1.114 -0.807,2.262 -1.223,3.383c-0.56,1.501 -1.135,2.991 -1.695,4.496c-0.424,1.138 -0.818,2.3 -1.245,3.434c-0.568,1.519 -1.164,3.013 -1.728,4.535c-0.398,1.075 -0.745,2.189 -1.139,3.268c-0.475,1.294 -0.984,2.559 -1.459,3.849c-0.715,1.941 -1.407,3.895 -2.122,5.832c-0.641,1.739 -1.293,3.472 -1.953,5.198c-0.733,1.923 -1.503,3.818 -2.218,5.755c-0.601,1.612 -1.124,3.279 -1.717,4.894c-0.766,2.079 -1.577,4.119 -2.351,6.191c-0.552,1.473 -1.079,2.964 -1.621,4.444c-0.015,0.042 -0.074,0.052 -0.203,0.139c-3.235,-6.281 -6.429,-12.493 -9.627,-18.705c-0.074,-0.044 -0.144,-0.089 -0.218,-0.134c-0.199,0.418 -0.398,0.833 -0.586,1.259c-0.714,1.604 -1.425,3.206 -2.129,4.814c-0.321,0.74 -0.612,1.504 -0.936,2.245c-0.505,1.148 -1.032,2.282 -1.533,3.434c-0.324,0.74 -0.608,1.508 -0.928,2.248c-0.494,1.141 -1.014,2.259 -1.507,3.396c-0.509,1.169 -1.006,2.352 -1.511,3.525c-0.608,1.407 -1.22,2.812 -1.824,4.223c-0.674,1.573 -1.334,3.161 -2.015,4.728c-0.759,1.746 -1.54,3.476 -2.307,5.215c-0.39,0.882 -0.77,1.775 -1.164,2.653c-0.063,0.135 -0.184,0.221 -0.328,0.381c-0.792,-1.242 -1.514,-2.373 -2.24,-3.504c-1.231,-1.909 -2.465,-3.815 -3.689,-5.728c-0.814,-1.272 -1.602,-2.555 -2.42,-3.832c-1.209,-1.888 -2.436,-3.773 -3.652,-5.658c-0.195,-0.308 -0.383,-0.619 -0.571,-0.927c-0.066,-0.111 -0.132,-0.201 -0.191,-0.273c-0.177,-0.201 -0.325,-0.218 -0.435,0.021c-0.498,1.079 -0.991,2.161 -1.5,3.23c-0.552,1.152 -1.124,2.29 -1.68,3.438c-0.376,0.778 -0.733,1.57 -1.105,2.348c-0.579,1.211 -1.176,2.407 -1.75,3.621c-0.369,0.782 -0.704,1.591 -1.076,2.373c-0.56,1.186 -1.146,2.352 -1.71,3.531c-0.387,0.81 -0.744,1.643 -1.131,2.449c-0.582,1.21 -1.183,2.4 -1.761,3.614c-0.372,0.782 -0.7,1.598 -1.069,2.376c-0.556,1.173 -1.135,2.321 -1.695,3.487c-0.376,0.795 -0.726,1.615 -1.105,2.407c-0.571,1.2 -1.161,2.379 -1.732,3.576c-0.39,0.823 -0.748,1.677 -1.142,2.501c-0.556,1.165 -1.142,2.31 -1.702,3.479c-0.332,0.692 -0.63,1.411 -0.958,2.11c-0.453,0.972 -0.918,1.933 -1.375,2.901c-0.449,0.959 -0.891,1.917 -1.348,2.868c-0.063,0.124 -0.199,0.19 -0.435,0.152c0.295,-1.231 0.586,-2.47 0.892,-3.697c0.206,-0.844 0.446,-1.664 0.648,-2.508c0.395,-1.646 0.763,-3.31 1.161,-4.949c0.637,-2.601 1.297,-5.185 1.931,-7.786c0.335,-1.376 0.626,-2.78 0.961,-4.157c0.509,-2.085 1.039,-4.157 1.551,-6.243c0.207,-0.823 0.402,-1.656 0.59,-2.49c0.225,-0.989 0.424,-1.992 0.656,-2.978c0.368,-1.56 0.751,-3.109 1.135,-4.658c0.538,-2.183 1.09,-4.351 1.625,-6.541c0.504,-2.089 0.991,-4.195 1.488,-6.291c0.457,-1.909 0.918,-3.815 1.389,-5.714c0.608,-2.462 1.238,-4.911 1.846,-7.377c0.42,-1.705 0.807,-3.434 1.22,-5.139c0.523,-2.155 1.068,-4.292 1.588,-6.447c0.335,-1.377 0.641,-2.774 0.969,-4.154c0.14,-0.588 0.306,-1.155 0.497,-1.878c0.28,0.429 0.442,0.636 0.549,0.844c1.522,2.954 3.025,5.911 4.551,8.864c1.333,2.577 2.689,5.154 4.034,7.73c0.995,1.906 1.982,3.815 2.981,5.721c0.022,0.045 0.055,0.086 0.096,0.131c0.07,0.08 0.162,0.17 0.261,0.284c0.321,-0.792 0.616,-1.546 0.925,-2.286c0.457,-1.086 0.932,-2.162 1.389,-3.251c0.262,-0.63 0.494,-1.28 0.752,-1.909c0.56,-1.387 1.131,-2.764 1.695,-4.151c0.637,-1.563 1.26,-3.133 1.901,-4.693c0.7,-1.695 1.426,-3.365 2.122,-5.06c0.63,-1.532 1.231,-3.082 1.857,-4.614c0.947,-2.314 1.905,-4.617 2.852,-6.928c0.756,-1.829 1.496,-3.669 2.255,-5.492c0.472,-1.12 0.969,-2.217 1.456,-3.324c0.033,-0.069 0.092,-0.117 0.202,-0.255c4.079,7.325 8.102,14.55 12.233,21.972c0.331,-0.515 0.589,-0.93 0.858,-1.331c0.597,-0.893 1.209,-1.771 1.798,-2.667c0.686,-1.041 1.356,-2.096 2.034,-3.144c0.523,-0.809 1.047,-1.625 1.577,-2.428c0.741,-1.117 1.496,-2.217 2.233,-3.334c0.498,-0.754 0.965,-1.532 1.467,-2.283c0.74,-1.113 1.499,-2.21 2.243,-3.323c0.785,-1.176 1.563,-2.363 2.333,-3.552c1.002,-1.543 1.982,-3.106 2.999,-4.635c0.98,-1.477 2.023,-2.902 2.995,-4.382c1.132,-1.716 2.211,-3.479 3.335,-5.205c0.704,-1.083 1.455,-2.127 2.167,-3.199c0.81,-1.218 1.595,-2.46 2.406,-3.677c0.14,-0.208 0.342,-0.356 0.515,-0.533c0.052,0.052 0.107,0.108 0.155,0.163Z" style="fill:#231f20;fill-rule:nonzero;stroke:#000;stroke-width:9.68px;"/></svg>