<?xml version="1.0" encoding="UTF-8" standalone="no"?><!DOCTYPE svg PUBLIC "-//W3C//DTD SVG 1.1//EN" "http://www.w3.org/Graphics/SVG/1.1/DTD/svg11.dtd"><svg width="100%" height="100%" viewBox="0 0 6673 5489" version="1.1" xmlns="http://www.w3.org/2000/svg" xmlns:xlink="http://www.w3.org/1999/xlink" xml:space="preserve" xmlns:serif="http://www.serif.com/" style="fill-rule:evenodd;clip-rule:evenodd;stroke-linejoin:round;stroke-miterlimit:2;"><path d="M5215.84,493.634c-72.082,0 -130.416,58.495 -130.416,130.654c0,72.154 58.334,130.65 130.416,130.65c72.502,-0 130.835,-58.496 130.835,-130.65c0,-72.159 -58.333,-130.654 -130.835,-130.654Z" style="fill:#8618fb;fill-rule:nonzero;"/><path d="M5730.83,493.634c-72.082,0 -130.415,58.495 -130.415,130.654c-0,72.154 58.333,130.65 130.415,130.65c72.502,-0 130.835,-58.496 130.835,-130.65c0,-72.159 -58.333,-130.654 -130.835,-130.654Z" style="fill:#854ca0;fill-rule:nonzero;"/><path d="M6245.84,493.634c-72.083,0 -130.416,58.495 -130.416,130.654c0,72.154 58.333,130.65 130.416,130.65c72.497,-0 130.831,-58.496 130.831,-130.65c-0,-72.159 -58.334,-130.654 -130.831,-130.654Z" style="fill:#a1519d;fill-rule:nonzero;"/><path d="M2449.84,5400.28l2459.75,-0l0,-1646.88l-2459.75,-0l-0,1646.88Z" style="fill:#6da0dd;fill-rule:nonzero;"/><path d="M4910.83,4402.28c-96.667,-0 -174.581,78.166 -174.581,174.541c0,96.417 77.914,174.584 174.581,174.584c96.253,-0 174.585,-78.167 174.585,-174.584c0,-96.375 -78.332,-174.541 -174.585,-174.541Z" style="fill:#e27537;fill-rule:nonzero;"/><rect x="384.125" y="672.654" width="539.543" height="424.98" style="fill:#c05e5f;fill-rule:nonzero;"/><rect x="384.125" y="1328.9" width="539.543" height="424.98" style="fill:#c0bc5e;fill-rule:nonzero;"/><rect x="384.125" y="1985.15" width="539.543" height="395.167" style="fill:#6fc05e;fill-rule:nonzero;"/><path d="M268.586,109.488c-54.627,-0 -99.085,44.875 -99.085,100.033l0,2381.09c0,58.667 47.294,106.375 105.461,106.375l3219.87,-0c57.251,-0 103.833,-47 103.833,-104.791l-0,-2385.24c-0,-53.747 -43.29,-97.467 -96.501,-97.467l-3233.58,-0Zm3226.25,2645.83l-3219.87,0c-90.336,0 -163.794,-73.875 -163.794,-164.708l-0,-2381.09c-0,-87.325 70.626,-158.366 157.418,-158.366l3233.58,-0c85.376,-0 154.834,69.891 154.834,155.8l0,2385.24c0,89.957 -72.75,163.124 -162.166,163.124Z" style="fill:#1c243a;fill-rule:nonzero;"/><path d="M3282,442.821l-3137.5,0c-16.085,0 -29.166,-13.058 -29.166,-29.166c-0,-16.109 13.081,-29.167 29.166,-29.167l3137.5,-0c16.126,-0 29.167,13.058 29.167,29.167c-0,16.108 -13.041,29.166 -29.167,29.166Z" style="fill:#1c243a;fill-rule:nonzero;"/><path d="M757.001,417.821c-16.085,0 -29.166,-13.058 -29.166,-29.166l-0,-287.5c-0,-16.109 13.081,-29.167 29.166,-29.167c16.126,-0 29.167,13.058 29.167,29.167l-0,287.5c-0,16.108 -13.041,29.166 -29.167,29.166Z" style="fill:#1c243a;fill-rule:nonzero;"/><path d="M329.71,212.084c-16.752,-0 -30.375,13.617 -30.375,30.354c0,16.738 13.623,30.355 30.375,30.355c16.748,-0 30.335,-13.617 30.335,-30.355c-0,-16.737 -13.587,-30.354 -30.335,-30.354Zm0,119.042c-48.917,-0 -88.708,-39.784 -88.708,-88.688c-0,-48.905 39.791,-88.687 88.708,-88.687c48.918,-0 88.668,39.782 88.668,88.687c0,48.904 -39.75,88.688 -88.668,88.688Z" style="fill:#1c243a;fill-rule:nonzero;"/><path d="M569.127,212.084c-16.752,-0 -30.375,13.617 -30.375,30.354c-0,16.738 13.623,30.355 30.375,30.355c16.707,-0 30.334,-13.617 30.334,-30.355c0,-16.737 -13.627,-30.354 -30.334,-30.354Zm-0,119.042c-48.918,-0 -88.709,-39.784 -88.709,-88.688c0,-48.905 39.791,-88.687 88.709,-88.687c48.873,-0 88.668,39.782 88.668,88.687c-0,48.904 -39.795,88.688 -88.668,88.688Z" style="fill:#1c243a;fill-rule:nonzero;"/><path d="M2748.67,217.821l-1858.33,0c-16.085,0 -29.167,-13.058 -29.167,-29.166c-0,-16.109 13.082,-29.167 29.167,-29.167l1858.33,-0c16.125,-0 29.167,13.058 29.167,29.167c-0,16.108 -13.042,29.166 -29.167,29.166Z" style="fill:#1c243a;fill-rule:nonzero;"/><path d="M1886.17,334.488l-995.833,-0c-16.085,-0 -29.167,-13.059 -29.167,-29.167c-0,-16.108 13.082,-29.166 29.167,-29.166l995.833,-0c16.125,-0 29.167,13.058 29.167,29.166c-0,16.108 -13.042,29.167 -29.167,29.167Z" style="fill:#1c243a;fill-rule:nonzero;"/><path d="M3627.84,442.821l-112.5,0c-16.085,0 -29.167,-13.058 -29.167,-29.166c-0,-16.109 13.082,-29.167 29.167,-29.167l112.5,-0c16.125,-0 29.166,13.058 29.166,29.167c0,16.108 -13.041,29.166 -29.166,29.166Z" style="fill:#1c243a;fill-rule:nonzero;"/><path d="M413.292,1068.47l2941.59,0l0,-366.642l-2941.59,-0l-0,366.642Zm2970.75,58.334l-2999.92,-0c-16.08,-0 -29.166,-13.059 -29.166,-29.167l-0,-424.976c-0,-16.112 13.086,-29.166 29.166,-29.166l2999.92,-0c16.125,-0 29.167,13.054 29.167,29.166l-0,424.976c-0,16.108 -13.042,29.167 -29.167,29.167Z" style="fill:#1c243a;fill-rule:nonzero;"/><path d="M923.668,1096.99c-16.085,-0 -29.167,-13.059 -29.167,-29.167l0,-366.666c0,-16.109 13.082,-29.167 29.167,-29.167c16.125,-0 29.167,13.058 29.167,29.167l-0,366.666c-0,16.108 -13.042,29.167 -29.167,29.167Z" style="fill:#1c243a;fill-rule:nonzero;"/><path d="M413.292,1724.72l2941.59,0l0,-366.642l-2941.59,-0l-0,366.642Zm2970.75,58.334l-2999.92,-0c-16.08,-0 -29.166,-13.059 -29.166,-29.167l-0,-424.976c-0,-16.112 13.086,-29.166 29.166,-29.166l2999.92,-0c16.125,-0 29.167,13.054 29.167,29.166l-0,424.976c-0,16.108 -13.042,29.167 -29.167,29.167Z" style="fill:#1c243a;fill-rule:nonzero;"/><path d="M923.668,1755.32c-16.085,0 -29.167,-13.058 -29.167,-29.166l0,-366.667c0,-16.108 13.082,-29.167 29.167,-29.167c16.125,0 29.167,13.059 29.167,29.167l-0,366.667c-0,16.108 -13.042,29.166 -29.167,29.166Z" style="fill:#1c243a;fill-rule:nonzero;"/><path d="M413.292,2380.99l2941.59,-0l0,-366.663l-2941.59,-0l-0,366.663Zm2970.75,58.333l-2999.92,-0c-16.08,-0 -29.166,-13.083 -29.166,-29.167l-0,-424.996c-0,-16.112 13.086,-29.166 29.166,-29.166l2999.92,-0c16.125,-0 29.167,13.054 29.167,29.166l-0,424.996c-0,16.084 -13.042,29.167 -29.167,29.167Z" style="fill:#1c243a;fill-rule:nonzero;"/><path d="M923.668,2409.49c-16.085,-0 -29.167,-13.041 -29.167,-29.167l0,-366.666c0,-16.109 13.082,-29.167 29.167,-29.167c16.125,-0 29.167,13.058 29.167,29.167l-0,366.666c-0,16.126 -13.042,29.167 -29.167,29.167Z" style="fill:#1c243a;fill-rule:nonzero;"/><path d="M5050.42,58.333c-112.081,0 -202.918,91.084 -202.918,203.034l0,721.737c0,111.955 90.837,203.034 202.918,203.034l488.334,-0c7.918,-0 15.417,3.071 20.833,8.542l296.248,296.149l213.335,-292.716c5.415,-7.525 14.168,-11.975 23.75,-11.975l318.75,-0c111.666,-0 202.918,-91.079 202.918,-203.034l-0,-721.737c-0,-111.95 -91.252,-203.034 -202.918,-203.034l-1361.25,0Zm808.752,1506.38c-7.918,-0 -15.002,-3.05 -20.833,-8.537l-311.67,-311.705l-476.249,0c-144.165,0 -261.251,-117.249 -261.251,-261.367l-0,-721.737c-0,-144.116 117.086,-261.367 261.251,-261.367l1361.25,-0c144.165,-0 261.251,117.251 261.251,261.367l0,721.737c0,144.118 -117.086,261.367 -261.251,261.367l-304.166,0l-225,308.272c-5.001,6.882 -12.5,11.224 -21.249,11.882c-0.834,0.063 -1.253,0.088 -2.083,0.088Z" style="fill:#1c243a;fill-rule:nonzero;"/><path d="M5215.84,522.801c-55.835,-0 -101.249,45.529 -101.249,101.487c-0,55.954 45.414,101.483 101.249,101.483c56.25,0 101.668,-45.529 101.668,-101.483c0,-55.958 -45.418,-101.487 -101.668,-101.487Zm0,261.303c-87.915,0 -159.582,-71.696 -159.582,-159.816c-0,-88.125 71.667,-159.821 159.582,-159.821c88.334,0 160.002,71.696 160.002,159.821c-0,88.12 -71.668,159.816 -160.002,159.816Z" style="fill:#1c243a;fill-rule:nonzero;"/><path d="M5730.83,522.801c-55.83,-0 -101.249,45.529 -101.249,101.487c0,55.954 45.419,101.483 101.249,101.483c56.25,0 101.669,-45.529 101.669,-101.483c-0,-55.958 -45.419,-101.487 -101.669,-101.487Zm0,261.303c-87.915,0 -159.582,-71.696 -159.582,-159.816c-0,-88.125 71.667,-159.821 159.582,-159.821c88.335,0 160.002,71.696 160.002,159.821c0,88.12 -71.667,159.816 -160.002,159.816Z" style="fill:#1c243a;fill-rule:nonzero;"/><path d="M6245.84,522.801c-55.835,-0 -101.249,45.529 -101.249,101.487c-0,55.954 45.414,101.483 101.249,101.483c56.25,0 101.664,-45.529 101.664,-101.483c0,-55.958 -45.414,-101.487 -101.664,-101.487Zm-0,261.303c-87.919,0 -159.583,-71.696 -159.583,-159.816c0,-88.125 71.664,-159.821 159.583,-159.821c88.334,0 159.997,71.696 159.997,159.821c0,88.12 -71.663,159.816 -159.997,159.816Z" style="fill:#1c243a;fill-rule:nonzero;"/><path d="M4909.59,5429.45l-2459.75,0c-16.085,0 -29.167,-13.042 -29.167,-29.166l0,-1646.88c0,-16.126 13.082,-29.167 29.167,-29.167l2459.75,0c16.252,0 29.167,13.041 29.167,29.167l-0,630.833c-0,16.083 -12.915,29.166 -29.167,29.166c-16.252,0 -29.167,-13.083 -29.167,-29.166l0,-601.667l-2401.42,0l0,1588.54l2401.42,0l0,-601.667c0,-16.083 12.915,-29.167 29.167,-29.167c16.252,0 29.167,13.084 29.167,29.167l-0,630.834c-0,16.124 -12.915,29.166 -29.167,29.166Z" style="fill:#1c243a;fill-rule:nonzero;"/><path d="M3679.71,4881.65c-6.958,-0 -13.916,-2.459 -19.417,-7.417l-1229.88,-1099.08c-11.999,-10.751 -13.041,-29.209 -2.331,-41.208c10.746,-12.001 29.207,-13.042 41.207,-2.292l1210.42,1081.71l1210.29,-1081.71c12.085,-10.75 30.416,-9.709 41.252,2.292c10.831,11.999 9.582,30.457 -2.084,41.208l-1230.04,1099.08c-5.502,4.958 -12.46,7.417 -19.418,7.417Z" style="fill:#1c243a;fill-rule:nonzero;"/><path d="M4909.59,5429.45c-7.084,0 -13.749,-2.458 -19.584,-7.416l-908.5,-812.042c-12,-10.708 -13.041,-29.166 -2.332,-41.167c10.751,-11.999 29.208,-13.041 41.207,-2.292l908.793,812.001c11.666,10.749 12.915,29.167 2.084,41.208c-5.835,6.417 -13.75,9.708 -21.668,9.708Z" style="fill:#1c243a;fill-rule:nonzero;"/><path d="M2449.84,5429.45c-8,0 -15.959,-3.291 -21.749,-9.708c-10.71,-12.041 -9.668,-30.459 2.331,-41.208l910.584,-813.792c11.999,-10.709 30.456,-9.667 41.207,2.334c10.709,11.999 9.668,30.457 -2.332,41.166l-910.583,813.792c-5.583,4.958 -12.541,7.416 -19.458,7.416Z" style="fill:#1c243a;fill-rule:nonzero;"/><path d="M4910.83,4431.45c-80.416,0 -145.414,65.208 -145.414,145.375c0,80.167 64.998,145.417 145.414,145.417c80.001,0 145.419,-65.25 145.419,-145.417c-0,-80.167 -65.418,-145.375 -145.419,-145.375Zm0,349.125c-112.5,0 -203.747,-91.416 -203.747,-203.75c-0,-112.333 91.247,-203.708 203.747,-203.708c112.085,-0 203.752,91.375 203.752,203.708c-0,112.334 -91.667,203.75 -203.752,203.75Z" style="fill:#1c243a;fill-rule:nonzero;"/><path d="M569.501,3005.32c-16.085,0 -29.166,-13.041 -29.166,-29.166l-0,-54.167c-0,-16.126 13.081,-29.167 29.166,-29.167c16.126,0 29.167,13.041 29.167,29.167l-0,54.167c-0,16.125 -13.041,29.166 -29.167,29.166Z" style="fill:#1c243a;fill-rule:nonzero;"/><path d="M569.501,3296.99c-16.085,-0 -29.166,-13.041 -29.166,-29.167l-0,-104.166c-0,-16.126 13.081,-29.167 29.166,-29.167c16.126,-0 29.167,13.041 29.167,29.167l-0,104.166c-0,16.126 -13.041,29.167 -29.167,29.167Zm0,295.833c-16.085,0 -29.166,-13.041 -29.166,-29.166l-0,-104.167c-0,-16.126 13.081,-29.167 29.166,-29.167c16.126,0 29.167,13.041 29.167,29.167l-0,104.167c-0,16.125 -13.041,29.166 -29.167,29.166Zm0,295.834c-16.085,-0 -29.166,-13.042 -29.166,-29.167l-0,-104.167c-0,-16.125 13.081,-29.166 29.166,-29.166c16.126,-0 29.167,13.041 29.167,29.166l-0,104.167c-0,16.125 -13.041,29.167 -29.167,29.167Zm0,295.833c-16.085,-0 -29.166,-13.041 -29.166,-29.167l-0,-104.166c-0,-16.126 13.081,-29.167 29.166,-29.167c16.126,-0 29.167,13.041 29.167,29.167l-0,104.166c-0,16.126 -13.041,29.167 -29.167,29.167Z" style="fill:#1c243a;fill-rule:nonzero;"/><path d="M619.501,4430.32l-50,0c-16.085,0 -29.166,-13.041 -29.166,-29.166l-0,-50c-0,-16.126 13.081,-29.167 29.166,-29.167c16.126,-0 29.167,13.041 29.167,29.167l-0,20.833l20.833,-0c16.126,-0 29.167,13.041 29.167,29.167c-0,16.125 -13.041,29.166 -29.167,29.166Z" style="fill:#1c243a;fill-rule:nonzero;"/><path d="M936.168,4430.32l-112.5,0c-16.085,0 -29.167,-13.041 -29.167,-29.166c0,-16.126 13.082,-29.167 29.167,-29.167l112.5,-0c16.125,-0 29.167,13.041 29.167,29.167c-0,16.125 -13.042,29.166 -29.167,29.166Zm316.667,0l-112.5,0c-16.085,0 -29.167,-13.041 -29.167,-29.166c-0,-16.126 13.082,-29.167 29.167,-29.167l112.5,-0c16.125,-0 29.166,13.041 29.166,29.167c0,16.125 -13.041,29.166 -29.166,29.166Zm316.666,0l-112.5,0c-16.085,0 -29.166,-13.041 -29.166,-29.166c-0,-16.126 13.081,-29.167 29.166,-29.167l112.5,-0c16.126,-0 29.167,13.041 29.167,29.167c-0,16.125 -13.041,29.166 -29.167,29.166Zm316.667,0l-112.5,0c-16.085,0 -29.167,-13.041 -29.167,-29.166c0,-16.126 13.082,-29.167 29.167,-29.167l112.5,-0c16.125,-0 29.167,13.041 29.167,29.167c-0,16.125 -13.042,29.166 -29.167,29.166Z" style="fill:#1c243a;fill-rule:nonzero;"/><path d="M2144.5,4430.32l-54.166,0c-16.085,0 -29.167,-13.041 -29.167,-29.166c-0,-16.126 13.082,-29.167 29.167,-29.167l54.166,-0c16.126,-0 29.167,13.041 29.167,29.167c-0,16.125 -13.041,29.166 -29.167,29.166Z" style="fill:#1c243a;fill-rule:nonzero;"/><path d="M5861.25,1809.49c-16.251,-0 -29.166,-13.059 -29.166,-29.167l-0,-54.166c-0,-16.109 12.915,-29.167 29.166,-29.167c15.833,-0 29.167,13.058 29.167,29.167l0,54.166c0,16.108 -13.334,29.167 -29.167,29.167Z" style="fill:#1c243a;fill-rule:nonzero;"/><path d="M5861.25,2101.16c-16.251,-0 -29.166,-13.059 -29.166,-29.167l-0,-104.167c-0,-16.108 12.915,-29.166 29.166,-29.166c15.833,-0 29.167,13.058 29.167,29.166l0,104.167c0,16.108 -13.334,29.167 -29.167,29.167Zm0,295.833c-16.251,-0 -29.166,-13.041 -29.166,-29.167l-0,-104.166c-0,-16.109 12.915,-29.167 29.166,-29.167c15.833,-0 29.167,13.058 29.167,29.167l0,104.166c0,16.126 -13.334,29.167 -29.167,29.167Zm0,295.833c-16.251,0 -29.166,-13.041 -29.166,-29.166l-0,-104.167c-0,-16.126 12.915,-29.167 29.166,-29.167c15.833,0 29.167,13.041 29.167,29.167l0,104.167c0,16.125 -13.334,29.166 -29.167,29.166Zm0,295.834c-16.251,-0 -29.166,-13.042 -29.166,-29.167l-0,-104.167c-0,-16.125 12.915,-29.166 29.166,-29.166c15.833,-0 29.167,13.041 29.167,29.166l0,104.167c0,16.125 -13.334,29.167 -29.167,29.167Zm0,295.833c-16.251,-0 -29.166,-13.041 -29.166,-29.167l-0,-104.166c-0,-16.126 12.915,-29.167 29.166,-29.167c15.833,-0 29.167,13.041 29.167,29.167l0,104.166c0,16.126 -13.334,29.167 -29.167,29.167Zm0,295.833c-16.251,0 -29.166,-13.041 -29.166,-29.166l-0,-104.167c-0,-16.126 12.915,-29.167 29.166,-29.167c15.833,0 29.167,13.041 29.167,29.167l0,104.167c0,16.125 -13.334,29.166 -29.167,29.166Zm0,295.834c-16.251,-0 -29.166,-13.042 -29.166,-29.167l-0,-104.167c-0,-16.125 12.915,-29.166 29.166,-29.166c15.833,-0 29.167,13.041 29.167,29.166l0,104.167c0,16.125 -13.334,29.167 -29.167,29.167Zm0,295.833c-16.251,-0 -29.166,-13.041 -29.166,-29.167l-0,-104.166c-0,-16.126 12.915,-29.167 29.166,-29.167c15.833,-0 29.167,13.041 29.167,29.167l0,104.166c0,16.126 -13.334,29.167 -29.167,29.167Z" style="fill:#1c243a;fill-rule:nonzero;"/><path d="M5861.25,4430.32l-54.166,0c-16.252,0 -29.167,-13.041 -29.167,-29.166c0,-16.126 12.915,-29.167 29.167,-29.167l25,-0l-0,-20.833c-0,-16.126 12.915,-29.167 29.166,-29.167c15.833,-0 29.167,13.041 29.167,29.167l0,50c0,16.125 -13.334,29.166 -29.167,29.166Z" style="fill:#1c243a;fill-rule:nonzero;"/><path d="M5644.59,4430.32l-91.667,0c-16.252,0 -29.167,-13.041 -29.167,-29.166c0,-16.126 12.915,-29.167 29.167,-29.167l91.667,-0c15.832,-0 29.166,13.041 29.166,29.167c0,16.125 -13.334,29.166 -29.166,29.166Z" style="fill:#1c243a;fill-rule:nonzero;"/><path d="M5386.25,4430.32l-50,0c-16.251,0 -29.166,-13.041 -29.166,-29.166c-0,-16.126 12.915,-29.167 29.166,-29.167l50,-0c15.833,-0 29.167,13.041 29.167,29.167c0,16.125 -13.334,29.166 -29.167,29.166Z" style="fill:#1c243a;fill-rule:nonzero;"/><path d="M4548.67,1759.49c-16.085,-0 -29.167,-13.059 -29.167,-29.167l0,-187.5c0,-16.108 13.082,-29.166 29.167,-29.166c15.918,-0 29.252,13.058 29.252,29.166l0,187.5c0,16.108 -13.334,29.167 -29.252,29.167Z" style="fill:#1c243a;fill-rule:nonzero;"/><path d="M4644.59,1667.82l-187.586,0c-16.085,0 -29.166,-13.058 -29.166,-29.166c-0,-16.109 13.081,-29.167 29.166,-29.167l187.586,-0c15.832,-0 29.166,13.058 29.166,29.167c0,16.108 -13.334,29.166 -29.166,29.166Z" style="fill:#1c243a;fill-rule:nonzero;"/><path d="M2952.84,3471.99c-16.085,-0 -29.167,-13.041 -29.167,-29.167l-0,-187.5c-0,-16.125 13.082,-29.166 29.167,-29.166c16.125,-0 29.166,13.041 29.166,29.166l0,187.5c0,16.126 -13.041,29.167 -29.166,29.167Z" style="fill:#1c243a;fill-rule:nonzero;"/><path d="M3048.67,3380.32l-187.5,0c-16.085,0 -29.167,-13.041 -29.167,-29.166c0,-16.126 13.082,-29.167 29.167,-29.167l187.5,-0c16.125,-0 29.167,13.041 29.167,29.167c-0,16.125 -13.042,29.166 -29.167,29.166Z" style="fill:#1c243a;fill-rule:nonzero;"/><path d="M6469.59,2559.49c-16.252,-0 -29.167,-13.041 -29.167,-29.167l0,-187.5c0,-16.108 12.915,-29.166 29.167,-29.166c15.832,-0 29.166,13.058 29.166,29.166l0,187.5c0,16.126 -13.334,29.167 -29.166,29.167Z" style="fill:#1c243a;fill-rule:nonzero;"/><path d="M6565.42,2467.82l-187.5,0c-16.252,0 -29.167,-13.041 -29.167,-29.166c0,-16.126 12.915,-29.167 29.167,-29.167l187.5,-0c15.833,-0 29.167,13.041 29.167,29.167c-0,16.125 -13.334,29.166 -29.167,29.166Z" style="fill:#1c243a;fill-rule:nonzero;"/><path d="M1615.34,4976.15c-16.085,-0 -29.167,-13.042 -29.167,-29.167l-0,-187.5c-0,-16.126 13.082,-29.167 29.167,-29.167c16.125,0 29.166,13.041 29.166,29.167l0,187.5c0,16.125 -13.041,29.167 -29.166,29.167Z" style="fill:#1c243a;fill-rule:nonzero;"/><path d="M1711.17,4884.49l-187.5,-0c-16.085,-0 -29.167,-13.041 -29.167,-29.167c0,-16.125 13.082,-29.166 29.167,-29.166l187.5,-0c16.125,-0 29.167,13.041 29.167,29.166c-0,16.126 -13.042,29.167 -29.167,29.167Z" style="fill:#1c243a;fill-rule:nonzero;"/><path d="M4602.09,2790.91c-0,-23 18.331,-41.667 41.667,-41.667c22.916,0 41.666,18.667 41.666,41.667c0,23.042 -18.75,41.666 -41.666,41.666c-23.336,0 -41.667,-18.624 -41.667,-41.666Zm141.247,80.458c-17.081,-15.541 -17.915,-41.875 -2.498,-58.875c15.418,-16.959 41.667,-18.084 58.748,-2.541c17.086,15.541 18.335,41.916 2.503,58.874c-7.918,8.958 -19.169,13.5 -30.416,13.5c-10.417,0 -20.418,-3.624 -28.337,-10.958Zm-263.789,5.5c-16.374,-16.167 -16.541,-42.542 -0.375,-58.917c16.166,-16.374 42.542,-16.541 58.915,-0.375c16.374,16.167 16.541,42.583 0.375,58.959c-8.167,8.25 -18.917,12.375 -29.667,12.375c-10.539,-0 -21.123,-4 -29.248,-12.042Zm311.706,97.25c-0.83,-23 17.086,-42 40.003,-42.833c22.916,-0.834 42.5,16.624 43.33,39.625c0.835,23 -17.081,42.75 -40.413,42.75l-1.253,-0c-22.498,-0 -40.833,-17.001 -41.667,-39.542Zm-378.747,10c-0.253,-23.001 18.164,-42.333 41.166,-42.625c22.998,-0.291 41.874,18.791 42.167,41.833c0.289,23 -18.128,42.834 -41.126,42.834l-0.541,-0c-22.75,-0 -41.378,-19.209 -41.666,-42.042Zm340.417,156.25c-16.667,-15.751 -17.501,-42.125 -1.668,-58.917c15.832,-16.75 42.081,-17.583 58.748,-1.833c17.086,15.792 17.92,42.125 2.083,58.916c-8.333,8.709 -19.58,13.126 -30.415,13.126c-10.417,0 -20.415,-3.751 -28.748,-11.292Zm-269.67,6.375c-16.54,-15.958 -17.041,-42.333 -1.082,-58.917c15.959,-16.583 42.334,-17.083 58.915,-1.083c16.419,15.959 16.834,42.333 1.087,58.916c-8.167,8.459 -19.084,12.751 -30.001,12.751c-10.376,-0 -20.793,-3.875 -28.919,-11.667Zm123.418,23.041c-0.415,-23 17.5,-41.666 40.417,-42.207c23.332,-0.584 42.082,16.916 42.916,39.916c0.419,23 -17.501,42 -40.833,42l-0.834,-0c-22.497,-0 -41.247,-17.084 -41.666,-39.709Z" style="fill:#1c243a;fill-rule:nonzero;"/><path d="M4182,199.238c0,-23 16.667,-41.667 41.667,-41.667l-0,0.042c20.833,0 41.667,18.625 41.667,41.625c-0,23.042 -20.834,41.667 -41.667,41.667l-0,0.041c-0,0 -41.667,-18.666 -41.667,-41.708Zm140.499,80.459c-16.955,-15.542 -18.083,-41.917 -2.539,-58.876c15.54,-16.958 41.915,-18.084 58.875,-2.541c16.959,15.542 18.082,41.874 2.543,58.875c-8.212,8.957 -19.462,13.5 -30.709,13.5c-10.083,-0 -20.17,-3.625 -28.17,-10.958Zm-263.79,5.499c-16.373,-16.166 -16.54,-42.542 -0.374,-58.916c16.166,-16.375 42.541,-16.542 58.915,-0.376c16.374,16.168 16.541,42.584 0.374,58.959c-8.166,8.25 -18.916,12.375 -29.667,12.375c-10.583,0 -21.163,-4 -29.248,-12.042Zm311.666,97.271c-0.875,-22.999 17.086,-41.992 40.084,-42.866c23.002,-0.834 42.334,16.67 43.168,39.633c0.875,23.038 -17.086,42.754 -40.084,42.754l-1.542,-0c-22.335,-0 -40.792,-17.021 -41.626,-39.521Zm-378.707,9.959c-0.252,-23.001 18.164,-42.325 41.166,-42.617c22.998,-0.288 41.875,18.8 42.168,41.8c0.288,23.041 -18.128,42.879 -41.167,42.879l-0.5,-0c-22.791,-0 -41.378,-19.229 -41.667,-42.062Zm340.585,156.27c-16.753,-15.75 -17.587,-42.125 -1.836,-58.916c15.752,-16.75 42.127,-17.584 58.875,-1.833c16.793,15.791 17.627,42.124 1.876,58.916c-8.207,8.708 -19.291,13.125 -30.375,13.125c-10.25,0 -20.5,-3.75 -28.54,-11.292Zm-269.837,6.375c-16.581,-15.958 -17.041,-42.333 -1.082,-58.916c15.958,-16.583 42.334,-17.042 58.915,-1.084c16.585,15.959 17.045,42.333 1.086,58.917c-8.166,8.5 -19.083,12.75 -30,12.75c-10.417,-0 -20.834,-3.875 -28.919,-11.667Zm123.417,23.042c-0.582,-23 17.627,-41.667 40.625,-42.25c23.002,-0.542 42.086,16.979 42.668,39.979c0.582,23 -17.627,41.979 -40.625,41.979l-1.042,0c-22.542,0 -41.085,-17.083 -41.626,-39.708Z" style="fill:#1c243a;fill-rule:nonzero;"/><path d="M1347.75,3395.07c0,-23 18.624,-41.666 41.667,-41.666c22.998,-0 41.667,18.666 41.667,41.666c-0,23.042 -18.669,41.667 -41.667,41.667c-23.043,0 -41.667,-18.625 -41.667,-41.667Zm141.415,80.459c-16.956,-15.542 -18.083,-41.875 -2.539,-58.876c15.539,-16.958 41.915,-18.083 58.874,-2.541c16.96,15.542 18.124,41.875 2.543,58.875c-8.211,8.958 -19.462,13.5 -30.708,13.5c-10.083,-0 -20.171,-3.625 -28.17,-10.958Zm-263.831,5.499c-16.333,-16.166 -16.5,-42.541 -0.333,-58.916c16.166,-16.375 42.541,-16.542 58.915,-0.375c16.373,16.167 16.54,42.583 0.374,58.959c-8.166,8.25 -18.917,12.374 -29.667,12.374c-10.584,0 -21.163,-3.999 -29.289,-12.042Zm311.707,97.251c-0.875,-23 17.086,-42.001 40.084,-42.834c23.002,-0.833 42.334,16.625 43.168,39.625c0.875,23 -17.086,42.75 -40.084,42.75l-1.583,0c-22.294,0 -40.751,-17 -41.585,-39.541Zm-378.707,9.999c-0.252,-23 18.164,-42.333 41.166,-42.625c22.998,-0.291 41.874,18.792 42.167,41.834c0.289,23 -18.127,42.833 -41.166,42.833l-0.5,0c-22.791,0 -41.378,-19.209 -41.667,-42.042Zm340.584,156.25c-16.752,-15.75 -17.586,-42.124 -1.835,-58.916c15.751,-16.75 42.127,-17.542 58.915,-1.791c16.752,15.79 17.587,42.333 1.795,58.999l0.04,0c-8.207,8.334 -19.291,13.041 -30.375,13.041c-10.25,0 -20.499,-3.791 -28.54,-11.333Zm-269.836,6.375c-16.541,-15.957 -17.041,-42.333 -1.083,-58.916c15.959,-16.583 42.334,-17.042 58.916,-1.083c16.585,15.958 17.085,42.333 1.086,58.916c-8.166,8.458 -19.084,12.75 -30.001,12.75c-10.416,0 -20.833,-3.875 -28.918,-11.667Zm123.417,23.042c-0.582,-23 17.627,-41.667 40.625,-42.208c23.002,-0.584 42.086,16.916 42.668,39.916c0.541,23 -17.627,42.001 -40.625,42.001l-1.042,-0c-22.542,-0 -41.085,-17.084 -41.626,-39.709Z" style="fill:#1c243a;fill-rule:nonzero;"/><path d="M6335.42,4974.24c0,-23 18.331,-41.667 41.667,-41.667c22.917,0 41.667,18.667 41.667,41.667c-0,23.042 -18.75,41.667 -41.667,41.667c-23.336,-0 -41.667,-18.625 -41.667,-41.667Zm141.248,80.459c-17.082,-15.542 -17.916,-41.917 -2.499,-58.876c15.418,-16.958 41.667,-18.124 58.749,-2.541c17.086,15.542 18.335,41.916 2.502,58.875c-7.918,8.957 -19.169,13.5 -30.416,13.5c-10.416,-0 -20.418,-3.625 -28.336,-10.958Zm-263.749,5.499c-16.248,-16.166 -16.667,-42.542 -0.415,-58.916c16.247,-16.375 42.5,-16.542 58.748,-0.376c16.667,16.168 16.667,42.584 0.419,58.918c-7.918,8.291 -18.75,12.416 -29.586,12.416c-10.416,0 -21.248,-4 -29.166,-12.042Zm311.665,97.25c-0.83,-23 17.086,-42 40.003,-42.833c22.917,-0.833 42.501,16.625 43.331,39.625c0.834,23 -17.082,42.75 -40.414,42.75l-1.253,-0c-22.497,-0 -40.832,-17.084 -41.667,-39.542Zm-378.747,10c-0.419,-23 18.331,-42.333 41.247,-42.625c22.917,-0.291 41.667,18.792 42.086,41.833c0.415,23.001 -18.335,42.834 -41.251,42.834l-0.415,-0c-22.917,-0 -41.252,-19.209 -41.667,-42.042Zm340.417,156.25c-16.666,-15.75 -17.5,-42.125 -1.668,-58.916c15.833,-16.75 42.082,-17.584 58.748,-1.833c17.086,15.75 17.92,42.124 2.084,58.916c-8.334,8.708 -19.58,13.125 -30.416,13.125c-10.417,0 -20.414,-3.75 -28.748,-11.292Zm-269.584,6.375c-16.666,-15.958 -17.086,-42.333 -1.249,-58.916c15.833,-16.583 42.497,-17.042 59.163,-1.084c16.252,15.959 17.086,42.333 0.835,58.917c-7.915,8.458 -19.165,12.75 -30.001,12.75c-10.417,-0 -20.834,-3.875 -28.748,-11.667Zm123.332,23.042c-0.415,-23 17.501,-41.667 40.417,-42.208c23.332,-0.584 42.082,16.916 42.916,39.916c0.419,23 -17.501,42 -40.832,42l-0.834,0c-22.498,0 -41.248,-17.083 -41.667,-39.708Z" style="fill:#1c243a;fill-rule:nonzero;"/><path d="M189.419,5070.07c0,-23 18.624,-41.666 41.667,-41.666c22.998,-0 41.666,18.666 41.666,41.666c0,23.042 -18.668,41.667 -41.666,41.667c-23.043,0 -41.667,-18.625 -41.667,-41.667Zm141.414,80.459c-16.955,-15.542 -18.123,-41.917 -2.539,-58.876c15.54,-16.958 41.875,-18.083 58.875,-2.541c16.96,15.542 18.123,41.916 2.543,58.875c-8.211,8.958 -19.462,13.5 -30.709,13.5c-10.083,-0 -20.17,-3.625 -28.17,-10.958Zm-263.789,5.499c-16.374,-16.166 -16.541,-42.541 -0.375,-58.916c16.166,-16.375 42.542,-16.542 58.915,-0.375c16.374,16.209 16.541,42.583 0.375,58.959c-8.167,8.25 -18.917,12.374 -29.667,12.374c-10.539,0 -21.123,-3.999 -29.248,-12.042Zm311.665,97.251c-0.874,-23 17.086,-42.001 40.084,-42.834c23.002,-0.833 42.334,16.667 43.168,39.625c0.875,23 -17.085,42.75 -40.083,42.75l-1.543,0c-22.334,0 -40.791,-17 -41.626,-39.541Zm-378.706,9.999c-0.253,-23 18.164,-42.333 41.166,-42.625c22.998,-0.291 41.874,18.792 42.167,41.834c0.289,23 -18.128,42.833 -41.166,42.833l-0.501,0c-22.75,0 -41.378,-19.209 -41.666,-42.042Zm340.584,156.25c-16.793,-15.75 -17.586,-42.124 -1.835,-58.916c15.751,-16.75 42.126,-17.583 58.915,-1.833c16.752,15.792 17.586,42.124 1.835,58.916c-8.207,8.709 -19.291,13.126 -30.375,13.126c-10.25,-0 -20.5,-3.751 -28.54,-11.293Zm-269.837,6.375c-16.54,-15.957 -17.041,-42.333 -1.082,-58.916c15.959,-16.583 42.334,-17.042 58.915,-1.083c16.586,15.958 17.045,42.333 1.087,58.916c-8.167,8.5 -19.084,12.75 -30.001,12.75c-10.376,0 -20.793,-3.875 -28.919,-11.667Zm123.418,23.042c-0.582,-23 17.627,-41.667 40.625,-42.208c23.002,-0.584 42.126,16.916 42.667,39.916c0.582,23 -17.627,42.001 -40.625,42.001l-1.041,-0c-22.543,-0 -41.085,-17.084 -41.626,-39.709Z" style="fill:#1c243a;fill-rule:nonzero;"/></svg>