<?xml version="1.0" encoding="UTF-8" standalone="no"?><!DOCTYPE svg PUBLIC "-//W3C//DTD SVG 1.1//EN" "http://www.w3.org/Graphics/SVG/1.1/DTD/svg11.dtd"><svg width="100%" height="100%" viewBox="0 0 3055 2084" version="1.1" xmlns="http://www.w3.org/2000/svg" xmlns:xlink="http://www.w3.org/1999/xlink" xml:space="preserve" xmlns:serif="http://www.serif.com/" style="fill-rule:evenodd;clip-rule:evenodd;stroke-linejoin:round;stroke-miterlimit:2;"><g><path d="M1397.03,1833.42c-10.196,-4.85 -32.533,-3.704 -60.842,-2.558c-88.341,3.57 -234.854,7.141 -252.204,-171.309c-22.912,-235.637 -175.654,-219.662 -171.833,-363.445c3.816,-143.775 106.916,-271.58 198.562,-327.496c91.646,-55.913 -200.912,-359.521 31.284,-501.271c136.516,-83.338 207.191,-75.571 269.062,-67.804c43.358,5.445 82.392,10.887 136.733,-15.03c131.88,-62.904 196.796,-234.641 433.546,-218.666c236.746,15.975 195.305,251.433 195.305,251.433c-0,0 144.541,-267.408 442.387,-43.75c297.842,223.654 -49.642,567.129 -49.642,567.129l-30.55,219.667c0,-0 381.855,-147.775 400.946,167.742c19.096,315.516 -156.558,539.175 -397.125,551.158c-240.567,11.983 -1145.63,-45.8 -1145.63,-45.8Z" style="fill:#c9ebfa;fill-rule:nonzero;"/><path d="M2930.39,1059.96c-0,26.388 -17.829,47.775 -39.821,47.775c-21.992,0 -39.825,-21.387 -39.825,-47.775c-0,-26.387 17.833,-47.779 39.825,-47.779c21.992,0 39.821,21.392 39.821,47.779Z" style="fill:#c9ebfa;fill-rule:nonzero;"/><path d="M2822.81,1777c0,80.721 -356.141,146.158 -795.458,146.158c-439.321,0 -795.462,-65.437 -795.462,-146.158c-0,-80.721 356.141,-146.158 795.462,-146.158c439.317,-0 795.458,65.437 795.458,146.158Z" style="fill:#fbddea;fill-rule:nonzero;"/><path d="M1847.47,954.183l-15.646,-2.604c-0,0 -5.417,-120.458 -18.113,-156.925c0,0 -173.525,-4.137 -199.137,-132.079c-0,0 134.112,-40.904 199.646,112.921c-0,-0 -6.088,-116.446 -34.371,-228.342c-0,0 -130.779,20.842 -147.963,-93.333c0,-0 79.729,-36.204 138.83,35.471c-0,-0 -17.28,-89.45 -37.767,-135.459c-0,0 -98.783,13.792 -126.684,-84.296c0,0 72.45,-8.562 117.267,44.246l-33.783,-94.946c-0,0 -79.138,-64.012 -55.517,-157.654c0,0 89.663,41.03 66.646,147.142l32.45,102.967c-0,-0 16.017,-96.28 85.608,-95.692c0,-0 0.425,118.254 -72.054,135.05c0,0 32.479,94.729 41.138,163.508c-0,0 -1.921,-125.375 102.741,-142.312c0,-0 29.209,98.304 -92.82,163.2c-0,-0 21.575,103.912 29.35,234.379c-0,-0 -22.15,-124.617 99.879,-189.513c-0,0 65.046,108.396 -91.513,219.767c0,0 13.429,72.317 11.813,154.504Z" style="fill:#7dc08c;fill-rule:nonzero;"/><path d="M2057.43,529.829l-7.533,-4.408c0,-0 20.871,-62.996 21.504,-84.242c0,0 -88.4,-36.204 -76.442,-107.012c0,-0 76.984,5.308 80.467,97.262c0,0 19.738,-61.062 27.171,-124.146c-0,0 -71.329,-14.966 -57.742,-77.046c0,0 48.1,-2.954 64.413,45.501c-0,-0 8.683,-49.38 7.183,-77.059c0,0 -53.496,-12.308 -48.575,-68.216c0,-0 38.925,9.829 51.6,45.774l1.275,-55.445c0,-0 -28.112,-48.455 2.421,-91.959c0,0 38.033,38.705 5.367,88.734l-3.538,59.316c0,0 27.146,-46.354 62.804,-32.387c0,-0 -23.008,60.883 -63.566,55.283c-0,0 -1.905,55.083 -10.959,92.146c0,0 23.634,-64.837 80.771,-52.996c0,0 -4.287,56.279 -79.771,65.683c0,0 -9.316,57.659 -30.941,126.263c-0,0 13.087,-68.417 88.566,-77.817c0,0 12.159,68.5 -90.204,95.013c0,-0 -7.3,39.821 -24.271,81.758Z" style="fill:#a0d5ae;fill-rule:nonzero;"/><path d="M2509.35,1032.28l17.408,-1.495c0,-0 16.721,-128.567 33.917,-166.571c0,-0 190.813,9.912 230.371,-124.996c-0,-0 -143.533,-54.892 -229.217,104.442c0,-0 17.096,-124.217 58.15,-241.717c0,-0 141.663,33.129 170.738,-87.729c-0,-0 -84.267,-45.363 -155.538,26.512c0,0 26.967,-94.375 53.563,-141.954c-0,-0 107.183,22.937 146.579,-79.808c0,-0 -78.746,-15.154 -132.658,37.695l45.571,-98.891c-0,-0 92.579,-62.021 75.033,-164.259c-0,0 -102.075,36.53 -86.309,152.076l-44.825,107.595c0,0 -8.966,-104.437 -85.391,-109.566c-0,-0 -11.046,126.616 67,150.6c-0,-0 -44.125,98.77 -59.779,171.712c-0,0 13.325,-134.116 -100.034,-160.908c0,-0 -40.845,102.871 87.275,182.462c0,0 -32.975,109.5 -53.175,248.592c0,-0 35.454,-131.629 -92.662,-211.225c-0,-0 -81.092,110.708 80.771,242.938c-0,-0 -21.204,76.341 -26.788,164.495Z" style="fill:#fac5ca;fill-rule:nonzero;"/><path d="M1466.1,1399.36l12.533,-9.729c0,0 -50.679,-106.266 -56.325,-143.729c0,0 150.371,-86.587 113.971,-208.958c-0,-0 -136.513,28.971 -123.233,192.712c-0,0 -48.246,-103.133 -74.921,-212.975c-0,0 124.354,-44.633 86.891,-151.117c0,0 -86.629,6.98 -105.508,96.946c0,0 -26,-85.258 -29.2,-134.654c0,0 93.038,-35.391 72.379,-133.166c0,-0 -67.516,27.3 -82.541,94.191l-14.05,-97.883c-0,-0 39.987,-92.963 -23.838,-162.25c0,-0 -59.796,78.208 9.233,158.521l18.913,104.154c-0,-0 -58.367,-75.2 -119.163,-41.404c0,-0 54.046,101.983 125.38,81.762c-0,0 15.091,97.075 39.15,160.413c-0,-0 -56.017,-108.83 -155.659,-73.329c0,-0 19.613,98.587 156.563,96.054c-0,-0 28.887,99.758 82.108,215.766c0,0 -37.912,-117.85 -174.862,-115.321c-0,0 -7.2,124.413 181.441,145.363c0,0 21.5,68.671 60.738,138.633Z" style="fill:#fac5ca;fill-rule:nonzero;"/><path d="M1033.67,1282.35c10.279,32.834 -1.35,65.696 -25.971,73.408c-24.625,7.713 -52.921,-12.654 -63.204,-45.487c-10.28,-32.829 1.346,-65.7 25.97,-73.408c24.625,-7.713 52.921,12.654 63.205,45.487Z" style="fill:#c9ebfa;fill-rule:nonzero;"/><path d="M2466.43,1850.15l-0.008,-0l0.008,0.321l0,-0.321Z" style="fill:#1b449c;fill-rule:nonzero;"/><path d="M2462.3,1854.38l-921.004,0.087c-2.35,0 -4.075,-1.895 -4.129,-4.05l-0.034,0l0,8.25l0.004,0c0.046,2.163 1.8,4.071 4.159,4.071l921.004,-0.091c2.516,-0 4.325,-2.167 4.137,-4.484l0,-7.546c-0.191,2.025 -1.883,3.763 -4.137,3.763Z" style="fill:#1b449c;fill-rule:nonzero;"/><path d="M2410.24,1828.52c0.612,1.621 -0.584,3.35 -2.313,3.35l-63.129,0.042c-1.075,0.004 -2.029,-0.692 -2.358,-1.717l-7.3,-22.713c-0.192,-0.596 -0.146,-1.195 0.075,-1.716l-0.075,-0.238c-0.513,-1.596 0.675,-3.229 2.354,-3.229l61.817,-0.054c1.024,-0 1.945,0.637 2.312,1.6l8.617,22.721c0.241,0.629 0.196,1.283 -0.046,1.841l0.046,0.113Zm-95.604,0.233c0.475,1.588 -0.713,3.184 -2.367,3.184l-63.25,0.045c-1.146,0 -2.138,-0.787 -2.408,-1.895l-5.459,-22.7c-0.125,-0.521 -0.066,-1.03 0.113,-1.484l-0.113,-0.475c-0.375,-1.554 0.804,-3.05 2.404,-3.054l61.934,-0.046c1.095,-0.004 2.058,0.717 2.371,1.767l6.775,22.708c0.174,0.571 0.12,1.15 -0.088,1.65l0.088,0.3Zm-77.334,-37.375l-5.462,-22.7c-0.125,-0.516 -0.063,-1.029 0.116,-1.479l-0.116,-0.475c-0.371,-1.554 0.804,-3.054 2.404,-3.054l51.679,-0.054l9.858,-0.009l88.838,-0.096c1.029,0 1.95,0.638 2.316,1.596l8.617,22.721c0.242,0.638 0.196,1.288 -0.046,1.846l0.046,0.113c0.613,1.616 -0.579,3.349 -2.308,3.349l-89.209,0.08l-10.104,0.008l-54.22,0.05c-1.146,0 -2.142,-0.783 -2.409,-1.896Zm-18.292,37.625c0.334,1.542 -0.841,3 -2.416,3l-65.45,0.046l-27.409,0.017l-68.512,0.05l-27.408,0.021l-68.517,0.045l-27.408,0.021l-68.517,0.046l-93.004,0.067c-1.529,-0 -2.692,-1.371 -2.446,-2.875l0.121,-0.73c-0.138,-0.379 -0.192,-0.795 -0.121,-1.224l3.738,-22.646c0.2,-1.192 1.229,-2.067 2.441,-2.071l91.584,-0.075l66.916,-0.054l26.767,-0.025l66.916,-0.059l26.767,-0.016l66.917,-0.059l26.762,-0.025l64.925,-0.054c1.163,0 2.171,0.813 2.421,1.95l4.933,22.696c0.109,0.492 0.046,0.975 -0.12,1.404l0.12,0.55Zm-474.324,-21.316l-4.263,22.633c-0.221,1.171 -1.242,2.017 -2.429,2.017l-63.309,0.045c-1.604,0.004 -2.787,-1.508 -2.404,-3.066l0.117,-0.459c-0.183,-0.454 -0.246,-0.97 -0.117,-1.491l5.575,-22.634c0.275,-1.104 1.263,-1.879 2.4,-1.879l61.996,-0.054c1.55,-0 2.721,1.408 2.434,2.929l-0.125,0.646c0.154,0.408 0.212,0.854 0.125,1.313Zm-93.971,0.262l-6.1,22.625c-0.292,1.079 -1.271,1.829 -2.388,1.829l-63.208,0.046c-1.683,-0 -2.875,-1.642 -2.35,-3.246l0.071,-0.221c-0.225,-0.525 -0.271,-1.129 -0.071,-1.733l7.412,-22.617c0.334,-1.016 1.279,-1.704 2.346,-1.704l61.896,-0.05c1.629,0 2.817,1.546 2.392,3.117l-0.104,0.383c0.191,0.484 0.25,1.021 0.104,1.571Zm-36.1,-96.475l7.416,-22.617c0.33,-1.016 1.275,-1.7 2.346,-1.704l55.171,-0.079c1.629,-0.004 2.817,1.542 2.392,3.117l-0.105,0.383c0.196,0.479 0.25,1.021 0.105,1.567l-6.1,22.625c-0.292,1.079 -1.267,1.829 -2.384,1.833l-56.487,0.071c-1.683,0.004 -2.879,-1.638 -2.354,-3.242l0.075,-0.221c-0.225,-0.525 -0.271,-1.129 -0.075,-1.733Zm236.416,-21.925l-0.104,0.954l0.104,1l-2.425,22.654c-0.133,1.25 -1.191,2.205 -2.454,2.209l-56.654,0.07c-1.529,0.005 -2.696,-1.366 -2.446,-2.87l0.121,-0.729c-0.137,-0.384 -0.192,-0.796 -0.121,-1.23l3.738,-22.637c0.196,-1.192 1.229,-2.071 2.437,-2.071l55.342,-0.088c1.471,0 2.617,1.275 2.462,2.738Zm84.5,-0.329l-0.046,1.708l0.046,0.25l-0.587,22.658c-0.034,1.342 -1.129,2.413 -2.467,2.413l-56.696,0.075c-1.45,-0 -2.587,-1.237 -2.466,-2.679l0.091,-1.092l-0.091,-0.862l1.895,-22.654c0.109,-1.28 1.18,-2.267 2.463,-2.267l55.379,-0.083c1.396,-0.005 2.513,1.141 2.479,2.533Zm280.092,-2.967l55.212,-0.079c1.096,-0.004 2.063,0.717 2.375,1.767l6.776,22.708c0.17,0.575 0.12,1.15 -0.092,1.65l0.092,0.304c0.474,1.583 -0.713,3.179 -2.367,3.179l-56.529,0.079c-1.142,0 -2.142,-0.787 -2.409,-1.895l-5.462,-22.705c-0.121,-0.52 -0.063,-1.029 0.116,-1.479l-0.116,-0.475c-0.371,-1.554 0.804,-3.05 2.404,-3.054Zm141.938,1.383l8.616,22.725c0.242,0.638 0.196,1.284 -0.042,1.842l0.042,0.113c0.613,1.621 -0.579,3.35 -2.308,3.354l-56.413,0.071c-1.075,0.004 -2.029,-0.692 -2.358,-1.717l-7.3,-22.712c-0.192,-0.596 -0.146,-1.201 0.075,-1.721l-0.075,-0.234c-0.513,-1.595 0.675,-3.229 2.35,-3.229l55.096,-0.083c1.029,-0 1.954,0.633 2.317,1.591Zm-171.909,66.984c-1.179,-0 -2.196,-0.838 -2.429,-1.992l-4.537,-22.696c-0.096,-0.475 -0.034,-0.933 0.12,-1.35l-0.12,-0.604c-0.305,-1.529 0.858,-2.958 2.42,-2.958l57.505,-0.075c1.129,-0.004 2.116,0.762 2.395,1.858l5.859,22.704c0.137,0.534 0.079,1.063 -0.113,1.53l0.113,0.424c0.4,1.563 -0.78,3.088 -2.396,3.092l-58.817,0.067Zm-318.812,36.304l0.091,-1.088l-0.091,-0.862l1.896,-22.654c0.108,-1.279 1.174,-2.267 2.462,-2.271l59.862,-0.058c1.392,-0 2.513,1.146 2.476,2.537l-0.046,1.704l0.046,0.25l-0.588,22.659c-0.033,1.341 -1.129,2.408 -2.467,2.408l-61.179,0.058c-1.446,0 -2.587,-1.237 -2.462,-2.683Zm-90.096,2.763c-1.529,0.004 -2.692,-1.367 -2.442,-2.876l0.117,-0.724c-0.133,-0.384 -0.188,-0.796 -0.117,-1.23l3.738,-22.637c0.196,-1.196 1.229,-2.071 2.437,-2.071l59.821,-0.067c1.475,0 2.621,1.279 2.463,2.738l-0.1,0.954l0.1,1l-2.421,22.654c-0.138,1.25 -1.196,2.208 -2.459,2.208l-61.137,0.051Zm26.321,-63.392l-3.342,22.642c-0.179,1.212 -1.221,2.112 -2.446,2.112l-58.862,0.067c-1.567,0.004 -2.742,-1.438 -2.425,-2.971l0.12,-0.592c-0.158,-0.416 -0.22,-0.887 -0.12,-1.367l4.654,-22.633c0.237,-1.15 1.246,-1.971 2.421,-1.975l57.55,-0.075c1.512,0 2.671,1.342 2.45,2.838l-0.113,0.787c0.121,0.363 0.175,0.758 0.113,1.167Zm22.304,19.987l2.821,-22.645c0.154,-1.238 1.204,-2.171 2.454,-2.171l57.604,-0.071c1.433,-0.004 2.567,1.208 2.471,2.637l-0.079,1.196l0.079,0.754l-1.504,22.659c-0.088,1.295 -1.167,2.308 -2.467,2.312l-58.921,0.063c-1.487,-0 -2.637,-1.3 -2.458,-2.779l0.112,-0.871c-0.112,-0.338 -0.158,-0.705 -0.112,-1.084Zm194.629,-61.387l1.254,22.671l-0.071,0.691l0.071,1.263c0.079,1.416 -1.05,2.608 -2.466,2.612l-56.7,0.075c-1.371,0.004 -2.484,-1.108 -2.48,-2.479l0.009,-1.929l-0.009,-0.029l0.059,-22.663c0.004,-1.362 1.112,-2.466 2.47,-2.466l55.388,-0.084c1.317,0 2.4,1.025 2.475,2.338Zm84.433,-0.329l3.096,22.687c0.05,0.396 0.004,0.775 -0.117,1.125l0.117,0.829c0.2,1.484 -0.95,2.809 -2.45,2.809l-56.675,0.075c-1.291,-0 -2.366,-0.992 -2.467,-2.275l-1.779,-22.684l0.088,-0.829l-0.088,-1.125c-0.116,-1.433 1.021,-2.662 2.463,-2.666l55.358,-0.084c1.238,-0.004 2.288,0.913 2.454,2.138Zm-100.196,63.87l-0.862,-22.67l0.063,-0.363l-0.063,-1.591c-0.054,-1.405 1.071,-2.567 2.471,-2.567l57.616,-0.075c1.275,-0.004 2.346,0.967 2.467,2.233l2.171,22.684l-0.096,0.933l0.096,1.021c0.142,1.45 -1,2.708 -2.458,2.712l-58.934,0.063c-1.329,-0 -2.421,-1.05 -2.471,-2.38Zm-89.449,-0.1l0.058,-1.345l-0.058,-0.609l0.979,-22.662c0.058,-1.321 1.145,-2.363 2.471,-2.367l57.629,-0.071c1.35,0 2.454,1.084 2.475,2.434l0.333,22.671l-0.025,0.141l0.025,1.813c0.021,1.379 -1.092,2.508 -2.471,2.508l-58.941,0.067c-1.409,0.004 -2.534,-1.171 -2.475,-2.58Zm242.708,-2.545c0.079,0.45 0.025,0.875 -0.117,1.27l0.117,0.684c0.271,1.512 -0.892,2.904 -2.433,2.904l-58.888,0.067c-1.254,0.004 -2.312,-0.938 -2.458,-2.179l-2.7,-22.688l0.104,-1.063l-0.104,-0.891c-0.175,-1.467 0.97,-2.763 2.454,-2.767l57.571,-0.071c1.204,0 2.233,0.863 2.441,2.042l4.013,22.692Zm31.341,-61.542l4.934,22.696c0.108,0.496 0.046,0.971 -0.121,1.404l0.121,0.554c0.337,1.538 -0.838,2.996 -2.413,3l-56.616,0.071c-1.217,0.004 -2.255,-0.879 -2.446,-2.083l-3.621,-22.688c-0.067,-0.429 -0.013,-0.833 0.121,-1.208l-0.121,-0.75c-0.242,-1.5 0.921,-2.858 2.438,-2.858l55.304,-0.088c1.166,-0 2.17,0.808 2.42,1.95Zm-480.041,-1.221l55.271,-0.087c1.554,-0.005 2.72,1.408 2.437,2.929l-0.125,0.65c0.15,0.4 0.208,0.85 0.125,1.308l-4.262,22.638c-0.221,1.166 -1.242,2.012 -2.429,2.012l-56.584,0.079c-1.608,0.004 -2.791,-1.508 -2.408,-3.066l0.117,-0.459c-0.184,-0.454 -0.246,-0.971 -0.117,-1.496l5.575,-22.629c0.275,-1.104 1.262,-1.879 2.4,-1.879Zm-106.829,63.038l7.416,-22.617c0.334,-1.012 1.279,-1.7 2.346,-1.704l34.383,-0.042l36.171,-0.05l33.067,-0.037c1.592,-0.004 2.767,1.47 2.417,3.016l-0.117,0.521c0.171,0.442 0.233,0.934 0.117,1.438l-5.134,22.629c-0.254,1.125 -1.254,1.925 -2.408,1.925l-35.125,0.042l-37.1,0.041l-33.679,0.038c-1.684,-0 -2.875,-1.646 -2.354,-3.246l0.075,-0.217c-0.225,-0.525 -0.271,-1.137 -0.075,-1.737Zm-12.646,38.591l7.412,-22.616c0.334,-1.013 1.28,-1.7 2.346,-1.7l88.758,-0.096l9.588,-0.013l52.1,-0.054c1.55,-0.004 2.721,1.408 2.433,2.934l-0.12,0.645c0.149,0.405 0.208,0.85 0.12,1.309l-4.262,22.637c-0.217,1.167 -1.238,2.013 -2.429,2.013l-54.396,0.05l-9.829,0.012l-89.371,0.079c-1.684,0 -2.875,-1.646 -2.35,-3.245l0.071,-0.221c-0.221,-0.525 -0.271,-1.13 -0.071,-1.734Zm436.212,0.246l-0.071,0.688l0.071,1.266c0.08,1.421 -1.05,2.613 -2.466,2.613l-61.184,0.054c-1.37,-0 -2.479,-1.108 -2.475,-2.479l0.005,-1.929l-0.005,-0.025l0.059,-22.667c0.004,-1.367 1.108,-2.467 2.47,-2.467l59.871,-0.066c1.313,-0 2.396,1.025 2.471,2.341l1.254,22.671Zm92.546,-0.279c0.054,0.392 0.009,0.775 -0.112,1.125l0.112,0.825c0.204,1.488 -0.95,2.808 -2.446,2.813l-61.158,0.054c-1.292,-0 -2.367,-0.992 -2.467,-2.28l-1.779,-22.679l0.088,-0.833l-0.088,-1.121c-0.116,-1.437 1.021,-2.666 2.463,-2.671l59.841,-0.058c1.238,-0 2.288,0.908 2.454,2.137l3.092,22.688Zm92.521,-0.275c0.104,0.492 0.046,0.975 -0.121,1.404l0.121,0.55c0.333,1.542 -0.842,3 -2.417,3l-61.1,0.05c-1.216,0.004 -2.25,-0.879 -2.441,-2.083l-3.625,-22.688c-0.067,-0.42 -0.013,-0.833 0.125,-1.208l-0.125,-0.746c-0.234,-1.5 0.921,-2.862 2.446,-2.862l59.779,-0.063c1.166,-0.004 2.175,0.813 2.421,1.946l4.937,22.7Zm167.958,-33.946l-33.229,0.038l-36.808,0.037l-34.929,0.042c-1.109,-0 -2.088,-0.742 -2.388,-1.808l-6.346,-22.709c-0.158,-0.558 -0.1,-1.112 0.1,-1.596l-0.1,-0.358c-0.441,-1.575 0.742,-3.138 2.38,-3.138l32.633,-0.045l35.887,-0.046l34.175,-0.046c1.03,-0 1.954,0.637 2.317,1.6l8.617,22.721c0.241,0.637 0.196,1.283 -0.042,1.841l0.042,0.113c0.612,1.621 -0.58,3.35 -2.309,3.354Zm-772.583,-77.379l-68.546,171.742c-0.217,0.55 -0.283,1.104 -0.266,1.645c0.054,2.155 1.779,4.05 4.129,4.05l921.004,-0.087c2.254,-0 3.946,-1.738 4.137,-3.763l0,-0.145l-0.008,-0.321c-0.012,-0.542 -0.096,-1.088 -0.342,-1.629l-77.158,-171.492l-782.95,0Z" style="fill:#bcdcf3;fill-rule:nonzero;"/><path d="M1642.23,1830.45l-63.208,0.042c-1.05,-0 -1.909,-0.638 -2.279,-1.509l-0.071,0.221c-0.525,1.604 0.667,3.246 2.35,3.246l63.208,-0.046c1.117,0 2.096,-0.75 2.388,-1.829l6.1,-22.625c0.146,-0.55 0.087,-1.087 -0.104,-1.571l-5.996,22.242c-0.292,1.079 -1.271,1.829 -2.388,1.829Z" style="fill:#1f3a70;fill-rule:nonzero;"/><path d="M1738,1830.38l-63.309,0.046c-1.062,0 -1.929,-0.666 -2.287,-1.571l-0.117,0.459c-0.383,1.558 0.8,3.07 2.404,3.066l63.309,-0.045c1.187,-0 2.208,-0.846 2.429,-2.017l4.263,-22.633c0.087,-0.459 0.029,-0.905 -0.125,-1.313l-4.138,21.996c-0.221,1.167 -1.242,2.012 -2.429,2.012Z" style="fill:#1f3a70;fill-rule:nonzero;"/><path d="M2216.6,1830.05l-65.45,0.046l-27.409,0.021l-68.512,0.045l-27.408,0.017l-68.517,0.05l-27.408,0.021l-68.517,0.046l-93.004,0.066c-1.092,0 -1.984,-0.704 -2.325,-1.65l-0.121,0.73c-0.246,1.504 0.917,2.875 2.446,2.875l93.004,-0.067l68.517,-0.046l27.408,-0.021l68.517,-0.045l27.408,-0.021l68.512,-0.05l27.409,-0.017l65.45,-0.046c1.575,0 2.75,-1.458 2.416,-3l-0.12,-0.55c-0.355,0.917 -1.225,1.596 -2.296,1.596Z" style="fill:#1f3a70;fill-rule:nonzero;"/><path d="M2312.27,1829.98l-63.25,0.042c-1.146,0.004 -2.138,-0.779 -2.408,-1.892l-5.346,-22.229c-0.179,0.454 -0.238,0.963 -0.113,1.484l5.459,22.7c0.27,1.108 1.262,1.895 2.408,1.895l63.25,-0.045c1.654,-0 2.842,-1.596 2.367,-3.184l-0.088,-0.3c-0.371,0.879 -1.229,1.525 -2.279,1.529Z" style="fill:#1f3a70;fill-rule:nonzero;"/><path d="M2407.93,1829.92l-63.129,0.046c-1.075,-0 -2.029,-0.692 -2.358,-1.721l-7.225,-22.475c-0.221,0.521 -0.267,1.12 -0.075,1.716l7.3,22.713c0.329,1.025 1.283,1.721 2.358,1.717l63.129,-0.042c1.729,-0 2.925,-1.729 2.313,-3.35l-0.046,-0.113c-0.367,0.867 -1.217,1.509 -2.267,1.509Z" style="fill:#1f3a70;fill-rule:nonzero;"/><path d="M1591.67,1793.86l89.371,-0.079l9.829,-0.012l54.396,-0.05c1.191,-0 2.212,-0.846 2.429,-2.013l4.262,-22.637c0.088,-0.459 0.029,-0.904 -0.12,-1.309l-4.142,21.992c-0.217,1.167 -1.238,2.017 -2.429,2.017l-54.396,0.046l-9.829,0.008l-89.371,0.083c-1.05,0 -1.909,-0.642 -2.279,-1.512l-0.071,0.221c-0.525,1.599 0.666,3.245 2.35,3.245Z" style="fill:#1f3a70;fill-rule:nonzero;"/><path d="M1840.34,1791.43l2.421,-22.654l-0.1,-1l-2.321,21.696c-0.138,1.258 -1.196,2.208 -2.459,2.212l-61.137,0.054c-1.092,0 -1.984,-0.7 -2.325,-1.649l-0.117,0.724c-0.25,1.509 0.913,2.88 2.442,2.876l61.137,-0.051c1.263,0 2.321,-0.958 2.459,-2.208Z" style="fill:#1f3a70;fill-rule:nonzero;"/><path d="M1869.3,1793.61l61.179,-0.058c1.338,0 2.434,-1.067 2.467,-2.408l0.588,-22.659l-0.046,-0.25l-0.542,20.954c-0.033,1.342 -1.129,2.413 -2.467,2.413l-61.179,0.054c-1.141,0 -2.087,-0.779 -2.371,-1.817l-0.091,1.088c-0.125,1.446 1.016,2.683 2.462,2.683Z" style="fill:#1f3a70;fill-rule:nonzero;"/><path d="M2023.07,1791.52l-61.184,0.054c-1.358,-0 -2.462,-1.1 -2.47,-2.454l-0.005,1.929c-0.004,1.371 1.105,2.479 2.475,2.479l61.184,-0.054c1.416,-0 2.546,-1.192 2.466,-2.613l-0.071,-1.266c-0.254,1.095 -1.22,1.92 -2.395,1.925Z" style="fill:#1f3a70;fill-rule:nonzero;"/><path d="M2115.63,1791.43l-61.158,0.059c-1.292,-0 -2.367,-0.992 -2.467,-2.284l-1.691,-21.554l-0.088,0.833l1.779,22.679c0.1,1.288 1.175,2.28 2.467,2.28l61.158,-0.054c1.496,-0.005 2.65,-1.325 2.446,-2.813l-0.112,-0.825c-0.325,0.967 -1.234,1.679 -2.334,1.679Z" style="fill:#1f3a70;fill-rule:nonzero;"/><path d="M2208.18,1791.35l-61.1,0.054c-1.216,0 -2.25,-0.883 -2.441,-2.083l-3.5,-21.946c-0.138,0.375 -0.192,0.788 -0.125,1.208l3.625,22.688c0.191,1.204 1.225,2.087 2.441,2.083l61.1,-0.05c1.575,0 2.75,-1.458 2.417,-3l-0.121,-0.55c-0.354,0.917 -1.225,1.592 -2.296,1.596Z" style="fill:#1f3a70;fill-rule:nonzero;"/><path d="M2304.04,1793.22l89.209,-0.08c1.729,0 2.921,-1.733 2.308,-3.349l-0.046,-0.113c-0.366,0.862 -1.216,1.508 -2.262,1.508l-89.209,0.075l-10.104,0.013l-54.22,0.05c-1.146,-0 -2.142,-0.784 -2.409,-1.896l-5.346,-22.225c-0.179,0.45 -0.241,0.963 -0.116,1.479l5.462,22.7c0.267,1.113 1.263,1.896 2.409,1.896l54.22,-0.05l10.104,-0.008Z" style="fill:#1f3a70;fill-rule:nonzero;"/><path d="M1604.32,1755.27l33.679,-0.038l37.1,-0.041l35.125,-0.042c1.154,-0 2.154,-0.8 2.408,-1.925l5.134,-22.629c0.116,-0.504 0.054,-0.996 -0.117,-1.438l-5.017,22.113c-0.254,1.125 -1.254,1.925 -2.408,1.929l-35.125,0.037l-37.1,0.038l-33.679,0.041c-1.05,0 -1.908,-0.641 -2.279,-1.508l-0.075,0.217c-0.521,1.6 0.67,3.246 2.354,3.246Z" style="fill:#1f3a70;fill-rule:nonzero;"/><path d="M1797.28,1753.1l-58.862,0.067c-1.075,-0 -1.954,-0.684 -2.305,-1.609l-0.12,0.592c-0.317,1.533 0.858,2.975 2.425,2.971l58.862,-0.067c1.225,-0 2.267,-0.9 2.446,-2.112l3.342,-22.642c0.062,-0.409 0.008,-0.804 -0.113,-1.167l-3.229,21.854c-0.179,1.213 -1.221,2.109 -2.446,2.113Z" style="fill:#1f3a70;fill-rule:nonzero;"/><path d="M1827.83,1755.02l58.921,-0.063c1.3,-0.004 2.379,-1.017 2.467,-2.312l1.504,-22.659l-0.079,-0.754l-1.425,21.459c-0.088,1.299 -1.167,2.308 -2.467,2.308l-58.921,0.067c-1.104,-0 -2.025,-0.721 -2.346,-1.696l-0.112,0.871c-0.179,1.479 0.971,2.779 2.458,2.779Z" style="fill:#1f3a70;fill-rule:nonzero;"/><path d="M1917.26,1754.92l58.941,-0.067c1.379,0 2.492,-1.129 2.471,-2.508l-0.025,-1.813c-0.063,1.313 -1.117,2.363 -2.446,2.367l-58.941,0.066c-1.196,0 -2.18,-0.849 -2.417,-1.97l-0.058,1.345c-0.059,1.409 1.066,2.584 2.475,2.58Z" style="fill:#1f3a70;fill-rule:nonzero;"/><path d="M2006.71,1754.82l58.934,-0.063c1.458,-0.004 2.6,-1.262 2.458,-2.712l-0.096,-1.021c-0.3,1.016 -1.229,1.775 -2.362,1.775l-58.934,0.066c-1.329,0.005 -2.421,-1.05 -2.471,-2.383l-0.799,-21.075l-0.063,0.363l0.862,22.67c0.05,1.33 1.142,2.38 2.471,2.38Z" style="fill:#1f3a70;fill-rule:nonzero;"/><path d="M2155.06,1752.7l-58.888,0.063c-1.254,-0 -2.312,-0.934 -2.458,-2.18l-2.596,-21.796l-0.104,1.063l2.7,22.688c0.146,1.241 1.204,2.183 2.458,2.179l58.888,-0.067c1.541,-0 2.704,-1.392 2.433,-2.904l-0.117,-0.684c-0.341,0.938 -1.229,1.634 -2.316,1.638Z" style="fill:#1f3a70;fill-rule:nonzero;"/><path d="M2246.87,1751.46l-0.113,-0.424c-0.358,0.895 -1.221,1.558 -2.283,1.558l-58.817,0.066c-1.179,0.005 -2.196,-0.829 -2.429,-1.987l-4.417,-22.092c-0.154,0.417 -0.216,0.875 -0.12,1.35l4.537,22.696c0.233,1.154 1.25,1.992 2.429,1.992l58.817,-0.067c1.616,-0.004 2.796,-1.529 2.396,-3.092Z" style="fill:#1f3a70;fill-rule:nonzero;"/><path d="M2380.87,1751.05l-0.042,-0.113c-0.371,0.867 -1.217,1.509 -2.267,1.509l-33.229,0.042l-36.808,0.041l-34.929,0.033c-1.109,0.005 -2.088,-0.733 -2.388,-1.804l-6.246,-22.35c-0.2,0.484 -0.258,1.038 -0.1,1.596l6.346,22.709c0.3,1.066 1.279,1.808 2.388,1.808l34.929,-0.042l36.808,-0.037l33.229,-0.038c1.729,-0.004 2.921,-1.733 2.309,-3.354Z" style="fill:#1f3a70;fill-rule:nonzero;"/><path d="M1616.97,1716.67l56.487,-0.071c1.117,-0.004 2.092,-0.754 2.384,-1.833l6.1,-22.625c0.145,-0.546 0.091,-1.088 -0.105,-1.567l-5.995,22.237c-0.292,1.08 -1.267,1.83 -2.384,1.83l-56.487,0.075c-1.05,0.004 -1.909,-0.638 -2.279,-1.509l-0.075,0.221c-0.525,1.604 0.671,3.246 2.354,3.242Z" style="fill:#1f3a70;fill-rule:nonzero;"/><path d="M1762.24,1712.51c-0.221,1.167 -1.242,2.013 -2.429,2.017l-56.584,0.079c-1.066,0 -1.933,-0.666 -2.291,-1.571l-0.117,0.459c-0.383,1.558 0.8,3.07 2.408,3.066l56.584,-0.079c1.187,0 2.208,-0.846 2.429,-2.012l4.262,-22.638c0.083,-0.458 0.025,-0.908 -0.125,-1.308l-4.137,21.987Z" style="fill:#1f3a70;fill-rule:nonzero;"/><path d="M1848.61,1712.2c-0.133,1.258 -1.191,2.208 -2.454,2.208l-56.654,0.079c-1.092,0 -1.988,-0.7 -2.325,-1.649l-0.121,0.729c-0.25,1.504 0.917,2.875 2.446,2.87l56.654,-0.07c1.263,-0.004 2.321,-0.959 2.454,-2.209l2.425,-22.654l-0.104,-1l-2.321,21.696Z" style="fill:#1f3a70;fill-rule:nonzero;"/><path d="M1934.95,1711.89c-0.034,1.338 -1.129,2.405 -2.467,2.409l-56.696,0.075c-1.146,-0 -2.087,-0.779 -2.375,-1.817l-0.091,1.092c-0.121,1.442 1.016,2.679 2.466,2.679l56.696,-0.075c1.338,0 2.433,-1.071 2.467,-2.413l0.587,-22.658l-0.046,-0.25l-0.541,20.958Z" style="fill:#1f3a70;fill-rule:nonzero;"/><path d="M2018.79,1714.17l-56.7,0.079c-1.363,0.004 -2.463,-1.1 -2.471,-2.454l-0.009,1.929c-0.004,1.371 1.109,2.483 2.48,2.479l56.7,-0.075c1.416,-0.004 2.545,-1.196 2.466,-2.612l-0.071,-1.263c-0.25,1.088 -1.216,1.917 -2.395,1.917Z" style="fill:#1f3a70;fill-rule:nonzero;"/><path d="M2105.08,1714.06l-56.675,0.074c-1.291,0.005 -2.366,-0.991 -2.467,-2.279l-1.691,-21.554l-0.088,0.829l1.779,22.684c0.101,1.283 1.176,2.275 2.467,2.275l56.675,-0.075c1.5,-0 2.65,-1.325 2.45,-2.809l-0.117,-0.829c-0.325,0.967 -1.233,1.679 -2.333,1.684Z" style="fill:#1f3a70;fill-rule:nonzero;"/><path d="M2191.36,1713.95l-56.616,0.075c-1.217,-0 -2.255,-0.884 -2.446,-2.084l-3.5,-21.941c-0.134,0.375 -0.188,0.779 -0.121,1.208l3.621,22.688c0.191,1.204 1.229,2.087 2.446,2.083l56.616,-0.071c1.575,-0.004 2.75,-1.462 2.413,-3l-0.121,-0.554c-0.35,0.917 -1.221,1.596 -2.292,1.596Z" style="fill:#1f3a70;fill-rule:nonzero;"/><path d="M2277.62,1713.83l-56.529,0.075c-1.142,0.004 -2.142,-0.779 -2.409,-1.891l-5.346,-22.23c-0.179,0.45 -0.237,0.959 -0.116,1.479l5.462,22.705c0.267,1.108 1.267,1.895 2.409,1.895l56.529,-0.079c1.654,0 2.841,-1.596 2.367,-3.179l-0.092,-0.304c-0.363,0.879 -1.225,1.525 -2.275,1.529Z" style="fill:#1f3a70;fill-rule:nonzero;"/><path d="M2363.87,1713.71l-56.413,0.079c-1.075,-0 -2.029,-0.692 -2.358,-1.717l-7.225,-22.483c-0.221,0.52 -0.267,1.125 -0.075,1.721l7.3,22.712c0.329,1.025 1.283,1.721 2.358,1.717l56.413,-0.071c1.729,-0.004 2.921,-1.733 2.308,-3.354l-0.042,-0.113c-0.37,0.867 -1.216,1.509 -2.266,1.509Z" style="fill:#1f3a70;fill-rule:nonzero;"/><path d="M1648.33,1802.88l-61.896,0.05c-1.067,0 -2.012,0.688 -2.346,1.704l-7.412,22.617c-0.2,0.604 -0.154,1.208 0.071,1.733c0.37,0.871 1.229,1.509 2.279,1.509l63.208,-0.042c1.117,-0 2.096,-0.75 2.388,-1.829l5.996,-22.242l0.104,-0.383c0.425,-1.571 -0.763,-3.117 -2.392,-3.117Z" style="fill:#fff;fill-rule:nonzero;"/><path d="M1742.25,1802.8l-61.996,0.054c-1.137,0 -2.125,0.775 -2.4,1.879l-5.575,22.634c-0.129,0.521 -0.066,1.037 0.117,1.491c0.358,0.905 1.225,1.571 2.287,1.571l63.309,-0.046c1.187,0 2.208,-0.845 2.429,-2.012l4.138,-21.996l0.125,-0.646c0.287,-1.521 -0.884,-2.929 -2.434,-2.929Z" style="fill:#fff;fill-rule:nonzero;"/><path d="M2219.01,1827.05l-4.933,-22.696c-0.25,-1.137 -1.258,-1.95 -2.421,-1.95l-64.925,0.054l-26.762,0.025l-66.917,0.059l-26.767,0.016l-66.916,0.059l-26.767,0.025l-66.916,0.054l-91.584,0.075c-1.212,0.004 -2.241,0.879 -2.441,2.071l-3.738,22.646c-0.071,0.429 -0.017,0.845 0.121,1.224c0.341,0.946 1.233,1.65 2.325,1.65l93.004,-0.066l68.517,-0.046l27.408,-0.021l68.517,-0.05l27.408,-0.017l68.512,-0.045l27.409,-0.021l65.45,-0.046c1.071,0 1.941,-0.679 2.296,-1.596c0.166,-0.429 0.229,-0.912 0.12,-1.404Z" style="fill:#fff;fill-rule:nonzero;"/><path d="M2314.64,1826.8l-6.775,-22.708c-0.313,-1.05 -1.276,-1.771 -2.371,-1.767l-61.934,0.046c-1.6,0.004 -2.779,1.5 -2.404,3.054l0.113,0.475l5.346,22.229c0.27,1.113 1.262,1.896 2.408,1.892l63.25,-0.042c1.05,-0.004 1.908,-0.65 2.279,-1.529c0.208,-0.5 0.262,-1.079 0.088,-1.65Z" style="fill:#fff;fill-rule:nonzero;"/><path d="M2410.24,1826.57l-8.617,-22.721c-0.367,-0.963 -1.288,-1.6 -2.312,-1.6l-61.817,0.054c-1.679,0 -2.867,1.633 -2.354,3.229l0.075,0.238l7.225,22.475c0.329,1.029 1.283,1.721 2.358,1.721l63.129,-0.046c1.05,-0 1.9,-0.642 2.267,-1.509c0.242,-0.558 0.287,-1.212 0.046,-1.841Z" style="fill:#fff;fill-rule:nonzero;"/><path d="M1591.67,1791.9l89.371,-0.083l9.829,-0.008l54.396,-0.046c1.191,-0 2.212,-0.85 2.429,-2.017l4.142,-21.992l0.12,-0.645c0.288,-1.526 -0.883,-2.938 -2.433,-2.934l-52.1,0.054l-9.588,0.013l-88.758,0.096c-1.066,-0 -2.012,0.687 -2.346,1.7l-7.412,22.616c-0.2,0.604 -0.15,1.209 0.071,1.734c0.37,0.87 1.229,1.512 2.279,1.512Z" style="fill:#fff;fill-rule:nonzero;"/><path d="M1776.75,1791.74l61.137,-0.054c1.263,-0.004 2.321,-0.954 2.459,-2.212l2.321,-21.696l0.1,-0.954c0.158,-1.459 -0.988,-2.738 -2.463,-2.738l-59.821,0.067c-1.208,0 -2.241,0.875 -2.437,2.071l-3.738,22.637c-0.071,0.434 -0.016,0.846 0.117,1.23c0.341,0.949 1.233,1.649 2.325,1.649Z" style="fill:#fff;fill-rule:nonzero;"/><path d="M1869.3,1791.65l61.179,-0.054c1.338,0 2.434,-1.071 2.467,-2.413l0.542,-20.954l0.046,-1.704c0.037,-1.391 -1.084,-2.537 -2.476,-2.537l-59.862,0.058c-1.288,0.004 -2.354,0.992 -2.462,2.271l-1.896,22.654l0.091,0.862c0.284,1.038 1.23,1.817 2.371,1.817Z" style="fill:#fff;fill-rule:nonzero;"/><path d="M2021.81,1763.89l-59.871,0.066c-1.362,0 -2.466,1.1 -2.47,2.467l-0.059,22.667l0.005,0.025c0.008,1.354 1.112,2.454 2.47,2.454l61.184,-0.054c1.175,-0.005 2.141,-0.83 2.395,-1.925l0.071,-0.688l-1.254,-22.671c-0.075,-1.316 -1.158,-2.341 -2.471,-2.341Z" style="fill:#fff;fill-rule:nonzero;"/><path d="M2112.53,1763.8l-59.841,0.058c-1.442,0.005 -2.579,1.234 -2.463,2.671l0.088,1.121l1.691,21.554c0.1,1.292 1.175,2.284 2.467,2.284l61.158,-0.059c1.1,0 2.009,-0.712 2.334,-1.679c0.121,-0.35 0.166,-0.733 0.112,-1.125l-3.092,-22.688c-0.166,-1.229 -1.216,-2.137 -2.454,-2.137Z" style="fill:#fff;fill-rule:nonzero;"/><path d="M2203.24,1763.7l-59.779,0.063c-1.525,-0 -2.68,1.362 -2.446,2.862l0.125,0.746l3.5,21.946c0.191,1.2 1.225,2.083 2.441,2.083l61.1,-0.054c1.071,-0.004 1.942,-0.679 2.296,-1.596c0.167,-0.429 0.225,-0.912 0.121,-1.404l-4.937,-22.7c-0.246,-1.133 -1.255,-1.95 -2.421,-1.946Z" style="fill:#fff;fill-rule:nonzero;"/><path d="M2237.3,1789.42c0.267,1.112 1.263,1.896 2.409,1.896l54.22,-0.05l10.104,-0.013l89.209,-0.075c1.046,0 1.896,-0.646 2.262,-1.508c0.242,-0.558 0.288,-1.208 0.046,-1.846l-8.617,-22.721c-0.366,-0.958 -1.287,-1.596 -2.316,-1.596l-88.838,0.096l-9.858,0.009l-51.679,0.054c-1.6,-0 -2.775,1.5 -2.404,3.054l0.116,0.475l5.346,22.225Z" style="fill:#fff;fill-rule:nonzero;"/><path d="M1604.32,1753.31l33.679,-0.041l37.1,-0.038l35.125,-0.037c1.154,-0.004 2.154,-0.804 2.408,-1.929l5.017,-22.113l0.117,-0.521c0.35,-1.546 -0.825,-3.02 -2.417,-3.016l-33.067,0.037l-36.171,0.05l-34.383,0.042c-1.067,0.004 -2.012,0.692 -2.346,1.704l-7.416,22.617c-0.196,0.6 -0.15,1.212 0.075,1.737c0.371,0.867 1.229,1.508 2.279,1.508Z" style="fill:#fff;fill-rule:nonzero;"/><path d="M1800.62,1725.5l-57.55,0.075c-1.175,0.004 -2.184,0.825 -2.421,1.975l-4.654,22.633c-0.1,0.48 -0.038,0.951 0.12,1.367c0.351,0.925 1.23,1.609 2.305,1.609l58.862,-0.067c1.225,-0.004 2.267,-0.9 2.446,-2.113l3.229,-21.854l0.113,-0.787c0.221,-1.496 -0.938,-2.838 -2.45,-2.838Z" style="fill:#fff;fill-rule:nonzero;"/><path d="M1827.83,1753.06l58.921,-0.067c1.3,-0 2.379,-1.009 2.467,-2.308l1.425,-21.459l0.079,-1.196c0.096,-1.429 -1.038,-2.641 -2.471,-2.637l-57.604,0.071c-1.25,-0 -2.3,0.933 -2.454,2.171l-2.821,22.645c-0.046,0.379 -0,0.746 0.112,1.084c0.321,0.975 1.242,1.696 2.346,1.696Z" style="fill:#fff;fill-rule:nonzero;"/><path d="M1917.26,1752.96l58.941,-0.066c1.329,-0.004 2.383,-1.054 2.446,-2.367l0.025,-0.141l-0.333,-22.671c-0.021,-1.35 -1.125,-2.434 -2.475,-2.434l-57.629,0.071c-1.326,0.004 -2.413,1.046 -2.471,2.367l-0.979,22.662l0.058,0.609c0.237,1.121 1.221,1.97 2.417,1.97Z" style="fill:#fff;fill-rule:nonzero;"/><path d="M2004.24,1750.48c0.05,1.333 1.142,2.388 2.471,2.383l58.934,-0.066c1.133,-0 2.062,-0.759 2.362,-1.775l0.096,-0.933l-2.171,-22.684c-0.121,-1.266 -1.192,-2.237 -2.467,-2.233l-57.616,0.075c-1.4,-0 -2.525,1.162 -2.471,2.567l0.063,1.591l0.799,21.075Z" style="fill:#fff;fill-rule:nonzero;"/><path d="M2151.04,1725.06l-57.571,0.071c-1.484,0.004 -2.629,1.3 -2.454,2.767l0.104,0.891l2.596,21.796c0.146,1.246 1.204,2.18 2.458,2.18l58.888,-0.063c1.087,-0.004 1.975,-0.7 2.316,-1.638c0.142,-0.395 0.196,-0.82 0.117,-1.27l-4.013,-22.692c-0.208,-1.179 -1.237,-2.042 -2.441,-2.042Z" style="fill:#fff;fill-rule:nonzero;"/><path d="M2183.22,1750.67c0.233,1.158 1.25,1.992 2.429,1.987l58.817,-0.066c1.062,-0 1.925,-0.663 2.283,-1.558c0.192,-0.467 0.25,-0.996 0.113,-1.53l-5.859,-22.704c-0.279,-1.096 -1.266,-1.862 -2.395,-1.858l-57.505,0.075c-1.562,-0 -2.725,1.429 -2.42,2.958l0.12,0.604l4.417,22.092Z" style="fill:#fff;fill-rule:nonzero;"/><path d="M2273.59,1752.56l34.929,-0.033l36.808,-0.041l33.229,-0.042c1.05,-0 1.896,-0.642 2.267,-1.509c0.238,-0.558 0.283,-1.204 0.042,-1.841l-8.617,-22.721c-0.363,-0.963 -1.287,-1.6 -2.317,-1.6l-34.175,0.046l-35.887,0.046l-32.633,0.045c-1.638,0 -2.821,1.563 -2.38,3.138l0.1,0.358l6.246,22.35c0.3,1.071 1.279,1.809 2.388,1.804Z" style="fill:#fff;fill-rule:nonzero;"/><path d="M1616.97,1714.72l56.487,-0.075c1.117,-0 2.092,-0.75 2.384,-1.83l5.995,-22.237l0.105,-0.383c0.425,-1.575 -0.763,-3.121 -2.392,-3.117l-55.171,0.079c-1.071,0.004 -2.016,0.688 -2.346,1.704l-7.416,22.617c-0.196,0.604 -0.15,1.208 0.075,1.733c0.37,0.871 1.229,1.513 2.279,1.509Z" style="fill:#fff;fill-rule:nonzero;"/><path d="M1700.82,1711.54c-0.129,0.525 -0.067,1.042 0.117,1.496c0.358,0.905 1.225,1.571 2.291,1.571l56.584,-0.079c1.187,-0.004 2.208,-0.85 2.429,-2.017l4.137,-21.987l0.125,-0.65c0.283,-1.521 -0.883,-2.934 -2.437,-2.929l-55.271,0.087c-1.138,0 -2.125,0.775 -2.4,1.879l-5.575,22.629Z" style="fill:#fff;fill-rule:nonzero;"/><path d="M1790.79,1688.97l-3.738,22.637c-0.071,0.434 -0.016,0.846 0.121,1.23c0.337,0.949 1.233,1.649 2.325,1.649l56.654,-0.079c1.263,0 2.321,-0.95 2.454,-2.208l2.321,-21.696l0.104,-0.954c0.155,-1.463 -0.991,-2.738 -2.462,-2.738l-55.342,0.088c-1.208,0 -2.241,0.879 -2.437,2.071Z" style="fill:#fff;fill-rule:nonzero;"/><path d="M1875.21,1689.04l-1.895,22.654l0.091,0.862c0.288,1.038 1.229,1.817 2.375,1.817l56.696,-0.075c1.338,-0.004 2.433,-1.071 2.467,-2.409l0.541,-20.958l0.046,-1.708c0.034,-1.392 -1.083,-2.538 -2.479,-2.533l-55.379,0.083c-1.283,-0 -2.354,0.987 -2.463,2.267Z" style="fill:#fff;fill-rule:nonzero;"/><path d="M1959.67,1689.11l-0.059,22.663l0.009,0.029c0.008,1.354 1.108,2.458 2.471,2.454l56.7,-0.079c1.179,0 2.145,-0.829 2.395,-1.917l0.071,-0.691l-1.254,-22.671c-0.075,-1.313 -1.158,-2.338 -2.475,-2.338l-55.388,0.084c-1.358,-0 -2.466,1.104 -2.47,2.466Z" style="fill:#fff;fill-rule:nonzero;"/><path d="M2044.16,1689.18l0.088,1.125l1.691,21.554c0.101,1.288 1.176,2.284 2.467,2.279l56.675,-0.074c1.1,-0.005 2.008,-0.717 2.333,-1.684c0.121,-0.35 0.167,-0.729 0.117,-1.125l-3.096,-22.687c-0.166,-1.225 -1.216,-2.142 -2.454,-2.138l-55.358,0.084c-1.442,0.004 -2.579,1.233 -2.463,2.666Z" style="fill:#fff;fill-rule:nonzero;"/><path d="M2128.68,1689.25l0.121,0.75l3.5,21.941c0.191,1.2 1.229,2.084 2.446,2.084l56.616,-0.075c1.071,-0 1.942,-0.679 2.292,-1.596c0.167,-0.433 0.229,-0.908 0.121,-1.404l-4.934,-22.696c-0.25,-1.142 -1.254,-1.95 -2.42,-1.95l-55.304,0.088c-1.517,-0 -2.68,1.358 -2.438,2.858Z" style="fill:#fff;fill-rule:nonzero;"/><path d="M2213.22,1689.31l0.116,0.475l5.346,22.23c0.267,1.112 1.267,1.895 2.409,1.891l56.529,-0.075c1.05,-0.004 1.912,-0.65 2.275,-1.529c0.212,-0.5 0.262,-1.075 0.092,-1.65l-6.776,-22.708c-0.312,-1.05 -1.279,-1.771 -2.375,-1.767l-55.212,0.079c-1.6,0.004 -2.775,1.5 -2.404,3.054Z" style="fill:#fff;fill-rule:nonzero;"/><path d="M2300.15,1686.13c-1.675,0 -2.863,1.634 -2.35,3.229l0.075,0.234l7.225,22.483c0.329,1.025 1.283,1.717 2.358,1.717l56.413,-0.079c1.05,-0 1.896,-0.642 2.266,-1.509c0.238,-0.558 0.284,-1.204 0.042,-1.842l-8.616,-22.725c-0.363,-0.958 -1.288,-1.591 -2.317,-1.591l-55.096,0.083Z" style="fill:#fff;fill-rule:nonzero;"/><path d="M2166.84,1569.3l-0,-159.838l-313.496,0l-0,159.838c-29.554,18.967 -64.621,30.104 -102.346,30.104c-0,7.129 5.779,12.904 12.908,12.904l492.371,0c7.129,0 12.908,-5.775 12.908,-12.904c-37.729,0 -72.791,-11.137 -102.345,-30.104Z" style="fill:#1f3a70;fill-rule:nonzero;"/><rect x="1851.89" y="1372.58" width="316.167" height="88.921" style="fill:#0d0f2c;fill-rule:nonzero;"/><path d="M2683.18,1330.37l0,-709.317c0,-42.775 -34.679,-77.454 -77.454,-77.454l-1191.28,-0c-42.775,-0 -77.45,34.679 -77.45,77.454l-0,709.317l1346.19,-0Z" style="fill:#5091cd;fill-rule:nonzero;"/><path d="M2683.18,1330.37l0,9.875c0,42.779 -34.679,77.454 -77.454,77.454l-1191.28,-0c-42.775,-0 -77.45,-34.675 -77.45,-77.454l-0,-9.875l1346.19,-0Z" style="fill:#1d439b;fill-rule:nonzero;"/><rect x="1406.15" y="612.754" width="1207.88" height="648.462" style="fill:#bcdcf3;fill-rule:nonzero;"/><path d="M1463.43,762.329c0,-56.696 45.963,-102.662 102.663,-102.662c56.696,-0 102.662,45.966 102.662,102.662c0,56.7 -45.966,102.663 -102.662,102.663c-56.7,-0 -102.663,-45.963 -102.663,-102.663Z" style="fill:#acceed;fill-rule:nonzero;"/><path d="M2086.4,743.667l-293.983,-0c-11.55,-0 -21,-9.455 -21,-21c-0,-11.55 9.45,-21 21,-21l293.983,-0c11.55,-0 21,9.45 21,21c0,11.545 -9.45,21 -21,21Z" style="fill:#acceed;fill-rule:nonzero;"/><path d="M2086.4,832.325l-293.983,-0c-11.55,-0 -21,-9.45 -21,-20.996c-0,-11.554 9.45,-21 21,-21l293.983,0c11.55,0 21,9.446 21,21c0,11.546 -9.45,20.996 -21,20.996Z" style="fill:#acceed;fill-rule:nonzero;"/><path d="M2086.4,920.987l-293.983,0c-11.55,0 -21,-9.445 -21,-20.999c-0,-11.546 9.45,-21 21,-21l293.983,-0c11.55,-0 21,9.454 21,21c0,11.554 -9.45,20.999 -21,20.999Z" style="fill:#acceed;fill-rule:nonzero;"/><path d="M2049.07,1028.32l-555.304,-0c-11.55,-0 -21,-9.45 -21,-21c-0,-11.546 9.45,-21 21,-21l555.304,-0c11.546,-0 21,9.454 21,21c-0,11.55 -9.454,21 -21,21Z" style="fill:#acceed;fill-rule:nonzero;"/><path d="M2049.07,1116.98l-555.304,0c-11.55,0 -21,-9.446 -21,-20.996c-0,-11.546 9.45,-21 21,-21l555.304,0c11.546,0 21,9.454 21,21c-0,11.55 -9.454,20.996 -21,20.996Z" style="fill:#acceed;fill-rule:nonzero;"/><path d="M2443.06,1414.16l-505.846,0c0,35.342 28.917,64.255 64.259,64.255l505.842,-0c-35.338,-0 -64.255,-28.913 -64.255,-64.255Z" style="fill:#357abe;fill-rule:nonzero;"/><path d="M2513.38,1298.55l-252.241,-0c-4.813,-0 -8.713,-3.9 -8.713,-8.708c0,-4.813 3.9,-8.713 8.713,-8.713l252.241,0c4.813,0 8.713,3.9 8.713,8.713c-0,4.808 -3.9,8.708 -8.713,8.708Zm-41.979,33.041l-211.391,0c-4.188,0 -7.584,-3.391 -7.584,-7.583c0,-4.187 3.396,-7.579 7.584,-7.579l211.391,0c4.192,0 7.583,3.392 7.583,7.579c0,4.192 -3.391,7.583 -7.583,7.583Zm-184.929,-834.445c2.612,-0 4.729,2.112 4.729,4.72c0,2.609 -2.117,4.725 -4.729,4.725c-2.608,0 -4.725,-2.116 -4.725,-4.725c-0,-2.608 2.117,-4.72 4.725,-4.72Zm107.533,124.275c0,4.808 -6.071,8.712 -13.554,8.712l-283.642,0c-7.487,0 -13.554,-3.904 -13.554,-8.712c0,-4.817 6.067,-8.713 13.554,-8.713l283.642,0c7.483,0 13.554,3.896 13.554,8.713Zm146.371,25.175c4.808,-0 8.709,3.896 8.709,8.712c-0,4.809 -3.901,8.709 -8.709,8.709l-443.567,-0c-7.487,-0 -13.554,-3.9 -13.554,-8.709c0,-4.816 6.071,-8.712 13.554,-8.712l443.567,-0Zm-32.446,245.033l-410.12,-0c-7.826,-0 -14.163,-3.9 -14.163,-8.708c-0,-4.817 6.337,-8.713 14.163,-8.713l410.12,0c7.821,0 14.163,3.896 14.163,8.713c-0,4.808 -6.342,8.708 -14.163,8.708Zm-261.137,356.837c-0,-5.116 4.187,-9.295 9.3,-9.295l256.191,-0c5.113,-0 9.296,4.179 9.296,9.295c0,5.117 -4.183,9.296 -9.296,9.296l-256.191,0c-5.113,0 -9.3,-4.179 -9.3,-9.296Zm274.471,-251.024c-0,5.108 -4.188,9.295 -9.3,9.295l-428.179,0c-5.113,0 -9.296,-4.187 -9.296,-9.295c-0,-5.117 4.183,-9.296 9.296,-9.296l428.179,-0c5.112,-0 9.3,4.179 9.3,9.296Zm-3.396,49.466c-1.613,1.342 -3.654,2.184 -5.904,2.184l-428.179,-0c-5.113,-0 -9.296,-4.188 -9.296,-9.296c-0,-5.117 4.183,-9.3 9.296,-9.3l428.179,-0c0.85,-0 1.662,0.158 2.441,0.37c4.325,0.513 7.688,4.15 7.688,8.609c-0,3.167 -1.7,5.908 -4.225,7.433Zm-434.083,47.638c-5.113,-0 -9.296,-4.18 -9.296,-9.3c-0,-5.109 4.183,-9.296 9.296,-9.296l175.366,-0c0.642,-0.146 1.3,-0.25 1.988,-0.25l16.308,-0l0.008,0.25l28.45,-0l-0.012,-0.25l207.487,-0c4.813,-0 8.713,3.908 8.713,8.712c-0,2.325 -0.921,4.417 -2.396,5.975c-1.675,2.5 -4.517,4.159 -7.733,4.159l-428.179,-0Zm437.795,118.796c0,5.116 -4.183,9.299 -9.296,9.299l-152.62,0l0.508,0.334l-99.033,-0c-0.788,-0 -1.529,-0.138 -2.255,-0.334l-2.791,0c-5.113,0 -9.3,-4.183 -9.3,-9.299c-0,-5.109 4.187,-9.296 9.3,-9.296l256.191,-0c5.113,-0 9.296,4.187 9.296,9.296Zm-9.616,-258.255l0.987,0.096l0.429,0c4.813,0 8.713,3.904 8.713,8.713c-0,2.808 -1.35,5.279 -3.413,6.875c-1.695,1.779 -4.075,2.912 -6.716,2.912l-428.179,0c-5.113,0 -9.296,-4.187 -9.296,-9.3c-0,-5.112 4.183,-9.296 9.296,-9.296l428.179,0Zm59.429,-428.691c-0,-22.904 18.433,-41.671 41.187,-42.3l-566.795,-0c-0.392,-0.013 -0.78,-0.063 -1.175,-0.063c-0.396,0 -0.78,0.05 -1.176,0.063c-22.754,0.629 -41.183,19.396 -41.183,42.3l0,0.87l-0.083,0.088l-0,886.808l440.887,0c0,35.342 28.913,64.255 64.255,64.255c35.341,-0 64.258,-28.913 64.258,-64.255l-0,-867.458l2.054,-3.104l-2.229,-0l-0,-17.204Z" style="fill:#fffcf9;fill-rule:nonzero;"/><path d="M2286.48,506.587c2.608,0 4.725,-2.116 4.725,-4.725c0,-2.612 -2.117,-4.72 -4.725,-4.72c-2.612,-0 -4.729,2.108 -4.729,4.72c-0,2.609 2.117,4.725 4.729,4.725Z" style="fill:#fff;fill-rule:nonzero;"/><path d="M2514.41,1030.86c-0.779,-0.212 -1.591,-0.37 -2.441,-0.37l-428.179,-0c-5.113,-0 -9.296,4.183 -9.296,9.3c-0,5.108 4.183,9.296 9.296,9.296l428.179,-0c2.25,-0 4.291,-0.842 5.904,-2.184c2.525,-1.525 4.225,-4.266 4.225,-7.433c-0,-4.459 -3.363,-8.096 -7.688,-8.609Z" style="fill:#82aedd;fill-rule:nonzero;"/><path d="M2471.4,1316.42l-211.391,0c-4.188,0 -7.584,3.392 -7.584,7.579c0,4.192 3.396,7.583 7.584,7.583l211.391,0c4.192,0 7.583,-3.391 7.583,-7.583c0,-4.187 -3.391,-7.579 -7.583,-7.579Z" style="fill:#bcdcf3;fill-rule:nonzero;"/><path d="M2513.39,1281.12l-252.246,0c-4.813,0 -8.713,3.9 -8.713,8.713c0,4.808 3.9,8.708 8.713,8.708l252.246,-0c4.808,-0 8.708,-3.9 8.708,-8.708c-0,-4.813 -3.9,-8.713 -8.708,-8.713Z" style="fill:#82aedd;fill-rule:nonzero;"/><path d="M2727.93,1343.66l0.092,-0.071l0.133,-0.179l-0.225,0.25Z" style="fill:#1f3a70;fill-rule:nonzero;"/><path d="M2613.76,484.029c-0.396,0 -0.779,0.05 -1.175,0.063c-22.754,0.629 -41.187,19.396 -41.187,42.3l-0,17.204l34.333,-0c19.25,-0 36.842,7.042 50.392,18.662l-0,-35.866c-0,-23.3 -19.063,-42.363 -42.363,-42.363Z" style="fill:#2c64af;fill-rule:nonzero;"/><path d="M2256.1,1204.04c-5.117,-0 -9.296,4.187 -9.296,9.296c-0,5.116 4.179,9.299 9.296,9.299l2.791,0c0.726,0.196 1.467,0.334 2.255,0.334l99.033,-0l-0.508,-0.334l152.62,0c5.113,0 9.296,-4.183 9.296,-9.299c0,-5.109 -4.183,-9.296 -9.296,-9.296l-256.191,-0Z" style="fill:#82aedd;fill-rule:nonzero;"/><path d="M2521.58,1248.46c0,-5.116 -4.183,-9.295 -9.296,-9.295l-256.191,-0c-5.117,-0 -9.296,4.179 -9.296,9.295c-0,5.117 4.179,9.296 9.296,9.296l256.191,0c5.113,0 9.296,-4.179 9.296,-9.296Z" style="fill:#82aedd;fill-rule:nonzero;"/><path d="M2507.93,874.204l-410.12,0c-7.826,0 -14.163,3.896 -14.163,8.713c-0,4.808 6.337,8.708 14.163,8.708l410.12,-0c7.821,-0 14.163,-3.9 14.163,-8.708c-0,-4.817 -6.342,-8.713 -14.163,-8.713Z" style="fill:#82aedd;fill-rule:nonzero;"/><path d="M2083.79,955.083c-5.113,0 -9.296,4.184 -9.296,9.296c-0,5.113 4.183,9.3 9.296,9.3l428.179,0c2.641,0 5.021,-1.133 6.716,-2.912c2.063,-1.596 3.413,-4.067 3.413,-6.875c-0,-4.809 -3.9,-8.713 -8.713,-8.713l-0.429,0l-0.987,-0.096l-428.179,0Z" style="fill:#82aedd;fill-rule:nonzero;"/><path d="M2083.79,988.142c-5.113,-0 -9.296,4.179 -9.296,9.296c-0,5.108 4.183,9.295 9.296,9.295l428.179,0c5.112,0 9.3,-4.187 9.3,-9.295c-0,-5.117 -4.188,-9.296 -9.3,-9.296l-428.179,-0Z" style="fill:#82aedd;fill-rule:nonzero;"/><path d="M2511.97,1094.54c3.216,-0 6.058,-1.659 7.733,-4.159c1.475,-1.558 2.396,-3.65 2.396,-5.975c-0,-4.804 -3.9,-8.712 -8.708,-8.712l-207.492,-0l0.012,0.25l-28.45,-0l-0.008,-0.25l-16.308,-0c-0.688,-0 -1.346,0.104 -1.988,0.25l-175.366,-0c-5.113,-0 -9.296,4.187 -9.296,9.296c-0,5.12 4.183,9.3 9.296,9.3l428.179,-0Z" style="fill:#82aedd;fill-rule:nonzero;"/><path d="M2096.81,646.592c-7.483,-0 -13.554,3.896 -13.554,8.712c0,4.809 6.067,8.709 13.554,8.709l438.721,-0c7.488,-0 13.555,-3.9 13.555,-8.709c-0,-4.816 -6.067,-8.712 -13.555,-8.712l-438.721,-0Z" style="fill:#bcdcf3;fill-rule:nonzero;"/><path d="M2096.81,612.704c-7.487,0 -13.554,3.896 -13.554,8.713c0,4.808 6.067,8.712 13.554,8.712l283.642,0c7.483,0 13.554,-3.904 13.554,-8.712c0,-4.817 -6.071,-8.713 -13.554,-8.713l-283.642,0Z" style="fill:#60a4d9;fill-rule:nonzero;"/><path d="M2086.76,836.846l111.675,-0l18.984,-37.613l-55.833,-110.608l-74.826,148.221Z" style="fill:#f7911d;fill-rule:nonzero;"/><path d="M2198.44,836.846l111,-0l-27.884,-55.242l-27.616,-54.708l-36.517,72.337l-18.984,37.613Z" style="fill:#82aedd;fill-rule:nonzero;"/><path d="M2099.04,1261.28c-0,-30.021 24.333,-54.354 54.354,-54.354c30.016,0 54.35,24.333 54.35,54.354c-0,30.017 -24.334,54.35 -54.35,54.35c-30.021,0 -54.354,-24.333 -54.354,-54.35Z" style="fill:#82aedd;fill-rule:nonzero;"/><path d="M2641.03,1263.23l-0.333,-0.187l-0.483,-0.288l-1.029,-0.646c-0.696,-0.429 -1.409,-0.92 -2.117,-1.391c-1.421,-0.975 -2.842,-1.988 -4.25,-3.046c-2.821,-2.1 -5.579,-4.346 -8.271,-6.679c-5.388,-4.663 -10.525,-9.667 -15.342,-14.954c-9.687,-10.559 -18.095,-22.217 -25.433,-34.492c-7.225,-12.338 -13.387,-25.308 -18.225,-38.771c-4.892,-13.454 -8.65,-27.333 -11.317,-41.45l-0.004,-0.016c-0.471,-2.48 -3.042,-4.113 -5.746,-3.651c-2.571,0.442 -4.333,2.646 -4.091,5c1.55,14.696 4.25,29.342 8.208,43.75c3.9,14.426 9.254,28.559 15.875,42.25c6.738,13.634 14.746,26.834 24.383,39.13c4.796,6.158 10,12.083 15.621,17.754c2.808,2.833 5.721,5.6 8.804,8.279c1.538,1.342 3.121,2.662 4.746,3.971c0.838,0.65 1.646,1.3 2.529,1.95l1.334,0.979l0.708,0.504l0.879,0.588c5.525,3.379 13.042,1.958 16.783,-3.175c3.742,-5.134 2.296,-12.034 -3.229,-15.409Z" style="fill:#fac5ca;fill-rule:nonzero;"/><path d="M2655.68,1673.72l-5.337,20.892l-10.988,-1.742l3.342,-23.25l12.983,4.1Z" style="fill:#fac5ca;fill-rule:nonzero;"/><path d="M2660.91,1677.86l-26.129,-2.141c0,-0 -7.221,-166.088 -3.921,-197.1c3.3,-31.004 0.109,-91.883 0.109,-91.883l29.333,18.587l14.796,101.375l6.987,15.575c0,-0 -13.008,29.117 -13.237,49.417c-0.229,20.3 11.483,54.304 -7.938,106.17Z" style="fill:#084e4a;fill-rule:nonzero;"/><path d="M2655.01,1690.19l-20.804,2.846c0,-0 -21.566,11.133 -18.125,18.499c3.446,7.363 39.729,-3.32 39.729,-3.32c0,-0 1.525,-16.571 -0.8,-18.025Z" style="fill:#084e4a;fill-rule:nonzero;"/><path d="M2781.44,1516.68l15.305,-15.012l8.308,9.812l-18.013,14.575l-5.6,-9.375Z" style="fill:#fac5ca;fill-rule:nonzero;"/><path d="M2634.53,1158.37c0,-0 -8.196,18.358 -8.529,19.558c-2.271,8.204 -9.592,40.579 15.179,44.129l-5.446,25.663l-10.829,14.283c0,0 18.921,-1.837 36.592,-9.304l18.058,-64.438l-15.058,-16.358l-20.913,-11.75l-9.054,-1.783Z" style="fill:#fac5ca;fill-rule:nonzero;"/><path d="M2649.91,1249.1l-18.726,2.179c0,-0 -27.141,41.108 -23.583,53.2c3.563,12.1 20.988,61.833 21.163,78.204l54.154,-5.429c-0,-0 5.142,-78.237 3.946,-99.667c-1.196,-21.425 -10.796,-29.8 -10.796,-29.8l-26.158,1.313Z" style="fill:#f47920;fill-rule:nonzero;"/><path d="M2628.77,1382.68c-0,0 34.025,177.008 74.654,205.229c47.471,32.967 104.175,-56.708 104.175,-56.708l-34.284,-27.687c0,-0 -42.662,72.383 -56.704,36.92c-14.041,-35.462 2.242,-102.654 -6.791,-121.021c-9.038,-18.358 -26.896,-42.162 -26.896,-42.162l-54.154,5.429Z" style="fill:#0c858b;fill-rule:nonzero;"/><path d="M2791.35,1500.19l14.408,15.271c0,0 21.596,11.08 25.588,4c3.992,-7.083 -25.796,-30.4 -25.796,-30.4c0,0 -14.371,8.392 -14.2,11.129Z" style="fill:#084e4a;fill-rule:nonzero;"/><path d="M2625.34,1151.63c0,0 -9.333,16.884 18.992,18.988c28.321,2.108 22.479,11.041 22.479,11.041c0,0 -36.716,45.005 5.121,59.242c23.696,8.059 57.708,-26.483 42.85,-59.866c-14.862,-33.384 0.554,-29.05 -29.408,-34.921c-29.963,-5.867 -30,-18.834 -60.034,5.516Z" style="fill:#084e4a;fill-rule:nonzero;"/><path d="M2675.57,1152.86c-0,-1.837 -14.7,-39.208 13.479,-32.466c28.179,6.737 63.708,30.629 44.721,42.266c-18.992,11.642 -34.921,13.479 -41.046,9.188c-6.125,-4.284 -17.154,-18.988 -17.154,-18.988Z" style="fill:#084e4a;fill-rule:nonzero;"/><path d="M2178.29,826.412c-0,-119.708 97.041,-216.749 216.75,-216.749c119.708,-0 216.749,97.041 216.749,216.749c0,119.705 -97.041,216.75 -216.749,216.75c-119.709,0 -216.75,-97.045 -216.75,-216.75Z" style="fill:#fffcf9;fill-rule:nonzero;"/><clipPath id="_clip1"><path d="M2178.29,826.412c-0,-119.708 97.041,-216.749 216.75,-216.749c119.708,-0 216.749,97.041 216.749,216.749c0,119.705 -97.041,216.75 -216.749,216.75c-119.709,0 -216.75,-97.045 -216.75,-216.75Z" clip-rule="nonzero"/></clipPath><g clip-path="url(#_clip1)"><path d="M2497.61,694.583c-0,-15.941 -12.921,-28.862 -28.859,-28.862l-665.733,-0c-5.838,18.758 -10.425,38.058 -13.967,57.725l679.7,-0c15.938,-0 28.859,-12.925 28.859,-28.863Z" style="fill:#82aedd;fill-rule:nonzero;"/><path d="M2497.61,843.471c-0,-15.942 -12.921,-28.863 -28.859,-28.863l-687.446,0c0.18,19.542 1.571,38.792 4,57.717l683.446,0c15.938,0 28.859,-12.921 28.859,-28.854Z" style="fill:#82aedd;fill-rule:nonzero;"/></g><path d="M2482.71,1005.84c-26.746,13.012 -56.771,20.329 -88.509,20.329c-32.316,-0 -62.842,-7.609 -89.946,-21.063c-59.362,-29.466 -102.175,-87.162 -110.945,-155.537c-1.013,-7.909 -1.596,-15.946 -1.671,-24.105c-0.005,-0.641 -0.046,-1.266 -0.046,-1.904c-0,-12.35 1.167,-24.425 3.283,-36.162c1.479,-8.213 3.396,-16.267 5.834,-24.104c3.766,-12.117 8.67,-23.725 14.537,-34.746c3.867,-7.271 8.179,-14.267 12.875,-20.979c6.146,-8.784 12.963,-17.046 20.388,-24.734c8.554,-8.85 17.904,-16.916 27.937,-24.1c33.192,-23.758 73.821,-37.787 117.754,-37.787c68.071,-0 128.254,33.604 164.992,85.092c23.654,33.145 37.612,73.691 37.612,117.52c0,43.825 -13.958,84.367 -37.612,117.517c-19.609,27.475 -45.871,49.871 -76.483,64.763Zm113.883,11.991c11.258,-11.258 29.512,-11.258 40.771,0l121.054,121.054l-0.004,-0.004l-170.421,-170.421c30.254,-40.391 48.171,-90.558 48.171,-144.9c-0,-69.85 -29.634,-132.75 -76.971,-176.916c-43.225,-40.329 -101.209,-65.05 -164.992,-65.05c-28.421,-0 -55.679,4.941 -81.012,13.941c-15.542,5.525 -30.371,12.555 -44.267,20.98c-19.183,11.633 -36.588,25.891 -51.796,42.22c-7.071,7.592 -13.642,15.646 -19.7,24.1c-5.666,7.913 -10.912,16.15 -15.608,24.734c-3.729,6.8 -7.125,13.8 -10.196,20.979c-4.775,11.175 -8.75,22.779 -11.817,34.746c-2.02,7.883 -3.645,15.929 -4.871,24.104c-1.766,11.796 -2.695,23.867 -2.695,36.162c-0,0.638 0.037,1.263 0.046,1.904c0.062,8.134 0.512,16.176 1.358,24.105c6.608,61.787 36.487,116.587 80.687,155.537c10.092,8.896 20.921,16.971 32.405,24.104c16.583,10.3 34.499,18.646 53.437,24.734c23.337,7.487 48.2,11.579 74.029,11.579c12.492,-0 24.75,-1.004 36.729,-2.829c44.13,-6.725 84.355,-25.313 117.259,-52.492l11.004,11.008l37.396,37.4c-11.259,-11.266 -11.259,-29.516 0.004,-40.779Z" style="fill:#1f3a70;fill-rule:nonzero;"/><path d="M2775.24,1155.7l-16.817,-16.817l-121.054,-121.054c-11.259,-11.258 -29.513,-11.258 -40.771,0c-11.263,11.263 -11.263,29.513 -0.004,40.779l0.004,0l137.871,137.867c11.258,11.262 29.512,11.262 40.771,0l0.274,-0.3l0.313,-0.346c10.642,-11.3 10.467,-29.075 -0.587,-40.129Z" style="fill:#357abe;fill-rule:nonzero;"/><path d="M2394.2,1026.17c-32.316,-0 -62.842,-7.609 -89.946,-21.063c-52.645,-26.133 -92.279,-74.475 -106.687,-132.779l271.183,0c15.938,0 28.859,-12.921 28.859,-28.854c-0,-15.942 -12.921,-28.863 -28.859,-28.863l-276.954,0c0.417,-9.246 1.475,-18.325 3.079,-27.212c1.479,-8.213 3.396,-16.267 5.834,-24.104c3.766,-12.117 8.67,-23.725 14.537,-34.746c0.913,-1.717 1.85,-3.417 2.808,-5.1l250.696,-0c15.938,-0 28.859,-12.925 28.859,-28.863c-0,-15.941 -12.921,-28.862 -28.859,-28.862l-201.504,-0c2.996,-2.417 6.062,-4.746 9.2,-6.988c33.192,-23.758 73.821,-37.787 117.754,-37.787c68.071,-0 128.254,33.604 164.992,85.092c23.654,33.145 37.612,73.691 37.612,117.52c0,43.825 -13.958,84.367 -37.612,117.517c-19.609,27.475 -45.871,49.871 -76.483,64.763c-26.746,13.012 -56.771,20.329 -88.509,20.329Z" style="fill:#cbe2f2;fill-rule:nonzero;"/><path d="M2468.75,723.446l-250.696,-0c3.113,-5.454 6.479,-10.75 10.067,-15.879c6.146,-8.784 12.963,-17.046 20.388,-24.734c5.883,-6.083 12.141,-11.8 18.737,-17.112l201.504,-0c15.938,-0 28.859,12.921 28.859,28.862c-0,15.938 -12.921,28.863 -28.859,28.863Z" style="fill:#6c9ad1;fill-rule:nonzero;"/><path d="M2468.75,872.325l-271.183,0c-1.838,-7.433 -3.267,-15.025 -4.258,-22.758c-1.013,-7.909 -1.596,-15.946 -1.671,-24.105c-0.005,-0.641 -0.046,-1.266 -0.046,-1.904c-0,-3 0.071,-5.983 0.204,-8.95l276.954,0c15.938,0 28.859,12.921 28.859,28.863c-0,15.933 -12.921,28.854 -28.859,28.854Z" style="fill:#6c9ad1;fill-rule:nonzero;"/><path d="M2390.97,1043.16c-119.709,0 -216.75,-97.045 -216.75,-216.75c-0,-119.708 97.041,-216.749 216.75,-216.749c119.708,-0 216.75,97.041 216.75,216.749c-0,119.705 -97.042,216.75 -216.75,216.75Zm-193.396,-170.837c14.408,58.304 54.042,106.646 106.687,132.779c27.104,13.454 57.63,21.063 89.946,21.063c31.738,-0 61.763,-7.317 88.509,-20.329c30.612,-14.892 56.874,-37.288 76.483,-64.763c23.654,-33.15 37.612,-73.692 37.612,-117.517c0,-43.829 -13.958,-84.375 -37.612,-117.52c-36.738,-51.488 -96.921,-85.092 -164.992,-85.092c-43.933,-0 -84.562,14.029 -117.754,37.787c-3.138,2.242 -6.204,4.571 -9.2,6.988c-6.596,5.312 -12.854,11.029 -18.737,17.112c-7.425,7.688 -14.242,15.95 -20.388,24.734c-3.588,5.129 -6.954,10.425 -10.067,15.879c-0.958,1.683 -1.895,3.383 -2.808,5.1c-5.867,11.021 -10.771,22.629 -14.537,34.746c-2.438,7.837 -4.355,15.891 -5.834,24.104c-1.604,8.887 -2.662,17.966 -3.079,27.212c-0.133,2.967 -0.204,5.95 -0.204,8.95c-0,0.638 0.041,1.263 0.046,1.904c0.075,8.159 0.658,16.196 1.671,24.105c0.991,7.733 2.42,15.325 4.258,22.758Z" style="fill:#21366c;fill-rule:nonzero;"/><path d="M2683.97,1275.53l-0.067,-0.375l-0.083,-0.562l-0.158,-1.2c-0.105,-0.809 -0.18,-1.676 -0.267,-2.521c-0.146,-1.717 -0.267,-3.459 -0.346,-5.213c-0.166,-3.517 -0.183,-7.071 -0.087,-10.633c0.183,-7.121 0.787,-14.267 1.816,-21.35c2.009,-14.183 5.679,-28.083 10.505,-41.546c4.945,-13.412 11.054,-26.408 18.387,-38.7c7.288,-12.312 15.629,-24.025 24.842,-35.054l0.008,-0.009c1.621,-1.933 1.254,-4.962 -0.825,-6.758c-1.975,-1.704 -4.796,-1.667 -6.458,0.009c-10.371,10.537 -19.971,21.916 -28.596,34.12c-8.671,12.171 -16.192,25.279 -22.567,39.088c-6.254,13.858 -11.371,28.425 -14.754,43.679c-1.712,7.617 -2.992,15.396 -3.8,23.337c-0.408,3.971 -0.696,7.98 -0.808,12.059c-0.063,2.037 -0.08,4.1 -0.054,6.187c0.025,1.059 0.037,2.096 0.095,3.192l0.092,1.654l0.058,0.871l0.105,1.046c0.895,6.421 6.766,11.321 13.108,10.954c6.341,-0.362 10.754,-5.863 9.854,-12.275Z" style="fill:#fac5ca;fill-rule:nonzero;"/><path d="M2421.31,684.292c0,-11.242 9.113,-20.354 20.359,-20.354c11.237,-0 20.35,9.112 20.35,20.354c-0,11.241 -9.113,20.35 -20.35,20.35c-11.246,-0 -20.359,-9.109 -20.359,-20.35Z" style="fill:#fffcf9;fill-rule:nonzero;"/><path d="M2478.3,754.758c0,-22.054 17.879,-39.933 39.934,-39.933c22.058,0 39.937,17.879 39.937,39.933c-0,22.059 -17.879,39.938 -39.937,39.938c-22.055,-0 -39.934,-17.879 -39.934,-39.938Z" style="fill:#fffcf9;fill-rule:nonzero;"/><path d="M1641.77,1703.51l-0,-56.537l-25.304,-0l-0,66.871c15.204,-2.171 25.304,-5.988 25.304,-10.334Z" style="fill:#3c64af;fill-rule:nonzero;"/><path d="M1558.22,1713.84l-0,-66.871l-25.305,-0l0,56.537c0,4.346 10.1,8.163 25.305,10.334Z" style="fill:#1f3a70;fill-rule:nonzero;"/><path d="M1597.73,1041.81c-4.042,-0.1 -5.158,-13.416 -9.279,-15.62l19.467,82.708l3.871,16.446l2.091,8.887c2.067,-1.887 3.717,-5.333 5.463,-8.887c2.716,-5.525 5.67,-11.313 10.825,-11.909c2.295,-0.266 4.858,0.529 7.2,1.896l-2.829,-6.433l-31.95,-72.621c-1.351,3.192 -3.13,5.579 -4.859,5.533Z" style="fill:#e6f3fc;fill-rule:nonzero;"/><path d="M1544.51,1111.01c5.025,0.767 7.545,7.788 10,14.334c1.708,4.571 3.387,8.9 5.858,10.716l2.521,-10.716l3.875,-16.446l19.487,-82.804c-4.612,1.904 -7.958,16.2 -12.258,15.716c-1.167,-0.129 -2.171,-1.333 -2.984,-3.079l-30.866,70.167l-1.521,3.458c2.054,-1.087 4.096,-1.625 5.888,-1.346Z" style="fill:#fdd4b3;fill-rule:nonzero;"/><path d="M1573.24,1125.34c3.271,-6.313 6.533,-13.421 10.437,-16.446c1.254,-0.975 2.571,-1.538 3.979,-1.5c1.321,0.029 2.534,0.583 3.667,1.5c3.8,3.058 6.721,10.266 9.762,16.446c2.805,5.691 5.709,10.504 9.513,10.37c1.225,-0.037 2.3,-0.583 3.279,-1.483l-2.091,-8.887l-3.871,-16.446l-19.467,-82.708l-1.004,-0.309c-0.408,-0.033 -0.8,0.054 -1.192,0.213l-19.487,82.804l-3.875,16.446l-2.521,10.716c0.691,0.509 1.45,0.838 2.287,0.896c3.98,0.292 7.288,-5.25 10.584,-11.612Z" style="fill:#f4e7d8;fill-rule:nonzero;"/><path d="M1587.34,1715.74c10.716,-0 20.7,-0.7 29.125,-1.9l-0,-66.871l-58.25,-0l-0,66.871c8.425,1.2 18.408,1.9 29.125,1.9Z" style="fill:#1d439b;fill-rule:nonzero;"/><path d="M1574,1041.81c4.3,0.484 7.646,-13.812 12.258,-15.716c0.392,-0.159 0.784,-0.246 1.192,-0.213l1.004,0.309c4.121,2.204 5.237,15.52 9.279,15.62c1.729,0.046 3.508,-2.341 4.859,-5.533l-15.246,-34.663l-16.33,37.117c0.813,1.746 1.817,2.95 2.984,3.079Z" style="fill:#f2759c;fill-rule:nonzero;"/><path d="M1630.17,1113.43c-5.155,0.596 -8.109,6.384 -10.825,11.909c-1.746,3.554 -3.396,7 -5.463,8.887l1.492,6.334l1.096,4.649l-0,447.713l25.304,0l-0,-467.583l-4.404,-10.013c-2.342,-1.367 -4.905,-2.162 -7.2,-1.896Z" style="fill:#0dbfee;fill-rule:nonzero;"/><rect x="1616.47" y="1592.92" width="25.304" height="54.046" style="fill:#ebebec;fill-rule:nonzero;"/><rect x="1532.91" y="1592.92" width="25.304" height="54.046" style="fill:#c4c4c4;fill-rule:nonzero;"/><path d="M1558.22,1592.92l-0,-447.713l0.141,-0.599l2.013,-8.555c-2.471,-1.816 -4.15,-6.145 -5.858,-10.716c-2.455,-6.546 -4.975,-13.567 -10,-14.334c-1.792,-0.279 -3.834,0.259 -5.888,1.346l-5.713,12.988l0,467.583l25.305,0Z" style="fill:#2c64af;fill-rule:nonzero;"/><path d="M1616.47,1145.21l-1.096,-4.649l-1.492,-6.334c-0.979,0.9 -2.054,1.446 -3.279,1.483c-3.804,0.134 -6.708,-4.679 -9.513,-10.37c-3.041,-6.18 -5.962,-13.388 -9.762,-16.446c-1.133,-0.917 -2.346,-1.471 -3.667,-1.5c-1.408,-0.038 -2.725,0.525 -3.979,1.5c-3.904,3.025 -7.166,10.133 -10.437,16.446c-3.296,6.362 -6.604,11.904 -10.584,11.612c-0.837,-0.058 -1.596,-0.387 -2.287,-0.896l-2.013,8.555l-0.141,0.599l-0,447.713l58.25,0l-0,-447.713Z" style="fill:#357abe;fill-rule:nonzero;"/><rect x="1558.22" y="1592.92" width="58.25" height="54.046" style="fill:#d9d9d9;fill-rule:nonzero;"/><path d="M1418.44,1776.03l26.93,6.938l-0.709,5.671l-64.487,-0l0.283,-8.8l28.063,-8.917l9.92,5.108Z" style="fill:#3f60ac;fill-rule:nonzero;"/><path d="M1331.56,1508.6c0,-0 -71.575,153.9 -93.541,177.991c-21.971,24.101 -45.359,56.696 -45.359,56.696c0,0 7.088,8.45 20.554,9.542c13.463,1.088 92.834,-95.288 99.213,-101.671c6.375,-6.375 86.55,-157.992 86.55,-157.992l-67.417,15.434Z" style="fill:#2f2f85;fill-rule:nonzero;"/><path d="M1398.88,1354.11l4.438,-31.804l2.783,-9.175c-0,0 33.804,8.713 34.046,11.058c0.245,2.338 -10.763,44.021 -10.763,44.021l-30.504,-14.1Z" style="fill:#9b7466;fill-rule:nonzero;"/><path d="M1414.17,1327.3c0,0 18.546,18.15 21.117,18.042l3.004,-12.571c-0.238,-2.234 -22.834,-5.538 -24.121,-5.471Z" style="fill:#5f463c;fill-rule:nonzero;"/><path d="M1405.57,1262.97c1.787,-0.767 3.741,-1.567 5.817,-2.33c-2.055,0.592 -3.996,1.38 -5.817,2.33Z" style="fill:#9b7466;fill-rule:nonzero;"/><path d="M1443.86,1277.15c0,0 -1.708,4.267 -4.041,6.663c-2.334,2.395 -8.138,4.504 -8.138,4.504l-4.725,16.641l-12,-1.549l-5.837,-0.25l-5.804,19.141c6.566,4.529 14.712,6.833 23.27,5.942c19.05,-1.984 32.888,-19.042 30.9,-38.092c-0.466,-4.487 -1.895,-8.671 -4.041,-12.425c-0.909,0.008 -1.684,-0.025 -2.209,-0.054c-2.812,-0.133 -7.375,-0.521 -7.375,-0.521Z" style="fill:#9b7466;fill-rule:nonzero;"/><path d="M1417.33,1259.47c-2.071,0.212 -4.046,0.612 -5.937,1.166c-2.076,0.763 -4.03,1.563 -5.817,2.33c-11.921,6.241 -18.617,19.645 -17.084,34.379c1.096,10.496 6.771,19.404 14.826,24.958l5.804,-19.141l5.837,0.25l12,1.549l4.725,-16.641c0,-0 5.804,-2.109 8.138,-4.504c2.333,-2.396 4.041,-6.663 4.041,-6.663c0,0 4.563,0.388 7.375,0.521c0.525,0.029 1.3,0.062 2.209,0.054c-6.963,-12.171 -21.554,-19.779 -36.117,-18.258Z" style="fill:#4670b7;fill-rule:nonzero;"/><path d="M1457.48,1290.15c1.988,19.05 -11.85,36.108 -30.9,38.092c-19.054,1.987 -36.108,-11.846 -38.096,-30.9c-1.983,-19.054 9.784,-35.892 28.838,-37.875c19.05,-1.988 38.171,11.633 40.158,30.683Z" style="fill:#9b7466;fill-rule:nonzero;"/><path d="M1417.61,1328.03c0,-0 29.646,12.708 36.109,8.588c3.404,-2.171 8.612,-32.05 3.766,-46.459c-4.846,-14.408 -29.612,5.025 -31.737,11.488c-2.125,6.462 -10.8,21.491 -8.138,26.383Z" style="fill:#9b7466;fill-rule:nonzero;"/><path d="M1453.75,1277.73c-6.388,-12.246 -19.754,-19.708 -34.354,-18.471c-22.45,1.9 -32.888,19.038 -30.905,38.092c1.096,10.496 6.771,19.404 14.826,24.958l5.804,-19.141l5.837,0.25l12,1.549l4.725,-16.641c0,-0 5.804,-2.109 8.138,-4.504c2.333,-2.396 4.041,-6.663 4.041,-6.663c0,0 4.563,0.388 7.375,0.521c0.579,0.029 1.471,0.071 2.513,0.05Z" style="fill:#4670b7;fill-rule:nonzero;"/><path d="M1421.58,1300.24c0.558,5.35 -2.629,10.066 -7.117,10.533c-4.483,0.467 -8.571,-3.492 -9.133,-8.842c-0.554,-5.35 2.629,-10.066 7.117,-10.533c4.487,-0.471 8.575,3.492 9.133,8.842Z" style="fill:#9b7466;fill-rule:nonzero;"/><path d="M1449.81,1277.6c0,-0 13.063,1.304 13.404,-5.729c0.342,-7.029 -6.75,-16.196 -22.924,-15.479c-16.176,0.72 -29.046,3.191 -36.001,7.224c-6.954,4.034 32.046,9.551 32.046,9.551l13.475,4.433Z" style="fill:#4670b7;fill-rule:nonzero;"/><path d="M1325.18,1517.07c0,-0 -4.958,17.87 6.379,33.458c11.338,15.592 68.03,95.671 68.03,95.671l-19.134,133.642l9.213,-0l22.679,-6.084c-0,0 17.716,-85.037 23.383,-105.587c5.671,-20.554 -37.558,-177.946 -37.558,-177.946l-72.992,26.846Z" style="fill:#4670b7;fill-rule:nonzero;"/><path d="M1198.37,1746.87l-0,10.954l28.396,31.788l15.775,-0l3.895,-5.755l-0.004,-0.004c-3.25,-2.896 -7.041,-5.146 -11.146,-6.6l-4.975,-1.754l-12.779,-32.663l-19.162,4.034Z" style="fill:#3f60ac;fill-rule:nonzero;"/><path d="M1398.31,1353.54c-0,-0 -29.196,27.616 -39.826,65.883c-10.633,38.267 -46.062,105.592 -46.062,105.592l104.092,-4.25l19.212,-158.034l-37.416,-9.191Z" style="fill:#f2759c;fill-rule:nonzero;"/><path d="M1384.27,1416.22c4.833,3.137 10.604,6.412 17.308,9.421c9.471,4.254 18.234,6.804 25.513,8.379c1.612,-12.55 3.229,-25.1 4.846,-37.654l-47.667,19.854Z" style="fill:#ee2a65;fill-rule:nonzero;"/><path d="M1568.25,1309.33c-4.879,-22.587 -7.963,-18.787 -16.467,-13.812c-8.504,4.979 0.167,6.983 -9.046,19.958c-9.212,12.971 -126.87,51.262 -126.87,51.262c-0,0 -30.946,7.138 -35.696,19.892c-4.75,12.758 -2.433,29.233 8.1,31.358c10.537,2.125 27.596,-2.808 27.596,-2.808c-0,-0 145.295,-72.996 149.55,-79.404c4.25,-6.409 7.658,-4.113 2.833,-26.446Z" style="fill:#f2759c;fill-rule:nonzero;"/><path d="M1551.78,1295.51c-7.775,4.554 -1.233,6.645 -7.087,16.879c2.042,11.095 11.021,19.741 22.279,21.296c3.425,-4.138 5.487,-4.867 1.275,-24.363c-4.879,-22.587 -7.963,-18.787 -16.467,-13.812Z" style="fill:#9b7466;fill-rule:nonzero;"/><path d="M1565.82,359.929c-5.117,0.854 -27.713,8.954 -29.842,26.433c-2.133,17.48 -8.525,72.471 -8.525,72.471l-22.596,-63.091l-16.629,-1.28c0,0 8.954,73.326 29.417,92.084c20.462,18.758 29.417,-13.217 29.417,-13.217l10.658,-35.812l8.1,-77.588Z" style="fill:#ef4d8c;fill-rule:nonzero;"/><path d="M1491.64,397.021c-0,-0 -0,-8.525 -2.559,-9.809c-2.558,-1.274 -13.641,-9.804 -15.346,-12.362c-1.704,-2.558 -8.1,-19.613 -3.837,-18.754c4.263,0.854 18.329,14.066 18.329,14.066c0,0 -2.983,-9.379 -1.704,-11.087c1.279,-1.704 8.529,10.233 9.379,12.367c0.854,2.133 2.988,26.429 2.988,26.429l-7.25,-0.85Z" style="fill:#fac5ca;fill-rule:nonzero;"/><path d="M1566.36,273.383c-1.551,4.605 -6.592,37.984 -2.834,46.15c3.763,8.171 6.575,16.221 20.617,17.634l-17.125,38.983l10.162,37.967l38.371,-12.963c0,0 24.088,-21.521 22.538,-25.95c-1.546,-4.421 -26.542,-44.912 -26.542,-44.912l-11.35,-57l-28.262,-5.921l-4.446,4.792l-1.129,1.22Z" style="fill:#fac5ca;fill-rule:nonzero;"/><path d="M1595.99,289.667c-0,-0 2.866,39.191 11.008,52.154c8.142,12.958 -2.083,38.521 8.308,46.262c6.829,5.092 26.213,32.425 33.096,37.438c11.938,8.696 27.85,4.387 41.238,-20.617c13.387,-25.004 22.791,-54.254 -28.759,-94.408c0,-0 8.942,-30.392 -7.591,-36.35c-16.538,-5.963 -20.859,-9.413 -20.859,-9.413c0,0 -7.191,-30.904 -45.2,-20.779c-38.004,10.129 -29.604,31.579 -29.604,31.579c0,0 -21.779,64.975 20.242,80.542l6.275,-18.908c-0,-0 -18.809,-4.713 -20.617,-17.634c-1.804,-12.912 2.834,-46.15 2.834,-46.15c-0,0 7.92,16.2 29.629,16.284Z" style="fill:#0c858b;fill-rule:nonzero;"/><path d="M1581.6,374.425c8.458,3.046 18.908,-15.521 28.287,-27.029c0,-0 29.3,16.275 25.5,14.646c0,-0 1.596,34.562 2.484,71.637c1.779,74.321 11.412,76.542 11.412,76.542c0,-0 -38.808,6.271 -39.662,4.996c-0.85,-1.279 -31.209,-2.013 -32.059,-5.421c-0.854,-3.413 -16.425,-55.225 -21.546,-63.325c-5.112,-8.1 -12.362,-42.629 -6.82,-52.863c5.541,-10.233 16.629,-33.679 16.629,-33.679l14.921,-9.804c-0,-0 -9.805,20.463 0.854,24.3Z" style="fill:#f2759c;fill-rule:nonzero;"/><path d="M1479.28,720.358l-1.871,24.984l-12.491,-1.25l-1.25,-25.609l15.612,1.875Z" style="fill:#fac6ca;fill-rule:nonzero;"/><path d="M1595.08,705.138l9.192,23.304l-11.788,4.312l-12.274,-22.504l14.87,-5.112Z" style="fill:#fac6ca;fill-rule:nonzero;"/><path d="M1483.03,738.471l-20.612,3.125c-0,-0 -20.613,13.737 -28.73,14.362c-8.12,0.625 -16.241,8.121 -8.12,9.371c8.12,1.25 59.958,-2.5 59.958,-2.5l-2.496,-24.358Z" style="fill:#084e4a;fill-rule:nonzero;"/><path d="M1624.64,539.504c0,0 -109.733,14.375 -106.612,45.604c3.125,31.229 -32.5,137.121 -32.5,137.121l-29.354,-0.621c-0,0 20.696,-133.92 20.696,-152.658c-0,-18.738 102.8,-60.05 102.8,-60.05l44.97,30.604Z" style="fill:#084e4a;fill-rule:nonzero;"/><path d="M1606.08,724.729l-21.238,8.121c0,0 -1.249,14.992 -9.37,16.862c-8.117,1.876 -20.609,8.121 -19.363,13.117c1.25,4.996 37.479,-2.496 37.479,-2.496l23.734,-18.737l-11.242,-16.867Z" style="fill:#084e4a;fill-rule:nonzero;"/><path d="M1648.05,509.483c-0,0 24.767,32.192 -2.279,50.821c-22.859,15.75 -92.534,17.917 -90.246,23.063c5,11.241 51.8,128.245 51.8,128.245l-28.104,6.871c-0,0 -70.45,-101.262 -74.821,-132.491c-4.375,-31.229 77.146,-71.471 77.146,-71.471l66.504,-5.038Z" style="fill:#0c858b;fill-rule:nonzero;"/><path d="M1524.29,490.146l-115.405,-0c-2.821,-0 -5.129,-2.309 -5.129,-5.129l-10.958,-82.088c-0,-2.821 2.304,-5.129 5.125,-5.129l115.404,-0c2.821,-0 5.125,2.308 5.125,5.129l10.962,82.088c0,2.82 -2.304,5.129 -5.124,5.129Z" style="fill:#3f60ac;fill-rule:nonzero;"/><path d="M1516.14,490.146l-115.404,-0c-2.821,-0 -5.129,-2.309 -5.129,-5.129l-10.958,-82.088c-0,-2.821 2.304,-5.129 5.125,-5.129l115.404,-0c2.821,-0 5.125,2.308 5.125,5.129l10.962,82.088c0,2.82 -2.304,5.129 -5.125,5.129Z" style="fill:#60a4d9;fill-rule:nonzero;"/><path d="M1397.44,496.567l205.033,-0c2.2,-0 4,-1.8 4,-4c-0,-2.2 -1.8,-4.004 -4,-4.004l-205.033,-0c-2.201,-0 -4.001,1.804 -4.001,4.004c0,2.2 1.8,4 4.001,4Z" style="fill:#3f60ac;fill-rule:nonzero;"/><path d="M1441.69,445.875c-0,5.146 3.404,9.321 7.604,9.321c4.2,-0 7.608,-4.175 7.608,-9.321c0,-5.15 -3.408,-9.325 -7.608,-9.325c-4.2,0 -7.604,4.175 -7.604,9.325Z" style="fill:#357abe;fill-rule:nonzero;"/><path d="M1567.28,500.046c-0.404,0.129 -1.225,0.3 -1.883,0.437c-0.708,0.134 -1.417,0.271 -2.146,0.367c-1.45,0.225 -2.921,0.379 -4.387,0.467c-2.938,0.187 -5.863,0.112 -8.709,-0.238c-2.829,-0.4 -5.529,-1.133 -8.062,-2.187c-2.508,-1.092 -4.692,-2.667 -6.704,-4.509l-0.35,-0.325c-1.921,-1.758 -4.909,-1.629 -6.671,0.292c-1.592,1.738 -1.638,4.342 -0.221,6.125c2.45,3.092 5.4,5.871 8.767,7.946c3.366,2.033 6.975,3.554 10.65,4.604c3.67,1 7.391,1.613 11.112,1.9c1.858,0.146 3.721,0.212 5.592,0.188c0.933,0.004 1.879,-0.042 2.825,-0.08c0.992,-0.066 1.821,-0.112 3.058,-0.279l0.458,-0.058c4.13,-0.554 7.025,-4.354 6.471,-8.484c-0.554,-4.129 -4.35,-7.025 -8.479,-6.466c-0.441,0.054 -0.908,0.171 -1.321,0.3Z" style="fill:#fac6ca;fill-rule:nonzero;"/><path d="M1621.01,358.646c0,-0 -16.896,7.292 -3.779,51.012c13.117,43.721 28.846,61.4 -1.137,71.392c-29.98,9.996 -58.409,19.629 -58.409,19.629l1.917,15.321c-0,-0 98.521,-5.821 101.017,-38.3c2.5,-32.479 -13.813,-99.9 -16.934,-106.775c-3.125,-6.867 -5.671,-12.279 -22.675,-12.279Z" style="fill:#ef4d8c;fill-rule:nonzero;"/><path d="M1904.08,1804.86c-0.725,2.059 -0.725,17.825 -0.725,17.825c0,0 52.975,1.375 56.6,-0.683c3.629,-2.058 5.808,-11.654 -8.708,-13.713c-14.509,-2.058 -32.65,-10.283 -32.65,-10.283l-14.517,6.854Z" style="fill:#2f3083;fill-rule:nonzero;"/><path d="M1802.91,1820.98c-0.725,2.059 -0.725,17.829 -0.725,17.829c0,0 52.971,1.371 56.6,-0.683c3.63,-2.062 5.805,-11.658 -8.708,-13.712c-14.512,-2.063 -32.654,-10.288 -32.654,-10.288l-14.513,6.854Z" style="fill:#2f3083;fill-rule:nonzero;"/><path d="M1917.03,1478.64l-9.892,-44.392l-93.512,19.225l-0.009,0.312c22.359,17.513 43.596,43.65 53.346,70.367c0.388,-4.475 0.604,-6.954 0.604,-6.954l32.163,297.95c-0,-0 23.95,-11.659 26.125,-12.342c2.179,-0.687 -8.825,-324.166 -8.825,-324.166Z" style="fill:#2f3083;fill-rule:nonzero;"/><path d="M1857.67,1449.43l56.07,25.058l-46.216,91.034l-43.134,254.033l-22.495,0.688c-0,-0 0.133,-265.054 0.133,-293.7c-0,-44.396 13.604,-65.425 13.604,-65.425l42.038,-11.688Z" style="fill:#3f60ac;fill-rule:nonzero;"/><path d="M1981.83,1402.18c0,0 22.267,-4.771 23.325,-2.65c1.058,2.121 -2.65,5.3 -2.65,5.3c0,0 19.613,0 20.675,2.65c1.058,2.65 -18.025,17.492 -36.579,15.371c-18.55,-2.116 -32.863,-13.25 -32.863,-13.25l15.371,-7.95l12.721,0.529Z" style="fill:#fac6c9;fill-rule:nonzero;"/><path d="M1858.67,1281.68c4.296,1.071 26.858,13.779 22.617,24.029c-4.242,10.246 16.962,53.363 16.962,53.363l72.796,39.579l-15.546,18.021c0,-0 -91.529,-22.971 -94.708,-34.629c-3.18,-11.663 -20.496,-32.159 -12.721,-65.734c7.771,-33.566 -4.95,-38.516 10.6,-34.629Z" style="fill:#ee3c82;fill-rule:nonzero;"/><path d="M1849.65,1260.18l10.925,-23.262l3.171,-7.4l-6.696,-14.804l29.254,-17.267l32.775,-1.408l4.934,10.925c-0,-0 -1.763,54.629 -20.792,54.275c-19.034,-0.354 -22.909,-1.409 -22.909,-1.409l-1.412,6.696l4.229,6.696c0,0 -19.737,3.525 -30.308,-1.762c-10.575,-5.284 -3.171,-11.28 -3.171,-11.28Z" style="fill:#fac6c9;fill-rule:nonzero;"/><path d="M1882,1270.73c-0,-0 15.9,11.662 17.671,15.9c1.762,4.242 16.429,143.829 16.429,143.829l6.612,51.521l-115.52,-2.496c-0,0 23.566,-184.729 24.979,-186.491c1.412,-1.767 13.954,-33.184 16.429,-32.476c2.475,0.709 19.262,12.688 33.4,10.213Z" style="fill:#f2759a;fill-rule:nonzero;"/><path d="M1916.1,1430.45c-0,0 22.267,-4.771 23.325,-2.65c1.058,2.121 -2.65,5.3 -2.65,5.3c-0,0 19.612,0 20.671,2.65c1.062,2.65 -18.021,17.492 -36.575,15.375c-18.555,-2.121 -32.863,-13.254 -32.863,-13.254l15.371,-7.95l12.721,0.529Z" style="fill:#fac6c9;fill-rule:nonzero;"/><path d="M1851.96,1264.01c4.296,1.075 10.954,10.246 6.713,20.496c-4.238,10.246 -26.15,102.838 -26.15,102.838l72.796,39.579l-15.546,18.021c-0,-0 -91.529,-22.967 -94.708,-34.629c-3.184,-11.663 1.412,-51.95 9.187,-85.521c7.775,-33.571 32.158,-64.671 47.708,-60.784Z" style="fill:#ee3c82;fill-rule:nonzero;"/><path d="M1889.85,1200.55c-0,0 34.688,9.95 36.842,3.725c2.158,-6.221 3.941,-17.762 3.941,-17.762c0,-0 -19.366,-0.863 -29.7,-5.042c-10.329,-4.183 -42.841,-15.05 -45.708,8.071c-2.867,23.129 0.354,56.175 0.354,56.175l7.213,-2.375l0.712,-22.554c0,-0 1.85,-12.596 7.959,-8.684c6.112,3.917 -1.95,53.559 -1.95,53.559c-0,-0 26.541,14.137 35.316,9.395c8.771,-4.745 13.167,-29.266 13.167,-29.266c-0,-0 -15.675,-2.084 -20.183,2.225c-4.509,4.308 -15.413,-2.029 -15.413,-2.029l7.45,-45.438Z" style="fill:#4670b7;fill-rule:nonzero;"/><path d="M2077.25,1493.57c-2.292,-4.038 11.779,-13.121 8.471,-23.209c-1.775,-5.42 -7.546,-8.02 -6.996,-14c0.358,-3.899 3.071,-5.558 2.208,-6.995c-1.296,-2.163 -8.204,0.254 -19.525,2.945c-19.867,4.721 -24.192,3.367 -26.15,2.58c-3.962,-1.596 -6.775,-4.321 -8.704,-6.829c-47.508,-6.488 -87.029,-38.059 -104.779,-80.938l-0.004,0c-9.938,4.3 -10.705,14.046 -16.917,13.542c0,-0 -0.7,-0.059 -8.842,-4.425c-1.004,-8.992 -2.3,-10.963 -3.316,-11.046c-2.838,-0.25 -8.492,13.729 -3.867,19.333c1.596,1.942 3.821,2.15 4.421,4.425c0.787,2.996 -2.629,4.363 -2.767,7.734c-0.217,5.499 8.679,6.779 9.95,13.816c0.875,4.846 -2.771,7.446 -1.104,9.942c1.992,2.996 7.621,-0.158 14.363,1.108c8.67,1.625 10.408,8.9 24.312,23.204c4.767,4.905 9.313,9.584 16.025,14.371c15.592,11.113 25.1,10.134 27.629,17.129c2.742,7.575 -3.862,17.263 -9.946,22.1c-9.112,7.242 -20.079,5.896 -23.07,5.525c-1.659,-0.204 -3.234,-0.516 -4.751,-0.945c19.221,10.783 41.384,16.941 64.988,16.941c28.558,0 55.017,-9.004 76.692,-24.325c-4.467,0.2 -7.475,-0.496 -8.321,-1.983Z" style="fill:#447dc0;fill-rule:nonzero;"/><path d="M1894.21,1444.21c1.217,-6.22 5.442,-8.091 4.696,-14.366c-0.891,-7.509 -7.321,-8.079 -8.7,-17.13c-0.712,-4.633 0.567,-7.154 -1.52,-12.02c-1.292,-3.004 -2.588,-3.921 -4.146,-6.35c-3.521,-5.488 -3.517,-11.084 -3.73,-15.888c-0.237,-5.383 -0.854,-12.112 -1.824,-20.371c-2.046,9.263 -3.134,18.892 -3.134,28.775c0,41.08 18.625,77.804 47.892,102.204c-3.538,-3.629 -7.379,-7.929 -11.85,-12.941c-11.9,-13.338 -19.592,-22.192 -17.684,-31.913Z" style="fill:#447dc0;fill-rule:nonzero;"/><path d="M2023.83,1416.58c4.146,-4.995 9.838,-4.758 12.154,-10.687c1.346,-3.433 -0.979,-5.138 0.371,-8.104c1.684,-3.713 5.892,-3.734 13.075,-6.446c12.684,-4.788 15.575,-10.779 20.446,-8.838c3.588,1.43 2.625,4.93 7,7.363c6.713,3.746 16.708,-0.196 16.758,-2.392c0.03,-1.154 -2.708,-1.654 -2.579,-2.762c0.167,-1.379 4.479,-1.125 9.396,-3.134c2.413,-0.983 7.879,-3.212 9.209,-7.916c1.066,-3.775 -0.688,-8.604 -3.13,-9.213c-2.67,-0.662 -4.721,4.05 -7.187,3.317c-2.163,-0.642 -3.7,-5.192 -2.575,-8.838c0.342,-1.116 0.9,-2.025 1.567,-2.795c-1.48,0.487 -2.98,0.933 -4.488,1.349c0.188,1.021 0.154,2.038 -0.396,3.101c-1.275,2.458 -3.725,2.041 -4.237,4.237c-0.75,3.225 4.041,6.312 3.133,7.733c-0.479,0.746 -2.237,0.596 -3.5,0.184c-4.287,-1.396 -4,-6.205 -7.921,-9.209c-4.591,-3.512 -11.487,-1.891 -11.604,-1.1c-0.15,1.009 10.679,2.092 11.421,6.442c0.1,0.592 0.096,1.725 -0.554,2.213c-0.925,0.687 -2.705,-0.313 -3.867,-0.921c-4.646,-2.454 -8.296,-4.379 -11.421,-4.054c-2.396,0.25 -3.992,1.824 -7.183,4.975c-1.959,1.933 -4.021,4.02 -4.604,7.179c-0.404,2.183 0.354,2.416 -0,4.241c-0.779,4.046 -5.542,8.259 -10.684,7.917c-0.65,-0.042 -3.75,-0.25 -5.891,-2.762c-1.955,-2.292 -2.625,-5.925 -1.288,-8.471c2.325,-4.446 9.271,-2.775 10.679,-6.634c0.975,-2.666 -2.087,-4.2 -1.287,-8.287c0.45,-2.317 1.612,-2.725 3.292,-5.725c-18.576,-4.163 -35.088,-13.775 -47.775,-27.075c-2.417,0.025 -4.734,0.437 -6.567,2.225c-3.246,3.162 -1.583,7.296 -4.833,8.841c-2.842,1.351 -7.305,-0.283 -9.255,-3.179c-2.825,-4.179 -0.096,-10.516 1.379,-13.95c2.471,-5.746 5.017,-6.737 4.421,-9.529c-0.862,-4.037 -7.183,-4.862 -6.771,-8.15c0.159,-1.241 0.917,-2.483 3.163,-4.137c-0.525,-1.221 -1.029,-2.45 -1.504,-3.7c-2.333,0.295 -5.054,0.895 -7.938,2.308c-1.916,0.942 -7.225,3.55 -7.733,7.737c-0.396,3.259 2.525,4.18 2.762,7.734c0.45,6.775 -9.404,14.529 -13.262,12.708c-0.5,-0.233 -0.879,-0.616 -2.167,-3.516c-2.454,-5.513 -2.616,-7.6 -3.912,-10.296c-0.642,-1.346 -3.65,-7.613 -7.733,-7.738c-5.18,-0.15 -8.576,9.692 -8.842,10.5c-1.35,4.05 -2.338,10.979 0.554,12.713c2.1,1.254 4.033,-1.554 8.288,-1.663c7.729,-0.187 13.641,8.821 15.47,11.604c3.684,5.613 7.038,14.396 4.421,16.579c-1.116,0.93 -4.441,-0.104 -11.05,-2.208c-6.862,-2.192 -8.904,-3.337 -10.5,-2.212c-2.208,1.55 -0.116,5.016 -2.208,8.291c-2.588,4.034 -7.688,1.717 -14.575,4.692c17.75,42.879 57.271,74.45 104.779,80.938c-1.579,-2.051 -2.567,-3.95 -3.087,-4.959c-4.013,-7.783 -5.355,-19.642 0.37,-26.521Z" style="fill:#5091cd;fill-rule:nonzero;"/><path d="M1968.39,1264.08c-20.613,15.304 -25.65,21.329 -24.313,24.312c1.442,3.217 10.075,2.771 10.5,6.08c0.346,2.691 -5.129,4.841 -4.421,7.183c0.471,1.554 3.288,1.95 4.463,2.117c2.112,0.3 6.416,0.237 7.691,-2.117c1.338,-2.471 -2.174,-4.65 -1.654,-8.842c0.421,-3.412 3.334,-6.762 6.629,-7.737c2.896,-0.854 5.575,0.291 9.209,2.804c-1.65,-7.013 -2.529,-14.317 -2.529,-21.829c-0,-2.575 0.104,-5.129 0.308,-7.654l-0.583,0.158c-0.605,1.4 -2.171,3.2 -5.3,5.525Z" style="fill:#5091cd;fill-rule:nonzero;"/><path d="M1976.5,1287.88c1.525,1.05 3.212,2.338 5.158,3.829c3.708,2.838 6.596,5.042 6.079,6.629c-0.479,1.463 -3.404,1.038 -7.537,1.559c0.475,1.25 0.979,2.479 1.504,3.7l0.017,-0.009c7.95,-5.833 22.412,-7.937 27.629,-1.933c1.012,1.167 1.883,2.879 3.866,3.317c2.971,0.65 5.505,-2.217 6.492,-1.384c0.704,0.592 -0.029,2.517 -0.829,4.559c-2.383,6.096 -3.787,9.262 -4.558,11.325c-2.592,6.933 -0.467,7.875 -2.488,10.087c-2.783,3.054 -7.383,1.871 -11.666,1.917c12.687,13.3 29.199,22.912 47.775,27.075l0.391,-0.721c2.171,-4.212 1.267,-5.408 2.579,-7.733c3.317,-5.9 11.475,-2.442 16.392,-8.109c3.742,-4.308 3.762,-11.775 0.738,-16.204c-2.163,-3.171 -6.113,-5.125 -7.184,-4.237c-1.116,0.921 1.834,4.15 1.658,9.575c-0.016,0.521 -0.345,7.933 -4.791,9.95c-3.842,1.741 -9.309,-1.217 -11.971,-4.792c-5.846,-7.85 -1.187,-22.746 7.738,-28.179c3.599,-2.196 9.304,-3.709 11.604,-1.475c2.275,2.212 0.129,7.058 2.208,8.104c1.271,0.642 3.646,-0.379 4.421,-2.025c1.254,-2.671 -2.6,-5.113 -3.5,-10.5c-0.779,-4.679 1.654,-5.679 1.475,-9.575c-0.284,-6.121 -6.521,-9 -18.604,-19.342c-8.609,-7.366 -12.909,-11.046 -12.342,-13.079c0.258,-0.921 1.288,-1.687 2.908,-2.291c-10.487,-2.659 -21.47,-4.075 -32.783,-4.075c-11.971,-0 -23.567,1.591 -34.6,4.554c-0.204,2.525 -0.308,5.079 -0.308,7.654c-0,7.512 0.879,14.816 2.529,21.829Z" style="fill:#5aa8dd;fill-rule:nonzero;"/><path d="M2105.61,1349.35c-0.054,-2.396 -3.512,-4.991 -6.812,-4.791c-2.871,0.174 -5.225,2.437 -6.079,4.791c-1.138,3.129 0.666,5.634 1.133,8.133c1.508,-0.416 3.008,-0.862 4.488,-1.349c2.725,-3.142 7.341,-3.984 7.27,-6.784Z" style="fill:#5aa8dd;fill-rule:nonzero;"/><path d="M2140.04,1409.05c-24.167,24.825 -57.938,40.25 -95.317,40.25c-6.167,0 -12.233,-0.425 -18.175,-1.241c1.929,2.508 4.742,5.233 8.704,6.829c1.958,0.787 6.283,2.141 26.15,-2.58c11.321,-2.691 18.229,-5.108 19.525,-2.945c0.863,1.437 -1.85,3.096 -2.208,6.995c-0.55,5.98 5.221,8.58 6.996,14c3.308,10.088 -10.763,19.171 -8.471,23.209c0.846,1.487 3.854,2.183 8.321,1.983c28.337,-20.033 48.483,-50.858 54.475,-86.5Z" style="fill:#bcdcf3;fill-rule:nonzero;"/><path d="M2047.94,1358.55c-1.68,3 -2.842,3.408 -3.292,5.725c-0.8,4.087 2.262,5.621 1.287,8.287c-1.408,3.859 -8.354,2.188 -10.679,6.634c-1.337,2.546 -0.667,6.179 1.288,8.471c2.141,2.512 5.241,2.72 5.891,2.762c5.142,0.342 9.905,-3.871 10.684,-7.917c0.354,-1.825 -0.404,-2.058 -0,-4.241c0.583,-3.159 2.645,-5.246 4.604,-7.179c3.191,-3.151 4.787,-4.725 7.183,-4.975c3.125,-0.325 6.775,1.6 11.421,4.054c1.162,0.608 2.942,1.608 3.867,0.921c0.65,-0.488 0.654,-1.621 0.554,-2.213c-0.742,-4.35 -11.571,-5.433 -11.421,-6.442c0.117,-0.791 7.013,-2.412 11.604,1.1c3.921,3.004 3.634,7.813 7.921,9.209c1.263,0.412 3.021,0.562 3.5,-0.184c0.908,-1.421 -3.883,-4.508 -3.133,-7.733c0.512,-2.196 2.962,-1.779 4.237,-4.237c0.55,-1.063 0.584,-2.08 0.396,-3.101c-7.992,2.184 -16.4,3.363 -25.079,3.363c-7.159,0 -14.129,-0.8 -20.833,-2.304Z" style="fill:#bcdcf3;fill-rule:nonzero;"/><path d="M2132.07,1336.61c-9.659,8.67 -21.109,15.387 -33.729,19.525c-0.667,0.77 -1.225,1.679 -1.567,2.795c-1.125,3.646 0.412,8.196 2.575,8.838c2.466,0.733 4.517,-3.979 7.187,-3.317c2.442,0.609 4.196,5.438 3.13,9.213c-1.33,4.704 -6.796,6.933 -9.209,7.916c-4.917,2.009 -9.229,1.755 -9.396,3.134c-0.129,1.108 2.609,1.608 2.579,2.762c-0.05,2.196 -10.045,6.138 -16.758,2.392c-4.375,-2.433 -3.412,-5.933 -7,-7.363c-4.871,-1.941 -7.762,4.05 -20.446,8.838c-7.183,2.712 -11.391,2.733 -13.075,6.446c-1.35,2.966 0.975,4.671 -0.371,8.104c-2.316,5.929 -8.008,5.692 -12.154,10.687c-5.725,6.879 -4.383,18.738 -0.37,26.521c0.52,1.009 1.508,2.908 3.087,4.959c5.942,0.816 12.008,1.241 18.175,1.241c37.379,0 71.15,-15.425 95.317,-40.25c1.212,-7.217 1.854,-14.633 1.854,-22.196c-0,-17.783 -3.5,-34.741 -9.829,-50.245Z" style="fill:url(#_Linear2);"/><path d="M2038.75,1260.2c-0.567,2.033 3.733,5.713 12.342,13.079c12.083,10.342 18.32,13.221 18.604,19.342c0.179,3.896 -2.254,4.896 -1.475,9.575c0.9,5.387 4.754,7.829 3.5,10.5c-0.775,1.646 -3.15,2.667 -4.421,2.025c-2.079,-1.046 0.067,-5.892 -2.208,-8.104c-2.3,-2.234 -8.005,-0.721 -11.604,1.475c-8.925,5.433 -13.584,20.329 -7.738,28.179c2.662,3.575 8.129,6.533 11.971,4.792c4.446,-2.017 4.775,-9.429 4.791,-9.95c0.176,-5.425 -2.774,-8.654 -1.658,-9.575c1.071,-0.888 5.021,1.066 7.184,4.237c3.024,4.429 3.004,11.896 -0.738,16.204c-4.917,5.667 -13.075,2.209 -16.392,8.109c-1.312,2.325 -0.408,3.521 -2.579,7.733l-0.391,0.721c6.704,1.504 13.674,2.304 20.833,2.304c8.679,0 17.087,-1.179 25.079,-3.363c-0.467,-2.499 -2.271,-5.004 -1.133,-8.133c0.854,-2.354 3.208,-4.617 6.079,-4.791c3.3,-0.2 6.758,2.395 6.812,4.791c0.071,2.8 -4.545,3.642 -7.27,6.784c12.62,-4.138 24.07,-10.855 33.729,-19.525c-15.796,-38.692 -49.28,-68.275 -90.409,-78.7c-1.62,0.604 -2.65,1.37 -2.908,2.291Z" style="fill:url(#_Linear3);"/><path d="M1943.89,1502.94c-7.145,-4.013 -13.887,-8.659 -20.141,-13.876c7.1,7.292 12.954,11.85 20.141,13.876Z" style="fill:#bcdcf3;fill-rule:nonzero;"/><path d="M1971.71,1498.36c6.084,-4.837 12.688,-14.525 9.946,-22.1c-2.529,-6.995 -12.037,-6.016 -27.629,-17.129c-6.712,-4.787 -11.258,-9.466 -16.025,-14.371c-13.904,-14.304 -15.642,-21.579 -24.312,-23.204c-6.742,-1.266 -12.371,1.888 -14.363,-1.108c-1.667,-2.496 1.979,-5.096 1.104,-9.942c-1.271,-7.037 -10.167,-8.317 -9.95,-13.816c0.138,-3.371 3.554,-4.738 2.767,-7.734c-0.6,-2.275 -2.825,-2.483 -4.421,-4.425c-4.625,-5.604 1.029,-19.583 3.867,-19.333c1.016,0.083 2.312,2.054 3.316,11.046c8.142,4.366 8.842,4.425 8.842,4.425c6.212,0.504 6.979,-9.242 16.917,-13.542l0.004,0c-6.483,-15.663 -10.071,-32.829 -10.071,-50.842c0,-7.562 0.646,-14.975 1.858,-22.196c-16.941,17.401 -29.154,39.421 -34.57,63.996c0.97,8.259 1.587,14.988 1.824,20.371c0.213,4.804 0.209,10.4 3.73,15.888c1.558,2.429 2.854,3.346 4.146,6.35c2.087,4.866 0.808,7.387 1.52,12.02c1.379,9.051 7.809,9.621 8.7,17.13c0.746,6.275 -3.479,8.146 -4.696,14.366c-1.908,9.721 5.784,18.575 17.684,31.913c4.471,5.012 8.312,9.312 11.85,12.941c6.254,5.217 12.996,9.863 20.141,13.876c1.517,0.429 3.092,0.741 4.751,0.945c2.991,0.371 13.958,1.717 23.07,-5.525Z" style="fill:#bcdcf3;fill-rule:nonzero;"/><path d="M1936.35,1362.43c2.092,-3.275 -0,-6.741 2.208,-8.291c1.596,-1.125 3.638,0.02 10.5,2.212c6.609,2.104 9.934,3.138 11.05,2.208c2.617,-2.183 -0.737,-10.966 -4.421,-16.579c-1.829,-2.783 -7.741,-11.791 -15.47,-11.604c-4.255,0.109 -6.188,2.917 -8.288,1.663c-2.892,-1.734 -1.904,-8.663 -0.554,-12.713c0.266,-0.808 3.662,-10.65 8.842,-10.5c4.083,0.125 7.091,6.392 7.733,7.738c1.296,2.696 1.458,4.783 3.912,10.296c1.288,2.9 1.667,3.283 2.167,3.516c3.858,1.821 13.712,-5.933 13.262,-12.708c-0.237,-3.554 -3.158,-4.475 -2.762,-7.734c0.508,-4.187 5.817,-6.795 7.733,-7.737c2.884,-1.413 5.605,-2.013 7.938,-2.308c-1.488,-3.892 -2.729,-7.905 -3.7,-12.017c-3.634,-2.513 -6.313,-3.658 -9.209,-2.804c-3.295,0.975 -6.208,4.325 -6.629,7.737c-0.52,4.192 2.992,6.371 1.654,8.842c-1.275,2.354 -5.579,2.417 -7.691,2.117c-1.175,-0.167 -3.992,-0.563 -4.463,-2.117c-0.708,-2.342 4.767,-4.492 4.421,-7.183c-0.425,-3.309 -9.058,-2.863 -10.5,-6.08c-1.337,-2.983 3.7,-9.008 24.313,-24.312c3.129,-2.325 4.695,-4.125 5.3,-5.525c-23.188,6.342 -43.846,18.804 -60.134,35.537c-1.212,7.221 -1.858,14.634 -1.858,22.196c0,18.013 3.588,35.179 10.071,50.842c6.887,-2.975 11.987,-0.658 14.575,-4.692Z" style="fill:url(#_Linear4);"/><path d="M1987.73,1298.33c0.517,-1.587 -2.371,-3.791 -6.079,-6.629c-1.946,-1.491 -3.633,-2.779 -5.158,-3.829c0.971,4.112 2.212,8.125 3.7,12.017c4.133,-0.521 7.058,-0.096 7.537,-1.559Z" style="fill:#bcdcf3;fill-rule:nonzero;"/><path d="M1978.54,1307.73c-0.412,3.288 5.909,4.113 6.771,8.15c0.596,2.792 -1.95,3.783 -4.421,9.529c-1.475,3.434 -4.204,9.771 -1.379,13.95c1.95,2.896 6.413,4.53 9.255,3.179c3.25,-1.545 1.587,-5.679 4.833,-8.841c1.833,-1.788 4.15,-2.2 6.567,-2.225c-7.696,-8.067 -13.98,-17.492 -18.463,-27.879c-2.246,1.654 -3.004,2.896 -3.163,4.137Z" style="fill:url(#_Linear5);"/><path d="M2011.83,1329.55c2.021,-2.212 -0.104,-3.154 2.488,-10.087c0.771,-2.063 2.175,-5.229 4.558,-11.325c0.8,-2.042 1.533,-3.967 0.829,-4.559c-0.987,-0.833 -3.521,2.034 -6.492,1.384c-1.983,-0.438 -2.854,-2.15 -3.866,-3.317c-5.217,-6.004 -19.679,-3.9 -27.629,1.933l-0.017,0.009c4.483,10.387 10.767,19.812 18.463,27.879c4.283,-0.046 8.883,1.137 11.666,-1.917Z" style="fill:url(#_Linear6);"/><path d="M1916.1,1430.45c-0,0 22.267,-4.771 23.325,-2.65c1.058,2.121 -2.65,5.3 -2.65,5.3c-0,0 19.612,0 20.671,2.65c1.062,2.65 -18.021,17.492 -36.575,15.375c-18.555,-2.121 -32.863,-13.254 -32.863,-13.254l15.371,-7.95l12.721,0.529Z" style="fill:#fac6c9;fill-rule:nonzero;"/><path d="M1851.96,1264.01c4.296,1.075 10.954,10.246 6.713,20.496c-4.238,10.246 -26.15,102.838 -26.15,102.838l72.796,39.579l-15.546,18.021c-0,-0 -91.529,-22.967 -94.708,-34.629c-3.184,-11.663 1.412,-51.95 9.187,-85.521c7.775,-33.571 32.158,-64.671 47.708,-60.784Z" style="fill:#ee3c82;fill-rule:nonzero;"/></g><defs><linearGradient id="_Linear2" x1="0" y1="0" x2="1" y2="0" gradientUnits="userSpaceOnUse" gradientTransform="matrix(121.908,0,0,121.908,2019.99,1392.96)"><stop offset="0" style="stop-color:#d5edfb;stop-opacity:1"/><stop offset="1" style="stop-color:#fff;stop-opacity:1"/></linearGradient><linearGradient id="_Linear3" x1="0" y1="0" x2="1" y2="0" gradientUnits="userSpaceOnUse" gradientTransform="matrix(93.3667,0,0,93.3667,2038.7,1309.38)"><stop offset="0" style="stop-color:#d5edfb;stop-opacity:1"/><stop offset="1" style="stop-color:#fff;stop-opacity:1"/></linearGradient><linearGradient id="_Linear4" x1="0" y1="0" x2="1" y2="0" gradientUnits="userSpaceOnUse" gradientTransform="matrix(68.4925,0,0,68.4925,1911.7,1312.84)"><stop offset="0" style="stop-color:#d5edfb;stop-opacity:1"/><stop offset="1" style="stop-color:#fff;stop-opacity:1"/></linearGradient><linearGradient id="_Linear5" x1="0" y1="0" x2="1" y2="0" gradientUnits="userSpaceOnUse" gradientTransform="matrix(21.8824,0,0,21.8824,1978.28,1323.31)"><stop offset="0" style="stop-color:#d5edfb;stop-opacity:1"/><stop offset="1" style="stop-color:#fff;stop-opacity:1"/></linearGradient><linearGradient id="_Linear6" x1="0" y1="0" x2="1" y2="0" gradientUnits="userSpaceOnUse" gradientTransform="matrix(38.287,0,0,38.287,1981.7,1314.85)"><stop offset="0" style="stop-color:#d5edfb;stop-opacity:1"/><stop offset="1" style="stop-color:#fff;stop-opacity:1"/></linearGradient></defs></svg>